/* XPM */
static char *bmoku-0-LB-179[] = {
/* columns rows colors chars-per-pixel */
"36 36 94 2",
"   c #000100010001",
".  c #039103910391",
"X  c #053605360536",
"o  c #067106710671",
"O  c #07A807A807A8",
"+  c #0A0F0A0F0A0F",
"@  c #0BF70BF70BF7",
"#  c #0CEB0CEB0CEB",
"$  c #0DC40DC40DC4",
"%  c #118911891189",
"&  c #14BE14BE14BE",
"*  c #19C519C519C5",
"=  c #1B561B561B56",
"-  c #1CC51CC51CC5",
";  c #1DAF1DAF1DAF",
":  c #22C922C922C9",
">  c #2A412A412A41",
",  c #2E732E732E73",
"<  c #32F832F832F8",
"1  c #336133613361",
"2  c #34AF34AF34AF",
"3  c #37E837E837E8",
"4  c #3AE83AE83AE8",
"5  c #3C103C103C10",
"6  c #3FD63FD63FD6",
"7  c #40ED40ED40ED",
"8  c #417C417C417C",
"9  c #48C248C248C2",
"0  c #4AB14AB14AB1",
"q  c #4B734B734B73",
"w  c #51D051D051D0",
"e  c #559955995599",
"r  c #5A405A405A40",
"t  c #618B618B618B",
"y  c #640064006400",
"u  c #67BF67BF67BF",
"i  c #68C968C968C9",
"p  c #6AFA6AFA6AFA",
"a  c gray44",
"s  c #72A972A972A9",
"d  c #7ACC7ACC7ACC",
"f  c #7F2D7F2D7F2D",
"g  c #E79DB2CA4924",
"h  c #85FA85FA85FA",
"j  c #87DC87DC87DC",
"k  c #8A1F8A1F8A1F",
"l  c #8CAB8CAB8CAB",
"z  c #8FFF8FFF8FFF",
"x  c #90CF90CF90CF",
"c  c #958895889588",
"v  c #97DA97DA97DA",
"b  c #9E709E709E70",
"n  c #9EDF9EDF9EDF",
"m  c #A190A190A190",
"M  c #A27BA27BA27B",
"N  c #A50CA50CA50C",
"B  c #A7BAA7BAA7BA",
"V  c #ACA5ACA5ACA5",
"C  c #ACBEACBEACBE",
"Z  c #B0A1B0A1B0A1",
"A  c #B581B581B581",
"S  c #B66BB66BB66B",
"D  c #B801B801B801",
"F  c #B906B906B906",
"G  c #BAAABAAABAAA",
"H  c #C266C266C266",
"J  c #C549C549C549",
"K  c #C641C641C641",
"L  c #C931C931C931",
"P  c #CB87CB87CB87",
"I  c #CF32CF32CF32",
"U  c #D24ED24ED24E",
"Y  c #D3ACD3ACD3AC",
"T  c #D4B8D4B8D4B8",
"R  c #D56FD56FD56F",
"E  c #D891D891D891",
"W  c #D917D917D917",
"Q  c #DBA5DBA5DBA5",
"!  c #DC7FDC7FDC7F",
"~  c #E17EE17EE17E",
"^  c #E252E252E252",
"/  c #E94BE94BE94B",
"(  c #EC97EC97EC97",
")  c #EF9EEF9EEF9E",
"_  c #F1B3F1B3F1B3",
"`  c #F276F276F276",
"'  c #F92AF92AF92A",
"]  c #FA80FA80FA80",
"[  c #FB86FB86FB86",
"{  c #FC64FC64FC64",
"}  c #FD83FD83FD83",
"|  c #FE7AFE7AFE7A",
" . c #FFABFFABFFAB",
".. c gray100",
/* pixels */
"g g g g g g g g g g g g g g g g g     g g g g g g g g g g g g g g g g g ",
"g g g g g g g g g g g g g g g g g     g g g g g g g g g g g g g g g g g ",
"g g g g g g g g g g g g g g                 g g g g g g g g g g g g g g ",
"g g g g g g g g g g g                             g g g g g g g g g g g ",
"g g g g g g g g g                                     g g g g g g g g g ",
"g g g g g g g g                         y y y y         g g g g g g g g ",
"g g g g g g g                         r y y y r y y       g g g g g g g ",
"g g g g g g                         y y r n n n n r y       g g g g g g ",
"g g g g g                           y y n n n n n n y r       g g g g g ",
"g g g g       k z ,   y z z z z z z G T T Q I I P A H D p ;     g g g g ",
"g g g g     :  .[ r   P  . . . . . . . . .^ I I _  . . . . .d   g g g g ",
"g g g   % 1 ! [ ' r   P  . . . . . . . . .^ I _  . . . . . . .q   g g g ",
"g g g k  . .[  .' r   = > > > > > ,  . .( P Q  . . .! n n  . . .  g g g ",
"g g g k  . . . .' r               (  . .V P ^  . ./ n n y T  . .; g g g ",
"g g   = 5 5 z  .' r             p  . .c n n P  . .J n n y n  . .6   g g ",
"g g         z  .' e           =  . .^ y y n G  . .( n y p  . .[ w   g g ",
"g g         z  .[ r           n [  .1   y y y  . . ./ J  .[  .[ e   g g ",
"            z  .[ r         ;  . .T         y h  .[  . .[  . .[ q       ",
"            z  .' r         z [  .6             # p D P d I  . .>       ",
"g g         z  .' r       X  . . .X         ,  . .C     #  . . .#   g g ",
"g g         z  .' r       5  . .n           #  . . .2 ; C  .[ D     g g ",
"g g         z  .' r       c [  .6             n  . . . . . . .=     g g ",
"g g g       z  .[ r        . . .&             + P  . . . . .5     g g g ",
"g g g       q z z ,       k z z                   5 p d q +       g g g ",
"g g g                                                             g g g ",
"g g g g                                                         g g g g ",
"g g g g                                                         g g g g ",
"g g g g g                                                     g g g g g ",
"g g g g g g                                                 g g g g g g ",
"g g g g g g g                                             g g g g g g g ",
"g g g g g g g g                                         g g g g g g g g ",
"g g g g g g g g g                                     g g g g g g g g g ",
"g g g g g g g g g g g                             g g g g g g g g g g g ",
"g g g g g g g g g g g g g g                 g g g g g g g g g g g g g g ",
"g g g g g g g g g g g g g g g g g     g g g g g g g g g g g g g g g g g ",
"g g g g g g g g g g g g g g g g g     g g g g g g g g g g g g g g g g g "
};
