/* XPM */
static char *bmoku-0-LB-291[] = {
/* columns rows colors chars-per-pixel */
"36 36 119 2",
"   c #000100010001",
".  c #013001300130",
"X  c #02F402F402F4",
"o  c #055505550555",
"O  c #0BB80BB80BB8",
"+  c #0E680E680E68",
"@  c #0F580F580F58",
"#  c #104D104D104D",
"$  c #114F114F114F",
"%  c #121312131213",
"&  c #139513951395",
"*  c #143D143D143D",
"=  c #167E167E167E",
"-  c #19B319B319B3",
";  c #1D5C1D5C1D5C",
":  c #1EF51EF51EF5",
">  c #230523052305",
",  c #242224222422",
"<  c #244E244E244E",
"1  c #275127512751",
"2  c #2A402A402A40",
"3  c #2DCA2DCA2DCA",
"4  c #310D310D310D",
"5  c #33B633B633B6",
"6  c #3ED53ED53ED5",
"7  c #402340234023",
"8  c #421642164216",
"9  c #42E942E942E9",
"0  c #450345034503",
"q  c #46F546F546F5",
"w  c #4F8D4F8D4F8D",
"e  c #51BB51BB51BB",
"r  c #56E956E956E9",
"t  c #59FF59FF59FF",
"y  c #606E606E606E",
"u  c #618561856185",
"i  c #62EB62EB62EB",
"p  c #69EF69EF69EF",
"a  c #6B4A6B4A6B4A",
"s  c #713571357135",
"d  c #741274127412",
"f  c #773377337733",
"g  c #782B782B782B",
"h  c #79FC79FC79FC",
"j  c #7B8B7B8B7B8B",
"k  c #E79DB2CA4924",
"l  c #E7A7B2EA496F",
"z  c #E878B57F4F8D",
"x  c #E8FCB7235370",
"c  c #EA31BAF45C79",
"v  c #EC47C18F6C1E",
"b  c #810181018101",
"n  c #818E818E818E",
"m  c #830183018301",
"M  c #86FE86FE86FE",
"N  c #8CEE8CEE8CEE",
"B  c #8DAE8DAE8DAE",
"V  c #8FFF8FFF8FFF",
"C  c #94AC94AC94AC",
"Z  c #977897789778",
"A  c #987498749874",
"S  c #993099309930",
"D  c #9E6F9E6F9E6F",
"F  c #9F279F279F27",
"G  c #9FF19FF19FF1",
"H  c #A1B2A1B2A1B2",
"J  c #ABC3ABC3ABC3",
"K  c #AD0AAD0AAD0A",
"L  c #ADB5ADB5ADB5",
"P  c #AEB2AEB2AEB2",
"I  c #B466B466B466",
"U  c #B55BB55BB55B",
"Y  c #B616B616B616",
"T  c #B95CB95CB95C",
"R  c #BA44BA44BA44",
"E  c #BD30BD30BD30",
"W  c #EF29CAAF81BB",
"Q  c #F277D5289A88",
"!  c #F452DB05A86C",
"~  c #F4DDDCC0AC86",
"^  c #F554DE38AFFF",
"/  c #C559C559C559",
"(  c #C61BC61BC61B",
")  c #C99DC99DC99D",
"_  c #CA1DCA1DCA1D",
"`  c #CD77CD77CD77",
"'  c #CF49CF49CF49",
"]  c #D0DED0DED0DE",
"[  c #D43AD43AD43A",
"{  c #D4EBD4EBD4EB",
"}  c #D677D677D677",
"|  c #D806D806D806",
" . c #DA70DA70DA70",
".. c #DAE3DAE3DAE3",
"X. c #DD5DDD5DDD5D",
"o. c #DF4EDF4EDF4E",
"O. c #E011E011E011",
"+. c #E168E168E168",
"@. c #E478E478E478",
"#. c #EB99EB99EB99",
"$. c #EC32EC32EC32",
"%. c #ED60ED60ED60",
"&. c #EE7AEE7AEE7A",
"*. c #F09DF09DF09D",
"=. c #F175F175F175",
"-. c #F2A4F2A4F2A4",
";. c #F335F335F335",
":. c #F3F4F3F4F3F4",
">. c #F54AF54AF54A",
",. c #F798F798F798",
"<. c #F8A1F8A1F8A1",
"1. c #F9C7F9C7F9C7",
"2. c #FA6AFA6AFA6A",
"3. c #FC52FC52FC52",
"4. c #FDA4FDA4FDA4",
"5. c #FE6CFE6CFE6C",
"6. c #FFC8FF51FE63",
"7. c #FF9CFF9CFF9C",
"8. c gray100",
/* pixels */
"k k k k k k k k l l l l l k l l l     l l l l l k k k k k k k k k k k k ",
"k k k k k k k k l l l l k k l l l     l l l l l k k k k k k k k k k k k ",
"k k k k k k k k l l l l k l                 l l k l l k k k k k k k k k ",
"k k k k k k k k l l l                             l l k k k k k k k k k ",
"k k k k k k k k l                                     l k k k k k k k k ",
"k k k k k k k k                         u u u u         k k k k k k k k ",
"k k k k k k k                         u u u u u u u       l k k k k k k ",
"k k k k k k                         u u u D D D D u u       k k k k k k ",
"k k k k k                           u u D D D D D D u u       k k k k k ",
"k k k k * t b b e &           O q j J U D ' ' ' ' D D j C M     k k k k ",
"k k k ~ 8.8.8.,.1.8.r       u 8.8.8.,.8.1.[ ' ' ' ' D -.,.8.    k k k k ",
"k k Q 8.1.3.8.8.8.&.8.4   q 8.8.&.8.8.8.-.8.' ' [ [ ' 8.#.8.      k k k ",
"k k 8.8.8.a & : o.8.( E   ,.8.+.D - j 1.8.8. .' 8.8.8.8.#.8.      k k k ",
"k x 8.[ 8.      3 8. .8.  8.-.8.O   u N 8.,.-.' 8.8.8.8.#.8.      k k k ",
"k c 8.8.(       7 8.[ ,.  8.@.8.o     d 8.&.8.'  .U U 8.#.8.        k k ",
"k k * * O     < 8.8.#.f   8.8.8.5     R 8.-.8.D D D D 8.#.8.        k k ",
"k k       & D 8.8.+.&.O   Z 8.o.8.J [ 8.8.#.8.D D D u 8.o.8.        k k ",
"        u 8.8.-.8.U &       ( 8.8.8.,.8.8.[ 8.u u u u 8.o.8.            ",
"      U 8.-.8.&.8             8 S [ J u 8.( [         8.o.8.            ",
"k k D 8.o.8.w             o.8.8.:     J 8. .j         8.o.8.        k k ",
"k z 8.o.8.2 2 2 2 2 2 <   R 8.o.D * 7 8.,.8.<         8.o.8.        k k ",
"k W 8.&.8.8.8.8.8.8.8.8.  4 8.8.-.8.8.8.1.Z           8.o.8.        k k ",
"l ! 8.8.8.8.8.8.8.8.&.8.    a 8.8.8.&.8.S             8.&.8.      k k k ",
"l v ^ N N C N C N N C M       & r N a >               N C M       k k k ",
"l l k                                                             k k k ",
"l l k k                                                         k k k k ",
"l l l l                                                         k k k k ",
"l l l l l                                                     k k k k k ",
"k k k k l l                                                 k k k k k k ",
"k k k k l l l                                             k k k k k k k ",
"k k k k k l l l                                         k k k k k k k k ",
"k k k k k l l l k                                     k k k k k k k k k ",
"k k k k k k k k k k k                             k k k k k k k k k k k ",
"k k k k k k k k k k k k k k                 k k k k k k k k k k k k k k ",
"k k k k k k k k k k k k k k k k k     k k k k k k k k k k k k k k k k k ",
"k k k k k k k k k k k k k k k k k     k k k k k k k k k k k k k k k k k "
};
