/* XPM */
static char *bmoku-0-LB-282[] = {
/* columns rows colors chars-per-pixel */
"36 36 129 2",
"   c #000100010001",
".  c #01AD01AD01AD",
"X  c #025402540254",
"o  c #032003200320",
"O  c #085608560856",
"+  c #0A240A240A24",
"@  c #0C6E0C6E0C6E",
"#  c #0D120D120D12",
"$  c #0F3E0F3E0F3E",
"%  c #102910291029",
"&  c #119011901190",
"*  c #137A137A137A",
"=  c #144014401440",
"-  c #16B616B616B6",
";  c #1EE11EE11EE1",
":  c #214321432143",
">  c #23AF23AF23AF",
",  c #25B525B525B5",
"<  c #269426942694",
"1  c #2A402A402A40",
"2  c #2E8F2E8F2E8F",
"3  c #329132913291",
"4  c #387538753875",
"5  c #3CD93CD93CD9",
"6  c #3D9A3D9A3D9A",
"7  c #42D642D642D6",
"8  c #46E546E546E5",
"9  c #47D847D847D8",
"0  c #51E351E351E3",
"q  c #54CD54CD54CD",
"w  c #55D855D855D8",
"e  c #57F657F657F6",
"r  c #5A415A415A41",
"t  c #5AC45AC45AC4",
"y  c #5E145E145E14",
"u  c #5E725E725E72",
"i  c #618961896189",
"p  c #62D962D962D9",
"a  c #64F064F064F0",
"s  c #67C667C667C6",
"d  c #6B126B126B12",
"f  c #6C576C576C57",
"g  c #6E646E646E64",
"h  c #6F546F546F54",
"j  c #712F712F712F",
"k  c #754675467546",
"l  c #78A278A278A2",
"z  c #7FFE7FFE7FFE",
"x  c #E79DB2CA4924",
"c  c #E7C8B3534A68",
"v  c #E7FEB3FE4BFD",
"b  c #E868B54E4F19",
"n  c #E8CCB68A5205",
"m  c #E9F5BA375ABA",
"M  c #EB3DBE456455",
"N  c #EC05C0BC6A2C",
"B  c #EE02C7097918",
"V  c #866A866A866A",
"C  c #87CD87CD87CD",
"Z  c #88A688A688A6",
"A  c #8DAF8DAF8DAF",
"S  c #8F718F718F71",
"D  c #8FF68FF68FF6",
"F  c #996A996A996A",
"G  c #9BDB9BDB9BDB",
"H  c #9D7F9D7F9D7F",
"J  c #9E799E799E79",
"K  c #9F269F269F26",
"L  c #9FE79FE79FE7",
"P  c #A1A7A1A7A1A7",
"I  c #A40CA40CA40C",
"U  c #A630A630A630",
"Y  c #A796A796A796",
"T  c #AB9CAB9CAB9C",
"R  c #ACB4ACB4ACB4",
"E  c #AE91AE91AE91",
"W  c #B1A0B1A0B1A0",
"Q  c #B1E9B1E9B1E9",
"!  c #B64BB64BB64B",
"~  c #B9ACB9ACB9AC",
"^  c #B9DBB9DBB9DB",
"/  c #BEA9BEA9BEA9",
"(  c #C09FC09FC09F",
")  c #EF6ACB7D83A4",
"_  c #F036CE03899D",
"`  c #F130D11C90F3",
"'  c #F466DB47A907",
"]  c #F4A1DC00AABF",
"[  c #F554DE38AFFF",
"{  c #F73BE43DBE42",
"}  c #C104C104C104",
"|  c #C782C782C782",
" . c #C7E7C7E7C7E7",
".. c #C940C940C940",
"X. c #CB39CB39CB39",
"o. c #CF48CF48CF48",
"O. c #CFFECFFECFFE",
"+. c #D26BD26BD26B",
"@. c #D431D431D431",
"#. c #D5AED5AED5AE",
"$. c #D615D615D615",
"%. c #D87ED87ED87E",
"&. c #DB5FDB5FDB5F",
"*. c #DC06DC06DC06",
"=. c #DE53DE53DE53",
"-. c #E00BE00BE00B",
";. c #E4C7E4C7E4C7",
":. c #E8CEE8CEE8CE",
">. c #EB3CEB3CEB3C",
",. c #ED51ED51ED51",
"<. c #EE78EE78EE78",
"1. c #FC3CF415E3C7",
"2. c #FD71F7E9ECD9",
"3. c #F2D8F2D8F2D8",
"4. c #F3A8F3A8F3A8",
"5. c #F418F418F418",
"6. c #F630F630F630",
"7. c #F7CEF7CEF7CE",
"8. c #F854F854F854",
"9. c #F98AF98AF98A",
"0. c #FA86FA86FA86",
"q. c #FB73FB73FB73",
"w. c #FC50FC50FC50",
"e. c #FF6AFE27FBA0",
"r. c #FD92FD92FD92",
"t. c #FEBFFEBFFEBF",
"y. c #FFB6FF19FDDF",
"u. c #FF96FF96FF96",
"i. c gray100",
/* pixels */
"x x x x x x x x x x x x x x x x x     c x x x x x x x x x x x x x x x x ",
"x x x x x x x x x x x x x x c c x     x x x x x x x x x x x x x x x x x ",
"x x x x x x x x x x c c x c                 x x x x x x x x x x x x x x ",
"x x x x x x x x x x c                             x x x x x x x x x x x ",
"x x x x x x x x c                                     x x x x x x x x x ",
"x x x x x x x x                         i i i i         x x x x x x x x ",
"x x x x x x x                         i i i i i i i       x x x x x x x ",
"x x x x x x                         i i i J J J J i i       x x x x x x ",
"x x x x x                           i i J J J J J J i i       c x x x x ",
"x x x x 3 k D k 3             3 y D J ! J o.o.o.o.J Q T D k 3   x x x x ",
"c c m 2.w.w.w.q.w. .#     &  .w.q.w.w.w.>.O.o.o.@.w.w.w.w.w.w. .v x x x ",
"x v w.w.w.w.w.w.w.q.|     o.w.w.w.w.w.w.w.7.O.O.w.w.w.w.w.w.w.w.| x x x ",
"x B w.w.w.2 & w w.w.w.< < w.w.w.6 & C w.w.w.&.*.w.w.w.R g r w.w.w.B x x ",
"x ' w.w.9       / w.q.w r w.w.U     i  .w.w.;.;.w.w./ J i   / w.w.) x x ",
"x { w.w.<       } w.w.6 6 w.w.<.+   # 7.w.w.! <.w.w.R J i   } w.w.6 x x ",
"x v - -       g w.w.w.&   ;.w.w.w.*.w.q.q.7.P P U T J i a g w.w.w.$ x c ",
"v v       7 7.w.w.w.y     4 w.w.w.w.w.w.w.l a P J J i Z 7.w.w.w.u   c c ",
"      - ^ w.w.q.w.w     - w.w.w.&.F 7.w.w.w.a i i g @.w.w.q.w.r         ",
"    1 w.q.q.w.D -       a q.q.F     o *.w.w.6   < w.w.q.w.D -           ",
"c n w.w.w.Q -           C w.q.k       R w.q.w # w.w.w.! -           c x ",
"c ` w.w.V 1 1 2 1 2 1 + 7 w.w.w.3 & 9 w.w.w.: a w.w.V 2 2 2 1 1 1 + c x ",
"x 1.w.w.w.w.w.w.w.w.w.r + 3.w.w.w.w.w.w.q.|   &.w.w.w.w.w.w.w.w.w.t c x ",
"v w.w.w.w.w.w.w.w.w.q.r   ; ;.w.w.w.w.w./ #   w.w.w.w.w.w.w.w.w.8._ x x ",
"x ' { D D D D D D D D 2       4 a D y 2       Z D D D D D D D D D N x x ",
"x x x                                                             c x x ",
"x x x x                                                         x x x x ",
"x x x x                                                         x x x x ",
"x x x x v                                                     v x x x x ",
"x x x x x x                                                 v v x x x x ",
"x x x x x x c                                             v x x x x x x ",
"x x x x x x c x                                         x x x x x x x x ",
"x x x x x x x x c                                     x x x x x x x x x ",
"x x x x x x x x x x x                             x x x x x x x x x x x ",
"x x x x x x x x x x x x c c                 x x c c x x x x x x x x x x ",
"x x x x x x x x x x x x x x c c c     x c x x x x x x x x x x x x x x x ",
"x x x x x x x x x x x x x x x x c     x c x x x x x x x x x x x x x x x "
};
