/* XPM */
static char *bmoku-0-LB-161[] = {
/* columns rows colors chars-per-pixel */
"36 36 86 1",
"  c #000100010001",
". c #014001400140",
"X c #027E027E027E",
"o c #055905590559",
"O c #0AB60AB60AB6",
"+ c #0DDA0DDA0DDA",
"@ c #10A010A010A0",
"# c #119611961196",
"$ c #129712971297",
"% c #161016101610",
"& c #174F174F174F",
"* c #1B5D1B5D1B5D",
"= c #229322932293",
"- c #264726472647",
"; c #292529252925",
": c #2E3D2E3D2E3D",
"> c #336133613361",
", c #3C103C103C10",
"< c #3C6E3C6E3C6E",
"1 c #3DA23DA23DA2",
"2 c #3E7A3E7A3E7A",
"3 c #496A496A496A",
"4 c #4B964B964B96",
"5 c #50D750D750D7",
"6 c #560B560B560B",
"7 c #56D356D356D3",
"8 c #58D158D158D1",
"9 c #5A425A425A42",
"0 c #5AD65AD65AD6",
"q c #618661866186",
"w c #69CC69CC69CC",
"e c #6C156C156C15",
"r c #6E926E926E92",
"t c #6F736F736F73",
"y c #74E474E474E4",
"u c #777477747774",
"i c #79A779A779A7",
"p c #E79DB2CA4924",
"a c #843584358435",
"s c #853685368536",
"d c #85F385F385F3",
"f c #87DC87DC87DC",
"g c #8A168A168A16",
"h c #8AC28AC28AC2",
"j c #8D478D478D47",
"k c #8FFB8FFB8FFB",
"l c #912E912E912E",
"z c #974A974A974A",
"x c #9E7A9E7A9E7A",
"c c #A1C0A1C0A1C0",
"v c #A54DA54DA54D",
"b c #A5DFA5DFA5DF",
"n c #AA72AA72AA72",
"m c #ABBAABBAABBA",
"M c #B1AEB1AEB1AE",
"N c #B55BB55BB55B",
"B c #B70BB70BB70B",
"V c #BAAABAAABAAA",
"C c #C938C938C938",
"Z c #CF45CF45CF45",
"A c #D293D293D293",
"S c #D2F8D2F8D2F8",
"D c #D472D472D472",
"F c #D554D554D554",
"G c #D628D628D628",
"H c #D906D906D906",
"J c #DAADDAADDAAD",
"K c #DC87DC87DC87",
"L c #DECCDECCDECC",
"P c #DFC8DFC8DFC8",
"I c #E3B6E3B6E3B6",
"U c #E953E953E953",
"Y c #F27AF27AF27A",
"T c #F426F426F426",
"R c #F4F6F4F6F4F6",
"E c #F6DFF6DFF6DF",
"W c #F752F752F752",
"Q c #F840F840F840",
"! c #F90EF90EF90E",
"~ c #FA58FA58FA58",
"^ c #FB97FB97FB97",
"/ c #FC97FC97FC97",
"( c #FD96FD96FD96",
") c #FE46FE46FE46",
"_ c #FF43FF43FF43",
"` c gray100",
/* pixels */
"ppppppppppppppppp  ppppppppppppppppp",
"ppppppppppppppppp  ppppppppppppppppp",
"pppppppppppppp        pppppppppppppp",
"ppppppppppp              ppppppppppp",
"ppppppppp                  ppppppppp",
"pppppppp            qqqq    pppppppp",
"ppppppp            qqqqqqq   ppppppp",
"pppppp            qqqxxxxqq   pppppp",
"ppppp             qqxxxxxxqq   ppppp",
"pppp   hk:     @9fcmxZZZZxxNk:  pppp",
"pppp  =`^9    7`````PZZZZZn`^9  pppp",
"ppp @>K^W9   ,``^````IZZAKY`^9   ppp",
"pppf``^`^9   W``f&k```ZU````^9   ppp",
"ppph````W9  =```  qW``AU````^9   ppp",
"pp *,,k`^9  4^`k6awaxxxAKNF`^9    pp",
"pp    k`W9  i`W`^```PvxxxxF`^9    pp",
"pp    k`^9  h``W`P`W^FqxxxV`^9    pp",
"      k`W9  a``WO @```yqqqV`W9      ",
"      k`^9  r^Ww   n``3   k`^9      ",
"pp    k`W9  ,`^k   C``,   k`W9    pp",
"pp    k`^9  O```4@9```&   k`^9    pp",
"pp    k`W9   i```````h    k`W9    pp",
"ppp   k`^9    v`^`^`zo    k`^9   ppp",
"ppp   3kk:     -rk7;      3kk:   ppp",
"ppp                              ppp",
"pppp                            pppp",
"pppp                            pppp",
"ppppp                          ppppp",
"pppppp                        pppppp",
"ppppppp                      ppppppp",
"pppppppp                    pppppppp",
"ppppppppp                  ppppppppp",
"ppppppppppp              ppppppppppp",
"pppppppppppppp        pppppppppppppp",
"ppppppppppppppppp  ppppppppppppppppp",
"ppppppppppppppppp  ppppppppppppppppp"
};
