/* XPM */
static char *bmoku-0-LB-197[] = {
/* columns rows colors chars-per-pixel */
"36 36 101 2",
"   c #000100010001",
".  c #011301130113",
"X  c #025A025A025A",
"o  c #053605360536",
"O  c #067106710671",
"+  c #07A807A807A8",
"@  c #0A0E0A0E0A0E",
"#  c #0BC30BC30BC3",
"$  c #0CEB0CEB0CEB",
"%  c #0DC40DC40DC4",
"&  c #101D101D101D",
"*  c #119F119F119F",
"=  c #14BE14BE14BE",
"-  c #184C184C184C",
";  c #1B5D1B5D1B5D",
":  c #1CE71CE71CE7",
">  c #1DC61DC61DC6",
",  c #22C922C922C9",
"<  c #2A5A2A5A2A5A",
"1  c #2E732E732E73",
"2  c #2FA82FA82FA8",
"3  c #30FF30FF30FF",
"4  c #32F832F832F8",
"5  c #336133613361",
"6  c #34AF34AF34AF",
"7  c #37E837E837E8",
"8  c #3AE53AE53AE5",
"9  c #3C103C103C10",
"0  c #3FD63FD63FD6",
"q  c #410941094109",
"w  c #45B245B245B2",
"e  c #4AEE4AEE4AEE",
"r  c #4B734B734B73",
"t  c #57C357C357C3",
"y  c #5A405A405A40",
"u  c #5E4E5E4E5E4E",
"i  c #618861886188",
"p  c #646764676467",
"a  c #686E686E686E",
"s  c #6AFA6AFA6AFA",
"d  c gray44",
"f  c #731B731B731B",
"g  c #7AEF7AEF7AEF",
"h  c #7BAB7BAB7BAB",
"j  c #7F117F117F11",
"k  c #E79DB2CA4924",
"l  c #EC8BC2656E1B",
"z  c #87DC87DC87DC",
"x  c #8A008A008A00",
"c  c #8BB48BB48BB4",
"v  c #8CAB8CAB8CAB",
"b  c #8E8F8E8F8E8F",
"n  c #8FFF8FFF8FFF",
"m  c #90CF90CF90CF",
"M  c #958895889588",
"N  c #968296829682",
"B  c #9E719E719E71",
"V  c #9FD59FD59FD5",
"C  c #A16DA16DA16D",
"Z  c #A28AA28AA28A",
"A  c #A84AA84AA84A",
"S  c #A985A985A985",
"D  c #ACA5ACA5ACA5",
"F  c #ACBEACBEACBE",
"G  c #AE90AE90AE90",
"H  c #B538B538B538",
"J  c #B66BB66BB66B",
"K  c #B76BB76BB76B",
"L  c #B8EFB8EFB8EF",
"P  c #BAAABAAABAAA",
"I  c #BDA4BDA4BDA4",
"U  c #F123D0F39092",
"Y  c #C61BC61BC61B",
"T  c #C796C796C796",
"R  c #C972C972C972",
"E  c #CA28CA28CA28",
"W  c #CD70CD70CD70",
"Q  c #CF2FCF2FCF2F",
"!  c #D3ACD3ACD3AC",
"~  c #D494D494D494",
"^  c #D522D522D522",
"/  c #D748D748D748",
"(  c #DB12DB12DB12",
")  c #DC7FDC7FDC7F",
"_  c #DD6ADD6ADD6A",
"`  c #E121E121E121",
"'  c #E248E248E248",
"]  c #E5C7E5C7E5C7",
"[  c #EAAAEAAAEAAA",
"{  c #F3D6F3D6F3D6",
"}  c #F582F582F582",
"|  c #F600F600F600",
" . c #F884F884F884",
".. c #F929F929F929",
"X. c #FA69FA69FA69",
"o. c #FB86FB86FB86",
"O. c #FC71FC71FC71",
"+. c #FD99FD99FD99",
"@. c #FE8BFE8BFE8B",
"#. c #FF5DFF5DFF5D",
"$. c gray100",
/* pixels */
"k k k k k k k k k k k k k k k k k     k k k k k k k k k k k k k k k k k ",
"k k k k k k k k k k k k k k k k k     k k k k k k k k k k k k k k k k k ",
"k k k k k k k k k k k k k k                 k k k k k k k k k k k k k k ",
"k k k k k k k k k k k                             k k k k k k k k k k k ",
"k k k k k k k k k                                     k k k k k k k k k ",
"k k k k k k k k                         i i i i         k k k k k k k k ",
"k k k k k k k                         i i i i i i i       k k k k k k k ",
"k k k k k k                         i i i B B B B i i       k k k k k k ",
"k k k k k                           i i B B B B B B i i       k k k k k ",
"k k k k       x n 1           1 u c V S B W ` [ [ ^ ^ K n n n n l k k k ",
"k k k k     , #.o.y       * H #.#.#.#.#.W W  .#.#.#.#.#.#.#.#.o.U k k k ",
"k k k   * 5 ) o. .y       K o.#.#.#.#.#.#.)  .#.#.#.#.#.#.#.#.#.i k k k ",
"k k k x #.#.o.#.o.y     5 #.#.#.q * V #.#.#.^ / ^ ^ ^ G j #.o.!   k k k ",
"k k k x #.#.#.#. .y     p o.o.x     i ] #.#.^ W ! ! V B { #.#.=   k k k ",
"k k   ; 9 9 n #. .y     j #. .p       Y #.#.H W W B B E #.#.y       k k ",
"k k         n #. .y     w #.#.W     # #.#.#.I B B B S #.#.`         k k ",
"k k         n #.o.y     @ #.#.#.) V #.o.#.#.M B B B E o.#.5         k k ",
"            n #.o.y       8 #.o.#.#.o.#.#.#.c i i f #.#.^               ",
"            n #. .y         # s H E g ! #.#.<     n o.#.q               ",
"k k         n #. .y     1 #.#.S     # #.#.#.#   O #.#.#.O           k k ",
"k k         n #. .y     # #.#.#.6 > S #.o.H     8 #.#.B             k k ",
"k k         n #. .y       V #.#.#.#.#.#.#.>     M o.#.q             k k ",
"k k k       n #.o.y       @ W #.#.o.#.#.8       #.#.#.=           k k k ",
"k k k       r n c 1           q s z e @         x c c             k k k ",
"k k k                                                             k k k ",
"k k k k                                                         k k k k ",
"k k k k                                                         k k k k ",
"k k k k k                                                     k k k k k ",
"k k k k k k                                                 k k k k k k ",
"k k k k k k k                                             k k k k k k k ",
"k k k k k k k k                                         k k k k k k k k ",
"k k k k k k k k k                                     k k k k k k k k k ",
"k k k k k k k k k k k                             k k k k k k k k k k k ",
"k k k k k k k k k k k k k k                 k k k k k k k k k k k k k k ",
"k k k k k k k k k k k k k k k k k     k k k k k k k k k k k k k k k k k ",
"k k k k k k k k k k k k k k k k k     k k k k k k k k k k k k k k k k k "
};
