/* XPM */
static char *bmoku-0-LB-131[] = {
/* columns rows colors chars-per-pixel */
"36 36 86 1",
"  c #000100010001",
". c #013D013D013D",
"X c #039403940394",
"o c #075907590759",
"O c #080D080D080D",
"+ c #0A620A620A62",
"@ c #0D5A0D5A0D5A",
"# c #118411841184",
"$ c #18CA18CA18CA",
"% c #1B5D1B5D1B5D",
"& c #1CD51CD51CD5",
"* c #1EAE1EAE1EAE",
"= c #1FC81FC81FC8",
"- c #22C922C922C9",
"; c #264126412641",
": c #2B322B322B32",
"> c #2DF02DF02DF0",
", c #2E492E492E49",
"< c #304E304E304E",
"1 c #336133613361",
"2 c #347B347B347B",
"3 c #3C103C103C10",
"4 c #3CED3CED3CED",
"5 c #3EFA3EFA3EFA",
"6 c #410E410E410E",
"7 c #443544354435",
"8 c #4B734B734B73",
"9 c #4E844E844E84",
"0 c #52E352E352E3",
"q c #54C654C654C6",
"w c #58B858B858B8",
"e c #5A425A425A42",
"r c #618561856185",
"t c #66AB66AB66AB",
"y c #67FB67FB67FB",
"u c #68DA68DA68DA",
"i c #717771777177",
"p c #733273327332",
"a c #73EF73EF73EF",
"s c #75B675B675B6",
"d c #78AA78AA78AA",
"f c #E79DB2CA4924",
"g c #847884788478",
"h c #867E867E867E",
"j c #86FD86FD86FD",
"k c #87DC87DC87DC",
"l c #88AB88AB88AB",
"z c #8A1B8A1B8A1B",
"x c #8FFB8FFB8FFB",
"c c #97B897B897B8",
"v c #9E799E799E79",
"b c #A274A274A274",
"n c #A567A567A567",
"m c #A62EA62EA62E",
"M c #ABBAABBAABBA",
"N c #AFD2AFD2AFD2",
"B c #B55BB55BB55B",
"V c #B70BB70BB70B",
"C c #BA5DBA5DBA5D",
"Z c #BD14BD14BD14",
"A c #BDC8BDC8BDC8",
"S c #C5EDC5EDC5ED",
"D c #CF3FCF3FCF3F",
"F c #D05BD05BD05B",
"G c #D293D293D293",
"H c #D2E1D2E1D2E1",
"J c #D472D472D472",
"K c #D554D554D554",
"L c #D906D906D906",
"P c #DA52DA52DA52",
"I c #DC7FDC7FDC7F",
"U c #DE91DE91DE91",
"Y c #E0EAE0EAE0EA",
"T c #E96EE96EE96E",
"R c #F27AF27AF27A",
"E c #F442F442F442",
"W c #F7A8F7A8F7A8",
"Q c #F808F808F808",
"! c #F908F908F908",
"~ c #FA6DFA6DFA6D",
"^ c #FB89FB89FB89",
"/ c #FC2AFC2AFC2A",
"( c #FD77FD77FD77",
") c #FE85FE85FE85",
"_ c #FF65FF65FF65",
"` c gray100",
/* pixels */
"fffffffffffffffff  fffffffffffffffff",
"fffffffffffffffff  fffffffffffffffff",
"ffffffffffffff        ffffffffffffff",
"fffffffffff              fffffffffff",
"fffffffff                  fffffffff",
"ffffffff            rrrr    ffffffff",
"fffffff            rrrrrrr   fffffff",
"ffffff            rrrvvvvrr   ffffff",
"fffff             rrvvvvvvrr   fffff",
"ffff   zx,    o7adxbvDDDDvvVx,  ffff",
"ffff  -_^e   2______CDDDDDM_^e  ffff",
"fff #1I^Qe   ^_^__^__HDDHLR_^e   fff",
"fffz__^_^e  6___*%R__IDT____^e   fff",
"fffz____Qe  y_^y  b^_TDT____^e   fff",
"ff %44x_Qe  h__q  h^_SvJLVJ_^e    ff",
"ff    x_^e     :LQ___mvvvvJ__e    ff",
"ff    x_^e     3____IarvvvC_^e    ff",
"      x_Qe     *xm^___trrrC_^e      ",
"      x_^e  9cc,   H__4   x_^e      ",
"ff    x_Qe  h_Qa   N__9   x_Qe    ff",
"ff    x_Qe  q___;#7___-   x_^e    ff",
"ff    x_Qe  O__^____^A    x_Qe    ff",
"fff   x_^e   ,______A@    x_^e   fff",
"fff   8xx,    O4shq,      8xx,   fff",
"fff                              fff",
"ffff                            ffff",
"ffff                            ffff",
"fffff                          fffff",
"ffffff                        ffffff",
"fffffff                      fffffff",
"ffffffff                    ffffffff",
"fffffffff                  fffffffff",
"fffffffffff              fffffffffff",
"ffffffffffffff        ffffffffffffff",
"fffffffffffffffff  fffffffffffffffff",
"fffffffffffffffff  fffffffffffffffff"
};
