/* XPM */
static char *bmoku-0-LB-i[] = {
/* columns rows colors chars-per-pixel */
"36 36 19 1",
"  c black",
". c #047504750475",
"X c #100010001000",
"o c #618561856185",
"O c #644864486448",
"+ c #6B6D6B6D6B6D",
"@ c #E79DB2CA4924",
"# c #86FD86FD86FD",
"$ c #8FFF8FFF8FFF",
"% c #9C8C9C8C9C8C",
"& c #9E799E799E79",
"* c #A02CA02CA02C",
"= c #A0BBA0BBA0BB",
"- c #A491A491A491",
"; c #A6F7A6F7A6F7",
": c #BAAABAAABAAA",
"> c #C629C629C629",
", c #CF3CCF3CCF3C",
"< c gray100",
/* pixels */
"@@@@@@@@@@@@@@@@@  @@@@@@@@@@@@@@@@@",
"@@@@@@@@@@@@@@@@@  @@@@@@@@@@@@@@@@@",
"@@@@@@@@@@@@@@        @@@@@@@@@@@@@@",
"@@@@@@@@@@@              @@@@@@@@@@@",
"@@@@@@@@@                  @@@@@@@@@",
"@@@@@@@@            oooo    @@@@@@@@",
"@@@@@@@            ooooooo   @@@@@@@",
"@@@@@@            ooo&&&&oo   @@@@@@",
"@@@@@           #$:O&&&&&&oo   @@@@@",
"@@@@            <<<-&,,,,&&o    @@@@",
"@@@@            <<<-&,,,,,&&o   @@@@",
"@@@             &->=&,,,,,&&o    @@@",
"@@@             #$:=&,,,,,,&o    @@@",
"@@@             <<<+&,,,,,&&o    @@@",
"@@              <<<+&&&,,&&&o     @@",
"@@              <<<+o&&&&&&oo     @@",
"@@              <<<Xooo&&&oo      @@",
"                <<<X  ooooo         ",
"                <<<X                ",
"@@              <<<X              @@",
"@@              <<<X              @@",
"@@              <<<X              @@",
"@@@             <<<X             @@@",
"@@@             #$$.             @@@",
"@@@                              @@@",
"@@@@                            @@@@",
"@@@@                            @@@@",
"@@@@@                          @@@@@",
"@@@@@@                        @@@@@@",
"@@@@@@@                      @@@@@@@",
"@@@@@@@@                    @@@@@@@@",
"@@@@@@@@@                  @@@@@@@@@",
"@@@@@@@@@@@              @@@@@@@@@@@",
"@@@@@@@@@@@@@@        @@@@@@@@@@@@@@",
"@@@@@@@@@@@@@@@@@  @@@@@@@@@@@@@@@@@",
"@@@@@@@@@@@@@@@@@  @@@@@@@@@@@@@@@@@"
};
