/* XPM */
static char *bmoku-0-LB-B[] = {
/* columns rows colors chars-per-pixel */
"36 36 51 1",
"  c black",
". c #017401740174",
"X c #02ED02ED02ED",
"o c #031B031B031B",
"O c #190019001900",
"+ c #19B219B219B2",
"@ c #2E3C2E3C2E3C",
"# c #2FFC2FFC2FFC",
"$ c #37E137E137E1",
"% c #3DFD3DFD3DFD",
"& c #42B442B442B4",
"* c #570F570F570F",
"= c #5A405A405A40",
"- c #618561856185",
"; c #63F063F063F0",
": c #6D706D706D70",
"> c #7B0A7B0A7B0A",
", c #E79DB2CA4924",
"< c #851E851E851E",
"1 c #8E2E8E2E8E2E",
"2 c #8FFF8FFF8FFF",
"3 c #931293129312",
"4 c #9E769E769E76",
"5 c #9F1B9F1B9F1B",
"6 c #A147A147A147",
"7 c #B076B076B076",
"8 c #B4D2B4D2B4D2",
"9 c #CB98CB98CB98",
"0 c #CF3CCF3CCF3C",
"q c #D09AD09AD09A",
"w c #D298D298D298",
"e c #D76FD76FD76F",
"r c #D96CD96CD96C",
"t c #DA6BDA6BDA6B",
"y c #DB81DB81DB81",
"u c #DD5DDD5DDD5D",
"i c #E06BE06BE06B",
"p c #E171E171E171",
"a c #E611E611E611",
"s c #E83DE83DE83D",
"d c #EB56EB56EB56",
"f c #ECACECACECAC",
"g c #EDA1EDA1EDA1",
"h c #F908F908F908",
"j c #FAA9FAA9FAA9",
"k c #FB86FB86FB86",
"l c #FC9CFC9CFC9C",
"z c #FDA4FDA4FDA4",
"x c #FE01FE01FE01",
"c c #FFA0FFA0FFA0",
"v c gray100",
/* pixels */
",,,,,,,,,,,,,,,,,  ,,,,,,,,,,,,,,,,,",
",,,,,,,,,,,,,,,,,  ,,,,,,,,,,,,,,,,,",
",,,,,,,,,,,,,,        ,,,,,,,,,,,,,,",
",,,,,,,,,,,              ,,,,,,,,,,,",
",,,,,,,,,                  ,,,,,,,,,",
",,,,,,,,            ----    ,,,,,,,,",
",,,,,,,            -------   ,,,,,,,",
",,,,,,            ---4444--   ,,,,,,",
",,,,,      @22222272644444--   ,,,,,",
",,,,       =hvvvvvvvve00044-    ,,,,",
",,,,       =hvvvvvvvvvq00044-   ,,,,",
",,,        =hv2OOO<vvvu00044-    ,,,",
",,,        =hv2   -9vva00004-    ,,,",
",,,        =hv2   -4hva00044-    ,,,",
",,         =hv2    pvv800444-     ,,",
",,         =hvrrrrvvvg44444--     ,,",
",,         =hvvvvvvvvp:444--      ,,",
"           =hv22323rvhh;---         ",
"           =hv2     0vv$            ",
",,         =hv2     4vh*          ,,",
",,         =hv2OOOO&vvv$          ,,",
",,         =hvvvvvvvvhg           ,,",
",,,        =hvvvvvvhvgO          ,,,",
",,,        @2223322>%            ,,,",
",,,                              ,,,",
",,,,                            ,,,,",
",,,,                            ,,,,",
",,,,,                          ,,,,,",
",,,,,,                        ,,,,,,",
",,,,,,,                      ,,,,,,,",
",,,,,,,,                    ,,,,,,,,",
",,,,,,,,,                  ,,,,,,,,,",
",,,,,,,,,,,              ,,,,,,,,,,,",
",,,,,,,,,,,,,,        ,,,,,,,,,,,,,,",
",,,,,,,,,,,,,,,,,  ,,,,,,,,,,,,,,,,,",
",,,,,,,,,,,,,,,,,  ,,,,,,,,,,,,,,,,,"
};
