/* XPM */
static char *bmoku-0-LB-220[] = {
/* columns rows colors chars-per-pixel */
"36 36 123 2",
"   c black",
".  c #018101810181",
"X  c #022602260226",
"o  c #03FD03FD03FD",
"O  c #085508550855",
"+  c #0AEB0AEB0AEB",
"@  c #0C6E0C6E0C6E",
"#  c #0F200F200F20",
"$  c #117B117B117B",
"%  c #137713771377",
"&  c #144014401440",
"*  c #168216821682",
"=  c #189E189E189E",
"-  c #199B199B199B",
";  c #1CDA1CDA1CDA",
":  c #1F801F801F80",
">  c #259725972597",
",  c #269426942694",
"<  c #28E028E028E0",
"1  c #2A402A402A40",
"2  c #2E3D2E3D2E3D",
"3  c #322432243224",
"4  c #329332933293",
"5  c #34C934C934C9",
"6  c #36C636C636C6",
"7  c #3B743B743B74",
"8  c #3DB73DB73DB7",
"9  c #411541154115",
"0  c #432243224322",
"q  c #47EB47EB47EB",
"w  c #4A204A204A20",
"e  c #4B454B454B45",
"r  c #4DBB4DBB4DBB",
"t  c #51BC51BC51BC",
"y  c #54E054E054E0",
"u  c #55D955D955D9",
"i  c #57D257D257D2",
"p  c #58EC58EC58EC",
"a  c #5A425A425A42",
"s  c #5E715E715E71",
"d  c #60D160D160D1",
"f  c #618561856185",
"g  c #648864886488",
"h  c #688F688F688F",
"j  c #69C169C169C1",
"k  c #6B126B126B12",
"l  c #6F066F066F06",
"z  c #712E712E712E",
"x  c #754675467546",
"c  c #7B9D7B9D7B9D",
"v  c #7FFE7FFE7FFE",
"b  c #E79DB2CA4924",
"n  c #E7C8B3534A68",
"m  c #E7FEB3FE4BFD",
"M  c #E868B54E4F19",
"N  c #E8C6B67651D6",
"B  c #E999B9125804",
"V  c #E9F5BA375ABA",
"C  c #EE02C7097918",
"Z  c #863E863E863E",
"A  c #88A688A688A6",
"S  c #8C758C758C75",
"D  c #8DD58DD58DD5",
"F  c #8F718F718F71",
"G  c #8FF58FF58FF5",
"H  c #929592959295",
"J  c #943294329432",
"K  c #96AA96AA96AA",
"L  c #99F199F199F1",
"P  c #9BFD9BFD9BFD",
"I  c #9E799E799E79",
"U  c #9EB99EB99EB9",
"Y  c #A41AA41AA41A",
"T  c #A4D9A4D9A4D9",
"R  c #A64BA64BA64B",
"E  c #A7E3A7E3A7E3",
"W  c #AA1EAA1EAA1E",
"Q  c #AC52AC52AC52",
"!  c #B070B070B070",
"~  c #B1A0B1A0B1A0",
"^  c #B1B5B1B5B1B5",
"/  c #B5E4B5E4B5E4",
"(  c #B9ABB9ABB9AB",
")  c #B9DDB9DDB9DD",
"_  c #C09FC09FC09F",
"`  c #F130D11C90F3",
"'  c #F466DB47A907",
"]  c #F4A1DC00AABF",
"[  c #F554DE38AFFF",
"{  c #F73BE43DBE42",
"}  c #C611C611C611",
"|  c #C776C776C776",
" . c #C941C941C941",
".. c #CA2CCA2CCA2C",
"X. c #CE4CCE4CCE4C",
"o. c #CF3FCF3FCF3F",
"O. c #D036D036D036",
"+. c #D1A7D1A7D1A7",
"@. c #D273D273D273",
"#. c #D4A4D4A4D4A4",
"$. c #D522D522D522",
"%. c #D67CD67CD67C",
"&. c #D89CD89CD89C",
"*. c #DED6DED6DED6",
"=. c #E17DE17DE17D",
"-. c #E1F3E1F3E1F3",
";. c #E52FE52FE52F",
":. c #E6D2E6D2E6D2",
">. c #EB0FEB0FEB0F",
",. c #FC3CF415E3C7",
"<. c #FD71F7E9ECD9",
"1. c #F3B1F3B1F3B1",
"2. c #F53AF53AF53A",
"3. c #F98DF98DF98D",
"4. c #FA31FA31FA31",
"5. c #FB7BFB7BFB7B",
"6. c #FC41FC41FC41",
"7. c #FF6AFE27FBA0",
"8. c #FD86FD86FD86",
"9. c #FEC1FEC1FEC1",
"0. c #FFB6FF19FDDF",
"q. c #FF78FF78FF78",
"w. c gray100",
/* pixels */
"b b b b b b b b b b b b b b b b b     b b b b b b b b b b b b b b b b b ",
"b b b b b b b b b b b b b b b b b     b b b b b b b b b b b b b b b b b ",
"b b b b b b b b b b n n b b                 b b b b b b b b b b b b b b ",
"b b b b b b b b b b b                             b b b b b b b b b b b ",
"b b b b b b b b n                                     b b b b b b b b b ",
"b b b b b b b b                         f f f f         b b b b b b b b ",
"b b b b b b b                         f f f f f f f       b b b b b b b ",
"b b b b b b                         f f f I I I I f f       b b b b b b ",
"b b b b b                           f f I I I I I I f f       b b b b b ",
"b b b b 4 x G x 4             5 x H W / I o.o.o.o.I Q W G j ;   b b b b ",
"n n V <.6.6.6.5.6. .@     - :.6.2.6.6.6.:.%.o.o.o.>.6.6.6.6.6.j b b b b ",
"n m 6.6.6.6.6.6.6.5.|   o 6.6.6.6.6.6.6.6.2.o.o.-.6.6.6.6.6.6.6.7 b b b ",
"b C 6.6.6.2 % u 6.6.6.< 0 6.6.6.2 % K 6.6.6.&.+.6.6.6.| x K 6.6.:.n n n ",
"b ' 6.6.w       _ 6.5.t A 6.6.w     f %.6.6.-.&.6.6.6.I f O 6.6.6.V n n ",
"b { 6.6.>       _ 6.6.8 T 6.6.>       &.6.6./ -.6.6.%.I g   &.6.6.5 b b ",
"b m * *       k 6.6.6.% O * *     o k 6.6.6.T +.6.6. .f f   ^ 6.6.w b n ",
"n n       9 2.6.6.6.f           8 2.6.6.6.I f %.6.6.P f     H 6.6.a n n ",
"      - ) 6.6.5.6.a         * _ 6.6.6.6.a   f T 6.5.W       ^ 6.6.0     ",
"    < 6.6.5.6.H *         > 6.6.5.6.H *       r 6.6.G       %.6.6.<     ",
"n N 6.6.6.^ -           @ 6.6.6.^ *           4 6.6.6.    O 6.6.6.* n b ",
"n ` 6.6.Z < < 2 < 2 < O g 6.6.Z < < 2 < 2 < O   6.6.6.a @ v 6.6.|   n b ",
"b ,.6.6.6.6.6.6.6.6.6.a &.6.6.6.6.6.6.6.6.6.a   g 6.6.6.6.6.6.6.5   n b ",
"n 6.6.6.6.6.6.6.6.6.5.a 6.6.6.6.6.6.6.6.6.5.a     x 6.6.6.6.6.r   n b b ",
"n [ [ H H H H H H H H 2 A H H G H H H H H H 2       ; t H w -     b b b ",
"n n b                                                             n b b ",
"b b b b                                                         b b b b ",
"b b b b                                                         b b b b ",
"b b b b n                                                     b b b b b ",
"b b b b n b                                                 b b b b b b ",
"b b b b b b n                                             b b b b b b b ",
"b b b b b b n b                                         b b b b b b b b ",
"b b b b b b b b b                                     b b b b b b b b b ",
"b b b b b b b b b b b                             b b b b b b b b b b b ",
"b b b b b b b b b b b b n n                 b b n n b b b b b b b b b b ",
"b b b b b b b b b b b b b b n n n     b n b b b b b b b b b b b b b b b ",
"b b b b b b b b b b b b b b b b n     b n b b b b b b b b b b b b b b b "
};
