/* XPM */
static char *bmoku-0-LB-214[] = {
/* columns rows colors chars-per-pixel */
"36 36 87 1",
"  c #000100010001",
". c #015A015A015A",
"X c #047504750475",
"o c #08C508C508C5",
"O c #097E097E097E",
"+ c #0BB80BB80BB8",
"@ c #0FF20FF20FF2",
"# c #104D104D104D",
"$ c #116F116F116F",
"% c #121312131213",
"& c #144014401440",
"* c #167E167E167E",
"= c #1B101B101B10",
"- c #1DAF1DAF1DAF",
"; c #1EF51EF51EF5",
": c #244E244E244E",
"> c #275127512751",
", c #2A402A402A40",
"< c #2C2C2C2C2C2C",
"1 c #2DCA2DCA2DCA",
"2 c #310D310D310D",
"3 c #33C033C033C0",
"4 c #3C0D3C0D3C0D",
"5 c #402340234023",
"6 c #42E942E942E9",
"7 c #4F8D4F8D4F8D",
"8 c #51AB51AB51AB",
"9 c #574057405740",
"0 c #59FF59FF59FF",
"q c #618561856185",
"w c #634C634C634C",
"e c #713571357135",
"r c #71F371F371F3",
"t c #744A744A744A",
"y c #782B782B782B",
"u c #7B5A7B5A7B5A",
"i c #7FD67FD67FD6",
"p c #E79DB2CA4924",
"a c #E7A7B2EA496F",
"s c #E8FCB7235370",
"d c #EC47C18F6C1E",
"f c #810181018101",
"g c #830183018301",
"h c #86FE86FE86FE",
"j c #8B228B228B22",
"k c #8FFF8FFF8FFF",
"l c #923E923E923E",
"z c #9E709E709E70",
"x c #9F989F989F98",
"c c #A384A384A384",
"v c #B466B466B466",
"b c #BA4DBA4DBA4D",
"n c #BD30BD30BD30",
"m c #F452DB05A86C",
"M c #C432C432C432",
"N c #C61BC61BC61B",
"B c #C99DC99DC99D",
"V c #CC2FCC2FCC2F",
"C c #CF3CCF3CCF3C",
"Z c #CFD6CFD6CFD6",
"A c #D170D170D170",
"S c #D212D212D212",
"D c #D43DD43DD43D",
"F c #D6B2D6B2D6B2",
"G c #D96CD96CD96C",
"H c #DAE3DAE3DAE3",
"J c #DDACDDACDDAC",
"K c #DF4EDF4EDF4E",
"L c #E1ABE1ABE1AB",
"P c #E540E540E540",
"I c #EBA6EBA6EBA6",
"U c #EC13EC13EC13",
"Y c #ED60ED60ED60",
"T c #EEB6EEB6EEB6",
"R c #EFA0EFA0EFA0",
"E c #F0CAF0CAF0CA",
"W c #F16FF16FF16F",
"Q c #F22AF22AF22A",
"! c #F564F564F564",
"~ c #F76FF76FF76F",
"^ c #F897F897F897",
"/ c #F99BF99BF99B",
"( c #FC52FC52FC52",
") c #FD60FD60FD60",
"_ c #FE79FE79FE79",
"` c #FFC7FFC7FFC7",
"' c gray100",
/* pixels */
"ppppppppaaapppaap  ppppppppppppppppp",
"ppppppppaappppaap  ppppppppppppppppp",
"ppppppppaaaapa        pppppppppppppp",
"ppppppppaaa              ppppppppppp",
"ppppppppa                  ppppppppp",
"pppppppp            qqqq    pppppppp",
"ppppppp            qqqqqqq   ppppppp",
"pppppp            qqqzzzzqq   pppppp",
"ppppa             qqzzzzzzqq   ppppp",
"pppp &0ff8%      1bSzCCCCzzikkX pppp",
"pppph'''!('9     K!'zCCCCCc'''@ pppp",
"pppr'(('''T'1 +=i'I'zCCCCCT'''@  ppp",
"ppp'''r%-K'Bn ''''I'zCCCCP''''%  ppp",
"pps'S'   1'H' ''''I'zCCCF'T'''@  ppp",
"pp=''N   5'S! 454'K'czzC'(''''@   pp",
"pp &%+  :''Iu    'K'0zzK''C'''@   pp",
"pp    %z''KI@    'K'qqk'TQq'''%   pp",
"     q''Q'b%     'K' %'Q'tq'''@     ",
"    v'Q'T6       'K' N''HHF'''HS+   ",
"pp z'K'7         'K' S''''''''''@ pp",
"pp+'K',,,,,,:    'K' 8kkkkk'''kkX pp",
"pp,'T''''''''    'K'       '''@   pp",
"ppm''''''''T'    'T'       '''@  ppp",
"ppdkkkkkkkkkh    kkh       hkkX  ppp",
"ppp                              ppp",
"pppp                            pppp",
"pppp                            pppp",
"ppppp                          ppppp",
"pppppp                        pppppp",
"ppppppp                      ppppppp",
"pppppppp                    pppppppp",
"ppppppppp                  ppppppppp",
"ppppppppppp              ppppppppppp",
"pppppppppppppp        pppppppppppppp",
"ppppppppppppppppp  ppppppppppppppppp",
"ppppppppppppppppp  ppppppppppppppppp"
};
