/* XPM */
static char *bmoku-0-LB-83[] = {
/* columns rows colors chars-per-pixel */
"36 36 100 2",
"   c black",
".  c #01FB01FB01FB",
"X  c #078007800780",
"o  c #098F098F098F",
"O  c #0A0B0A0B0A0B",
"+  c #0CD20CD20CD2",
"@  c #12E412E412E4",
"#  c #166516651665",
"$  c #177B177B177B",
"%  c #186E186E186E",
"&  c #1A3F1A3F1A3F",
"*  c #1CB01CB01CB0",
"=  c #1D3D1D3D1D3D",
"-  c #1E421E421E42",
";  c #1FC61FC61FC6",
":  c #23B823B823B8",
">  c #263126312631",
",  c #313631363136",
"<  c #348634863486",
"1  c #3AFB3AFB3AFB",
"2  c #449D449D449D",
"3  c #458A458A458A",
"4  c #486D486D486D",
"5  c #4B9D4B9D4B9D",
"6  c #4E184E184E18",
"7  c #535F535F535F",
"8  c #57E457E457E4",
"9  c #5B8C5B8C5B8C",
"0  c #5D0F5D0F5D0F",
"q  c #5E445E445E44",
"w  c #5EF35EF35EF3",
"e  c #618A618A618A",
"r  c #63F963F963F9",
"t  c #66BA66BA66BA",
"y  c #685B685B685B",
"u  c #6CD06CD06CD0",
"i  c #6F346F346F34",
"p  c #72D072D072D0",
"a  c #76E376E376E3",
"s  c #77B677B677B6",
"d  c #7AD97AD97AD9",
"f  c #7E5A7E5A7E5A",
"g  c #E79DB2CA4924",
"h  c #85B685B685B6",
"j  c #886F886F886F",
"k  c #8C968C968C96",
"l  c #8FFF8FFF8FFF",
"z  c #937593759375",
"x  c #97B897B897B8",
"c  c #9A979A979A97",
"v  c #9E799E799E79",
"b  c #9F0A9F0A9F0A",
"n  c #A024A024A024",
"m  c #A432A432A432",
"M  c #A98EA98EA98E",
"N  c #AE53AE53AE53",
"B  c #AFD6AFD6AFD6",
"V  c #B0DAB0DAB0DA",
"C  c #B58AB58AB58A",
"Z  c #B82CB82CB82C",
"A  c #BAD0BAD0BAD0",
"S  c #BC91BC91BC91",
"D  c #BEADBEADBEAD",
"F  c #C591C591C591",
"G  c #C830C830C830",
"H  c #CB6ECB6ECB6E",
"J  c #CC55CC55CC55",
"K  c #CD5DCD5DCD5D",
"L  c #CF3CCF3CCF3C",
"P  c #D030D030D030",
"I  c #D1E4D1E4D1E4",
"U  c #D358D358D358",
"Y  c #D8D9D8D9D8D9",
"T  c #DC47DC47DC47",
"R  c #DD42DD42DD42",
"E  c #DDF2DDF2DDF2",
"W  c #E05BE05BE05B",
"Q  c #E197E197E197",
"!  c #E350E350E350",
"~  c #E432E432E432",
"^  c #E614E614E614",
"/  c #E8B6E8B6E8B6",
"(  c #EA97EA97EA97",
")  c #EEFEEEFEEEFE",
"_  c #F06FF06FF06F",
"`  c #F256F256F256",
"'  c #F30CF30CF30C",
"]  c #F430F430F430",
"[  c #F565F565F565",
"{  c #F666F666F666",
"}  c #F74FF74FF74F",
"|  c #F8E3F8E3F8E3",
" . c #F958F958F958",
".. c #FA77FA77FA77",
"X. c #FB4DFB4DFB4D",
"o. c #FC39FC39FC39",
"O. c #FDA3FDA3FDA3",
"+. c #FE89FE89FE89",
"@. c #FF97FF97FF97",
"#. c gray100",
/* pixels */
"g g g g g g g g g g g g g g g g g     g g g g g g g g g g g g g g g g g ",
"g g g g g g g g g g g g g g g g g     g g g g g g g g g g g g g g g g g ",
"g g g g g g g g g g g g g g                 g g g g g g g g g g g g g g ",
"g g g g g g g g g g g                             g g g g g g g g g g g ",
"g g g g g g g g g                                     g g g g g g g g g ",
"g g g g g g g g                         e e e e         g g g g g g g g ",
"g g g g g g g                         e e e e e e e       g g g g g g g ",
"g g g g g g                         e e e v v v v e e       g g g g g g ",
"g g g g g                           e e v v v v v v e e       g g g g g ",
"g g g g           + 4 a a 4 +       e v B ! ( ! Y v v e         g g g g ",
"g g g g         d O.O.O.X.O.O.t     e ! O.O.O.O.O.` m v e       g g g g ",
"g g g         8 O.O.` O.O.O.[ O.1   V O.O.O.O.O.O.O.H v e         g g g ",
"g g g         ( O.` l % % A O.L D   O.O.O.! I ~ O.X.O.v e         g g g ",
"g g g         O.O.O.%     : O.E O.  O.[ O.I I L O.O.O.m e         g g g ",
"g g           O.O.O.6     u O.I O.  O.O.O.v m U O.[ O.m e           g g ",
"g g           u O.( O.X.X.O.` O.7     e e ! [ O.O.O.I e e           g g ",
"g g           X D O.O.O.O.O.O.j         e O.O.O.O.O.x e             g g ",
"              V O.E O.B G O.O.O.w         d D E O.O.O.w                 ",
"              O.[ O.:     w O.I X.  x x k       6 O.I X.                ",
"g g           O.( O.X     > O.E O.  O.` O.o     > O.E O.            g g ",
"g g           O.O.O.d % = H O.L A   O.O.O.u % = G O.H C             g g ",
"g g           f O.O.[ O.O.O.` O.<   z O.[ O.O.O.O.` O.,             g g ",
"g g g           l O.O.O.X.X.O.w       M O.O.O.X.O.O.w             g g g ",
"g g g             @ 6 d a 3 o           : t h u 3 o               g g g ",
"g g g                                                             g g g ",
"g g g g                                                         g g g g ",
"g g g g                                                         g g g g ",
"g g g g g                                                     g g g g g ",
"g g g g g g                                                 g g g g g g ",
"g g g g g g g                                             g g g g g g g ",
"g g g g g g g g                                         g g g g g g g g ",
"g g g g g g g g g                                     g g g g g g g g g ",
"g g g g g g g g g g g                             g g g g g g g g g g g ",
"g g g g g g g g g g g g g g                 g g g g g g g g g g g g g g ",
"g g g g g g g g g g g g g g g g g     g g g g g g g g g g g g g g g g g ",
"g g g g g g g g g g g g g g g g g     g g g g g g g g g g g g g g g g g "
};
