/* XPM */
static char *bmoku-0-LB-W[] = {
/* columns rows colors chars-per-pixel */
"36 36 92 1",
"  c #000100010001",
". c #012401240124",
"X c #04D504D504D5",
"o c #068C068C068C",
"O c #076407640764",
"+ c #0C500C500C50",
"@ c #0DA60DA60DA6",
"# c #0EC90EC90EC9",
"$ c #0FF30FF30FF3",
"% c #10BE10BE10BE",
"& c #16E416E416E4",
"* c #1AD31AD31AD3",
"= c #28BD28BD28BD",
"- c #2BE62BE62BE6",
"; c #2D902D902D90",
": c #36D736D736D7",
"> c #4A2B4A2B4A2B",
", c #4B824B824B82",
"< c #519351935193",
"1 c #573357335733",
"2 c #5A505A505A50",
"3 c #5ADF5ADF5ADF",
"4 c #5C195C195C19",
"5 c #618761876187",
"6 c #633B633B633B",
"7 c #68DF68DF68DF",
"8 c #6E7C6E7C6E7C",
"9 c #783578357835",
"0 c #790179017901",
"q c #E79DB2CA4924",
"w c #812A812A812A",
"e c #832183218321",
"r c #8CAC8CAC8CAC",
"t c #8DAE8DAE8DAE",
"y c #8FFF8FFF8FFF",
"u c #933D933D933D",
"i c #96EE96EE96EE",
"p c #9C789C789C78",
"a c #9E799E799E79",
"s c #9EDE9EDE9EDE",
"d c #A353A353A353",
"f c #A772A772A772",
"g c #A7B4A7B4A7B4",
"h c #AD4EAD4EAD4E",
"j c #AF41AF41AF41",
"k c #AFB8AFB8AFB8",
"l c #B432B432B432",
"z c #B63FB63FB63F",
"x c #B859B859B859",
"c c #BA6EBA6EBA6E",
"v c #BBA4BBA4BBA4",
"b c #BC46BC46BC46",
"n c #BDF7BDF7BDF7",
"m c #C375C375C375",
"M c #C75BC75BC75B",
"N c #C844C844C844",
"B c #C952C952C952",
"V c #CA0ACA0ACA0A",
"C c #CF45CF45CF45",
"Z c #D023D023D023",
"A c #D41FD41FD41F",
"S c #D554D554D554",
"D c #D737D737D737",
"F c #D82BD82BD82B",
"G c #DB21DB21DB21",
"H c #DC03DC03DC03",
"J c #DE20DE20DE20",
"K c #DEF0DEF0DEF0",
"L c #E000E000E000",
"P c #E3E6E3E6E3E6",
"I c #E593E593E593",
"U c #E600E600E600",
"Y c #E753E753E753",
"T c #E823E823E823",
"R c #EA34EA34EA34",
"E c #EB81EB81EB81",
"W c #EC16EC16EC16",
"Q c #EDB4EDB4EDB4",
"! c #EF5BEF5BEF5B",
"~ c #F1DEF1DEF1DE",
"^ c #F231F231F231",
"/ c #F363F363F363",
"( c #F584F584F584",
") c #F671F671F671",
"_ c #F7EDF7EDF7ED",
"` c #F8A2F8A2F8A2",
"' c #FB80FB80FB80",
"] c #FC9AFC9AFC9A",
"[ c #FD97FD97FD97",
"{ c #FEA3FEA3FEA3",
"} c #FF82FF82FF82",
"| c gray100",
/* pixels */
"qqqqqqqqqqqqqqqqq  qqqqqqqqqqqqqqqqq",
"qqqqqqqqqqqqqqqqq  qqqqqqqqqqqqqqqqq",
"qqqqqqqqqqqqqq        qqqqqqqqqqqqqq",
"qqqqqqqqqqq              qqqqqqqqqqq",
"qqqqqqqqq                  qqqqqqqqq",
"qqqqqqqq            5555    qqqqqqqq",
"qqqqqqq            5555555   qqqqqqq",
"qqqqqq            555ssss55   qqqqqq",
"qqqqq   3yy:    ttv5ssskAAd5   qqqqq",
"qqqq    b|Vi   ;|||ksZZQ|QG5    qqqq",
"qqqq    5|Z'   y||RVsZZ|||vs5   qqqq",
"qqq     $|)|$  Y'|KQpZZ|||fs5    qqq",
"qqq      '||: o|Z|)|dZG|)|Zs5    qqq",
"qqq      z|A0 ,|Zb||zAR|)Qss5    qqq",
"qq       3|VA k||3|LAsQ||vss5     qq",
"qq       $|Y|o)/|+|Y|s|||fs55     qq",
"qq        )||=|VA R||9|Q|s55      qq",
"          l|Yw|K8 y|Rw|Km55         ",
"          1|MA||= ;|VK|',           ",
"qq        +|G|L|o  |R|'|&         qq",
"qq         /||Mz   V||A|          qq",
"qq         k||Q1   7||Vp          qq",
"qqq        <|||*   $|||,         qqq",
"qqq        oytt     wtt%         qqq",
"qqq                              qqq",
"qqqq                            qqqq",
"qqqq                            qqqq",
"qqqqq                          qqqqq",
"qqqqqq                        qqqqqq",
"qqqqqqq                      qqqqqqq",
"qqqqqqqq                    qqqqqqqq",
"qqqqqqqqq                  qqqqqqqqq",
"qqqqqqqqqqq              qqqqqqqqqqq",
"qqqqqqqqqqqqqq        qqqqqqqqqqqqqq",
"qqqqqqqqqqqqqqqqq  qqqqqqqqqqqqqqqqq",
"qqqqqqqqqqqqqqqqq  qqqqqqqqqqqqqqqqq"
};
