/* XPM */
static char *bmoku-0-CR[] = {
/* columns rows colors chars-per-pixel */
"36 36 58 1",
"  c black",
". c #02BE02BE02BE",
"X c #0E900E900E90",
"o c #0F5D0F5D0F5D",
"O c #1B781B781B78",
"+ c #1E191E191E19",
"@ c #1E971E971E97",
"# c #290229022902",
"$ c #29B429B429B4",
"% c #34F734F734F7",
"& c #35CC35CC35CC",
"* c #36CA36CA36CA",
"= c #378337833783",
"- c #385538553855",
"; c #5A1E5A1E5A1E",
": c #5ACC5ACC5ACC",
"> c #5BEE5BEE5BEE",
", c #5D195D195D19",
"< c #618561856185",
"1 c #685B685B685B",
"2 c #68AF68AF68AF",
"3 c #6A666A666A66",
"4 c #6AAE6AAE6AAE",
"5 c #6BFE6BFE6BFE",
"6 c #E79DB2CA4924",
"7 c #82E982E982E9",
"8 c #9E799E799E79",
"9 c #9F939F939F93",
"0 c #A262A262A262",
"q c #A3F6A3F6A3F6",
"w c #A504A504A504",
"e c #A603A603A603",
"r c #A958A958A958",
"t c #AD15AD15AD15",
"y c #AE32AE32AE32",
"u c #AEC1AEC1AEC1",
"i c #B039B039B039",
"p c #B303B303B303",
"a c #BB37BB37BB37",
"s c #BDA9BDA9BDA9",
"d c #BE04BE04BE04",
"f c #C110C110C110",
"g c #C459C459C459",
"h c #C5D9C5D9C5D9",
"j c #CF3CCF3CCF3C",
"k c #D3AFD3AFD3AF",
"l c #D46ED46ED46E",
"z c #D503D503D503",
"x c #D650D650D650",
"c c #D727D727D727",
"v c #D99FD99FD99F",
"b c #E141E141E141",
"n c #E21DE21DE21D",
"m c #E43CE43CE43C",
"M c #E59CE59CE59C",
"N c #E873E873E873",
"B c #EEDAEEDAEEDA",
"V c gray100",
/* pixels */
"66666666666666666  66666666666666666",
"66666666666666666  66666666666666666",
"66666666666666        66666666666666",
"66666666666              66666666666",
"666666666                  666666666",
"66666666            <<<<    66666666",
"6666666       o&>2>72<<<<<   6666666",
"666666      &fVVVVVVVNp88<<   666666",
"66666     otVVVVldMVVVVnw8<<   66666",
"6666     OVVVw$   <8tBVVVr8<    6666",
"6666    oVVV&     <88jvVVV08<   6666",
"666     tVV+      <88jjlVVn8<    666",
"666    -VV-       <88jjjvVVp<    666",
"666    gV0        <<8jjjjBVN<    666",
"66    oVV$         <888jjtVV2     66",
"66    -VV          <<88880VV7     66",
"66    ,Vl           <<<088MV>     66",
"      2Vd             <<<<lV2       ",
"      ,Vl                 lV,       ",
"66    &VV                 VV-     66",
"66    oVV$               $VVo     66",
"66     gVw               wVg      66",
"666    &VV&             &VV&     666",
"666     pVV+           +VVt      666",
"666     oVVV&         &VVVo      666",
"6666     OVVVw$     $wVVVO      6666",
"6666      otVVVVvdlVVVVto       6666",
"66666       &fVVVVVVVf&        66666",
"666666        o&>2>&o         666666",
"6666666                      6666666",
"66666666                    66666666",
"666666666                  666666666",
"66666666666              66666666666",
"66666666666666        66666666666666",
"66666666666666666  66666666666666666",
"66666666666666666  66666666666666666"
};
