/* XPM */
static char *bmoku-0-LB-332[] = {
/* columns rows colors chars-per-pixel */
"36 36 128 2",
"   c #000100010001",
".  c #013D013D013D",
"X  c #039403940394",
"o  c #075907590759",
"O  c #083408340834",
"+  c #0A790A790A79",
"@  c #0C2C0C2C0C2C",
"#  c #0D5A0D5A0D5A",
"$  c #0F210F210F21",
"%  c #117E117E117E",
"&  c #123012301230",
"*  c #134D134D134D",
"=  c #16E916E916E9",
"-  c #18CA18CA18CA",
";  c #19C219C219C2",
":  c #1CD51CD51CD5",
">  c #1EAE1EAE1EAE",
",  c #1FC71FC71FC7",
"<  c #265D265D265D",
"1  c #2A402A402A40",
"2  c #2B322B322B32",
"3  c #2DF02DF02DF0",
"4  c #2E7A2E7A2E7A",
"5  c #304D304D304D",
"6  c #327D327D327D",
"7  c #347B347B347B",
"8  c #3C103C103C10",
"9  c #3CEB3CEB3CEB",
"0  c #3D793D793D79",
"q  c #3EFA3EFA3EFA",
"w  c #410E410E410E",
"e  c #443544354435",
"r  c #47A647A647A6",
"t  c #4A8B4A8B4A8B",
"y  c #4E834E834E83",
"u  c #507C507C507C",
"i  c #52E352E352E3",
"p  c #54C454C454C4",
"a  c #55D855D855D8",
"s  c #57D257D257D2",
"d  c #58B858B858B8",
"f  c #5A445A445A44",
"g  c #5E735E735E73",
"h  c #618561856185",
"j  c #62D962D962D9",
"k  c #648864886488",
"l  c #66AB66AB66AB",
"z  c #67D767D767D7",
"x  c #68D568D568D5",
"c  c #6B126B126B12",
"v  c #6C576C576C57",
"b  c #6F546F546F54",
"n  c #717771777177",
"m  c #733073307330",
"M  c #73EF73EF73EF",
"N  c #754675467546",
"B  c #75B575B575B5",
"V  c #78AA78AA78AA",
"C  c #7FFD7FFD7FFD",
"Z  c #E79DB2CA4924",
"A  c #E7F4B3DE4BB2",
"S  c #E850B5014E63",
"D  c #E89AB5EC508E",
"F  c #E8D2B69D5234",
"G  c #EB3DBE456455",
"H  c #EC05C0BC6A2C",
"J  c #EC0AC0CE6A56",
"K  c #EC9DC29E6EA0",
"L  c #EDCFC669779B",
"P  c #847784778477",
"I  c #867E867E867E",
"U  c #86FD86FD86FD",
"Y  c #87CD87CD87CD",
"T  c #88A988A988A9",
"R  c #8A9C8A9C8A9C",
"E  c #8F718F718F71",
"W  c #8FF18FF18FF1",
"Q  c #97B897B897B8",
"!  c #9E799E799E79",
"~  c #9F269F269F26",
"^  c #A230A230A230",
"/  c #A567A567A567",
"(  c #A62FA62FA62F",
")  c #A796A796A796",
"_  c #ACB4ACB4ACB4",
"`  c #AE91AE91AE91",
"'  c #AFD2AFD2AFD2",
"]  c #B1A0B1A0B1A0",
"[  c #B1C1B1C1B1C1",
"{  c #B9D3B9D3B9D3",
"}  c #BD13BD13BD13",
"|  c #BDC8BDC8BDC8",
" . c #C09FC09FC09F",
".. c #EF76CBA383FE",
"X. c #F036CE03899D",
"o. c #F19AD2699409",
"O. c #F472DB6DA962",
"+. c #C5EDC5EDC5ED",
"@. c #C777C777C777",
"#. c #C93FC93FC93F",
"$. c #CDC9CDC9CDC9",
"%. c #CF3CCF3CCF3C",
"&. c #D03CD03CD03C",
"*. c #D2E1D2E1D2E1",
"=. c #D431D431D431",
"-. c #D87ED87ED87E",
";. c #D9F7D9F7D9F7",
":. c #DC06DC06DC06",
">. c #DE91DE91DE91",
",. c #E0EAE0EAE0EA",
"<. c #E8CEE8CEE8CE",
"1. c #E9A3E9A3E9A3",
"2. c #ED06ED06ED06",
"3. c #EE78EE78EE78",
"4. c #F3B1F3B1F3B1",
"5. c #F442F442F442",
"6. c #F7A9F7A9F7A9",
"7. c #F858F858F858",
"8. c #F970F970F970",
"9. c #FA7DFA7DFA7D",
"0. c #FB62FB62FB62",
"q. c #FC3AFC3AFC3A",
"w. c #FD75FD75FD75",
"e. c #FE87FE87FE87",
"r. c #FF9EFECCFD27",
"t. c #FFBDFF2FFE12",
"y. c #FF87FF87FF87",
"u. c gray100",
/* pixels */
"Z Z Z Z Z Z Z Z Z Z Z Z Z Z Z Z Z     Z Z Z Z Z Z Z Z Z Z Z Z Z Z Z Z Z ",
"Z Z Z Z Z Z Z Z Z Z Z Z Z Z Z Z Z     Z Z Z Z Z Z Z Z Z Z Z Z Z Z Z Z Z ",
"Z Z Z Z Z Z Z Z Z Z Z Z Z Z                 Z Z Z Z Z Z Z Z Z Z Z Z Z Z ",
"Z Z Z Z Z Z Z Z Z Z Z                             Z Z Z Z Z Z Z Z Z Z Z ",
"Z Z Z Z Z Z Z Z Z                                     Z Z Z Z Z Z Z Z Z ",
"Z Z Z Z Z Z Z Z                         h h h h         Z Z Z Z Z Z Z Z ",
"Z Z Z Z Z Z Z                         h h h h h h h       Z Z Z Z Z Z Z ",
"Z Z Z Z Z Z                         h h h ! ! ! ! h h       Z Z Z Z Z Z ",
"Z Z Z Z Z                           h h ! ! ! ! ! ! h h       Z Z Z Z Z ",
"Z Z Z S e n B t +           + e N B W ^ ! %.%.%.%.! ] / E N 6   Z Z Z Z ",
"Z Z K u.u.u.u.u.u.t       7 u.u.u.u.u.u.{ %.%.%.=.8.u.u.u.8.u.#.D A Z Z ",
"Z Z u.u.6.u.u.8.u.u.*     8.u.8.u.u.8.u.u.&.%.&.u.u.u.u.u.u.u.8.+.Z Z Z ",
"Z L u.u.q.> - 2.u.8.u   e u.u.u.> - 6.u.u.:.%.;.u.u.u.` v p u.u.u.G Z Z ",
"Z o.u.8.z     x 8.u.R   x 8.8.x     ^ 8.u.<.%.<.u.u.{ ! h   { u.8...Z Z ",
"Z O.u.u.p     P 8.8.l   P u.u.p     P u.u.+.! 2.u.u._ ! h    .u.u.0 Z Z ",
"Z Z     2 ;.7.u.u.u.&         2 ;.6.u.u.u./ ! ^ / / ! h l x u.u.u.$ Z Z ",
"Z Z     0 u.u.u.u.#.-         0 u.u.u.u.,.n h ! ! ! h R 4.u.u.u.g   Z Z ",
"        > W / 8.u.u.u.o       - E / 8.u.8.u.l h h v =.u.u.8.u.p         ",
"  y Q Q 3       &.u.u.8 y Q Q 6       &.u.u.0   2 u.8.8.u.W &           ",
"Z O.u.8.n       ` u.u.y P u.8.n       ] u.u.y + u.u.u.] *           Z Z ",
"Z ..u.u.u.< & e u.u.u.< u u.u.u.< & e u.u.u.< h 8.u.C 2 3 2 2 2 2 + Z Z ",
"Z D u.u.8.u.u.u.u.8.{   + u.u.8.u.u.u.u.8.}   =.u.u.u.u.u.u.u.u.u.d Z Z ",
"Z Z H u.u.u.u.u.u.} $     3 u.u.8.u.u.u.} $   u.u.u.u.u.u.u.u.u.8.X.Z Z ",
"Z Z Z o 0 N P d 3           + 0 N R p 3       R W W W E E E E E E H Z Z ",
"Z Z Z                                                             Z Z Z ",
"Z Z Z Z                                                         Z Z Z Z ",
"Z Z Z Z                                                         Z Z Z Z ",
"Z Z Z Z Z                                                     Z Z Z Z Z ",
"Z Z Z Z Z Z                                                 Z Z Z Z Z Z ",
"Z Z Z Z Z Z Z                                             Z Z Z Z Z Z Z ",
"Z Z Z Z Z Z Z Z                                         Z Z Z Z Z Z Z Z ",
"Z Z Z Z Z Z Z Z Z                                     Z Z Z Z Z Z Z Z Z ",
"Z Z Z Z Z Z Z Z Z Z Z                             Z Z Z Z Z Z Z Z Z Z Z ",
"Z Z Z Z Z Z Z Z Z Z Z Z Z Z                 Z Z Z Z Z Z Z Z Z Z Z Z Z Z ",
"Z Z Z Z Z Z Z Z Z Z Z Z Z Z Z Z Z     Z Z Z Z Z Z Z Z Z Z Z Z Z Z Z Z Z ",
"Z Z Z Z Z Z Z Z Z Z Z Z Z Z Z Z Z     Z Z Z Z Z Z Z Z Z Z Z Z Z Z Z Z Z "
};
