/* XPM */
static char *bmoku-0-LB-80[] = {
/* columns rows colors chars-per-pixel */
"36 36 104 2",
"   c black",
".  c #01FB01FB01FB",
"X  c gray1",
"o  c #075107510751",
"O  c #0A1B0A1B0A1B",
"+  c #0CD20CD20CD2",
"@  c #0EB20EB20EB2",
"#  c #12E412E412E4",
"$  c #15CA15CA15CA",
"%  c #177B177B177B",
"&  c #186E186E186E",
"*  c #1A3F1A3F1A3F",
"=  c #1D3D1D3D1D3D",
"-  c #1EC21EC21EC2",
";  c #1FC61FC61FC6",
":  c #228622862286",
">  c #23B823B823B8",
",  c #278627862786",
"<  c #2DE52DE52DE5",
"1  c #348634863486",
"2  c #359E359E359E",
"3  c #3AFB3AFB3AFB",
"4  c #440F440F440F",
"5  c #451945194519",
"6  c #458A458A458A",
"7  c #486D486D486D",
"8  c #4BD24BD24BD2",
"9  c #4E184E184E18",
"0  c #535F535F535F",
"q  c #57E457E457E4",
"w  c #5B705B705B70",
"e  c #5E445E445E44",
"r  c #5EF35EF35EF3",
"t  c #618561856185",
"y  c #630B630B630B",
"u  c #63F963F963F9",
"i  c #681D681D681D",
"p  c #686D686D686D",
"a  c #6CD06CD06CD0",
"s  c #6F016F016F01",
"d  c #731A731A731A",
"f  c #76E376E376E3",
"g  c #783578357835",
"h  c #7AD97AD97AD9",
"j  c #7E5A7E5A7E5A",
"k  c #E79DB2CA4924",
"l  c #841A841A841A",
"z  c #886F886F886F",
"x  c #8FFF8FFF8FFF",
"c  c #9C7E9C7E9C7E",
"v  c #9E799E799E79",
"b  c #9F179F179F17",
"n  c #A12BA12BA12B",
"m  c #A440A440A440",
"M  c #A62CA62CA62C",
"N  c #ABCEABCEABCE",
"B  c #AE53AE53AE53",
"V  c #B10DB10DB10D",
"C  c #B3B5B3B5B3B5",
"Z  c #B82CB82CB82C",
"A  c #BAD0BAD0BAD0",
"S  c #BDA9BDA9BDA9",
"D  c #BEADBEADBEAD",
"F  c #BEC7BEC7BEC7",
"G  c #C589C589C589",
"H  c #C830C830C830",
"J  c #CD5DCD5DCD5D",
"K  c #CDE7CDE7CDE7",
"L  c #CF3CCF3CCF3C",
"P  c #D00FD00FD00F",
"I  c #D110D110D110",
"U  c #D25DD25DD25D",
"Y  c #D667D667D667",
"T  c #D974D974D974",
"R  c #DADBDADBDADB",
"E  c #DC84DC84DC84",
"W  c #DD34DD34DD34",
"Q  c #DDF2DDF2DDF2",
"!  c #E0FAE0FAE0FA",
"~  c #E3F0E3F0E3F0",
"^  c #E672E672E672",
"/  c #E7CAE7CAE7CA",
"(  c #E8B6E8B6E8B6",
")  c #E98EE98EE98E",
"_  c #EB9DEB9DEB9D",
"`  c #EC5FEC5FEC5F",
"'  c #ED50ED50ED50",
"]  c #EEDCEEDCEEDC",
"[  c #EF4EEF4EEF4E",
"{  c #F0ACF0ACF0AC",
"}  c #F136F136F136",
"|  c #F24DF24DF24D",
" . c #F430F430F430",
".. c #F57CF57CF57C",
"X. c #F74FF74FF74F",
"o. c #F8DEF8DEF8DE",
"O. c #F98BF98BF98B",
"+. c #FACDFACDFACD",
"@. c #FB6EFB6EFB6E",
"#. c #FC51FC51FC51",
"$. c #FDA3FDA3FDA3",
"%. c #FE9CFE9CFE9C",
"&. c #FF9EFF9EFF9E",
"*. c gray100",
/* pixels */
"k k k k k k k k k k k k k k k k k     k k k k k k k k k k k k k k k k k ",
"k k k k k k k k k k k k k k k k k     k k k k k k k k k k k k k k k k k ",
"k k k k k k k k k k k k k k                 k k k k k k k k k k k k k k ",
"k k k k k k k k k k k                             k k k k k k k k k k k ",
"k k k k k k k k k                                     k k k k k k k k k ",
"k k k k k k k k                         y y r y         k k k k k k k k ",
"k k k k k k k                         y r y r y y y       k k k k k k k ",
"k k k k k k                         y y y v v v v r y       k k k k k k ",
"k k k k k                           y y v v v v v v y r       k k k k k ",
"k k k k           + 6 f f 6 +       y v n Q ) ) R v v y         k k k k ",
"k k k k         h $.$.$.#.$.$.u     y V $.$.$.$.$.$.M v y       k k k k ",
"k k k         w $.$.} $.$.$...$.3   p $.$.$.$.$.$.#.] v y         k k k ",
"k k k         ) $.} x & & A $.L D   D $.} $.Y R $.$.$.V r         k k k ",
"k k k         $.$.$.&     : $.Q $.  #.$.$.Q U L } $.] R y         k k k ",
"k k           $.$.$.9     a $.U $.  $.$.$.M v L Q $.] ..y           k k ",
"k k           a $.) $.#.#.$.} $.9   $.} $.n v v B $.} $.y           k k ",
"k k           o D $.$.$.$.$.$.z     $.~ $.u y v M $.) $.            k k ",
"              V $.Q $.B H $.$.$.y   $.~ $.o y y h $.) $.                ",
"              $.#.$.>     r $.U #.  $.#.$.#     5 $.U L                 ",
"k k           $.^ $.o     > $.Q $.  } $.$.5     n $.U v             k k ",
"k k           $.$.$.h & - H $.L A   l $.U ] $ - $.$.$.,             k k ",
"k k           j $.$...$.$.$.} $.1   O $.$.] $.$.$.) R               k k ",
"k k k           x $.$.$.#.#.$.w       : #.$.$.#.$.G +             k k k ",
"k k k             # 9 h f 5 O           o 1 f p <                 k k k ",
"k k k                                                             k k k ",
"k k k k                                                         k k k k ",
"k k k k                                                         k k k k ",
"k k k k k                                                     k k k k k ",
"k k k k k k                                                 k k k k k k ",
"k k k k k k k                                             k k k k k k k ",
"k k k k k k k k                                         k k k k k k k k ",
"k k k k k k k k k                                     k k k k k k k k k ",
"k k k k k k k k k k k                             k k k k k k k k k k k ",
"k k k k k k k k k k k k k k                 k k k k k k k k k k k k k k ",
"k k k k k k k k k k k k k k k k k     k k k k k k k k k k k k k k k k k ",
"k k k k k k k k k k k k k k k k k     k k k k k k k k k k k k k k k k k "
};
