/* XPM */
static char *bmoku-0-LB-22[] = {
/* columns rows colors chars-per-pixel */
"36 36 90 1",
"  c #000100010001",
". c #015A015A015A",
"X c #08FA08FA08FA",
"o c #0BB80BB80BB8",
"O c #0E6A0E6A0E6A",
"+ c #0F580F580F58",
"@ c #104D104D104D",
"# c #114F114F114F",
"$ c #121312131213",
"% c #144014401440",
"& c #167E167E167E",
"* c #1B101B101B10",
"= c #1EF51EF51EF5",
"- c #244E244E244E",
"; c #275227522752",
": c #2A402A402A40",
"> c #2DCA2DCA2DCA",
", c #30FF30FF30FF",
"< c #402340234023",
"1 c #42E942E942E9",
"2 c #4F3B4F3B4F3B",
"3 c #4F8D4F8D4F8D",
"4 c #518651865186",
"5 c #574057405740",
"6 c #59FF59FF59FF",
"7 c #618561856185",
"8 c #634663466346",
"9 c #68C668C668C6",
"0 c #6BEC6BEC6BEC",
"q c #6E0E6E0E6E0E",
"w c #713571357135",
"e c #71F371F371F3",
"r c #782B782B782B",
"t c #E79DB2CA4924",
"y c #810181018101",
"u c #830183018301",
"i c #856685668566",
"p c #86FE86FE86FE",
"a c #8B228B228B22",
"s c #8FFF8FFF8FFF",
"d c #9E649E649E64",
"f c #9F989F989F98",
"g c #A451A451A451",
"h c #A70AA70AA70A",
"j c #A810A810A810",
"k c #AC1DAC1DAC1D",
"l c #B129B129B129",
"z c #B466B466B466",
"x c #B9F1B9F1B9F1",
"c c #BD30BD30BD30",
"v c #BFB6BFB6BFB6",
"b c #C451C451C451",
"n c #C61BC61BC61B",
"m c #C99DC99DC99D",
"M c #CF43CF43CF43",
"N c #D2ADD2ADD2AD",
"B c #D37AD37AD37A",
"V c #D45ED45ED45E",
"C c #D522D522D522",
"Z c #D7F5D7F5D7F5",
"A c #DB2BDB2BDB2B",
"S c #DECDDECDDECD",
"D c #DF55DF55DF55",
"F c #E060E060E060",
"G c #E1ABE1ABE1AB",
"H c #E4BBE4BBE4BB",
"J c #E68DE68DE68D",
"K c #E7CEE7CEE7CE",
"L c #E830E830E830",
"P c #E9F1E9F1E9F1",
"I c #EB52EB52EB52",
"U c #EC32EC32EC32",
"Y c #ED61ED61ED61",
"T c #EEB2EEB2EEB2",
"R c #EF7AEF7AEF7A",
"E c #F0BBF0BBF0BB",
"W c #F1DBF1DBF1DB",
"Q c #F261F261F261",
"! c #F3BFF3BFF3BF",
"~ c #F471F471F471",
"^ c #F5A3F5A3F5A3",
"/ c #F68BF68BF68B",
"( c #F76FF76FF76F",
") c #F85AF85AF85A",
"_ c #F9ADF9ADF9AD",
"` c #FC9BFC9BFC9B",
"' c #FDA8FDA8FDA8",
"] c #FE75FE75FE75",
"[ c #FF83FF83FF83",
"{ c gray100",
/* pixels */
"ttttttttttttttttt  ttttttttttttttttt",
"ttttttttttttttttt  ttttttttttttttttt",
"tttttttttttttt        tttttttttttttt",
"ttttttttttt              ttttttttttt",
"ttttttttt                  ttttttttt",
"tttttttt            7777    tttttttt",
"ttttttt            7777777   ttttttt",
"tttttt            777dddd77   tttttt",
"ttttt             77dddddd77   ttttt",
"tttt     %6uu3O   7dgGJJDgd7    tttt",
"tttt    p{{{(`{5  7V{{{{{{cf7   tttt",
"ttt    w{``{{{T{, g{{{{{{{{k7    ttt",
"ttt    {{{w$=D{mc {{{JNN`{(J7    ttt",
"ttt   O{N{   >{A{O{J{MMMV{R{7    ttt",
"tt    *{{n   <{V`*{{PddMA{T`7     tt",
"tt     %$o  -{{Pr $09ddk{{`k7     tt",
"tt        $d{{GPo   70n{{(R9      tt",
"         7{{R{x$    7{{({N0         ",
"        z{R{T1     z{R{T1           ",
"tt     d{G{4      d{D{3           tt",
"tt    o{D{::::::-o{D{:::::>-      tt",
"tt    3{T{{{{{{{{3{T{{{{{{{{      tt",
"ttt   3{{{{{{{{T{p{{{{{{{{R{     ttt",
"ttt   ,sssssssssp,sssssssssp     ttt",
"ttt                              ttt",
"tttt                            tttt",
"tttt                            tttt",
"ttttt                          ttttt",
"tttttt                        tttttt",
"ttttttt                      ttttttt",
"tttttttt                    tttttttt",
"ttttttttt                  ttttttttt",
"ttttttttttt              ttttttttttt",
"tttttttttttttt        tttttttttttttt",
"ttttttttttttttttt  ttttttttttttttttt",
"ttttttttttttttttt  ttttttttttttttttt"
};
