/* XPM */
static char *bmoku-0-LB-301[] = {
/* columns rows colors chars-per-pixel */
"36 36 110 2",
"   c black",
".  c #017D017D017D",
"X  c #027502750275",
"o  c #035A035A035A",
"O  c #053405340534",
"+  c #078207820782",
"@  c #098F098F098F",
"#  c #0A230A230A23",
"$  c #0B280B280B28",
"%  c #0EAF0EAF0EAF",
"&  c #0F2B0F2B0F2B",
"*  c #136613661366",
"=  c #15AE15AE15AE",
"-  c #166516651665",
";  c #1CB01CB01CB0",
":  c #1E821E821E82",
">  c #228622862286",
",  c #24A624A624A6",
"<  c #25A025A025A0",
"1  c #263126312631",
"2  c #278627862786",
"3  c #2DBC2DBC2DBC",
"4  c #30E930E930E9",
"5  c #313531353135",
"6  c #327B327B327B",
"7  c #359E359E359E",
"8  c #440F440F440F",
"9  c #44DB44DB44DB",
"0  c #480D480D480D",
"q  c #497E497E497E",
"w  c #4B684B684B68",
"e  c #5A835A835A83",
"r  c #5BEC5BEC5BEC",
"t  c #5D0D5D0D5D0D",
"y  c #603960396039",
"u  c #608360836083",
"i  c #618561856185",
"p  c #66BA66BA66BA",
"a  c #683B683B683B",
"s  c #6E0D6E0D6E0D",
"d  c #6F676F676F67",
"f  c #736473647364",
"g  c #773077307730",
"h  c #780B780B780B",
"j  c #E79DB2CA4924",
"k  c #E7ADB2FB4998",
"l  c #812081208120",
"z  c #818E818E818E",
"x  c #82EA82EA82EA",
"c  c #841A841A841A",
"v  c #85B685B685B6",
"b  c #86FE86FE86FE",
"n  c #8D068D068D06",
"m  c #8FE78FE78FE7",
"M  c #934393439343",
"N  c #94D794D794D7",
"B  c #97B897B897B8",
"V  c #9C7E9C7E9C7E",
"C  c #9E799E799E79",
"Z  c #9F679F679F67",
"A  c #A0EAA0EAA0EA",
"S  c #A98DA98DA98D",
"D  c #AD0AAD0AAD0A",
"F  c #AE25AE25AE25",
"G  c #B53CB53CB53C",
"H  c #B5B7B5B7B5B7",
"J  c #BEC7BEC7BEC7",
"K  c #F3CCD95DA481",
"L  c #C599C599C599",
"P  c #C8FEC8FEC8FE",
"I  c #CA5FCA5FCA5F",
"U  c #CB70CB70CB70",
"Y  c #CD77CD77CD77",
"T  c #CDE7CDE7CDE7",
"R  c #CF3FCF3FCF3F",
"E  c #D100D100D100",
"W  c #D217D217D217",
"Q  c #D33CD33CD33C",
"!  c #D4EFD4EFD4EF",
"~  c #D9D2D9D2D9D2",
"^  c #DA42DA42DA42",
"/  c #DC0DDC0DDC0D",
"(  c #DD1ADD1ADD1A",
")  c #DF4EDF4EDF4E",
"_  c #F80EE6D9C470",
"`  c #E119E119E119",
"'  c #E464E464E464",
"]  c #E540E540E540",
"[  c #E95EE95EE95E",
"{  c #EAC8EAC8EAC8",
"}  c #EBB1EBB1EBB1",
"|  c #EC80EC80EC80",
" . c #ED50ED50ED50",
".. c #EEDEEEDEEEDE",
"X. c #F16CF16CF16C",
"o. c #F281F281F281",
"O. c #F30CF30CF30C",
"+. c #F47DF47DF47D",
"@. c #F5BFF5BFF5BF",
"#. c #F647F647F647",
"$. c #F76DF76DF76D",
"%. c #F88EF88EF88E",
"&. c #F940F940F940",
"*. c #FA2EFA2EFA2E",
"=. c #FAFEFAFEFAFE",
"-. c #FCB6FCB6FCB6",
";. c #FD9EFD9EFD9E",
":. c #FEB9FEB9FEB9",
">. c #FFAAFFA9FFA8",
",. c gray100",
/* pixels */
"j j j j j j j j j j j j j j k k k     k k k k k k k j j j j j j j j j j ",
"j j j j j j j j k k j j j j k k j     k k k k k j k j j j j j j j j j j ",
"j j j j j j j j k k k k j k                 k k j k k j j j j j j j j j ",
"j j j j j j j j k k k                             k j j j j j j j j j j ",
"j j j j j j j j k                                     k j j j j j j j j ",
"j j j j j j j j                         i u u u         j j j j j j j j ",
"j j j j j j j                         u i u u u u i       k j j j j j j ",
"j j j j j j                         u u i A A Z Z i u       j j j j j j ",
"j j j j j                           u u Z Z Z Z Z Z y u       k j j j j ",
"j j j j 3 e m y 6             O 0 x D G Z R Y R R Z Z x m b     j j j j ",
"j j j _ ,.,.,.#.,.D         6 ,.,.,.=.,.#.! R R R R Z O.#.,.    j j j j ",
"j j K ,.O.,.,.,.,.,.h     # ,.,.[ ,.,.,.O.#.R R R ! Y ,.[ ,.      j j j ",
"j j ,.,.,.u % s ,.` ,.    N ,.! ,.< x ,.,.,.^ R ,.,.,.,.| ,.      j j j ",
"j j ,.[ ,.O   O ,.,.,.%   #.,.,.q   u P ,.#.| Y ,.,.,.,.| ,.      j j j ",
"j j ,.,.,.    = ,.` ,.O   ,.=.,.%     m ,.[ #.Y ^ G G ,.[ ,.        j j ",
"j j       G ] ,.,.,.x     ,.] ,.O     g ,.O.,.Z Z Z Z ,.| ,.        j j ",
"j j       ,.,.,.,.,.y     ,.( ,.      = ,.[ ,.Z Z Z u ,.( ,.        j j ",
"          g M P ,.#.,.y   ,.] ,.#     < ,.( ,.u u u u ,.` ,.            ",
"    N V m       q ,.R #.  ,.=.,.%     0 ,.R Y         ,.( ,.            ",
"j j ,.O.,.O     < ,.( ,.  O.,.,.8     Z ,.R Z         ,.` ,.        j j ",
"j j ,.,.,.p = : L ,.P G   b ,.R [ = : ,.,.,.2         ,.( ,.        j j ",
"j j M ,.O.,.,.,.,.O.,.6   O ,.,.| ,.,.,.[ ^           ,.` ,.        j j ",
"j j j S ,.,.,.#.,.,.e       > =.,.,.=.,.J #           ,.| ,.      j j j ",
"j j j   : p b s 0 #           # 7 f p 3               m M b       j j j ",
"j j j                                                             j j j ",
"j j j j                                                         j j j j ",
"j j j j                                                         j j j j ",
"j j j j j                                                     j j j j j ",
"j j j j j j                                                 j j j j j j ",
"j j j j j j j                                             j j j j j j j ",
"j j j j j j j j                                         j j j j j j j j ",
"j j j j j j j j j                                     j j j j j j j j j ",
"j j j j j j j j j j j                             j j j j j j j j j j j ",
"j j j j j j j j j j j j j j                 j j j j j j j j j j j j j j ",
"j j j j j j j j j j j j j j j j j     j j j j j j j j j j j j j j j j j ",
"j j j j j j j j j j j j j j j j j     j j j j j j j j j j j j j j j j j "
};
