/* XPM */
static char *bmoku-0-SQ[] = {
/* columns rows colors chars-per-pixel */
"36 36 12 1",
"  c black",
". c #1CDD1CDD1CDD",
"X c #618561856185",
"o c #736373637363",
"O c #E79DB2CA4924",
"+ c #8FFF8FFF8FFF",
"@ c #9E799E799E79",
"# c #BAAABAAABAAA",
"$ c #CF3CCF3CCF3C",
"% c #D554D554D554",
"& c #EAAAEAAAEAAA",
"* c gray100",
/* pixels */
"OOOOOOOOOOOOOOOOO  OOOOOOOOOOOOOOOOO",
"OOOOOOOOOOOOOOOOO  OOOOOOOOOOOOOOOOO",
"OOOOOOOOOOOOOO        OOOOOOOOOOOOOO",
"OOOOOOOOOOO              OOOOOOOOOOO",
"OOOOOOOOO                  OOOOOOOOO",
"OOOOOOOO            XXXX    OOOOOOOO",
"OOOOOOO            XXXXXXX   OOOOOOO",
"OOOOOO            XXX@@@@XX   OOOOOO",
"OOOOO   .+++++++++##%%%%%%#o   OOOOO",
"OOOO    +******************#    OOOO",
"OOOO    +*++++++++#%%&&&&&*%X   OOOO",
"OOO     +*+       X@@$$$$&*%X    OOO",
"OOO     +*+       X@@$$$$&*%X    OOO",
"OOO     +*+       XX@$$$$&*%X    OOO",
"OO      +*+        X@@@$$%*%X     OO",
"OO      +*+        XX@@@@%*#X     OO",
"OO      +*+         XXX@@%*#      OO",
"        +*+           XXX#*+        ",
"        +*+              +*+        ",
"OO      +*+              +*+      OO",
"OO      +*+              +*+      OO",
"OO      +*+              +*+      OO",
"OOO     +*+              +*+     OOO",
"OOO     +*+              +*+     OOO",
"OOO     +*+              +*+     OOO",
"OOOO    +*++++++++++++++++*+    OOOO",
"OOOO    +******************+    OOOO",
"OOOOO   .++++++++++++++++++.   OOOOO",
"OOOOOO                        OOOOOO",
"OOOOOOO                      OOOOOOO",
"OOOOOOOO                    OOOOOOOO",
"OOOOOOOOO                  OOOOOOOOO",
"OOOOOOOOOOO              OOOOOOOOOOO",
"OOOOOOOOOOOOOO        OOOOOOOOOOOOOO",
"OOOOOOOOOOOOOOOOO  OOOOOOOOOOOOOOOOO",
"OOOOOOOOOOOOOOOOO  OOOOOOOOOOOOOOOOO"
};
