/* XPM */
static char *bmoku-0-LB-314[] = {
/* columns rows colors chars-per-pixel */
"36 36 92 1",
"  c black",
". c #017D017D017D",
"X c #03B003B003B0",
"o c #047504750475",
"O c #053405340534",
"+ c #07E207E207E2",
"@ c #089108910891",
"# c #098609860986",
"$ c #0EAE0EAE0EAE",
"% c #100010001000",
"& c #118F118F118F",
"* c #159115911591",
"= c #166516651665",
"- c #1CB01CB01CB0",
"; c #1DAF1DAF1DAF",
": c #1E421E421E42",
"> c #263126312631",
", c #2D932D932D93",
"< c #313531353135",
"1 c #327B327B327B",
"2 c #33C033C033C0",
"3 c #3C0D3C0D3C0D",
"4 c #449D449D449D",
"5 c #4B684B684B68",
"6 c #519B519B519B",
"7 c #5A835A835A83",
"8 c #5BEC5BEC5BEC",
"9 c #5D0D5D0D5D0D",
"0 c #603960396039",
"q c #608360836083",
"w c #618561856185",
"e c #635163516351",
"r c #66BA66BA66BA",
"t c #685A685A685A",
"y c #6E0D6E0D6E0D",
"u c #6F676F676F67",
"i c #744A744A744A",
"p c #780B780B780B",
"a c #7B5A7B5A7B5A",
"s c #7FE07FE07FE0",
"d c #E79DB2CA4924",
"f c #E7B5B31649D9",
"g c #82EA82EA82EA",
"h c #85B685B685B6",
"j c #86FE86FE86FE",
"k c #8C948C948C94",
"l c #8FF88FF88FF8",
"z c #923E923E923E",
"x c #934393439343",
"c c #97B897B897B8",
"v c #9E799E799E79",
"b c #A384A384A384",
"n c #A98DA98DA98D",
"m c #AC9EAC9EAC9E",
"M c #AD0AAD0AAD0A",
"N c #B51DB51DB51D",
"B c #BAAABAAABAAA",
"V c #C432C432C432",
"C c #C599C599C599",
"Z c #C8FEC8FEC8FE",
"A c #CB70CB70CB70",
"S c #CC2FCC2FCC2F",
"D c #CF3CCF3CCF3C",
"F c #CFD6CFD6CFD6",
"G c #D170D170D170",
"H c #D1FDD1FDD1FD",
"J c #D6B2D6B2D6B2",
"K c #D96CD96CD96C",
"L c #DD7BDD7BDD7B",
"P c #DF4EDF4EDF4E",
"I c #E138E138E138",
"U c #E49EE49EE49E",
"Y c #E540E540E540",
"T c #E95DE95DE95D",
"R c #EBC2EBC2EBC2",
"E c #EBF4EBF4EBF4",
"W c #EEDEEEDEEEDE",
"Q c #EFA0EFA0EFA0",
"! c #F0DAF0DAF0DA",
"~ c #F16FF16FF16F",
"^ c #F23EF23EF23E",
"/ c #F30CF30CF30C",
"( c #F460F460F460",
") c #F564F564F564",
"_ c #F647F647F647",
"` c #F90DF90DF90D",
"' c #FA2EFA2EFA2E",
"] c #FCB6FCB6FCB6",
"[ c #FD6DFD6DFD6D",
"{ c #FEB5FEB5FEB5",
"} c #FFC8FFC8FFC8",
"| c gray100",
/* pixels */
"ddddddddddddddddd  dfffddddddddddddd",
"ddddddddddddddddd  dffdddddddddddddd",
"dddddddddddddd        ffdddddddddddd",
"ddddddddddd              ddddddddddd",
"ddddddddd                  fdddddddd",
"dddddddd            qqqq    dddddddd",
"ddddddd            qeqqqqe   ddddddd",
"dddddd            qqqbvvvqq   dddddd",
"ddddd             qqvvvbvvqq   ddddd",
"dddd ,7lq1       2BFvFSFGvvsllO dddd",
"ddddm|||(|M      U(|vSFSDDb|||% dddd",
"ddds|^|||||a  @;a|T|bFFFDDE|||%  ddd",
"ddd|||q$y|P|  ||||T|vSFFSY||||%  ddd",
"ddd|T|O O|||$ ||||T|bSSFJ|^|||%  ddd",
"dd |||  *|U|O 333|P|vvvS||||||%   dd",
"dd    NY|||g     |P|qvvL||S|||%   dd",
"dd    |||||9     |P|qql|^^q|||&   fd",
"      plZ|'|9    |P| &|^|iq|||$     ",
"   ccl   5|F(    |P| C||LJJ|||LF@   ",
"dd |^|@  >|P|    |P| F||||||||||% dd",
"dd |||t*;C|ZN    |P| 6lllll|||llO dd",
"dd l|(||||^|1    |P|       |||$   dd",
"fff m|||'||7     |W|       |||&  ddd",
"dff  ;ejy4@      llj       jllO  ddd",
"ddd                              ddd",
"dddd                            dddd",
"dddd                            dddd",
"ddddd                          ddddd",
"dddddd                        dddddd",
"ddddddd                      ddddddd",
"dddddddd                    dddddddd",
"ddddddddd                  ddddddddd",
"ddddddddddd              ddddddddddd",
"dddddddddddddd        dddddddddddddd",
"ddddddddddddddddd  ddddddddddddddddd",
"ddddddddddddddddd  ddddddddddddddddd"
};
