/* XPM */
static char *bmoku-0-LB-210[] = {
/* columns rows colors chars-per-pixel */
"36 36 108 2",
"   c #000100010001",
".  c #018101810181",
"X  c #022602260226",
"o  c #084F084F084F",
"O  c #0AF50AF50AF5",
"+  c #0C6E0C6E0C6E",
"@  c #0F200F200F20",
"#  c #118311831183",
"$  c #137713771377",
"%  c #147114711471",
"&  c #167116711671",
"*  c #199B199B199B",
"=  c #1B5E1B5E1B5E",
"-  c #1CDA1CDA1CDA",
";  c #1F801F801F80",
":  c #22CA22CA22CA",
">  c #25B525B525B5",
",  c #269526952695",
"<  c #28E028E028E0",
"1  c #2A402A402A40",
"2  c #2E3D2E3D2E3D",
"3  c #322432243224",
"4  c #328E328E328E",
"5  c #336233623362",
"6  c #34C934C934C9",
"7  c #36C636C636C6",
"8  c #3BDC3BDC3BDC",
"9  c #3DA73DA73DA7",
"0  c #411541154115",
"q  c #47F447F447F4",
"w  c #4A204A204A20",
"e  c #4B454B454B45",
"r  c #4B734B734B73",
"t  c #4DBB4DBB4DBB",
"y  c #51BC51BC51BC",
"u  c #54E054E054E0",
"i  c #55D955D955D9",
"p  c #57D157D157D1",
"a  c #58EC58EC58EC",
"s  c #5A435A435A43",
"d  c #5E715E715E71",
"f  c #60D160D160D1",
"g  c #618561856185",
"h  c #648964896489",
"j  c #684068406840",
"k  c #688F688F688F",
"l  c #69C169C169C1",
"z  c #6B126B126B12",
"x  c #6EFD6EFD6EFD",
"c  c #712F712F712F",
"v  c #754675467546",
"b  c #7B9D7B9D7B9D",
"n  c #7FFF7FFF7FFF",
"m  c #E79DB2CA4924",
"M  c #E7FEB3FE4BFD",
"N  c #E9F5BA375ABA",
"B  c #EE02C7097918",
"V  c #87DE87DE87DE",
"C  c #8A1C8A1C8A1C",
"Z  c #8C758C758C75",
"A  c #8DAE8DAE8DAE",
"S  c #8F718F718F71",
"D  c #8FFA8FFA8FFA",
"F  c #929592959295",
"G  c #996699669966",
"H  c #9E799E799E79",
"J  c #9ECD9ECD9ECD",
"K  c #A3F6A3F6A3F6",
"L  c #A4D9A4D9A4D9",
"P  c #A6CEA6CEA6CE",
"I  c #A7E3A7E3A7E3",
"U  c #AC52AC52AC52",
"Y  c #B052B052B052",
"T  c #B1A1B1A1B1A1",
"R  c #B98BB98BB98B",
"E  c #BA66BA66BA66",
"W  c #BD43BD43BD43",
"Q  c #C09FC09FC09F",
"!  c #F466DB47A907",
"~  c #F4A1DC00AABF",
"^  c #C0F1C0F1C0F1",
"/  c #C2FBC2FBC2FB",
"(  c #C619C619C619",
")  c #C776C776C776",
"_  c #C906C906C906",
"`  c #CA2CCA2CCA2C",
"'  c #CE4CCE4CCE4C",
"]  c #CF3ECF3ECF3E",
"[  c #D036D036D036",
"{  c #D273D273D273",
"}  c #D4B2D4B2D4B2",
"|  c #D4EFD4EFD4EF",
" . c #D888D888D888",
".. c #DC81DC81DC81",
"X. c #E1F3E1F3E1F3",
"o. c #E303E303E303",
"O. c #E530E530E530",
"+. c #E6D2E6D2E6D2",
"@. c #EAFBEAFBEAFB",
"#. c #F3B2F3B2F3B2",
"$. c #F93EF93EF93E",
"%. c #FA52FA52FA52",
"&. c #FB8AFB8AFB8A",
"*. c #FC4EFC4EFC4E",
"=. c #FD7BFD7BFD7B",
"-. c #FEA6FEA6FEA6",
";. c #FF83FF83FF83",
":. c gray100",
/* pixels */
"m m m m m m m m m m m m m m m m m     m m m m m m m m m m m m m m m m m ",
"m m m m m m m m m m m m m m m m m     m m m m m m m m m m m m m m m m m ",
"m m m m m m m m m m m m m m                 m m m m m m m m m m m m m m ",
"m m m m m m m m m m m                             m m m m m m m m m m m ",
"m m m m m m m m m                                     m m m m m m m m m ",
"m m m m m m m m                         g g g g         m m m m m m m m ",
"m m m m m m m                         g g g g g g g       m m m m m m m ",
"m m m m m m                         g g g H H H H g g       m m m m m m ",
"m m m m M                           g g H H H H H H g g       m m m m m ",
"m m m m   5 c D v 5               C E U H ] ] ] ] U _ E z =     m m m m ",
"m m m N o.;.%.;.%.;._ +         : ;.;.Q H ] ] ] @.;.;.;.;.;.z   m m m m ",
"m m m %.%.;.;.;.;.;.%.)     $ 5 ..%.%.^ H ] ] o.;.;.;.;.;.;.;.8   m m m ",
"m m B ;.;.;.1 $ i ;.;.;.> C ;.;.%.;.;.Q H ] ] ;.;.;.o.I E ;.;.o.  m m m ",
"m m ! ;.;.q       E ;.%.y C ;.;.;.;.%.G H ]  .;.;.;.H H j ;.;.;.& m m m ",
"m m L ;.;.>       ^ ;.;.9 - 9 8 S ;.%.G H H ^ ;.;.| H H g | ;.;.7   m m ",
"m m o % $       z ;.;.;.+       S ;.$.G g H ] ;.;._ H g g U ;.;.r   m m ",
"M M         8 $.;.;.;.d         S ;.%.s g g E ;.%.^ g g   D ;.%.s   m m ",
"        & E ;.;.%.;.s           S ;.%.s     I ;.%.I g     Y ;.;.0       ",
"      > ;.%.%.;.S $             S ;.%.s     r ;.;.C       { ;.;.1       ",
"m m + ;.;.;.Y &                 S ;.$.s     5 ;.;.;.    o ;.;.;.&   m m ",
"m m j %.;.b 2 1 1 1 1 1 o       S ;.%.s       ;.;.;.i o b ;.;.(     m m ",
"m m  .;.;.;.;.;.;.;.;.;.s       D ;.%.s       g ;.;.;.;.;.;.;.7     m m ",
"m m ;.;.;.;.;.;.;.;.;.%.s       D ;.%.s         x ;.;.;.;.;.r     m m m ",
"m M ~ D D D D D D D D S 2       r D S 2           - y S q =       m m m ",
"m m m                                                             m m m ",
"m m m m                                                         m m m m ",
"m m m m                                                         m m m m ",
"m m m m m                                                     M m m m m ",
"m m m m m m                                                 M m m m m m ",
"m m m m m m m                                             M m m m m m m ",
"m m m m m m m m                                         m m m m m m m m ",
"m m m m m m m m M                                     m m m m m m m m m ",
"m m m m m m m m m m m                             m m m m m m m m m m m ",
"m m m m m m m m m m m m m m                 m m m m m m m m m m m m m m ",
"m m m m m m m m m m m m m m m m m     m m m m m m m m m m m m m m m m m ",
"m m m m m m m m m m m m m m m m m     m m m m m m m m m m m m m m m m m "
};
