/* XPM */
static char *bmoku-0-LB-206[] = {
/* columns rows colors chars-per-pixel */
"36 36 139 2",
"   c #000200020002",
".  c #013F013F013F",
"X  c #022602260226",
"o  c #053E053E053E",
"O  c #084B084B084B",
"+  c #0AD60AD60AD6",
"@  c #0CB00CB00CB0",
"#  c #0DDA0DDA0DDA",
"$  c #0F200F200F20",
"%  c #118F118F118F",
"&  c #129712971297",
"*  c #137113711371",
"=  c #144014401440",
"-  c #15F715F715F7",
";  c #167116711671",
":  c #199B199B199B",
">  c #1F651F651F65",
",  c #245824582458",
"<  c #25B525B525B5",
"1  c #266E266E266E",
"2  c #290229022902",
"3  c #2A402A402A40",
"4  c #2E3C2E3C2E3C",
"5  c #310631063106",
"6  c #322432243224",
"7  c #328232823282",
"8  c #36C636C636C6",
"9  c #380938093809",
"0  c #3C6E3C6E3C6E",
"q  c #3DA73DA73DA7",
"w  c #3E7A3E7A3E7A",
"e  c #47F447F447F4",
"r  c #49C549C549C5",
"t  c #4AB74AB74AB7",
"y  c #4BDD4BDD4BDD",
"u  c #4DBB4DBB4DBB",
"i  c #51BC51BC51BC",
"p  c #54E054E054E0",
"a  c #55D955D955D9",
"s  c #56D356D356D3",
"d  c #57D157D157D1",
"f  c #5A405A405A40",
"g  c #5AE35AE35AE3",
"h  c #5E715E715E71",
"j  c #5FD45FD45FD4",
"k  c #60D160D160D1",
"l  c #618D618D618D",
"z  c #67F367F367F3",
"x  c #69CC69CC69CC",
"c  c #6B126B126B12",
"v  c #6BCB6BCB6BCB",
"b  c #6CC16CC16CC1",
"n  c #6EE26EE26EE2",
"m  c #6FB36FB36FB3",
"M  c #712F712F712F",
"N  c #71AA71AA71AA",
"B  c #72B572B572B5",
"V  c #754675467546",
"C  c #777477747774",
"Z  c #7B9D7B9D7B9D",
"A  c #7D897D897D89",
"S  c #7FFF7FFF7FFF",
"D  c #E79DB2CA4924",
"F  c #E7ADB2FD499D",
"G  c #E7C8B3534A68",
"H  c #E7FEB3FE4BFD",
"J  c #E868B54E4F19",
"K  c #E8C6B67651D6",
"L  c #E97BB8B35723",
"P  c #E9F5BA375ABA",
"I  c #EE02C7097918",
"U  c #85CC85CC85CC",
"Y  c #89CF89CF89CF",
"T  c #8AC28AC28AC2",
"R  c #8C758C758C75",
"E  c #8D478D478D47",
"W  c #8DFF8DFF8DFF",
"Q  c #8F718F718F71",
"!  c #8FF48FF48FF4",
"~  c #91AA91AA91AA",
"^  c #929592959295",
"/  c #974A974A974A",
"(  c #989198919891",
")  c #99E099E099E0",
"_  c #9E799E799E79",
"`  c #9F6C9F6C9F6C",
"'  c #A240A240A240",
"]  c #A50EA50EA50E",
"[  c #A928A928A928",
"{  c #AA72AA72AA72",
"}  c #B09CB09CB09C",
"|  c #B1A1B1A1B1A1",
" . c #B295B295B295",
".. c #B436B436B436",
"X. c #B9ACB9ACB9AC",
"o. c #B9DDB9DDB9DD",
"O. c #BB26BB26BB26",
"+. c #BC69BC69BC69",
"@. c #BD43BD43BD43",
"#. c #BF40BF40BF40",
"$. c #C09FC09FC09F",
"%. c #F130D11C90F3",
"&. c #F466DB47A907",
"*. c #F4A1DC00AABF",
"=. c #F554DE38AFFF",
"-. c #F73BE43DBE42",
";. c #C66EC66EC66E",
":. c #C776C776C776",
">. c #C93CC93CC93C",
",. c #CBF5CBF5CBF5",
"<. c #CCD1CCD1CCD1",
"1. c #CEA4CEA4CEA4",
"2. c #CF3FCF3FCF3F",
"3. c #D191D191D191",
"4. c #D273D273D273",
"5. c #D322D322D322",
"6. c #D5C8D5C8D5C8",
"7. c #DA8FDA8FDA8F",
"8. c #DAF9DAF9DAF9",
"9. c #DC8FDC8FDC8F",
"0. c #DEA2DEA2DEA2",
"q. c #E027E027E027",
"w. c #E557E557E557",
"e. c #FC3CF415E3C7",
"r. c #FD71F7E9ECD9",
"t. c #F1FBF1FBF1FB",
"y. c #F3B2F3B2F3B2",
"u. c #F690F690F690",
"i. c #F840F840F840",
"p. c #F97CF97CF97C",
"a. c #FA66FA66FA66",
"s. c #FB98FB98FB98",
"d. c #FC6CFC6CFC6C",
"f. c #FF6AFE27FBA0",
"g. c #FD8AFD8AFD8A",
"h. c #FE82FE82FE82",
"j. c #FFB6FF19FDDF",
"k. c #FF71FF71FF71",
"l. c gray100",
/* pixels */
"D D D D D D D D D D D D D D F F F     F F F F D D D D D D D D D D D D D ",
"D D D D D D D D D D D D D D F F D     F F F D D D D D D D D D D D D D D ",
"D D D D D D D D F F G G D F                 F F D F F D D D D D D D D D ",
"D D D D D D D D F F F                             F D D D D D D D D D D ",
"D D D D D D D D G                                     F D D D D D D D D ",
"D D D D D D D D                         l l l l         D D D D D D D D ",
"D D D D D D D                         l l l l l l l       F D D D D D D ",
"D D D D D D                         l l l _ _ _ _ l l       D D D D D D ",
"D D D D G                           l l _ _ _ _ _ _ l l       D D D D D ",
"D D D D 7 B ! V 7             < b Q ] { _ 2.2.2.2._ ] _ U x 7   D D D D ",
"F F P r.d.d.d.s.d.>.#       / d.s.d.d.d.:.2.2.2.2.w.d.d.d.d.d.{ D D D D ",
"F H d.d.d.d.d.d.d.s.:.    l d.d.d.d.d.d.d.8.2.2.8.d.d.d.d.d.d.d.v D D G ",
"F I d.d.d.4 % a d.d.d.< o d.d.d.x : @.d.d.d.3.2.d.d.d.3.B u d.d.d.H G G ",
"F &.d.d.r       @.d.s.p 7 d.d.d.    x d.d.d.6.6.d.d.d.' l   u.d.d.L G G ",
"D -.d.d.<       ;.d.d.w l s.d.Q       w.d.d. .q.d.d.8.@...x 9       D D ",
"D H ; ;       b d.d.d.% S d.u.B       3.d.d.O.3.d.d.d.d.d.d.d.2.%   D D ",
"F F       e u.d.d.d.l   ! d.s.h       ! d.d.) 3.d.d.s.d.q.d.s.s.@.  F F ",
"      : O.d.d.s.d.f     b d.u.B        .d.d.Q  .d.d.s.#   % d.d.d.,     ",
"    3 d.s.u.d.! ;       u d.d.Q       3.d.d.3 b d.s.b       { d.d.y     ",
"F K d.d.d. .;           7 d.d.d.    + d.d.d.; w d.d.Q       2.d.d.0 F D ",
"F %.d.d.U 3 3 4 3 4 3 +   d.d.d.a + S d.d.>.  + d.d.d.u % h d.d.d.: F F ",
"F e.d.d.d.d.d.d.d.d.d.f   l d.d.d.d.d.d.d.9     Z d.d.d.d.d.d.d.T   F F ",
"D d.d.d.d.d.d.d.d.d.s.f     B d.d.d.d.d.u         ] d.s.d.d.d.) o F D D ",
"D &.-.! ! ! ! ! ! ! ! 4       > a Q r :             < B ! f 3     D D D ",
"D D D                                                             F F D ",
"D D D D                                                         D D D D ",
"D D D D                                                         D D D D ",
"D D D D G                                                     G D D D D ",
"D D D D G D                                                 G F D D D D ",
"D D D D D D G                                             G F F D D D D ",
"D D D D D D G D                                         D D F F D D D D ",
"D D D D D D D D F                                     D D D D D D D D D ",
"D D D D D D D D D D D                             F F F D D D D D D D D ",
"D D D D D D D D D D D D F F                 D D F F D D D D D D D D D D ",
"D D D D D D D D D D D D D D F F F     D F F F D D D D D D D D D D D D D ",
"D D D D D D D D D D D D D F F F F     D F F D D D D D D D D D D D D D D "
};
