/* XPM */
static char *bmoku-0-LB-6[] = {
/* columns rows colors chars-per-pixel */
"36 36 68 1",
"  c black",
". c #014001400140",
"X c #027D027D027D",
"o c #055905590559",
"O c #0AB60AB60AB6",
"+ c #0DDA0DDA0DDA",
"@ c #10A010A010A0",
"# c #11A311A311A3",
"$ c #129712971297",
"% c #160F160F160F",
"& c #174F174F174F",
"* c #225D225D225D",
"= c #264726472647",
"- c #292529252925",
"; c #3C6C3C6C3C6C",
": c #3DA13DA13DA1",
"> c #3E7B3E7B3E7B",
", c #496749674967",
"< c #4BDC4BDC4BDC",
"1 c #50D750D750D7",
"2 c #560B560B560B",
"3 c #56D356D356D3",
"4 c #58D158D158D1",
"5 c #5AD65AD65AD6",
"6 c #618661866186",
"7 c #69CC69CC69CC",
"8 c #6C116C116C11",
"9 c #6E926E926E92",
"0 c #6F736F736F73",
"q c #74E274E274E2",
"w c #777477747774",
"e c #79A779A779A7",
"r c #E79DB2CA4924",
"t c #843584358435",
"y c #853685368536",
"u c #85F385F385F3",
"i c #8A0C8A0C8A0C",
"p c #8AC08AC08AC0",
"a c #8D438D438D43",
"s c #8FD68FD68FD6",
"d c #912991299129",
"f c #974997499749",
"g c #9E7A9E7A9E7A",
"h c #A1C0A1C0A1C0",
"j c #A54EA54EA54E",
"k c #A5DEA5DEA5DE",
"l c #AA72AA72AA72",
"z c #B1AEB1AEB1AE",
"x c #C938C938C938",
"c c #CF3FCF3FCF3F",
"v c #D2F8D2F8D2F8",
"b c #D626D626D626",
"n c #DC8FDC8FDC8F",
"m c #DECCDECCDECC",
"M c #DFC7DFC7DFC7",
"N c #E3B6E3B6E3B6",
"B c #F48CF48CF48C",
"V c #F6DFF6DFF6DF",
"C c #F751F751F751",
"Z c #F841F841F841",
"A c #F971F971F971",
"S c #FA3CFA3CFA3C",
"D c #FB9DFB9DFB9D",
"F c #FC97FC97FC97",
"G c #FD79FD79FD79",
"H c #FE46FE46FE46",
"J c #FF53FF53FF53",
"K c gray100",
/* pixels */
"rrrrrrrrrrrrrrrrr  rrrrrrrrrrrrrrrrr",
"rrrrrrrrrrrrrrrrr  rrrrrrrrrrrrrrrrr",
"rrrrrrrrrrrrrr        rrrrrrrrrrrrrr",
"rrrrrrrrrrr              rrrrrrrrrrr",
"rrrrrrrrr                  rrrrrrrrr",
"rrrrrrrr            6666    rrrrrrrr",
"rrrrrrr            6666666   rrrrrrr",
"rrrrrr            666gggg66   rrrrrr",
"rrrrr             66gggggg66   rrrrr",
"rrrr           @4ujlgccccgg6    rrrr",
"rrrr          4KKKKKMcccccgg6   rrrr",
"rrr          :KKKKKKKNccccgg6    rrr",
"rrr          BKKt&sKKKcccccg6    rrr",
"rrr         *KKK  6BKKvcccgg6    rrr",
"rr          1DKd2u8ugggccggg6     rr",
"rr          eDBKDKDKMkggggg66     rr",
"rr          uKKDKMKBDb6ggg66      rr",
"            uKKB+ @KKKq6666         ",
"            9DB8   lKK,             ",
"rr          :KDs   xKK:           rr",
"rr          OKKK<@4KKK&           rr",
"rr           eKKKKKKKp            rr",
"rrr           kKDKDKfo           rrr",
"rrr            =9s2-             rrr",
"rrr                              rrr",
"rrrr                            rrrr",
"rrrr                            rrrr",
"rrrrr                          rrrrr",
"rrrrrr                        rrrrrr",
"rrrrrrr                      rrrrrrr",
"rrrrrrrr                    rrrrrrrr",
"rrrrrrrrr                  rrrrrrrrr",
"rrrrrrrrrrr              rrrrrrrrrrr",
"rrrrrrrrrrrrrr        rrrrrrrrrrrrrr",
"rrrrrrrrrrrrrrrrr  rrrrrrrrrrrrrrrrr",
"rrrrrrrrrrrrrrrrr  rrrrrrrrrrrrrrrrr"
};
