/* XPM */
static char *bmoku-0-LB-297[] = {
/* columns rows colors chars-per-pixel */
"36 36 132 2",
"   c #000100010001",
".  c #013001300130",
"X  c #02F402F402F4",
"o  c #055505550555",
"O  c #073307330733",
"+  c #0BB80BB80BB8",
"@  c #0E680E680E68",
"#  c #0F580F580F58",
"$  c #104D104D104D",
"%  c #114F114F114F",
"&  c #121312131213",
"*  c #139513951395",
"=  c #143D143D143D",
"-  c #164E164E164E",
";  c #19B319B319B3",
":  c #1A8A1A8A1A8A",
">  c #1D5C1D5C1D5C",
",  c #1EF51EF51EF5",
"<  c #230523052305",
"1  c #242224222422",
"2  c #244E244E244E",
"3  c #275127512751",
"4  c #2A402A402A40",
"5  c #2DCA2DCA2DCA",
"6  c #310D310D310D",
"7  c #314B314B314B",
"8  c #33B933B933B9",
"9  c #397339733973",
"0  c #3EE83EE83EE8",
"q  c #3FB33FB33FB3",
"w  c #421642164216",
"e  c #42E942E942E9",
"r  c #450345034503",
"t  c #46F546F546F5",
"y  c #4F8D4F8D4F8D",
"u  c #51BB51BB51BB",
"i  c #56E956E956E9",
"p  c #59FF59FF59FF",
"a  c #606E606E606E",
"s  c #618561856185",
"d  c #62EB62EB62EB",
"f  c #69EF69EF69EF",
"g  c #6B4A6B4A6B4A",
"h  c #713571357135",
"j  c #741A741A741A",
"k  c #773377337733",
"l  c #782B782B782B",
"z  c #79FC79FC79FC",
"x  c #7B9B7B9B7B9B",
"c  c #7CAF7CAF7CAF",
"v  c #E79DB2CA4924",
"b  c #E7A7B2EA496F",
"n  c #E878B57F4F8D",
"m  c #E8FCB7235370",
"M  c #EA31BAF45C79",
"N  c #EC47C18F6C1E",
"B  c #810181018101",
"V  c #830183018301",
"C  c #861186118611",
"Z  c #86FD86FD86FD",
"A  c #8CEE8CEE8CEE",
"S  c #8DAE8DAE8DAE",
"D  c #8FFF8FFF8FFF",
"F  c #94AC94AC94AC",
"G  c #977897789778",
"H  c #987498749874",
"J  c #995599559955",
"K  c #9E709E709E70",
"L  c #9F279F279F27",
"P  c #9FF19FF19FF1",
"I  c #A1B2A1B2A1B2",
"U  c #A2DDA2DDA2DD",
"Y  c #A53CA53CA53C",
"T  c #ABC3ABC3ABC3",
"R  c #AD0AAD0AAD0A",
"E  c #AE23AE23AE23",
"W  c #AEB2AEB2AEB2",
"Q  c #B466B466B466",
"!  c #B616B616B616",
"~  c #B95CB95CB95C",
"^  c #BA66BA66BA66",
"/  c #BD30BD30BD30",
"(  c #EF29CAAF81BB",
")  c #F277D5289A88",
"_  c #F452DB05A86C",
"`  c #F4D2DC9AAC2C",
"'  c #F554DE38AFFF",
"]  c #C559C559C559",
"[  c #C61BC61BC61B",
"{  c #C993C993C993",
"}  c #CA1DCA1DCA1D",
"|  c #CB5ECB5ECB5E",
" . c #CCE3CCE3CCE3",
".. c #CE99CE99CE99",
"X. c #CF43CF43CF43",
"o. c #D053D053D053",
"O. c #D218D218D218",
"+. c #D43AD43AD43A",
"@. c #D540D540D540",
"#. c #D677D677D677",
"$. c #D74ED74ED74E",
"%. c #D806D806D806",
"&. c #D98BD98BD98B",
"*. c #DA36DA36DA36",
"=. c #DB1EDB1EDB1E",
"-. c #DD5DDD5DDD5D",
";. c #DF4FDF4FDF4F",
":. c #E011E011E011",
">. c #E17FE17FE17F",
",. c #E478E478E478",
"<. c #EAAAEAAAEAAA",
"1. c #EB57EB57EB57",
"2. c #EC32EC32EC32",
"3. c #ED4DED4DED4D",
"4. c #EE75EE75EE75",
"5. c #F09DF09DF09D",
"6. c #F175F175F175",
"7. c #F27BF27BF27B",
"8. c #F335F335F335",
"9. c #F3F4F3F4F3F4",
"0. c #F53EF53EF53E",
"q. c #F78BF78BF78B",
"w. c #F884F884F884",
"e. c #F9C7F9C7F9C7",
"r. c #FA6AFA6AFA6A",
"t. c #FB80FB80FB80",
"y. c #FC90FC90FC90",
"u. c #FDA4FDA4FDA4",
"i. c #FE6CFE6CFE6C",
"p. c #FFC8FF51FE63",
"a. c #FF94FF94FF94",
"s. c gray100",
/* pixels */
"v v v v v v v v b b b b b v b b b     b b b b b v v v v v v v v v v v v ",
"v v v v v v v v b b b b v v b b b     b b b b b v v v v v v v v v v v v ",
"v v v v v v v v b b b b v b                 b b v b b v v v v v v v v v ",
"v v v v v v v v b b b                             b b v v v v v v v v v ",
"v v v v v v v v b                                     b v v v v v v v v ",
"v v v v v v v v                         s s s s         v v v v v v v v ",
"v v v v v v v                         s s s s s s s       b v v v v v v ",
"v v v v v v                         s s s K K K K s s       v v v v v v ",
"v v v v v                           s s K K K K K K s s       v v v v v ",
"v v v v = p B B u *           + t x T ! U  .+.<.<.@.@.^ D D D D ` v v v ",
"v v v ` s.s.s.q.e.s.i       s s.s.s.e.s.e.+.*.s.s.s.s.s.s.s.s.9.s.v v v ",
"v v ) s.e.t.s.s.s.4.s.7   t s.s.4.s.s.s.4.s.*.s.s.s.s.s.s.s.s.@.s.v v v ",
"v v s.s.s.g * , ;.s.{ /   9.s.:.K : x e.s.s.*.@.*.@.@.W x  .s.s.q v v v ",
"v m s.+.s.      5 s.*.s.  s.9.s.+   s A s.q.9. . . .U K U s.4.V   v v v ",
"v M s.s.[       q s.+.q.  s.,.s.O     j s.4.s. .+.K K Y s.@.s.O     v v ",
"v v = = +     2 s.s.<.k   s.s.s.7     ^ s.9.s.K K K K @.s.s.q       v v ",
"v v       + K s.s.;.4.+   G s.;.s.W @.s.s.<.s.K K K c s. .{         v v ",
"        d s.s.9.s.^ *       [ s.s.s.q.s.s.@.s.s s s :.s.s.7             ",
"      ! s.9.s.4.w             w G *.W p s.{ +.    : s. .4.              ",
"v v K s.;.s.u             ;.s.s.,     W s.*.x     J s.4.s           v v ",
"v n s.;.s.4 4 4 4 4 4 2   ^ s.;.K * q s.q.s.2     q.e.s.=           v v ",
"v ( s.4.s.s.s.s.s.s.s.s.  7 s.s.9.s.s.s.e.G     : s.+.e.            v v ",
"v ` s.s.s.s.s.s.s.s.4.s.    g s.s.s.4.s.J       j s.{ J           v v v ",
"v N ' S D D D D D D D V       * u S g <         8 S D 9           v v v ",
"v v v                                                             v v v ",
"v v v v                                                         v v v v ",
"v v v v                                                         v v v v ",
"v v v v v                                                     b v v v v ",
"v v v v v v                                                 v v v v v v ",
"v v v v v v v                                             v v v v v v v ",
"v v v v v v v v                                         v v v v v v v v ",
"v v v v v v v v v                                     v v v v v v v v v ",
"v v v v v v v v v v v                             v v v v v v v v v v v ",
"v v v v v v v v v v v v v v                 v v v v v v v v v v v v v v ",
"v v v v v v v v v v v v v v v v v     v v v v v v v v v v v v v v v v v ",
"v v v v v v v v v v v v v v v v v     v v v v v v v v v v v v v v v v v "
};
