/* XPM */
static char *bmoku-0-LB-h[] = {
/* columns rows colors chars-per-pixel */
"36 36 30 1",
"  c black",
". c #0BBD0BBD0BBD",
"X c #11C511C511C5",
"o c #2B772B772B77",
"O c #2E3C2E3C2E3C",
"+ c #4B734B734B73",
"@ c #5A405A405A40",
"# c #618561856185",
"$ c #686368636863",
"% c #739D739D739D",
"& c #E79DB2CA4924",
"* c #900490049004",
"= c #996499649964",
"- c #9CD39CD39CD3",
"; c #9E799E799E79",
": c #A92CA92CA92C",
"> c #AB3AAB3AAB3A",
", c #BA24BA24BA24",
"< c #BEC9BEC9BEC9",
"1 c #C3D1C3D1C3D1",
"2 c #CF3CCF3CCF3C",
"3 c #E222E222E222",
"4 c #E637E637E637",
"5 c #EB7AEB7AEB7A",
"6 c #F906F906F906",
"7 c #FBAAFBAAFBAA",
"8 c #FC81FC81FC81",
"9 c #FE3CFE3CFE3C",
"0 c #FF74FF74FF74",
"q c gray100",
/* pixels */
"&&&&&&&&&&&&&&&&&  &&&&&&&&&&&&&&&&&",
"&&&&&&&&&&&&&&&&&  &&&&&&&&&&&&&&&&&",
"&&&&&&&&&&&&&&        &&&&&&&&&&&&&&",
"&&&&&&&&&&&              &&&&&&&&&&&",
"&&&&&&&&&                  &&&&&&&&&",
"&&&&&&&&            ####    &&&&&&&&",
"&&&&&&&            #######   &&&&&&&",
"&&&&&&            ###;;;;##   &&&&&&",
"&&&&&       O**+  ##;;;;;;##   &&&&&",
"&&&&        @6q*  #;;2222;;#    &&&&",
"&&&&        @6q*  #;;22222;;#   &&&&",
"&&&         @6q*  #;;22222;;#    &&&",
"&&&         @6q*O%,<:222222;#    &&&",
"&&&         @6q:q6qqq42222;;#    &&&",
"&&          @6qqqqqqqq:22;;;#     &&",
"&&          @6qq$..5qq<;;;;##     &&",
"&&          @6q3   *q6=;;;##      &&",
"            @6q;   *q6=####         ",
"            @6q*   *q6@             ",
"&&          @6q*   *q6@           &&",
"&&          @6q*   *q6@           &&",
"&&          @6q*   *q6@           &&",
"&&&         @6q*   *q6@          &&&",
"&&&         O**+   +**O          &&&",
"&&&                              &&&",
"&&&&                            &&&&",
"&&&&                            &&&&",
"&&&&&                          &&&&&",
"&&&&&&                        &&&&&&",
"&&&&&&&                      &&&&&&&",
"&&&&&&&&                    &&&&&&&&",
"&&&&&&&&&                  &&&&&&&&&",
"&&&&&&&&&&&              &&&&&&&&&&&",
"&&&&&&&&&&&&&&        &&&&&&&&&&&&&&",
"&&&&&&&&&&&&&&&&&  &&&&&&&&&&&&&&&&&",
"&&&&&&&&&&&&&&&&&  &&&&&&&&&&&&&&&&&"
};
