/* XPM */
static char *bmoku-0-LB-205[] = {
/* columns rows colors chars-per-pixel */
"36 36 138 2",
"   c #000100010001",
".  c #012B012B012B",
"X  c #022602260226",
"o  c #04C104C104C1",
"O  c #052305230523",
"+  c #084B084B084B",
"@  c #0AF50AF50AF5",
"#  c #0CBA0CBA0CBA",
"$  c #0F200F200F20",
"%  c #104810481048",
"&  c #117C117C117C",
"*  c #122312231223",
"=  c #137713771377",
"-  c #143E143E143E",
";  c #15DE15DE15DE",
":  c #167116711671",
">  c #181118111811",
",  c #185D185D185D",
"<  c #196B196B196B",
"1  c #1B331B331B33",
"2  c #1F801F801F80",
"3  c #208020802080",
"4  c #245824582458",
"5  c #25B525B525B5",
"6  c #269526952695",
"7  c #28E028E028E0",
"8  c #2A3F2A3F2A3F",
"9  c #2E3C2E3C2E3C",
"0  c #310631063106",
"q  c #322432243224",
"w  c #328E328E328E",
"e  c #36C236C236C2",
"r  c #3B723B723B72",
"t  c #3DA73DA73DA7",
"y  c #471A471A471A",
"u  c #47F447F447F4",
"i  c #4A204A204A20",
"p  c #4AA74AA74AA7",
"a  c #4DBB4DBB4DBB",
"s  c #4EA14EA14EA1",
"d  c #4FE94FE94FE9",
"f  c #51BC51BC51BC",
"g  c #54E054E054E0",
"h  c #55D955D955D9",
"j  c #57D157D157D1",
"k  c #5A405A405A40",
"l  c #5B245B245B24",
"z  c #5E715E715E71",
"x  c #5FD45FD45FD4",
"c  c #60D160D160D1",
"v  c #618D618D618D",
"b  c #680B680B680B",
"n  c #6AC96AC96AC9",
"m  c #6CC16CC16CC1",
"M  c #6F0A6F0A6F0A",
"N  c #712F712F712F",
"B  c #71AA71AA71AA",
"V  c #72C372C372C3",
"C  c #73BE73BE73BE",
"Z  c #754675467546",
"A  c #7B347B347B34",
"S  c #7BA47BA47BA4",
"D  c #7CA57CA57CA5",
"F  c #7DB17DB17DB1",
"G  c #7FFF7FFF7FFF",
"H  c #E79DB2CA4924",
"J  c #E7C8B3534A68",
"K  c #E7FEB3FE4BFD",
"L  c #E868B54E4F19",
"P  c #E8C6B67651D6",
"I  c #E9F5BA375ABA",
"U  c #EE02C7097918",
"Y  c #89DD89DD89DD",
"T  c #8C758C758C75",
"R  c #8DFF8DFF8DFF",
"E  c #8F718F718F71",
"W  c #8FF88FF88FF8",
"Q  c #91D991D991D9",
"!  c #929592959295",
"~  c #94C794C794C7",
"^  c #989198919891",
"/  c #9E799E799E79",
"(  c #A240A240A240",
")  c #A977A977A977",
"_  c #ABD1ABD1ABD1",
"`  c #AE90AE90AE90",
"'  c #B09CB09CB09C",
"]  c #B1A1B1A1B1A1",
"[  c #B295B295B295",
"{  c #B323B323B323",
"}  c #B3F7B3F7B3F7",
"|  c #B581B581B581",
" . c #B9ACB9ACB9AC",
".. c #BA43BA43BA43",
"X. c #BB26BB26BB26",
"o. c #BD43BD43BD43",
"O. c #C09FC09FC09F",
"+. c #F045CE328A0C",
"@. c #F130D11C90F3",
"#. c #F466DB47A907",
"$. c #F4A1DC00AABF",
"%. c #F554DE38AFFF",
"&. c #F73BE43DBE42",
"*. c #C4A3C4A3C4A3",
"=. c #C66EC66EC66E",
"-. c #C776C776C776",
";. c #C88EC88EC88E",
":. c #C941C941C941",
">. c #CC2ACC2ACC2A",
",. c #CEA4CEA4CEA4",
"<. c #CF42CF42CF42",
"1. c #D152D152D152",
"2. c #D273D273D273",
"3. c #D334D334D334",
"4. c #D531D531D531",
"5. c #D675D675D675",
"6. c #D8ADD8ADD8AD",
"7. c #DA8FDA8FDA8F",
"8. c #DBDEDBDEDBDE",
"9. c #F8EFE9A3CB0A",
"0. c #E4D4E4D4E4D4",
"q. c #E551E551E551",
"w. c #ED72ED72ED72",
"e. c #F0C7F0C7F0C7",
"r. c #FC3CF415E3C7",
"t. c #FD71F7E9ECD9",
"y. c #F3B2F3B2F3B2",
"u. c #F690F690F690",
"i. c #F98AF98AF98A",
"p. c #FA61FA61FA61",
"a. c #FB7EFB7EFB7E",
"s. c #FC71FC71FC71",
"d. c #FF6AFE27FBA0",
"f. c #FD97FD97FD97",
"g. c #FE7BFE7BFE7B",
"h. c #FFB6FF19FDDF",
"j. c #FF73FF73FF73",
"k. c gray100",
/* pixels */
"H H H H H H H H H H H H H H H H H     H H H H H H H H H H H H H H H H H ",
"H H H H H H H H H H H H H H H H H     H H H H H H H H H H H H H H H H H ",
"H H H H H H H H H H H H H H                 H H H H H H H H H H H H H H ",
"H H H H H H H H H H H                             H H H H H H H H H H H ",
"H H H H H H H H H                                     H H H H H H H H H ",
"H H H H H H H H                         v v v v         H H H H H H H H ",
"H H H H H H H                         v v v v v v v       H H H H H H H ",
"H H H H H H                         v v v / / / / v v       H H H H H H ",
"H H H H H                           v v / / / / / / v v       K H H H H ",
"H H H H w C W Z w             5 C R ( _ / <.<.<.8.4.4.o.W W W W +.H H H ",
"H H I t.s.s.s.a.s.;.#       ~ s.a.s.s.s.=.<.<.<.w.s.s.s.s.s.s.s.9.K H H ",
"H K s.s.s.s.s.s.s.a.;.    b s.s.s.s.s.s.s.8.<.<.a.s.s.s.s.s.s.s.' H H H ",
"H U s.s.s.9 * h s.s.s.5 O s.s.s.n : o.s.s.s.2.<.s.s.s.' G 8 8 8 > H H H ",
"H #.s.s.i       o.s.a.g w s.s.s.    n s.s.s.4.2.s.s.y./ v         H H H ",
"H &.s.s.5       *.s.s.t v a.s.R       0.s.s.' 4.s.s.8.0.0.~ g       H H ",
"H K : :       n s.s.s.* G s.u.C       2.s.s.o. .s.s.s.s.s.s.s.0.:   H H ",
"H H       y u.s.s.s.x   W s.a.l       W s.s./ =.s.s.s.;.| s.s.s.<.  H H ",
"      1  .s.s.a.s.l     n s.u.Z       ' s.s.Y ~ 4.4.Z     * s.s.s.2     ",
"    8 s.a.a.s.W :       g s.s.R       2.s.s.8               _ s.s.g     ",
"H P s.s.s._ :           w s.s.s.    @ s.s.s.1 s.s.s.O       <.s.s.e H H ",
"H @.s.s.G 9 8 9 8 9 8 @   s.s.s.h @ G s.s.;.  ;.s.s.Y 1 1 n s.s.s.- H H ",
"H r.s.s.s.s.s.s.s.s.s.l   v s.s.s.s.s.s.s.r   t s.s.a.s.s.s.s.s.Z   H H ",
"H s.s.s.s.s.s.s.s.s.a.l     C s.s.s.s.s.i       g s.s.s.s.s.s.G   K H H ",
"H #.&.W W W W W W W R 9       3 h R i 1           # y G G a 1     H H H ",
"H H H                                                             H H H ",
"H H H H                                                         H H H H ",
"H H H H                                                         H H H H ",
"H H H H K                                                     K H H H H ",
"H H H H H H                                                 H H H H H H ",
"H H H H H H K                                             K H H H H H H ",
"H H H H H H H H                                         H H H H H H H H ",
"H H H H H H H H H                                     H H H H H H H H H ",
"H H H H H H H H H H H                             H H H H H H H H H H H ",
"H H H H H H H H H H H H H H                 H H H H H H H H H H H H H H ",
"H H H H H H H H H H H H H H H H H     H H H H H H H H H H H H H H H H H ",
"H H H H H H H H H H H H H H H H H     H H H H H H H H H H H H H H H H H "
};
