/* XPM */
static char *bmoku-0-LB-293[] = {
/* columns rows colors chars-per-pixel */
"36 36 137 2",
"   c #000100010001",
".  c #012401240124",
"X  c #022602260226",
"o  c #07A807A807A8",
"O  c #084108410841",
"+  c #0A440A440A44",
"@  c #0BC30BC30BC3",
"#  c #0CCD0CCD0CCD",
"$  c #0D8F0D8F0D8F",
"%  c #0F200F200F20",
"&  c #101D101D101D",
"*  c #118F118F118F",
"=  c #123012301230",
"-  c #134D134D134D",
";  c #144014401440",
":  c #169C169C169C",
">  c #19C219C219C2",
",  c #1CE71CE71CE7",
"<  c #1DC61DC61DC6",
"1  c #1FC81FC81FC8",
"2  c #25B525B525B5",
"3  c #266B266B266B",
"4  c #2A432A432A43",
"5  c #2DF02DF02DF0",
"6  c #2E882E882E88",
"7  c #2FA82FA82FA8",
"8  c #30A630A630A6",
"9  c #328E328E328E",
"0  c #34AF34AF34AF",
"q  c #3AE53AE53AE5",
"w  c #3CED3CED3CED",
"e  c #3DA73DA73DA7",
"r  c #3EFA3EFA3EFA",
"t  c #3F8B3F8B3F8B",
"y  c #412541254125",
"u  c #442D442D442D",
"i  c #45B245B245B2",
"p  c #47BF47BF47BF",
"a  c #4ABD4ABD4ABD",
"s  c #4E844E844E84",
"d  c #507C507C507C",
"f  c #51E351E351E3",
"g  c #52E352E352E3",
"h  c #55D955D955D9",
"j  c #57D157D157D1",
"k  c #58B858B858B8",
"l  c #5A405A405A40",
"z  c #5E4E5E4E5E4E",
"x  c #5E715E715E71",
"c  c #618561856185",
"v  c #646764676467",
"b  c #679167916791",
"n  c #68A168A168A1",
"m  c #6B066B066B06",
"M  c #70D470D470D4",
"N  c #734873487348",
"B  c #754675467546",
"V  c #75B675B675B6",
"C  c #78AA78AA78AA",
"Z  c #7AEF7AEF7AEF",
"A  c #7F117F117F11",
"S  c #7FFF7FFF7FFF",
"D  c #E79DB2CA4924",
"F  c #E7C8B3534A68",
"G  c #E7FEB3FE4BFD",
"H  c #E868B54E4F19",
"J  c #E8C6B67651D6",
"K  c #E9F5BA375ABA",
"L  c #EE02C7097918",
"P  c #847884788478",
"I  c #867E867E867E",
"U  c #86B486B486B4",
"Y  c #88AB88AB88AB",
"T  c #89A589A589A5",
"R  c #8A9C8A9C8A9C",
"E  c #8BB48BB48BB4",
"W  c #8F008F008F00",
"Q  c #8FF58FF58FF5",
"!  c #968296829682",
"~  c #97B897B897B8",
"^  c #9E799E799E79",
"/  c #A163A163A163",
"(  c #A28AA28AA28A",
")  c #A62EA62EA62E",
"_  c #A967A967A967",
"`  c #AA29AA29AA29",
"'  c #ACA5ACA5ACA5",
"]  c #ACBEACBEACBE",
"[  c #AEEEAEEEAEEE",
"{  c #AFD2AFD2AFD2",
"}  c #B1A1B1A1B1A1",
"|  c #B538B538B538",
" . c #B66BB66BB66B",
".. c #B76BB76BB76B",
"X. c #B878B878B878",
"o. c #B94DB94DB94D",
"O. c #B9DDB9DDB9DD",
"+. c #BD5CBD5CBD5C",
"@. c #BDC8BDC8BDC8",
"#. c #BEC4BEC4BEC4",
"$. c #C09FC09FC09F",
"%. c #F130D11C90F3",
"&. c #F466DB47A907",
"*. c #F4A1DC00AABF",
"=. c #F554DE38AFFF",
"-. c #F73BE43DBE42",
";. c #C619C619C619",
":. c #C776C776C776",
">. c #C959C959C959",
",. c #CD8DCD8DCD8D",
"<. c #CF36CF36CF36",
"1. c #D023D023D023",
"2. c #D3ACD3ACD3AC",
"3. c #D4DFD4DFD4DF",
"4. c #D93BD93BD93B",
"5. c #DB59DB59DB59",
"6. c #DD6ADD6ADD6A",
"7. c #E335E335E335",
"8. c #E5C7E5C7E5C7",
"9. c #E874E874E874",
"0. c #E8F2E8F2E8F2",
"q. c #ED09ED09ED09",
"w. c #FC3CF415E3C7",
"e. c #FD71F7E9ECD9",
"r. c #F3B2F3B2F3B2",
"t. c #F7A8F7A8F7A8",
"y. c #F88CF88CF88C",
"u. c #F98EF98EF98E",
"i. c #FA4EFA4EFA4E",
"p. c #FB69FB69FB69",
"a. c #FC5AFC5AFC5A",
"s. c #FF6AFE27FBA0",
"d. c #FD98FD98FD98",
"f. c #FE9EFE9EFE9E",
"g. c #FFB6FF19FDDF",
"h. c #FF73FF73FF73",
"j. c gray100",
/* pixels */
"D D D D D D D D D D D D D D D D D     D D D D D D D D D D D D D D D D D ",
"D D D D D D D D D D D D D D D D D     D D D D D D D D D D D D D D D D D ",
"D D D D D D D D D D D D D D                 D D D D D D D D D D D D D D ",
"D D D D D D D D D D D                             D D D D D D D D D D D ",
"D D D D D D D D D                                     D D D D D D D D D ",
"D D D D D D D D                         c c c c         D D D D D D D D ",
"D D D D D D D                         c c c c c c c       D D D D D D D ",
"D D D D D D                         c c c ^ ^ ^ ^ c c       D D D D D D ",
"D D D D F                           c c ^ ^ ^ ^ ^ ^ c c       D D D D D ",
"D D D D 9 N Q V 9             5 z W ( ] ^ <.<.<.<.( X.] Z a @   D D D D ",
"D D K e.a.a.a.p.a.>.$     = X.a.a.a.a.a.<.<.<.<.4.a.a.a.a.a.a.a D D D D ",
"D G a.a.a.a.a.a.a.p.:.    X.p.a.a.a.a.a.a.5.1.1.a.a.a.a.a.p.a.a.= D D D ",
"D L a.a.a.5 = h a.a.a.2 9 a.a.a.i = ( a.a.a.1.5.a.a.a.) V q.a.a.g D D D ",
"D &.a.a.a       +.a.p.g b a.p.R     b 7.a.a.4.7.a.a.>.^ c n p.a.R D D D ",
"D -.a.a.2       ;.a.a.t S a.p.n       :.a.a.X.0.a.a.;.^ c U a.p.n   D D ",
"D G : :       m a.a.a.= i a.a.1.    $ a.a.a.+.^ ^ ( ] 0.a.a.a.a.=   D D ",
"D D       y t.a.a.a.z   $ a.a.a.4.( a.a.a.a.~ ( ^ ^ U a.a.a.a.1.>   D D ",
"      > X.a.a.p.a.j       t a.p.a.a.a.a.a.a.Q c c c N W ) a.a.a.a.@     ",
"    4 a.a.p.a.Q :           = n X.>.Z 3.a.a.4 s ~ ~ 5       1.a.a.t     ",
"D J a.a.a.} >           9 a.a.}     $ a.a.a.@ U a.p.N       } a.a.s D D ",
"D %.a.a.S 5 4 5 4 5 4 @ @ a.a.a.0 < ] a.a.X.  g a.a.a.4 : i a.a.a.2 D D ",
"D w.a.a.a.a.a.a.a.a.a.j   ( a.a.a.a.a.a.a.<   @ a.a.a.a.a.a.a.a.+.  D D ",
"F a.a.a.a.a.a.a.a.a.p.j   @ 1.a.a.a.a.a.t       9 a.a.a.a.a.a.;.% D D D ",
"D &.-.Q Q Q Q Q Q Q Q 9       t N S s @           @ t V R j 5     D D D ",
"D D D                                                             D D D ",
"D D D D                                                         D D D D ",
"D D D D                                                         D D D D ",
"D D D D F                                                     D D D D D ",
"D D D D F D                                                 D D D D D D ",
"D D D D D D F                                             D D D D D D D ",
"D D D D D D D D                                         D D D D D D D D ",
"D D D D D D D D D                                     D D D D D D D D D ",
"D D D D D D D D D D D                             D D D D D D D D D D D ",
"D D D D D D D D D D D D D D                 D D D D D D D D D D D D D D ",
"D D D D D D D D D D D D D D D D D     D D D D D D D D D D D D D D D D D ",
"D D D D D D D D D D D D D D D D D     D D D D D D D D D D D D D D D D D "
};
