/* XPM */
static char *bmoku-0-LB-250[] = {
/* columns rows colors chars-per-pixel */
"36 36 136 2",
"   c black",
".  c #013C013C013C",
"X  c #022602260226",
"o  c #04C104C104C1",
"O  c #084B084B084B",
"+  c #0AED0AED0AED",
"@  c #0CBA0CBA0CBA",
"#  c #0F200F200F20",
"$  c #104810481048",
"%  c #117C117C117C",
"&  c #122312231223",
"*  c #137713771377",
"=  c #144014401440",
"-  c #167116711671",
";  c #185D185D185D",
":  c #196B196B196B",
">  c #1B921B921B92",
",  c #1CDA1CDA1CDA",
"<  c #1EB81EB81EB8",
"1  c #1F801F801F80",
"2  c #25B525B525B5",
"3  c #269526952695",
"4  c #28E028E028E0",
"5  c #2A3F2A3F2A3F",
"6  c #2E3C2E3C2E3C",
"7  c #322432243224",
"8  c #328E328E328E",
"9  c #34C934C934C9",
"0  c #36C236C236C2",
"q  c #3B733B733B73",
"w  c #3C763C763C76",
"e  c #3DA73DA73DA7",
"r  c #411541154115",
"t  c #425242524252",
"y  c #471A471A471A",
"u  c #47F447F447F4",
"i  c #4A204A204A20",
"p  c #4AF64AF64AF6",
"a  c #4DBB4DBB4DBB",
"s  c #4EA14EA14EA1",
"d  c #4FE64FE64FE6",
"f  c #51BC51BC51BC",
"g  c #52CD52CD52CD",
"h  c #54E054E054E0",
"j  c #55D955D955D9",
"k  c #57D157D157D1",
"l  c #58EC58EC58EC",
"z  c #5A405A405A40",
"x  c #5E715E715E71",
"c  c #60D160D160D1",
"v  c #618B618B618B",
"b  c #642F642F642F",
"n  c #688F688F688F",
"m  c #69C169C169C1",
"M  c #6AC96AC96AC9",
"N  c #6F066F066F06",
"B  c #712F712F712F",
"V  c #73BE73BE73BE",
"C  c #754675467546",
"Z  c #75A375A375A3",
"A  c #7B347B347B34",
"S  c #7BA47BA47BA4",
"D  c #7CA57CA57CA5",
"F  c #7DD97DD97DD9",
"G  c #7FFF7FFF7FFF",
"H  c #E79DB2CA4924",
"J  c #E7C8B3534A68",
"K  c #E7FEB3FE4BFD",
"L  c #E868B54E4F19",
"P  c #E8C6B67651D6",
"I  c #E999B9125804",
"U  c #E9F5BA375ABA",
"Y  c #EE02C7097918",
"T  c #89EB89EB89EB",
"R  c #8C758C758C75",
"E  c #8DD58DD58DD5",
"W  c #8F718F718F71",
"Q  c #8FF88FF88FF8",
"!  c #920992099209",
"~  c #92C992C992C9",
"^  c #943294329432",
"/  c #98C998C998C9",
"(  c #99F199F199F1",
")  c #9E7B9E7B9E7B",
"_  c #9ED89ED89ED8",
"`  c #A4D9A4D9A4D9",
"'  c #A64EA64EA64E",
"]  c #A7E3A7E3A7E3",
"[  c #AC12AC12AC12",
"{  c #AE90AE90AE90",
"}  c #B070B070B070",
"|  c #B1A1B1A1B1A1",
" . c #B323B323B323",
".. c #B9ACB9ACB9AC",
"X. c #BA4EBA4EBA4E",
"o. c #BCE6BCE6BCE6",
"O. c #C09FC09FC09F",
"+. c #F130D11C90F3",
"@. c #F466DB47A907",
"#. c #F4A1DC00AABF",
"$. c #F554DE38AFFF",
"%. c #F73BE43DBE42",
"&. c #C611C611C611",
"*. c #C776C776C776",
"=. c #C941C941C941",
"-. c #CA2CCA2CCA2C",
";. c #CC30CC30CC30",
":. c #CE4CCE4CCE4C",
">. c #CF3ECF3ECF3E",
",. c #D036D036D036",
"<. c #D273D273D273",
"1. c #D3D1D3D1D3D1",
"2. c #D4BCD4BCD4BC",
"3. c #D53BD53BD53B",
"4. c #D84FD84FD84F",
"5. c #DE76DE76DE76",
"6. c #E036E036E036",
"7. c #E17DE17DE17D",
"8. c #E1F3E1F3E1F3",
"9. c #E6D2E6D2E6D2",
"0. c #EAFBEAFBEAFB",
"q. c #EF2DEF2DEF2D",
"w. c #FC3CF415E3C7",
"e. c #FD71F7E9ECD9",
"r. c #F1B1F1B1F1B1",
"t. c #F3B2F3B2F3B2",
"y. c #F97DF97DF97D",
"u. c #FA49FA49FA49",
"i. c #FB62FB62FB62",
"p. c #FC74FC74FC74",
"a. c #FF6AFE27FBA0",
"s. c #FDA2FDA2FDA2",
"d. c #FEBAFEBAFEBA",
"f. c #FFB6FF19FDDF",
"g. c #FF61FF61FF61",
"h. c gray100",
/* pixels */
"H H H H H H H H H H H H H H H H H     H H H H H H H H H H H H H H H H H ",
"H H H H H H H H H H H H H H H H H     H H H H H H H H H H H H H H H H H ",
"H H H H H H H H H H H H H H                 H H H H H H H H H H H H H H ",
"H H H H H H H H H H H                             H H H H H H H H H H H ",
"H H H H H H H H K                                     H H H H H H H H H ",
"H H H H H H H H                         v v v v         H H H H H H H H ",
"H H H H H H H                         v v v v v v v       H H H H H H H ",
"H H H H H H                         v v v _ _ _ _ v v       H H H H H H ",
"H H H H H                           v v _ _ _ _ _ _ v v       H H H H H ",
"H H H H 8 V Q Z 8         t Q Q Q Q o.4.4.8.:.:.:._ [ [ E n ,   H H H H ",
"H H U e.p.p.p.i.p.*.@     _ p.p.p.p.p.p.p.r.:.<.:.q.p.p.p.p.p.n H H H H ",
"H K p.p.p.p.p.p.p.i.*.    8.p.p.p.p.p.p.p.r.:.:.8.p.p.p.p.p.p.p.q H H H ",
"H Y p.p.p.6 & j p.p.p.4   p.p.p.6 4 F [ [ 4.:.<.p.p.p.*.V ^ p.p.9.K K H ",
"H @.p.p.i       o.p.i.g @ p.p.4.    v v _ :.:.4.p.p.p._ v + p.p.p.U H H ",
"H %.p.p.2       &.p.p.e 2 p.p.( X.4.^ ^ _ _ _ 8.p.p.4._ v   4.p.p.0 H H ",
"H L - -       M p.p.p.& q p.p.p.p.p.p.p.q.' _ <.p.p.*.v v    .p.p.p H H ",
"H K       t t.p.p.p.v   v i.p.p.[  .p.p.p.8.b 4.p.p.( v     Q p.i.l K H ",
"      ; X.p.p.i.p.l     g o.o.,     & p.p.p.Z ' p.i.[        .p.p.t     ",
"    4 p.p.i.p.Q -                     [ p.p.a a p.p.E       4.p.p.5     ",
"H P p.p.p. .-           p.p.p.o       :.p.p.q 8 p.p.p.    + p.p.p.- H H ",
"H +.p.p.T 4 4 6 4 6 4 + :.p.p.R ; ; M p.p.p.-   p.p.p.j @ F p.p.*.  H H ",
"H w.p.p.p.p.p.p.p.p.p.l e p.p.p.p.p.p.p.p.Z     b p.p.p.p.p.p.p.0   H H ",
"H p.p.p.p.p.p.p.p.p.i.l   g p.p.p.p.p.p.F         V p.p.p.p.p.a   H H H ",
"H @.%.Q Q Q Q Q Q Q E 8     @ y F F a ,             2 g Q i ;     H H H ",
"H H H                                                             H H H ",
"H H H H                                                         H H H H ",
"H H H H                                                         H H H H ",
"H H H H K                                                     H H H H H ",
"H H H H H H                                                 H H H H H H ",
"H H H H H H K                                             H H H H H H H ",
"H H H H H H H H                                         H H H H H H H H ",
"H H H H H H H H H                                     H H H H H H H H H ",
"H H H H H H H H H H H                             H H H H H H H H H H H ",
"H H H H H H H H H H H H H H                 H H H H H H H H H H H H H H ",
"H H H H H H H H H H H H H H H H H     H H H H H H H H H H H H H H H H H ",
"H H H H H H H H H H H H H H H H H     H H H H H H H H H H H H H H H H H "
};
