/* XPM */
static char *bmoku-0-LB-53[] = {
/* columns rows colors chars-per-pixel */
"36 36 102 2",
"   c black",
".  c #016001600160",
"X  c #021102110211",
"o  c #07E407E407E4",
"O  c #098F098F098F",
"+  c #0A5E0A5E0A5E",
"@  c #0D270D270D27",
"#  c #0FD40FD40FD4",
"$  c #166516651665",
"%  c #192019201920",
"&  c #1B901B901B90",
"*  c #1CC31CC31CC3",
"=  c #1E421E421E42",
"-  c #223E223E223E",
";  c #269526952695",
":  c #286028602860",
">  c #2A512A512A51",
",  c #2ED22ED22ED2",
"<  c #313631363136",
"1  c #360A360A360A",
"2  c #37C137C137C1",
"3  c #3CD23CD23CD2",
"4  c #425942594259",
"5  c #449D449D449D",
"6  c #4BD94BD94BD9",
"7  c #513451345134",
"8  c #596C596C596C",
"9  c #5BA85BA85BA8",
"0  c #5D0F5D0F5D0F",
"q  c #618A618A618A",
"w  c #629762976297",
"e  c #66BA66BA66BA",
"r  c #685B685B685B",
"t  c #6BF36BF36BF3",
"y  c #6F676F676F67",
"u  c #702570257025",
"i  c #717471747174",
"p  c #738673867386",
"a  c #77B677B677B6",
"s  c #7A277A277A27",
"d  c #E79DB2CA4924",
"f  c #85B685B685B6",
"g  c #872F872F872F",
"h  c #8B788B788B78",
"j  c #8C968C968C96",
"k  c #8F288F288F28",
"l  c #8FFF8FFF8FFF",
"z  c #927992799279",
"x  c #937593759375",
"c  c #973197319731",
"v  c #97B897B897B8",
"b  c #994799479947",
"n  c #9A979A979A97",
"m  c #9E759E759E75",
"M  c #9F0A9F0A9F0A",
"N  c #A024A024A024",
"B  c #A432A432A432",
"V  c #A98EA98EA98E",
"C  c #AF8DAF8DAF8D",
"Z  c #AFD6AFD6AFD6",
"A  c #B0B4B0B4B0B4",
"S  c #B58AB58AB58A",
"D  c #B761B761B761",
"F  c #B8B3B8B3B8B3",
"G  c #BA96BA96BA96",
"H  c #BC34BC34BC34",
"J  c #C599C599C599",
"K  c #CB6ECB6ECB6E",
"L  c #CC61CC61CC61",
"P  c #CF3CCF3CCF3C",
"I  c #D062D062D062",
"U  c #D1E4D1E4D1E4",
"Y  c #D358D358D358",
"T  c #D81CD81CD81C",
"R  c #D8FCD8FCD8FC",
"E  c #DAD9DAD9DAD9",
"W  c #DBB4DBB4DBB4",
"Q  c #DD11DD11DD11",
"!  c #DDF2DDF2DDF2",
"~  c #E05BE05BE05B",
"^  c #E174E174E174",
"/  c #E350E350E350",
"(  c #E432E432E432",
")  c #E500E500E500",
"_  c #E843E843E843",
"`  c #EA97EA97EA97",
"'  c #EBABEBABEBAB",
"]  c #EE09EE09EE09",
"[  c #F032F032F032",
"{  c #F242F242F242",
"}  c #F306F306F306",
"|  c #F591F591F591",
" . c #F666F666F666",
".. c #F83CF83CF83C",
"X. c #F96AF96AF96A",
"o. c #FA22FA22FA22",
"O. c #FB91FB91FB91",
"+. c #FC65FC65FC65",
"@. c #FDABFDABFDAB",
"#. c #FE97FE97FE97",
"$. c #FF9AFF9AFF9A",
"%. c gray100",
/* pixels */
"d d d d d d d d d d d d d d d d d     d d d d d d d d d d d d d d d d d ",
"d d d d d d d d d d d d d d d d d     d d d d d d d d d d d d d d d d d ",
"d d d d d d d d d d d d d d                 d d d d d d d d d d d d d d ",
"d d d d d d d d d d d                             d d d d d d d d d d d ",
"d d d d d d d d d                                     d d d d d d d d d ",
"d d d d d d d d                         w w w w         d d d d d d d d ",
"d d d d d d d                         w w 0 w w w w       d d d d d d d ",
"d d d d d d                         w w w m m m m w w       d d d d d d ",
"d d d d d                           w w m m m B m m w w       d d d d d ",
"d d d d         l l l l l l l l +   w m C ~ ` ^ T m m w         d d d d ",
"d d d d       * @.@.@.@.@.@.@.@.%   w ^ @.@.@.@.@.[ B m w       d d d d ",
"d d d         7 @.[ @.@.@.@.@.@.*   Z @.@.@.@.@.@.@.K m w         d d d ",
"d d d         g @.| 6 > > > > >     @.@.@.^ Y ^ @.O.@.m w         d d d ",
"d d d         F @.@.>               @.[ @.P Y P @.@.@.B 0         d d d ",
"d d           ^ @.@.n Y Z i %       @.@.@.B m T @.| @.B w           d d ",
"d d           @.O.@.@.@.@.[ @.p       w w ^ | @.@.@.P w w           d d ",
"d d           @.O.@.T n ^ @.| @.2       w @.@.@.@.@.m w             d d ",
"              H F i       m @.P F         a H ~ @.@.@.0                 ",
"                          = @.~ @.  n v j       6 @.Y |                 ",
"d d         a @.@.9       4 @.T `   @.[ @.+     ; @.~ @.            d d ",
"d d         4 @.T @.2 $ > [ @.~ l   @.@.@.t $ * J @.K S             d d ",
"d d           ` @.[ @.@.@.@.) @.$   v @.| @.@.@.@.[ @.<             d d ",
"d d d         @ T @.@.@.O.@.^ <       V @.@.@.O.@.@.9             d d d ",
"d d d             ; y h w 2             = t g y 5 +               d d d ",
"d d d                                                             d d d ",
"d d d d                                                         d d d d ",
"d d d d                                                         d d d d ",
"d d d d d                                                     d d d d d ",
"d d d d d d                                                 d d d d d d ",
"d d d d d d d                                             d d d d d d d ",
"d d d d d d d d                                         d d d d d d d d ",
"d d d d d d d d d                                     d d d d d d d d d ",
"d d d d d d d d d d d                             d d d d d d d d d d d ",
"d d d d d d d d d d d d d d                 d d d d d d d d d d d d d d ",
"d d d d d d d d d d d d d d d d d     d d d d d d d d d d d d d d d d d ",
"d d d d d d d d d d d d d d d d d     d d d d d d d d d d d d d d d d d "
};
