/* XPM */
static char *bmoku-0-LB-S[] = {
/* columns rows colors chars-per-pixel */
"36 36 79 1",
"  c black",
". c #016B016B016B",
"X c #069C069C069C",
"o c #0C210C210C21",
"O c #0ED60ED60ED6",
"+ c #119211921192",
"@ c #144714471447",
"# c #151715171517",
"$ c #164D164D164D",
"% c #173517351735",
"& c #187B187B187B",
"* c #1B711B711B71",
"= c #1D121D121D12",
"- c #221022102210",
"; c #237C237C237C",
": c #26D426D426D4",
"> c #28F228F228F2",
", c #305C305C305C",
"< c #321B321B321B",
"1 c #348F348F348F",
"2 c #429A429A429A",
"3 c #448544854485",
"4 c #456145614561",
"5 c #4A134A134A13",
"6 c #4DB44DB44DB4",
"7 c #4EBC4EBC4EBC",
"8 c #5C965C965C96",
"9 c #5F4F5F4F5F4F",
"0 c #618561856185",
"q c #633A633A633A",
"w c #68FB68FB68FB",
"e c #69EB69EB69EB",
"r c #6C326C326C32",
"t c #6C9F6C9F6C9F",
"y c #6F886F886F88",
"u c #729072907290",
"i c #739073907390",
"p c #770377037703",
"a c #77F377F377F3",
"s c #7C127C127C12",
"d c #E79DB2CA4924",
"f c #87AA87AA87AA",
"g c #895189518951",
"h c #89A189A189A1",
"j c #8BF58BF58BF5",
"k c #8D4D8D4D8D4D",
"l c #8DC98DC98DC9",
"z c #8F4A8F4A8F4A",
"x c #8FE78FE78FE7",
"c c #92B492B492B4",
"v c #9E7A9E7A9E7A",
"b c #9F079F079F07",
"n c #A29DA29DA29D",
"m c #A4DCA4DCA4DC",
"M c #A5A6A5A6A5A6",
"N c #B1D4B1D4B1D4",
"B c #BD93BD93BD93",
"V c #C07DC07DC07D",
"C c #C312C312C312",
"Z c #C825C825C825",
"A c #CCFBCCFBCCFB",
"S c #CF3DCF3DCF3D",
"D c #D2A9D2A9D2A9",
"F c #D4D3D4D3D4D3",
"G c #DA0EDA0EDA0E",
"H c #DC3CDC3CDC3C",
"J c #E5CFE5CFE5CF",
"K c #E62BE62BE62B",
"L c #ECDDECDDECDD",
"P c #EFA0EFA0EFA0",
"I c #F831F831F831",
"U c #F98EF98EF98E",
"Y c #FA40FA40FA40",
"T c #FB6DFB6DFB6D",
"R c #FCADFCADFCAD",
"E c #FDD3FDD3FDD3",
"W c #FED2FED2FED2",
"Q c #FF94FF94FF94",
"! c gray100",
/* pixels */
"ddddddddddddddddd  ddddddddddddddddd",
"ddddddddddddddddd  ddddddddddddddddd",
"dddddddddddddd        dddddddddddddd",
"ddddddddddd              ddddddddddd",
"ddddddddd                  ddddddddd",
"dddddddd            0000    dddddddd",
"ddddddd            0000000   ddddddd",
"dddddd            000vvvv00   dddddd",
"ddddd         O4wzvhnvvvvv00   ddddd",
"dddd         hQQTQQQQJSSSvv0    dddd",
"dddd        zQQTQQQQQQJSSSvv0   dddd",
"ddd        %QQQr*+aFQQQDSSvv0    ddd",
"ddd        4QQN   0vLQQGSSSv0    ddd",
"ddd        2QQQ:  00ZTTGSSvv0    ddd",
"dd         %QQTQQv5yvvvSSvvv0     dd",
"dd          7QQQQQQQTCvvvvv00     dd",
"dd           +0DQQTQQQAvvv00      dd",
"           *11O X>yLQQQf000         ",
"           hQQ8     cTQp            ",
"dd         rTQC     pTTp          dd",
"dd         -QQQm<*-8QQQ<          dd",
"dd          zQQTQQQTQTB           dd",
"ddd          uQQQQTQQmX          ddd",
"ddd           O2uza7%            ddd",
"ddd                              ddd",
"dddd                            dddd",
"dddd                            dddd",
"ddddd                          ddddd",
"dddddd                        dddddd",
"ddddddd                      ddddddd",
"dddddddd                    dddddddd",
"ddddddddd                  ddddddddd",
"ddddddddddd              ddddddddddd",
"dddddddddddddd        dddddddddddddd",
"ddddddddddddddddd  ddddddddddddddddd",
"ddddddddddddddddd  ddddddddddddddddd"
};
