/* XPM */
static char *bmoku-0-LB-255[] = {
/* columns rows colors chars-per-pixel */
"36 36 122 2",
"   c black",
".  c #012E012E012E",
"X  c #022602260226",
"o  c #04C104C104C1",
"O  c #086508650865",
"+  c #0AF30AF30AF3",
"@  c #0CBE0CBE0CBE",
"#  c #0F200F200F20",
"$  c #104810481048",
"%  c #117C117C117C",
"&  c #122312231223",
"*  c #137713771377",
"=  c #143E143E143E",
"-  c #169C169C169C",
";  c #181118111811",
":  c #185D185D185D",
">  c #193B193B193B",
",  c #1B721B721B72",
"<  c #1EB81EB81EB8",
"1  c #208020802080",
"2  c #25B525B525B5",
"3  c #269526952695",
"4  c #2A3F2A3F2A3F",
"5  c #2E3C2E3C2E3C",
"6  c #328E328E328E",
"7  c #36BF36BF36BF",
"8  c #3B723B723B72",
"9  c #3C763C763C76",
"0  c #3DA73DA73DA7",
"q  c #425242524252",
"w  c #471A471A471A",
"e  c #47D847D847D8",
"r  c #4AA74AA74AA7",
"t  c #4EA14EA14EA1",
"y  c #4FE84FE84FE8",
"u  c #51E351E351E3",
"i  c #52CD52CD52CD",
"p  c #55D955D955D9",
"a  c #57D157D157D1",
"s  c #5A405A405A40",
"d  c #5E715E715E71",
"f  c #618C618C618C",
"g  c #642F642F642F",
"h  c #6AB06AB06AB0",
"j  c #712F712F712F",
"k  c #72D172D172D1",
"l  c #73BE73BE73BE",
"z  c #754675467546",
"x  c #75A375A375A3",
"c  c #7B347B347B34",
"v  c #7BAB7BAB7BAB",
"b  c #7CA57CA57CA5",
"n  c #7DD97DD97DD9",
"m  c #7FFF7FFF7FFF",
"M  c #E79DB2CA4924",
"N  c #E7C8B3534A68",
"B  c #E7FEB3FE4BFD",
"V  c #E868B54E4F19",
"C  c #E8C6B67651D6",
"Z  c #E9F5BA375ABA",
"A  c #EE02C7097918",
"S  c #89EB89EB89EB",
"D  c #8F718F718F71",
"F  c #8FF98FF98FF9",
"G  c #920992099209",
"H  c #92FE92FE92FE",
"J  c #94C794C794C7",
"K  c #98C998C998C9",
"L  c #9E7B9E7B9E7B",
"P  c #9EE29EE29EE2",
"I  c #A64FA64FA64F",
"U  c #ABD1ABD1ABD1",
"Y  c #AE90AE90AE90",
"T  c #B1A1B1A1B1A1",
"R  c #B323B323B323",
"E  c #B3F7B3F7B3F7",
"W  c #B581B581B581",
"Q  c #B9ACB9ACB9AC",
"!  c #BA60BA60BA60",
"~  c #BCE6BCE6BCE6",
"^  c #C09FC09FC09F",
"/  c #F045CE328A0C",
"(  c #F130D11C90F3",
")  c #F466DB47A907",
"_  c #F4A1DC00AABF",
"`  c #F554DE38AFFF",
"'  c #F73BE43DBE42",
"]  c #C4A3C4A3C4A3",
"[  c #C776C776C776",
"{  c #C88EC88EC88E",
"}  c #C941C941C941",
"|  c #CC2CCC2CCC2C",
" . c #CF42CF42CF42",
".. c #D152D152D152",
"X. c #D3D1D3D1D3D1",
"o. c #D4C6D4C6D4C6",
"O. c #D53DD53DD53D",
"+. c #D675D675D675",
"@. c #D85CD85CD85C",
"#. c #DBDEDBDEDBDE",
"$. c #DE76DE76DE76",
"%. c #E036E036E036",
"&. c #F8EFE9A3CB0A",
"*. c #E4D4E4D4E4D4",
"=. c #E54EE54EE54E",
"-. c #ED72ED72ED72",
";. c #EF2DEF2DEF2D",
":. c #F0C7F0C7F0C7",
">. c #FC3CF415E3C7",
",. c #FD71F7E9ECD9",
"<. c #F1B1F1B1F1B1",
"1. c #F3B2F3B2F3B2",
"2. c #F984F984F984",
"3. c #FA64FA64FA64",
"4. c #FB62FB62FB62",
"5. c #FC8AFC8AFC8A",
"6. c #FF6AFE27FBA0",
"7. c #FDB1FDB1FDB1",
"8. c #FEB9FEB9FEB9",
"9. c #FFB6FF19FDDF",
"0. c #FF66FF66FF66",
"q. c gray100",
/* pixels */
"M M M M M M M M M M M M M M M M M     M M M M M M M M M M M M M M M M M ",
"M M M M M M M M M M M M M M M M M     M M M M M M M M M M M M M M M M M ",
"M M M M M M M M M M M M M M                 M M M M M M M M M M M M M M ",
"M M M M M M M M M M M                             M M M M M M M M M M M ",
"M M M M M M M M M                                     M M M M M M M M M ",
"M M M M M M M M                         f f f f         M M M M M M M M ",
"M M M M M M M                         f f f f f f f       M M M M M M M ",
"M M M M M M                         f f f P P P P f f       M M M M M M ",
"M M M M M                           f f P P P P P P g f       M M M M M ",
"M M M M 6 k G z 6         q F G F G ~ @.X.$. . .@.o.o.~ G G F F / M M M ",
"M M Z ,.5.5.5.4.5.{ @     P 5.5.5.5.5.5.5.<. . .;.5.5.5.5.5.5.5.&.M M M ",
"M B 5.5.5.5.5.5.5.4.[     *.5.5.5.5.5.5.5.<. . .4.5.5.5.5.5.5.5.R M M M ",
"M A 5.5.5.5 & p 5.5.5.4   5.5.5.5 4 m Y Y X. . .5.5.5.Y m 4 4 4 ; M M M ",
"M ) 5.5.r       ~ 5.4.i @ 5.5.@.    f f P  . .X.5.5.<.I f         M M M ",
"M ' 5.5.2       ] 5.5.0 1 5.5.L ~ o.G G P P P o.5.5.@.=.=.J i       M M ",
"M V - -       h 5.5.5.& 0 5.5.5.5.5.5.5.<.I P Q 5.5.5.5.5.5.5.=.-   M M ",
"M M       q 1.5.5.5.f   g 4.5.5.U R 5.5.5.*.f [ 5.5.5.{ W 5.5.5. .  M M ",
"      : Q 5.5.4.5.s     i ~ ~ ,     & 5.5.5.z J o.o.z     & 5.5.5.1     ",
"    4 5.5.4.5.G -                     Y 5.5.y               Y 5.5.i     ",
"M C 5.5.5.R -           5.5.5.o        .5.5.7 5.5.5.o        .5.5.7 M M ",
"M ( 5.5.m 5 4 5 4 5 4 O  .5.5.S : : h 5.5.5.&  .5.5.F : : h 5.5.5.= M M ",
"M >.5.5.5.5.5.5.5.5.5.s 0 5.5.5.5.5.5.5.5.z   0 5.5.4.5.5.5.5.5.z   M M ",
"B 5.5.5.5.5.5.5.5.5.4.s   i 5.5.5.5.5.5.m       i 5.5.5.5.5.5.m   B M M ",
"B ` ` G G G G G G F G 5     @ e m m r ,           @ w c m y ,     M M M ",
"M M M                                                             M M M ",
"M M M M                                                         M M M M ",
"M M M M                                                         M M M M ",
"M M M M M                                                     B M M M M ",
"M M M M M M                                                 B M M M M M ",
"M M M M M M M                                             B M M M M M M ",
"M M M M M M M M                                         M M M M M M M M ",
"M M M M M M M M M                                     M M M M M M M M M ",
"M M M M M M M M M M M                             M M M M M M M M M M M ",
"M M M M M M M M M M M M M M                 M M M M M M M M M M M M M M ",
"M M M M M M M M M M M M M M M M M     M M M M M M M M M M M M M M M M M ",
"M M M M M M M M M M M M M M M M M     M M M M M M M M M M M M M M M M M "
};
