/* XPM */
static char *bmoku-0-LB-23[] = {
/* columns rows colors chars-per-pixel */
"36 36 105 2",
"   c #000100010001",
".  c #015A015A015A",
"X  c #07E407E407E4",
"o  c #08FA08FA08FA",
"O  c #098F098F098F",
"+  c #0BB80BB80BB8",
"@  c #0E6A0E6A0E6A",
"#  c #0F580F580F58",
"$  c #104D104D104D",
"%  c #114F114F114F",
"&  c #121312131213",
"*  c #144014401440",
"=  c #167116711671",
"-  c #1B101B101B10",
";  c #1CB01CB01CB0",
":  c #1E9C1E9C1E9C",
">  c #244E244E244E",
",  c #263126312631",
"<  c #275127512751",
"1  c #2A402A402A40",
"2  c #2DCA2DCA2DCA",
"3  c #310231023102",
"4  c #313631363136",
"5  c #402340234023",
"6  c #42E942E942E9",
"7  c #449D449D449D",
"8  c #4B684B684B68",
"9  c #4F3A4F3A4F3A",
"0  c #4F8D4F8D4F8D",
"q  c #51BB51BB51BB",
"w  c #574057405740",
"e  c #59FF59FF59FF",
"r  c #5BA85BA85BA8",
"t  c #5D0F5D0F5D0F",
"y  c #618A618A618A",
"u  c #634663466346",
"i  c #66BA66BA66BA",
"p  c #685B685B685B",
"a  c #6F676F676F67",
"s  c #713571357135",
"d  c #71F371F371F3",
"f  c #77F177F177F1",
"g  c #E79DB2CA4924",
"h  c #810181018101",
"j  c #830183018301",
"k  c #856585658565",
"l  c #85B685B685B6",
"z  c #86FD86FD86FD",
"x  c #8B228B228B22",
"c  c #8C968C968C96",
"v  c #8FFF8FFF8FFF",
"b  c #937593759375",
"n  c #97B897B897B8",
"m  c #9A979A979A97",
"M  c #9E6D9E6D9E6D",
"N  c #9F399F399F39",
"B  c #A024A024A024",
"V  c #A432A432A432",
"C  c #A98EA98EA98E",
"Z  c #AFD6AFD6AFD6",
"A  c #B0B4B0B4B0B4",
"S  c #B466B466B466",
"D  c #B58AB58AB58A",
"F  c #B9F1B9F1B9F1",
"G  c #BC91BC91BC91",
"H  c #BD30BD30BD30",
"J  c #C599C599C599",
"K  c #C61BC61BC61B",
"L  c #C99DC99DC99D",
"P  c #CB6ECB6ECB6E",
"I  c #CC55CC55CC55",
"U  c #CF3CCF3CCF3C",
"Y  c #D046D046D046",
"T  c #D1E4D1E4D1E4",
"R  c #D358D358D358",
"E  c #D43DD43DD43D",
"W  c #D8D9D8D9D8D9",
"Q  c #DAE3DAE3DAE3",
"!  c #DD19DD19DD19",
"~  c #DDF2DDF2DDF2",
"^  c #DF4FDF4FDF4F",
"/  c #E05BE05BE05B",
"(  c #E19EE19EE19E",
")  c #E350E350E350",
"_  c #E432E432E432",
"`  c #EA97EA97EA97",
"'  c #EB52EB52EB52",
"]  c #EC32EC32EC32",
"[  c #ED60ED60ED60",
"{  c #EEA9EEA9EEA9",
"}  c #F076F076F076",
"|  c #F24DF24DF24D",
" . c #F30CF30CF30C",
".. c #F591F591F591",
"X. c #F666F666F666",
"o. c #F76FF76FF76F",
"O. c #F897F897F897",
"+. c #F954F954F954",
"@. c #FA22FA22FA22",
"#. c #FB91FB91FB91",
"$. c #FC5CFC5CFC5C",
"%. c #FDB3FDB3FDB3",
"&. c #FE6BFE6BFE6B",
"*. c #FF9EFF9EFF9E",
"=. c gray100",
/* pixels */
"g g g g g g g g g g g g g g g g g     g g g g g g g g g g g g g g g g g ",
"g g g g g g g g g g g g g g g g g     g g g g g g g g g g g g g g g g g ",
"g g g g g g g g g g g g g g                 g g g g g g g g g g g g g g ",
"g g g g g g g g g g g                             g g g g g g g g g g g ",
"g g g g g g g g g                                     g g g g g g g g g ",
"g g g g g g g g                         y y y y         g g g g g g g g ",
"g g g g g g g                         y y y y y y y       g g g g g g g ",
"g g g g g g                         y y y M M M M y y       g g g g g g ",
"g g g g g                           y y M M M M M M y y       g g g g g ",
"g g g g           * e j j 0 @       y M Z ^ ` ( Q M M y         g g g g ",
"g g g g         x =.=.=.X.#.=.w     y ( =.=.=.=.=.{ M M y       g g g g ",
"g g g         s =.#.#.=.=.=.{ =.3   Z =.#.=.=.=.=.=.I M y         g g g ",
"g g g         =.=.=.s & : ^ =.L H   =.=.=.( T _ =.#.=.M y         g g g ",
"g g g       @ =.T =.      2 =.Q =.  =.| =.T I T =.=.=.V y         g g g ",
"g g         - =.=.J       5 =.E X.  =.=.=.M M T =.X.=.M y           g g ",
"g g           * & +     > =.=.` f     y y ( X.=.=.=.T y y           g g ",
"g g                 & M =.=.( ` @       y =.=.=.=.=.m y             g g ",
"                  y =.=.| =.F &           f H ^ =.#.=.r                 ",
"                D =.| =.{ 6         n n x       8 =.T X.                ",
"g g           M =.^ =.0             =.| =.X     > =.^ =.            g g ",
"g g         + =.^ =.1 1 1 1 1 1 >   =.=.=.p * : J =.I D             g g ",
"g g         0 =.{ =.=.=.=.=.=.=.=.  b =.X.=.=.=.=.| =.3             g g ",
"g g g       z =.=.=.=.=.=.=.=.| =.    C =.=.=.#.=.=.e             g g g ",
"g g g       2 b x b b x b x b x z       : i j a 6 +               g g g ",
"g g g                                                             g g g ",
"g g g g                                                         g g g g ",
"g g g g                                                         g g g g ",
"g g g g g                                                     g g g g g ",
"g g g g g g                                                 g g g g g g ",
"g g g g g g g                                             g g g g g g g ",
"g g g g g g g g                                         g g g g g g g g ",
"g g g g g g g g g                                     g g g g g g g g g ",
"g g g g g g g g g g g                             g g g g g g g g g g g ",
"g g g g g g g g g g g g g g                 g g g g g g g g g g g g g g ",
"g g g g g g g g g g g g g g g g g     g g g g g g g g g g g g g g g g g ",
"g g g g g g g g g g g g g g g g g     g g g g g g g g g g g g g g g g g "
};
