/* XPM */
static char *bmoku-0-LB-46[] = {
/* columns rows colors chars-per-pixel */
"36 36 84 1",
"  c black",
". c #02E702E702E7",
"X c #032B032B032B",
"o c #047504750475",
"O c #068406840684",
"+ c #097E097E097E",
"@ c #0B210B210B21",
"# c #0D3D0D3D0D3D",
"$ c #100010001000",
"% c #108710871087",
"& c #119111911191",
"* c #137B137B137B",
"= c #17B317B317B3",
"- c #1E651E651E65",
"; c #20F920F920F9",
": c #216F216F216F",
"> c #272E272E272E",
", c #30F730F730F7",
"< c #3AA53AA53AA5",
"1 c #3C413C413C41",
"2 c #3DE63DE63DE6",
"3 c #3F053F053F05",
"4 c #4B1A4B1A4B1A",
"5 c #4EB64EB64EB6",
"6 c #4F664F664F66",
"7 c #519D519D519D",
"8 c #618861886188",
"9 c #726F726F726F",
"0 c #739673967396",
"q c #77FF77FF77FF",
"w c #7D967D967D96",
"e c #7F6D7F6D7F6D",
"r c #E79DB2CA4924",
"t c #86FD86FD86FD",
"y c #8FFF8FFF8FFF",
"u c #9D739D739D73",
"i c #9E7B9E7B9E7B",
"p c #A217A217A217",
"a c #A39AA39AA39A",
"s c #A452A452A452",
"d c #A645A645A645",
"f c #A6F6A6F6A6F6",
"g c #AC6BAC6BAC6B",
"h c #B132B132B132",
"j c #B1E5B1E5B1E5",
"k c #B503B503B503",
"l c #BAABBAABBAAB",
"z c #C03DC03DC03D",
"x c #C22AC22AC22A",
"c c #C435C435C435",
"v c #CB62CB62CB62",
"b c #CBD6CBD6CBD6",
"n c #CF3CCF3CCF3C",
"m c #D172D172D172",
"M c #D23FD23FD23F",
"N c #D41DD41DD41D",
"B c #D504D504D504",
"V c #D840D840D840",
"C c #D97FD97FD97F",
"Z c #DA6DDA6DDA6D",
"A c #DCC1DCC1DCC1",
"S c #DCEFDCEFDCEF",
"D c #DE43DE43DE43",
"F c #DF2EDF2EDF2E",
"G c #E4DAE4DAE4DA",
"H c #E540E540E540",
"J c #E626E626E626",
"K c #E898E898E898",
"L c #E947E947E947",
"P c #E9F9E9F9E9F9",
"I c #ED24ED24ED24",
"U c #EE85EE85EE85",
"Y c #F0C7F0C7F0C7",
"T c #F41FF41FF41F",
"R c #F63DF63DF63D",
"E c #F79AF79AF79A",
"W c #F858F858F858",
"Q c #F9F3F9F3F9F3",
"! c #FB7FFB7FFB7F",
"~ c #FC8EFC8EFC8E",
"^ c #FD87FD87FD87",
"/ c #FE61FE61FE61",
"( c #FF94FF94FF94",
") c gray100",
/* pixels */
"rrrrrrrrrrrrrrrrr  rrrrrrrrrrrrrrrrr",
"rrrrrrrrrrrrrrrrr  rrrrrrrrrrrrrrrrr",
"rrrrrrrrrrrrrr        rrrrrrrrrrrrrr",
"rrrrrrrrrrr              rrrrrrrrrrr",
"rrrrrrrrr                  rrrrrrrrr",
"rrrrrrrr            8888    rrrrrrrr",
"rrrrrrr            8888888   rrrrrrr",
"rrrrrr            888iiii88   rrrrrr",
"rrrrr            o87iiiiii88   rrrrr",
"rrrr        ,yyo o8iiVGKDpi8    rrrr",
"rrrr       #)))&  8fY)))))gi8   rrrr",
"rrr        v)))&  8E)Q)))Q)f8    rrr",
"rrr       9))))#  f)Y)VM)))l8    rrr",
"rrr      >)V)))&  Y))GnnD))V8    rrr",
"rr       TE))))&  )Q)gvLDfii8     rr",
"rr      f))q)))#  )Y)))Q))x88     rr",
"rr     6)VVo)))#  )))))))))e      rr",
"      &)L)- )))&  )))678z)Dk        ",
"      x))VVV)))VM+)K)o  ;)D)        ",
"rr    M))))))))))#)T)&  <)VT      rr",
"rr    7yyyyy)))yy g)Dg-;K)Mi      rr",
"rr          )))#  &))Y)))L)=      rr",
"rrr         )))&   3)))E))3      rrr",
"rrr         tyyo    +4e93o       rrr",
"rrr                              rrr",
"rrrr                            rrrr",
"rrrr                            rrrr",
"rrrrr                          rrrrr",
"rrrrrr                        rrrrrr",
"rrrrrrr                      rrrrrrr",
"rrrrrrrr                    rrrrrrrr",
"rrrrrrrrr                  rrrrrrrrr",
"rrrrrrrrrrr              rrrrrrrrrrr",
"rrrrrrrrrrrrrr        rrrrrrrrrrrrrr",
"rrrrrrrrrrrrrrrrr  rrrrrrrrrrrrrrrrr",
"rrrrrrrrrrrrrrrrr  rrrrrrrrrrrrrrrrr"
};
