/* XPM */
static char *bmoku-0-LB-269[] = {
/* columns rows colors chars-per-pixel */
"36 36 144 2",
"   c #000100010001",
".  c #014001400140",
"X  c #025202520252",
"o  c #055905590559",
"O  c #07A807A807A8",
"+  c #086508650865",
"@  c #0A630A630A63",
"#  c #0BC30BC30BC3",
"$  c #0CCD0CCD0CCD",
"%  c #0DCF0DCF0DCF",
"&  c #0F200F200F20",
"*  c #10A010A010A0",
"=  c #118F118F118F",
"-  c #129712971297",
";  c #137713771377",
":  c #144014401440",
">  c #161016101610",
",  c #169C169C169C",
"<  c #174F174F174F",
"1  c #1CF31CF31CF3",
"2  c #1DC61DC61DC6",
"3  c #225D225D225D",
"4  c #25B525B525B5",
"5  c #266E266E266E",
"6  c #292529252925",
"7  c #2A432A432A43",
"8  c #2E8F2E8F2E8F",
"9  c #328E328E328E",
"0  c #34AF34AF34AF",
"q  c #3AE83AE83AE8",
"w  c #3C6E3C6E3C6E",
"e  c #3DA53DA53DA5",
"r  c #3E7A3E7A3E7A",
"t  c #3F8B3F8B3F8B",
"y  c #417C417C417C",
"u  c #47D847D847D8",
"i  c #48C248C248C2",
"p  c #496A496A496A",
"a  c #4AB14AB14AB1",
"s  c #4BDD4BDD4BDD",
"d  c #50D750D750D7",
"f  c #51D951D951D9",
"g  c #55D455D455D4",
"h  c #56D356D356D3",
"j  c #57D157D157D1",
"k  c #58D158D158D1",
"l  c #5A405A405A40",
"z  c #5AD65AD65AD6",
"x  c #5E715E715E71",
"c  c #618C618C618C",
"v  c #676767676767",
"b  c #690769076907",
"n  c #69CC69CC69CC",
"m  c #6B066B066B06",
"M  c #6C156C156C15",
"N  c #6C7B6C7B6C7B",
"B  c #6E926E926E92",
"V  c #6F736F736F73",
"C  c #70CF70CF70CF",
"Z  c #751575157515",
"A  c #777477747774",
"S  c #79A779A779A7",
"D  c #7ACC7ACC7ACC",
"F  c #7F2D7F2D7F2D",
"G  c #7FFF7FFF7FFF",
"H  c #E79DB2CA4924",
"J  c #E7B1B30A49BA",
"K  c #E7C8B3534A68",
"L  c #E7FEB3FE4BFD",
"P  c #E868B54E4F19",
"I  c #E8C6B67651D6",
"U  c #E9F5BA375ABA",
"Y  c #EA6EBBB75E47",
"T  c #EE02C7097918",
"R  c #843584358435",
"E  c #853685368536",
"W  c #85F585F585F5",
"Q  c #8A0C8A0C8A0C",
"!  c #8AC28AC28AC2",
"~  c #8BB48BB48BB4",
"^  c #8D478D478D47",
"/  c #8F718F718F71",
"(  c #8FEF8FEF8FEF",
")  c #912E912E912E",
"_  c #974A974A974A",
"`  c #9BE69BE69BE6",
"'  c #9E7A9E7A9E7A",
"]  c #A160A160A160",
"[  c #A22EA22EA22E",
"{  c #A54DA54DA54D",
"}  c #A5DFA5DFA5DF",
"|  c #AA72AA72AA72",
" . c #ACA5ACA5ACA5",
".. c #ACBEACBEACBE",
"X. c #B0A1B0A1B0A1",
"o. c #B1A7B1A7B1A7",
"O. c #B581B581B581",
"+. c #B66BB66BB66B",
"@. c #B74AB74AB74A",
"#. c #B959B959B959",
"$. c #B9DDB9DDB9DD",
"%. c #C09FC09FC09F",
"&. c #F130D11C90F3",
"*. c #F466DB47A907",
"=. c #F4A1DC00AABF",
"-. c #F554DE38AFFF",
";. c #F73BE43DBE42",
":. c #C641C641C641",
">. c #C776C776C776",
",. c #C94EC94EC94E",
"<. c #CF39CF39CF39",
"1. c #D24ED24ED24E",
"2. c #D32FD32FD32F",
"3. c #D5A5D5A5D5A5",
"4. c #D628D628D628",
"5. c #D891D891D891",
"6. c #DC8FDC8FDC8F",
"7. c #DECCDECCDECC",
"8. c #DFC8DFC8DFC8",
"9. c #E25CE25CE25C",
"0. c #E3B6E3B6E3B6",
"q. c #E76BE76BE76B",
"w. c #E923E923E923",
"e. c #ECD3ECD3ECD3",
"r. c #FC3CF415E3C7",
"t. c #FD71F7E9ECD9",
"y. c #F1B3F1B3F1B3",
"u. c #F276F276F276",
"i. c #F3B2F3B2F3B2",
"p. c #F426F426F426",
"a. c #F4F6F4F6F4F6",
"s. c #F6DFF6DFF6DF",
"d. c #F752F752F752",
"f. c #F840F840F840",
"g. c #F991F991F991",
"h. c #FA64FA64FA64",
"j. c #FB92FB92FB92",
"k. c #FC6FFC6FFC6F",
"l. c #FF6AFE27FBA0",
"z. c #FD7FFD7FFD7F",
"x. c #FE81FE81FE81",
"c. c #FFB6FF19FDDF",
"v. c #FF8DFF8DFF8D",
"b. c gray100",
/* pixels */
"H H H H H H H H H H H H H H H H H     H H H H H H H H H H H H H H H H H ",
"H H H H H H H H H H H H H H H H H     H H H H H H H H H H H H H H H H H ",
"H H H H H H H H H H H H H H                 H H H H H H H H H H H H H H ",
"H H H H H H H H H H H                             H H H H H H H H H H H ",
"H H H H H H H H H                                     H H H H H H H H H ",
"H H H H H H H H                         c c c c         H H H H H H H H ",
"H H H H H H H                         c c c c c c c       H H H H H H H ",
"H H H H H H                         c c c ' ' ' ' c c       H H H H H H ",
"H H H H H                           c c ' ' ' ' ' ' c c       H H H H H ",
"H H H H 9 Z ( Z 9             - z W [ +.' <.<.<.<.' o.' ( v 1   H H H H ",
"J J U t.k.k.k.j.k.>.$       z k.k.k.k.k.8.<.<.<.1.u.k.k.k.k.k.D H H H H ",
"J L k.k.k.k.k.k.k.j.>.    y k.k.k.k.k.k.k.0.<.1.u.k.k.k.k.k.k.k.s H H H ",
"J T k.k.k.8 - g k.k.k.4   s.k.k.Q < ) k.k.k.1.2.k.k.k.+.N v k.k.k.L L H ",
"H *.k.k.p       %.k.j.f 4 k.k.k.    c j.k.k.2.q.k.k.2.' v   5.k.k.Y L H ",
"H ;.k.k.4       %.k.k.t f j.k.) g Q v W ' ' ' q.k.k.>.' c   { k.k.y H H ",
"H L , ,       N k.k.k.- S j.s.k.k.k.k.k.8.{ ' %.k.k.e.v c $ k.k.j.f H H ",
"L L       y s.k.k.k.z   ( k.k.j.k.8.k.j.k.5.c { k.k.k.e.[ k.k.k.j.g H H ",
"      < $.k.k.j.k.z     W k.k.s.-   - k.k.k.Z c Q k.k.k.k.j.k.k.k.p     ",
"    6 k.k.j.k.) ,       N j.j.v       | k.k.p     - v +.>.S 2.k.k.8     ",
"J I k.k.k.o.,           y k.j.)       >.k.k.t 8 k.k.X.    - k.k.k.# J H ",
"J &.k.k.R 6 8 8 6 8 6 # $ k.k.k.s - z k.k.k., # k.k.k.0 1 X.k.k.+.  J J ",
"J r.k.k.k.k.k.k.k.k.k.z   S k.k.k.k.k.k.k.(     { k.k.k.k.k.k.k.1   J J ",
"H k.k.k.k.k.k.k.k.k.j.z     { k.k.k.k.k._ O     # <.k.k.k.k.k.t   J H H ",
"H *.;.) ) ) ) ) ) ( ( 8       4 Z ( g 6             t Z R p #     H H H ",
"H H H                                                             J J H ",
"H H H H                                                         H H H H ",
"H H H H                                                         H H H H ",
"H H H H L                                                     H H H H H ",
"H H H H H H                                                 H H H H H H ",
"H H H H H H L                                             H H H H H H H ",
"H H H H H H H H                                         H H H H H H H H ",
"H H H H H H H H H                                     H H H H H H H H H ",
"H H H H H H H H H H H                             J J H H H H H H H H H ",
"H H H H H H H H H H H H J J                 H H J J H H H H H H H H H H ",
"H H H H H H H H H H H H H H J J J     H J J H H H H H H H H H H H H H H ",
"H H H H H H H H H H H H H H J J J     H J J H H H H H H H H H H H H H H "
};
