/* XPM */
static char *bmoku-0-LB-116[] = {
/* columns rows colors chars-per-pixel */
"36 36 77 1",
"  c black",
". c #068406840684",
"X c #089108910891",
"o c #097E097E097E",
"O c #0B210B210B21",
"+ c #0D770D770D77",
"@ c #108710871087",
"# c #137B137B137B",
"$ c #164716471647",
"% c #17B317B317B3",
"& c #1DAF1DAF1DAF",
"* c #1E791E791E79",
"= c #20F920F920F9",
"- c #216F216F216F",
"; c #2D562D562D56",
": c #318131813181",
"> c #33C033C033C0",
", c #3AA53AA53AA5",
"< c #3C0D3C0D3C0D",
"1 c #3C413C413C41",
"2 c #3DE63DE63DE6",
"3 c #3F053F053F05",
"4 c #4A034A034A03",
"5 c #4B1A4B1A4B1A",
"6 c #4ED14ED14ED1",
"7 c #5DB05DB05DB0",
"8 c #618561856185",
"9 c #726F726F726F",
"0 c #7B5A7B5A7B5A",
"q c #7F6D7F6D7F6D",
"w c #E79DB2CA4924",
"e c #86FD86FD86FD",
"r c #8FFF8FFF8FFF",
"t c #926692669266",
"y c #92AC92AC92AC",
"u c #970197019701",
"i c #988A988A988A",
"p c #990199019901",
"a c #9D739D739D73",
"s c #9E799E799E79",
"d c #A7BDA7BDA7BD",
"f c #AC6BAC6BAC6B",
"g c #B028B028B028",
"h c #B10FB10FB10F",
"j c #B1E5B1E5B1E5",
"k c #B34FB34FB34F",
"l c #B50DB50DB50D",
"z c #C9B6C9B6C9B6",
"x c #CA82CA82CA82",
"c c #CBD6CBD6CBD6",
"v c #CF41CF41CF41",
"b c #D243D243D243",
"n c #D45CD45CD45C",
"m c #D81CD81CD81C",
"M c #DA6DDA6DDA6D",
"N c #DCC1DCC1DCC1",
"B c #DD54DD54DD54",
"V c #DF4ADF4ADF4A",
"C c #E03FE03FE03F",
"Z c #E3DEE3DEE3DE",
"A c #E540E540E540",
"S c #E626E626E626",
"D c #E8CBE8CBE8CB",
"F c #E9F9E9F9E9F9",
"G c #EEDEEEDEEEDE",
"H c #F376F376F376",
"J c #F41FF41FF41F",
"K c #F53EF53EF53E",
"L c #F667F667F667",
"P c #F873F873F873",
"I c #FA86FA86FA86",
"U c #FB97FB97FB97",
"Y c #FC56FC56FC56",
"T c #FD65FD65FD65",
"R c #FE9DFE9DFE9D",
"E c #FF8CFF8CFF8C",
"W c gray100",
/* pixels */
"wwwwwwwwwwwwwwwww  wwwwwwwwwwwwwwwww",
"wwwwwwwwwwwwwwwww  wwwwwwwwwwwwwwwww",
"wwwwwwwwwwwwww        wwwwwwwwwwwwww",
"wwwwwwwwwww              wwwwwwwwwww",
"wwwwwwwww                  wwwwwwwww",
"wwwwwwww            8888    wwwwwwww",
"wwwwwww            8888888   wwwwwww",
"wwwwww            888ssss88   wwwwww",
"wwwww             88ssspss88   wwwww",
"wwww   >re      >rlssvvvvgzg6X  wwww",
"wwww   NGW      NGWssvvnPWWWPW> wwww",
"www X&0WNW   X&0WNWssvvWWPWWWCW+ www",
"www WWWWCW   WWWWCWssvCWPWmdLWW4 www",
"www WWWWNW   WWWWNW8svPWWNssuWWp www",
"ww  <<<WCW   <<<WCW8ssWWWgznt$    ww",
"ww     WCW      WNW88sWLWWWWPW7   ww",
"ww     WNW      WCW 88WWWWWWWHW;  ww",
"       WCW      WNW   WWWt8 pWzl    ",
"       WCW      WCW   WAW.  -WNW    ",
"ww     WNW      WNW   WLW+  ,WmL  ww",
"ww     WCW      WNW   fWNg&&AWns  ww",
"ww     WCW      WCW   #WWFWWWFW$  ww",
"www    WGW      WGW    <WWWLWW<  www",
"www    rte      tre     X4e9<.   www",
"www                              www",
"wwww                            wwww",
"wwww                            wwww",
"wwwww                          wwwww",
"wwwwww                        wwwwww",
"wwwwwww                      wwwwwww",
"wwwwwwww                    wwwwwwww",
"wwwwwwwww                  wwwwwwwww",
"wwwwwwwwwww              wwwwwwwwwww",
"wwwwwwwwwwwwww        wwwwwwwwwwwwww",
"wwwwwwwwwwwwwwwww  wwwwwwwwwwwwwwwww",
"wwwwwwwwwwwwwwwww  wwwwwwwwwwwwwwwww"
};
