/* XPM */
static char *bmoku-0-LB-209[] = {
/* columns rows colors chars-per-pixel */
"36 36 136 2",
"   c #000100010001",
".  c #013D013D013D",
"X  c #022602260226",
"o  c #052305230523",
"O  c #07A807A807A8",
"+  c #084B084B084B",
"@  c #0A820A820A82",
"#  c #0BC30BC30BC3",
"$  c #0CCD0CCD0CCD",
"%  c #0DC40DC40DC4",
"&  c #0F200F200F20",
"*  c #117C117C117C",
"=  c #137713771377",
"-  c #144014401440",
";  c #15DE15DE15DE",
":  c #167116711671",
">  c #199B199B199B",
",  c #1CF31CF31CF3",
"<  c #1DC61DC61DC6",
"1  c #1F801F801F80",
"2  c #245824582458",
"3  c #25B525B525B5",
"4  c #269526952695",
"5  c #28E028E028E0",
"6  c #2A432A432A43",
"7  c #2E8F2E8F2E8F",
"8  c #310631063106",
"9  c #322432243224",
"0  c #328E328E328E",
"q  c #34AF34AF34AF",
"w  c #36C636C636C6",
"e  c #3AE83AE83AE8",
"r  c #3DA73DA73DA7",
"t  c #3F8B3F8B3F8B",
"y  c #417C417C417C",
"u  c #47F447F447F4",
"i  c #48C248C248C2",
"p  c #4A204A204A20",
"a  c #4AB14AB14AB1",
"s  c #4DBB4DBB4DBB",
"d  c #51C351C351C3",
"f  c #54E054E054E0",
"g  c #55B955B955B9",
"h  c #57D157D157D1",
"j  c #5A405A405A40",
"k  c #5B245B245B24",
"l  c #5E715E715E71",
"z  c #5FD45FD45FD4",
"x  c #60D160D160D1",
"c  c #619361936193",
"v  c #67D467D467D4",
"b  c #690769076907",
"n  c #6B066B066B06",
"m  c #6C9E6C9E6C9E",
"M  c #6F0A6F0A6F0A",
"N  c #70CF70CF70CF",
"B  c #71AA71AA71AA",
"V  c #72B572B572B5",
"C  c #754675467546",
"Z  c #7ACC7ACC7ACC",
"A  c #7B9D7B9D7B9D",
"S  c #7D897D897D89",
"D  c #7F2D7F2D7F2D",
"F  c #7FFF7FFF7FFF",
"G  c #E79DB2CA4924",
"H  c #E7B1B30A49BA",
"J  c #E7C8B3534A68",
"K  c #E7FEB3FE4BFD",
"L  c #E868B54E4F19",
"P  c #E8C6B67651D6",
"I  c #E9F5BA375ABA",
"U  c #EA6EBBB75E47",
"Y  c #EE02C7097918",
"T  c #85FA85FA85FA",
"R  c #89CF89CF89CF",
"E  c #8C148C148C14",
"W  c #8DFF8DFF8DFF",
"Q  c #8F718F718F71",
"!  c #8FF58FF58FF5",
"~  c #91AA91AA91AA",
"^  c #929592959295",
"/  c #989198919891",
"(  c #9BE69BE69BE6",
")  c #9E799E799E79",
"_  c #A160A160A160",
"`  c #A258A258A258",
"'  c #A977A977A977",
"]  c #ACA5ACA5ACA5",
"[  c #ACBEACBEACBE",
"{  c #B09EB09EB09E",
"}  c #B1A1B1A1B1A1",
"|  c #B295B295B295",
" . c #B581B581B581",
".. c #B66BB66BB66B",
"X. c #B74AB74AB74A",
"o. c #B959B959B959",
"O. c #B9DDB9DDB9DD",
"+. c #BB26BB26BB26",
"@. c #BD43BD43BD43",
"#. c #C09FC09FC09F",
"$. c #F130D11C90F3",
"%. c #F466DB47A907",
"&. c #F4A1DC00AABF",
"*. c #F554DE38AFFF",
"=. c #F73BE43DBE42",
"-. c #C65FC65FC65F",
";. c #C776C776C776",
":. c #C959C959C959",
">. c #CEA4CEA4CEA4",
",. c #CF33CF33CF33",
"<. c #D260D260D260",
"1. c #D343D343D343",
"2. c #D5A5D5A5D5A5",
"3. c #D891D891D891",
"4. c #DA8FDA8FDA8F",
"5. c #E25CE25CE25C",
"6. c #E557E557E557",
"7. c #E76BE76BE76B",
"8. c #E923E923E923",
"9. c #ECD3ECD3ECD3",
"0. c #FC3CF415E3C7",
"q. c #FD71F7E9ECD9",
"w. c #F1B3F1B3F1B3",
"e. c #F276F276F276",
"r. c #F3B2F3B2F3B2",
"t. c #F690F690F690",
"y. c #F992F992F992",
"u. c #FA77FA77FA77",
"i. c #FB7EFB7EFB7E",
"p. c #FC5AFC5AFC5A",
"a. c #FF6AFE27FBA0",
"s. c #FD8BFD8BFD8B",
"d. c #FE7EFE7EFE7E",
"f. c #FFB6FF19FDDF",
"g. c #FF92FF92FF92",
"h. c gray100",
/* pixels */
"G G G G G G G G G G G G G G G G G     G G G G G G G G G G G G G G G G G ",
"G G G G G G G G G G G G G G G G G     G G G G G G G G G G G G G G G G G ",
"G G G G G G G G G G G G G G                 G G G G G G G G G G G G G G ",
"G G G G G G G G G G G                             G G G G G G G G G G G ",
"G G G G G G G G G                                     G G G G G G G G G ",
"G G G G G G G G                         c c c c         G G G G G G G G ",
"G G G G G G G                         c c c c c c c       G G G G G G G ",
"G G G G G G                         c c c ) ) ) ) c c       G G G G G G ",
"G G G G J                           c c ) ) ) ) ) ) c c       G G G G G ",
"G G G G 0 V ! C 0             4 n Q ` [ ) ,.,.,.,.) | ) Q v ,   G G G G ",
"H H I q.p.p.p.i.p.:.%       ^ p.p.p.p.p.-.,.,.,.<.e.p.p.p.p.p.D G G G G ",
"H K p.p.p.p.p.p.p.i.;.    v p.p.p.p.p.p.p.4.,.,.e.p.p.p.p.p.p.p.a G G J ",
"H Y p.p.p.7 = g p.p.p.4 O p.p.p.v : @.p.p.p.<.4.p.p.p...n v p.p.p.K J J ",
"H %.p.p.i       @.p.i.d 0 p.p.p.O   v p.p.p.1.5.p.p.1.) v   4.p.p.U J J ",
"G =.p.p.4       -.p.p.t c i.p.Q       9.p.p.| 9.p.p.-.) c   ` p.p.y G G ",
"G K : :       n p.p.p.= D p.t.V       ,.p.p.O.@.p.p.9.v c % p.p.i.d G G ",
"H H       y t.p.p.p.c   ! p.i.k       ! p.p.( ` p.p.p.9.` p.p.p.i.g G G ",
"      > O.p.p.i.p.j     n p.t.V       | p.p.E c E p.p.p.p.i.p.p.p.i     ",
"    6 p.p.i.p.! :       d p.p.!       <.p.p.6     = v ..:.Z 1.p.p.7     ",
"H P p.p.p.| :           0 p.p.p.    @ p.p.p.: 7 p.p.[     = p.p.p.# H G ",
"H $.p.p.T 6 6 7 6 7 6 @   p.p.p.g @ D p.p.:.  % p.p.p.0 , [ p.p...  H H ",
"H 0.p.p.p.p.p.p.p.p.p.j   c p.p.p.p.p.p.p.e     ` p.p.p.p.p.p.p.,   H H ",
"G p.p.p.p.p.p.p.p.p.i.j     V p.p.p.p.p.i       @ <.p.p.p.p.p.t   H G G ",
"G %.=.! ! ! ! ! ! ! ! 7       , g Q i ,             t V T i @     G G G ",
"G G G                                                             H H G ",
"G G G G                                                         G G G G ",
"G G G G                                                         G G G G ",
"G G G G J                                                     G G G G G ",
"G G G G J G                                                 G G G G G G ",
"G G G G G G J                                             G G G G G G G ",
"G G G G G G J G                                         G G G G G G G G ",
"G G G G G G G G G                                     G G G G G G G G G ",
"G G G G G G G G G G G                             H H G G G G G G G G G ",
"G G G G G G G G G G G G H H                 G G H H G G G G G G G G G G ",
"G G G G G G G G G G G G G G H H H     G H H G G G G G G G G G G G G G G ",
"G G G G G G G G G G G G G G H H H     G H H G G G G G G G G G G G G G G "
};
