/* XPM */
static char *bmoku-0-LB-342[] = {
/* columns rows colors chars-per-pixel */
"36 36 127 2",
"   c #000100010001",
".  c #013D013D013D",
"X  c #069D069D069D",
"o  c #084108410841",
"O  c #0A900A900A90",
"+  c #0C2C0C2C0C2C",
"@  c #0D5A0D5A0D5A",
"#  c #0F210F210F21",
"$  c #117E117E117E",
"%  c #123012301230",
"&  c #134D134D134D",
"*  c #156F156F156F",
"=  c #16E916E916E9",
"-  c #18CA18CA18CA",
";  c #19C219C219C2",
":  c #1CD41CD41CD4",
">  c #1EAE1EAE1EAE",
",  c #1FC61FC61FC6",
"<  c #267C267C267C",
"1  c #2A402A402A40",
"2  c #2B312B312B31",
"3  c #2DF02DF02DF0",
"4  c #2E3E2E3E2E3E",
"5  c #304C304C304C",
"6  c #327D327D327D",
"7  c #3C103C103C10",
"8  c #3CEA3CEA3CEA",
"9  c #3D793D793D79",
"0  c #3EFA3EFA3EFA",
"q  c #440C440C440C",
"w  c #447144714471",
"e  c #47A647A647A6",
"r  c #4A8B4A8B4A8B",
"t  c #4B734B734B73",
"y  c #4E824E824E82",
"u  c #507C507C507C",
"i  c #54C254C254C2",
"p  c #55D855D855D8",
"a  c #57D257D257D2",
"s  c #58B858B858B8",
"d  c #5A445A445A44",
"f  c #5E735E735E73",
"g  c #618561856185",
"h  c #62A462A462A4",
"j  c #648864886488",
"k  c #67C567C567C5",
"l  c #68D068D068D0",
"z  c #69EB69EB69EB",
"x  c #6B126B126B12",
"c  c #6C576C576C57",
"v  c #6C7B6C7B6C7B",
"b  c #6F546F546F54",
"n  c #732E732E732E",
"m  c #73EE73EE73EE",
"M  c #754675467546",
"N  c #75B575B575B5",
"B  c #78AA78AA78AA",
"V  c #7FFD7FFD7FFD",
"C  c #E79DB2CA4924",
"Z  c #E7F4B3DE4BB2",
"A  c #E850B5014E63",
"S  c #E89AB5EC508E",
"D  c #E8D2B69D5234",
"F  c #EB3DBE456455",
"G  c #EC05C0BC6A2C",
"H  c #EC0AC0CE6A56",
"J  c #EC9DC29E6EA0",
"K  c #EDCFC669779B",
"L  c #847684768476",
"P  c #87CD87CD87CD",
"I  c #88A888A888A8",
"U  c #8A9C8A9C8A9C",
"Y  c #8F718F718F71",
"T  c #8FFB8FFB8FFB",
"R  c #92EA92EA92EA",
"E  c #959A959A959A",
"W  c #97B897B897B8",
"Q  c #9E799E799E79",
"!  c #9F269F269F26",
"~  c #A1A7A1A7A1A7",
"^  c #A62FA62FA62F",
"/  c #A796A796A796",
"(  c #ACB4ACB4ACB4",
")  c #AE91AE91AE91",
"_  c #AFD2AFD2AFD2",
"`  c #B1A0B1A0B1A0",
"'  c #B1C1B1C1B1C1",
"]  c #B61DB61DB61D",
"[  c #BA42BA42BA42",
"{  c #BB37BB37BB37",
"}  c #BD11BD11BD11",
"|  c #BDC8BDC8BDC8",
" . c #C09FC09FC09F",
".. c #EF76CBA383FE",
"X. c #F036CE03899D",
"o. c #F19AD2699409",
"O. c #F472DB6DA962",
"+. c #C1D5C1D5C1D5",
"@. c #C777C777C777",
"#. c #C93FC93FC93F",
"$. c #CA2ECA2ECA2E",
"%. c #CDC9CDC9CDC9",
"&. c #CF3CCF3CCF3C",
"*. c #D02CD02CD02C",
"=. c #D431D431D431",
"-. c #D554D554D554",
";. c #D87ED87ED87E",
":. c #D96CD96CD96C",
">. c #D9F7D9F7D9F7",
",. c #DC06DC06DC06",
"<. c #E8CEE8CEE8CE",
"1. c #ED06ED06ED06",
"2. c #EE78EE78EE78",
"3. c #F3B1F3B1F3B1",
"4. c #F4C4F4C4F4C4",
"5. c #F7A9F7A9F7A9",
"6. c #F873F873F873",
"7. c #F93EF93EF93E",
"8. c #FA66FA66FA66",
"9. c #FB6BFB6BFB6B",
"0. c #FC5EFC5EFC5E",
"q. c #FD74FD74FD74",
"w. c #FE88FE88FE88",
"e. c #FF9EFECCFD27",
"r. c #FFBDFF2FFE12",
"t. c #FF8DFF8DFF8D",
"y. c gray100",
/* pixels */
"C C C C C C C C C C C C C C C C C     C C C C C C C C C C C C C C C C C ",
"C C C C C C C C C C C C C C C C C     C C C C C C C C C C C C C C C C C ",
"C C C C C C C C C C C C C C                 C C C C C C C C C C C C C C ",
"C C C C C C C C C C C                             C C C C C C C C C C C ",
"C C C C C C C C C                                     C C C C C C C C C ",
"C C C C C C C C                         g g g g         C C C C C C C C ",
"C C C C C C C                         g g g g g g g       C C C C C C C ",
"C C C C C C                         g g g Q Q Q Q g g       C C C C C C ",
"C C C C C                           g g Q Q Q Q Q Q g g       C C C C C ",
"C C C A q n N t O                   ] =.[ &.&.&.&.Q _ ^ Y M 6   C C C C ",
"C C J y.y.y.y.y.y.e               g y.y.=.&.&.&.=.7.y.y.y.7.y.#.D C C C ",
"C C y.y.5.y.y.7.y.y.&           < y.y.y.=.&.&.=.y.y.y.y.y.y.y.7.@.C C C ",
"C K y.y.y.: - 1.y.y.y         X 5.y.y.y.=.&.&.,.y.y.y.) c i y.y.y.F C C ",
"C o.y.7.k     l 5.y.U         R 7.y.7.y.=.=.&.<.y.y.[ Q g   [ y.7...C C ",
"C O.y.y.i     L 7.5.k       e y.7. .7.y.=.! ! 1.y.y.) Q g    .y.y.8 C C ",
"C C     2 :.5.y.y.y.&     = y.y.y.d 7.y.[ Q Q ! ^ ^ ! g g l y.y.y.# C C ",
"C C     7 y.y.y.y.#.-     #.7.y.e d 7.y.[ g g Q Q Q g U 3.y.y.y.f   C C ",
"        - R ^ 7.y.y.y.O l y.y.E   d 7.y.Y   g g g c =.y.y.7.y.i         ",
"  t E E 6       =.y.y.8 y.y.y.=.:.:.7.y.:.:.l   2 y.7.7.y.Y =           ",
"Z O.y.5.n       ) y.y.t y.y.y.y.y.y.y.y.y.y.R O y.y.y._ =           C C ",
"Z ..y.y.y.< & q y.y.y.: Y R Y Y Y Y 7.y.Y Y t k 7.y.V 2 2 2 2 2 2 o C C ",
"Z A y.y.7.y.y.y.y.7.|             d 5.y.Y     =.y.y.y.y.y.y.y.y.y.d C C ",
"C C G y.y.y.y.7.y.| #             d 7.y.R     y.y.y.y.y.y.y.y.y.7.X.C C ",
"C C C X 8 M U d 4                 4 Y R t     U Y R Y Y Y Y Y Y T H C C ",
"C C C                                                             C C C ",
"C C C C                                                         C C C C ",
"C C C C                                                         C C C C ",
"C C C C C                                                     C C C C C ",
"C C C C C C                                                 C C C C C C ",
"C C C C C C C                                             C C C C C C C ",
"C C C C C C C C                                         C C C C C C C C ",
"C C C C C C C C C                                     C C C C C C C C C ",
"C C C C C C C C C C C                             C C C C C C C C C C C ",
"C C C C C C C C C C C C C C                 C C C C C C C C C C C C C C ",
"C C C C C C C C C C C C C C C C C     C C C C C C C C C C C C C C C C C ",
"C C C C C C C C C C C C C C C C C     C C C C C C C C C C C C C C C C C "
};
