/* XPM */
static char *bmoku-0-LB-Y[] = {
/* columns rows colors chars-per-pixel */
"36 36 48 1",
"  c black",
". c #025B025B025B",
"X c #0A090A090A09",
"o c #123912391239",
"O c #1A1C1A1C1A1C",
"+ c #2C452C452C45",
"@ c #2E3C2E3C2E3C",
"# c #325D325D325D",
"$ c #433243324332",
"% c #4B734B734B73",
"& c #5A405A405A40",
"* c #5ED25ED25ED2",
"= c #618761876187",
"- c #680368036803",
"; c #760076007600",
": c #7C9C7C9C7C9C",
"> c #E79DB2CA4924",
", c #86FD86FD86FD",
"< c #8CB88CB88CB8",
"1 c #8FFF8FFF8FFF",
"2 c #924392439243",
"3 c #9E7A9E7A9E7A",
"4 c #A282A282A282",
"5 c #A525A525A525",
"6 c #AEB7AEB7AEB7",
"7 c #B5A1B5A1B5A1",
"8 c #BC0EBC0EBC0E",
"9 c gray",
"0 c #C03CC03CC03C",
"q c #CF42CF42CF42",
"w c #D198D198D198",
"e c #D554D554D554",
"r c #D77BD77BD77B",
"t c #D9A7D9A7D9A7",
"y c #E0B3E0B3E0B3",
"u c #E10FE10FE10F",
"i c #E9C3E9C3E9C3",
"p c #EA93EA93EA93",
"a c #EAF2EAF2EAF2",
"s c #EF93EF93EF93",
"d c #F20CF20CF20C",
"f c #F91FF91FF91F",
"g c #FAB5FAB5FAB5",
"h c #FB68FB68FB68",
"j c #FDB3FDB3FDB3",
"k c #FEA5FEA5FEA5",
"l c #FF87FF87FF87",
"z c gray100",
/* pixels */
">>>>>>>>>>>>>>>>>  >>>>>>>>>>>>>>>>>",
">>>>>>>>>>>>>>>>>  >>>>>>>>>>>>>>>>>",
">>>>>>>>>>>>>>        >>>>>>>>>>>>>>",
">>>>>>>>>>>              >>>>>>>>>>>",
">>>>>>>>>                  >>>>>>>>>",
">>>>>>>>            ====    >>>>>>>>",
">>>>>>>            =======   >>>>>>>",
">>>>>>            ===3333==   >>>>>>",
">>>>>      ,<<@   ==38rr03==   >>>>>",
">>>>       0gzp   =35zzzu33=    >>>>",
">>>>       Ozzz*  =3tzzgqq33=   >>>>",
">>>         -zzzo =6zzzrqq33=    >>>",
">>>          azg3 =dzzpqqqq3=    >>>",
">>>          @zzz#2zzzqqqq33=    >>>",
">>            <gzazzz83qq333=     >>",
">>            Xzzzgzu333333==     >>",
">>             $zzzz;==333==      >>",
"                7zg:  =====         ",
"                <zg&                ",
">>              2zg&              >>",
">>              <zg&              >>",
">>              2zg&              >>",
">>>             <zg&             >>>",
">>>             %2<@             >>>",
">>>                              >>>",
">>>>                            >>>>",
">>>>                            >>>>",
">>>>>                          >>>>>",
">>>>>>                        >>>>>>",
">>>>>>>                      >>>>>>>",
">>>>>>>>                    >>>>>>>>",
">>>>>>>>>                  >>>>>>>>>",
">>>>>>>>>>>              >>>>>>>>>>>",
">>>>>>>>>>>>>>        >>>>>>>>>>>>>>",
">>>>>>>>>>>>>>>>>  >>>>>>>>>>>>>>>>>",
">>>>>>>>>>>>>>>>>  >>>>>>>>>>>>>>>>>"
};
