/* XPM */
static char *bmoku-0-LB-57[] = {
/* columns rows colors chars-per-pixel */
"36 36 92 1",
"  c #000100010001",
". c #016001600160",
"X c #021102110211",
"o c #0A5E0A5E0A5E",
"O c #0D270D270D27",
"+ c #0F050F050F05",
"@ c #0FD40FD40FD4",
"# c #161E161E161E",
"$ c #192019201920",
"% c #1A8A1A8A1A8A",
"& c #1B901B901B90",
"* c #1CD61CD61CD6",
"= c #223E223E223E",
"- c #26F926F926F9",
"; c #286028602860",
": c #2A512A512A51",
"> c #2ED22ED22ED2",
", c #33C033C033C0",
"< c #361436143614",
"1 c #37C137C137C1",
"2 c #397339733973",
"3 c #3CD23CD23CD2",
"4 c #3F9B3F9B3F9B",
"5 c #425942594259",
"6 c #4C4A4C4A4C4A",
"7 c #513451345134",
"8 c #596C596C596C",
"9 c #606E606E606E",
"0 c #618561856185",
"q c #629762976297",
"w c #6BF36BF36BF3",
"e c #702570257025",
"r c #717471747174",
"t c #73D473D473D4",
"y c #7A277A277A27",
"u c #7BAB7BAB7BAB",
"i c #7CAF7CAF7CAF",
"p c #800980098009",
"a c #E79DB2CA4924",
"s c #872F872F872F",
"d c #8B788B788B78",
"f c #8F288F288F28",
"g c #8FFF8FFF8FFF",
"h c #927992799279",
"j c #973197319731",
"k c #995C995C995C",
"l c #9E759E759E75",
"z c #A137A137A137",
"x c #A53CA53CA53C",
"c c #AE90AE90AE90",
"v c #AF8DAF8DAF8D",
"b c #B686B686B686",
"n c #B736B736B736",
"m c #B8B3B8B3B8B3",
"M c #BAA0BAA0BAA0",
"N c #BBD7BBD7BBD7",
"B c #C989C989C989",
"V c #CC6CCC6CCC6C",
"C c #CEBBCEBBCEBB",
"Z c #CF36CF36CF36",
"A c #D084D084D084",
"S c #D18CD18CD18C",
"D c #D554D554D554",
"F c #D748D748D748",
"G c #D81CD81CD81C",
"H c #D90DD90DD90D",
"J c #DAD9DAD9DAD9",
"K c #DBB4DBB4DBB4",
"L c #DD09DD09DD09",
"P c #E15CE15CE15C",
"I c #E357E357E357",
"U c #E500E500E500",
"Y c #E71BE71BE71B",
"T c #E843E843E843",
"R c #EAAAEAAAEAAA",
"E c #EBA4EBA4EBA4",
"W c #EBF2EBF2EBF2",
"Q c #ED2DED2DED2D",
"! c #EE09EE09EE09",
"~ c #F071F071F071",
"^ c #F301F301F301",
"/ c #F655F655F655",
"( c #F7A2F7A2F7A2",
") c #F842F842F842",
"_ c #F998F998F998",
"` c #FACFFACFFACF",
"' c #FB80FB80FB80",
"] c #FCB6FCB6FCB6",
"[ c #FDA8FDA8FDA8",
"{ c #FED2FED2FED2",
"} c #FF95FF95FF95",
"| c gray100",
/* pixels */
"aaaaaaaaaaaaaaaaa  aaaaaaaaaaaaaaaaa",
"aaaaaaaaaaaaaaaaa  aaaaaaaaaaaaaaaaa",
"aaaaaaaaaaaaaa        aaaaaaaaaaaaaa",
"aaaaaaaaaaa              aaaaaaaaaaa",
"aaaaaaaaa                  aaaaaaaaa",
"aaaaaaaa            qqqq    aaaaaaaa",
"aaaaaaa            qq8qqqq   aaaaaaa",
"aaaaaa            qqqllllqq   aaaaaa",
"aaaaa             qqllllllqq   aaaaa",
"aaaa    ggggggggo#mFFRRQRSFm    aaaa",
"aaaa   *[[[[[[[[$5[[[[[[[[[[q   aaaa",
"aaa    7[~[[[[[[$<[[[[[[[[~[q    aaa",
"aaa    s[/6:::::  uccFFG'[[mq    aaa",
"aaa    m[[:       qqlCCP[[Sl8    aaa",
"aa     P[[kSbe$    qllx['[llq     aa",
"aa     ['[[[[Q[t   qqlR[[blqq     aa",
"aa     ['[GkP['[1   qu[QQlqq      aa",
"       Nmt   l[Cb    S[[sqq         ",
"             =[L[   $[CR            ",
"aa    u[[8   3[GR   k[Qq          aa",
"aa    5[G[1#:Q[Lg   ''[#          aa",
"aa     R[Q[[[[Y[#  $[C'           aa",
"aaa    OG[[['[P:   t[Vk          aaa",
"aaa      -edq1     ,gg1          aaa",
"aaa                              aaa",
"aaaa                            aaaa",
"aaaa                            aaaa",
"aaaaa                          aaaaa",
"aaaaaa                        aaaaaa",
"aaaaaaa                      aaaaaaa",
"aaaaaaaa                    aaaaaaaa",
"aaaaaaaaa                  aaaaaaaaa",
"aaaaaaaaaaa              aaaaaaaaaaa",
"aaaaaaaaaaaaaa        aaaaaaaaaaaaaa",
"aaaaaaaaaaaaaaaaa  aaaaaaaaaaaaaaaaa",
"aaaaaaaaaaaaaaaaa  aaaaaaaaaaaaaaaaa"
};
