/* XPM */
static char *bmoku-0-LB-338[] = {
/* columns rows colors chars-per-pixel */
"36 36 128 2",
"   c #000100010001",
".  c #013D013D013D",
"X  c #028202820282",
"o  c #03A903A903A9",
"O  c #062F062F062F",
"+  c #075907590759",
"@  c #082808280828",
"#  c #0A580A580A58",
"$  c #0D420D420D42",
"%  c #118B118B118B",
"&  c #123012301230",
"*  c #132413241324",
"=  c #18CA18CA18CA",
"-  c #19C219C219C2",
";  c #1CD51CD51CD5",
":  c #1EBF1EBF1EBF",
">  c #1FC71FC71FC7",
",  c #214321432143",
"<  c #255525552555",
"1  c #264126412641",
"2  c #2B322B322B32",
"3  c #2DF02DF02DF0",
"4  c #2EAE2EAE2EAE",
"5  c #300D300D300D",
"6  c #304D304D304D",
"7  c #323E323E323E",
"8  c #347B347B347B",
"9  c #387538753875",
"0  c #3BDE3BDE3BDE",
"q  c #3CEC3CEC3CEC",
"w  c #3ED43ED43ED4",
"e  c #410E410E410E",
"r  c #42D642D642D6",
"t  c #443544354435",
"y  c #46E546E546E5",
"u  c #47A647A647A6",
"i  c #4A8B4A8B4A8B",
"p  c #4E834E834E83",
"a  c #507C507C507C",
"s  c #52E352E352E3",
"d  c #54C754C754C7",
"f  c #58B858B858B8",
"g  c #5AC45AC45AC4",
"h  c #5B745B745B74",
"j  c #618A618A618A",
"k  c #66AB66AB66AB",
"l  c #67D367D367D3",
"z  c #68D568D568D5",
"x  c #6B196B196B19",
"c  c #6DFD6DFD6DFD",
"v  c #717771777177",
"b  c #733073307330",
"n  c #73EF73EF73EF",
"m  c #75B575B575B5",
"M  c #78AA78AA78AA",
"N  c #E79DB2CA4924",
"B  c #E7C3B3434A41",
"V  c #E7F4B3DE4BB2",
"C  c #E850B5014E63",
"Z  c #E89AB5EC508E",
"A  c #E905B73C53AC",
"S  c #EAF9BD6F6259",
"D  c #EC0AC0CE6A56",
"F  c #EC9DC29E6EA0",
"G  c #EDCFC669779B",
"H  c #847784778477",
"J  c #867E867E867E",
"K  c #86FD86FD86FD",
"L  c #88AB88AB88AB",
"P  c #8A9C8A9C8A9C",
"I  c #8DAF8DAF8DAF",
"U  c #8FE38FE38FE3",
"Y  c #97B897B897B8",
"T  c #996A996A996A",
"R  c #9D7F9D7F9D7F",
"E  c #9E799E799E79",
"W  c #9EA59EA59EA5",
"Q  c #A26CA26CA26C",
"!  c #A377A377A377",
"~  c #A527A527A527",
"^  c #A62EA62EA62E",
"/  c #AB9CAB9CAB9C",
"(  c #AFD2AFD2AFD2",
")  c #B1BCB1BCB1BC",
"_  c #B44AB44AB44A",
"`  c #B5A0B5A0B5A0",
"'  c #B9C4B9C4B9C4",
"]  c #BD13BD13BD13",
"[  c #BE13BE13BE13",
"{  c #EF82CBC98458",
"}  c #F005CD68882D",
"|  c #F19AD2699409",
" . c #F472DB6DA962",
".. c #C104C104C104",
"X. c #C3DBC3DBC3DB",
"o. c #C5EDC5EDC5ED",
"O. c #C8AAC8AAC8AA",
"+. c #CDC9CDC9CDC9",
"@. c #CF3CCF3CCF3C",
"#. c #D05BD05BD05B",
"$. c #D141D141D141",
"%. c #D2E1D2E1D2E1",
"&. c #D593D593D593",
"*. c #D9F7D9F7D9F7",
"=. c #DB1DDB1DDB1D",
"-. c #DC8ADC8ADC8A",
";. c #DCF8DCF8DCF8",
":. c #DE72DE72DE72",
">. c #E0EAE0EAE0EA",
",. c #E326E326E326",
"<. c #E98FE98FE98F",
"1. c #EA43EA43EA43",
"2. c #EBF0EBF0EBF0",
"3. c #ED06ED06ED06",
"4. c #F2D8F2D8F2D8",
"5. c #F42DF42DF42D",
"6. c #F7A9F7A9F7A9",
"7. c #F86EF86EF86E",
"8. c #F957F957F957",
"9. c #FA61FA61FA61",
"0. c #FB6FFB6FFB6F",
"q. c #FC4DFC4DFC4D",
"w. c #FD7AFD7AFD7A",
"e. c #FE8CFE8CFE8C",
"r. c #FF9EFECCFD27",
"t. c #FFBDFF2FFE12",
"y. c #FF81FF81FF81",
"u. c gray100",
/* pixels */
"N N N N N N N N N N N N N N N N N     N N N N N N N N N N N N N N N N N ",
"N N N N N N N N N N N N N N N N N     N N N N N N N N N N N N N N N N N ",
"N N N N N N N N N N N N N N                 N N N N N N N N N N N N N N ",
"N N N N N N N N N N N                             N N N N N N N N N N N ",
"N N N N N N N N N                                     N N N N N N N N N ",
"N N N N N N N N                         j j j j         N N N N N N N N ",
"N N N N N N N                         j j j j j j j       N N N N N N N ",
"N N N N N N                         j j j E E E E j j       N N N N N N ",
"N N N N N                           j j E E E E E E j j       N N N N N ",
"N N N C r v M i #           # u m M I Q E @.@.@.@.E ) E I h 5   N N N N ",
"N N F u.u.u.u.u.u.u       8 u.u.u.u.u.u.' @.@.@.&.8.u.u.u.8.u.X.Z N N N ",
"N N u.u.6.u.u.8.u.u.*     8.u.8.u.u.8.u.u.#.@.#.u.u.u.u.u.u.u.8.+.V N N ",
"N G u.u.u.; = 3.u.u.p   r u.u.u.; = 6.u.u.-.@.*.u.u.u._ z q u.u.u.S N N ",
"N | u.8.l     z 6.u.P   l u.8.z     Q 8.u.2.@.2.u.u.-.E j   ~ u.8.} N N ",
"N  .u.u.d     H 8.6.l   H u.u.d     H u.u.X.E >.u.u.6.Q j # 2.u.u.q N N ",
"N N     2 *.6.u.u.u.*         2 *.6.u.u.u.~ E Q u.u.u.u.2.u.8.8.3.  N N ",
"N N     0 u.u.u.u.+.=         q u.u.u.u.>.v j E ) u.u.u.u.u.u.u.1   N N ",
"        = Y ~ 8.u.u.u.+       ; I ~ 8.u.8.u.l c u.u.u.&.T 6.u.8.u.+     ",
"  p Y Y 3       @.u.u.0 p Y Y 5       #.u.u.q z 8.8.E       *.u.u.q     ",
"N  .u.8.v       ( u.u.p H u.8.v       ) u.u.p H u.6.c       / u.8.d N N ",
"N { u.u.u.1 * r u.u.u.; p u.u.u.1 * r u.u.u., r u.u.u.5 * u u.u.u., N N ",
"N Z u.u.8.u.u.u.u.8.]   # u.u.8.u.u.u.u.8.]   # 4.8.u.u.u.u.u.8.X.  N N ",
"N N S u.u.u.u.8.u.] $     3 u.u.8.u.8.u.] $     ; -.u.u.u.u.u.] $ N N N ",
"N N N @ q m P h 3           # w m P h 3             8 j I h 3     N N N ",
"N N N                                                             N N N ",
"N N N N                                                         N N N N ",
"N N N N                                                         N N N N ",
"N N N N N                                                     V N N N N ",
"N N N N N N                                                 N N N N N N ",
"N N N N N N N                                             V N N N N N N ",
"N N N N N N N N                                         N N N N N N N N ",
"N N N N N N N N N                                     N N N N N N N N N ",
"N N N N N N N N N N N                             N N N N N N N N N N N ",
"N N N N N N N N N N N N N N                 N N N N N N N N N N N N N N ",
"N N N N N N N N N N N N N N N N N     N N N N N N N N N N N N N N N N N ",
"N N N N N N N N N N N N N N N N N     N N N N N N N N N N N N N N N N N "
};
