/* XPM */
static char *bmoku-0-LB-61[] = {
/* columns rows colors chars-per-pixel */
"36 36 83 1",
"  c #000100010001",
". c #014001400140",
"X c #027D027D027D",
"o c #055905590559",
"O c #0AB60AB60AB6",
"+ c #0DDA0DDA0DDA",
"@ c #10A010A010A0",
"# c #11A311A311A3",
"$ c #129712971297",
"% c #138213821382",
"& c #160F160F160F",
"* c #174F174F174F",
"= c #1B5E1B5E1B5E",
"- c #1F481F481F48",
"; c #225D225D225D",
": c #264726472647",
"> c #292529252925",
", c #2E3E2E3E2E3E",
"< c #326B326B326B",
"1 c #380838083808",
"2 c #3C6C3C6C3C6C",
"3 c #3DA13DA13DA1",
"4 c #3E7B3E7B3E7B",
"5 c #496749674967",
"6 c #4AB64AB64AB6",
"7 c #4BA84BA84BA8",
"8 c #50D750D750D7",
"9 c #560B560B560B",
"0 c #56D356D356D3",
"q c #58D158D158D1",
"w c #5A445A445A44",
"e c #5AD65AD65AD6",
"r c #618861886188",
"t c #67C267C267C2",
"y c #69CC69CC69CC",
"u c #6BC96BC96BC9",
"i c #6E926E926E92",
"p c #6F736F736F73",
"a c #777477747774",
"s c #79A779A779A7",
"d c #E79DB2CA4924",
"f c #853685368536",
"g c #85F385F385F3",
"h c #86B486B486B4",
"j c #8A0C8A0C8A0C",
"k c #8AC08AC08AC0",
"l c #8D438D438D43",
"z c #8FFC8FFC8FFC",
"x c #912991299129",
"c c #974997499749",
"v c #996699669966",
"b c #9E799E799E79",
"n c #A53BA53BA53B",
"m c #A8DAA8DAA8DA",
"M c #AA72AA72AA72",
"N c #B20CB20CB20C",
"B c #B57EB57EB57E",
"V c #B6FEB6FEB6FE",
"C c #BAAABAAABAAA",
"Z c #BC67BC67BC67",
"A c #C0DCC0DCC0DC",
"S c #C938C938C938",
"D c #CBF3CBF3CBF3",
"F c #CF3DCF3DCF3D",
"G c #D554D554D554",
"H c #D5DCD5DCD5DC",
"J c #D80BD80BD80B",
"K c #DC8FDC8FDC8F",
"L c #E06DE06DE06D",
"P c #E98DE98DE98D",
"I c #EAAAEAAAEAAA",
"U c #F1F9F1F9F1F9",
"Y c #F48CF48CF48C",
"T c #F6DFF6DFF6DF",
"R c #F841F841F841",
"E c #F92CF92CF92C",
"W c #FA6FFA6FFA6F",
"Q c #FB9EFB9EFB9E",
"! c #FC8CFC8CFC8C",
"~ c #FD74FD74FD74",
"^ c #FE91FE91FE91",
"/ c #FF43FF43FF43",
"( c gray100",
/* pixels */
"ddddddddddddddddd  ddddddddddddddddd",
"ddddddddddddddddd  ddddddddddddddddd",
"dddddddddddddd        dddddddddddddd",
"ddddddddddd              ddddddddddd",
"ddddddddd                  ddddddddd",
"dddddddd            rrrr    dddddddd",
"ddddddd            rrrrrrr   ddddddd",
"dddddd            rrrbbbbrr   dddddd",
"ddddd             rrbbbbbbrr   ddddd",
"dddd      @eht<   rbbFPPJbbr    dddd",
"dddd     9(((W(n  rbbH(WLFbbr   dddd",
"ddd     3(((((((y rnNW((LFbbr    ddd",
"ddd     Y((h*6((( V(((((LFFbr    ddd",
"ddd    ;(((   Y((@V(((((LFbbr    ddd",
"dd     8W(z9hy1   =hVH((Lbbbr     dd",
"dd     sWT(W(W(D@  reG((Abbrr     dd",
"dd     k((W(K(WWZ   rZ((Abrr      dd",
"       h((T+ @(((;   z(Wvrr         ",
"       uTTu   m((6   l(We           ",
"dd     3(Wl   D((3   l(We         dd",
"dd     +(((6@e(((@   z(Te         dd",
"dd      a((((((Wk    z(We         dd",
"ddd      n(W(((co    z(We        ddd",
"ddd       :uz9>      7zz,        ddd",
"ddd                              ddd",
"dddd                            dddd",
"dddd                            dddd",
"ddddd                          ddddd",
"dddddd                        dddddd",
"ddddddd                      ddddddd",
"dddddddd                    dddddddd",
"ddddddddd                  ddddddddd",
"ddddddddddd              ddddddddddd",
"dddddddddddddd        dddddddddddddd",
"ddddddddddddddddd  ddddddddddddddddd",
"ddddddddddddddddd  ddddddddddddddddd"
};
