/* XPM */
static char *bmoku-0-LB-225[] = {
/* columns rows colors chars-per-pixel */
"36 36 121 2",
"   c black",
".  c #014D014D014D",
"X  c #022602260226",
"o  c #03FD03FD03FD",
"O  c #04C104C104C1",
"+  c #086108610861",
"@  c #0C8B0C8B0C8B",
"#  c #0F200F200F20",
"$  c #104810481048",
"%  c #117B117B117B",
"&  c #122312231223",
"*  c #137713771377",
"=  c #143F143F143F",
"-  c #169C169C169C",
";  c #181118111811",
":  c #187E187E187E",
">  c #193B193B193B",
",  c #1B331B331B33",
"<  c #208020802080",
"1  c #259725972597",
"2  c #269426942694",
"3  c #2A3F2A3F2A3F",
"4  c #2E3D2E3D2E3D",
"5  c #329332933293",
"6  c #36BF36BF36BF",
"7  c #3B723B723B72",
"8  c #3DB73DB73DB7",
"9  c #432243224322",
"0  c #471A471A471A",
"q  c #47D847D847D8",
"w  c #4AA74AA74AA7",
"e  c #4EA14EA14EA1",
"r  c #4FE94FE94FE9",
"t  c #51E351E351E3",
"y  c #55D955D955D9",
"u  c #57D257D257D2",
"i  c #5A425A425A42",
"p  c #5E715E715E71",
"a  c #618561856185",
"s  c #648864886488",
"d  c #6AE16AE16AE1",
"f  c #712E712E712E",
"g  c #72D172D172D1",
"h  c #73BE73BE73BE",
"j  c #754675467546",
"k  c #7B347B347B34",
"l  c #7BAB7BAB7BAB",
"z  c #7CA57CA57CA5",
"x  c #7DD97DD97DD9",
"c  c #7FFE7FFE7FFE",
"v  c #E79DB2CA4924",
"b  c #E7C8B3534A68",
"n  c #E7FEB3FE4BFD",
"m  c #E868B54E4F19",
"M  c #E8C6B67651D6",
"N  c #E9F5BA375ABA",
"B  c #EE02C7097918",
"V  c #863E863E863E",
"C  c #88A688A688A6",
"Z  c #89EB89EB89EB",
"A  c #8F718F718F71",
"S  c #8FF78FF78FF7",
"D  c #920992099209",
"F  c #94C794C794C7",
"G  c #96AA96AA96AA",
"H  c #9BFD9BFD9BFD",
"J  c #9E799E799E79",
"K  c #9EA49EA49EA4",
"L  c #A41AA41AA41A",
"P  c #AA1EAA1EAA1E",
"I  c #ABD1ABD1ABD1",
"U  c #AE90AE90AE90",
"Y  c #B1A0B1A0B1A0",
"T  c #B1B5B1B5B1B5",
"R  c #B323B323B323",
"E  c #B3F7B3F7B3F7",
"W  c #B581B581B581",
"Q  c #B5E4B5E4B5E4",
"!  c #B9ABB9ABB9AB",
"~  c #BA43BA43BA43",
"^  c #C09FC09FC09F",
"/  c #EF5CCB508339",
"(  c #F045CE328A0C",
")  c #F130D11C90F3",
"_  c #F466DB47A907",
"`  c #F4A1DC00AABF",
"'  c #F554DE38AFFF",
"]  c #F73BE43DBE42",
"[  c #C4A3C4A3C4A3",
"{  c #C776C776C776",
"}  c #C88EC88EC88E",
"|  c #C941C941C941",
" . c #CC2ACC2ACC2A",
".. c #CF43CF43CF43",
"X. c #D17CD17CD17C",
"o. c #D495D495D495",
"O. c #D531D531D531",
"+. c #D679D679D679",
"@. c #D8A5D8A5D8A5",
"#. c #DBDEDBDEDBDE",
"$. c #DED6DED6DED6",
"%. c #F8EFE9A3CB0A",
"&. c #E4D4E4D4E4D4",
"*. c #E544E544E544",
"=. c #EB24EB24EB24",
"-. c #ED72ED72ED72",
";. c #F0C7F0C7F0C7",
":. c #FC3CF415E3C7",
">. c #FD71F7E9ECD9",
",. c #F3B1F3B1F3B1",
"<. c #F53AF53AF53A",
"1. c #F993F993F993",
"2. c #FA4CFA4CFA4C",
"3. c #FB7BFB7BFB7B",
"4. c #FC50FC50FC50",
"5. c #FF6AFE27FBA0",
"6. c #FD88FD88FD88",
"7. c #FEC1FEC1FEC1",
"8. c #FFB6FF19FDDF",
"9. c #FF7DFF7DFF7D",
"0. c gray100",
/* pixels */
"v v v v v v v v v v v v v v v v v     v v v v v v v v v v v v v v v v v ",
"v v v v v v v v v v v v v v v v v     v v v v v v v v v v v v v v v v v ",
"v v v v v v v v v v v v v v                 v v v v v v v v v v v v v v ",
"v v v v v v v v v v v                             v v v v v v v v v v v ",
"v v v v v v v v v                                     v v v v v v v v v ",
"v v v v v v v v                         a a a a         v v v v v v v v ",
"v v v v v v v                         a a a a a a a       v v v v v v v ",
"v v v v v v                         a a a J J J J a a       v v v v v v ",
"v v v v b                           a a J J K K J J a a       b v v v v ",
"v v v v 5 h S j 5             6 h S I Q J  .o. .#.O.O.^ S S S S ( v v v ",
"b b N >.4.4.4.3.4.} @     > *.4.3.4.4.4.*.O.o. .-.4.4.4.4.4.4.4.%.v v v ",
"v n 4.4.4.4.4.4.4.3.}   O 4.4.4.4.4.4.4.4.<. . .3.4.4.4.4.4.4.4.E v v v ",
"v B 4.4.4.4 & y 4.4.4.3 9 4.4.4.4 & F 4.4.4.#.o.4.4.4.U c 3 3 3 : b v v ",
"v _ 4.4.w       ^ 4.4.t C 4.4.w     a O.4.4.#.o.4.4.,.K a         b v v ",
"v ] 4.4.1       ^ 4.4.8 L 4.4.1       #.4.4.Q O.4.4.#.*.*.F t       v v ",
"v n - -       d 4.4.4.& + - -     O d 4.4.4.L ! 4.4.4.4.4.4.4.*.=   v b ",
"b b       9 <.4.4.4.a           8 <.4.4.4.J a [ 4.4.4.} Q 4.4.4. .o b b ",
"      > ! 4.4.3.4.i         - ^ 4.4.4.4.i   a F #.O.j     & 4.4.4.<     ",
"    3 4.3.3.4.S -         1 4.4.3.4.S -                     U 4.4.r     ",
"b M 4.4.4.U >           @ 4.4.4.U -           4.4.4.O        .4.4.6 b v ",
"b ) 4.4.c 4 3 4 3 4 3 + s 4.4.c 4 3 4 3 3 3 + } 4.4.Z > , d 4.4.4.= b v ",
"v :.4.4.4.4.4.4.4.4.4.i #.4.4.4.4.4.4.4.4.4.i 7 4.4.3.4.4.4.4.4.h   b b ",
"n B 4.4.4.4.4.4.4.4.3.i 4.4.4.4.4.4.4.4.4.4.i   t 4.4.4.4.4.4.c   b v v ",
"n _ ] S S S S S S S S 4 Z S S S S S S S S S 5     @ 0 c c w ,     v v v ",
"n v v                                                             b v v ",
"v v v v                                                         v v v v ",
"v v v v                                                         v v v v ",
"v v v v b                                                     n v v v v ",
"v v v v b v                                                 n v v v v v ",
"v v v v v v b                                             n v v v v v v ",
"v v v v v v b v                                         v v v v v v v v ",
"v v v v v v v v n                                     v v v v v v v v v ",
"v v v v v v v v v v v                             v v v v v v v v v v v ",
"v v v v v v v v v v v v b b                 v v b b v v v v v v v v v v ",
"v v v v v v v v v v v v v v b b b     v b v v v v v v v v v v v v v v v ",
"v v v v v v v v v v v v v v v v b     v b v v v v v v v v v v v v v v v "
};
