/* XPM */
static char *bmoku-0-LB-36[] = {
/* columns rows colors chars-per-pixel */
"36 36 104 2",
"   c #000100010001",
".  c #017D017D017D",
"X  c #03B003B003B0",
"o  c #053405340534",
"O  c #068406840684",
"+  c #07E207E207E2",
"@  c #098F098F098F",
"#  c #0B210B210B21",
"$  c #0EAE0EAE0EAE",
"%  c #108710871087",
"&  c #137B137B137B",
"*  c #159115911591",
"=  c #166516651665",
"-  c #17B317B317B3",
";  c #1CB01CB01CB0",
":  c #1E5D1E5D1E5D",
">  c #20F920F920F9",
",  c #216F216F216F",
"<  c #263126312631",
"1  c #2D932D932D93",
"2  c #313531353135",
"3  c #327B327B327B",
"4  c #3AA53AA53AA5",
"5  c #3C413C413C41",
"6  c #3DE63DE63DE6",
"7  c #3F053F053F05",
"8  c #449D449D449D",
"9  c #4B1A4B1A4B1A",
"0  c #4B684B684B68",
"q  c #4F664F664F66",
"w  c #5A835A835A83",
"e  c #5BEC5BEC5BEC",
"r  c #5D0D5D0D5D0D",
"t  c #603960396039",
"y  c #608360836083",
"u  c #618861886188",
"i  c #66BA66BA66BA",
"p  c #685A685A685A",
"a  c #6E0D6E0D6E0D",
"s  c #6F676F676F67",
"d  c #726F726F726F",
"f  c #780B780B780B",
"g  c #7D967D967D96",
"h  c #7F6D7F6D7F6D",
"j  c #7FE97FE97FE9",
"k  c #E79DB2CA4924",
"l  c #82EA82EA82EA",
"z  c #85B685B685B6",
"x  c #8C948C948C94",
"c  c #8FA08FA08FA0",
"v  c #934393439343",
"b  c #97B897B897B8",
"n  c #9D739D739D73",
"m  c #9E7B9E7B9E7B",
"M  c #A217A217A217",
"N  c #A39AA39AA39A",
"B  c #A452A452A452",
"V  c #A6F6A6F6A6F6",
"C  c #A98DA98DA98D",
"Z  c #AC85AC85AC85",
"A  c #AD0AAD0AAD0A",
"S  c #B132B132B132",
"D  c #B1E5B1E5B1E5",
"F  c #B514B514B514",
"G  c #BAABBAABBAAB",
"H  c #C03DC03DC03D",
"J  c #C22AC22AC22A",
"K  c #C599C599C599",
"L  c #C8FEC8FEC8FE",
"P  c #CB70CB70CB70",
"I  c #CBD6CBD6CBD6",
"U  c #CF3CCF3CCF3C",
"Y  c gray82",
"T  c #D41DD41DD41D",
"R  c #D842D842D842",
"E  c #DA6DDA6DDA6D",
"W  c #DCC1DCC1DCC1",
"Q  c #DD05DD05DD05",
"!  c #DE43DE43DE43",
"~  c #DF2EDF2EDF2E",
"^  c #E138E138E138",
"/  c #E4B2E4B2E4B2",
"(  c #E540E540E540",
")  c #E626E626E626",
"_  c #E898E898E898",
"`  c #E94EE94EE94E",
"'  c #E9F9E9F9E9F9",
"]  c #ED24ED24ED24",
"[  c #EE85EE85EE85",
"{  c #F0C1F0C1F0C1",
"}  c #F289F289F289",
"|  c #F30CF30CF30C",
" . c #F440F440F440",
".. c #F645F645F645",
"X. c #F79AF79AF79A",
"o. c #F898F898F898",
"O. c #F980F980F980",
"+. c #FA2EFA2EFA2E",
"@. c #FB7FFB7FFB7F",
"#. c #FCA2FCA2FCA2",
"$. c #FD94FD94FD94",
"%. c #FE87FE87FE87",
"&. c #FF9BFF9BFF9B",
"*. c gray100",
/* pixels */
"k k k k k k k k k k k k k k k k k     k k k k k k k k k k k k k k k k k ",
"k k k k k k k k k k k k k k k k k     k k k k k k k k k k k k k k k k k ",
"k k k k k k k k k k k k k k                 k k k k k k k k k k k k k k ",
"k k k k k k k k k k k                             k k k k k k k k k k k ",
"k k k k k k k k k                                     k k k k k k k k k ",
"k k k k k k k k                         y y i y         k k k k k k k k ",
"k k k k k k k                         y i y y y y y       k k k k k k k ",
"k k k k k k                         y y y m m m m y y       k k k k k k ",
"k k k k k                           y y m m m m m m y y       k k k k k ",
"k k k k           1 w c t 2         y m m E ( ( ~ B m i         k k k k ",
"k k k k         Z *.*.*...*.A       y B | *.*.*.*.*.S m y       k k k k ",
"k k k         j *.| *.*.*.*.*.f     y ..*.O.*.*.*.O.*.m y         k k k ",
"k k k         *.*.*.y $ a *.~ *.    B *.{ *.R Y *.*.*.G y         k k k ",
"k k k         *._ *.o   o *.*.*.&   { *.*.~ U U ~ *.*.E y         k k k ",
"k k           *.*.*.    * *.( *.o   *.O.*.S P ( ~ B m m i           k k ",
"k k                 F ( *.*.*.l     *.{ *.*.*.*.*.*.J y y           k k ",
"k k                 *.*.*.*.*.t     *.*.O.*.*.*.*.O.*.j             k k ",
"                    f v K *.O.*.t   *.*.*.q y y J *.~ F                 ",
"              b v c       0 *.Y ..  *./ *.o     > *.~ *.                ",
"k k           *.| *.o     < *.E *.  *...*.&     4 *.E |             k k ",
"k k           *.*.*.p * ; K *.P F   A *.~ A : > ( *.R m             k k ",
"k k           c *...*.*.*.*.| *.2   & *.*._ *.*.*.( *.*             k k ",
"k k k           Z *.*.*...*.*.t       6 *.*.*.O.*.*.6             k k k ",
"k k k             : i l a 8 #           # 0 j d 6 o               k k k ",
"k k k                                                             k k k ",
"k k k k                                                         k k k k ",
"k k k k                                                         k k k k ",
"k k k k k                                                     k k k k k ",
"k k k k k k                                                 k k k k k k ",
"k k k k k k k                                             k k k k k k k ",
"k k k k k k k k                                         k k k k k k k k ",
"k k k k k k k k k                                     k k k k k k k k k ",
"k k k k k k k k k k k                             k k k k k k k k k k k ",
"k k k k k k k k k k k k k k                 k k k k k k k k k k k k k k ",
"k k k k k k k k k k k k k k k k k     k k k k k k k k k k k k k k k k k ",
"k k k k k k k k k k k k k k k k k     k k k k k k k k k k k k k k k k k "
};
