/* XPM */
static char *bmoku-0-LB-222[] = {
/* columns rows colors chars-per-pixel */
"36 36 101 2",
"   c #000100010001",
".  c #01C601C601C6",
"X  c #022602260226",
"o  c #03FD03FD03FD",
"O  c #086208620862",
"+  c #0C580C580C58",
"@  c #0F200F200F20",
"#  c #117B117B117B",
"$  c #137713771377",
"%  c #144014401440",
"&  c #16AB16AB16AB",
"*  c #189E189E189E",
"=  c #259725972597",
"-  c #269426942694",
";  c #2A402A402A40",
":  c #2E3D2E3D2E3D",
">  c #328E328E328E",
",  c #3DA83DA83DA8",
"<  c #432243224322",
"1  c #47D847D847D8",
"2  c #51E351E351E3",
"3  c #55D855D855D8",
"4  c #57D257D257D2",
"5  c #5A425A425A42",
"6  c #5E725E725E72",
"7  c #618561856185",
"8  c #62D962D962D9",
"9  c #648864886488",
"0  c #6B126B126B12",
"q  c #6C576C576C57",
"w  c #6F546F546F54",
"e  c #712E712E712E",
"r  c #754675467546",
"t  c #7FFE7FFE7FFE",
"y  c #E79DB2CA4924",
"u  c #E7C8B3534A68",
"i  c #E7FEB3FE4BFD",
"p  c #E868B54E4F19",
"a  c #E8CCB68A5205",
"s  c #E9F5BA375ABA",
"d  c #EB3DBE456455",
"f  c #EC05C0BC6A2C",
"g  c #EE02C7097918",
"h  c #863E863E863E",
"j  c #87CD87CD87CD",
"k  c #88A688A688A6",
"l  c #8F718F718F71",
"z  c #8FF58FF58FF5",
"x  c #96AA96AA96AA",
"c  c #9BFD9BFD9BFD",
"v  c #9E799E799E79",
"b  c #9EE59EE59EE5",
"n  c #A1A7A1A7A1A7",
"m  c #A41AA41AA41A",
"M  c #A630A630A630",
"N  c #A796A796A796",
"B  c #AA1EAA1EAA1E",
"V  c #ACB4ACB4ACB4",
"C  c #AE91AE91AE91",
"Z  c #B1A0B1A0B1A0",
"A  c #B1BBB1BBB1BB",
"S  c #B5E4B5E4B5E4",
"D  c #B9ABB9ABB9AB",
"F  c #B9DBB9DBB9DB",
"G  c #C09FC09FC09F",
"H  c #EF5CCB508339",
"J  c #EF6ACB7D83A4",
"K  c #F036CE03899D",
"L  c #F130D11C90F3",
"P  c #F466DB47A907",
"I  c #F4A1DC00AABF",
"U  c #F554DE38AFFF",
"Y  c #F73BE43DBE42",
"T  c #C777C777C777",
"R  c #C940C940C940",
"E  c #CF3CCF3CCF3C",
"W  c #CFFECFFECFFE",
"Q  c #D1A7D1A7D1A7",
"!  c #D452D452D452",
"~  c #D67CD67CD67C",
"^  c #D895D895D895",
"/  c #DC06DC06DC06",
"(  c #DED6DED6DED6",
")  c #E52FE52FE52F",
"_  c #E8CEE8CEE8CE",
"`  c #EB24EB24EB24",
"'  c #EE78EE78EE78",
"]  c #FC3CF415E3C7",
"[  c #FD71F7E9ECD9",
"{  c #F3B1F3B1F3B1",
"}  c #F53AF53AF53A",
"|  c #F990F990F990",
" . c #FA75FA75FA75",
".. c #FB7BFB7BFB7B",
"X. c #FC1EFC1EFC1E",
"o. c #FF6AFE27FBA0",
"O. c #FD89FD89FD89",
"+. c #FED7FED7FED7",
"@. c #FFB6FF19FDDF",
"#. c #FF97FF97FF97",
"$. c gray100",
/* pixels */
"y y y y y y y y y y y y y y y y y     y y y y y y y y y y y y y y y y y ",
"y y y y y y y y y y y y y y y y y     y y y y y y y y y y y y y y y y y ",
"y y y y y y y y y y u u y y                 y y y y y y y y y y y y y y ",
"y y y y y y y y u u u                             y y y y y y y y y y y ",
"y y y y y y y y u                                     y y y y y y y y y ",
"y y y y y y y y                         8 8 8 8         y y y y y y y y ",
"y y y y y y y                         8 8 8 8 6 8 8       y y y y y y y ",
"y y y y y y                         8 8 6 v v v v 8 8       y y y y y y ",
"y y y y y                           8 8 v v v v v v 8 8       y y y y y ",
"y y y y > r z r >             > r l B S v E E E E v S B l r >   y y y y ",
"y u s [ X.X.X...X.T +     * ` X.} X.X.X.` Q E E Q X.X.X.X.X.X.T a y y y ",
"y i X.X.X.X.X.X.X...T     ..X.X.X.X.X.X.X.} E E X.X.X.X.X.X.X.X.R y y y ",
"y g X.X.X.: $ 3 X.X.X.; < X.X.X.: $ x X.X.X./ / X.X.X.V q 3 X.X.X.d u y ",
"y P X.X.1       G X...2 k X.X.1     8 ~ X.X.( ` X.X.G v 9   G X...J u y ",
"y Y X.X.-       T X.X., M X.X.-       / X.X.S ' X.X.V v 8   T X.X.< y y ",
"y i & &       q X.X.X.$ O & &       q X.X.X.M m M B v 8 8 q X.X.X.@ y y ",
"y u       < } X.X.X.8           , } X.X.X.v 8 v v v 8 k { X.X.X.6   y y ",
"      * F X.X.X.X.3         & G X.X.X.X.5   8 8 8 q ~ X.X...X.5         ",
"    ; X.X...X.z &         - X.X.X.X.z &         - X.X...X.z &           ",
"y a X.X.X.A &           + X.X.X.A &           O X.X.X.S *           y y ",
"y L X.X.h ; ; : : : ; O 9 X.X.h ; ; : : ; ; O 9 X.X.h : ; : ; ; ; O y y ",
"y ] X.X.X.X.X.X.X.X.X.5 ( X.X.X.X.X.X.X.X.X.5 / X.X.X.X.X.X.X.X.X.5 y y ",
"u g X.X.X.X.X.X.X.X...5 X.X.X.X.X.X.X.X.X.X.6 X.X.X.X.X.X.X.X.X.[ K y y ",
"u P Y z z z z z z z z : k z z z z z z z z z : k z z z z z z z z l g y y ",
"u u y                                                             y y y ",
"u u y y                                                         y y y y ",
"y y y y                                                         y y y y ",
"y y y y u                                                     i y y y y ",
"y y y y u y                                                 u u y y y y ",
"y y y y y y y                                             u u u y y y y ",
"y y y y y y y y                                         y y u y y y y y ",
"y y y y y y y y u                                     y y y y y y y y y ",
"y y y y y y y y y y y                             y y y y y y y y y y y ",
"y y y y y y y y y y y y y y                 y y y y y y y y y y y y y y ",
"y y y y y y y y y y y y y y y y y     y y y y y y y y y y y y y y y y y ",
"y y y y y y y y y y y y y y y y y     y y y y y y y y y y y y y y y y y "
};
