/* XPM */
static char *bmoku-0-LB-335[] = {
/* columns rows colors chars-per-pixel */
"36 36 127 2",
"   c #000100010001",
".  c #012F012F012F",
"X  c #039403940394",
"o  c #04C104C104C1",
"O  c #075907590759",
"+  c #082408240824",
"@  c #0A790A790A79",
"#  c #0CC50CC50CC5",
"$  c #0D5A0D5A0D5A",
"%  c #104810481048",
"&  c #117E117E117E",
"*  c #122912291229",
"=  c #132413241324",
"-  c #143A143A143A",
";  c #181118111811",
":  c #18A618A618A6",
">  c #197F197F197F",
",  c #1B331B331B33",
"<  c #1CD51CD51CD5",
"1  c #1EAE1EAE1EAE",
"2  c #1FC71FC71FC7",
"3  c #208020802080",
"4  c #264126412641",
"5  c #2A3D2A3D2A3D",
"6  c #2B322B322B32",
"7  c #2DF02DF02DF0",
"8  c #2E7A2E7A2E7A",
"9  c #304D304D304D",
"0  c #347B347B347B",
"q  c #36BF36BF36BF",
"w  c #3BDC3BDC3BDC",
"e  c #3CEB3CEB3CEB",
"r  c #3EFA3EFA3EFA",
"t  c #410E410E410E",
"y  c #443544354435",
"u  c #471A471A471A",
"i  c #47A647A647A6",
"p  c #4A994A994A99",
"a  c #4E894E894E89",
"s  c #4FE94FE94FE9",
"d  c #507C507C507C",
"f  c #52E352E352E3",
"g  c #54C454C454C4",
"h  c #58B858B858B8",
"j  c #618561856185",
"k  c #66AB66AB66AB",
"l  c #67D767D767D7",
"z  c #68D568D568D5",
"x  c #6A7F6A7F6A7F",
"c  c #717771777177",
"v  c #731073107310",
"b  c #73DE73DE73DE",
"n  c #75B575B575B5",
"m  c #78AA78AA78AA",
"M  c #7B347B347B34",
"N  c #7BAB7BAB7BAB",
"B  c #7CA57CA57CA5",
"V  c #7DD97DD97DD9",
"C  c #E79DB2CA4924",
"Z  c #E7F4B3DE4BB2",
"A  c #E850B5014E63",
"S  c #E89AB5EC508E",
"D  c #EC0AC0CE6A56",
"F  c #EC9DC29E6EA0",
"G  c #EDCFC669779B",
"H  c #847784778477",
"J  c #867E867E867E",
"K  c #86FD86FD86FD",
"L  c #88AB88AB88AB",
"P  c #89EB89EB89EB",
"I  c #8A9C8A9C8A9C",
"U  c #8FF38FF38FF3",
"Y  c #920992099209",
"T  c #94C794C794C7",
"R  c #97B897B897B8",
"E  c #9E799E799E79",
"W  c #A274A274A274",
"Q  c #A567A567A567",
"!  c #A62EA62EA62E",
"~  c #ABD1ABD1ABD1",
"^  c #AE90AE90AE90",
"/  c #AFD2AFD2AFD2",
"(  c #B323B323B323",
")  c #B3F7B3F7B3F7",
"_  c #B581B581B581",
"`  c #BA37BA37BA37",
"'  c #BD13BD13BD13",
"]  c #BDC8BDC8BDC8",
"[  c #EF82CBC98458",
"{  c #F045CE328A0C",
"}  c #F19AD2699409",
"|  c #F472DB6DA962",
" . c #C4A3C4A3C4A3",
".. c #C5EDC5EDC5ED",
"X. c #C88EC88EC88E",
"o. c #CC2ACC2ACC2A",
"O. c #CDC9CDC9CDC9",
"+. c #CF41CF41CF41",
"@. c #D05BD05BD05B",
"#. c #D152D152D152",
"$. c #D2E1D2E1D2E1",
"%. c #D531D531D531",
"&. c #D675D675D675",
"*. c #D8ADD8ADD8AD",
"=. c #D9F7D9F7D9F7",
"-. c #DBDEDBDEDBDE",
";. c #DE91DE91DE91",
":. c #F8EFE9A3CB0A",
">. c #E0EAE0EAE0EA",
",. c #E4D4E4D4E4D4",
"<. c #E54EE54EE54E",
"1. c #E9A3E9A3E9A3",
"2. c #ED3CED3CED3C",
"3. c #F0C7F0C7F0C7",
"4. c #F442F442F442",
"5. c #F7A9F7A9F7A9",
"6. c #F858F858F858",
"7. c #F966F966F966",
"8. c #FA5FFA5FFA5F",
"9. c #FB5DFB5DFB5D",
"0. c #FC57FC57FC57",
"q. c #FD73FD73FD73",
"w. c #FE83FE83FE83",
"e. c #FF9EFECCFD27",
"r. c #FFBDFF2FFE12",
"t. c #FF6EFF6EFF6E",
"y. c gray100",
/* pixels */
"C C C C C C C C C C C C C C C C C     C C C C C C C C C C C C C C C C C ",
"C C C C C C C C C C C C C C C C C     C C C C C C C C C C C C C C C C C ",
"C C C C C C C C C C C C C C                 C C C C C C C C C C C C C C ",
"C C C C C C C C C C C                             C C C C C C C C C C C ",
"C C C C C C C C C                                     C C C C C C C C C ",
"C C C C C C C C                         j j j j         C C C C C C C C ",
"C C C C C C C                         j j j j j j j       C C C C C C C ",
"C C C C C C                         j j j E E E E j j       C C C C C C ",
"C C C C C                           j j E E E E E E j j       C C C C C ",
"C C C A y c n p @           @ y n n U W E +.+.+.=.%.%.` U U U U { C C C ",
"C C F y.y.y.y.y.y.i       q y.y.y.y.y.y.` +.+.+.2.y.y.y.y.y.y.y.:.C C C ",
"C C y.y.5.y.y.7.y.y.-     7.y.7.y.y.7.y.y.#.+.+.7.y.y.y.y.y.y.y.( C C C ",
"C G y.y.y.< : 2.y.y.d   y y.y.y.< : 5.y.y.;.+.+.y.y.y.^ n 5 5 5 : C C C ",
"C } y.7.l     z 5.y.I   z 7.7.z     W 7.y.<.+.#.y.y.2.E l         C C C ",
"C | y.y.g     H 7.5.l   H y.y.g     H y.y. .E %.y.y.=.<.<.U s       C C ",
"C C     5 =.6.y.y.y.%         5 =.5.y.y.y.Q E _ y.y.y.y.y.y.y.<.-   C C ",
"C C     w y.y.y.y.+.:         w y.y.y.y.;.c j  .y.y.y.o.( y.7.y.+.  C C ",
"        < U Q 7.y.y.y.o       < U Q 7.y.7.y.l T %.#.c     $ y.y.y.<     ",
"  s T R 9       +.y.y.w s R T 9       #.y.y.w               ~ y.y.s     ",
"C | y.7.c       ^ y.y.s H y.7.c       ^ y.y.s y.y.y.o       o.y.y.q C C ",
"C [ y.y.y.4 % i y.y.y.< d y.y.y.4 % i y.y.y.3 +.y.y.I - : z y.y.y.% C C ",
"C S y.y.7.y.y.y.y.7.]   @ y.y.7.y.y.y.y.7.`   w y.y.7.y.y.y.y.y.n   C C ",
"C C D y.y.y.y.y.y.] $     8 y.y.y.y.7.y.] $     s y.y.y.y.y.y.B   C C C ",
"C C C o w n H h 8           @ w c I h 8           $ p n B p :     C C C ",
"C C C                                                             C C C ",
"C C C C                                                         C C C C ",
"C C C C                                                         C C C C ",
"C C C C C                                                     C C C C C ",
"C C C C C C                                                 C C C C C C ",
"C C C C C C C                                             C C C C C C C ",
"C C C C C C C C                                         C C C C C C C C ",
"C C C C C C C C C                                     C C C C C C C C C ",
"C C C C C C C C C C C                             C C C C C C C C C C C ",
"C C C C C C C C C C C C C C                 C C C C C C C C C C C C C C ",
"C C C C C C C C C C C C C C C C C     C C C C C C C C C C C C C C C C C ",
"C C C C C C C C C C C C C C C C C     C C C C C C C C C C C C C C C C C "
};
