/* XPM */
static char *bmoku-0-LB-334[] = {
/* columns rows colors chars-per-pixel */
"36 36 100 2",
"   c #000100010001",
".  c #013D013D013D",
"X  c #039403940394",
"o  c #075907590759",
"O  c #082408240824",
"+  c #0A790A790A79",
"@  c #0D5A0D5A0D5A",
"#  c #117E117E117E",
"$  c #123012301230",
"%  c #132413241324",
"&  c #18CA18CA18CA",
"*  c #19C219C219C2",
"=  c #1CD51CD51CD5",
"-  c #1EAE1EAE1EAE",
";  c #1FC71FC71FC7",
":  c #264126412641",
">  c #2B322B322B32",
",  c #2DF02DF02DF0",
"<  c #2E5C2E5C2E5C",
"1  c #304D304D304D",
"2  c #347B347B347B",
"3  c #3C103C103C10",
"4  c #3CEB3CEB3CEB",
"5  c #3EFA3EFA3EFA",
"6  c #410E410E410E",
"7  c #443544354435",
"8  c #47A647A647A6",
"9  c #4A8B4A8B4A8B",
"0  c #4B734B734B73",
"q  c #4E834E834E83",
"w  c #507C507C507C",
"e  c #52E352E352E3",
"r  c #54C454C454C4",
"t  c #58B858B858B8",
"y  c #5A445A445A44",
"u  c #618561856185",
"i  c #66AB66AB66AB",
"p  c #67D767D767D7",
"a  c #68D568D568D5",
"s  c #69EB69EB69EB",
"d  c #717771777177",
"f  c #733073307330",
"g  c #73EF73EF73EF",
"h  c #75B575B575B5",
"j  c #78AA78AA78AA",
"k  c #E79DB2CA4924",
"l  c #E7F4B3DE4BB2",
"z  c #E850B5014E63",
"x  c #E89AB5EC508E",
"c  c #EC0AC0CE6A56",
"v  c #EC9DC29E6EA0",
"b  c #EDCFC669779B",
"n  c #847784778477",
"m  c #867E867E867E",
"M  c #86FD86FD86FD",
"N  c #88A988A988A9",
"B  c #8B078B078B07",
"V  c #8FFC8FFC8FFC",
"C  c #97B897B897B8",
"Z  c #996699669966",
"A  c #9E799E799E79",
"S  c #9ED89ED89ED8",
"D  c #A274A274A274",
"F  c #A50AA50AA50A",
"G  c #A655A655A655",
"H  c #AD30AD30AD30",
"J  c #AFD2AFD2AFD2",
"K  c #B88CB88CB88C",
"L  c #B9C4B9C4B9C4",
"P  c #BD13BD13BD13",
"I  c #BDE6BDE6BDE6",
"U  c #EF82CBC98458",
"Y  c #F19AD2699409",
"T  c #F472DB6DA962",
"R  c #C5EDC5EDC5ED",
"E  c #CDC9CDC9CDC9",
"W  c #CF3CCF3CCF3C",
"Q  c #D067D067D067",
"!  c #D2E1D2E1D2E1",
"~  c #D671D671D671",
"^  c #D970D970D970",
"/  c #D9F7D9F7D9F7",
"(  c #DE91DE91DE91",
")  c #E0EAE0EAE0EA",
"_  c #E9A3E9A3E9A3",
"`  c #EB7EEB7EEB7E",
"'  c #ED06ED06ED06",
"]  c #F442F442F442",
"[  c #F7A9F7A9F7A9",
"{  c #F858F858F858",
"}  c #F925F925F925",
"|  c #FA55FA55FA55",
" . c #FB6CFB6CFB6C",
".. c #FC57FC57FC57",
"X. c #FD77FD77FD77",
"o. c #FE71FE71FE71",
"O. c #FF9EFECCFD27",
"+. c #FFBDFF2FFE12",
"@. c #FF77FF77FF77",
"#. c gray100",
/* pixels */
"k k k k k k k k k k k k k k k k k     k k k k k k k k k k k k k k k k k ",
"k k k k k k k k k k k k k k k k k     k k k k k k k k k k k k k k k k k ",
"k k k k k k k k k k k k k k                 k k k k k k k k k k k k k k ",
"k k k k k k k k k k k                             k k k k k k k k k k k ",
"k k k k k k k k k                                     k k k k k k k k k ",
"k k k k k k k k                         u u u u         k k k k k k k k ",
"k k k k k k k                         u u u u u u u       k k k k k k k ",
"k k k k k k                         u u u S S S S u u       k k k k k k ",
"k k k k k                           u u S S S S S S u u       k k k k k ",
"k k k z 7 d h 0 +           + 7 h h V D S Q E Q E S S u   B V 0 k k k k ",
"k k v #.#.#.#.#.#.0       2 #.#.#.#.#.#.L E Q E E Q S S S #.#.V k k k k ",
"k k #.#.[ #.#.} #.#.%     } #.} #.#.} #.#.Q E Q E Q S H #.#.#.V   k k k ",
"k b #.#.#.= & ' #.} q   7 #.#.#.= & [ #.#.( E E E Q E } #.#.#.V   k k k ",
"k Y #.} p     a } #.B   p #.} p     D } #._ E E Q E ~ #.#.[ #.V   k k k ",
"k T #.#.r     n } } p   n #.#.r     n #.#.R S E E L #.#.^ } #.V     k k ",
"k k     > ^ [ #.#.#.%         > ^ [ #.#.#.G S S G #.#.#.Z } #.V     k k ",
"k k     5 #.#.#.#.E &         5 #.#.#.#.) d u S _ #.#.B y } #.V     k k ",
"        & V G } #.#.#.o       = V G } #.} #.p G #.} P   y } #.V         ",
"  0 C C 1       E #.#.5 0 Z Z ,       Q #.#.3 #.#.#.~ ^ ^ } #.^ ^ a     ",
"l T #.} d       H #.#.0 n #.} d       J #.#.0 #.#.#.#.#.#.#.#.#.#.V k k ",
"k U #.#.#.: % 7 #.#.#.: q #.#.#.: % 7 #.#.#.: V V V V V V } #.V V 0 k k ",
"k x #.#.} #.#.#.#.} L   + #.#.} #.#.#.#.} P             y } #.V     k k ",
"k k c #.#.} #.} #.P @     , #.#.} #.#.#.P @             y } #.V   k k k ",
"k k k o 5 h B y ,           + 5 h B r ,                 , V V 0   k k k ",
"k k k                                                             k k k ",
"k k k k                                                         k k k k ",
"k k k k                                                         k k k k ",
"k k k k k                                                     k k k k k ",
"k k k k k k                                                 k k k k k k ",
"k k k k k k k                                             k k k k k k k ",
"k k k k k k k k                                         k k k k k k k k ",
"k k k k k k k k k                                     k k k k k k k k k ",
"k k k k k k k k k k k                             k k k k k k k k k k k ",
"k k k k k k k k k k k k k k                 k k k k k k k k k k k k k k ",
"k k k k k k k k k k k k k k k k k     k k k k k k k k k k k k k k k k k ",
"k k k k k k k k k k k k k k k k k     k k k k k k k k k k k k k k k k k "
};
