/* XPM */
static char *bmoku-0-LB-360[] = {
/* columns rows colors chars-per-pixel */
"36 36 140 2",
"   c #000100010001",
".  c #013E013E013E",
"X  c #027E027E027E",
"o  c #055905590559",
"O  c #083008300830",
"+  c #0AC70AC70AC7",
"@  c #0D9A0D9A0D9A",
"#  c #10A010A010A0",
"$  c #119011901190",
"%  c #126312631263",
"&  c #132413241324",
"*  c #161016101610",
"=  c #161C161C161C",
"-  c #174F174F174F",
";  c #18CA18CA18CA",
":  c #19AF19AF19AF",
">  c #1CD71CD71CD7",
",  c #1EAE1EAE1EAE",
"<  c #1FA31FA31FA3",
"1  c #225D225D225D",
"2  c #264426442644",
"3  c #290229022902",
"4  c #2B312B312B31",
"5  c #2DF02DF02DF0",
"6  c #304C304C304C",
"7  c #322432243224",
"8  c #34C934C934C9",
"9  c #36C636C636C6",
"0  c #3BC23BC23BC2",
"q  c #3CAC3CAC3CAC",
"w  c #3DA23DA23DA2",
"e  c #3EBA3EBA3EBA",
"r  c #411541154115",
"t  c #443444344434",
"y  c #47DB47DB47DB",
"u  c #49C549C549C5",
"i  c #4AE84AE84AE8",
"p  c #4BDD4BDD4BDD",
"a  c #4DBB4DBB4DBB",
"s  c #4E824E824E82",
"d  c #50A950A950A9",
"f  c #519551955195",
"g  c #54D154D154D1",
"h  c #560B560B560B",
"j  c #56D356D356D3",
"k  c #58D258D258D2",
"l  c #5AD65AD65AD6",
"z  c #60D160D160D1",
"x  c #618661866186",
"c  c #67C567C567C5",
"v  c #68AF68AF68AF",
"b  c #69C669C669C6",
"n  c #6C156C156C15",
"m  c #6EDF6EDF6EDF",
"M  c #6F736F736F73",
"N  c #732E732E732E",
"B  c #73EE73EE73EE",
"V  c #74E474E474E4",
"C  c #75B575B575B5",
"Z  c #777477747774",
"A  c #78AA78AA78AA",
"S  c #79A779A779A7",
"D  c #7B9D7B9D7B9D",
"F  c #E79DB2CA4924",
"G  c #E7F4B3DE4BB2",
"H  c #E850B5014E63",
"J  c #E89AB5EC508E",
"K  c #E999B9125804",
"L  c #EC0AC0CE6A56",
"P  c #EC9DC29E6EA0",
"I  c #EDCFC669779B",
"U  c #845684568456",
"Y  c #853685368536",
"T  c #85F385F385F3",
"R  c #88AB88AB88AB",
"E  c #8A0C8A0C8A0C",
"W  c #8AAF8AAF8AAF",
"Q  c #8C758C758C75",
"!  c #8D478D478D47",
"~  c #8DD58DD58DD5",
"^  c #8FE48FE48FE4",
"/  c #912E912E912E",
"(  c #929592959295",
")  c #943294329432",
"_  c #974A974A974A",
"`  c #97B897B897B8",
"'  c #99F199F199F1",
"]  c #9E7A9E7A9E7A",
"[  c #9ECD9ECD9ECD",
"{  c #A1C0A1C0A1C0",
"}  c #A513A513A513",
"|  c #A61DA61DA61D",
" . c #A7E3A7E3A7E3",
".. c #AA72AA72AA72",
"X. c #AC52AC52AC52",
"o. c #B03BB03BB03B",
"O. c #B1AEB1AEB1AE",
"+. c #BD11BD11BD11",
"@. c #BDC8BDC8BDC8",
"#. c #EF82CBC98458",
"$. c #F19AD2699409",
"%. c #F472DB6DA962",
"&. c #C611C611C611",
"*. c #C938C938C938",
"=. c #CA2CCA2CCA2C",
"-. c #CDC9CDC9CDC9",
";. c #CE4CCE4CCE4C",
":. c #CF44CF44CF44",
">. c #D048D048D048",
",. c #D273D273D273",
"<. c #D2F8D2F8D2F8",
"1. c #D4B2D4B2D4B2",
"2. c #D522D522D522",
"3. c #D628D628D628",
"4. c #D892D892D892",
"5. c #D9F7D9F7D9F7",
"6. c #DC8FDC8FDC8F",
"7. c #DECCDECCDECC",
"8. c #DFC8DFC8DFC8",
"9. c #E17DE17DE17D",
"0. c #E1F3E1F3E1F3",
"q. c #E3B6E3B6E3B6",
"w. c #E6D2E6D2E6D2",
"e. c #EAFBEAFBEAFB",
"r. c #ED06ED06ED06",
"t. c #F426F426F426",
"y. c #F4F6F4F6F4F6",
"u. c #F6DFF6DFF6DF",
"i. c #F77EF77EF77E",
"p. c #F866F866F866",
"a. c #F966F966F966",
"s. c #FA3DFA3DFA3D",
"d. c #FB73FB73FB73",
"f. c #FC75FC75FC75",
"g. c #FD7DFD7DFD7D",
"h. c #FE76FE76FE76",
"j. c #FF9EFECCFD27",
"k. c #FFBDFF2FFE12",
"l. c #FF5DFF5DFF5D",
"z. c gray100",
/* pixels */
"F F F F F F F F F F F F F F F F F     F F F F F F F F F F F F F F F F F ",
"F F F F F F F F F F F F F F F F F     F F F F F F F F F F F F F F F F F ",
"F F F F F F F F F F F F F F                 F F F F F F F F F F F F F F ",
"F F F F F F F F F F F                             F F F F F F F F F F F ",
"F F F F F F F F F                                     F F F F F F F F F ",
"F F F F F F F F                         x x x x         F F F F F F F F ",
"F F F F F F F                         x x x x x x x       F F F F F F F ",
"F F F F F F                         x x x ] ] ] ] x x       F F F F F F ",
"F F F F F                           x x ] ] ] ] ] ] x x       F F F F F ",
"F F F H r N A i +             & l Y { o.] :.:.:.:.] X.} ^ c >   F F F F ",
"F F P z.z.z.z.z.z.y         g z.z.z.z.z.8.:.:.:.:.e.z.z.z.a.z.v F F F F ",
"F F z.z.a.z.z.a.z.z.&     w z.z.a.z.z.z.z.0.:.:.0.z.z.z.z.z.z.z.0 F F F ",
"F I z.z.z.> ; e.z.z.s     i.z.z.Y ; ( z.z.z.:.:.z.z.z.&.m ( z.z.w.F F F ",
"F $.z.a.c     v i.z.W   1 z.z.z.    x i.z.z.<.5.z.z.z.] x + z.z.z.K F F ",
"F %.z.z.g     Y a.i.c   s a.z.^ g Y v Y ] ] ] 0.z.z.1.] x   1.z.z.7 F F ",
"F F     4 5.i.z.z.z.&   A z.i.z.z.z.a.z.8.} ] :.z.a.=.x x   o.z.z.i F F ",
"F F     0 z.z.z.z.:.;   W z.z.a.z.8.z.i.a.1.x 1.z.z.' x     ( z.a.l F F ",
"        > ( } a.z.z.z.o Y z.z.i.@   & z.z.z.C } z.a.}       o.z.z.w     ",
"  s _ _ 5       :.z.z.0 m a.i.v       X.z.z.i s a.z.W       <.z.z.4     ",
"F %.z.a.N       o.z.z.s w z.a.^       &.z.z.0 7 z.z.z.    + z.z.z.* F F ",
"F #.z.z.z.2 @ y z.z.z.> + z.z.z.i & l z.z.z.*   z.z.z.s + A z.z.&.  F F ",
"F J z.z.a.z.z.z.z.a.@.    A z.z.z.z.z.z.z.W     l z.z.z.z.z.z.z.9   F F ",
"F F L z.z.z.z.a.z.@.@       } z.a.z.a.z._ o       N z.z.z.z.z.i   F F F ",
"F F F o w C W l 5             2 m ^ g 4             1 s W i ;     F F F ",
"F F F                                                             F F F ",
"F F F F                                                         F F F F ",
"F F F F                                                         F F F F ",
"F F F F F                                                     F F F F F ",
"F F F F F F                                                 F F F F F F ",
"F F F F F F F                                             F F F F F F F ",
"F F F F F F F F                                         F F F F F F F F ",
"F F F F F F F F F                                     F F F F F F F F F ",
"F F F F F F F F F F F                             F F F F F F F F F F F ",
"F F F F F F F F F F F F F F                 F F F F F F F F F F F F F F ",
"F F F F F F F F F F F F F F F F F     F F F F F F F F F F F F F F F F F ",
"F F F F F F F F F F F F F F F F F     F F F F F F F F F F F F F F F F F "
};
