/* XPM */
static char *bmoku-0-LB-294[] = {
/* columns rows colors chars-per-pixel */
"36 36 117 2",
"   c #000100010001",
".  c #010C010C010C",
"X  c #022602260226",
"o  c #068906890689",
"O  c #07A807A807A8",
"+  c #086508650865",
"@  c #0A0E0A0E0A0E",
"#  c #0BB00BB00BB0",
"$  c #0CCD0CCD0CCD",
"%  c #0DC40DC40DC4",
"&  c #0F200F200F20",
"*  c #101D101D101D",
"=  c #119811981198",
"-  c #137713771377",
";  c #143F143F143F",
":  c #169C169C169C",
">  c #1CE71CE71CE7",
",  c #1DC61DC61DC6",
"<  c #25B525B525B5",
"1  c #269526952695",
"2  c #2A432A432A43",
"3  c #2E742E742E74",
"4  c #2FA82FA82FA8",
"5  c #30FF30FF30FF",
"6  c #328E328E328E",
"7  c #34AF34AF34AF",
"8  c #3AE53AE53AE5",
"9  c #3DA73DA73DA7",
"0  c #3F8B3F8B3F8B",
"q  c #412541254125",
"w  c #45B245B245B2",
"e  c #47D847D847D8",
"r  c #4AEE4AEE4AEE",
"t  c #4B734B734B73",
"y  c #51E351E351E3",
"u  c #55D955D955D9",
"i  c #57D157D157D1",
"p  c #5A435A435A43",
"a  c #5E4E5E4E5E4E",
"s  c #5E715E715E71",
"d  c #618561856185",
"f  c #646764676467",
"g  c #686E686E686E",
"h  c #69EB69EB69EB",
"j  c #6B066B066B06",
"k  c #70CF70CF70CF",
"l  c #754675467546",
"z  c #7AEF7AEF7AEF",
"x  c #7F117F117F11",
"c  c #7FFF7FFF7FFF",
"v  c #E79DB2CA4924",
"b  c #E7C8B3534A68",
"n  c #E7FEB3FE4BFD",
"m  c #E868B54E4F19",
"M  c #E8C6B67651D6",
"N  c #E9F5BA375ABA",
"B  c #EBD2C01C68B1",
"V  c #EE02C7097918",
"C  c #88A688A688A6",
"Z  c #89A589A589A5",
"A  c #8B738B738B73",
"S  c #8BB48BB48BB4",
"D  c #8F008F008F00",
"F  c #8FFC8FFC8FFC",
"G  c #968296829682",
"H  c #996699669966",
"J  c #9E799E799E79",
"K  c #9ED89ED89ED8",
"L  c #A16DA16DA16D",
"P  c #A28AA28AA28A",
"I  c #A4ADA4ADA4AD",
"U  c #A6A3A6A3A6A3",
"Y  c #A985A985A985",
"T  c #ACA5ACA5ACA5",
"R  c #ACF7ACF7ACF7",
"E  c #B1A1B1A1B1A1",
"W  c #B538B538B538",
"Q  c #B66BB66BB66B",
"!  c #B76BB76BB76B",
"~  c #B88CB88CB88C",
"^  c #B94DB94DB94D",
"/  c #B9DDB9DDB9DD",
"(  c #BDA4BDA4BDA4",
")  c #BE21BE21BE21",
"_  c #C09FC09FC09F",
"`  c #F130D11C90F3",
"'  c #F466DB47A907",
"]  c #F4A1DC00AABF",
"[  c #F554DE38AFFF",
"{  c #F73BE43DBE42",
"}  c #C61BC61BC61B",
"|  c #C776C776C776",
" . c #C959C959C959",
".. c #CD70CD70CD70",
"X. c #CF39CF39CF39",
"o. c #D07FD07FD07F",
"O. c #D3ACD3ACD3AC",
"+. c #D4DFD4DFD4DF",
"@. c #D671D671D671",
"#. c #D970D970D970",
"$. c #DB12DB12DB12",
"%. c #DD6ADD6ADD6A",
"&. c #E5C7E5C7E5C7",
"*. c #EB7EEB7EEB7E",
"=. c #FD71F7E9ECD9",
"-. c #F3B2F3B2F3B2",
";. c #F855F855F855",
":. c #F950F950F950",
">. c #FA50FA50FA50",
",. c #FBB7FBB7FBB7",
"<. c #FC72FC72FC72",
"1. c #FF6AFE27FBA0",
"2. c #FDBEFDBEFDBE",
"3. c #FE78FE78FE78",
"4. c #FFB6FF19FDDF",
"5. c #FF66FF66FF66",
"6. c gray100",
/* pixels */
"v v v v v v v v v v v v v v v v v     v v v v v v v v v v v v v v v v v ",
"v v v v v v v v v v v v v v v v v     v v v v v v v v v v v v v v v v v ",
"v v v v v v v v v v v v v v                 v v v v v v v v v v v v v v ",
"v v v v v v v v v v v                             v v v v v v v v v v v ",
"v v v v v v v v v                                     v v v v v v v v v ",
"v v v v v v v v                         d d d d         v v v v v v v v ",
"v v v v v v v                         d d d d d d d       v v v v v v v ",
"v v v v v v                         d d d K K K K d d       v v v v v v ",
"v v v v v                           d d K K K K K K d d       v v v v v ",
"v v v v 6 l F l 6             3 a F I T K X.X.X.X.K K d   Z F r v v v v ",
"v v N =.<.<.<.,.<.| $     - ~ <.<.<.<.<.X.X.X.X.X.X.K K L <.<.F v v v v ",
"v n <.<.<.<.<.<.<.,.|     ~ ,.<.<.<.<.<.<.#.X.X.X.X.K T <.<.<.F   v v v ",
"v V <.<.<.3 - u <.<.<.1 6 <.<.<.w - L <.<.<.O.X.X.X.O.<.<.<.<.F   v v v ",
"v ' <.<.r       ( <.,.y f <.,.Z     d &.<.<.@.X.X.O.@.<.<.<.<.F   v v v ",
"v { <.<.<       } <.<.9 C <.,.h       | <.<.! X.X.! <.<.#.,.<.F     v v ",
"v m : :       j <.<.<.- q <.<.X.    $ <.<.<.( L U <.<.<.H <.<.F     v v ",
"n m       q ;.<.<.<.a   $ <.<.<.%.I <.<.<.<.H K *.<.<.F p ;.<.F     v v ",
"      : ~ <.<.,.<.p       9 <.,.<.<.<.<.<.<.F I <.<.(   p ,.<.F         ",
"    1 <.<.,.<.F :           - h ~ | z @.<.<.3 <.<.<.%.%.#.<.<.%.$.j     ",
"n M <.<.<.E :           6 <.<.T     $ <.<.<.: <.<.<.<.<.<.<.<.<.<.F v v ",
"v ` 1.<.C 1 1 3 1 3 1 # $ <.<.<.7 , T <.<.~ O F F F F F F ,.<.F F t v v ",
"v B <.<.<.<.<.<.<.<.<.p   L <.<.<.<.<.<.<.,             a ,.<.F     v v ",
"v <.<.<.<.<.<.<.<.<.,.p   O O.<.<.<.<.<.9               p ,.<.F   v v v ",
"v ' { F F F F F F F F 3       q l z t $                 3 F F t   v v v ",
"v v v                                                             v v v ",
"v v v v                                                         v v v v ",
"v v v v                                                         v v v v ",
"v v v v n                                                     v v v v v ",
"v v v v v v                                                 v v v v v v ",
"v v v v v v n                                             v v v v v v v ",
"v v v v v v v v                                         v v v v v v v v ",
"v v v v v v v v v                                     v v v v v v v v v ",
"v v v v v v v v v v v                             v v v v v v v v v v v ",
"v v v v v v v v v v v v v v                 v v v v v v v v v v v v v v ",
"v v v v v v v v v v v v v v v v v     v v v v v v v v v v v v v v v v v ",
"v v v v v v v v v v v v v v v v v     v v v v v v v v v v v v v v v v v "
};
