/* XPM */
static char *bmoku-0-LB-317[] = {
/* columns rows colors chars-per-pixel */
"36 36 98 2",
"   c #000100010001",
".  c #017D017D017D",
"X  c #03B003B003B0",
"o  c #053405340534",
"O  c #078A078A078A",
"+  c #089108910891",
"@  c #098F098F098F",
"#  c #0EAE0EAE0EAE",
"$  c #159115911591",
"%  c #164116411641",
"&  c #1A8A1A8A1A8A",
"*  c #1CB01CB01CB0",
"=  c #1DAF1DAF1DAF",
"-  c #1E421E421E42",
";  c #263126312631",
":  c #2D932D932D93",
">  c #314031403140",
",  c #327B327B327B",
"<  c #33C033C033C0",
"1  c #397339733973",
"2  c #3C0D3C0D3C0D",
"3  c #3EFC3EFC3EFC",
"4  c #3F433F433F43",
"5  c #449D449D449D",
"6  c #4B684B684B68",
"7  c #5A835A835A83",
"8  c #5BEC5BEC5BEC",
"9  c #5D0D5D0D5D0D",
"0  c #603960396039",
"q  c #607860786078",
"w  c #618561856185",
"e  c #66BA66BA66BA",
"r  c #685A685A685A",
"t  c #6E0D6E0D6E0D",
"y  c #6F676F676F67",
"u  c #742274227422",
"i  c #780B780B780B",
"p  c #7B5A7B5A7B5A",
"a  c #7FE97FE97FE9",
"s  c #E79DB2CA4924",
"d  c #E7B5B31649D9",
"f  c #82EA82EA82EA",
"g  c #85E485E485E4",
"h  c #86FE86FE86FE",
"j  c #8A268A268A26",
"k  c #8C948C948C94",
"l  c #8FF38FF38FF3",
"z  c #934393439343",
"x  c #97B897B897B8",
"c  c #996799679967",
"v  c #9E799E799E79",
"b  c #A53CA53CA53C",
"n  c #A98DA98DA98D",
"m  c #AC9EAC9EAC9E",
"M  c #AD0AAD0AAD0A",
"N  c #AE90AE90AE90",
"B  c #AF31AF31AF31",
"V  c #B51DB51DB51D",
"C  c #BAAABAAABAAA",
"Z  c #C599C599C599",
"A  c #C6AFC6AFC6AF",
"S  c #C943C943C943",
"D  c #CB67CB67CB67",
"F  c #CEBBCEBBCEBB",
"G  c #CF3ECF3ECF3E",
"H  c #D053D053D053",
"J  c #D1F0D1F0D1F0",
"K  c #D554D554D554",
"L  c #D743D743D743",
"P  c #D98BD98BD98B",
"I  c #DB59DB59DB59",
"U  c #DD51DD51DD51",
"Y  c #DF4EDF4EDF4E",
"T  c #E05BE05BE05B",
"R  c #E170E170E170",
"E  c #E49EE49EE49E",
"W  c #E59FE59FE59F",
"Q  c #E71BE71BE71B",
"!  c #E95DE95DE95D",
"~  c #EAAAEAAAEAAA",
"^  c #EBB9EBB9EBB9",
"/  c #ED39ED39ED39",
"(  c #EECFEECFEECF",
")  c #F275F275F275",
"_  c #F30CF30CF30C",
"`  c #F460F460F460",
"'  c #F564F564F564",
"]  c #F647F647F647",
"[  c #F762F762F762",
"{  c #F848F848F848",
"}  c #F90DF90DF90D",
"|  c #FA2EFA2EFA2E",
" . c #FB80FB80FB80",
".. c #FCC2FCC2FCC2",
"X. c #FD9EFD9EFD9E",
"o. c #FEB5FEB5FEB5",
"O. c #FFB2FFB2FFB2",
"+. c gray100",
/* pixels */
"s s s s s s s s s s s s s s s s s     s s s s s s s s s s s s s s s s s ",
"s s s s s s s s s s s s s s s s s     s s s s s s s s s s s s s s s s s ",
"s s s s s s s s s s s s s s                 s s s s s s s s s s s s s s ",
"s s s s s s s s s s s                             s s s s s s s s s s s ",
"s s s s s s s s s                                     d s s s s s s s s ",
"s s s s s s s s                         q q e q         s s s s s s s s ",
"s s s s s s s                         q e q q q q q       s s s s s s s ",
"s s s s s s                         q q q v v v v q q       s s s s s s ",
"s s s s s                           q q v v v v v v q q       s s s s s ",
"s s s s   : 7 l q ,               1 C H v H ! ! ! L L C l l l j s s s s ",
"s s s s m +.+.+.` +.M             Y ` +.v L +.+.+.+.+.+.+.+.) +.s s s s ",
"s s s a +.) +.+.+.+.+.p     + = p +.^ +.v L +.+.+.+.+.+.+.+.L +.  s s s ",
"s s s +.+.+.q # t +.Y +.    +.+.+.+.! +.v H L L L L L M E +.+.2   s s s ",
"s s s +.! +.o   o +.+.+.#   +.+.+.+.! +.v H H H H H v A +.^ g     s s s ",
"s s   +.+.+.    $ +.E +.o   2 2 1 +.E +.v v v H H v b +.W +.o       s s ",
"s s         V W +.+.+.f           +.Y +.q v v v v v W +.+.2         s s ",
"d d         +.+.+.+.+.9           +.Y +.q q q v v M +.E S           s s ",
"            u z S +.{ +.9         +.Y +.    q e q E +.+.,               ",
"      z c l       6 +.H `         +.Y +.        & +.H !                 ",
"d d   +.) +.o     ; +.Y +.        +.Y +.        c +.^ q             s s ",
"d d   +.+.+.e $ = A +.S V         +.Y +.        { { +.$             s s ",
"d d   z +.` +.+.+.+.) +.,         +.Y +.      & +.H {               s s ",
"s d d   m +.+.+.{ +.+.7           +.^ +.      u +.S c             s s s ",
"s d d     = e g y 5 +             l l j       , l l 1             s s s ",
"s s s                                                             s s s ",
"s s s s                                                         s s s s ",
"s s s s                                                         s s s s ",
"s s s s d                                                     d s s s s ",
"s s s s d s                                                 s s s s s s ",
"s s s s d d d                                             d s s s s s s ",
"s s s s s s d d                                         s s s s s s s s ",
"s s s s s s s s s                                     s s s s s s s s s ",
"s s s s s s s s s s s                             s s s s s s s s s s s ",
"s s s s s s s s s s s s d d                 s s s s s s s s s s s s s s ",
"s s s s s s s s s s s s s s s s s     s s s s s s s s s s s s s s s s s ",
"s s s s s s s s s s s s s s s s s     s s s s s s s s s s s s s s s s s "
};
