/* XPM */
static char *bmoku-0-LB-94[] = {
/* columns rows colors chars-per-pixel */
"36 36 94 2",
"   c black",
".  c #010701070107",
"X  c #02DD02DD02DD",
"o  c #03DB03DB03DB",
"O  c #047504750475",
"+  c #055405540554",
"@  c #097E097E097E",
"#  c #0E680E680E68",
"$  c #100010001000",
"%  c #118F118F118F",
"&  c #139513951395",
"*  c #143714371437",
"=  c #19E519E519E5",
"-  c #1DAB1DAB1DAB",
";  c #1E521E521E52",
":  c #230623062306",
">  c #242024202420",
",  c #33B533B533B5",
"<  c #3DFD3DFD3DFD",
"1  c #3ED53ED53ED5",
"2  c #421542154215",
"3  c #450345034503",
"4  c #462046204620",
"5  c #46F546F546F5",
"6  c #47E347E347E3",
"7  c #4EB44EB44EB4",
"8  c #519B519B519B",
"9  c #569056905690",
"0  c #606E606E606E",
"q  c #618561856185",
"w  c #62F162F162F1",
"e  c #637B637B637B",
"r  c #69EF69EF69EF",
"t  c #6B4A6B4A6B4A",
"y  c #6B6D6B6D6B6D",
"u  c #79FB79FB79FB",
"i  c #7B8B7B8B7B8B",
"p  c #E79DB2CA4924",
"a  c #86FE86FE86FE",
"s  c #8DAE8DAE8DAE",
"d  c #8FFC8FFC8FFC",
"f  c #94AC94AC94AC",
"g  c #977897789778",
"h  c #987498749874",
"j  c #993099309930",
"k  c #9E799E799E79",
"l  c #9EB59EB59EB5",
"z  c #A02CA02CA02C",
"x  c #A1B0A1B0A1B0",
"c  c #A491A491A491",
"v  c #ABC3ABC3ABC3",
"b  c #AD66AD66AD66",
"n  c #ADB5ADB5ADB5",
"m  c #AEB1AEB1AEB1",
"M  c #B1A5B1A5B1A5",
"N  c #B95CB95CB95C",
"B  c #C432C432C432",
"V  c #C558C558C558",
"C  c #C820C820C820",
"Z  c #CA1ECA1ECA1E",
"A  c #CC2FCC2FCC2F",
"S  c #CF44CF44CF44",
"D  c #D0CAD0CAD0CA",
"F  c #D199D199D199",
"G  c #D243D243D243",
"H  c #D523D523D523",
"J  c #D677D677D677",
"K  c #D84BD84BD84B",
"L  c #D96CD96CD96C",
"P  c #DA88DA88DA88",
"I  c #DD6CDD6CDD6C",
"U  c #DE36DE36DE36",
"Y  c #E011E011E011",
"T  c #E147E147E147",
"R  c #E478E478E478",
"E  c #E552E552E552",
"W  c #E856E856E856",
"Q  c #E950E950E950",
"!  c #EAAAEAAAEAAA",
"~  c #EE01EE01EE01",
"^  c #F079F079F079",
"/  c #F23EF23EF23E",
"(  c #F32AF32AF32A",
")  c #F40FF40FF40F",
"_  c #F530F530F530",
"`  c #F5FAF5FAF5FA",
"'  c #F7EAF7EAF7EA",
"]  c #F86CF86CF86C",
"[  c #F9F4F9F4F9F4",
"{  c #FA37FA37FA37",
"}  c #FD73FD73FD73",
"|  c #FE74FE74FE74",
" . c #FF90FF90FF90",
".. c gray100",
/* pixels */
"p p p p p p p p p p p p p p p p p     p p p p p p p p p p p p p p p p p ",
"p p p p p p p p p p p p p p p p p     p p p p p p p p p p p p p p p p p ",
"p p p p p p p p p p p p p p                 p p p p p p p p p p p p p p ",
"p p p p p p p p p p p                             p p p p p p p p p p p ",
"p p p p p p p p p                                     p p p p p p p p p ",
"p p p p p p p p                         e 0 0 0         p p p p p p p p ",
"p p p p p p p                         0 0 0 0 0 e 0       p p p p p p p ",
"p p p p p p                         0 e 0 x x l x 0 0       p p p p p p ",
"p p p p p                           0 0 l l l l l l 0 0       p p p p p ",
"p p p p           # 5 i i <         0 l l D A P ! J x 0         p p p p ",
"p p p p         0 ......) ..~ =     0 l l A D ......c l 0       p p p p ",
"p p p         5 ....~ ......P ) +   0 l l D ) ......c l 0         p p p ",
"p p p         ) ..T x = : ) ....6   0 x l R ........D l 0         p p p ",
"p p p         ..) ..#     5 ..C M   0 0 v ..) ......c l 0         p p p ",
"p p           ..T ..+     - ..D ..    e { ..........c l e           p p ",
"p p           ......,     d ..I ..    Z ....A ......c e 0           p p ",
"p p           g ..I ..b J ....I ..  7 ..R R e ......y 0             p p ",
"                C ......) ....J ..% ..! ..- 0 ......y                   ",
"                  2 g J b 0 ..Z A B ....P P P ......P D @               ",
"p p           I ....-     v ..P i D ....................%           p p ",
"p p           N ..I l * < ..) ..> 8 d d d d d ......d d +           p p ",
"p p           , ....) ......{ j               ......%               p p ",
"p p p           y ......) ..j                 ......#             p p p ",
"p p p             % 8 s y >                   a d d +             p p p ",
"p p p                                                             p p p ",
"p p p p                                                         p p p p ",
"p p p p                                                         p p p p ",
"p p p p p                                                     p p p p p ",
"p p p p p p                                                 p p p p p p ",
"p p p p p p p                                             p p p p p p p ",
"p p p p p p p p                                         p p p p p p p p ",
"p p p p p p p p p                                     p p p p p p p p p ",
"p p p p p p p p p p p                             p p p p p p p p p p p ",
"p p p p p p p p p p p p p p                 p p p p p p p p p p p p p p ",
"p p p p p p p p p p p p p p p p p     p p p p p p p p p p p p p p p p p ",
"p p p p p p p p p p p p p p p p p     p p p p p p p p p p p p p p p p p "
};
