/* XPM */
static char *bmoku-0-LB-355[] = {
/* columns rows colors chars-per-pixel */
"36 36 121 2",
"   c black",
".  c #013001300130",
"X  c #04C104C104C1",
"o  c #082F082F082F",
"O  c #0AC10AC10AC1",
"+  c #0CC50CC50CC5",
"@  c #0D5A0D5A0D5A",
"#  c #104810481048",
"$  c #117E117E117E",
"%  c #122712271227",
"&  c #132413241324",
"*  c #143A143A143A",
"=  c #181118111811",
"-  c #188118811881",
";  c #196819681968",
":  c #1B721B721B72",
">  c #1CD41CD41CD4",
",  c #1EB31EB31EB3",
"<  c #1FC61FC61FC6",
"1  c #208020802080",
"2  c #264126412641",
"3  c #2A3D2A3D2A3D",
"4  c #2B312B312B31",
"5  c #2DF02DF02DF0",
"6  c #304C304C304C",
"7  c #36BF36BF36BF",
"8  c #3BA73BA73BA7",
"9  c #3CB03CB03CB0",
"0  c #3EFA3EFA3EFA",
"q  c #425242524252",
"w  c #443444344434",
"e  c #471A471A471A",
"r  c #47A647A647A6",
"t  c #4A9E4A9E4A9E",
"y  c #4E914E914E91",
"u  c #4FE84FE84FE8",
"i  c #507C507C507C",
"p  c #52CD52CD52CD",
"a  c #54C254C254C2",
"s  c #58B858B858B8",
"d  c #618C618C618C",
"f  c #642F642F642F",
"g  c #67C567C567C5",
"h  c #68D068D068D0",
"j  c #6A7F6A7F6A7F",
"k  c #730073007300",
"l  c #73CE73CE73CE",
"z  c #75AC75AC75AC",
"x  c #78AA78AA78AA",
"c  c #7B347B347B34",
"v  c #7BAB7BAB7BAB",
"b  c #7CA57CA57CA5",
"n  c #7DD97DD97DD9",
"m  c #E79DB2CA4924",
"M  c #E7F4B3DE4BB2",
"N  c #E850B5014E63",
"B  c #E89AB5EC508E",
"V  c #EC0AC0CE6A56",
"C  c #EC9DC29E6EA0",
"Z  c #EDCFC669779B",
"A  c #847684768476",
"S  c #88AB88AB88AB",
"D  c #89EB89EB89EB",
"F  c #8A9C8A9C8A9C",
"G  c #8FFF8FFF8FFF",
"H  c #920992099209",
"J  c #92FE92FE92FE",
"K  c #94C794C794C7",
"L  c #97B897B897B8",
"P  c #98C998C998C9",
"I  c #9E7B9E7B9E7B",
"U  c #9EE29EE29EE2",
"Y  c #A644A644A644",
"T  c #ABD1ABD1ABD1",
"R  c #AE90AE90AE90",
"E  c #AFD2AFD2AFD2",
"W  c #B323B323B323",
"Q  c #B3F7B3F7B3F7",
"!  c #B581B581B581",
"~  c #BA81BA81BA81",
"^  c #BCFCBCFCBCFC",
"/  c #BDC8BDC8BDC8",
"(  c #EF82CBC98458",
")  c #F045CE328A0C",
"_  c #F19AD2699409",
"`  c #F472DB6DA962",
"'  c #C4A3C4A3C4A3",
"]  c #C88EC88EC88E",
"[  c #CC2CCC2CCC2C",
"{  c #CDC9CDC9CDC9",
"}  c #CF42CF42CF42",
"|  c #D05BD05BD05B",
" . c #D152D152D152",
".. c #D3D1D3D1D3D1",
"X. c #D4C6D4C6D4C6",
"o. c #D53DD53DD53D",
"O. c #D675D675D675",
"+. c #D85CD85CD85C",
"@. c #D9F7D9F7D9F7",
"#. c #DBDEDBDEDBDE",
"$. c #DE76DE76DE76",
"%. c #E036E036E036",
"&. c #F8EFE9A3CB0A",
"*. c #E4D4E4D4E4D4",
"=. c #E54EE54EE54E",
"-. c #ED3CED3CED3C",
";. c #EF2DEF2DEF2D",
":. c #F0C7F0C7F0C7",
">. c #F1B1F1B1F1B1",
",. c #F7A9F7A9F7A9",
"<. c #F873F873F873",
"1. c #F962F962F962",
"2. c #FA65FA65FA65",
"3. c #FB49FB49FB49",
"4. c #FC84FC84FC84",
"5. c #FD93FD93FD93",
"6. c #FE90FE90FE90",
"7. c #FF9EFECCFD27",
"8. c #FFBDFF2FFE12",
"9. c #FF5EFF5EFF5E",
"0. c gray100",
/* pixels */
"m m m m m m m m m m m m m m m m m     m m m m m m m m m m m m m m m m m ",
"m m m m m m m m m m m m m m m m m     m m m m m m m m m m m m m m m m m ",
"m m m m m m m m m m m m m m                 m m m m m m m m m m m m m m ",
"m m m m m m m m m m m                             m m m m m m m m m m m ",
"m m m m m m m m m                                     m m m m m m m m m ",
"m m m m m m m m                         d d d d         m m m m m m m m ",
"m m m m m m m                         d d d d d d d       m m m m m m m ",
"m m m m m m                         d d d I I I I d d       m m m m m m ",
"m m m m m                           d d I I I I I I d d       m m m m m ",
"m m m N q k z t O         q G G G G ~ o.o.%.} } @.o.o.~ G G G G ) m m m ",
"m m C 0.0.0.0.0.0.r       I 0.0.0.0.0.0.0.>.} } -.0.0.0.0.0.0.0.&.m m m ",
"m m 0.0.,.0.0.1.0.0.*     $.0.0.0.0.0.0.0.>.} } 1.0.0.0.0.0.0.0.Q m m m ",
"m Z 0.0.0.> - -.0.0.i     0.0.0.4 4 z W R o.} } 0.0.0.R z 4 4 4 = m m m ",
"m _ 0.1.g     h ,.0.F   O 0.0.@.    d d I } }  .0.0.-.I g         m m m ",
"m ` 0.0.a     A 1.,.g   > 0.0.P ~ o.G J I I I o.0.0.@.=.=.G u       m m ",
"m m     4 @.,.0.0.0.#   9 0.0.1.0.0.0.0.-.Y I ! 0.0.0.0.0.0.0.=.*   m m ",
"m m     9 0.0.0.0.} -   g 1.1.0.Y W 0.1.0.$.d ' 0.0.0.[ W 0.1.0.[   M M ",
"        > G Y 1.0.0.0.X i / ~ >     # 0.0.0.z J o. .k     @ 0.0.0.<     ",
"  u J P 5       } 0.0.8               R 0.1.u               T 0.4.u     ",
"m ` 0.,.z       R 0.0.u 0.0.0.        [ 0.0.7 0.0.0.X       [ 0.0.7 M m ",
"m ( 0.0.0.2 # r 0.0.0.> [ 0.0.F - - h 0.0.0.# } 0.0.F * - h 0.0.0.# M m ",
"m N 0.0.1.0.0.0.0.1./   8 0.0.1.0.0.0.0.0.k   9 0.0.1.0.0.0.0.0.l   M m ",
"m m V 0.0.0.0.0.0./ @     u 0.0.0.0.0.0.n       u 0.0.0.0.0.0.n   M m m ",
"m m m X 9 z A s 5           @ r z n t -           @ t z n t -     m m m ",
"m m m                                                             m m m ",
"m m m m                                                         m m m m ",
"m m m m                                                         m m m m ",
"m m m m m                                                     m m m m m ",
"m m m m m m                                                 m m m m m m ",
"m m m m m m m                                             m m m m m m m ",
"m m m m m m m m                                         m m m m m m m m ",
"m m m m m m m m m                                     m m m m m m m m m ",
"m m m m m m m m m m m                             m m m m m m m m m m m ",
"m m m m m m m m m m m m m m                 m m m m m m m m m m m m m m ",
"m m m m m m m m m m m m m m m m m     m m m m m m m m m m m m m m m m m ",
"m m m m m m m m m m m m m m m m m     m m m m m m m m m m m m m m m m m "
};
