/* XPM */
static char *bmoku-0-LB-194[] = {
/* columns rows colors chars-per-pixel */
"36 36 93 2",
"   c black",
".  c #010701070107",
"X  c #02F402F402F4",
"o  c #047504750475",
"O  c #055505550555",
"+  c #089108910891",
"@  c #097E097E097E",
"#  c #0E680E680E68",
"$  c #100010001000",
"%  c #139513951395",
"&  c #143714371437",
"*  c #19B319B319B3",
"=  c #1DAC1DAC1DAC",
"-  c #230623062306",
";  c #242224222422",
":  c #30F830F830F8",
">  c #33B933B933B9",
",  c #3C0D3C0D3C0D",
"<  c #3ED53ED53ED5",
"1  c #421642164216",
"2  c #450345034503",
"3  c #46F546F546F5",
"4  c #519B519B519B",
"5  c #569156915691",
"6  c #606E606E606E",
"7  c #618561856185",
"8  c #62F162F162F1",
"9  c #69EF69EF69EF",
"0  c #6B4A6B4A6B4A",
"q  c #6C646C646C64",
"w  c #744A744A744A",
"e  c #79FC79FC79FC",
"r  c #7B597B597B59",
"t  c #7B8B7B8B7B8B",
"y  c #E79DB2CA4924",
"u  c #86FD86FD86FD",
"i  c #87E587E587E5",
"p  c #8CEE8CEE8CEE",
"a  c #8DAE8DAE8DAE",
"s  c #8FFD8FFD8FFD",
"d  c #94AC94AC94AC",
"f  c #977897789778",
"g  c #987498749874",
"h  c #993099309930",
"j  c #9E799E799E79",
"k  c #9EB59EB59EB5",
"l  c #9FF19FF19FF1",
"z  c #A1B2A1B2A1B2",
"x  c #A384A384A384",
"c  c #A86AA86AA86A",
"v  c #ABC7ABC7ABC7",
"b  c #ADB5ADB5ADB5",
"n  c #AEB2AEB2AEB2",
"m  c #B95CB95CB95C",
"M  c #BC74BC74BC74",
"N  c #C432C432C432",
"B  c #C559C559C559",
"V  c #CA1DCA1DCA1D",
"C  c #CF44CF44CF44",
"Z  c #CFD6CFD6CFD6",
"A  c #D170D170D170",
"S  c #D23FD23FD23F",
"D  c #D4F2D4F2D4F2",
"F  c #D695D695D695",
"G  c #D806D806D806",
"H  c #D96CD96CD96C",
"J  c #DA36DA36DA36",
"K  c #DD84DD84DD84",
"L  c #DF4EDF4EDF4E",
"P  c #E011E011E011",
"I  c #E146E146E146",
"U  c #E478E478E478",
"Y  c #E540E540E540",
"T  c #E856E856E856",
"R  c #EA79EA79EA79",
"E  c #EB15EB15EB15",
"W  c #EBF4EBF4EBF4",
"Q  c #EE70EE70EE70",
"!  c #EFA0EFA0EFA0",
"~  c #F0ACF0ACF0AC",
"^  c #F175F175F175",
"/  c #F1F4F1F4F1F4",
"(  c #F335F335F335",
")  c #F40FF40FF40F",
"_  c #F530F530F530",
"`  c #F7B3F7B3F7B3",
"'  c #F9F4F9F4F9F4",
"]  c #FA25FA25FA25",
"[  c #FB15FB15FB15",
"{  c #FD73FD73FD73",
"}  c #FE85FE85FE85",
"|  c #FFA4FFA4FFA4",
" . c gray100",
/* pixels */
"y y y y y y y y y y y y y y y y y     y y y y y y y y y y y y y y y y y ",
"y y y y y y y y y y y y y y y y y     y y y y y y y y y y y y y y y y y ",
"y y y y y y y y y y y y y y                 y y y y y y y y y y y y y y ",
"y y y y y y y y y y y                             y y y y y y y y y y y ",
"y y y y y y y y y                                     y y y y y y y y y ",
"y y y y y y y y                         7 7 8 8         y y y y y y y y ",
"y y y y y y y                         7 7 7 7 5 7 7       y y y y y y y ",
"y y y y y y                         7 7 7 l l l l 7 7       y y y y y y ",
"y y y y y                           7 7 j j l l l l 7 7       y y y y y ",
"y y y y     > s u           # 2 e e u l j C C C C l l 7 > a a o y y y y ",
"y y y y     L Q  .        7  . . .)  .] x C C C C C l l  . . .% y y y y ",
"y y y + = e  .L  .      2  . .Q  . . .) ] C C C C C l R  . . .#   y y y ",
"y y y  . . . .L  .      )  .U l * - )  . .J C C C C Y  . . . .#   y y y ",
"y y y  . . . .L  .       .)  .#     a  .R ) C C C F  .Q  . . .%   y y y ",
"y y   , , ,  .L  .       .U  .o     =  .Q  .l C C ]  . . . . .#     y y ",
"y y          .L  .       . . .>     a  .Y  .l l L  . .v  . . .#     y y ",
"y y          .L  .      f  .L  .n F  . .R  .7 M  .Q R 7  . . .#     y y ",
"             .L  .        N  . . .)  . .F  .q  .)  .w    . . .%         ",
"             .L  .          1 f F n 7  .V C N  . .J J F  . . .J A +     ",
"y y          .L  .      L  . .*     v  .J e A  . . . . . . . . . .% y y ",
"y y          .L  .      m  .U l & ,  .)  .; 4 a s s s s  . . .a a o y y ",
"y y          .L  .      >  .] )  . . .) j                . . .#     y y ",
"y y y        .)  .        9  . . .)  .j                  . . .%   y y y ",
"y y y       a a u           % 5 a 9 -                   u s s     y y y ",
"y y y                                                             y y y ",
"y y y y                                                         y y y y ",
"y y y y                                                         y y y y ",
"y y y y y                                                     y y y y y ",
"y y y y y y                                                 y y y y y y ",
"y y y y y y y                                             y y y y y y y ",
"y y y y y y y y                                         y y y y y y y y ",
"y y y y y y y y y                                     y y y y y y y y y ",
"y y y y y y y y y y y                             y y y y y y y y y y y ",
"y y y y y y y y y y y y y y                 y y y y y y y y y y y y y y ",
"y y y y y y y y y y y y y y y y y     y y y y y y y y y y y y y y y y y ",
"y y y y y y y y y y y y y y y y y     y y y y y y y y y y y y y y y y y "
};
