/* XPM */
static char *bmoku-0-LB-357[] = {
/* columns rows colors chars-per-pixel */
"36 36 132 2",
"   c #000100010001",
".  c #013301330133",
"X  c #04C104C104C1",
"o  c #053605360536",
"O  c #067106710671",
"+  c #082F082F082F",
"@  c #0AC10AC10AC1",
"#  c #0CC50CC50CC5",
"$  c #0D5A0D5A0D5A",
"%  c #104810481048",
"&  c #117E117E117E",
"*  c #122912291229",
"=  c #132413241324",
"-  c #14BE14BE14BE",
";  c #187C187C187C",
":  c #197F197F197F",
">  c #1B921B921B92",
",  c #1CD41CD41CD4",
"<  c #1EB31EB31EB3",
"1  c #1FC61FC61FC6",
"2  c #264126412641",
"3  c #2A3D2A3D2A3D",
"4  c #2B312B312B31",
"5  c #2DF02DF02DF0",
"6  c #304C304C304C",
"7  c #32F832F832F8",
"8  c #36BF36BF36BF",
"9  c #37E837E837E8",
"0  c #3BC13BC13BC1",
"q  c #3CB03CB03CB0",
"w  c #3EFA3EFA3EFA",
"e  c #402040204020",
"r  c #40ED40ED40ED",
"t  c #425242524252",
"y  c #443444344434",
"u  c #471A471A471A",
"i  c #47A647A647A6",
"p  c #4A994A994A99",
"a  c #4E8C4E8C4E8C",
"s  c #4FE64FE64FE6",
"d  c #507C507C507C",
"f  c #52CD52CD52CD",
"g  c #54C254C254C2",
"h  c #57C357C357C3",
"j  c #58B858B858B8",
"k  c #618B618B618B",
"l  c #63F563F563F5",
"z  c #67C567C567C5",
"x  c #68D068D068D0",
"c  c #6A7F6A7F6A7F",
"v  c #717971797179",
"b  c #732573257325",
"n  c #73D673D673D6",
"m  c #75AC75AC75AC",
"M  c #78AA78AA78AA",
"N  c #7B347B347B34",
"B  c #7BAB7BAB7BAB",
"V  c #7CA57CA57CA5",
"C  c #7DD97DD97DD9",
"Z  c #E79DB2CA4924",
"A  c #E7D6B3804AD2",
"S  c #E7F4B3DE4BB2",
"D  c #E850B5014E63",
"F  c #E89AB5EC508E",
"G  c #EC0AC0CE6A56",
"H  c #EC8BC2656E1B",
"J  c #EC9DC29E6EA0",
"K  c #EDCFC669779B",
"L  c #847684768476",
"P  c #88AB88AB88AB",
"I  c #8A088A088A08",
"U  c #8A9C8A9C8A9C",
"Y  c #8CAB8CAB8CAB",
"T  c #8FFF8FFF8FFF",
"R  c #90CF90CF90CF",
"E  c #920992099209",
"W  c #92FE92FE92FE",
"Q  c #958895889588",
"!  c #97B897B897B8",
"~  c #98C998C998C9",
"^  c #9E749E749E74",
"/  c #9EE29EE29EE2",
"(  c #A644A644A644",
")  c #A880A880A880",
"_  c #ABD1ABD1ABD1",
"`  c #AE90AE90AE90",
"'  c #AFD2AFD2AFD2",
"]  c #B323B323B323",
"[  c #BA81BA81BA81",
"{  c #BCFCBCFCBCFC",
"}  c #BDC8BDC8BDC8",
"|  c #EF82CBC98458",
" . c #F0EDD0478EFA",
".. c #F123D0F39092",
"X. c #F19AD2699409",
"o. c #F472DB6DA962",
"O. c #F554DE38AFFF",
"+. c #C796C796C796",
"@. c #CC30CC30CC30",
"#. c #CDC9CDC9CDC9",
"$. c #CF3CCF3CCF3C",
"%. c #D05BD05BD05B",
"&. c #D3D1D3D1D3D1",
"*. c #D4A5D4A5D4A5",
"=. c #D543D543D543",
"-. c #D748D748D748",
";. c #D80CD80CD80C",
":. c #D9F7D9F7D9F7",
">. c #DE76DE76DE76",
",. c #E036E036E036",
"<. c #E121E121E121",
"1. c #E248E248E248",
"2. c #EAAAEAAAEAAA",
"3. c #EC5AEC5AEC5A",
"4. c #ED06ED06ED06",
"5. c #EF2DEF2DEF2D",
"6. c #F1B1F1B1F1B1",
"7. c #F582F582F582",
"8. c #F600F600F600",
"9. c #F7A9F7A9F7A9",
"0. c #F873F873F873",
"q. c #F968F968F968",
"w. c #FA64FA64FA64",
"e. c #FB49FB49FB49",
"r. c #FC78FC78FC78",
"t. c #FF4DFDCCFAC9",
"y. c #FD83FD83FD83",
"u. c #FE75FE75FE75",
"i. c #FF9EFECCFD27",
"p. c #FFBDFF2FFE12",
"a. c #FF63FF63FF63",
"s. c gray100",
/* pixels */
"Z Z Z Z Z Z Z Z Z Z Z Z Z Z Z Z Z     Z Z Z Z Z Z Z Z Z Z Z Z Z Z Z Z Z ",
"Z Z Z Z Z Z Z Z Z Z Z Z Z Z Z Z Z     Z Z Z Z Z Z Z Z Z Z Z Z Z Z Z Z Z ",
"Z Z Z Z Z Z Z Z Z Z Z Z Z Z                 Z Z Z Z Z Z Z Z Z Z Z Z Z Z ",
"Z Z Z Z Z Z Z Z Z Z Z                             Z Z Z Z Z Z Z Z Z Z Z ",
"Z Z Z Z Z Z Z Z Z                                     Z Z Z Z Z Z Z Z Z ",
"Z Z Z Z Z Z Z Z                         k k k k         Z Z Z Z Z Z Z Z ",
"Z Z Z Z Z Z Z                         k k k k k k k       Z Z Z Z Z Z Z ",
"Z Z Z Z Z Z                         k k k ^ ^ ^ ^ k k       Z Z Z Z Z Z ",
"Z Z Z Z Z                           k k ^ ^ ^ ^ ^ ^ k k       Z Z Z Z Z ",
"Z Z Z D t v M p @         t T T T T [ =.=.1.$.>.2.=.=.[ T T T T O.J Z Z ",
"Z Z J s.s.s.s.s.s.i       ^ s.s.s.s.s.s.s.5.$.9.s.s.s.s.s.s.s.s.t.X.Z Z ",
"Z Z s.s.9.s.s.q.s.s.=     >.s.s.s.s.s.s.s.5.$.9.s.s.s.s.s.s.s.s.s. .Z Z ",
"Z K s.s.s., ; 4.s.s.s     s.s.s.4 4 M ` ` &.$.=.:.=.=.` M 4 s.q.=.Z Z Z ",
"Z X.s.q.z     x 9.s.U   @ s.s.:.    k k ^ $.$.$.$.$.^ ^ z 2.s.s.; Z Z Z ",
"Z o.s.s.g     L q.9.z   , s.s.~ [ =.T Q ^ ^ ^ $.$.^ ^ ^ ) s.s.g     Z Z ",
"Z Z     4 :.9.s.s.s.=   q s.s.q.s.s.s.s.4.) ^ ^ ^ ^ ^ v s.s.1.      Z Z ",
"A A     0 s.s.s.s.$.;   z q.q.s.) ] s.q.q.1.k ^ ^ ^ k @.q.s.7       Z Z ",
"        ; T ) q.s.s.s.O s } [ ,     = s.s.s.m k k k v s.s.&.            ",
"  a Q Q 7       $.s.s.0               _ s.s.a       T q.s.q             ",
"A o.s.q.v       ` s.s.a s.s.s.        @.s.s.8     O s.s.s.O         Z Z ",
"Z | s.s.s.2 = t s.s.s., $.s.s.U ; ; x s.s.s.=     0 s.q.^           Z Z ",
"Z D s.s.q.s.s.s.s.q.}   0 s.s.9.s.s.s.s.s.v       T s.s.t           Z Z ",
"Z Z G s.s.s.s.s.s.} #     a s.s.s.s.s.s.C         s.s.s.-         Z Z Z ",
"Z Z Z O q m L j 5           # i M C p ;           U T T           Z Z Z ",
"Z Z Z                                                             Z Z Z ",
"Z Z Z Z                                                         Z Z Z Z ",
"Z Z Z Z                                                         Z Z Z Z ",
"Z Z Z Z Z                                                     Z Z Z Z Z ",
"Z Z Z Z Z Z                                                 Z Z Z Z Z Z ",
"Z Z Z Z Z Z Z                                             Z Z Z Z Z Z Z ",
"Z Z Z Z Z Z Z Z                                         Z Z Z Z Z Z Z Z ",
"Z Z Z Z Z Z Z Z Z                                     Z Z Z Z Z Z Z Z Z ",
"Z Z Z Z Z Z Z Z Z Z Z                             Z Z Z Z Z Z Z Z Z Z Z ",
"Z Z Z Z Z Z Z Z Z Z Z Z Z Z                 Z Z Z Z Z Z Z Z Z Z Z Z Z Z ",
"Z Z Z Z Z Z Z Z Z Z Z Z Z Z Z Z Z     Z Z Z Z Z Z Z Z Z Z Z Z Z Z Z Z Z ",
"Z Z Z Z Z Z Z Z Z Z Z Z Z Z Z Z Z     Z Z Z Z Z Z Z Z Z Z Z Z Z Z Z Z Z "
};
