/* XPM */
static char *bmoku-0-LB-T[] = {
/* columns rows colors chars-per-pixel */
"36 36 26 1",
"  c black",
". c #047504750475",
"X c #0BE20BE20BE2",
"o c #100010001000",
"O c #190019001900",
"+ c #57CB57CB57CB",
"@ c #618561856185",
"# c #E79DB2CA4924",
"$ c #86FD86FD86FD",
"% c #8FFF8FFF8FFF",
"& c #9E799E799E79",
"* c #A7FFA7FFA7FF",
"= c #B344B344B344",
"- c #BAAABAAABAAA",
"; c #C4A2C4A2C4A2",
": c #CF3CCF3CCF3C",
"> c #D015D015D015",
", c #D3FFD3FFD3FF",
"< c #D554D554D554",
"1 c #DA20DA20DA20",
"2 c #DF4EDF4EDF4E",
"3 c #E33FE33FE33F",
"4 c #EEDEEEDEEEDE",
"5 c #F28EF28EF28E",
"6 c #F83FF83FF83F",
"7 c gray100",
/* pixels */
"#################  #################",
"#################  #################",
"##############        ##############",
"###########              ###########",
"#########                  #########",
"########            @@@@    ########",
"#######            @@@@@@@   #######",
"######            @@@&&&&@@   ######",
"#####      +%%%%%%--<<<=&&@@   #####",
"####       1777777777763:&&@    ####",
"####       ;777775777773::&&@   ####",
"###        XOOOO727**<>>::&&@    ###",
"###            o727&&::::::&@    ###",
"###            o727@&:::::&&@    ###",
"##             o727@&&&::&&&@     ##",
"##             o727@@&&&&&&@@     ##",
"##             o727 @@@&&&@@      ##",
"               o727   @@@@@         ",
"               o727                 ",
"##             o727               ##",
"##             o727               ##",
"##             o727               ##",
"###            o747              ###",
"###            .%%$              ###",
"###                              ###",
"####                            ####",
"####                            ####",
"#####                          #####",
"######                        ######",
"#######                      #######",
"########                    ########",
"#########                  #########",
"###########              ###########",
"##############        ##############",
"#################  #################",
"#################  #################"
};
