/* XPM */
static char *bmoku-0-LB-173[] = {
/* columns rows colors chars-per-pixel */
"36 36 99 2",
"   c #000100010001",
".  c #013D013D013D",
"X  c #039103910391",
"o  c #053605360536",
"O  c #067106710671",
"+  c #082F082F082F",
"@  c #0A790A790A79",
"#  c #0D5A0D5A0D5A",
"$  c #118411841184",
"%  c #123012301230",
"&  c #132313231323",
"*  c #14BE14BE14BE",
"=  c #19C419C419C4",
"-  c #1B561B561B56",
";  c #1C681C681C68",
":  c #1FC81FC81FC8",
">  c #22C922C922C9",
",  c #264126412641",
"<  c #2A3D2A3D2A3D",
"1  c #2DF02DF02DF0",
"2  c #2E512E512E51",
"3  c #304E304E304E",
"4  c #32F832F832F8",
"5  c #336133613361",
"6  c #37E837E837E8",
"7  c #3C103C103C10",
"8  c #3CED3CED3CED",
"9  c #3EFA3EFA3EFA",
"0  c #402040204020",
"q  c #40ED40ED40ED",
"w  c #442D442D442D",
"e  c #47A547A547A5",
"r  c #4A8B4A8B4A8B",
"t  c #4B734B734B73",
"y  c #4E844E844E84",
"u  c #507C507C507C",
"i  c #52E352E352E3",
"p  c #58B858B858B8",
"a  c #5A405A405A40",
"s  c #618B618B618B",
"d  c #640064006400",
"f  c #679167916791",
"g  c #731373137313",
"h  c #75B675B675B6",
"j  c #E79DB2CA4924",
"k  c #867E867E867E",
"l  c #87DC87DC87DC",
"z  c #88AB88AB88AB",
"x  c #8A1F8A1F8A1F",
"c  c #8A9C8A9C8A9C",
"v  c #8CAB8CAB8CAB",
"b  c #8FFF8FFF8FFF",
"n  c #90CF90CF90CF",
"m  c #958895889588",
"M  c #97C397C397C3",
"N  c #9E729E729E72",
"B  c #A26AA26AA26A",
"V  c #A4E0A4E0A4E0",
"C  c #A62EA62EA62E",
"Z  c #A7D3A7D3A7D3",
"A  c #AC37AC37AC37",
"S  c #AEEEAEEEAEEE",
"D  c #AFD2AFD2AFD2",
"F  c #B387B387B387",
"G  c #B55BB55BB55B",
"H  c #B878B878B878",
"J  c #BAAABAAABAAA",
"K  c #BD14BD14BD14",
"L  c #BDC8BDC8BDC8",
"P  c #BEC4BEC4BEC4",
"I  c #C8F0C8F0C8F0",
"U  c #CAA3CAA3CAA3",
"Y  c #CB87CB87CB87",
"T  c #CDC9CDC9CDC9",
"R  c #CF53CF53CF53",
"E  c #D04DD04DD04D",
"W  c #D1E6D1E6D1E6",
"Q  c #D4B8D4B8D4B8",
"!  c #D53FD53FD53F",
"~  c #D929D929D929",
"^  c #DBA0DBA0DBA0",
"/  c #DC7FDC7FDC7F",
"(  c #E17EE17EE17E",
")  c #E248E248E248",
"_  c #E31FE31FE31F",
"`  c #EC5AEC5AEC5A",
"'  c #EF9EEF9EEF9E",
"]  c #F182F182F182",
"[  c #F442F442F442",
"{  c #F7A8F7A8F7A8",
"}  c #F87BF87BF87B",
"|  c #F919F919F919",
" . c #FA58FA58FA58",
".. c #FB43FB43FB43",
"X. c #FC54FC54FC54",
"o. c #FD71FD71FD71",
"O. c #FE82FE82FE82",
"+. c #FF83FF83FF83",
"@. c gray100",
/* pixels */
"j j j j j j j j j j j j j j j j j     j j j j j j j j j j j j j j j j j ",
"j j j j j j j j j j j j j j j j j     j j j j j j j j j j j j j j j j j ",
"j j j j j j j j j j j j j j                 j j j j j j j j j j j j j j ",
"j j j j j j j j j j j                             j j j j j j j j j j j ",
"j j j j j j j j j                                     j j j j j j j j j ",
"j j j j j j j j                         d d d a         j j j j j j j j ",
"j j j j j j j                         a d d d d d d       j j j j j j j ",
"j j j j j j                         d d a N N N N a d       j j j j j j ",
"j j j j j                           a d N N N N N N a d       j j j j j ",
"j j j j       c b 2   d b b b b b b L Q Q ~ E T E J Y A t @     j j j j ",
"j j j j     > @...a   Y @.@.@.@.@.@.@.@.@.) E ~ @.@.@.@.@.@.e   j j j j ",
"j j j   $ 5 ^ ..{ a   Y @.@.@.@.@.@.@.@.@.) T @.@.@.@.@...@.@.$   j j j ",
"j j j l @.@...@.{ a   - < < < < < < @.@.' T ^ @.@.@.Q Z [ @.@.y   j j j ",
"j j j c @.@.@.@...a               ' @.@.Z T _ @.@.) N N B { @.c   j j j ",
"j j   - 7 7 b @.{ a             g @.@.m N N E @.@.L N N F ..{ f     j j ",
"j j         b @...a           - @.@.^ d d N N N N S ' ..@.@.@.$     j j ",
"j j         b @...a           B ..@.5   d d a N N F @.@.@.@.T -     j j ",
"            b @...a         ; @.@.E         d d d g J Z ..@...@.@       ",
"            b @.{ a         b ..@.q         y m m 2       E @.@.7       ",
"j j         b @.{ a       o @.@.@.o         l @.{ g       S @...y   j j ",
"j j         b @...a       6 @...N           i @.@.@., $ e @.@.@.>   j j ",
"j j         b @.{ a       m @.@.q           @ @.@...@.@.@.@...J     j j ",
"j j j       b @...a       @.@.@.*             2 @.@...@...@.L #   j j j ",
"j j j       t b b 2       c b b                 @ 7 g c a 2       j j j ",
"j j j                                                             j j j ",
"j j j j                                                         j j j j ",
"j j j j                                                         j j j j ",
"j j j j j                                                     j j j j j ",
"j j j j j j                                                 j j j j j j ",
"j j j j j j j                                             j j j j j j j ",
"j j j j j j j j                                         j j j j j j j j ",
"j j j j j j j j j                                     j j j j j j j j j ",
"j j j j j j j j j j j                             j j j j j j j j j j j ",
"j j j j j j j j j j j j j j                 j j j j j j j j j j j j j j ",
"j j j j j j j j j j j j j j j j j     j j j j j j j j j j j j j j j j j ",
"j j j j j j j j j j j j j j j j j     j j j j j j j j j j j j j j j j j "
};
