/* XPM */
static char *bmoku-0-LB-49[] = {
/* columns rows colors chars-per-pixel */
"36 36 88 1",
"  c black",
". c #010701070107",
"X c #02ED02ED02ED",
"o c #032B032B032B",
"O c #047504750475",
"+ c #097E097E097E",
"@ c #0D3D0D3D0D3D",
"# c #100010001000",
"$ c #119111911191",
"% c #139513951395",
"& c #143714371437",
"* c #1D5C1D5C1D5C",
"= c #1E521E521E52",
"- c #230523052305",
"; c #242224222422",
": c #272E272E272E",
"> c #30F730F730F7",
", c #335233523352",
"< c #3ED53ED53ED5",
"1 c #421642164216",
"2 c #4EB64EB64EB6",
"3 c #519D519D519D",
"4 c #569156915691",
"5 c #606E606E606E",
"6 c #618561856185",
"7 c #69EF69EF69EF",
"8 c #6B4A6B4A6B4A",
"9 c #739673967396",
"0 c #77FF77FF77FF",
"q c #79FC79FC79FC",
"w c #E79DB2CA4924",
"e c #86FD86FD86FD",
"r c #8D728D728D72",
"t c #8DAE8DAE8DAE",
"y c #8FFF8FFF8FFF",
"u c #94AC94AC94AC",
"i c #977897789778",
"p c #987498749874",
"a c #993099309930",
"s c #9E799E799E79",
"d c #9F1F9F1F9F1F",
"f c #A039A039A039",
"g c #A3FDA3FDA3FD",
"h c #A645A645A645",
"j c #A86AA86AA86A",
"k c #ABC3ABC3ABC3",
"l c #ADB5ADB5ADB5",
"z c #B252B252B252",
"x c #B95CB95CB95C",
"c c #B9DCB9DCB9DC",
"v c #C41DC41DC41D",
"b c #C559C559C559",
"n c #CA1DCA1DCA1D",
"m c #CB62CB62CB62",
"M c #CDABCDABCDAB",
"N c #CF48CF48CF48",
"B c #D172D172D172",
"V c #D21BD21BD21B",
"C c #D421D421D421",
"Z c #D515D515D515",
"A c #D5E8D5E8D5E8",
"S c #D821D821D821",
"D c #D97FD97FD97F",
"F c #DA36DA36DA36",
"G c #DB0BDB0BDB0B",
"H c #DC7CDC7CDC7C",
"J c #E011E011E011",
"K c #E0E9E0E9E0E9",
"L c #E227E227E227",
"P c #E682E682E682",
"I c #E950E950E950",
"U c #EAB5EAB5EAB5",
"Y c #EB15EB15EB15",
"T c #EE06EE06EE06",
"R c #EF47EF47EF47",
"E c #F0A9F0A9F0A9",
"W c #F2AEF2AEF2AE",
"Q c #F30FF30FF30F",
"! c #F46FF46FF46F",
"~ c #F7EAF7EAF7EA",
"^ c #F86EF86EF86E",
"/ c #F9A1F9A1F9A1",
"( c #FB15FB15FB15",
") c #FC92FC92FC92",
"_ c #FD81FD81FD81",
"` c #FE69FE69FE69",
"' c #FFB4FFB4FFB4",
"] c gray100",
/* pixels */
"wwwwwwwwwwwwwwwww  wwwwwwwwwwwwwwwww",
"wwwwwwwwwwwwwwwww  wwwwwwwwwwwwwwwww",
"wwwwwwwwwwwwww        wwwwwwwwwwwwww",
"wwwwwwwwwww              wwwwwwwwwww",
"wwwwwwwww                  wwwwwwwww",
"wwwwwwww            6666    wwwwwwww",
"wwwwwww            6666666   wwwwwww",
"wwwwww            666ssss66   wwwwww",
"wwwww             66ssssss66   wwwww",
"wwww        >yyO  6sgHPPHss6    wwww",
"wwww       @]]]$  6v]]]]]]js6   wwww",
"www        m]]]@  y]]^]]]^^s6    www",
"www       9]]]]$  ^]WTCS]]]c6    www",
"www      :]S]]]@  ]^]CMMH]UL6    www",
"ww       W~]]]]$  ]T]ssMC]T]6     ww",
"ww      j]]0]]]@  ]]]zssS]W]6     ww",
"ww     2]SH ]]]@  u]U]MW]]U]      ww",
"      $]P]* ]]]@   b]]]^]]P]        ",
"      v]]HHS]]]HC+  1uHl4]mM        ",
"ww    C]]]]]]]]]]@L]]*  l]Hq      ww",
"ww    3yyyyy]]]uyOc]Ls&<]^]:      ww",
"ww          ]]]@  >]]W]]]^p       ww",
"www         ]]]$   7]]]T]p       www",
"www         eyyO    $4r7-        www",
"www                              www",
"wwww                            wwww",
"wwww                            wwww",
"wwwww                          wwwww",
"wwwwww                        wwwwww",
"wwwwwww                      wwwwwww",
"wwwwwwww                    wwwwwwww",
"wwwwwwwww                  wwwwwwwww",
"wwwwwwwwwww              wwwwwwwwwww",
"wwwwwwwwwwwwww        wwwwwwwwwwwwww",
"wwwwwwwwwwwwwwwww  wwwwwwwwwwwwwwwww",
"wwwwwwwwwwwwwwwww  wwwwwwwwwwwwwwwww"
};
