/* XPM */
static char *bmoku-0-LB-215[] = {
/* columns rows colors chars-per-pixel */
"36 36 107 2",
"   c #000100010001",
".  c #014D014D014D",
"X  c #022602260226",
"o  c #04C104C104C1",
"O  c #085E085E085E",
"+  c #0C8B0C8B0C8B",
"@  c #0F200F200F20",
"#  c #104810481048",
"$  c #118311831183",
"%  c #122312231223",
"&  c #137713771377",
"*  c #143E143E143E",
"=  c #169C169C169C",
"-  c #181118111811",
";  c #185D185D185D",
":  c #193B193B193B",
">  c #1B481B481B48",
",  c #208020802080",
"<  c #22CA22CA22CA",
"1  c #25B525B525B5",
"2  c #269526952695",
"3  c #2A3F2A3F2A3F",
"4  c #2E3D2E3D2E3D",
"5  c #328E328E328E",
"6  c #336233623362",
"7  c #36BF36BF36BF",
"8  c #3BDB3BDB3BDB",
"9  c #3DA73DA73DA7",
"0  c #471A471A471A",
"q  c #47D847D847D8",
"w  c #4AA74AA74AA7",
"e  c #4B734B734B73",
"r  c #4EA14EA14EA1",
"t  c #4FE94FE94FE9",
"y  c #51E351E351E3",
"u  c #55D955D955D9",
"i  c #57D157D157D1",
"p  c #5A435A435A43",
"a  c #5ADE5ADE5ADE",
"s  c #5E715E715E71",
"d  c #618561856185",
"f  c #648964896489",
"g  c #6AC96AC96AC9",
"h  c #712F712F712F",
"j  c #72D172D172D1",
"k  c #73BE73BE73BE",
"l  c #754675467546",
"z  c #7B347B347B34",
"x  c #7BAB7BAB7BAB",
"c  c #7CA57CA57CA5",
"v  c #7DD97DD97DD9",
"b  c #7FFF7FFF7FFF",
"n  c #E79DB2CA4924",
"m  c #E7FEB3FE4BFD",
"M  c #E9F5BA375ABA",
"N  c #EE02C7097918",
"B  c #87DE87DE87DE",
"V  c #8A0C8A0C8A0C",
"C  c #8F718F718F71",
"Z  c #8FFB8FFB8FFB",
"A  c #94C794C794C7",
"S  c #996699669966",
"D  c #9E799E799E79",
"F  c #9F8A9F8A9F8A",
"G  c #A3F6A3F6A3F6",
"H  c #AA2DAA2DAA2D",
"J  c #ABD1ABD1ABD1",
"K  c #AE90AE90AE90",
"L  c #B017B017B017",
"P  c #B1A1B1A1B1A1",
"I  c #B3F7B3F7B3F7",
"U  c #B581B581B581",
"Y  c #B5DCB5DCB5DC",
"T  c #B9ACB9ACB9AC",
"R  c #BA66BA66BA66",
"E  c #BBECBBECBBEC",
"W  c #C09FC09FC09F",
"Q  c #F466DB47A907",
"!  c #F4A1DC00AABF",
"~  c #C0DCC0DCC0DC",
"^  c #C776C776C776",
"/  c #C88EC88EC88E",
"(  c #C941C941C941",
")  c #CC2ACC2ACC2A",
"_  c #CF42CF42CF42",
"`  c #D06AD06AD06A",
"'  c #D152D152D152",
"]  c #D53AD53AD53A",
"[  c #D675D675D675",
"{  c #D748D748D748",
"}  c #D895D895D895",
"|  c #DC2FDC2FDC2F",
" . c #E4D4E4D4E4D4",
".. c #E548E548E548",
"X. c #EAAAEAAAEAAA",
"o. c #ED72ED72ED72",
"O. c #EF88EF88EF88",
"+. c #F3B2F3B2F3B2",
"@. c #F863F863F863",
"#. c #F949F949F949",
"$. c #FA6DFA6DFA6D",
"%. c #FB8AFB8AFB8A",
"&. c #FC71FC71FC71",
"*. c #FD7DFD7DFD7D",
"=. c #FEAAFEAAFEAA",
"-. c #FF7FFF7FFF7F",
";. c gray100",
/* pixels */
"n n n n n n n n n n n n n n n n n     n n n n n n n n n n n n n n n n n ",
"n n n n n n n n n n n n n n n n n     n n n n n n n n n n n n n n n n n ",
"n n n n n n n n n n n n n n                 n n n n n n n n n n n n n n ",
"n n n n n n n n n n n                             n n n n n n n n n n n ",
"n n n n n n n n n                                     n n n n n n n n n ",
"n n n n n n n n                         d d d d         n n n n n n n n ",
"n n n n n n n                         d d d d d d d       n n n n n n n ",
"n n n n n n                         d d d D D D D d d       n n n n n n ",
"n n n n n                           d d D D D D D D d d       n n n n n ",
"n n n n   5 h C l 5               B T P D _ _ } X.] ] T A C C p n n n n ",
"n n n M  .;.$.;.$.;.( +         1 ;.$.W D _ _ O.;.;.;.;.;.;.;.Y n n n n ",
"n n n $.$.;.;.;.;.;.$.^     % 5 | $.$.W D _ _ $.;.;.;.;.;.;.;.Y   n n n ",
"n n N ;.;.;.3 % u ;.;.;.1 B ;.;.$.;.$.W D _ _ ;.;.;.] K z 3 3 *   n n n ",
"n n Q ;.;.0       T ;.$.y B ;.;.;.;.;.S D _ ` ;.;.$.D D d         n n n ",
"n n G ;.;.1       W ;.;.9 > 8 9 C ;.@.S D D H ;.;.} ..O.T y         n n ",
"n n O * %       g ;.;.;.%       C ;.@.S d D Y ;.;.;.;.;.;.;...*     n n ",
"n n         9 +.;.;.;.s         C ;.@.p d d D ;.;.;.( ` ;.$.;.(     n n ",
"        * T ;.;.$.;.u           A ;.@.p     A ] ] h d   + ;.;.;.,       ",
"      1 ;.$.$.;.C %             C ;.@.p                   H ;.;.t       ",
"n n + ;.;.;.P *                 C ;.@.p     ;.;.;.o       ( ;.;.7   n n ",
"n n f ;.;.v 3 3 3 3 3 3 O       C ;.$.p     ( ;.;.B > * g ;.;.;.%   n n ",
"n n ] ;.;.;.;.;.;.;.;.;.p       C ;.@.p     8 ;.;.@.;.;.;.;.;.h     n n ",
"n n ;.;.;.;.;.;.;.;.;.$.p       A ;.@.p       t ;.;.;.;.;.;.v     n n n ",
"n n Q A C C C C A C C C 4       w C C 4         + 0 z v w >       n n n ",
"n n n                                                             n n n ",
"n n n n                                                         n n n n ",
"n n n n                                                         n n n n ",
"n n n n n                                                     n n n n n ",
"n n n n n n                                                 n n n n n n ",
"n n n n n n n                                             n n n n n n n ",
"n n n n n n n n                                         n n n n n n n n ",
"n n n n n n n n n                                     n n n n n n n n n ",
"n n n n n n n n n n n                             n n n n n n n n n n n ",
"n n n n n n n n n n n n n n                 n n n n n n n n n n n n n n ",
"n n n n n n n n n n n n n n n n n     n n n n n n n n n n n n n n n n n ",
"n n n n n n n n n n n n n n n n n     n n n n n n n n n n n n n n n n n "
};
