/* XPM */
static char *bmoku-0-LB-120[] = {
/* columns rows colors chars-per-pixel */
"36 36 110 2",
"   c #000100010001",
".  c #015A015A015A",
"X  c #027102710271",
"o  c gray1",
"O  c #07A507A507A5",
"+  c #08C508C508C5",
"@  c #0A230A230A23",
"#  c #0B6B0B6B0B6B",
"$  c #0E8E0E8E0E8E",
"%  c #104D104D104D",
"&  c #114F114F114F",
"*  c #121312131213",
"=  c #136613661366",
"-  c #148114811481",
";  c #15CA15CA15CA",
":  c #167E167E167E",
">  c #1B111B111B11",
",  c #1DAF1DAF1DAF",
"<  c #1EDC1EDC1EDC",
"1  c #22C422C422C4",
"2  c #247924792479",
"3  c #276C276C276C",
"4  c #2A402A402A40",
"5  c #2DE52DE52DE5",
"6  c #30F830F830F8",
"7  c #33C033C033C0",
"8  c #359E359E359E",
"9  c #37BE37BE37BE",
"0  c #3C0D3C0D3C0D",
"q  c #3D043D043D04",
"w  c #402340234023",
"e  c #42E942E942E9",
"r  c #440F440F440F",
"t  c #451945194519",
"y  c #46FC46FC46FC",
"u  c #4F3B4F3B4F3B",
"i  c #4F8D4F8D4F8D",
"p  c #59FE59FE59FE",
"a  c #618561856185",
"s  c #632963296329",
"d  c #65F965F965F9",
"f  c #681D681D681D",
"g  c #68F668F668F6",
"h  c #713471347134",
"j  c #71F371F371F3",
"k  c #736473647364",
"l  c #7B597B597B59",
"z  c #7BC77BC77BC7",
"x  c #7DDE7DDE7DDE",
"c  c #E79DB2CA4924",
"v  c #812A812A812A",
"b  c #830183018301",
"n  c #841A841A841A",
"m  c #856685668566",
"M  c #86FD86FD86FD",
"N  c #8B228B228B22",
"B  c #8FFF8FFF8FFF",
"V  c #941D941D941D",
"C  c #9AF99AF99AF9",
"Z  c #9C7E9C7E9C7E",
"A  c #9E6C9E6C9E6C",
"S  c #9F989F989F98",
"D  c #A12BA12BA12B",
"F  c #A449A449A449",
"G  c #A95FA95FA95F",
"H  c #ACCEACCEACCE",
"J  c #B154B154B154",
"K  c #B465B465B465",
"L  c #BA1DBA1DBA1D",
"P  c #BF3FBF3FBF3F",
"I  c #C61BC61BC61B",
"U  c #CB25CB25CB25",
"Y  c #CC41CC41CC41",
"T  c #CDA1CDA1CDA1",
"R  c #CDE7CDE7CDE7",
"E  c #CF3CCF3CCF3C",
"W  c #D12AD12AD12A",
"Q  c #D25DD25DD25D",
"!  c #D302D302D302",
"~  c #D3D8D3D8D3D8",
"^  c #D890D890D890",
"/  c #D981D981D981",
"(  c #DA4DDA4DDA4D",
")  c #DC0DDC0DDC0D",
"_  c #DD87DD87DD87",
"`  c #DEAADEAADEAA",
"'  c #DF50DF50DF50",
"]  c #E1AAE1AAE1AA",
"[  c #E588E588E588",
"{  c #E95FE95FE95F",
"}  c #EB69EB69EB69",
"|  c #EBEFEBEFEBEF",
" . c #ED59ED59ED59",
".. c #EEC6EEC6EEC6",
"X. c #EF7AEF7AEF7A",
"o. c #F0BBF0BBF0BB",
"O. c #F1DBF1DBF1DB",
"+. c #F23FF23FF23F",
"@. c #F367F367F367",
"#. c #F42DF42DF42D",
"$. c #F5CFF5CFF5CF",
"%. c #F7A4F7A4F7A4",
"&. c #F8BBF8BBF8BB",
"*. c #F975F975F975",
"=. c #FB6AFB6AFB6A",
"-. c #FC94FC94FC94",
";. c #FDBEFDBEFDBE",
":. c #FE79FE79FE79",
">. c #FF87FF87FF87",
",. c gray100",
/* pixels */
"c c c c c c c c c c c c c c c c c     c c c c c c c c c c c c c c c c c ",
"c c c c c c c c c c c c c c c c c     c c c c c c c c c c c c c c c c c ",
"c c c c c c c c c c c c c c                 c c c c c c c c c c c c c c ",
"c c c c c c c c c c c                             c c c c c c c c c c c ",
"c c c c c c c c c                                     c c c c c c c c c ",
"c c c c c c c c                         a a a a         c c c c c c c c ",
"c c c c c c c                         a a a a a a a       c c c c c c c ",
"c c c c c c                         a a a A A A A a a       c c c c c c ",
"c c c c c                           a a A A A A A A a a       c c c c c ",
"c c c c     7 B M           : p v v V F A E E E E D L J l 0     c c c c ",
"c c c c     ' ..,.        N ,.,.,.&.&.,.P E E E ^ ,.,.,.&.,...: c c c c ",
"c c c + , l ,.' ,.      j ,.$.,.,.,.,.$.,.^ E Q ,.,.$.,.,.,.^ Q   c c c ",
"c c c ,.,.,.,.' ,.      ,.,.,.j = , ..,.{ @.E { ,.&.,.H v ,.,.,.8 c c c ",
"c c c ,.,.,.,.' ,.    $ ,.Q ,.      x ,.@.,.E ,.,.,.L A a G ,.U C c c c ",
"c c   0 0 0 ,.' ,.    > ,.,.I       0 ,...,.A ,.,.,.D A a y ,.E [   c c ",
"c c         ,.' ,.      = = +     1 ,.,.@.U A ,.$.,.D a a 1 ,.^ ,.  c c ",
"c c         ,.' ,.            $ A ,.,.' @.f a ,.@.,.a a   = ,.' ,.  c c ",
"            ,.' ,.          a ,.,.@.,.L =   a ,...,.d     3 ,.^ ,.      ",
"            ,.' ,.        K ,.@.,...e         ,.&.,.$     y ,.Q E       ",
"c c         ,.' ,.      A ,.' ,.i             @.,.,.y     D ,.Q A   c c ",
"c c         ,.' ,.    + ,.' ,.4 4 4 4 4 4 3   M ,.Q { : , ,.,.,.3   c c ",
"c c         ,.' ,.    i ,...,.,.,.,.,.,.,.,.  O ,.,...,.,.,.{ ^     c c ",
"c c c       ,...,.    M ,.,.,.,.,.,.,.,...,.    1 &.,.,.$.,.P +   c c c ",
"c c c       B B M     7 B B B B B B B B B M       + 8 j f 5 O     c c c ",
"c c c                                                             c c c ",
"c c c c                                                         c c c c ",
"c c c c                                                         c c c c ",
"c c c c c                                                     c c c c c ",
"c c c c c c                                                 c c c c c c ",
"c c c c c c c                                             c c c c c c c ",
"c c c c c c c c                                         c c c c c c c c ",
"c c c c c c c c c                                     c c c c c c c c c ",
"c c c c c c c c c c c                             c c c c c c c c c c c ",
"c c c c c c c c c c c c c c                 c c c c c c c c c c c c c c ",
"c c c c c c c c c c c c c c c c c     c c c c c c c c c c c c c c c c c ",
"c c c c c c c c c c c c c c c c c     c c c c c c c c c c c c c c c c c "
};
