/* XPM */
static char *bmoku-0-LB-183[] = {
/* columns rows colors chars-per-pixel */
"36 36 116 2",
"   c black",
".  c #019701970197",
"X  c #03B003B003B0",
"o  c #051105110511",
"O  c #078007800780",
"+  c #089108910891",
"@  c #098F098F098F",
"#  c #0A0B0A0B0A0B",
"$  c #0CA60CA60CA6",
"%  c #0F050F050F05",
"&  c #12E412E412E4",
"*  c #166516651665",
"=  c #177B177B177B",
"-  c #186E186E186E",
";  c #1A3F1A3F1A3F",
":  c #1CB01CB01CB0",
">  c #1D761D761D76",
",  c #1E421E421E42",
"<  c #23B823B823B8",
"1  c #263126312631",
"2  c #313631363136",
"3  c #327A327A327A",
"4  c #33C033C033C0",
"5  c #348734873487",
"6  c #3C0D3C0D3C0D",
"7  c #449D449D449D",
"8  c #458A458A458A",
"9  c #485248524852",
"0  c #4B9D4B9D4B9D",
"q  c #4E184E184E18",
"w  c #57E657E657E6",
"e  c #5BC35BC35BC3",
"r  c #5D0F5D0F5D0F",
"t  c #5E445E445E44",
"y  c #5EF55EF55EF5",
"u  c #603860386038",
"i  c #618561856185",
"p  c #64DE64DE64DE",
"a  c #66BA66BA66BA",
"s  c #685B685B685B",
"d  c #6CD26CD26CD2",
"f  c #6F186F186F18",
"g  c #72D072D072D0",
"h  c #753175317531",
"j  c #76E476E476E4",
"k  c #786078607860",
"l  c #7B047B047B04",
"z  c #7E5A7E5A7E5A",
"x  c #E79DB2CA4924",
"c  c #82EA82EA82EA",
"v  c #85B685B685B6",
"b  c #86FD86FD86FD",
"n  c #8C968C968C96",
"m  c #8E6C8E6C8E6C",
"M  c #8FFF8FFF8FFF",
"N  c #934493449344",
"B  c #97B897B897B8",
"V  c #9E799E799E79",
"C  c #9F269F269F26",
"Z  c #A06FA06FA06F",
"A  c #A36DA36DA36D",
"S  c #A3EFA3EFA3EF",
"D  c #A5A6A5A6A5A6",
"F  c #A98EA98EA98E",
"G  c #ABA1ABA1ABA1",
"H  c #AD09AD09AD09",
"J  c #AE53AE53AE53",
"K  c #AFD6AFD6AFD6",
"L  c #B100B100B100",
"P  c #B58AB58AB58A",
"I  c #B5FBB5FBB5FB",
"U  c #B86AB86AB86A",
"Y  c #BA6EBA6EBA6E",
"T  c #BAD0BAD0BAD0",
"R  c #BE3DBE3DBE3D",
"E  c #C0F4C0F4C0F4",
"W  c #C48FC48FC48F",
"Q  c #C591C591C591",
"!  c #C831C831C831",
"~  c #C8FEC8FEC8FE",
"^  c #CB6ECB6ECB6E",
"/  c #CD21CD21CD21",
"(  c #CF41CF41CF41",
")  c #D001D001D001",
"_  c gray82",
"`  c #D365D365D365",
"'  c #DA78DA78DA78",
"]  c #DC47DC47DC47",
"[  c #DD50DD50DD50",
"{  c #DDF2DDF2DDF2",
"}  c #DF4EDF4EDF4E",
"|  c #E16BE16BE16B",
" . c #E350E350E350",
".. c #E4A7E4A7E4A7",
"X. c #E614E614E614",
"o. c #E799E799E799",
"O. c #E8B6E8B6E8B6",
"+. c #ECCAECCAECCA",
"@. c #EDC1EDC1EDC1",
"#. c #EEDEEEDEEEDE",
"$. c #EF00EF00EF00",
"%. c #F01DF01DF01D",
"&. c #F29DF29DF29D",
"*. c #F34DF34DF34D",
"=. c #F50EF50EF50E",
"-. c #F66FF66FF66F",
";. c #F751F751F751",
":. c #F8E3F8E3F8E3",
">. c #F983F983F983",
",. c #FA7DFA7DFA7D",
"<. c #FB7EFB7EFB7E",
"1. c #FCB6FCB6FCB6",
"2. c #FD9CFD9CFD9C",
"3. c #FE94FE94FE94",
"4. c #FF93FF93FF93",
"5. c gray100",
/* pixels */
"x x x x x x x x x x x x x x x x x     x x x x x x x x x x x x x x x x x ",
"x x x x x x x x x x x x x x x x x     x x x x x x x x x x x x x x x x x ",
"x x x x x x x x x x x x x x                 x x x x x x x x x x x x x x ",
"x x x x x x x x x x x                             x x x x x x x x x x x ",
"x x x x x x x x x                                     x x x x x x x x x ",
"x x x x x x x x                         i i i i         x x x x x x x x ",
"x x x x x x x                         i i i i i i i       x x x x x x x ",
"x x x x x x                         i i i V V V V i i       x x x x x x ",
"x x x x x                           i i V V V V V V i i       x x x x x ",
"x x x x     4 M b           $ 9 j j M A V ( ( ( ( K R U i 4     x x x x ",
"x x x x     } #.5.        j 5.5.5.*.5.5.W ( ( ( %.5.5.5.<.5.K   x x x x ",
"x x x + : l 5.} 5.      w 5.5.#.5.5.5.<.5.' ( o.5.5.5.5.5.5.<.l   x x x ",
"x x x 5.5.5.5.} 5.      O.5.#.M ; ; ) 5.O.*.) 5.5.5.| S S 5.| 5.  x x x ",
"x x x 5.5.5.5.} 5.      5.5.5.*     j 5.%.5.) 5.<.5.A V p 5.5.5.$ x x x ",
"x x   6 6 6 5.} 5.      5.5.5.q     f 5.#.5.V 5.5.5.V V f 5.| 5.O   x x ",
"x x         5.} 5.      d 5.o.5.<.<.5.*.5.R V V V V | #.5.5.5.c     x x ",
"x x         5.} 5.        U 5.5.5.5.5.5.U i i V V V 5.5.5.5.5.e     x x ",
"            5.} 5.      P 5.' 5.K W 5.5.5.i i i i i G N ~ 5.<.5.r       ",
"            5.} 5.      5.*.5.<     e 5.( *.  B B M       9 5.) *.      ",
"x x         5.} 5.      5.o.5.O     < 5.} 5.  5.%.5.O     < 5.} 5.  x x ",
"x x         5.} 5.      5.5.5.z ; : ~ 5.( U   5.5.5.p & : W 5.~ U   x x ",
"x x         5.} 5.      z 5.<.%.5.5.5.%.5.4   N 5.*.5.5.5.5.%.5.4   x x ",
"x x x       5.#.5.        N 5.5.5.*.5.5.e       G 5.5.5.<.5.5.r   x x x ",
"x x x       M N b           & 9 l g 8 +           : p b f 8 +     x x x ",
"x x x                                                             x x x ",
"x x x x                                                         x x x x ",
"x x x x                                                         x x x x ",
"x x x x x                                                     x x x x x ",
"x x x x x x                                                 x x x x x x ",
"x x x x x x x                                             x x x x x x x ",
"x x x x x x x x                                         x x x x x x x x ",
"x x x x x x x x x                                     x x x x x x x x x ",
"x x x x x x x x x x x                             x x x x x x x x x x x ",
"x x x x x x x x x x x x x x                 x x x x x x x x x x x x x x ",
"x x x x x x x x x x x x x x x x x     x x x x x x x x x x x x x x x x x ",
"x x x x x x x x x x x x x x x x x     x x x x x x x x x x x x x x x x x "
};
