/* XPM */
static char *bmoku-0-LB-319[] = {
/* columns rows colors chars-per-pixel */
"36 36 119 2",
"   c #000100010001",
".  c #013D013D013D",
"X  c #078007800780",
"o  c #082F082F082F",
"O  c #0A560A560A56",
"+  c #0BF70BF70BF7",
"@  c #0CEB0CEB0CEB",
"#  c #0D8F0D8F0D8F",
"$  c #118411841184",
"%  c #123012301230",
"&  c #132413241324",
"*  c #18CA18CA18CA",
"=  c #19C219C219C2",
"-  c #1B5E1B5E1B5E",
";  c #1CE91CE91CE9",
":  c #1DAF1DAF1DAF",
">  c #1EAE1EAE1EAE",
",  c #1FC61FC61FC6",
"<  c #22CA22CA22CA",
"1  c #264126412641",
"2  c #2A5A2A5A2A5A",
"3  c #2B312B312B31",
"4  c #2DF02DF02DF0",
"5  c #2E882E882E88",
"6  c #304C304C304C",
"7  c #336233623362",
"8  c #34AF34AF34AF",
"9  c #3AE83AE83AE8",
"0  c #3C103C103C10",
"q  c #3CEA3CEA3CEA",
"w  c #3EFA3EFA3EFA",
"e  c #3F8B3F8B3F8B",
"r  c #417C417C417C",
"t  c #443444344434",
"y  c #47A647A647A6",
"u  c #48C248C248C2",
"i  c #4AA44AA44AA4",
"p  c #4B734B734B73",
"a  c #4E824E824E82",
"s  c #507C507C507C",
"d  c #51D051D051D0",
"f  c #52E252E252E2",
"g  c #54C254C254C2",
"h  c #559955995599",
"j  c #58B858B858B8",
"k  c #5A445A445A44",
"l  c #618561856185",
"z  c #67C367C367C3",
"x  c #68CC68CC68CC",
"c  c #6AFA6AFA6AFA",
"v  c gray44",
"b  c #732E732E732E",
"n  c #73EE73EE73EE",
"m  c #75B575B575B5",
"M  c #78AA78AA78AA",
"N  c #7ACC7ACC7ACC",
"B  c #7F2D7F2D7F2D",
"V  c #E79DB2CA4924",
"C  c #E7F4B3DE4BB2",
"Z  c #EC9DC29E6EA0",
"A  c #EDCFC669779B",
"S  c #847684768476",
"D  c #863C863C863C",
"F  c #86FD86FD86FD",
"G  c #87DE87DE87DE",
"H  c #88AB88AB88AB",
"J  c #8A1C8A1C8A1C",
"K  c #8A9C8A9C8A9C",
"L  c #8FFF8FFF8FFF",
"P  c #97B897B897B8",
"I  c #996699669966",
"U  c #9E799E799E79",
"Y  c #9EDF9EDF9EDF",
"T  c #A190A190A190",
"R  c #A27BA27BA27B",
"E  c #A538A538A538",
"W  c #A62EA62EA62E",
"Q  c #ACA5ACA5ACA5",
"!  c #ACBEACBEACBE",
"~  c #B02EB02EB02E",
"^  c #B581B581B581",
"/  c #B66BB66BB66B",
"(  c #B801B801B801",
")  c #B906B906B906",
"_  c #BAAABAAABAAA",
"`  c #BD11BD11BD11",
"'  c #BDC8BDC8BDC8",
"]  c #F19AD2699409",
"[  c #C0DCC0DCC0DC",
"{  c #C266C266C266",
"}  c #C549C549C549",
"|  c #C641C641C641",
" . c #C972C972C972",
".. c #CDC9CDC9CDC9",
"X. c #CF2BCF2BCF2B",
"o. c #D05BD05BD05B",
"O. c #D24ED24ED24E",
"+. c #D3ACD3ACD3AC",
"@. c #D5A5D5A5D5A5",
"#. c #D891D891D891",
"$. c #D9F7D9F7D9F7",
"%. c #DBA5DBA5DBA5",
"&. c #DC81DC81DC81",
"*. c #E25CE25CE25C",
"=. c #E94BE94BE94B",
"-. c #ECD3ECD3ECD3",
";. c #ED06ED06ED06",
":. c #F1B3F1B3F1B3",
">. c #F276F276F276",
",. c #F7A9F7A9F7A9",
"<. c #F873F873F873",
"1. c #F92EF92EF92E",
"2. c #FA7DFA7DFA7D",
"3. c #FB89FB89FB89",
"4. c #FC50FC50FC50",
"5. c #FD79FD79FD79",
"6. c #FE83FE83FE83",
"7. c #FF9EFF9EFF9E",
"8. c gray100",
/* pixels */
"V V V V V V V V V V V V V V V V V     V V V V V V V V V V V V V V V V V ",
"V V V V V V V V V V V V V V V V V     V V V V V V V V V V V V V V V V V ",
"V V V V V V V V V V V C V V                 V V V V V V V V V V V V V V ",
"V V V V V V V V V V V                             V V V V V V V V V V V ",
"V V V V V V V V C                                     V V V V V V V V V ",
"V V V V V V V V                         l l l l         V V V V V V V V ",
"V V V V V V V                         l l l l l l l       V V V V V V V ",
"V V V V V V                         l l l Y Y Y Y l l       V V V V V V ",
"V V V V C                           l l Y Y Y Y Y Y l l       V V V V V ",
"V V V V o y n M p o               K ` ~ Y X.X.X.X.~ } _ c >     V V V V ",
"V V V Z 4.4.4.4.4.4.p           < 4.4.' Y X.X.O.:.4.4.4.4.4.M   V V V V ",
"V V V 4.4.4.4.4.4.4.4.&     & 8 &.4.4.' Y X.O.>.4.4.4.4.4.4.4.p   V V V ",
"V V A 4.4.4.> * ;.4.4.d   K 4.4.4.4.4.' Y X.$.4.4.4.$.E E 4.4.4.  V V V ",
"V V ] 4.3.c     c 3.4.K   K 4.4.4.4.4.Y Y X.*.4.4.=.Y Y l #.4.4.> V V V ",
"V V G 4.4.h     S 4.3.c   * q q P 4.3.I Y Y O.4.4. .Y Y l E 4.4.r   V V ",
"V V       4 $.3.4.4.4.&         L 4.3.I l Y _ 4.4.;.Y l c 4.4.4.d   V V ",
"V V       9 4.4.4.4.X.>         L 4.3.k l l c 4.4.4.;.} 4.4.4.4.h   V V ",
"          > P W 4.4.4.4.o       L 4.3.k     l S 4.4.4.4.4.4.4.4.p       ",
"    a I P 6       O.4.4.q       P 4.3.k         & c /  .N #.4.4.2       ",
"V V S 4.3.v       ~ 4.4.a       L 4.>.k     6 4.4.~     @ 4.4.4.@   V V ",
"V V d 4.4.4.2 & y 4.4.4.<       L 4.>.k     @ 4.4.4.8 > ~ 4.4._     V V ",
"V V @ 4.4.4.4.4.4.4.4.'         P 4.3.k       R 4.4.4.4.3.4.4.>     V V ",
"V V C 4 4.4.4.4.4.4.' &         L 4.3.k       o O.4.4.4.4.4.q     V V V ",
"V V V   o r m K k 4             p L L 4           r v B a o       V V V ",
"V V V                                                             V V V ",
"V V V V                                                         V V V V ",
"V V V V                                                         V V V V ",
"V V V V V                                                     C V V V V ",
"V V V V V V                                                 V V V V V V ",
"V V V V V V V                                             V V V V V V V ",
"V V V V V V V V                                         V V V V V V V V ",
"V V V V V V V V V                                     V V V V V V V V V ",
"V V V V V V V V V V V                             V V V V V V V V V V V ",
"V V V V V V V V V V V V V V                 V V V V V V V V V V V V V V ",
"V V V V V V V V V V V V V V V V V     V V V V V V V V V V V V V V V V V ",
"V V V V V V V V V V V V V V V V V     V V V V V V V V V V V V V V V V V "
};
