/* XPM */
static char *bmoku-0-LB-158[] = {
/* columns rows colors chars-per-pixel */
"36 36 114 2",
"   c black",
".  c #016001600160",
"X  c #021102110211",
"o  c #071D071D071D",
"O  c #089108910891",
"+  c #0A0B0A0B0A0B",
"@  c #0CFF0CFF0CFF",
"#  c #0D270D270D27",
"$  c #0FD50FD50FD5",
"%  c #12E412E412E4",
"&  c #186E186E186E",
"*  c #1CD61CD61CD6",
"=  c #1D761D761D76",
"-  c #1FC61FC61FC6",
";  c #223E223E223E",
":  c #23B823B823B8",
">  c #26F926F926F9",
",  c #286028602860",
"<  c #2A652A652A65",
"1  c #2ED32ED32ED3",
"2  c #33C033C033C0",
"3  c #348734873487",
"4  c #360A360A360A",
"5  c #377037703770",
"6  c #3AFD3AFD3AFD",
"7  c #3C0D3C0D3C0D",
"8  c #3CD23CD23CD2",
"9  c #425942594259",
"0  c #458A458A458A",
"q  c #488848884888",
"w  c #4C0C4C0C4C0C",
"e  c #513351335133",
"r  c #536153615361",
"t  c #596E596E596E",
"y  c #5B715B715B71",
"u  c #5E445E445E44",
"i  c #5EF55EF55EF5",
"p  c #618561856185",
"a  c #629762976297",
"s  c #63FA63FA63FA",
"d  c #6BF36BF36BF3",
"f  c #6F016F016F01",
"g  c #702570257025",
"h  c #711371137113",
"j  c #719571957195",
"k  c #72D072D072D0",
"l  c #76C576C576C5",
"z  c #7A277A277A27",
"x  c #7B047B047B04",
"c  c #7BAB7BAB7BAB",
"v  c #7E5A7E5A7E5A",
"b  c #E79DB2CA4924",
"n  c #843C843C843C",
"m  c #870D870D870D",
"M  c #887088708870",
"N  c #8B788B788B78",
"B  c #8F288F288F28",
"V  c #900690069006",
"C  c #927D927D927D",
"Z  c #973197319731",
"A  c #994799479947",
"S  c #9E759E759E75",
"D  c #9F3A9F3A9F3A",
"F  c #A34AA34AA34A",
"G  c #A76BA76BA76B",
"H  c #A881A881A881",
"J  c #A90AA90AA90A",
"K  c #AAFFAAFFAAFF",
"L  c #AE7CAE7CAE7C",
"P  c #AF8CAF8CAF8C",
"I  c #B766B766B766",
"U  c #B85BB85BB85B",
"Y  c #BA6DBA6DBA6D",
"T  c #BC08BC08BC08",
"R  c #BEB2BEB2BEB2",
"E  c #C589C589C589",
"W  c #C80FC80FC80F",
"Q  c #CC6BCC6BCC6B",
"!  c #CD5CCD5CCD5C",
"~  c #CF39CF39CF39",
"^  c #D046D046D046",
"/  c #D136D136D136",
"(  c #D47CD47CD47C",
")  c #D554D554D554",
"_  c #D81CD81CD81C",
"`  c #D90DD90DD90D",
"'  c #DB46DB46DB46",
"]  c #DD53DD53DD53",
"[  c #DDF2DDF2DDF2",
"{  c #DF4EDF4EDF4E",
"}  c #DFFADFFADFFA",
"|  c #E15CE15CE15C",
" . c #E552E552E552",
".. c #E603E603E603",
"X. c #E846E846E846",
"o. c #E9E2E9E2E9E2",
"O. c #EA9EEA9EEA9E",
"+. c #EBABEBABEBAB",
"@. c #EE5FEE5FEE5F",
"#. c #F0ABF0ABF0AB",
"$. c #F27DF27DF27D",
"%. c #F305F305F305",
"&. c #F430F430F430",
"*. c #F50EF50EF50E",
"=. c #F666F666F666",
"-. c #F741F741F741",
";. c #F899F899F899",
":. c #F991F991F991",
">. c #FB5EFB5EFB5E",
",. c #FC6AFC6AFC6A",
"<. c #FD95FD95FD95",
"1. c #FEA4FEA4FEA4",
"2. c #FF9DFF9DFF9D",
"3. c gray100",
/* pixels */
"b b b b b b b b b b b b b b b b b     b b b b b b b b b b b b b b b b b ",
"b b b b b b b b b b b b b b b b b     b b b b b b b b b b b b b b b b b ",
"b b b b b b b b b b b b b b                 b b b b b b b b b b b b b b ",
"b b b b b b b b b b b                             b b b b b b b b b b b ",
"b b b b b b b b b                                     b b b b b b b b b ",
"b b b b b b b b                         p p p p         b b b b b b b b ",
"b b b b b b b                         p p p p p p p       b b b b b b b ",
"b b b b b b                         p p p S S S S p p       b b b b b b ",
"b b b b b                           p p S S S S S S p p       b b b b b ",
"b b b b     2 V m         V V V V V U ) ) / ~ ~ ~ F U K l q #   b b b b ",
"b b b b     { @.3.      = 3.3.3.3.3.3.3.3.) ~ ~ ..3.3.3.;.3.3.s b b b b ",
"b b b O = x 3.{ 3.      e 3.@.3.3.3.3.3.3.) ~ | 3.3.;.3.3.3.&.3.6 b b b ",
"b b b 3.3.3.3.{ 3.      m 3.%.w < < x L L ~ ~ ;.3.3.o.K h U 3.~ T b b b ",
"b b b 3.3.3.3.{ 3.      U 3.3.<     p p S ~ ~ 3.3.3.G S p = 3.{ 3.b b b ",
"b b   7 6 7 3.{ 3.      | 3.3.Z / L h h S S S 3.3.3.T S p f 3.~ 3.  b b ",
"b b         3.{ 3.      3.;.3.3.3.3.@.3.G S S W 3.&.3.;.3.3.@.3.e   b b ",
"b b         3.{ 3.      3.;.3.' Z | 3.&.3.n p S ..3.3.3.3.3.3.m     b b ",
"            3.{ 3.      T U h       S 3.Q I p ~ 3.o.3.L W 3.3.3.p       ",
"            3.{ 3.                  ; 3.' 3.  3.&.3.;     u 3.~ &.      ",
"b b         3.{ 3.    x 3.3.t       7 3.' o.  3...3.o     ; 3.{ 3.  b b ",
"b b         3.{ 3.    9 3.' 3.5 % > @.3.' V   3.3.3.x & = W 3.~ I   b b ",
"b b         3.{ 3.      o.3.o.3.3.3.3...3.%   v 3.;.&.3.3.3.%.3.5   b b ",
"b b b       3.@.3.      # ) 3.3.3.&.3.| 1       V 3.3.3.;.3.3.t   b b b ",
"b b b       V V m           > f N p 5             % w x h 0 O     b b b ",
"b b b                                                             b b b ",
"b b b b                                                         b b b b ",
"b b b b                                                         b b b b ",
"b b b b b                                                     b b b b b ",
"b b b b b b                                                 b b b b b b ",
"b b b b b b b                                             b b b b b b b ",
"b b b b b b b b                                         b b b b b b b b ",
"b b b b b b b b b                                     b b b b b b b b b ",
"b b b b b b b b b b b                             b b b b b b b b b b b ",
"b b b b b b b b b b b b b b                 b b b b b b b b b b b b b b ",
"b b b b b b b b b b b b b b b b b     b b b b b b b b b b b b b b b b b ",
"b b b b b b b b b b b b b b b b b     b b b b b b b b b b b b b b b b b "
};
