/* XPM */
static char *bmoku-0-LB-346[] = {
/* columns rows colors chars-per-pixel */
"36 36 123 2",
"   c #000100010001",
".  c #013F013F013F",
"X  c #055905590559",
"o  c #069D069D069D",
"O  c #082F082F082F",
"+  c #0AA30AA30AA3",
"@  c #0D9A0D9A0D9A",
"#  c #119011901190",
"$  c #126312631263",
"%  c #134713471347",
"&  c #15C015C015C0",
"*  c #18CA18CA18CA",
"=  c #19C219C219C2",
"-  c #1CD41CD41CD4",
";  c #1EAE1EAE1EAE",
":  c #1F881F881F88",
">  c #266326632663",
",  c #292529252925",
"<  c #2B312B312B31",
"1  c #2DF02DF02DF0",
"2  c #2E3E2E3E2E3E",
"3  c #304C304C304C",
"4  c #326A326A326A",
"5  c #380938093809",
"6  c #3C103C103C10",
"7  c #3CAC3CAC3CAC",
"8  c #3EBA3EBA3EBA",
"9  c #440C440C440C",
"0  c #447144714471",
"q  c #47A647A647A6",
"w  c #496A496A496A",
"e  c #4AA14AA14AA1",
"r  c #4B964B964B96",
"t  c #4E824E824E82",
"y  c #507C507C507C",
"u  c #54C254C254C2",
"i  c #56D356D356D3",
"p  c #58B858B858B8",
"a  c #5A445A445A44",
"s  c #5AA15AA15AA1",
"d  c #618561856185",
"f  c #626F626F626F",
"g  c #67C467C467C4",
"h  c #68D068D068D0",
"j  c #69DB69DB69DB",
"k  c #6BCB6BCB6BCB",
"l  c #6C7B6C7B6C7B",
"z  c #6E926E926E92",
"x  c #6FB36FB36FB3",
"c  c #732E732E732E",
"v  c #73EE73EE73EE",
"b  c #75B575B575B5",
"n  c #777477747774",
"m  c #78AA78AA78AA",
"M  c #E79DB2CA4924",
"N  c #E7ADB2FD499D",
"B  c #E7F4B3DE4BB2",
"V  c #E850B5014E63",
"C  c #E89AB5EC508E",
"Z  c #E97BB8B35723",
"A  c #EC0AC0CE6A56",
"S  c #EC9DC29E6EA0",
"D  c #EDCFC669779B",
"F  c #847684768476",
"G  c #85CC85CC85CC",
"H  c #88AB88AB88AB",
"J  c #8AAF8AAF8AAF",
"K  c #8D478D478D47",
"L  c #8FFE8FFE8FFE",
"P  c #92EA92EA92EA",
"I  c #959A959A959A",
"U  c #974A974A974A",
"Y  c #97B897B897B8",
"T  c #99E099E099E0",
"R  c #9E799E799E79",
"E  c #9F6C9F6C9F6C",
"W  c #A50EA50EA50E",
"Q  c #A62EA62EA62E",
"!  c #A8DAA8DAA8DA",
"~  c #AA72AA72AA72",
"^  c #AFD2AFD2AFD2",
"/  c #B436B436B436",
"(  c #B61DB61DB61D",
")  c #BAAABAAABAAA",
"_  c #BB37BB37BB37",
"`  c #BC69BC69BC69",
"'  c #BD11BD11BD11",
"]  c #BDC8BDC8BDC8",
"[  c #BF40BF40BF40",
"{  c #EF82CBC98458",
"}  c #F19AD2699409",
"|  c #F472DB6DA962",
" . c #C1D5C1D5C1D5",
".. c #C938C938C938",
"X. c #CA2ECA2ECA2E",
"o. c #CBF5CBF5CBF5",
"O. c #CD4DCD4DCD4D",
"+. c #CF3ECF3ECF3E",
"@. c #D05BD05BD05B",
"#. c #D191D191D191",
"$. c #D310D310D310",
"%. c #D571D571D571",
"&. c #D96CD96CD96C",
"*. c #D9F7D9F7D9F7",
"=. c #DAF9DAF9DAF9",
"-. c #DC8FDC8FDC8F",
";. c #DEA2DEA2DEA2",
":. c #E027E027E027",
">. c #ED06ED06ED06",
",. c #F1FBF1FBF1FB",
"<. c #F4C4F4C4F4C4",
"1. c #F7A9F7A9F7A9",
"2. c #F866F866F866",
"3. c #F927F927F927",
"4. c #FA52FA52FA52",
"5. c #FB80FB80FB80",
"6. c #FC73FC73FC73",
"7. c #FD69FD69FD69",
"8. c #FE86FE86FE86",
"9. c #FF9EFECCFD27",
"0. c #FFBDFF2FFE12",
"q. c #FF66FF66FF66",
"w. c gray100",
/* pixels */
"M M M M M M M M M M M M M M M M M     M M M M M M M M M M M M M M M M M ",
"M M M M M M M M M M M M M M M M M     M M M M M M M M M M M M M M M M M ",
"M M M M M M M M M M M M M M                 M M M M M M M M M M M M M M ",
"M M M M M M M M M M M                             M M M M M M M M M M M ",
"M M M M M M M M M                                     M M M M M M M M M ",
"M M M M M M M M                         d d d d         M M M M M M M M ",
"M M M M M M M                         d d d d d d d       M M M M M M M ",
"M M M M M M                         d d d R R R R d d       M M M M M M ",
"M M M M M                           d d R R R R R R d d       M N N M M ",
"M M M V 9 c n e +                   ( $.) +.+.+.+.R W T G g 4   N N M M ",
"M M S w.w.w.w.w.w.q               d w.w.$.$.+.+.+.:.w.w.w.3.w.! B B M M ",
"M M w.w.1.w.w.3.w.w.%           > w.w.w.$.+.+.+.&.w.w.w.w.w.w.w.g M M M ",
"M D w.w.w.- * >.w.w.t         o 1.w.w.w.$.$.$.+.w.w.w.$.c e w.w.w.M M M ",
"M } w.3.g     g 1.w.J         P 3.w.3.w.$.+.+.$.w.w.w.R d   ,.w.w.Z M M ",
"M | w.w.u     G 3.1.g       q w.3. .3.w.$.R R -.w.w.$.] / g 5       M M ",
"M M     < &.1.w.w.w.%     & w.w.w.a 3.w.) R R o.w.3.w.w.w.w.w.o.%   M M ",
"N N     6 w.w.w.w.+.*     o.3.w.9 a 3.w.] d d $.w.w.w.w.-.w.3.3.]   M M ",
"        * P Q 3.w.w.w.o g w.w.I   a 3.w.K   d / w.w.3.@   % w.w.w.-     ",
"  t I I 4       +.w.w.6 w.w.w.$.&.&.3.w.&.&.g x 3.3.g       ! w.w.q     ",
"N | w.1.c       ^ w.w.t w.w.w.w.w.w.w.w.w.w.P 8 w.3.K       o.w.w.8 M M ",
"N { w.w.w.> % 9 w.w.w.- K P K P P K 3.w.K P e + w.w.w.e % a w.w.w.& M M ",
"N C w.w.3.w.w.w.w.3.]             a 3.w.K       n w.w.w.w.w.w.w.J   M M ",
"M M A w.w.3.w.3.w.] @             a 3.w.P         Q w.1.w.3.w.I o M M M ",
"M M M o 8 n J a 2                 2 K P e           > x P u <     M M M ",
"M M M                                                             M M M ",
"M M M M                                                         M M M M ",
"M M M M                                                         M M M M ",
"M M M M M                                                     M M M M M ",
"M M M M M M                                                 M M M M M M ",
"M M M M M M M                                             M M M M M M M ",
"M M M M M M M M                                         M M M M M M M M ",
"M M M M M M M M M                                     M M M M M M M M M ",
"M M M M M M M M M M M                             M M M M M M M M M M M ",
"M M M M M M M M M M M M M M                 M M M M M M M M M M M M M M ",
"M M M M M M M M M M M M M M M M M     M M M M M M M M M M M M M M M M M ",
"M M M M M M M M M M M M M M M M M     M M M M M M M M M M M M M M M M M "
};
