/* XPM */
static char *bmoku-0-LB-323[] = {
/* columns rows colors chars-per-pixel */
"36 36 121 2",
"   c #000100010001",
".  c #016B016B016B",
"X  c #022602260226",
"o  c #03FD03FD03FD",
"O  c #083F083F083F",
"+  c #0A810A810A81",
"@  c #0C2C0C2C0C2C",
"#  c #0D5A0D5A0D5A",
"$  c #117D117D117D",
"%  c #123012301230",
"&  c #133F133F133F",
"*  c #144014401440",
"=  c #169C169C169C",
"-  c #18B418B418B4",
";  c #19C219C219C2",
":  c #1CD41CD41CD4",
">  c #1EAE1EAE1EAE",
",  c #1FC71FC71FC7",
"<  c #255A255A255A",
"1  c #265D265D265D",
"2  c #2A402A402A40",
"3  c #2B312B312B31",
"4  c #2DF02DF02DF0",
"5  c #2E5C2E5C2E5C",
"6  c #304D304D304D",
"7  c #329E329E329E",
"8  c #3C103C103C10",
"9  c #3CEB3CEB3CEB",
"0  c #3DD73DD73DD7",
"q  c #3EFA3EFA3EFA",
"w  c #432243224322",
"e  c #443244324432",
"r  c #47B647B647B6",
"t  c #4A8B4A8B4A8B",
"y  c #4E834E834E83",
"u  c #507C507C507C",
"i  c #52E352E352E3",
"p  c #54C254C254C2",
"a  c #57D257D257D2",
"s  c #58B858B858B8",
"d  c #5A445A445A44",
"f  c #618561856185",
"g  c #648864886488",
"h  c #67B467B467B4",
"j  c #68D268D268D2",
"k  c #6B126B126B12",
"l  c #710671067106",
"z  c #733F733F733F",
"x  c #73EE73EE73EE",
"c  c #75B575B575B5",
"v  c #78AA78AA78AA",
"b  c #7FFD7FFD7FFD",
"n  c #E79DB2CA4924",
"m  c #E7F4B3DE4BB2",
"M  c #E850B5014E63",
"N  c #E89AB5EC508E",
"B  c #EC0AC0CE6A56",
"V  c #EC9DC29E6EA0",
"C  c #EDCFC669779B",
"Z  c #847784778477",
"A  c #865E865E865E",
"S  c #86B486B486B4",
"D  c #88A988A988A9",
"F  c #8A9C8A9C8A9C",
"G  c #8F718F718F71",
"H  c #8FF78FF78FF7",
"J  c #96AA96AA96AA",
"K  c #97B897B897B8",
"L  c #9BFD9BFD9BFD",
"P  c #9E799E799E79",
"I  c #9EA49EA49EA4",
"U  c #A146A146A146",
"Y  c #A41AA41AA41A",
"T  c #A62EA62EA62E",
"R  c #A94AA94AA94A",
"E  c #AA23AA23AA23",
"W  c #AEEEAEEEAEEE",
"Q  c #AFD2AFD2AFD2",
"!  c #B1A0B1A0B1A0",
"~  c #B1B5B1B5B1B5",
"^  c #B5E4B5E4B5E4",
"/  c #B878B878B878",
"(  c #B9ABB9ABB9AB",
")  c #BD13BD13BD13",
"_  c #BDC8BDC8BDC8",
"`  c #BEC4BEC4BEC4",
"'  c #EF82CBC98458",
"]  c #F19AD2699409",
"[  c #F472DB6DA962",
"{  c #C616C616C616",
"}  c #CDC9CDC9CDC9",
"|  c #CF3CCF3CCF3C",
" . c #D036D036D036",
".. c #D1A7D1A7D1A7",
"X. c #D495D495D495",
"o. c #D67CD67CD67C",
"O. c #D8A1D8A1D8A1",
"+. c #D93BD93BD93B",
"@. c #D9F7D9F7D9F7",
"#. c #DBA0DBA0DBA0",
"$. c #DED6DED6DED6",
"%. c #E335E335E335",
"&. c #E52FE52FE52F",
"*. c #E874E874E874",
"=. c #E8F2E8F2E8F2",
"-. c #EB24EB24EB24",
";. c #ED08ED08ED08",
":. c #F3B1F3B1F3B1",
">. c #F53AF53AF53A",
",. c #F7A9F7A9F7A9",
"<. c #F888F888F888",
"1. c #F96AF96AF96A",
"2. c #FA3EFA3EFA3E",
"3. c #FB48FB48FB48",
"4. c #FC3DFC3DFC3D",
"5. c #FD76FD76FD76",
"6. c #FEA0FEA0FEA0",
"7. c #FF9EFECCFD27",
"8. c #FFBDFF2FFE12",
"9. c #FF82FF82FF82",
"0. c gray100",
/* pixels */
"n n n n n n n n n n n n n n n n n     n n n n n n n n n n n n n n n n n ",
"n n n n n n n n n n n n n n n n n     n n n n n n n n n n n n n n n n n ",
"n n n n n n n n n n n n n n                 n n n n n n n n n n n n n n ",
"n n n n n n n n n n n                             n n n n n n n n n n n ",
"n n n n n n n n m                                     n n n n n n n n n ",
"n n n n n n n n                         f f f f         n n n n n n n n ",
"n n n n n n n                         f f f f f f f       n n n n n n n ",
"n n n n n n                         f f f I I I I f f       n n n n n n ",
"n n n n n                           f f I I I I I I f f       n n n n n ",
"n n n M w l v t +             7 l G E ~ I  .}  .} Y / T v t +   n n n n ",
"n n V 0.0.0.0.0.0.r       - &.0.1.0.1.0.-. . .} @.0.0.0.0.0.0.r n n n n ",
"n n 0.0.,.0.0.1.0.0.&     1.0.1.0.0.0.0.0.,.}  .0.0.4.0.0.1.0.0.& n n n ",
"n C 0.0.4.> - ;.0.0.y   w 0.0.0.3 & J 0.0.0.o.@.0.0.0.E k ;.0.0.y n n n ",
"n ] 0.1.h     j ,.0.F   Z 0.0.r     f  .0.0.$.%.0.0.{ I f j ,.0.F n n n ",
"n [ 0.0.p     Z 1.,.h   Y 0.0.<       @.0.0.^ &.0.0.` I d Z 1.1.h   n n ",
"n n     3 @.<.0.0.0.&   + & &       j 0.0.0.T I I I Q &.0.0.0.0.&   n n ",
"n n     q 0.0.0.0.} -           w :.0.0.0.I f I I I Z 0.0.0.0.} -   n n ",
"        - H T 1.0.0.0.O     = / 0.0.1.0.d   f f f f x H T 1.0.0.0.O     ",
"  y J J 6       } 0.0.8   < 0.1.1.0.G &       y J J 4       } 0.0.8     ",
"n [ 0.1.l       Q 0.0.y # 0.0.0.~ =           Z 0.,.l       Q 0.0.y n n ",
"n ' 0.0.0.< & w 0.0.0.> h 1.0.b 3 3 3 3 3 3 + y 0.0.0.< & w 0.0.0.> n n ",
"n N 0.0.1.0.0.0.0.1.`   o.0.0.0.0.0.0.0.0.0.d + 0.0.1.0.0.0.0.1.`   n n ",
"n n B 0.0.0.0.1.0.` #   0.0.0.0.0.0.0.0.0.,.d   3 0.0.0.0.1.0.` # n n n ",
"n n n O q x F d 4       F H H G G G G H G G 4     O q x F d 4     n n n ",
"n n n                                                             n n n ",
"n n n n                                                         n n n n ",
"n n n n                                                         n n n n ",
"n n n n n                                                     n n n n n ",
"n n n n n n                                                 n n n n n n ",
"n n n n n n n                                             n n n n n n n ",
"n n n n n n n n                                         n n n n n n n n ",
"n n n n n n n n n                                     n n n n n n n n n ",
"n n n n n n n n n n n                             n n n n n n n n n n n ",
"n n n n n n n n n n n n n n                 n n n n n n n n n n n n n n ",
"n n n n n n n n n n n n n n n n n     n n n n n n n n n n n n n n n n n ",
"n n n n n n n n n n n n n n n n n     n n n n n n n n n n n n n n n n n "
};
