/* XPM */
static char *bmoku-0-LB-113[] = {
/* columns rows colors chars-per-pixel */
"36 36 75 1",
"  c black",
". c #013301330133",
"X c #03B003B003B0",
"o c #051105110511",
"O c #07E407E407E4",
"+ c #089108910891",
"@ c #098F098F098F",
"# c #0F050F050F05",
"$ c #166516651665",
"% c #1CB01CB01CB0",
"& c #1DAF1DAF1DAF",
"* c #1E421E421E42",
"= c #263126312631",
"- c #313631363136",
"; c #327A327A327A",
": c #33C033C033C0",
"> c #3C0D3C0D3C0D",
", c #449D449D449D",
"< c #4B684B684B68",
"1 c #5BED5BED5BED",
"2 c #5D0F5D0F5D0F",
"3 c #618561856185",
"4 c #66BA66BA66BA",
"5 c #685B685B685B",
"6 c #6F676F676F67",
"7 c #786078607860",
"8 c #7B5A7B5A7B5A",
"9 c #E79DB2CA4924",
"0 c #82EA82EA82EA",
"q c #85B685B685B6",
"w c #86FD86FD86FD",
"e c #8C968C968C96",
"r c #8FFF8FFF8FFF",
"t c #937593759375",
"y c #97B897B897B8",
"u c #9D169D169D16",
"i c #9E799E799E79",
"p c #9F269F269F26",
"a c #A088A088A088",
"s c #A6B1A6B1A6B1",
"d c #A98EA98EA98E",
"f c #ABA1ABA1ABA1",
"g c #AD09AD09AD09",
"h c #B550B550B550",
"j c #BC91BC91BC91",
"k c #C0F4C0F4C0F4",
"l c #C599C599C599",
"z c #C866C866C866",
"x c #C8FEC8FEC8FE",
"c c #CB6ECB6ECB6E",
"v c #CF42CF42CF42",
"b c #D037D037D037",
"n c #D1E4D1E4D1E4",
"m c #D530D530D530",
"M c #D7EAD7EAD7EA",
"N c #DD62DD62DD62",
"B c #DF4EDF4EDF4E",
"V c #E16BE16BE16B",
"C c #E350E350E350",
"Z c #E4A7E4A7E4A7",
"A c #E799E799E799",
"S c #EEDEEEDEEEDE",
"D c #F01DF01DF01D",
"F c #F289F289F289",
"G c #F30CF30CF30C",
"H c #F58DF58DF58D",
"J c #F666F666F666",
"K c #F90DF90DF90D",
"L c #FA2EFA2EFA2E",
"P c #FBAFFBAFFBAF",
"I c #FC76FC76FC76",
"U c #FDA1FDA1FDA1",
"Y c #FE9AFE9AFE9A",
"T c #FF81FF81FF81",
"R c gray100",
/* pixels */
"99999999999999999  99999999999999999",
"99999999999999999  99999999999999999",
"99999999999999        99999999999999",
"99999999999              99999999999",
"999999999                  999999999",
"99999999            3333    99999999",
"9999999            3333333   9999999",
"999999            333iiii33   999999",
"99999             33iiiiii33   99999",
"9999   :rw      :rhiivvvMkmi:   9999",
"9999   NSR      NSRiivmSRRRLRf  9999",
"999 +&8RNR   +&8RNRiivZRRRRRRR8  999",
"999 RRRRBR   RRRRBRiivRRRBmzRNR  999",
"999 RRRRNR   RRRRNR3ivRLRviaRRR# 999",
"99  >>>RBR   >>>RBR3iiRRRiisRZRo  99",
"99     RBR      RNR33iiiaBHRRR0   99",
"99     RNR      RBR 333iiRRRRR1   99",
"       RBR      RNR   333fjzRLR1    ",
"       RBR      RBR   yyr   <RmH    ",
"99     RNR      RNR   RGRo  =RNR  99",
"99     RBR      RNR   RRR5$&lRzh  99",
"99     RBR      RBR   rRHRRRRGR:  99",
"999    RSR      RSR    fRRRHRR1  999",
"999    rrw      rrw     %5w6,+   999",
"999                              999",
"9999                            9999",
"9999                            9999",
"99999                          99999",
"999999                        999999",
"9999999                      9999999",
"99999999                    99999999",
"999999999                  999999999",
"99999999999              99999999999",
"99999999999999        99999999999999",
"99999999999999999  99999999999999999",
"99999999999999999  99999999999999999"
};
