/* XPM */
static char *bmoku-0-LB-276[] = {
/* columns rows colors chars-per-pixel */
"36 36 133 2",
"   c #000100010001",
".  c #015A015A015A",
"X  c #068406840684",
"o  c #097E097E097E",
"O  c #0B850B850B85",
"+  c #0D770D770D77",
"@  c #0F050F050F05",
"#  c #0F580F580F58",
"$  c #106A106A106A",
"%  c #118811881188",
"&  c #121312131213",
"*  c #137B137B137B",
"=  c #144014401440",
"-  c #164C164C164C",
";  c #17B317B317B3",
":  c #1A8A1A8A1A8A",
">  c #1EB71EB71EB7",
",  c #20F920F920F9",
"<  c #216F216F216F",
"1  c #244E244E244E",
"2  c #275127512751",
"3  c #2A3F2A3F2A3F",
"4  c #2BE22BE22BE2",
"5  c #2D902D902D90",
"6  c #310D310D310D",
"7  c #316631663166",
"8  c #33C033C033C0",
"9  c #361E361E361E",
"0  c #397339733973",
"q  c #3AA53AA53AA5",
"w  c #3C413C413C41",
"e  c #3DE63DE63DE6",
"r  c #3F053F053F05",
"t  c #3FDF3FDF3FDF",
"y  c #42E942E942E9",
"u  c #4A034A034A03",
"i  c #4B1A4B1A4B1A",
"p  c #4EE34EE34EE3",
"a  c #4F8D4F8D4F8D",
"s  c #51BB51BB51BB",
"d  c #56D356D356D3",
"f  c #59FF59FF59FF",
"g  c #5DB05DB05DB0",
"h  c #606E606E606E",
"j  c #618561856185",
"k  c #634663466346",
"l  c #70E470E470E4",
"z  c #726F726F726F",
"x  c #742274227422",
"c  c #782B782B782B",
"v  c #7BAB7BAB7BAB",
"b  c #7F6D7F6D7F6D",
"n  c #E79DB2CA4924",
"m  c #E7A7B2EA496F",
"M  c #E878B57F4F8D",
"N  c #E8FCB7235370",
"B  c #EA31BAF45C79",
"V  c #EC47C18F6C1E",
"C  c #810181018101",
"Z  c #830183018301",
"A  c #841E841E841E",
"S  c #86FD86FD86FD",
"D  c #888388838883",
"F  c #8FFF8FFF8FFF",
"G  c #92AC92AC92AC",
"H  c #988A988A988A",
"J  c #994599459945",
"K  c #9D739D739D73",
"L  c #9E6E9E6E9E6E",
"P  c #9F989F989F98",
"I  c #A137A137A137",
"U  c #A2DDA2DDA2DD",
"Y  c #A7C8A7C8A7C8",
"T  c #AC6BAC6BAC6B",
"R  c #B031B031B031",
"E  c #B10FB10FB10F",
"W  c #B1E5B1E5B1E5",
"Q  c #B466B466B466",
"!  c #B503B503B503",
"~  c #B60FB60FB60F",
"^  c #BA4DBA4DBA4D",
"/  c #BD30BD30BD30",
"(  c #BE4BBE4BBE4B",
")  c #EF29CAAF81BB",
"_  c #F277D5289A88",
"`  c #F452DB05A86C",
"'  c #F4DDDCC0AC86",
"]  c #F554DE38AFFF",
"[  c #C61BC61BC61B",
"{  c #C993C993C993",
"}  c #CA82CA82CA82",
"|  c #CB5ECB5ECB5E",
" . c #CBD6CBD6CBD6",
".. c #CE99CE99CE99",
"X. c #CF3ECF3ECF3E",
"o. c #D053D053D053",
"O. c #D208D208D208",
"+. c #D447D447D447",
"@. c #D554D554D554",
"#. c #DA6DDA6DDA6D",
"$. c #DB16DB16DB16",
"%. c #DCC1DCC1DCC1",
"&. c #DCEFDCEFDCEF",
"*. c #DF4FDF4FDF4F",
"=. c #E03FE03FE03F",
"-. c #E1ABE1ABE1AB",
";. c #E3DEE3DEE3DE",
":. c #E570E570E570",
">. c #E626E626E626",
",. c #E8C8E8C8E8C8",
"<. c #E98DE98DE98D",
"1. c #EA51EA51EA51",
"2. c #EB77EB77EB77",
"3. c #EC5CEC5CEC5C",
"4. c #ED4DED4DED4D",
"5. c #EEA9EEA9EEA9",
"6. c #F0BEF0BEF0BE",
"7. c #F261F261F261",
"8. c #F376F376F376",
"9. c #F41FF41FF41F",
"0. c #F53EF53EF53E",
"q. c #F683F683F683",
"w. c #F77CF77CF77C",
"e. c #F868F868F868",
"r. c #F987F987F987",
"t. c #FA32FA32FA32",
"y. c #FBA6FBA6FBA6",
"u. c #FC7EFC7EFC7E",
"i. c #FD82FD82FD82",
"p. c #FE8BFE8BFE8B",
"a. c #FFC8FF51FE63",
"s. c #FF7DFF7DFF7D",
"d. c gray100",
/* pixels */
"n n n n n n n n n n n n n n n n n     n n n n n n n n n n n n n n n n n ",
"n n n n n n n n n n n n n n n n n     n n n n n n n n n n n n n n n n n ",
"n n n n n n n n n n n n n n                 n n n n n n n n n n n n n n ",
"n n n n n n n n n n n                             n n n n n n n n n n n ",
"n n n n n n n n n                                     n n n n n n n n n ",
"n n n n n n n n                         j j j j         n n n n n n n n ",
"n n n n n n n                         j j j j j j j       n n n n n n n ",
"n n n n n n                         j j j L L L L j j       n n n n n n ",
"n n n n m                           j j L L L L L L j j       n n n n n ",
"n n n n = d C C s &     @ F F F F F ^ @.@.1.1.X.X.L R Y C s O   n n n n ",
"n n n ' d.d.d.w.e.d.d   t d.d.d.d.d.d.d.d.d.d.X.+.e.d.d.e.w.d.7 n n n n ",
"n n _ d.w.d.d.d.d.5.d.7 9 d.d.d.d.d.d.d.d.w.d.X.e.d.w.d.d.d.*.d.@ n n n ",
"n n d.d.d.l & > *.d.{ /   3 3 3 3 3 v 5.d.d.#.;.d.e.d.R l 7.d.d.i n n n ",
"n N d.+.d.      5 d.#.d.            P d.e.1.X.e.d.d./ L j d d.d.J n n n ",
"n B d.d.[       t d.+.w.          & d.;.d.P L d.d.d.R { ~ a =       n n ",
"n n = = O     1 d.d.1.c           / d.d.S L L d.w.d.d.d.d.e.d.g     n n ",
"n n       @ L d.d.;.1.@         5 d.X.{ j j j d.d.d.d.d.d.d.7.d.5   n n ",
"        j d.d.7.d.^ &           X.d.d.7     j d.d.d.F     J d.{ ~       ",
"      ~ d.7.d.5.t             : d.X.1.        d.;.d.X     , d.*.d.      ",
"n n L d.*.d.s                 J d.5.j         d.w.d.@     0 d.#.w.  m m ",
"n M d.*.d.3 3 3 3 3 3 1       w.e.d.=         R d.*.R > , ;.d.@.L   m m ",
"n ) d.5.d.d.d.d.d.d.d.d.    : d.+.e.          = d.d.1.d.d.d.1.d.=   m m ",
"n ' d.d.d.d.d.d.d.d.5.d.    c d.[ J             t d.d.d.e.d.d.0   n n n ",
"n V ' F F F F F F F F S     7 F F 0               O i C l t X     n n n ",
"n n n                                                             n n n ",
"n n n n                                                         n n n n ",
"n n n n                                                         n n n n ",
"n n n n n                                                     n n n n n ",
"n n n n n n                                                 n n n n n n ",
"n n n n n n n                                             n n n n n n n ",
"n n n n n n n n                                         n n n n n n n n ",
"n n n n n n n n n                                     n n n n n n n n n ",
"n n n n n n n n n n n                             n n n n n n n n n n n ",
"n n n n n n n n n n n n n n                 n n n n n n n n n n n n n n ",
"n n n n n n n n n n n n n n n n n     n n n n n n n n n n n n n n n n n ",
"n n n n n n n n n n n n n n n n n     n n n n n n n n n n n n n n n n n "
};
