/* XPM */
static char *bmoku-0-LB-4[] = {
/* columns rows colors chars-per-pixel */
"36 36 35 1",
"  c #000100010001",
". c #069306930693",
"X c #13CD13CD13CD",
"o c #144014401440",
"O c #157015701570",
"+ c #26A026A026A0",
"@ c #2E3C2E3C2E3C",
"# c #43BD43BD43BD",
"$ c #447244724472",
"% c #4B734B734B73",
"& c #5A405A405A40",
"* c #618561856185",
"= c #626E626E626E",
"- c #69EB69EB69EB",
"; c #6C7E6C7E6C7E",
": c #E79DB2CA4924",
"> c #8FFF8FFF8FFF",
", c #92EA92EA92EA",
"< c #959B959B959B",
"1 c #9E799E799E79",
"2 c #B61CB61CB61C",
"3 c #BAAABAAABAAA",
"4 c #BB37BB37BB37",
"5 c #C1D9C1D9C1D9",
"6 c #CA30CA30CA30",
"7 c #CF3CCF3CCF3C",
"8 c #D554D554D554",
"9 c #D96CD96CD96C",
"0 c #F4C4F4C4F4C4",
"q c #F900F900F900",
"w c #FA2FFA2FFA2F",
"e c #FB7CFB7CFB7C",
"r c #FCAEFCAEFCAE",
"t c #FD0FFD0FFD0F",
"y c gray100",
/* pixels */
":::::::::::::::::  :::::::::::::::::",
":::::::::::::::::  :::::::::::::::::",
"::::::::::::::        ::::::::::::::",
":::::::::::              :::::::::::",
":::::::::                  :::::::::",
"::::::::            ****    ::::::::",
":::::::            *******   :::::::",
"::::::            ***1111**   ::::::",
":::::             **111111**   :::::",
"::::              283777711*    ::::",
"::::             *yy87777711*   ::::",
":::             +yyy87777711*    :::",
":::            .0yyy87777771*    :::",
":::            ,eyey87777711*    :::",
"::            $ye50y81177111*     ::",
"::           Oyyy&ey3111111**     ::",
"::           6ey#&ey3**111**      ::",
"            ;ye< &0y,.*****         ",
"           Xyyy888ey88-             ",
"::         Oyyyyyyyyyy>           ::",
"::         .>>>>,,ey>>%           ::",
"::               &0y>             ::",
":::              &ey>            :::",
":::              @>>%            :::",
":::                              :::",
"::::                            ::::",
"::::                            ::::",
":::::                          :::::",
"::::::                        ::::::",
":::::::                      :::::::",
"::::::::                    ::::::::",
":::::::::                  :::::::::",
":::::::::::              :::::::::::",
"::::::::::::::        ::::::::::::::",
":::::::::::::::::  :::::::::::::::::",
":::::::::::::::::  :::::::::::::::::"
};
