/* XPM */
static char *empty-0-LB-39[] = {
/* columns rows colors chars-per-pixel */
"36 36 113 2",
"   c #000700050002",
".  c #010E00D00055",
"X  c #0199013C0081",
"o  c #023C01BA00B5",
"O  c #02F9024C00F0",
"+  c #055D042401B1",
"@  c #064904DA01FC",
"#  c #075005A5024F",
"$  c #08CB06C902C7",
"%  c #09C7078D0316",
"&  c #0AB508440361",
"*  c #0B8E08EC03A6",
"=  c #0BB6090A03B3",
"-  c #0C50098103E3",
";  c #0E060AD3046E",
":  c #0E100ADB0471",
">  c #10480C910524",
",  c #147A0FCE0678",
"<  c #18D1132807D6",
"1  c #1BA8155908BC",
"2  c #1C2015B608E2",
"3  c #1CE3164D091F",
"4  c #1EC117BE09B7",
"5  c #1F99186409FA",
"6  c #219D19F20A9D",
"7  c #22301A640ACC",
"8  c #242A1BEB0B6C",
"9  c #25941D020BDE",
"0  c #26F31E110C4D",
"q  c #29C720400D31",
"w  c #2AB620F80D7D",
"e  c #2BF421ED0DE1",
"r  c #2F8E24B50F04",
"t  c #30C125A20F65",
"y  c #31C4266B0FB7",
"u  c #32D7273F100E",
"i  c #34F328DF10B9",
"p  c #3FE93156142E",
"a  c #436234041547",
"s  c #441F34961583",
"d  c #46E136B61662",
"f  c #498E38C8173A",
"g  c #4AC239B5179C",
"h  c #4BD33A8817F2",
"j  c #4E363C5F18B3",
"k  c #555241DC1AF1",
"l  c #580643F31BCC",
"z  c #5D0447CE1D60",
"x  c #5E1F48A81DB9",
"c  c #5E9249011DDD",
"v  c #611A4AF41EAA",
"b  c #62344BCF1F03",
"n  c #628C4C131F1F",
"m  c #658D4E652011",
"M  c #676E4FD720A9",
"N  c #686D509C20FA",
"B  c #6EA3556822F0",
"V  c #712B575B23BD",
"C  c #73E359752499",
"Z  c #77D75C8225D8",
"A  c #793E5D97264A",
"S  c #7B015EF326D7",
"D  c #82D264FC2950",
"F  c #840C65EE29B3",
"G  c #868B67DC2A7D",
"H  c #87C568CE2AE0",
"J  c #893369E92B54",
"K  c #8AAC6B0B2BCA",
"L  c #8E706DF42CFB",
"P  c #904C6F632D91",
"I  c #90766F842D9F",
"U  c #936D71CD2E8E",
"Y  c #943572672ECD",
"T  c #94B072C72EF4",
"R  c #95B973932F48",
"E  c #994B76553069",
"W  c #A3647E203399",
"Q  c #A6918094349A",
"!  c #A76A813B34DE",
"~  c #A82B81D0351B",
"^  c #A95B82BB357B",
"/  c #ABD284A23642",
"(  c #AEC386E83730",
")  c #AF88877F376E",
"_  c #B8798E673A41",
"`  c #B92E8EF23A7A",
"'  c #B9F18F893AB8",
"]  c #BB18906C3B15",
"[  c #BE6192F63C1F",
"{  c #C50F981D3E3B",
"}  c #C6EC998E3ED1",
"|  c #C7EE9A553F23",
" . c #CC5E9DC2408A",
".. c #CD0D9E4940C1",
"X. c #CDA99EC140F2",
"o. c #D001A09141B0",
"O. c #D05DA0D741CC",
"+. c #D35AA32642BE",
"@. c #D41AA3BA42FA",
"#. c #D553A4AC435E",
"$. c #D5E6A51D438C",
"%. c #DA06A84D44D9",
"&. c #DA9AA8BF4508",
"*. c #DEF7AC1D4669",
"=. c #E07BAD4846E3",
"-. c #E2C1AF0A479C",
";. c #E2FFAF3A47AF",
":. c #E434B0274810",
">. c #E506B0CA4852",
",. c #E602B18D48A2",
"<. c #E6A5B20A48D6",
"1. c #E76CB2A44914",
"2. c #E79DB2CA4924",
/* pixels */
"2.2.2.2.2.2.2.2.2.2.2.2.2.2.2.2.2.2.2.2.2.2.2.2.2.2.2.2.2.2.2.2.2.2.2.2.",
"2.2.2.2.2.2.2.2.2.2.2.2.2.2.2.2.2.2.2.2.2.2.2.2.2.2.2.2.2.2.2.2.2.2.2.2.",
"2.2.2.2.2.2.2.2.2.2.2.2.2.2.2.2.2.2.2.2.2.2.2.2.2.2.2.2.2.2.2.2.2.2.2.2.",
"2.2.2.2.2.2.2.2.2.2.2.2.2.2.2.2.2.2.2.2.2.2.2.2.2.2.2.2.2.2.2.2.2.2.2.2.",
"2.2.2.2.2.2.2.2.2.2.2.2.2.2.2.2.2.2.2.2.2.2.2.2.2.2.2.2.2.2.2.2.2.2.2.2.",
"2.2.2.2.2.2.2.2.2.2.2.2.2.2.2.2.2.2.2.2.2.2.2.2.2.2.2.2.2.2.2.2.2.2.2.2.",
"2.2.2.2.2.2.2.2.2.2.2.2.2.2.2.2.2.2.2.2.2.2.2.2.2.2.2.2.2.2.2.2.2.2.2.2.",
"2.2.2.2.2.2.2.2.2.2.2.2.2.2.2.2.2.2.2.2.2.2.2.2.2.2.2.2.2.2.2.2.2.2.2.2.",
"2.2.2.2.2.2.2.2.2.2.2.2.2.2.2.2.2.2.2.2.2.2.2.2.2.2.2.2.2.2.2.2.2.2.2.2.",
"2.2.2.2.2.2.2.2.2.[ R m P ' 2.2.2.2.2.2.&.Q Z S ( 2.2.2.2.2.2.2.2.2.2.2.",
"2.2.2.2.2.2.2.2.h       %   g 2.2.2.2.L       =   ; o.2.2.2.2.2.2.2.2.2.",
"2.2.2.2.2.2.2.C   =           S 2.2.Q     >       6 = 2.2.2.2.2.2.2.2.2.",
"2.2.2.2.2.2.2.      P &.F   3   2.2.=   1 k O.| ;     Q 2.2.2.2.2.2.2.2.",
"2.2.2.2.2.2.2.  ,   -.2.-.      &.2.  =   &.2.2.Q   u d 2.2.2.2.2.2.2.2.",
"2.2.2.2.2.2.2.      2.2.@.  <   -.2.  <   -.2.2. .  e   2.2.2.2.2.2.2.2.",
"2.2.2.2.2.2.2.2.2.2.a <       V 2.2.      _ 2.2.M   3   2.2.2.2.2.2.2.2.",
"2.2.2.2.2.2.2.2.2.2.          U 2.2.v   3   g 0     3   2.2.2.2.2.2.2.2.",
"2.2.2.2.2.2.2.2.2.2.S v y   @   R 2.2.i       %     9   2.2.2.2.2.2.2.2.",
"2.2.2.2.2.2.2.c c N 2.2.2.W   e % 2.2.2./ c 9 g P   y e 2.2.2.2.2.2.2.2.",
"2.2.2.2.2.2.2.  ;   *.2.2.|   5   2.3      .2.2.h   6 S 2.2.2.2.2.2.2.2.",
"2.2.2.2.2.2.2.      J O. .i   r a 2.p   1 l $.(   %   | 2.2.2.2.2.2.2.2.",
"2.2.2.2.2.2.2.n   %         ;   ] 2.'     =       O z 2.2.2.2.2.2.2.2.2.",
"2.2.2.2.2.2.2.2.j       @     R 2.2.2.G     O ;   z 2.2.2.2.2.2.2.2.2.2.",
"2.2.2.2.2.2.2.2.2. .K V D ^ *.2.2.2.2.2.$.E N G | 2.2.2.2.2.2.2.2.2.2.2.",
"2.2.2.2.2.2.2.2.2.2.2.2.2.2.2.2.2.2.2.2.2.2.2.2.2.2.2.2.2.2.2.2.2.2.2.2.",
"2.2.2.2.2.2.2.2.2.2.2.2.2.2.2.2.2.2.2.2.2.2.2.2.2.2.2.2.2.2.2.2.2.2.2.2.",
"2.2.2.2.2.2.2.2.2.2.2.2.2.2.2.2.2.2.2.2.2.2.2.2.2.2.2.2.2.2.2.2.2.2.2.2.",
"2.2.2.2.2.2.2.2.2.2.2.2.2.2.2.2.2.2.2.2.2.2.2.2.2.2.2.2.2.2.2.2.2.2.2.2.",
"2.2.2.2.2.2.2.2.2.2.2.2.2.2.2.2.2.2.2.2.2.2.2.2.2.2.2.2.2.2.2.2.2.2.2.2.",
"2.2.2.2.2.2.2.2.2.2.2.2.2.2.2.2.2.2.2.2.2.2.2.2.2.2.2.2.2.2.2.2.2.2.2.2.",
"2.2.2.2.2.2.2.2.2.2.2.2.2.2.2.2.2.2.2.2.2.2.2.2.2.2.2.2.2.2.2.2.2.2.2.2.",
"2.2.2.2.2.2.2.2.2.2.2.2.2.2.2.2.2.2.2.2.2.2.2.2.2.2.2.2.2.2.2.2.2.2.2.2.",
"2.2.2.2.2.2.2.2.2.2.2.2.2.2.2.2.2.2.2.2.2.2.2.2.2.2.2.2.2.2.2.2.2.2.2.2.",
"2.2.2.2.2.2.2.2.2.2.2.2.2.2.2.2.2.2.2.2.2.2.2.2.2.2.2.2.2.2.2.2.2.2.2.2.",
"2.2.2.2.2.2.2.2.2.2.2.2.2.2.2.2.2.2.2.2.2.2.2.2.2.2.2.2.2.2.2.2.2.2.2.2.",
"2.2.2.2.2.2.2.2.2.2.2.2.2.2.2.2.2.2.2.2.2.2.2.2.2.2.2.2.2.2.2.2.2.2.2.2."
};
