/* XPM */
static char *empty-0-LB-295[] = {
/* columns rows colors chars-per-pixel */
"36 36 136 2",
"   c #000F000C0005",
".  c #01C901610090",
"X  c #023401B300B2",
"o  c #02C4022200E0",
"O  c #0313026000F9",
"+  c #037602AC0118",
"@  c #0499038C0174",
"#  c #050803E20197",
"$  c #0597045101C4",
"%  c #065604E40200",
"&  c #06EF055A0231",
"*  c #0B2108970384",
"=  c #186B12D907B6",
"-  c #1E58176C0995",
";  c #216819CA0A8D",
":  c #23BE1B970B49",
">  c #24251BE60B6A",
",  c #26521D940C1A",
"<  c #271B1E300C59",
"1  c #281A1EF50CAA",
"2  c #2C7922540E0B",
"3  c #2D8923260E61",
"4  c #2EB5240E0EC0",
"5  c #2EFE24460ED7",
"6  c #315B26190F96",
"7  c #3188263C0FA4",
"8  c #3326277C1027",
"9  c #39572C43121B",
"0  c #3CB52EDC132C",
"q  c #3F0530A513E7",
"w  c #3F7430FB1409",
"e  c #3FA0311D1418",
"r  c #404B31A1144E",
"t  c #429233631506",
"y  c #431433C7152E",
"u  c #436534061548",
"i  c #43EB346D1572",
"p  c #44CA351A15B9",
"a  c #458A35AE15F6",
"s  c #46E836BC1664",
"d  c #4B5E3A2E17CD",
"f  c #4C293ACB180D",
"g  c #51073E8C1996",
"h  c #534440471A4C",
"j  c #549C41501AB8",
"k  c #559C42161B09",
"l  c #581C44041BD3",
"z  c #5D6248151D7D",
"x  c #637D4CCC1F6B",
"c  c #65554E382000",
"v  c #65AB4E7B201B",
"b  c #65D64E9C2028",
"n  c #69375138213A",
"m  c #6AF5529121C7",
"M  c #6BFC535B221A",
"N  c #6E29550922CA",
"B  c #73CF59662492",
"V  c #74A65A0C24D6",
"C  c #75C15AE6252F",
"Z  c #76D75BBD2587",
"A  c #78445CD625FB",
"S  c #78A25D1F2618",
"D  c #7D8360E327A2",
"F  c #7EE561F42812",
"G  c #813663BE28CE",
"H  c #81E364432904",
"J  c #86C8680B2A90",
"K  c #8743686A2AB7",
"L  c #889769702B22",
"P  c #892269DB2B4E",
"I  c #8A0F6A932B99",
"U  c #8CCD6CB02C77",
"Y  c #922B70D52E28",
"T  c #924A70ED2E32",
"R  c #956673542F2E",
"E  c #95F673C22F5B",
"W  c #98297576300D",
"Q  c #9A0E76EC30A6",
"!  c #9CB378F6317C",
"~  c #9D8F799F31C2",
"^  c #9F517AFB324F",
"/  c #A0797BE032AD",
"(  c #A3D27E7533BB",
")  c #A42A7EB933D8",
"_  c #A5C97FFA345A",
"`  c #A69D809D349D",
"'  c #A749812234D3",
"]  c #A88E821D353A",
"[  c #AB3E84303613",
"{  c #AC5E850E366E",
"}  c #ACAC854B3687",
"|  c #AE20866936FC",
" . c #AFA987993779",
".. c #B00187DD3795",
"X. c #B0E9889037DE",
"o. c #B1D489463828",
"O. c #B25389A73850",
"+. c #B6158C8E3980",
"@. c #B7F38DFF3A17",
"#. c #B9E08F7C3AB2",
"$. c #BB4990923B24",
"%. c #BC7F91813B86",
"&. c #BD32920C3BBF",
"*. c #BDC892803BEE",
"=. c #C16295473D12",
"-. c #C4B597D83E1E",
";. c #C52D98353E44",
":. c #C5D298B43E78",
">. c #CA369C173FDB",
",. c #CBD29D56405D",
"<. c #CCAD9DFF40A2",
"1. c #CD3A9E6C40CF",
"2. c #CE559F464128",
"3. c #CF019FCB415F",
"4. c #D0C9A12B41EE",
"5. c #D157A199421B",
"6. c #D192A1C6422E",
"7. c #D1D7A1FB4244",
"8. c #D328A2FF42AE",
"9. c #D54DA4A7435C",
"0. c #D601A5324394",
"q. c #D788A6604410",
"w. c #D8F5A77A4483",
"e. c #D9EEA83A44D2",
"r. c #DB29A92D4535",
"t. c #DC62AA1F4598",
"y. c #DD87AB0045F5",
"u. c #DE84ABC44645",
"i. c #E042AD1C46D1",
"p. c #E350AF7847C8",
"a. c #E402B0014800",
"s. c #E5ABB14A4887",
"d. c #E602B18D48A2",
"f. c #E6A4B20A48D5",
"g. c #E738B27C4904",
"h. c #E79DB2CA4924",
/* pixels */
"h.h.h.h.h.h.h.h.h.h.h.h.h.h.h.h.h.h.h.h.h.h.h.h.h.h.h.h.h.h.h.h.h.h.h.h.",
"h.h.h.h.h.h.h.h.h.h.h.h.h.h.h.h.h.h.h.h.h.h.h.h.h.h.h.h.h.h.h.h.h.h.h.h.",
"h.h.h.h.h.h.h.h.h.h.h.h.h.h.h.h.h.h.h.h.h.h.h.h.h.h.h.h.h.h.h.h.h.h.h.h.",
"h.h.h.h.h.h.h.h.h.h.h.h.h.h.h.h.h.h.h.h.h.h.h.h.h.h.h.h.h.h.h.h.h.h.h.h.",
"h.h.h.h.h.h.h.h.h.h.h.h.h.h.h.h.h.h.h.h.h.h.h.h.h.h.h.h.h.h.h.h.h.h.h.h.",
"h.h.h.h.h.h.h.h.h.h.h.h.h.h.h.h.h.h.h.h.h.h.h.h.h.h.h.h.h.h.h.h.h.h.h.h.",
"h.h.h.h.h.h.h.h.h.h.h.h.h.h.h.h.h.h.h.h.h.h.h.h.h.h.h.h.h.h.h.h.h.h.h.h.",
"h.h.h.h.h.h.h.h.h.h.h.h.h.h.h.h.h.h.h.h.h.h.h.h.h.h.h.h.h.h.h.h.h.h.h.h.",
"h.h.h.h.h.h.h.h.h.h.h.h.h.h.h.h.h.h.h.h.h.h.h.h.h.h.h.h.h.h.h.h.h.h.h.h.",
"h.h.h.h.#.F c D #.h.h.h.h.h.h.%.T b I >.h.h.h.h.[ c x x c c c c R h.h.h.",
"h.h.4.= O O O $ O 7 r.h.h.w.r O O O O O A h.h.h.l O O O O O O O r h.h.h.",
"h.a.# O O O O O O $ 8 h.h.w # O O O O O O ( h.h.- O O O O O O O s h.h.h.",
"h.[ O O O *.8.Q O O O -.#.O O O [ 8.I O O O a.h.O O O -.*.-.*.-.4.h.h.h.",
"h.N O O _ h.h.h.0 O $ ~ I O # m h.h.h., O O >.y.O O ; h.h.h.h.h.h.h.h.h.",
"h.g O O ;.h.h.h.9 O O ..B O # K h.h.h.h O O [ >.O O z 0 > x ~ h.h.h.h.h.",
"h.i.8.8.h.h.h.J O O O 8.[ O O 2 h.h.r.O O # ~ | O O O O O O O = 8.h.h.h.",
"h.h.h.h.h.| * O O O T h.y.O O O ; h O O O O Q U $ $ O g i O O O 2 h.h.h.",
"h.h.h.4.0 O O # O W h.h.h.| O # O O O O O O ) Q 0 q >.h.h.q.O O O >.h.h.",
"h.h.-.O O $ O c 4.h.h.h.h.h.w.J r 7 A < O O *.h.h.h.h.h.h.h.s O O ~ h.h.",
"h.r.O O O s 4.h.h.h.h.h.#.O O s h.h.r.O O O y.O O O a.h.h.h.2 O O @.h.h.",
"h.U O O N -.*.*.-.*.-.y.y.O O O @.1.s O O r h.5 O O m 1.3.J O O O 8.h.h.",
"h.; O O O O O O O O O R h.j O O O O O O O 1.h.o.O O $ O O O O O D h.h.h.",
"h.O O O O O O O O O # R h.y.2 O O O O O ..h.h.h.~ O O O O O O B h.h.h.h.",
"h.m x x c x x x x c c %.h.h.h.| F B ( y.h.h.h.h.h.w.[ B B ( 1.h.h.h.h.h.",
"h.h.h.h.h.h.h.h.h.h.h.h.h.h.h.h.h.h.h.h.h.h.h.h.h.h.h.h.h.h.h.h.h.h.h.h.",
"h.h.h.h.h.h.h.h.h.h.h.h.h.h.h.h.h.h.h.h.h.h.h.h.h.h.h.h.h.h.h.h.h.h.h.h.",
"h.h.h.h.h.h.h.h.h.h.h.h.h.h.h.h.h.h.h.h.h.h.h.h.h.h.h.h.h.h.h.h.h.h.h.h.",
"h.h.h.h.h.h.h.h.h.h.h.h.h.h.h.h.h.h.h.h.h.h.h.h.h.h.h.h.h.h.h.h.h.h.h.h.",
"h.h.h.h.h.h.h.h.h.h.h.h.h.h.h.h.h.h.h.h.h.h.h.h.h.h.h.h.h.h.h.h.h.h.h.h.",
"h.h.h.h.h.h.h.h.h.h.h.h.h.h.h.h.h.h.h.h.h.h.h.h.h.h.h.h.h.h.h.h.h.h.h.h.",
"h.h.h.h.h.h.h.h.h.h.h.h.h.h.h.h.h.h.h.h.h.h.h.h.h.h.h.h.h.h.h.h.h.h.h.h.",
"h.h.h.h.h.h.h.h.h.h.h.h.h.h.h.h.h.h.h.h.h.h.h.h.h.h.h.h.h.h.h.h.h.h.h.h.",
"h.h.h.h.h.h.h.h.h.h.h.h.h.h.h.h.h.h.h.h.h.h.h.h.h.h.h.h.h.h.h.h.h.h.h.h.",
"h.h.h.h.h.h.h.h.h.h.h.h.h.h.h.h.h.h.h.h.h.h.h.h.h.h.h.h.h.h.h.h.h.h.h.h.",
"h.h.h.h.h.h.h.h.h.h.h.h.h.h.h.h.h.h.h.h.h.h.h.h.h.h.h.h.h.h.h.h.h.h.h.h.",
"h.h.h.h.h.h.h.h.h.h.h.h.h.h.h.h.h.h.h.h.h.h.h.h.h.h.h.h.h.h.h.h.h.h.h.h."
};
