/* XPM */
static char *empty-0-LB-241[] = {
/* columns rows colors chars-per-pixel */
"36 36 85 1",
"  c #000100010000",
". c #013700F00062",
"X c #01B301500089",
"o c #0213019A00A8",
"O c #03540291010D",
"+ c #05C8047701D3",
"@ c #06B3052C021E",
"# c #075805AC0252",
"$ c #07F406240283",
"% c #0C52098303E4",
"& c #0DC50AA10459",
"* c #0F7F0BF604E5",
"= c #0FC80C2E04FC",
"- c #10D90D010552",
"; c #11EA0DD405A8",
": c #12B50E7105E8",
"> c #14860FD8067B",
", c #1B71152F08AA",
"< c #1D9416D50957",
"1 c #1F2F181209D9",
"2 c #219319EB0A9B",
"3 c #22D61AE40B00",
"4 c #23F81BC40B5C",
"5 c #26E21E040C48",
"6 c #27981E900C80",
"7 c #29641FF40D12",
"8 c #2A2020840D4D",
"9 c #2F9A24BF0F08",
"0 c #313425FB0F89",
"q c #3460286E108A",
"w c #361B29C41116",
"e c #3C722EA91317",
"r c #3F6230ED1404",
"t c #446634CC159A",
"y c #51303EAC19A3",
"u c #573843541B8B",
"i c #58F244A81C16",
"p c #65554E382000",
"a c #69BB519E2163",
"s c #6D7A54822292",
"d c #6EED55A02307",
"f c #7116574C23B6",
"g c #72E658B12448",
"h c #78035CA425E6",
"j c #7AF95EED26D5",
"k c #7F096211281E",
"l c #808463352896",
"z c #813063B928CC",
"x c #8DCB6D742CC7",
"c c #963073EF2F6D",
"v c #98AD75DB3037",
"b c #9DBA79C031CF",
"n c #9FC97B583275",
"m c #A0687BD332A8",
"M c #AB13840F3606",
"N c #AD9685FF36D1",
"B c #B14888D937FC",
"V c #B8CB8EA63A5B",
"C c #BB3C90883B20",
"Z c #BB4F90973B27",
"A c #BE3092CF3C0F",
"S c #C16395483D12",
"D c #C42B976E3DF2",
"F c #C6C499703EC5",
"G c #CB9A9D2B404C",
"H c #CC799DD64091",
"J c #CF209FE44169",
"K c #D344A31542B7",
"L c #D54BA4A6435B",
"P c #D77EA659440D",
"I c #D7F4A6B34432",
"U c #D91DA7994490",
"Y c #D9BBA81344C2",
"T c #DA92A8BA4506",
"R c #DBA3A98B455C",
"E c #DCBEAA6645B5",
"W c #DD48AAD045E1",
"Q c #DF42AC574681",
"! c #DFDDACCF46B2",
"~ c #E394AFAD47DE",
"^ c #E4C0B094483D",
"/ c #E4FDB0C44850",
"( c #E664B1D848C1",
") c #E74DB28D490B",
"_ c #E79DB2CA4924",
/* pixels */
"____________________________________",
"____________________________________",
"____________________________________",
"____________________________________",
"____________________________________",
"____________________________________",
"____________________________________",
"____________________________________",
"____________________________________",
"_____KcgfbT_______Cpp~____Vps_______",
"____a   $+ c_____T   Y____<& _______",
"___l ++   - C____0   Y_!Jh < _______",
"___   zPJ< 0e___k    Y_    < _______",
"__T 7 ___A 2 __D 2   Y_    < _______",
"__J  q___N 7+__&$    Y_BBB < _______",
"___LLW__F  -j_y  j   T____ < _______",
"______Yu  <-Wm 72_   Y____ < _______",
"_____x  & rYP > J_   T____ < _______",
"____t % =M__q  222   27W__ < _______",
"___i < b____8          Y__ < _______",
"__! < DDDDADbppppp   pp~__ < _______",
"__b -        _____   T____ < _______",
"__s        & _____   P____ & _______",
"__Appppppppps_____spp_____pps_______",
"____________________________________",
"____________________________________",
"____________________________________",
"____________________________________",
"____________________________________",
"____________________________________",
"____________________________________",
"____________________________________",
"____________________________________",
"____________________________________",
"____________________________________",
"____________________________________"
};
