/* XPM */
static char *empty-0-LB-49[] = {
/* columns rows colors chars-per-pixel */
"36 36 92 1",
"  c #000500040002",
". c #019601390080",
"X c #023901B800B4",
"o c #0578043801BA",
"O c #073B05950248",
"+ c #09C7078D0316",
"@ c #0ACD08570369",
"# c #0B8E08EC03A6",
"$ c #0BB4090903B2",
"% c #0C71099B03EE",
"& c #0DE00AB60462",
"* c #0E100ADB0471",
"= c #10480C910524",
"- c #14860FD8067B",
"; c #18E8133A07DE",
": c #1B76153308AC",
"> c #1C2015B608E2",
", c #1CE3164D091F",
"< c #1EC117BE09B7",
"1 c #1F9F186909FC",
"2 c #219D19F20A9D",
"3 c #22BA1ACE0AF7",
"4 c #23F91BC40B5C",
"5 c #242A1BEB0B6C",
"6 c #25941D020BDE",
"7 c #26EB1E0B0C4B",
"8 c #29641FF40D12",
"9 c #2A1E20830D4D",
"0 c #2AB620F80D7D",
"q c #2BF421ED0DE1",
"w c #2F9A24BF0F08",
"e c #30C125A20F65",
"r c #32D7273F100E",
"t c #351028F610C2",
"y c #361829C21115",
"u c #3FE93156142E",
"i c #46E136B61662",
"p c #498E38C8173A",
"a c #4A7439791783",
"s c #4C363AD51811",
"d c #512E3EAB19A3",
"f c #555241DC1AF1",
"g c #580643F31BCC",
"h c #5D0447CE1D60",
"j c #5DAE48501D95",
"k c #5E9249011DDD",
"l c #611A4AF41EAA",
"z c #65554E382000",
"x c #65704E4E2008",
"c c #676E4FD720A9",
"v c #6D7C54832293",
"b c #77D75C8225D8",
"n c #793E5D97264A",
"m c #7B0C5EFC26DB",
"M c #7F096210281E",
"N c #868B67DC2A7D",
"B c #87C568CE2AE0",
"V c #8E706DF42CFB",
"C c #905E6F712D97",
"Z c #994B76553069",
"A c #9DC679CA31D3",
"S c #A0677BD232A7",
"D c #A6918094349A",
"F c #A76A813B34DE",
"G c #A82B81D0351B",
"H c #A92D8298356C",
"J c #ABD284A23642",
"K c #AEC386E83730",
"L c #AF88877F376E",
"P c #B8798E673A41",
"I c #B92E8EF23A7A",
"U c #BB5090973B27",
"Y c #C42A976E3DF2",
"T c #C6EC998E3ED1",
"R c #C7EE9A553F23",
"E c #CC579DBD4087",
"W c #CD0D9E4940C1",
"Q c #D001A09141B0",
"! c #D05DA0D741CC",
"~ c #D553A4AC435E",
"^ c #D5E6A51D438C",
"/ c #D7B8A6864420",
"( c #D923A79D4492",
") c #DA94A8BA4506",
"_ c #DBA3A98B455C",
"` c #DF06AC29466E",
"' c #E2CAAF10479E",
"] c #E394AFAD47DE",
"[ c #E470B0564823",
"{ c #E503B0C84852",
"} c #E6AFB21248D9",
"| c #E79DB2CA4924",
/* pixels */
"||||||||||||||||||||||||||||||||||||",
"||||||||||||||||||||||||||||||||||||",
"||||||||||||||||||||||||||||||||||||",
"||||||||||||||||||||||||||||||||||||",
"||||||||||||||||||||||||||||||||||||",
"||||||||||||||||||||||||||||||||||||",
"||||||||||||||||||||||||||||||||||||",
"||||||||||||||||||||||||||||||||||||",
"||||||||||||||||||||||||||||||||||||",
"||||||||||||Uzz]||||_GbmK|||||||||||",
"|||||||||||_   (|||V   # &Q|||||||||",
"|||||||||||w   (||G  *   2#|||||||||",
"||||||||||M    (||# :fQR%  D||||||||",
"|||||||||Y 4   (|| # _||G ri||||||||",
"|||||||||&o    (|| ; ]||E 0 ||||||||",
"||||||||d  m   (||   P||x < ||||||||",
"|||||||S 72|   (||l < p7  < ||||||||",
"||||||( - E|   _|||y   +  6 ||||||||",
"||||||y  222   28`||Kj2pC e0||||||||",
"||||||0          (<  E||s 2m||||||||",
"||||||Axxxxx   zz]u <f/K o R||||||||",
"||||||||||||   (||P  #   oh|||||||||",
"||||||||||||   (|||B   & j||||||||||",
"||||||||||||vzz]||||/ZvNR|||||||||||",
"||||||||||||||||||||||||||||||||||||",
"||||||||||||||||||||||||||||||||||||",
"||||||||||||||||||||||||||||||||||||",
"||||||||||||||||||||||||||||||||||||",
"||||||||||||||||||||||||||||||||||||",
"||||||||||||||||||||||||||||||||||||",
"||||||||||||||||||||||||||||||||||||",
"||||||||||||||||||||||||||||||||||||",
"||||||||||||||||||||||||||||||||||||",
"||||||||||||||||||||||||||||||||||||",
"||||||||||||||||||||||||||||||||||||",
"||||||||||||||||||||||||||||||||||||"
};
