/* XPM */
static char *empty-0-LB-E[] = {
/* columns rows colors chars-per-pixel */
"36 36 18 1",
"  c black",
". c #02BF021F00DE",
"X c #0532040301A4",
"o c #065504E30200",
"O c #22E61AF00B05",
"+ c #2D6B230F0E58",
"@ c #5E5A48D51DCB",
"# c #5EBA49201DEA",
"$ c #65554E382000",
"% c #6968515E2149",
"& c #95F673C22F5B",
"* c #A0927BF332B5",
"= c #A3597E183395",
"- c #BE6392F73C1F",
"; c #D0FFA15441FF",
": c #D51CA481434C",
"> c #DED4AC02465E",
", c #E79DB2CA4924",
/* pixels */
",,,,,,,,,,,,,,,,,,,,,,,,,,,,,,,,,,,,",
",,,,,,,,,,,,,,,,,,,,,,,,,,,,,,,,,,,,",
",,,,,,,,,,,,,,,,,,,,,,,,,,,,,,,,,,,,",
",,,,,,,,,,,,,,,,,,,,,,,,,,,,,,,,,,,,",
",,,,,,,,,,,,,,,,,,,,,,,,,,,,,,,,,,,,",
",,,,,,,,,,,,,,,,,,,,,,,,,,,,,,,,,,,,",
",,,,,,,,,,,,,,,,,,,,,,,,,,,,,,,,,,,,",
",,,,,,,,,,,,,,,,,,,,,,,,,,,,,,,,,,,,",
",,,,,,,,,,,,=$$$$$$$$$$:,,,,,,,,,,,,",
",,,,,,,,,,,,$          -,,,,,,,,,,,,",
",,,,,,,,,,,,$          -,,,,,,,,,,,,",
",,,,,,,,,,,,$ o&;;;;;;;,,,,,,,,,,,,,",
",,,,,,,,,,,,$ o&,,,,,,,,,,,,,,,,,,,,",
",,,,,,,,,,,,$ o&,,,,,,,,,,,,,,,,,,,,",
",,,,,,,,,,,,$ o&,,,,,,,,,,,,,,,,,,,,",
",,,,,,,,,,,,$ oOOOOOOO+,,,,,,,,,,,,,",
",,,,,,,,,,,,$          ,,,,,,,,,,,,,",
",,,,,,,,,,,,$ o$$$$$$$%,,,,,,,,,,,,,",
",,,,,,,,,,,,$ o&,,,,,,,,,,,,,,,,,,,,",
",,,,,,,,,,,,$ o&,,,,,,,,,,,,,,,,,,,,",
",,,,,,,,,,,,$ o&;;;;;;;>,,,,,,,,,,,,",
",,,,,,,,,,,,$          @,,,,,,,,,,,,",
",,,,,,,,,,,,$          @,,,,,,,,,,,,",
",,,,,,,,,,,,=$$$$$$$$$$=,,,,,,,,,,,,",
",,,,,,,,,,,,,,,,,,,,,,,,,,,,,,,,,,,,",
",,,,,,,,,,,,,,,,,,,,,,,,,,,,,,,,,,,,",
",,,,,,,,,,,,,,,,,,,,,,,,,,,,,,,,,,,,",
",,,,,,,,,,,,,,,,,,,,,,,,,,,,,,,,,,,,",
",,,,,,,,,,,,,,,,,,,,,,,,,,,,,,,,,,,,",
",,,,,,,,,,,,,,,,,,,,,,,,,,,,,,,,,,,,",
",,,,,,,,,,,,,,,,,,,,,,,,,,,,,,,,,,,,",
",,,,,,,,,,,,,,,,,,,,,,,,,,,,,,,,,,,,",
",,,,,,,,,,,,,,,,,,,,,,,,,,,,,,,,,,,,",
",,,,,,,,,,,,,,,,,,,,,,,,,,,,,,,,,,,,",
",,,,,,,,,,,,,,,,,,,,,,,,,,,,,,,,,,,,",
",,,,,,,,,,,,,,,,,,,,,,,,,,,,,,,,,,,,"
};
