/* XPM */
static char *empty-0-LB-14[] = {
/* columns rows colors chars-per-pixel */
"36 36 37 1",
"  c #000100000000",
". c #013800F10063",
"X c #072605850242",
"o c #0DBA0A990456",
"O c #0F7F0BF604E5",
"+ c #14860FD8067B",
"@ c #1D9316D50957",
"# c #1F30181309D9",
"$ c #22D61AE40B00",
"% c #23F81BC40B5C",
"& c #26E21E040C48",
"* c #29641FF40D12",
"= c #2A1E20830D4D",
"- c #2F9A24BF0F08",
"; c #361829C21115",
": c #512E3EAA19A3",
"> c #65554E382000",
", c #6D7B54832293",
"< c #78045CA425E6",
"1 c #7B0E5EFD26DC",
"2 c #7F096210281E",
"3 c #9DC679CA31D3",
"4 c #A0677BD232A7",
"5 c #B14888D937FC",
"6 c #B8CB8EA63A5B",
"7 c #BB4F90973B26",
"8 c #C42A976D3DF2",
"9 c #CC799DD64091",
"0 c #D7B8A6864420",
"q c #D923A79D4492",
"w c #DBA3A98B455C",
"e c #DF06AC29466E",
"r c #DFDDACCF46B2",
"t c #E394AFAD47DE",
"y c #E4C0B094483C",
"u c #E4FDB0C44850",
"i c #E79DB2CA4924",
/* pixels */
"iiiiiiiiiiiiiiiiiiiiiiiiiiiiiiiiiiii",
"iiiiiiiiiiiiiiiiiiiiiiiiiiiiiiiiiiii",
"iiiiiiiiiiiiiiiiiiiiiiiiiiiiiiiiiiii",
"iiiiiiiiiiiiiiiiiiiiiiiiiiiiiiiiiiii",
"iiiiiiiiiiiiiiiiiiiiiiiiiiiiiiiiiiii",
"iiiiiiiiiiiiiiiiiiiiiiiiiiiiiiiiiiii",
"iiiiiiiiiiiiiiiiiiiiiiiiiiiiiiiiiiii",
"iiiiiiiiiiiiiiiiiiiiiiiiiiiiiiiiiiii",
"iiiiiiiiiiiiiiiiiiiiiiiiiiiiiiiiiiii",
"iiiiiiiiiiii6>,iiiiiii7>>riiiiiiiiii",
"iiiiiiiiiiii#+ iiiiiiw   qiiiiiiiiii",
"iiiiiiiiir9< @ iiiiii-   qiiiiiiiiii",
"iiiiiiiii    @ iiiii2    qiiiiiiiiii",
"iiiiiiiii    @ iiii8 &   qiiiiiiiiii",
"iiiiiiiii555 @ iiiioX    qiiiiiiiiii",
"iiiiiiiiiiii @ iii:  <   qiiiiiiiiii",
"iiiiiiiiiiii @ ii4 &$i   qiiiiiiiiii",
"iiiiiiiiiiii @ i0 + 9i   qiiiiiiiiii",
"iiiiiiiiiiii @ i;  $$$   $*eiiiiiiii",
"iiiiiiiiiiii @ i=          qiiiiiiii",
"iiiiiiiiiiii @ i3>>>>>   >>riiiiiiii",
"iiiiiiiiiiii @ iiiiiii   wiiiiiiiiii",
"iiiiiiiiiiii + iiiiiii   wiiiiiiiiii",
"iiiiiiiiiiii>>,iiiiiii,>>riiiiiiiiii",
"iiiiiiiiiiiiiiiiiiiiiiiiiiiiiiiiiiii",
"iiiiiiiiiiiiiiiiiiiiiiiiiiiiiiiiiiii",
"iiiiiiiiiiiiiiiiiiiiiiiiiiiiiiiiiiii",
"iiiiiiiiiiiiiiiiiiiiiiiiiiiiiiiiiiii",
"iiiiiiiiiiiiiiiiiiiiiiiiiiiiiiiiiiii",
"iiiiiiiiiiiiiiiiiiiiiiiiiiiiiiiiiiii",
"iiiiiiiiiiiiiiiiiiiiiiiiiiiiiiiiiiii",
"iiiiiiiiiiiiiiiiiiiiiiiiiiiiiiiiiiii",
"iiiiiiiiiiiiiiiiiiiiiiiiiiiiiiiiiiii",
"iiiiiiiiiiiiiiiiiiiiiiiiiiiiiiiiiiii",
"iiiiiiiiiiiiiiiiiiiiiiiiiiiiiiiiiiii",
"iiiiiiiiiiiiiiiiiiiiiiiiiiiiiiiiiiii"
};
