/* XPM */
static char *empty-0-LB-59[] = {
/* columns rows colors chars-per-pixel */
"36 36 117 2",
"   c #000700050002",
".  c #011100D20056",
"X  c #01AC014A0087",
"o  c #024401C000B8",
"O  c #05AF046301CB",
"+  c #0706056C0238",
"@  c #075005A5024F",
"#  c #08AE06B402BE",
"$  c #09C7078D0316",
"%  c #0ACD08570369",
"&  c #0B8E08EC03A6",
"*  c #0BBB090E03B4",
"=  c #0C71099B03EE",
"-  c #0E060AD3046E",
";  c #0E100ADB0471",
":  c #10420C8C0522",
">  c #12650E3305CF",
",  c #1579109406C8",
"<  c #186D12DB07B7",
"1  c #18E8133A07DE",
"2  c #1BA7155908BC",
"3  c #1C2015B608E2",
"4  c #1CE3164D091F",
"5  c #1EC117BE09B7",
"6  c #1FA0186A09FD",
"7  c #20D619590A5F",
"8  c #219D19F20A9D",
"9  c #22301A640ACC",
"0  c #23851B6B0B37",
"q  c #242A1BEB0B6C",
"w  c #25941D020BDE",
"e  c #26F31E110C4D",
"r  c #2ABF20FF0D80",
"t  c #2BF421ED0DE1",
"y  c #2EA924050EBC",
"u  c #30C125A20F65",
"i  c #32D7273F100E",
"p  c #351028F610C2",
"a  c #3DAA2F9A1379",
"s  c #3ECD307A13D5",
"d  c #3FE93156142E",
"f  c #408231CC145F",
"g  c #41B332B714BF",
"h  c #46E136B61662",
"j  c #48C9382F16FC",
"k  c #498E38C8173A",
"l  c #4A7439791783",
"z  c #4C363AD51811",
"x  c #555241DC1AF1",
"c  c #580643F31BCC",
"v  c #587B444D1BF1",
"b  c #5CF947C61D5C",
"n  c #5DAE48501D95",
"m  c #5EB249191DE8",
"M  c #611A4AF41EAA",
"N  c #63184C7E1F4B",
"B  c #65554E382000",
"V  c #65704E4E2008",
"C  c #66174ECF203D",
"Z  c #676E4FD720A9",
"A  c #696E5162214B",
"S  c #6D4F54602284",
"D  c #77D75C8225D8",
"F  c #79325D8E2646",
"G  c #7F18621B2822",
"H  c #80F7638E28BA",
"J  c #82266477291A",
"K  c #85F367662A4D",
"L  c #868B67DC2A7D",
"P  c #87C568CE2AE0",
"I  c #8E6D6DF12CFA",
"U  c #905E6F712D97",
"Y  c #96B574562F97",
"T  c #994B76553069",
"R  c #9E257A1331F1",
"E  c #A2977D823358",
"W  c #A6918094349A",
"Q  c #A76A813B34DE",
"!  c #A82B81D0351B",
"~  c #A92D8298356C",
"^  c #AB968474362F",
"/  c #ABD284A23642",
"(  c #AEC386E83730",
")  c #AF88877F376E",
"_  c #B096885037C4",
"`  c #B4E28BA1391F",
"'  c #B5768C13394E",
"]  c #B6B88D0C39B3",
"[  c #B8798E673A41",
"{  c #B92E8EF23A7A",
"}  c #BD4192173BC4",
"|  c #C154953C3D0D",
" . c #C31596973D9B",
".. c #C45B97923E02",
"X. c #C6EC998E3ED1",
"o. c #C7EE9A553F23",
"O. c #C8A29AE03F5B",
"+. c #CC809DDC4095",
"@. c #CD0D9E4940C1",
"#. c #CD869EA740E7",
"$. c #CEAD9F8A4144",
"%. c #D001A09141B0",
"&. c #D05DA0D741CC",
"*. c #D0E2A13E41F6",
"=. c #D553A4AC435E",
"-. c #D5E6A51D438C",
";. c #D92CA7A44495",
":. c #D969A7D344A8",
">. c #DA94A8BA4506",
",. c #DBB6A99B4562",
"<. c #DE3BAB8C462E",
"1. c #E2CAAF10479E",
"2. c #E420B019480A",
"3. c #E543B0FA4866",
"4. c #E687B1F348CC",
"5. c #E752B290490C",
"6. c #E79DB2CA4924",
/* pixels */
"6.6.6.6.6.6.6.6.6.6.6.6.6.6.6.6.6.6.6.6.6.6.6.6.6.6.6.6.6.6.6.6.6.6.6.6.",
"6.6.6.6.6.6.6.6.6.6.6.6.6.6.6.6.6.6.6.6.6.6.6.6.6.6.6.6.6.6.6.6.6.6.6.6.",
"6.6.6.6.6.6.6.6.6.6.6.6.6.6.6.6.6.6.6.6.6.6.6.6.6.6.6.6.6.6.6.6.6.6.6.6.",
"6.6.6.6.6.6.6.6.6.6.6.6.6.6.6.6.6.6.6.6.6.6.6.6.6.6.6.6.6.6.6.6.6.6.6.6.",
"6.6.6.6.6.6.6.6.6.6.6.6.6.6.6.6.6.6.6.6.6.6.6.6.6.6.6.6.6.6.6.6.6.6.6.6.",
"6.6.6.6.6.6.6.6.6.6.6.6.6.6.6.6.6.6.6.6.6.6.6.6.6.6.6.6.6.6.6.6.6.6.6.6.",
"6.6.6.6.6.6.6.6.6.6.6.6.6.6.6.6.6.6.6.6.6.6.6.6.6.6.6.6.6.6.6.6.6.6.6.6.",
"6.6.6.6.6.6.6.6.6.6.6.6.6.6.6.6.6.6.6.6.6.6.6.6.6.6.6.6.6.6.6.6.6.6.6.6.",
"6.6.6.6.6.6.6.6.6.6.6.6.6.6.6.6.6.6.6.6.6.6.6.6.6.6.6.6.6.6.6.6.6.6.6.6.",
"6.6.6.6.6.6.6.6.B B B B B N B B <.6.6.6.:.! D D ( 1.6.6.6.6.6.6.6.6.6.6.",
"6.6.6.6.6.6.6.#.o o o o o o o o $.6.6.I o o o $ o - $.6.6.6.6.6.6.6.6.6.",
"6.6.6.6.6.6.6.R o - o o o o o o $.6.E o o - o o o 6 * 6.6.6.6.6.6.6.6.6.",
"6.6.6.6.6.6.6.S o $ E | | | | | 6.6.* o 1 x $.O.* o o E 6.6.6.6.6.6.6.6.",
"6.6.6.6.6.6.6.f o o | 6.6.6.6.6.6.6.o * o ;.6.6.W o i h 6.6.6.6.6.6.6.6.",
"6.6.6.6.6.6.6.2 o o b e j J *.6.6.6.o , o 1.6.6.+.o r o 6.6.6.6.6.6.6.6.",
"6.6.6.6.6.6.6.o o o o o o - o G 6.6.o o o [ 6.6.N o 4 o 6.6.6.6.6.6.6.6.",
"6.6.6.6.6.6.6.o O o 8 n 2 o O o ` 6.m o 4 o h w o o 4 o 6.6.6.6.6.6.6.6.",
"6.6.6.6.6.6.6.a a H 6.6.6.x o y f 6.6.p o o o $ o o w o 6.6.6.6.6.6.6.6.",
"6.6.6.6.6.6.6.6.6.6.6.6.6.O.o 4 o 6.6.6.^ n w j I o y r 6.6.6.6.6.6.6.6.",
"6.6.6.6.6.6.D o o Y 6.6.6._ o 8 > 6.2 o o #.6.6.j o 8 F 6.6.6.6.6.6.6.6.",
"6.6.6.6.6.6.^ o 8 o ` -.| - o 8 N 6.s o 2 x *.( o O o ..6.6.6.6.6.6.6.6.",
"6.6.6.6.6.6.6., o > o o o o , o ;.6.[ o o * o o o O b 6.6.6.6.6.6.6.6.6.",
"6.6.6.6.6.6.6.,.8 o o o O o 2 } 6.6.6.P o o o - o b 6.6.6.6.6.6.6.6.6.6.",
"6.6.6.6.6.6.6.6.6.| L Z I ` 6.6.6.6.6.6.=.Y Z L X.6.6.6.6.6.6.6.6.6.6.6.",
"6.6.6.6.6.6.6.6.6.6.6.6.6.6.6.6.6.6.6.6.6.6.6.6.6.6.6.6.6.6.6.6.6.6.6.6.",
"6.6.6.6.6.6.6.6.6.6.6.6.6.6.6.6.6.6.6.6.6.6.6.6.6.6.6.6.6.6.6.6.6.6.6.6.",
"6.6.6.6.6.6.6.6.6.6.6.6.6.6.6.6.6.6.6.6.6.6.6.6.6.6.6.6.6.6.6.6.6.6.6.6.",
"6.6.6.6.6.6.6.6.6.6.6.6.6.6.6.6.6.6.6.6.6.6.6.6.6.6.6.6.6.6.6.6.6.6.6.6.",
"6.6.6.6.6.6.6.6.6.6.6.6.6.6.6.6.6.6.6.6.6.6.6.6.6.6.6.6.6.6.6.6.6.6.6.6.",
"6.6.6.6.6.6.6.6.6.6.6.6.6.6.6.6.6.6.6.6.6.6.6.6.6.6.6.6.6.6.6.6.6.6.6.6.",
"6.6.6.6.6.6.6.6.6.6.6.6.6.6.6.6.6.6.6.6.6.6.6.6.6.6.6.6.6.6.6.6.6.6.6.6.",
"6.6.6.6.6.6.6.6.6.6.6.6.6.6.6.6.6.6.6.6.6.6.6.6.6.6.6.6.6.6.6.6.6.6.6.6.",
"6.6.6.6.6.6.6.6.6.6.6.6.6.6.6.6.6.6.6.6.6.6.6.6.6.6.6.6.6.6.6.6.6.6.6.6.",
"6.6.6.6.6.6.6.6.6.6.6.6.6.6.6.6.6.6.6.6.6.6.6.6.6.6.6.6.6.6.6.6.6.6.6.6.",
"6.6.6.6.6.6.6.6.6.6.6.6.6.6.6.6.6.6.6.6.6.6.6.6.6.6.6.6.6.6.6.6.6.6.6.6.",
"6.6.6.6.6.6.6.6.6.6.6.6.6.6.6.6.6.6.6.6.6.6.6.6.6.6.6.6.6.6.6.6.6.6.6.6."
};
