/* XPM */
static char *empty-0-LB-37[] = {
/* columns rows colors chars-per-pixel */
"36 36 93 2",
"   c #000B00080003",
".  c #010A00CC0054",
"X  c #01D8016D0095",
"o  c #025901D000BD",
"O  c #02A7020C00D6",
"+  c #0322026B00FD",
"@  c #036A02A20114",
"#  c #049B038E0174",
"$  c #0531040201A4",
"%  c #058C044801C1",
"&  c #062004BB01F0",
"*  c #067C0502020C",
"=  c #06B3052B021D",
"-  c #076005B20255",
";  c #11780D7C0584",
":  c #1BEE158F08D2",
">  c #22681A8F0ADE",
",  c #26E61E070C49",
"<  c #27281E3A0C5D",
"1  c #2B1A21460D9C",
"2  c #2D6E23110E58",
"3  c #2F7924A50EFE",
"4  c #31D026740FBB",
"5  c #3BE92E3F12EB",
"6  c #3C8E2EBE131F",
"7  c #488A37FF16E8",
"8  c #51423EBA19A9",
"9  c #52713FA41A09",
"0  c #58D344911C0D",
"q  c #5E5848D41DCB",
"w  c #60534A5B1E6B",
"e  c #65454E2C1FFB",
"r  c #6858508C20F3",
"t  c #6A3451FC218A",
"y  c #6A9F524E21AC",
"u  c #6BF653572218",
"i  c #6DB554AF22A5",
"p  c #6FC55647234C",
"a  c #7A715E8426AA",
"s  c #7D1E60952783",
"d  c #7EBA61D32805",
"f  c #7F686259283C",
"g  c #7FE062B52861",
"h  c #88C469932B31",
"j  c #898B6A2C2B6F",
"k  c #89E96A752B8D",
"l  c #8D246CF32C92",
"z  c #8F286E812D35",
"x  c #975874D42FCB",
"c  c #9835757F3011",
"v  c #9AEE779830ED",
"b  c #9CA078E73176",
"n  c #9ECB7A943225",
"m  c #A0967BF632B5",
"M  c #A42C7EBA33D8",
"N  c #A6CA80C034AC",
"B  c #A9E7832735A8",
"V  c #ACD185673692",
"C  c #AD98860136D2",
"Z  c #AEA286CE3726",
"A  c #B080883F37BD",
"S  c #B14588D737FB",
"D  c #B5088BBE392B",
"F  c #B8228E233A26",
"G  c #B9258EEC3A77",
"H  c #BBEB910F3B58",
"J  c #BD9192553BDD",
"K  c #BE0D92B53C04",
"L  c #C08994A03CCD",
"P  c #C166954A3D13",
"I  c #C50198133E36",
"U  c #CADD9C994010",
"Y  c #CBDB9D5D4060",
"T  c #CD889EA840E7",
"R  c #CDEA9EF34106",
"E  c #CEE79FB74156",
"W  c #D04DA0CB41C7",
"Q  c #D12FA17A420F",
"!  c #D1A2A1D24233",
"~  c #D4D9A44D4337",
"^  c #D64CA56C43AC",
"/  c #D779A654440B",
"(  c #DB89A9774553",
")  c #DE23AB794626",
"_  c #E035AD1346CE",
"`  c #E0F8ADA9470B",
"'  c #E1C9AE4A474D",
"]  c #E2E6AF2647A7",
"[  c #E462B04B481E",
"{  c #E57CB1264878",
"}  c #E68EB1F848CE",
"|  c #E736B27A4904",
" . c #E79DB2CA4924",
/* pixels */
" . . . . . . . . . . . . . . . . . . . . . . . . . . . . . . . . . . . .",
" . . . . . . . . . . . . . . . . . . . . . . . . . . . . . . . . . . . .",
" . . . . . . . . . . . . . . . . . . . . . . . . . . . . . . . . . . . .",
" . . . . . . . . . . . . . . . . . . . . . . . . . . . . . . . . . . . .",
" . . . . . . . . . . . . . . . . . . . . . . . . . . . . . . . . . . . .",
" . . . . . . . . . . . . . . . . . . . . . . . . . . . . . . . . . . . .",
" . . . . . . . . . . . . . . . . . . . . . . . . . . . . . . . . . . . .",
" . . . . . . . . . . . . . . . . . . . . . . . . . . . . . . . . . . . .",
" . . . . . . . . . . . . . . . . . . . . . . . . . . . . . . . . . . . .",
" . . . . . . . . .) B d a M )  . .z e e e e e e e e e G  . . . . . . . .",
" . . . . . . . .G         #   N  .2                 - z  . . . . . . . .",
" . . . . . . . .    %     %     ^ 4                   z  . . . . . . . .",
" . . . . . . .V     # Y ! ;   # b Y P P P P P P   # ,  . . . . . . . . .",
" . . . . . . .h   - h  . .h -   u  . . . . .[ ;     !  . . . . . . . . .",
" . . . . . . .i     b  . .p % % l  . . . . .g     v  . . . . . . . . . .",
" . . . . . . . . . .P > %       /  . . . .!     :  . . . . . . . . . . .",
" . . . . . . . . . .S         3 !  . . . .0     G  . . . . . . . . . . .",
" . . . . . . . . . .Y e 9 %       )  . .Y     <  . . . . . . . . . . . .",
" . . . . . . .m w w H  . . .1     S  . .e #   V  . . . . . . . . . . . .",
" . . . . . . .i   % g  . . .7     b  .[       [  . . . . . . . . . . . .",
" . . . . . . .b       I / V       Y  .D     0  . . . . . . . . . . . . .",
" . . . . . . .)     %         # 6  . .w #   V  . . . . . . . . . . . . .",
" . . . . . . . .J     %       6 )  . .      ~  . . . . . . . . . . . . .",
" . . . . . . . . .[ V d u c K  . . . .u e u  . . . . . . . . . . . . . .",
" . . . . . . . . . . . . . . . . . . . . . . . . . . . . . . . . . . . .",
" . . . . . . . . . . . . . . . . . . . . . . . . . . . . . . . . . . . .",
" . . . . . . . . . . . . . . . . . . . . . . . . . . . . . . . . . . . .",
" . . . . . . . . . . . . . . . . . . . . . . . . . . . . . . . . . . . .",
" . . . . . . . . . . . . . . . . . . . . . . . . . . . . . . . . . . . .",
" . . . . . . . . . . . . . . . . . . . . . . . . . . . . . . . . . . . .",
" . . . . . . . . . . . . . . . . . . . . . . . . . . . . . . . . . . . .",
" . . . . . . . . . . . . . . . . . . . . . . . . . . . . . . . . . . . .",
" . . . . . . . . . . . . . . . . . . . . . . . . . . . . . . . . . . . .",
" . . . . . . . . . . . . . . . . . . . . . . . . . . . . . . . . . . . .",
" . . . . . . . . . . . . . . . . . . . . . . . . . . . . . . . . . . . .",
" . . . . . . . . . . . . . . . . . . . . . . . . . . . . . . . . . . . ."
};
