/* XPM */
static char *empty-0-LB-305[] = {
/* columns rows colors chars-per-pixel */
"36 36 136 2",
"   c #000C00090004",
".  c #011400D50057",
"X  c #01D301680093",
"o  c #024301BF00B7",
"O  c #02BA021B00DD",
"+  c #0322026B00FD",
"@  c #037902AE0119",
"#  c #0471036D0167",
"$  c #050803E20197",
"%  c #059F045701C6",
"&  c #062904C201F2",
"*  c #067C0502020C",
"=  c #06CC053F0225",
"-  c #076005B20255",
";  c #0888069602B2",
":  c #112A0D40056C",
">  c #16C711950731",
",  c #189512F907C3",
"<  c #1E58176C0995",
"1  c #22681A8F0ADE",
"2  c #24251BE60B6A",
"3  c #26F61E130C4E",
"4  c #271B1E300C59",
"5  c #29361FD00D03",
"6  c #2B1A21460D9C",
"7  c #2D6E23110E58",
"8  c #2EB5240E0EC0",
"9  c #2EFE24460ED7",
"0  c #34622870108B",
"q  c #3BE92E3F12EB",
"w  c #3CA12ECD1325",
"e  c #3F0530A513E7",
"r  c #431433C7152E",
"t  c #44CA351A15B9",
"y  c #458A35AE15F6",
"u  c #47FB379116BB",
"i  c #488A37FF16E8",
"p  c #4C293ACB180D",
"a  c #51243EA319A0",
"s  c #581C44041BD3",
"d  c #5D6248151D7D",
"f  c #5E5848D41DCB",
"g  c #61884B4A1ECD",
"h  c #62FE4C6A1F43",
"j  c #63A84CED1F79",
"k  c #65554E382000",
"l  c #66FF4F822086",
"z  c #676E4FD720A9",
"x  c #688950B22103",
"c  c #6A3451FC218A",
"v  c #6AD5527821BD",
"b  c #6BF653572218",
"n  c #6DB554AF22A5",
"m  c #6FC55647234C",
"M  c #75E55B02253B",
"N  c #76D75BBD2587",
"B  c #77F65C9925E2",
"V  c #7A715E8426AA",
"C  c #7D1E60952783",
"Z  c #7ED061E3280B",
"A  c #7F686259283C",
"S  c #7FD562AD285E",
"D  c #80C6636828AA",
"F  c #8326653D296B",
"G  c #853766D52A11",
"H  c #8743686A2AB7",
"J  c #87EF68EF2AED",
"K  c #88D969A32B37",
"L  c #899B6A392B75",
"P  c #89E96A752B8D",
"I  c #8CF96CD22C85",
"U  c #8EBB6E2D2D12",
"Y  c #90046F2C2D7A",
"T  c #90E96FDD2DC3",
"R  c #9547733C2F24",
"E  c #974174C12FC4",
"W  c #9AE0778E30E8",
"Q  c #9CAA78EE3179",
"!  c #9DCD79D031D5",
"~  c #9ECB7A943225",
"^  c #9F517AFB324F",
"/  c #A08C7BEF32B3",
"(  c #A1497C8032EF",
")  c #A3837E3833A3",
"_  c #A4437ECD33E0",
"`  c #A66A8076348D",
"'  c #A70A80F134BF",
"]  c #A9E7832735A8",
"[  c #AB9C84783631",
"{  c #ACBF8559368D",
"}  c #AEA286CE3726",
"|  c #B080883F37BD",
" . c #B11788B337ED",
".. c #B1D389453827",
"X. c #B60F8C89397E",
"o. c #B6158C8E3980",
"O. c #B7FF8E083A1A",
"+. c #BA3F8FC53AD1",
"@. c #BB43908D3B22",
"#. c #BBEB910F3B58",
"$. c #BD9192553BDD",
"%. c #BE0D92B53C04",
"&. c #C08994A03CCD",
"*. c #C166954A3D13",
"=. c #C2A2963E3D76",
"-. c #C50198133E36",
";. c #C6BB99683EC2",
":. c #CA369C173FDB",
">. c #CADD9C994010",
",. c #CB1D9CCA4024",
"<. c #CBD69D5A405E",
"1. c #CD869EA640E6",
"2. c #CE559F464128",
"3. c #CF019FCB415F",
"4. c #D084A0F541D8",
"5. c #D12FA17A420F",
"6. c #D192A1C6422E",
"7. c #D1D7A1FB4244",
"8. c #D39DA35942D3",
"9. c #D3D4A38442E5",
"0. c #D4C5A43E4331",
"q. c #D550A4AA435D",
"w. c #D64CA56C43AC",
"e. c #D762A6424404",
"r. c #D8E2A76B447D",
"t. c #DB89A9774553",
"y. c #DC0FA9DF457E",
"u. c #DDBBAB284605",
"i. c #DE23AB794626",
"p. c #E035AD1246CD",
"a. c #E0F8ADA9470B",
"s. c #E323AF5647BA",
"d. c #E460B04A481E",
"f. c #E697B20048D1",
"g. c #E739B27D4905",
"h. c #E79DB2CA4924",
/* pixels */
"h.h.h.h.h.h.h.h.h.h.h.h.h.h.h.h.h.h.h.h.h.h.h.h.h.h.h.h.h.h.h.h.h.h.h.h.",
"h.h.h.h.h.h.h.h.h.h.h.h.h.h.h.h.h.h.h.h.h.h.h.h.h.h.h.h.h.h.h.h.h.h.h.h.",
"h.h.h.h.h.h.h.h.h.h.h.h.h.h.h.h.h.h.h.h.h.h.h.h.h.h.h.h.h.h.h.h.h.h.h.h.",
"h.h.h.h.h.h.h.h.h.h.h.h.h.h.h.h.h.h.h.h.h.h.h.h.h.h.h.h.h.h.h.h.h.h.h.h.",
"h.h.h.h.h.h.h.h.h.h.h.h.h.h.h.h.h.h.h.h.h.h.h.h.h.h.h.h.h.h.h.h.h.h.h.h.",
"h.h.h.h.h.h.h.h.h.h.h.h.h.h.h.h.h.h.h.h.h.h.h.h.h.h.h.h.h.h.h.h.h.h.h.h.",
"h.h.h.h.h.h.h.h.h.h.h.h.h.h.h.h.h.h.h.h.h.h.h.h.h.h.h.h.h.h.h.h.h.h.h.h.",
"h.h.h.h.h.h.h.h.h.h.h.h.h.h.h.h.h.h.h.h.h.h.h.h.h.h.h.h.h.h.h.h.h.h.h.h.",
"h.h.h.h.h.h.h.h.h.h.h.h.h.h.h.h.h.h.h.h.h.h.h.h.h.h.h.h.h.h.h.h.h.h.h.h.",
"h.h.h.a.[ D V _ i.h.h.h.h.h.h.;.F z K 2.h.h.h.h.[ k k k k k k k R h.h.h.",
"h.h.O.            ' h.h.h.h.j   *   *   G h.h.h.s               r h.h.h.",
"h.h.    *     *     e.h.h.U               ..h.h.<               r h.h.h.",
"h.{       2.7.:     Q h.h.      K 0.g     , h.h.      *.*.*.*.*.7.h.h.h.",
"h.K   * K h.h.K ;   v h.@.      h.h.i.      e.i.    1 h.h.h.h.h.h.h.h.h.",
"h.n     Q h.h.m * * K h.T *   z h.h.h.4     O.2.    f e 4 j Q h.h.h.h.h.",
"h.h.h.h.*.1 *       r.h.M   ; D h.h.h.i     ) ..    #         , e.h.h.h.",
"h.h.h.h...        9 7.h.k   * R h.h.h.h   * E U # #   a u   #   9 h.h.h.",
"h.h.h.h.2.j a *       a.G   * S h.h.h.u     { Q w e 3.h.h.r.      :.h.h.",
"h.) g f @.h.h.h.6      .)   * v h.h.h.4     *.h.h.h.h.h.h.h.p     ) h.h.",
"h.b   * S h.h.h.p     ) @.      h.h.a.      0.      a.h.h.h.9     X.h.h.",
"h.Q       ;.e.]       2.h.      W i.B     0 h.9     v 7.7.K       e.h.h.",
"h.i.    *           w h.h.U               X.h...    *           S h.h.h.",
"h.h.%.    #       q t.h.h.h.F           _ h.h.h./             B h.h.h.h.",
"h.h.h.a.{ C n E %.h.h.h.h.h.h.:.Q v ' 7.h.h.h.h.h.i.' V B _ 2.h.h.h.h.h.",
"h.h.h.h.h.h.h.h.h.h.h.h.h.h.h.h.h.h.h.h.h.h.h.h.h.h.h.h.h.h.h.h.h.h.h.h.",
"h.h.h.h.h.h.h.h.h.h.h.h.h.h.h.h.h.h.h.h.h.h.h.h.h.h.h.h.h.h.h.h.h.h.h.h.",
"h.h.h.h.h.h.h.h.h.h.h.h.h.h.h.h.h.h.h.h.h.h.h.h.h.h.h.h.h.h.h.h.h.h.h.h.",
"h.h.h.h.h.h.h.h.h.h.h.h.h.h.h.h.h.h.h.h.h.h.h.h.h.h.h.h.h.h.h.h.h.h.h.h.",
"h.h.h.h.h.h.h.h.h.h.h.h.h.h.h.h.h.h.h.h.h.h.h.h.h.h.h.h.h.h.h.h.h.h.h.h.",
"h.h.h.h.h.h.h.h.h.h.h.h.h.h.h.h.h.h.h.h.h.h.h.h.h.h.h.h.h.h.h.h.h.h.h.h.",
"h.h.h.h.h.h.h.h.h.h.h.h.h.h.h.h.h.h.h.h.h.h.h.h.h.h.h.h.h.h.h.h.h.h.h.h.",
"h.h.h.h.h.h.h.h.h.h.h.h.h.h.h.h.h.h.h.h.h.h.h.h.h.h.h.h.h.h.h.h.h.h.h.h.",
"h.h.h.h.h.h.h.h.h.h.h.h.h.h.h.h.h.h.h.h.h.h.h.h.h.h.h.h.h.h.h.h.h.h.h.h.",
"h.h.h.h.h.h.h.h.h.h.h.h.h.h.h.h.h.h.h.h.h.h.h.h.h.h.h.h.h.h.h.h.h.h.h.h.",
"h.h.h.h.h.h.h.h.h.h.h.h.h.h.h.h.h.h.h.h.h.h.h.h.h.h.h.h.h.h.h.h.h.h.h.h.",
"h.h.h.h.h.h.h.h.h.h.h.h.h.h.h.h.h.h.h.h.h.h.h.h.h.h.h.h.h.h.h.h.h.h.h.h."
};
