/* XPM */
static char *empty-0-SQ[] = {
/* columns rows colors chars-per-pixel */
"36 36 4 1",
"  c black",
". c #65554E382000",
"X c #CD809EA140E5",
"o c #E79DB2CA4924",
/* pixels */
"oooooooooooooooooooooooooooooooooooo",
"oooooooooooooooooooooooooooooooooooo",
"oooooooooooooooooooooooooooooooooooo",
"oooooooooooooooooooooooooooooooooooo",
"oooooooooooooooooooooooooooooooooooo",
"oooooooooooooooooooooooooooooooooooo",
"oooooooooooooooooooooooooooooooooooo",
"oooooooooooooooooooooooooooooooooooo",
"ooooooooX..................Xoooooooo",
"oooooooo.                  .oooooooo",
"oooooooo. ................ .oooooooo",
"oooooooo. .oooooooooooooo. .oooooooo",
"oooooooo. .oooooooooooooo. .oooooooo",
"oooooooo. .oooooooooooooo. .oooooooo",
"oooooooo. .oooooooooooooo. .oooooooo",
"oooooooo. .oooooooooooooo. .oooooooo",
"oooooooo. .oooooooooooooo. .oooooooo",
"oooooooo. .oooooooooooooo. .oooooooo",
"oooooooo. .oooooooooooooo. .oooooooo",
"oooooooo. .oooooooooooooo. .oooooooo",
"oooooooo. .oooooooooooooo. .oooooooo",
"oooooooo. .oooooooooooooo. .oooooooo",
"oooooooo. .oooooooooooooo. .oooooooo",
"oooooooo. .oooooooooooooo. .oooooooo",
"oooooooo. .oooooooooooooo. .oooooooo",
"oooooooo. ................ .oooooooo",
"oooooooo.                  .oooooooo",
"ooooooooX..................Xoooooooo",
"oooooooooooooooooooooooooooooooooooo",
"oooooooooooooooooooooooooooooooooooo",
"oooooooooooooooooooooooooooooooooooo",
"oooooooooooooooooooooooooooooooooooo",
"oooooooooooooooooooooooooooooooooooo",
"oooooooooooooooooooooooooooooooooooo",
"oooooooooooooooooooooooooooooooooooo",
"oooooooooooooooooooooooooooooooooooo"
};
