/* XPM */
static char *empty-0-LB-337[] = {
/* columns rows colors chars-per-pixel */
"36 36 95 2",
"   c #000500040002",
".  c #010E00D00055",
"X  c #019D013F0083",
"o  c #023D01BA00B5",
"O  c #02F2024600EE",
"+  c #041203240149",
"@  c #0543041001A9",
"#  c #064904DA01FC",
"$  c #06FB05640234",
"%  c #07CB06040276",
"&  c #08CA06C902C7",
"*  c #0A83081D0352",
"=  c #0BB8090B03B3",
"-  c #0C3A097003DD",
";  c #0F9C0C0C04EE",
":  c #10FC0D1C055D",
">  c #12710E3C05D3",
",  c #147A0FCE0678",
"<  c #18C6131F07D2",
"1  c #1BD9157F08CB",
"2  c #1F93185F09F8",
"3  c #24F11C840BAA",
"4  c #268C1DC10C2C",
"5  c #29C820400D31",
"6  c #2B22214C0D9F",
"7  c #2C2F221B0DF4",
"8  c #2CB122800E1D",
"9  c #2E3E23B20E9A",
"0  c #2F9424BA0F06",
"q  c #314626090F8F",
"w  c #31C4266B0FB7",
"e  c #34D628C910AF",
"r  c #3B1F2DA312AB",
"t  c #436034021546",
"y  c #441E34951583",
"u  c #4B0F39F117B4",
"i  c #4B703A3B17D3",
"p  c #4E363C5F18B3",
"a  c #5CD247A71D50",
"s  c #5E5848D41DCB",
"d  c #62344BCF1F03",
"f  c #628C4C131F1F",
"g  c #65554E382000",
"h  c #65AB4E7B201B",
"j  c #686C509B20F9",
"k  c #6A9F524E21AC",
"l  c #6E51552822D6",
"z  c #6EA3556822F0",
"x  c #712B575C23BD",
"c  c #73E359752499",
"v  c #7B015EF326D7",
"b  c #7E8B61AE27F6",
"n  c #82D264FC2950",
"m  c #840C65ED29B3",
"M  c #881D69122AFC",
"N  c #893269E82B54",
"B  c #8AAC6B0B2BCA",
"V  c #904B6F632D91",
"C  c #907E6F8A2DA1",
"Z  c #936C71CC2E8E",
"A  c #943572672ECD",
"S  c #94B072C72EF4",
"D  c #95B973932F48",
"F  c #A3647E203399",
"G  c #A98982DE3589",
"H  c #AE10865D36F7",
"J  c #AE8186B4371B",
"K  c #B3A38AAA38BA",
"L  c #B6A78CFF39AE",
"P  c #B8CB8EA63A5B",
"I  c #B9F18F893AB8",
"U  c #BB1190673B13",
"Y  c #BE6192F53C1F",
"T  c #BFE994243C9B",
"R  c #C166954A3D13",
"E  c #C50F981D3E3B",
"W  c #CC3C9DA8407F",
"Q  c #CDA99EC140F2",
"!  c #CF5CA011417C",
"~  c #CFDAA07241A3",
"^  c #D36FA33742C5",
"/  c #D41AA3BA42FA",
"(  c #D78EA6654412",
")  c #DA06A84D44D9",
"_  c #DAA4A8C7450B",
"`  c #DEF7AC1D4669",
"'  c #E07AAD4846E3",
"]  c #E119ADC34715",
"[  c #E2B9AF044799",
"{  c #E2FFAF3947AF",
"}  c #E447B0364816",
"|  c #E602B18C48A2",
" . c #E6A0B20748D4",
".. c #E761B29C4911",
"X. c #E79DB2CA4924",
/* pixels */
"X.X.X.X.X.X.X.X.X.X.X.X.X.X.X.X.X.X.X.X.X.X.X.X.X.X.X.X.X.X.X.X.X.X.X.X.",
"X.X.X.X.X.X.X.X.X.X.X.X.X.X.X.X.X.X.X.X.X.X.X.X.X.X.X.X.X.X.X.X.X.X.X.X.",
"X.X.X.X.X.X.X.X.X.X.X.X.X.X.X.X.X.X.X.X.X.X.X.X.X.X.X.X.X.X.X.X.X.X.X.X.",
"X.X.X.X.X.X.X.X.X.X.X.X.X.X.X.X.X.X.X.X.X.X.X.X.X.X.X.X.X.X.X.X.X.X.X.X.",
"X.X.X.X.X.X.X.X.X.X.X.X.X.X.X.X.X.X.X.X.X.X.X.X.X.X.X.X.X.X.X.X.X.X.X.X.",
"X.X.X.X.X.X.X.X.X.X.X.X.X.X.X.X.X.X.X.X.X.X.X.X.X.X.X.X.X.X.X.X.X.X.X.X.",
"X.X.X.X.X.X.X.X.X.X.X.X.X.X.X.X.X.X.X.X.X.X.X.X.X.X.X.X.X.X.X.X.X.X.X.X.",
"X.X.X.X.X.X.X.X.X.X.X.X.X.X.X.X.X.X.X.X.X.X.X.X.X.X.X.X.X.X.X.X.X.X.X.X.",
"X.X.X.X.X.X.X.X.X.X.X.X.X.X.X.X.X.X.X.X.X.X.X.X.X.X.X.X.X.X.X.X.X.X.X.X.",
"X.X.X.X.T D h V U X.X.X.X.X.X.Y D h V U X.X.) h g g g g g g g g j X.X.X.",
"X.X.X.u       &   u X.X.X.X.u       &   u X.H                 -   X.X.X.",
"X.X.c   =           v X.X.c   =           v L                 3   X.X.X.",
"X.X.      V ) m   1   X.X.      Z ) m   1   X.R R R R R R 9     H X.X.X.",
"X.X.  ,   { X.{       ) X.  ,   { X.{       ) X.X.X.X.X.M   : z X.X.X.X.",
"X.X.      X.X.^   1   { X.      X.X./   <   { X.X.X.X.(   4   { X.X.X.X.",
"X.X.X.X.X.y <       x X.X.X.X.X.y <       x X.X.X.X.X.r     H X.X.X.X.X.",
"X.X.X.X.X.          D X.X.X.X.X.          D X.X.X.X.R   9 0 X.X.X.X.X.X.",
"X.X.X.X.X.v f q   +   Z X.X.X.X.v f w   #   Z X.X.X.5     U X.X.X.X.X.X.",
"X.X.s s j X.X.X.F   5 & X.s s j X.X.X.F   5 # X.X.!   9 : X.X.X.X.X.X.X.",
"X.X.  =   { X.X.E   2   X.  =   { X.X.E   2   X.X.a   : V X.X.X.X.X.X.X.",
"X.X.      M / ! e   0 t X.      M ^ ! e   0 t X.X.& +   ^ X.X.X.X.X.X.X.",
"X.X.f   =         -   U X.g   &         -   U X.^   5 # X.X.X.X.X.X.X.X.",
"X.X.X.p       #     D X.X.X.p       #     D X.X.b   q a X.X.X.X.X.X.X.X.",
"X.X.X.X.! M z n G ` X.X.X.X.X.E B x n G ` X.X.X.U g h K X.X.X.X.X.X.X.X.",
"X.X.X.X.X.X.X.X.X.X.X.X.X.X.X.X.X.X.X.X.X.X.X.X.X.X.X.X.X.X.X.X.X.X.X.X.",
"X.X.X.X.X.X.X.X.X.X.X.X.X.X.X.X.X.X.X.X.X.X.X.X.X.X.X.X.X.X.X.X.X.X.X.X.",
"X.X.X.X.X.X.X.X.X.X.X.X.X.X.X.X.X.X.X.X.X.X.X.X.X.X.X.X.X.X.X.X.X.X.X.X.",
"X.X.X.X.X.X.X.X.X.X.X.X.X.X.X.X.X.X.X.X.X.X.X.X.X.X.X.X.X.X.X.X.X.X.X.X.",
"X.X.X.X.X.X.X.X.X.X.X.X.X.X.X.X.X.X.X.X.X.X.X.X.X.X.X.X.X.X.X.X.X.X.X.X.",
"X.X.X.X.X.X.X.X.X.X.X.X.X.X.X.X.X.X.X.X.X.X.X.X.X.X.X.X.X.X.X.X.X.X.X.X.",
"X.X.X.X.X.X.X.X.X.X.X.X.X.X.X.X.X.X.X.X.X.X.X.X.X.X.X.X.X.X.X.X.X.X.X.X.",
"X.X.X.X.X.X.X.X.X.X.X.X.X.X.X.X.X.X.X.X.X.X.X.X.X.X.X.X.X.X.X.X.X.X.X.X.",
"X.X.X.X.X.X.X.X.X.X.X.X.X.X.X.X.X.X.X.X.X.X.X.X.X.X.X.X.X.X.X.X.X.X.X.X.",
"X.X.X.X.X.X.X.X.X.X.X.X.X.X.X.X.X.X.X.X.X.X.X.X.X.X.X.X.X.X.X.X.X.X.X.X.",
"X.X.X.X.X.X.X.X.X.X.X.X.X.X.X.X.X.X.X.X.X.X.X.X.X.X.X.X.X.X.X.X.X.X.X.X.",
"X.X.X.X.X.X.X.X.X.X.X.X.X.X.X.X.X.X.X.X.X.X.X.X.X.X.X.X.X.X.X.X.X.X.X.X."
};
