/* XPM */
static char *empty-0-LB-91[] = {
/* columns rows colors chars-per-pixel */
"36 36 72 1",
"  c #000D000A0004",
". c #01B90154008B",
"X c #02CA022700E2",
"o c #0313025F00F8",
"O c #037202A90117",
"+ c #04C803B10183",
"@ c #0588044501BF",
"# c #065504E40200",
"$ c #06EE055A0230",
"% c #201C18C90A24",
"& c #216919CA0A8D",
"* c #26521D940C1A",
"= c #281A1EF50CAA",
"- c #2C7922540E0B",
"; c #2D8C23290E62",
": c #315B26190F96",
"> c #404B31A1144E",
", c #429233631506",
"< c #436834081549",
"1 c #43EB346D1572",
"2 c #4B5E3A2D17CD",
"3 c #549C41501AB8",
"4 c #559B42151B08",
"5 c #65554E382000",
"6 c #69375138213A",
"7 c #6A9F524E21AC",
"8 c #6AE5528421C2",
"9 c #6CB053E62252",
"0 c #74A65A0C24D6",
"q c #78635CEE2604",
"w c #78A45D212619",
"e c #81E364432904",
"r c #86D468142A94",
"t c #889769702B22",
"y c #892569DE2B4F",
"u c #8A0F6A932B99",
"i c #8CC66CAB2C75",
"p c #924A70ED2E32",
"a c #95F273C02F5A",
"s c #9A2F770530B0",
"d c #9D9B79A931C5",
"f c #A3597E183395",
"g c #A3D17E7433BB",
"h c #A4437ECD33DF",
"j c #A5CD7FFC345B",
"k c #A88E821D353A",
"l c #AC608510366F",
"z c #ACAD854B3687",
"x c #AE20866936FC",
"c c #B14588D737FB",
"v c #B25389A83850",
"b c #B7F38DFF3A17",
"n c #B9208EE73A76",
"m c #BB4990923B24",
"M c #BC7F91813B86",
"N c #BD32920C3BBF",
"B c #BDC6927E3BEE",
"V c #C14E95383D0B",
"C c #C8239A7E3F34",
"Z c #CCAD9DFF40A2",
"A c #CD3B9E6C40CF",
"S c #CEDB9FAD4152",
"D c #D7ADA67C441B",
"F c #D909A7894489",
"G c #DB29A92D4535",
"H c #DC81AA3645A2",
"J c #DD58AADC45E6",
"K c #DE84ABC44645",
"L c #E0AFAD7146F4",
"P c #E6C5B22348E0",
"I c #E6EAB24048EB",
"U c #E79DB2CA4924",
/* pixels */
"UUUUUUUUUUUUUUUUUUUUUUUUUUUUUUUUUUUU",
"UUUUUUUUUUUUUUUUUUUUUUUUUUUUUUUUUUUU",
"UUUUUUUUUUUUUUUUUUUUUUUUUUUUUUUUUUUU",
"UUUUUUUUUUUUUUUUUUUUUUUUUUUUUUUUUUUU",
"UUUUUUUUUUUUUUUUUUUUUUUUUUUUUUUUUUUU",
"UUUUUUUUUUUUUUUUUUUUUUUUUUUUUUUUUUUU",
"UUUUUUUUUUUUUUUUUUUUUUUUUUUUUUUUUUUU",
"UUUUUUUUUUUUUUUUUUUUUUUUUUUUUUUUUUUU",
"UUUUUUUUUUUUUUUUUUUUUUUUUUUUUUUUUUUU",
"UUUUUUUUUUMp8uZUUUUUUU85MUUUUUUUUUUU",
"UUUUUUUUF1   $ wUUUUUC $aUUUUUUUUUUU",
"UUUUUUUU,$      hUUDn& $aUUUUUUUUUUU",
"UUUUUUUm   zDu   U8  + $aUUUUUUUUUUU",
"UUUUUUUi $8UUU*  A8    $aUUUUUUUUUUU",
"UUUUUUU0 $uUUU3  zAvc5 $aUUUUUUUUUUU",
"UUUUUUUk  ;UUK  +dUUU5 $aUUUUUUUUUUU",
"UUUUUUUK   &3 $ $sUUU5 $aUUUUUUUUUUU",
"UUUUUUUUv $  $   kUUU5 $aUUUUUUUUUUU",
"UUUUUUUUUFu,:w=  BUUU5 $aUUUUUUUUUUU",
"UUUUUUUM  2UUF   KUUU5 $aUUUUUUUUUUU",
"UUUUUUUK   nA2 +1UUUU5 $aUUUUUUUUUUU",
"UUUUUUUU3+   +  AUUUU5 $aUUUUUUUUUUU",
"UUUUUUUUL-     vUUUUU5 $aUUUUUUUUUUU",
"UUUUUUUUUUce0fKUUUUUUf55MUUUUUUUUUUU",
"UUUUUUUUUUUUUUUUUUUUUUUUUUUUUUUUUUUU",
"UUUUUUUUUUUUUUUUUUUUUUUUUUUUUUUUUUUU",
"UUUUUUUUUUUUUUUUUUUUUUUUUUUUUUUUUUUU",
"UUUUUUUUUUUUUUUUUUUUUUUUUUUUUUUUUUUU",
"UUUUUUUUUUUUUUUUUUUUUUUUUUUUUUUUUUUU",
"UUUUUUUUUUUUUUUUUUUUUUUUUUUUUUUUUUUU",
"UUUUUUUUUUUUUUUUUUUUUUUUUUUUUUUUUUUU",
"UUUUUUUUUUUUUUUUUUUUUUUUUUUUUUUUUUUU",
"UUUUUUUUUUUUUUUUUUUUUUUUUUUUUUUUUUUU",
"UUUUUUUUUUUUUUUUUUUUUUUUUUUUUUUUUUUU",
"UUUUUUUUUUUUUUUUUUUUUUUUUUUUUUUUUUUU",
"UUUUUUUUUUUUUUUUUUUUUUUUUUUUUUUUUUUU"
};
