/* XPM */
static char *empty-0-LB-52[] = {
/* columns rows colors chars-per-pixel */
"36 36 102 2",
"   c #000200020001",
".  c #011D00DC005A",
"X  c #01D001660092",
"o  c #022801AA00AE",
"O  c #03540291010D",
"+  c #05C9047801D4",
"@  c #06DD054C022B",
"#  c #078505CE0260",
"$  c #07F406240283",
"%  c #08AE06B402BE",
"&  c #0BC1091303B6",
"*  c #0C52098303E4",
"=  c #0DD00AAA045D",
"-  c #0F7F0BF604E5",
";  c #0FC80C2E04FC",
":  c #10660CA9052E",
">  c #11E80DD205A7",
",  c #128E0E5305DC",
"<  c #1579109406C8",
"1  c #186D12DB07B7",
"2  c #1BA6155808BC",
"3  c #1D9316D40957",
"4  c #1FA1186B09FD",
"5  c #20D619590A5F",
"6  c #219819EF0A9C",
"7  c #23851B6B0B37",
"8  c #27981E900C80",
"9  c #2AC821060D83",
"0  c #2EA924050EBC",
"q  c #313525FC0F8A",
"w  c #3460286E108A",
"e  c #3C6F2EA71316",
"r  c #3DAA2F9A1379",
"t  c #3ECD307A13D5",
"y  c #3F6130ED1404",
"u  c #408231CC145F",
"i  c #41B332B714BF",
"p  c #446734CD159A",
"a  c #48C9382F16FC",
"s  c #573943541B8B",
"d  c #58B6447B1C04",
"f  c #5CEF47BD1D59",
"g  c #5ED249321DF2",
"h  c #63184C7E1F4B",
"j  c #65554E382000",
"k  c #66174ECF203D",
"l  c #699551802157",
"z  c #6D4F54602284",
"x  c #6D7A54822292",
"c  c #6EEC559F2307",
"v  c #7116574C23B6",
"b  c #72E658B12449",
"n  c #79185D7A263D",
"m  c #7AE15EDB26CE",
"M  c #7F18621B2822",
"N  c #808463352896",
"B  c #811463A428C3",
"V  c #82266477291A",
"C  c #85F367662A4D",
"Z  c #8E1B6DB22CE0",
"A  c #963173F02F6E",
"S  c #96B574562F97",
"D  c #98AE75DB3037",
"F  c #9DE879E431DE",
"G  c #9FC97B583275",
"H  c #A2977D823358",
"J  c #AB548442361A",
"K  c #AD9685FF36D1",
"L  c #B096885037C4",
"P  c #B4E28BA1391F",
"I  c #B5768C13394E",
"U  c #B6B88D0C39B3",
"Y  c #BB3B90883B20",
"T  c #BB4F90973B26",
"R  c #BD4192173BC4",
"E  c #BE3092CF3C0F",
"W  c #C15B95423D10",
"Q  c #C31596973D9B",
"!  c #C43397733DF5",
"~  c #C6C499703EC5",
"^  c #C8A29AE03F5B",
"/  c #CB9B9D2B404C",
"(  c #CD869EA740E7",
")  c #CEAD9F8A4144",
"_  c #CF209FE34168",
"`  c #D0E2A13E41F6",
"'  c #D344A31542B7",
"]  c #D54BA4A6435B",
"[  c #D742A62A43FA",
"{  c #D7F4A6B34432",
"}  c #D904A7864488",
"|  c #D992A7F344B5",
" . c #DA92A8B94506",
".. c #DBB6A99B4562",
"X. c #DCBDAA6545B5",
"o. c #DD48AAD045E1",
"O. c #DE3BAB8C462E",
"+. c #DF7EAC854693",
"@. c #E5BEB159488D",
"#. c #E662B1D648C0",
"$. c #E74EB28D490B",
"%. c #E79DB2CA4924",
/* pixels */
"%.%.%.%.%.%.%.%.%.%.%.%.%.%.%.%.%.%.%.%.%.%.%.%.%.%.%.%.%.%.%.%.%.%.%.%.",
"%.%.%.%.%.%.%.%.%.%.%.%.%.%.%.%.%.%.%.%.%.%.%.%.%.%.%.%.%.%.%.%.%.%.%.%.",
"%.%.%.%.%.%.%.%.%.%.%.%.%.%.%.%.%.%.%.%.%.%.%.%.%.%.%.%.%.%.%.%.%.%.%.%.",
"%.%.%.%.%.%.%.%.%.%.%.%.%.%.%.%.%.%.%.%.%.%.%.%.%.%.%.%.%.%.%.%.%.%.%.%.",
"%.%.%.%.%.%.%.%.%.%.%.%.%.%.%.%.%.%.%.%.%.%.%.%.%.%.%.%.%.%.%.%.%.%.%.%.",
"%.%.%.%.%.%.%.%.%.%.%.%.%.%.%.%.%.%.%.%.%.%.%.%.%.%.%.%.%.%.%.%.%.%.%.%.",
"%.%.%.%.%.%.%.%.%.%.%.%.%.%.%.%.%.%.%.%.%.%.%.%.%.%.%.%.%.%.%.%.%.%.%.%.",
"%.%.%.%.%.%.%.%.%.%.%.%.%.%.%.%.%.%.%.%.%.%.%.%.%.%.%.%.%.%.%.%.%.%.%.%.",
"%.%.%.%.%.%.%.%.%.%.%.%.%.%.%.%.%.%.%.%.%.%.%.%.%.%.%.%.%.%.%.%.%.%.%.%.",
"%.%.%.%.%.%.%.%.j j j j j h j j X.%.%.%.` S v v F } %.%.%.%.%.%.%.%.%.%.",
"%.%.%.%.%.%.%.( o o o o o o o o _ %.%.l o o o + + o S %.%.%.%.%.%.%.%.%.",
"%.%.%.%.%.%.%.F o = o o o o o o _ %.M o + o o o o = o Y %.%.%.%.%.%.%.%.",
"%.%.%.%.%.%.%.z o % H E ! E E E %.%.o o o M [ ^ 2 o q e %.%.%.%.%.%.%.%.",
"%.%.%.%.%.%.%.u o o E %.%.%.%.%.%...o 8 o %.%.%.R o 5 o %.%.%.%.%.%.%.%.",
"%.%.%.%.%.%.%.2 o o f 8 a V ` %.%.( o o w %.%.%.K o 8 + %.%.%.%.%.%.%.%.",
"%.%.%.%.%.%.%.o o o o o o , o M %.%.[ ` X.%.%.! o o , n %.%.%.%.%.%.%.%.",
"%.%.%.%.%.%.%.o + o 5 g 2 o + o P %.%.%.%.[ s o o 1 , ..%.%.%.%.%.%.%.%.",
"%.%.%.%.%.%.%.e y V %.%.%.s o 0 u %.%.%.Z o o * o y [ %.%.%.%.%.%.%.%.%.",
"%.%.%.%.%.%.%.%.%.%.%.%.%.! o 3 o %.%.p o & o , J %.%.%.%.%.%.%.%.%.%.%.",
"%.%.%.%.%.%.n o o A %.%.%.L o 5 , %.d o 2 o F %.%.%.%.%.%.%.%.%.%.%.%.%.",
"%.%.%.%.%.%.J o 5 o L ..E , o 4 h +.o 2 o E E E E E E E %.%.%.%.%.%.%.%.",
"%.%.%.%.%.%.%.< o , o o o o < o } G o ; o o o o O o o o %.%.%.%.%.%.%.%.",
"%.%.%.%.%.%.%.X.5 o o o + o 2 R %.z o o o o o o o o = o %.%.%.%.%.%.%.%.",
"%.%.%.%.%.%.%.%.%.! C j Z U %.%.%.T j j h j h j j j j z %.%.%.%.%.%.%.%.",
"%.%.%.%.%.%.%.%.%.%.%.%.%.%.%.%.%.%.%.%.%.%.%.%.%.%.%.%.%.%.%.%.%.%.%.%.",
"%.%.%.%.%.%.%.%.%.%.%.%.%.%.%.%.%.%.%.%.%.%.%.%.%.%.%.%.%.%.%.%.%.%.%.%.",
"%.%.%.%.%.%.%.%.%.%.%.%.%.%.%.%.%.%.%.%.%.%.%.%.%.%.%.%.%.%.%.%.%.%.%.%.",
"%.%.%.%.%.%.%.%.%.%.%.%.%.%.%.%.%.%.%.%.%.%.%.%.%.%.%.%.%.%.%.%.%.%.%.%.",
"%.%.%.%.%.%.%.%.%.%.%.%.%.%.%.%.%.%.%.%.%.%.%.%.%.%.%.%.%.%.%.%.%.%.%.%.",
"%.%.%.%.%.%.%.%.%.%.%.%.%.%.%.%.%.%.%.%.%.%.%.%.%.%.%.%.%.%.%.%.%.%.%.%.",
"%.%.%.%.%.%.%.%.%.%.%.%.%.%.%.%.%.%.%.%.%.%.%.%.%.%.%.%.%.%.%.%.%.%.%.%.",
"%.%.%.%.%.%.%.%.%.%.%.%.%.%.%.%.%.%.%.%.%.%.%.%.%.%.%.%.%.%.%.%.%.%.%.%.",
"%.%.%.%.%.%.%.%.%.%.%.%.%.%.%.%.%.%.%.%.%.%.%.%.%.%.%.%.%.%.%.%.%.%.%.%.",
"%.%.%.%.%.%.%.%.%.%.%.%.%.%.%.%.%.%.%.%.%.%.%.%.%.%.%.%.%.%.%.%.%.%.%.%.",
"%.%.%.%.%.%.%.%.%.%.%.%.%.%.%.%.%.%.%.%.%.%.%.%.%.%.%.%.%.%.%.%.%.%.%.%.",
"%.%.%.%.%.%.%.%.%.%.%.%.%.%.%.%.%.%.%.%.%.%.%.%.%.%.%.%.%.%.%.%.%.%.%.%."
};
