/* XPM */
static char *empty-0-LB-y[] = {
/* columns rows colors chars-per-pixel */
"36 36 56 1",
"  c black",
". c #012800E4005D",
"X c #0812063B028C",
"o c #0B2108970383",
"O c #0DD70AAF045F",
"+ c #11F30DDB05AB",
"@ c #13700F010623",
"# c #171611D2074A",
"$ c #185312C707AE",
"% c #1911135907EA",
"& c #2105197D0A6D",
"* c #22BD1AD00AF8",
"= c #260D1D5F0C04",
"- c #26601D9F0C1E",
"; c #27F11ED50C9D",
": c #28BF1F740CDE",
"> c #2BD421D50DD7",
", c #2CE822AA0E2E",
"< c #2E2723A10E93",
"1 c #2F45247D0EED",
"2 c #312225EE0F84",
"3 c #31DD267E0FBF",
"4 c #34BB28B410A7",
"5 c #38252B5711BB",
"6 c #4B363A0E17C0",
"7 c #504D3DFC195C",
"8 c #5D6748191D7F",
"9 c #5E6548DE1DCF",
"0 c #5FB449E11E39",
"q c #60DB4AC41E96",
"w c #65554E382000",
"e c #707456CF2383",
"r c #8D056CDB2C88",
"t c #92DE715F2E61",
"y c #94AF72C52EF4",
"u c #9A3C770F30B5",
"i c #9F3B7AEA3249",
"p c #A2577D513344",
"a c #A5427F913430",
"s c #A8BB823F3548",
"d c #B4A58B72390C",
"f c #B58F8C273956",
"g c #C73D99CC3EEB",
"h c #CF5CA011417B",
"j c #D0ADA11541E6",
"k c #D515A47C434A",
"l c #DD28AAB845D7",
"z c #DE3BAB8C462E",
"x c #DF16AC354673",
"c c #E0A5AD6A46F1",
"v c #E109ADB64710",
"b c #E1EBAE664758",
"n c #E30AAF4247B2",
"m c #E466B04F4820",
"M c #E766B2A04913",
"N c #E79DB2CA4924",
/* pixels */
"NNNNNNNNNNNNNNNNNNNNNNNNNNNNNNNNNNNN",
"NNNNNNNNNNNNNNNNNNNNNNNNNNNNNNNNNNNN",
"NNNNNNNNNNNNNNNNNNNNNNNNNNNNNNNNNNNN",
"NNNNNNNNNNNNNNNNNNNNNNNNNNNNNNNNNNNN",
"NNNNNNNNNNNNNNNNNNNNNNNNNNNNNNNNNNNN",
"NNNNNNNNNNNNNNNNNNNNNNNNNNNNNNNNNNNN",
"NNNNNNNNNNNNNNNNNNNNNNNNNNNNNNNNNNNN",
"NNNNNNNNNNNNNNNNNNNNNNNNNNNNNNNNNNNN",
"NNNNNNNNNNNNNNNNNNNNNNNNNNNNNNNNNNNN",
"NNNNNNNNNNNNNNNNNNNNNNNNNNNNNNNNNNNN",
"NNNNNNNNNNNNNNNNNNNNNNNNNNNNNNNNNNNN",
"NNNNNNNNNNNNNNNNNNNNNNNNNNNNNNNNNNNN",
"NNNNNNNNNNNNrwwzNNNrwwzNNNNNNNNNNNNN",
"NNNNNNNNNNNN5  sNNN o zNNNNNNNNNNNNN",
"NNNNNNNNNNNNp 26NNi 17NNNNNNNNNNNNNN",
"NNNNNNNNNNNNN # cN2  fNNNNNNNNNNNNNN",
"NNNNNNNNNNNNN2  dc * NNNNNNNNNNNNNNN",
"NNNNNNNNNNNNNu <9y -eNNNNNNNNNNNNNNN",
"NNNNNNNNNNNNNc * :  gNNNNNNNNNNNNNNN",
"NNNNNNNNNNNNNN>   <ONNNNNNNNNNNNNNNN",
"NNNNNNNNNNNNNNt % @rNNNNNNNNNNNNNNNN",
"NNNNNNNNNNNNNNc  X kNNNNNNNNNNNNNNNN",
"NNNNNNNNNNNNNNN- 24NNNNNNNNNNNNNNNNN",
"NNNNNNNNNNNNNNNq  aNNNNNNNNNNNNNNNNN",
"NNNNNNNNNNNNNNNX@ zNNNNNNNNNNNNNNNNN",
"NNNNNNNNNNNNN46 -8NNNNNNNNNNNNNNNNNN",
"NNNNNNNNNNNNN  % jNNNNNNNNNNNNNNNNNN",
"NNNNNNNNNNNNN9-qhNNNNNNNNNNNNNNNNNNN",
"NNNNNNNNNNNNNNNNNNNNNNNNNNNNNNNNNNNN",
"NNNNNNNNNNNNNNNNNNNNNNNNNNNNNNNNNNNN",
"NNNNNNNNNNNNNNNNNNNNNNNNNNNNNNNNNNNN",
"NNNNNNNNNNNNNNNNNNNNNNNNNNNNNNNNNNNN",
"NNNNNNNNNNNNNNNNNNNNNNNNNNNNNNNNNNNN",
"NNNNNNNNNNNNNNNNNNNNNNNNNNNNNNNNNNNN",
"NNNNNNNNNNNNNNNNNNNNNNNNNNNNNNNNNNNN",
"NNNNNNNNNNNNNNNNNNNNNNNNNNNNNNNNNNNN"
};
