/* XPM */
static char *empty-0-LB-m[] = {
/* columns rows colors chars-per-pixel */
"36 36 41 1",
"  c black",
". c #014B00FF0068",
"X c #017501200076",
"o c #024801C300B9",
"O c #04190329014B",
"+ c #083006520296",
"@ c #0CFE0A07041A",
"# c #0D9A0A80044C",
"$ c #0F7F0BF604E5",
"% c #0FD80C3A0501",
"& c #17541202075E",
"* c #1D9416D50957",
"= c #1F1A180209D2",
"- c #1F4F182B09E3",
"; c #209D192C0A4C",
": c #2A02206D0D44",
"> c #2D1A22D10E3E",
", c #58C244841C07",
"< c #60CF4ABC1E92",
"1 c #65554E382000",
"2 c #67C2501820C4",
"3 c #682C506A20E5",
"4 c #6D7B54832293",
"5 c #7E39616F27DC",
"6 c #81AB641828F2",
"7 c #8B5D6B942C02",
"8 c #9412724D2EC2",
"9 c #BD7F92473BD7",
"0 c #C40D97573DE9",
"q c #C6C1996D3EC4",
"w c #CC4B9DB34083",
"e c #CCF99E3A40BA",
"r c #D56FA4C24366",
"t c #D849A6F6444D",
"y c #D923A79D4492",
"u c #D983A7E744B0",
"i c #DAADA8CE450E",
"p c #DC62AA1F4598",
"a c #E394AFAD47DE",
"s c #E594B138487F",
"d c #E79DB2CA4924",
/* pixels */
"dddddddddddddddddddddddddddddddddddd",
"dddddddddddddddddddddddddddddddddddd",
"dddddddddddddddddddddddddddddddddddd",
"dddddddddddddddddddddddddddddddddddd",
"dddddddddddddddddddddddddddddddddddd",
"dddddddddddddddddddddddddddddddddddd",
"dddddddddddddddddddddddddddddddddddd",
"dddddddddddddddddddddddddddddddddddd",
"dddddddddddddddddddddddddddddddddddd",
"dddddddddddddddddddddddddddddddddddd",
"dddddddddddddddddddddddddddddddddddd",
"dddddddddddddddddddddddddddddddddddd",
"dddddddddd411r736ed0538idddddddddddd",
"dddddddddd      % <  O@ qddddddddddd",
"dddddddddd   @   & +   :>ddddddddddd",
"dddddddddd  ;,i9  ;<p8 ; ddddddddddd",
"dddddddddd   wdd   edr = ddddddddddd",
"dddddddddd   rda   udu = ddddddddddd",
"dddddddddd   udd   udu = ddddddddddd",
"dddddddddd   uda   udu = ddddddddddd",
"dddddddddd   udd   udu = ddddddddddd",
"dddddddddd   udd   udu = ddddddddddd",
"dddddddddd   udd   udu @ ddddddddddd",
"dddddddddd411add411ada114ddddddddddd",
"dddddddddddddddddddddddddddddddddddd",
"dddddddddddddddddddddddddddddddddddd",
"dddddddddddddddddddddddddddddddddddd",
"dddddddddddddddddddddddddddddddddddd",
"dddddddddddddddddddddddddddddddddddd",
"dddddddddddddddddddddddddddddddddddd",
"dddddddddddddddddddddddddddddddddddd",
"dddddddddddddddddddddddddddddddddddd",
"dddddddddddddddddddddddddddddddddddd",
"dddddddddddddddddddddddddddddddddddd",
"dddddddddddddddddddddddddddddddddddd",
"dddddddddddddddddddddddddddddddddddd"
};
