/* XPM */
static char *empty-0-LB-229[] = {
/* columns rows colors chars-per-pixel */
"36 36 100 2",
"   c #000D000A0004",
".  c #01B90154008B",
"X  c #023301B300B2",
"o  c #02B9021A00DC",
"O  c #0313026000F9",
"+  c #037702AD0118",
"@  c #049C038F0175",
"#  c #0596045001C4",
"$  c #065504E40200",
"%  c #06EF055A0231",
"&  c #0B2108970384",
"*  c #184212BA07A9",
"=  c #216819CA0A8D",
"-  c #23BE1B970B49",
";  c #26521D940C1A",
":  c #281A1EF50CAA",
">  c #2C7922540E0B",
",  c #2D8923260E61",
"<  c #315B26190F96",
"1  c #3189263C0FA4",
"2  c #3326277C1027",
"3  c #39572C43121B",
"4  c #3F7430FB1409",
"5  c #3FA1311E1418",
"6  c #404B31A1144E",
"7  c #429233631506",
"8  c #436534061548",
"9  c #43EB346D1572",
"0  c #46E836BC1664",
"q  c #4B5E3A2E17CD",
"w  c #534340461A4B",
"e  c #549C41501AB8",
"r  c #559C42161B09",
"t  c #65554E382000",
"y  c #65AB4E7B201B",
"u  c #65D64E9C2028",
"i  c #69375138213A",
"p  c #6B1452A921D1",
"a  c #6BFC535B2219",
"s  c #6E29550922CA",
"d  c #73D059662492",
"f  c #74A65A0C24D6",
"g  c #78635CEF2604",
"h  c #78A25D1F2618",
"j  c #7D8360E327A2",
"k  c #813663BE28CE",
"l  c #81E364432904",
"z  c #86C468082A8F",
"x  c #889769702B22",
"c  c #892269DB2B4E",
"v  c #8A0F6A932B99",
"b  c #8CB26C9B2C6E",
"n  c #922A70D42E28",
"m  c #924A70ED2E32",
"M  c #95F473C12F5B",
"N  c #98287575300D",
"B  c #9A0576E430A3",
"V  c #9D8B799D31C0",
"C  c #A3D27E7533BB",
"Z  c #A4417ECB33DF",
"A  c #A5C97FFA345A",
"S  c #A69D809D349D",
"D  c #A88E821D353A",
"F  c #AAE083E735F6",
"G  c #AC5E850E366E",
"H  c #ACAC854B3687",
"J  c #AE20866936FC",
"K  c #AFAA879A3779",
"L  c #B00087DC3795",
"P  c #B25389A73850",
"I  c #B7F38DFF3A17",
"U  c #B9E08F7C3AB2",
"Y  c #BB4990923B24",
"T  c #BC7F91813B86",
"R  c #BD32920C3BBF",
"E  c #BDC7927F3BEE",
"W  c #C16195473D11",
"Q  c #C4B697D93E1E",
"!  c #C52D98343E44",
"~  c #C5D298B43E78",
"^  c #CCAD9DFF40A2",
"/  c #CD3A9E6C40CF",
"(  c #D157A199421B",
")  c #D329A2FF42AE",
"_  c #D54BA4A6435B",
"`  c #D601A5324394",
"'  c #D7BBA6874420",
"]  c #D909A7894489",
"[  c #D9EDA83944D1",
"{  c #DB29A92D4535",
"}  c #DC6DAA27459C",
"|  c #DD58AADC45E6",
" . c #DE84ABC44645",
".. c #E02CAD0B46CA",
"X. c #E402B0014800",
"o. c #E5ABB14A4887",
"O. c #E602B18D48A2",
"+. c #E6C5B22348E0",
"@. c #E738B27C4904",
"#. c #E79DB2CA4924",
/* pixels */
"#.#.#.#.#.#.#.#.#.#.#.#.#.#.#.#.#.#.#.#.#.#.#.#.#.#.#.#.#.#.#.#.#.#.#.#.",
"#.#.#.#.#.#.#.#.#.#.#.#.#.#.#.#.#.#.#.#.#.#.#.#.#.#.#.#.#.#.#.#.#.#.#.#.",
"#.#.#.#.#.#.#.#.#.#.#.#.#.#.#.#.#.#.#.#.#.#.#.#.#.#.#.#.#.#.#.#.#.#.#.#.",
"#.#.#.#.#.#.#.#.#.#.#.#.#.#.#.#.#.#.#.#.#.#.#.#.#.#.#.#.#.#.#.#.#.#.#.#.",
"#.#.#.#.#.#.#.#.#.#.#.#.#.#.#.#.#.#.#.#.#.#.#.#.#.#.#.#.#.#.#.#.#.#.#.#.",
"#.#.#.#.#.#.#.#.#.#.#.#.#.#.#.#.#.#.#.#.#.#.#.#.#.#.#.#.#.#.#.#.#.#.#.#.",
"#.#.#.#.#.#.#.#.#.#.#.#.#.#.#.#.#.#.#.#.#.#.#.#.#.#.#.#.#.#.#.#.#.#.#.#.",
"#.#.#.#.#.#.#.#.#.#.#.#.#.#.#.#.#.#.#.#.#.#.#.#.#.#.#.#.#.#.#.#.#.#.#.#.",
"#.#.#.#.#.#.#.#.#.#.#.#.#.#.#.#.#.#.#.#.#.#.#.#.#.#.#.#.#.#.#.#.#.#.#.#.",
"#.#.#.#.U j u j U #.#.#.#.#.#.I j t j I #.#.#.#.#.#.R b i c / #.#.#.#.#.",
"#.#.( * o o o o o 1 } #.#.( * o # o o o 1 } #.#.] 9 o o o o o g #.#.#.#.",
"#.#.@ o o o o o o # 2 #.X.o o o o o o o # 2 #.#.5 # o o o o o o C #.#.#.",
"#.F o o o E ' B o o o Q F o o o E ' B o o o Q U o o o G ' x o o o #.#.#.",
"#.a o o A #.#.#.3 o @ V a o o A #.#.#.3 o o B b o @ i #.#.#.- o o ~ #.#.",
"#.q o o ! #.#.#.3 o o J q o o ! #.#.#.3 o o J d o @ x #.#.#.w o o G #.#.",
"#...' ' #.#.#.z o o o ' X.' ( #.#.#.x o o o { A o o > #.#.{ o o # V #.#.",
"#.#.#.#.#.J % o o o b #.#.#.#.#.J % o o o b #...o o o * r o # o # B #.#.",
"#.#.#.( 4 o o @ o B #.#.#.#.' 3 o o o o N #.#.#.J o @ o o # o o o A #.#.",
"#.#.Q o o # o t ( #.#.#.#.Q o o o o t ' #.#.#.#.#.] z 5 1 g ; o o E #.#.",
"#.{ o o o 9 ( #.#.#.#.#.{ o o o 9 ( #.#.#.#.#.R o o q #.#.] o o o } #.#.",
"#.b o o d E Q E Q E Q } c o o d Q Q E Q E Q ..} o o o I / q o o 9 #.#.#.",
"#.- o o o o o o o o o M - o o o o o o o o o M #.q o o o o o o o ~ #.#.#.",
"#.o o o o o o o o o @ M o o o o o o o o o o M #.X., o o o o o J #.#.#.#.",
"#.i t t t t t t t t t R i t t u t t t t t t R #.#.#.J j d Z } #.#.#.#.#.",
"#.#.#.#.#.#.#.#.#.#.#.#.#.#.#.#.#.#.#.#.#.#.#.#.#.#.#.#.#.#.#.#.#.#.#.#.",
"#.#.#.#.#.#.#.#.#.#.#.#.#.#.#.#.#.#.#.#.#.#.#.#.#.#.#.#.#.#.#.#.#.#.#.#.",
"#.#.#.#.#.#.#.#.#.#.#.#.#.#.#.#.#.#.#.#.#.#.#.#.#.#.#.#.#.#.#.#.#.#.#.#.",
"#.#.#.#.#.#.#.#.#.#.#.#.#.#.#.#.#.#.#.#.#.#.#.#.#.#.#.#.#.#.#.#.#.#.#.#.",
"#.#.#.#.#.#.#.#.#.#.#.#.#.#.#.#.#.#.#.#.#.#.#.#.#.#.#.#.#.#.#.#.#.#.#.#.",
"#.#.#.#.#.#.#.#.#.#.#.#.#.#.#.#.#.#.#.#.#.#.#.#.#.#.#.#.#.#.#.#.#.#.#.#.",
"#.#.#.#.#.#.#.#.#.#.#.#.#.#.#.#.#.#.#.#.#.#.#.#.#.#.#.#.#.#.#.#.#.#.#.#.",
"#.#.#.#.#.#.#.#.#.#.#.#.#.#.#.#.#.#.#.#.#.#.#.#.#.#.#.#.#.#.#.#.#.#.#.#.",
"#.#.#.#.#.#.#.#.#.#.#.#.#.#.#.#.#.#.#.#.#.#.#.#.#.#.#.#.#.#.#.#.#.#.#.#.",
"#.#.#.#.#.#.#.#.#.#.#.#.#.#.#.#.#.#.#.#.#.#.#.#.#.#.#.#.#.#.#.#.#.#.#.#.",
"#.#.#.#.#.#.#.#.#.#.#.#.#.#.#.#.#.#.#.#.#.#.#.#.#.#.#.#.#.#.#.#.#.#.#.#.",
"#.#.#.#.#.#.#.#.#.#.#.#.#.#.#.#.#.#.#.#.#.#.#.#.#.#.#.#.#.#.#.#.#.#.#.#."
};
