/* XPM */
static char *empty-0-LB-299[] = {
/* columns rows colors chars-per-pixel */
"36 36 100 2",
"   c #0010000C0005",
".  c #01B90154008B",
"X  c #023401B300B2",
"o  c #02C2022100DF",
"O  c #0313026000F9",
"+  c #037402AA0117",
"@  c #04C103AB0180",
"#  c #058F044B01C2",
"$  c #065504E30200",
"%  c #06EF055A0231",
"&  c #0B2108970384",
"*  c #184212B907A9",
"=  c #216819CA0A8D",
"-  c #23BE1B970B49",
";  c #26521D940C1A",
":  c #281A1EF50CAA",
">  c #2C7922540E0B",
",  c #2D8923260E61",
"<  c #315B26190F96",
"1  c #3188263C0FA4",
"2  c #3326277C1027",
"3  c #39572C43121B",
"4  c #3F7430FB1409",
"5  c #3FA0311D1418",
"6  c #404B31A1144E",
"7  c #429233631506",
"8  c #436534061548",
"9  c #43EB346D1572",
"0  c #46E836BC1664",
"q  c #4B5E3A2E17CD",
"w  c #534440471A4C",
"e  c #549C41501AB8",
"r  c #559C42161B09",
"t  c #65554E382000",
"y  c #65AB4E7B201B",
"u  c #65D64E9C2028",
"i  c #69375138213A",
"p  c #6B1452A921D1",
"a  c #6BFC535B221A",
"s  c #6E29550922CA",
"d  c #73CF59662492",
"f  c #74A65A0C24D6",
"g  c #78635CEF2604",
"h  c #78A25D1F2618",
"j  c #7D8360E327A2",
"k  c #813663BE28CE",
"l  c #81E364432904",
"z  c #86CC680E2A91",
"x  c #889769702B22",
"c  c #892269DB2B4E",
"v  c #8A0F6A932B99",
"b  c #8CBC6CA32C71",
"n  c #922B70D52E28",
"m  c #924A70ED2E32",
"M  c #95F673C22F5B",
"N  c #98297576300D",
"B  c #9A1876F330A9",
"V  c #9D9279A231C2",
"C  c #A3D27E7533BB",
"Z  c #A4417ECB33DF",
"A  c #A5C97FFA345A",
"S  c #A69D809D349D",
"D  c #A88E821D353A",
"F  c #AAE083E735F6",
"G  c #AC5E850E366E",
"H  c #ACAC854B3687",
"J  c #AE20866936FC",
"K  c #AFA987993779",
"L  c #B00187DD3795",
"P  c #B25389A73850",
"I  c #B7F38DFF3A17",
"U  c #B9E08F7C3AB2",
"Y  c #BB4990923B24",
"T  c #BC7F91813B86",
"R  c #BD32920C3BBF",
"E  c #BDC892803BEE",
"W  c #C15E95443D10",
"Q  c #C4B597D83E1E",
"!  c #C52D98353E44",
"~  c #C5D298B43E78",
"^  c #CCAD9DFF40A2",
"/  c #CD3A9E6C40CF",
"(  c #D157A199421B",
")  c #D328A2FF42AE",
"_  c #D54BA4A6435B",
"`  c #D601A5324394",
"'  c #D7A9A67A441A",
"]  c #D909A7894489",
"[  c #D9EEA83A44D2",
"{  c #DB29A92D4535",
"}  c #DC78AA2F459F",
"|  c #DD58AADC45E6",
" . c #DE84ABC44645",
".. c #E05DAD3146DA",
"X. c #E402B0014800",
"o. c #E5ABB14A4887",
"O. c #E602B18D48A2",
"+. c #E6C5B22348E0",
"@. c #E738B27C4904",
"#. c #E79DB2CA4924",
/* pixels */
"#.#.#.#.#.#.#.#.#.#.#.#.#.#.#.#.#.#.#.#.#.#.#.#.#.#.#.#.#.#.#.#.#.#.#.#.",
"#.#.#.#.#.#.#.#.#.#.#.#.#.#.#.#.#.#.#.#.#.#.#.#.#.#.#.#.#.#.#.#.#.#.#.#.",
"#.#.#.#.#.#.#.#.#.#.#.#.#.#.#.#.#.#.#.#.#.#.#.#.#.#.#.#.#.#.#.#.#.#.#.#.",
"#.#.#.#.#.#.#.#.#.#.#.#.#.#.#.#.#.#.#.#.#.#.#.#.#.#.#.#.#.#.#.#.#.#.#.#.",
"#.#.#.#.#.#.#.#.#.#.#.#.#.#.#.#.#.#.#.#.#.#.#.#.#.#.#.#.#.#.#.#.#.#.#.#.",
"#.#.#.#.#.#.#.#.#.#.#.#.#.#.#.#.#.#.#.#.#.#.#.#.#.#.#.#.#.#.#.#.#.#.#.#.",
"#.#.#.#.#.#.#.#.#.#.#.#.#.#.#.#.#.#.#.#.#.#.#.#.#.#.#.#.#.#.#.#.#.#.#.#.",
"#.#.#.#.#.#.#.#.#.#.#.#.#.#.#.#.#.#.#.#.#.#.#.#.#.#.#.#.#.#.#.#.#.#.#.#.",
"#.#.#.#.#.#.#.#.#.#.#.#.#.#.#.#.#.#.#.#.#.#.#.#.#.#.#.#.#.#.#.#.#.#.#.#.",
"#.#.#.#.U j u j U #.#.#.#.#.#.T b p z ^ #.#.#.#.#.#.T b p v ^ #.#.#.#.#.",
"#.#.( * o o o @ o 1 } #.#.] 6 o @ o o o h #.#.#.] 9 o o o o o d #.#.#.#.",
"#.#.@ o o o o o o # 2 #.#.6 @ o o o o o o A #.#.6 # o o o o o o C #.#.#.",
"#.F o o o E ` B o o o Q U o o o F ` v o o o #.U o o o K ` v o o o #.#.#.",
"#.a o o A #.#.#.3 o @ V v o @ p #.#.#.- o o ~ b o o p #.#.#.- o o ^ #.#.",
"#.w o o ! #.#.#.3 o o K d o @ z #.#.#.w o o G d o @ z #.#.#.w o o F #.#.",
"#. .( ` #.#.#.z o o o ` F o o > #.#.} o o @ V A o o > #.#.{ o o @ V #.#.",
"#.#.#.#.#.K & o o o n #.} o o o - w o o o o B } o o o * r o # o # B #.#.",
"#.#.#.( 3 o o @ o B #.#.#.K o o o o o o o o Z #.L o o o o # o o o A #.#.",
"#.#.Q o @ # o t ( #.#.#.#.#.] z 6 1 g : o o Q #.#.] z 6 1 g - o o E #.#.",
"#.{ o o o 0 ( #.#.#.#.#.U o o q #.#.{ o o o { T o o q #.#.] o o o } #.#.",
"#.b o o d E Q E Q E Q } } o o o I ^ q o o 6 #.} o o o I ^ q o o 0 #.#.#.",
"#.- o o o o o o o o o M #.w o o o o o o o ^ #.#.q o o o o o o o ~ #.#.#.",
"#.o o o o o o o o o @ M #. .> o o o o o L #.#.#.X., o o o o o K #.#.#.#.",
"#.p t t t t t t t t t T #.#.#.K j d C } #.#.#.#.#.#.K j d C } #.#.#.#.#.",
"#.#.#.#.#.#.#.#.#.#.#.#.#.#.#.#.#.#.#.#.#.#.#.#.#.#.#.#.#.#.#.#.#.#.#.#.",
"#.#.#.#.#.#.#.#.#.#.#.#.#.#.#.#.#.#.#.#.#.#.#.#.#.#.#.#.#.#.#.#.#.#.#.#.",
"#.#.#.#.#.#.#.#.#.#.#.#.#.#.#.#.#.#.#.#.#.#.#.#.#.#.#.#.#.#.#.#.#.#.#.#.",
"#.#.#.#.#.#.#.#.#.#.#.#.#.#.#.#.#.#.#.#.#.#.#.#.#.#.#.#.#.#.#.#.#.#.#.#.",
"#.#.#.#.#.#.#.#.#.#.#.#.#.#.#.#.#.#.#.#.#.#.#.#.#.#.#.#.#.#.#.#.#.#.#.#.",
"#.#.#.#.#.#.#.#.#.#.#.#.#.#.#.#.#.#.#.#.#.#.#.#.#.#.#.#.#.#.#.#.#.#.#.#.",
"#.#.#.#.#.#.#.#.#.#.#.#.#.#.#.#.#.#.#.#.#.#.#.#.#.#.#.#.#.#.#.#.#.#.#.#.",
"#.#.#.#.#.#.#.#.#.#.#.#.#.#.#.#.#.#.#.#.#.#.#.#.#.#.#.#.#.#.#.#.#.#.#.#.",
"#.#.#.#.#.#.#.#.#.#.#.#.#.#.#.#.#.#.#.#.#.#.#.#.#.#.#.#.#.#.#.#.#.#.#.#.",
"#.#.#.#.#.#.#.#.#.#.#.#.#.#.#.#.#.#.#.#.#.#.#.#.#.#.#.#.#.#.#.#.#.#.#.#.",
"#.#.#.#.#.#.#.#.#.#.#.#.#.#.#.#.#.#.#.#.#.#.#.#.#.#.#.#.#.#.#.#.#.#.#.#.",
"#.#.#.#.#.#.#.#.#.#.#.#.#.#.#.#.#.#.#.#.#.#.#.#.#.#.#.#.#.#.#.#.#.#.#.#."
};
