/* XPM */
static char *empty-0-LB-17[] = {
/* columns rows colors chars-per-pixel */
"36 36 49 1",
"  c #000400030001",
". c #013800F10063",
"X c #02E3023A00E9",
"o c #041203240149",
"O c #06FB05640234",
"+ c #07CB06040276",
"@ c #0C51098203E4",
"# c #0F7F0BF604E5",
"$ c #0F9C0C0C04EE",
"% c #10FC0D1C055D",
"& c #12710E3C05D3",
"* c #1D9316D50957",
"= c #1F30181309D9",
"- c #24F11C840BAA",
"; c #268C1DC10C2C",
": c #2B22214C0D9F",
"> c #2C2F221B0DF4",
", c #2CB122800E1D",
"< c #2E3E23B20E9A",
"1 c #2F9E24C20F09",
"2 c #314626090F8F",
"3 c #3B1F2DA312AB",
"4 c #5CD247A71D50",
"5 c #65554E382000",
"6 c #6A9F524E21AC",
"7 c #6DC354BA22A9",
"8 c #78045CA425E6",
"9 c #7E8B61AE27F6",
"0 c #881D69122AFC",
"q c #905E6F712D97",
"w c #AE10865D36F7",
"e c #AE8186B4371B",
"r c #B14888D937FC",
"t c #B3A38AAA38BA",
"y c #B6A78CFF39AE",
"u c #B8CB8EA63A5B",
"i c #BB04905D3B0F",
"p c #BFE994243C9B",
"a c #C166954A3D13",
"s c #CCC29E0F40A9",
"d c #CF5CA011417C",
"f c #CFDAA07241A3",
"g c #D39AA35842D2",
"h c #D78EA6654412",
"j c #DA06A84D44D9",
"k c #DFDDACCF46B2",
"l c #E119ADC34715",
"z c #E747B2874909",
"x c #E79DB2CA4924",
/* pixels */
"xxxxxxxxxxxxxxxxxxxxxxxxxxxxxxxxxxxx",
"xxxxxxxxxxxxxxxxxxxxxxxxxxxxxxxxxxxx",
"xxxxxxxxxxxxxxxxxxxxxxxxxxxxxxxxxxxx",
"xxxxxxxxxxxxxxxxxxxxxxxxxxxxxxxxxxxx",
"xxxxxxxxxxxxxxxxxxxxxxxxxxxxxxxxxxxx",
"xxxxxxxxxxxxxxxxxxxxxxxxxxxxxxxxxxxx",
"xxxxxxxxxxxxxxxxxxxxxxxxxxxxxxxxxxxx",
"xxxxxxxxxxxxxxxxxxxxxxxxxxxxxxxxxxxx",
"xxxxxxxxxxxxxxxxxxxxxxxxxxxxxxxxxxxx",
"xxxxxxxxxxxxu57xj5555555556xxxxxxxxx",
"xxxxxxxxxxxx=$ xe        @ xxxxxxxxx",
"xxxxxxxxxks8 * xy        - xxxxxxxxx",
"xxxxxxxxx    * xxaaaaaa1  exxxxxxxxx",
"xxxxxxxxx    * xxxxxxx0 $7xxxxxxxxxx",
"xxxxxxxxxrrr * xxxxxxh ; lxxxxxxxxxx",
"xxxxxxxxxxxx * xxxxxx3  rxxxxxxxxxxx",
"xxxxxxxxxxxx * xxxxxa >>xxxxxxxxxxxx",
"xxxxxxxxxxxx * xxxxx>  pxxxxxxxxxxxx",
"xxxxxxxxxxxx * xxxxs 1$xxxxxxxxxxxxx",
"xxxxxxxxxxxx * xxxx4 $qxxxxxxxxxxxxx",
"xxxxxxxxxxxx * xxxxO  gxxxxxxxxxxxxx",
"xxxxxxxxxxxx * xxxg >+xxxxxxxxxxxxxx",
"xxxxxxxxxxxx # xxx9 24xxxxxxxxxxxxxx",
"xxxxxxxxxxxx557xxxu55txxxxxxxxxxxxxx",
"xxxxxxxxxxxxxxxxxxxxxxxxxxxxxxxxxxxx",
"xxxxxxxxxxxxxxxxxxxxxxxxxxxxxxxxxxxx",
"xxxxxxxxxxxxxxxxxxxxxxxxxxxxxxxxxxxx",
"xxxxxxxxxxxxxxxxxxxxxxxxxxxxxxxxxxxx",
"xxxxxxxxxxxxxxxxxxxxxxxxxxxxxxxxxxxx",
"xxxxxxxxxxxxxxxxxxxxxxxxxxxxxxxxxxxx",
"xxxxxxxxxxxxxxxxxxxxxxxxxxxxxxxxxxxx",
"xxxxxxxxxxxxxxxxxxxxxxxxxxxxxxxxxxxx",
"xxxxxxxxxxxxxxxxxxxxxxxxxxxxxxxxxxxx",
"xxxxxxxxxxxxxxxxxxxxxxxxxxxxxxxxxxxx",
"xxxxxxxxxxxxxxxxxxxxxxxxxxxxxxxxxxxx",
"xxxxxxxxxxxxxxxxxxxxxxxxxxxxxxxxxxxx"
};
