/* XPM */
static char *empty-0-LB-163[] = {
/* columns rows colors chars-per-pixel */
"36 36 124 2",
"   c #000400030001",
".  c #011900D90059",
"X  c #019401380080",
"o  c #024401C000B7",
"O  c #02F9024B00F0",
"+  c #04E103C4018A",
"@  c #050703E10196",
"#  c #058B044801C0",
"$  c #063804CD01F7",
"%  c #06B3052C021D",
"&  c #078405CD025F",
"*  c #08CC06CA02C8",
"=  c #0AA00834035B",
"-  c #0B5808C10395",
";  c #0BB8090B03B3",
":  c #0C2E096703D9",
">  c #0DCA0AA5045B",
",  c #0F7F0BF604E5",
"<  c #13EF0F63064B",
"1  c #147A0FCE0678",
"2  c #14FE103406A1",
"3  c #15E310E506E9",
"4  c #1762120D0762",
"5  c #183312AE07A4",
"6  c #18C6131F07D2",
"7  c #198B13B70811",
"8  c #1BB4156208C0",
"9  c #1CBA162C0912",
"0  c #1D9316D50957",
"q  c #1F30181309D9",
"w  c #1FA6186E09FF",
"e  c #1FE3189D0A12",
"r  c #21FE1A3D0ABC",
"t  c #24131BD90B65",
"y  c #24521C090B78",
"u  c #277B1E7A0C78",
"i  c #29C820410D32",
"p  c #2F8F24B60F04",
"a  c #3065255C0F49",
"s  c #31C4266B0FB7",
"d  c #34D628C910AF",
"f  c #435E34011546",
"g  c #43FB34791578",
"h  c #476B3721168E",
"j  c #4B0F39F117B4",
"k  c #4B873A4D17DA",
"l  c #4E363C5F18B3",
"z  c #592A44D41C28",
"x  c #5D2F47EE1D6D",
"c  c #5D9B48421D8F",
"v  c #5E5848D41DCB",
"b  c #62344BCE1F03",
"n  c #628C4C131F1F",
"m  c #65554E382000",
"M  c #65AB4E7B201B",
"N  c #686B509B20F9",
"B  c #6C0F536A2220",
"V  c #6D7C54832293",
"C  c #6EA3556822F0",
"Z  c #701456842365",
"A  c #712B575C23BD",
"S  c #741B59A024AA",
"D  c #78045CA425E6",
"F  c #7B015EF426D7",
"G  c #7BE05FA0271E",
"H  c #801462DE2872",
"J  c #80ED638528B7",
"K  c #82D264FC2950",
"L  c #840B65ED29B3",
"P  c #859C67232A31",
"I  c #893269E82B53",
"U  c #8AAC6B0B2BCA",
"Y  c #904B6F622D91",
"T  c #908F6F972DA6",
"R  c #92DA715C2E60",
"E  c #936B71CC2E8E",
"W  c #943472672ECD",
"Q  c #94B072C62EF4",
"!  c #95B873932F48",
"~  c #997376743075",
"^  c #9CE5791D318C",
"/  c #9FC77B563275",
"(  c #A03E7BB2329A",
")  c #A3647E203399",
"_  c #A3AA7E5633AF",
"`  c #A4A67F1933FF",
"'  c #A98982DE3589",
"]  c #AE9886C63723",
"[  c #AF9D878F3775",
"{  c #B13D88D037F8",
"}  c #B28E89D53862",
"|  c #B9248EEB3A77",
" . c #B9F28F893AB8",
".. c #BAF490513B09",
"X. c #BD89924E3BDB",
"o. c #BE7D930A3C27",
"O. c #C50F981D3E3B",
"+. c #C95D9B703F96",
"@. c #C9C89BC33FB8",
"#. c #CC0B9D82406F",
"$. c #CC7F9DDC4094",
"%. c #CDA99EC140F2",
"&. c #D19BA1CD4231",
"*. c #D22CA23D425F",
"=. c #D367A33042C2",
"-. c #D419A3BA42FA",
";. c #D5FCA52F4393",
":. c #D8A9A73F446B",
">. c #DA2EA86C44E6",
",. c #DAA4A8C7450B",
"<. c #DB6FA963454B",
"1. c #DD8BAB0445F6",
"2. c #DEFFAC23466C",
"3. c #DFDDACCF46B2",
"4. c #E07AAD4846E3",
"5. c #E19AAE26473E",
"6. c #E1D5AE534751",
"7. c #E2B9AF034798",
"8. c #E2FFAF3947AF",
"9. c #E447B0374816",
"0. c #E602B18C48A2",
"q. c #E6A0B20648D4",
"w. c #E74BB28B490A",
"e. c #E79DB2CA4924",
/* pixels */
"e.e.e.e.e.e.e.e.e.e.e.e.e.e.e.e.e.e.e.e.e.e.e.e.e.e.e.e.e.e.e.e.e.e.e.e.",
"e.e.e.e.e.e.e.e.e.e.e.e.e.e.e.e.e.e.e.e.e.e.e.e.e.e.e.e.e.e.e.e.e.e.e.e.",
"e.e.e.e.e.e.e.e.e.e.e.e.e.e.e.e.e.e.e.e.e.e.e.e.e.e.e.e.e.e.e.e.e.e.e.e.",
"e.e.e.e.e.e.e.e.e.e.e.e.e.e.e.e.e.e.e.e.e.e.e.e.e.e.e.e.e.e.e.e.e.e.e.e.",
"e.e.e.e.e.e.e.e.e.e.e.e.e.e.e.e.e.e.e.e.e.e.e.e.e.e.e.e.e.e.e.e.e.e.e.e.",
"e.e.e.e.e.e.e.e.e.e.e.e.e.e.e.e.e.e.e.e.e.e.e.e.e.e.e.e.e.e.e.e.e.e.e.e.",
"e.e.e.e.e.e.e.e.e.e.e.e.e.e.e.e.e.e.e.e.e.e.e.e.e.e.e.e.e.e.e.e.e.e.e.e.",
"e.e.e.e.e.e.e.e.e.e.e.e.e.e.e.e.e.e.e.e.e.e.e.e.e.e.e.e.e.e.e.e.e.e.e.e.",
"e.e.e.e.e.e.e.e.e.e.e.e.e.e.e.e.e.e.e.e.e.e.e.e.e.e.e.e.e.e.e.e.e.e.e.e.",
"e.e.e.e.e.e.| m V e.e.e.e.e.e.X.J A ^ 3.e.e.e.e.e.o.! N T | e.e.e.e.e.e.",
"e.e.e.e.e.e.0 <   e.e.e.e.>.y     & *   | e.e.e.j       *   j e.e.e.e.e.",
"e.e.e.3.$.D   0   e.e.e.e.1   4       0   >.e.S   =           F e.e.e.e.",
"e.e.e.        0   e.e.e.P   y   o.&.>     ` e.      T >.P   8   e.e.e.e.",
"e.e.e.        0   e.e.e.8     ^ e.e.~     c e.  4   6.e.6.      >.e.e.e.",
"e.e.e.{ { {   0   e.e.e.  @   | F B ( &.e.e.e.      e.e.-.  8   6.e.e.e.",
"e.e.e.e.e.e.  0   e.e.e.  7       @ &   R e.e.e.e.e.g 6       A e.e.e.e.",
"e.e.e.e.e.e.  0   e.e.e.    &         >   o.e.e.e.e.          ! e.e.e.e.",
"e.e.e.e.e.e.  0   e.e.e.      ( e.e.c   a f e.e.e.e.F b a   &   R e.e.e.",
"e.e.e.e.e.e.  0   e.e.e.  6   6.e.e.+.  r   e.c c N e.e.e.)   u * e.e.e.",
"e.e.e.e.e.e.  0   e.e.e.  *   >.e.e.{   r = e.  :   6.e.e.O.  r   e.e.e.",
"e.e.e.e.e.e.  0   e.e.e.l   e g $.@.4   u z e.      U -.$.d   a f e.e.e.",
"e.e.e.e.e.e.  0   e.e.e.-.    1       4   &.e.b   *         :   ..e.e.e.",
"e.e.e.e.e.e.  >   e.e.e.e.]       &     { e.e.e.l       &     ! e.e.e.e.",
"e.e.e.e.e.e.N N V e.e.e.e.e.2.` S J ] 6.e.e.e.e.e.$.U V J ' 2.e.e.e.e.e.",
"e.e.e.e.e.e.e.e.e.e.e.e.e.e.e.e.e.e.e.e.e.e.e.e.e.e.e.e.e.e.e.e.e.e.e.e.",
"e.e.e.e.e.e.e.e.e.e.e.e.e.e.e.e.e.e.e.e.e.e.e.e.e.e.e.e.e.e.e.e.e.e.e.e.",
"e.e.e.e.e.e.e.e.e.e.e.e.e.e.e.e.e.e.e.e.e.e.e.e.e.e.e.e.e.e.e.e.e.e.e.e.",
"e.e.e.e.e.e.e.e.e.e.e.e.e.e.e.e.e.e.e.e.e.e.e.e.e.e.e.e.e.e.e.e.e.e.e.e.",
"e.e.e.e.e.e.e.e.e.e.e.e.e.e.e.e.e.e.e.e.e.e.e.e.e.e.e.e.e.e.e.e.e.e.e.e.",
"e.e.e.e.e.e.e.e.e.e.e.e.e.e.e.e.e.e.e.e.e.e.e.e.e.e.e.e.e.e.e.e.e.e.e.e.",
"e.e.e.e.e.e.e.e.e.e.e.e.e.e.e.e.e.e.e.e.e.e.e.e.e.e.e.e.e.e.e.e.e.e.e.e.",
"e.e.e.e.e.e.e.e.e.e.e.e.e.e.e.e.e.e.e.e.e.e.e.e.e.e.e.e.e.e.e.e.e.e.e.e.",
"e.e.e.e.e.e.e.e.e.e.e.e.e.e.e.e.e.e.e.e.e.e.e.e.e.e.e.e.e.e.e.e.e.e.e.e.",
"e.e.e.e.e.e.e.e.e.e.e.e.e.e.e.e.e.e.e.e.e.e.e.e.e.e.e.e.e.e.e.e.e.e.e.e.",
"e.e.e.e.e.e.e.e.e.e.e.e.e.e.e.e.e.e.e.e.e.e.e.e.e.e.e.e.e.e.e.e.e.e.e.e.",
"e.e.e.e.e.e.e.e.e.e.e.e.e.e.e.e.e.e.e.e.e.e.e.e.e.e.e.e.e.e.e.e.e.e.e.e."
};
