/* XPM */
static char *empty-0-LB-48[] = {
/* columns rows colors chars-per-pixel */
"36 36 89 1",
"  c #000700060002",
". c #010100C70051",
"X c #01B40150008A",
"o c #024F01C800BB",
"O c #039302C20121",
"+ c #04790374016A",
"@ c #05C0047001D1",
"# c #066F04F70208",
"$ c #076105B20255",
"% c #08190640028F",
"& c #09E607A40320",
"* c #0AAF083F0360",
"= c #0C39096F03DC",
"- c #0DCC0AA6045B",
"; c #0F640BE104DC",
": c #14860FD8067B",
"> c #1510104206A7",
", c #1774121A0768",
"< c #1ECE17C809BA",
"1 c #1F4A182809E1",
"2 c #205118F20A34",
"3 c #22D51AE30B00",
"4 c #23F91BC40B5C",
"5 c #26E31E050C48",
"6 c #29641FF40D12",
"7 c #2A1E20830D4D",
"8 c #2B60217C0DB2",
"9 c #2DD1235E0E78",
"0 c #2F9A24BF0F08",
"q c #327D26FA0FF2",
"w c #34E528D510B4",
"e c #361829C21115",
"r c #3B152D9B12A8",
"t c #3E98305113C4",
"y c #40C431FE1474",
"u c #412E32511495",
"i c #4779372C1692",
"p c #49E5390A1755",
"a c #512E3EAB19A3",
"s c #65514E351FFF",
"d c #658A4E622011",
"f c #6C2C53802229",
"g c #6D7C54832293",
"h c #754C5A8C250A",
"j c #786E5CF72608",
"k c #78815D05260E",
"l c #7B0C5EFC26DB",
"z c #7BC35F892715",
"x c #7C315FDE2738",
"c c #7F096210281E",
"v c #7FBD629B2856",
"b c #832E6543296D",
"n c #852866CA2A0D",
"m c #8D296CF72C94",
"M c #91B370782E03",
"N c #925470F42E35",
"B c #94E272ED2F04",
"V c #981675663007",
"C c #9C2D788F3152",
"Z c #9DC679CA31D3",
"A c #A0677BD232A7",
"S c #A0F57C3F32D4",
"D c #A3047DD6337A",
"F c #A61680353472",
"G c #A8B282393546",
"H c #B23E8997384A",
"J c #B8168E1A3A22",
"K c #BB5090973B27",
"L c #C42A976E3DF2",
"P c #C74C99D83EEF",
"I c #CADD9C994010",
"U c #CC2E9D9D407A",
"Y c #CD299E5E40C9",
"T c #CFC9A065419E",
"R c #CFF2A08541AB",
"E c #D183A1BA4229",
"W c #D25FA264426F",
"Q c #D686A59943BE",
"! c #D7B8A6864420",
"~ c #D923A79D4492",
"^ c #DBA3A98B455C",
"/ c #DC04A9D5457A",
"( c #DE87ABC64645",
") c #DF06AC29466E",
"_ c #E12EADD2471C",
"` c #E394AFAD47DE",
"' c #E4C0B094483C",
"] c #E568B1154871",
"[ c #E79DB2CA4924",
/* pixels */
"[[[[[[[[[[[[[[[[[[[[[[[[[[[[[[[[[[[[",
"[[[[[[[[[[[[[[[[[[[[[[[[[[[[[[[[[[[[",
"[[[[[[[[[[[[[[[[[[[[[[[[[[[[[[[[[[[[",
"[[[[[[[[[[[[[[[[[[[[[[[[[[[[[[[[[[[[",
"[[[[[[[[[[[[[[[[[[[[[[[[[[[[[[[[[[[[",
"[[[[[[[[[[[[[[[[[[[[[[[[[[[[[[[[[[[[",
"[[[[[[[[[[[[[[[[[[[[[[[[[[[[[[[[[[[[",
"[[[[[[[[[[[[[[[[[[[[[[[[[[[[[[[[[[[[",
"[[[[[[[[[[[[[[[[[[[[[[[[[[[[[[[[[[[[",
"[[[[[[[[[[[[Kss`[[[[/FxlF^[[[[[[[[[[",
"[[[[[[[[[[[^   ~[[[l   $  m[[[[[[[[[",
"[[[[[[[[[[[0   ~[[V  :   = H[[[[[[[[",
"[[[[[[[[[[c    ~[[> =dWWu 9r[[[[[[[[",
"[[[[[[[[[L 4   ~[[   W[[I 1 [[[[[[[[",
"[[[[[[[[[=$    ~[[   S[[b 8+[[[[[[[[",
"[[[[[[[[a  l   ~[[n : $$ = Z[[[[[[[[",
"[[[[[[[A 54`   ~[[[t      f[[[[[[[[[",
"[[[[[[! : I[   ~[[i 4 pw   B[[[[[[[[",
"[[[[[[w  444   46) % P[[B 8$[[[[[[[[",
"[[[[[[8          ^ > `[[P < [[[[[[[[",
"[[[[[[Zsssss   ss`   lWUq 9t[[[[[[[[",
"[[[[[[[[[[[[   ~[[h  %   = J[[[[[[[[",
"[[[[[[[[[[[[   ~[[[s   $  B[[[[[[[[[",
"[[[[[[[[[[[[gss[[[[[~SlbG)[[[[[[[[[[",
"[[[[[[[[[[[[[[[[[[[[[[[[[[[[[[[[[[[[",
"[[[[[[[[[[[[[[[[[[[[[[[[[[[[[[[[[[[[",
"[[[[[[[[[[[[[[[[[[[[[[[[[[[[[[[[[[[[",
"[[[[[[[[[[[[[[[[[[[[[[[[[[[[[[[[[[[[",
"[[[[[[[[[[[[[[[[[[[[[[[[[[[[[[[[[[[[",
"[[[[[[[[[[[[[[[[[[[[[[[[[[[[[[[[[[[[",
"[[[[[[[[[[[[[[[[[[[[[[[[[[[[[[[[[[[[",
"[[[[[[[[[[[[[[[[[[[[[[[[[[[[[[[[[[[[",
"[[[[[[[[[[[[[[[[[[[[[[[[[[[[[[[[[[[[",
"[[[[[[[[[[[[[[[[[[[[[[[[[[[[[[[[[[[[",
"[[[[[[[[[[[[[[[[[[[[[[[[[[[[[[[[[[[[",
"[[[[[[[[[[[[[[[[[[[[[[[[[[[[[[[[[[[["
};
