/* XPM */
static char *empty-0-LB-187[] = {
/* columns rows colors chars-per-pixel */
"36 36 105 2",
"   c #000C00090004",
".  c #010A00CD0054",
"X  c #01D101670093",
"o  c #024F01C800BA",
"O  c #02C1022000DF",
"+  c #0324026C00FE",
"@  c #03A002CC0125",
"#  c #03F703100141",
"$  c #047E0377016B",
"%  c #052003F6019F",
"&  c #059E045601C6",
"*  c #065304E101FF",
"=  c #06C5053A0223",
"-  c #0AC508500367",
";  c #0BE6093003C2",
":  c #10E60D0C0556",
">  c #11C60DB8059D",
",  c #12260E0205BB",
"<  c #13730F040624",
"1  c #18A0130207C7",
"2  c #1BEE158F08D2",
"3  c #1E771784099F",
"4  c #201E18CB0A24",
"5  c #20E719660A64",
"6  c #215F19C20A8A",
"7  c #26981DCB0C30",
"8  c #27281E3A0C5D",
"9  c #2E9623F60EB6",
"0  c #2F7924A50EFE",
"q  c #2FBF24DC0F14",
"w  c #314E260F0F92",
"e  c #31D026740FBB",
"r  c #32C0272D1007",
"t  c #38FC2BFD11FF",
"y  c #3B1D2DA212AB",
"u  c #4C593AF0181C",
"i  c #526F3FA21A08",
"p  c #533140381A45",
"a  c #58D344911C0D",
"s  c #591E44CB1C24",
"d  c #5CD047A51D4F",
"f  c #60534A5B1E6B",
"g  c #654D4E321FFE",
"h  c #676D4FD620A9",
"j  c #6858508C20F3",
"k  c #6A9F524E21AC",
"l  c #6AB3525E21B2",
"z  c #6CB253E72253",
"x  c #6DEF54DD22B7",
"c  c #7FE062B52861",
"v  c #83BD65B1299A",
"b  c #89BA6A502B7E",
"n  c #8D246CF32C92",
"m  c #8F016E632D29",
"M  c #8F286E812D35",
"N  c #926D71082E3D",
"B  c #957E73662F35",
"V  c #95F673C22F5B",
"C  c #97C575282FED",
"Z  c #9835757F3011",
"A  c #9AE4779030EA",
"S  c #A3597E183395",
"D  c #A778814634E3",
"F  c #AB24841C360B",
"G  c #ACDF85723697",
"H  c #AD98860136D2",
"J  c #AF0A871E3746",
"K  c #B054881C37AF",
"L  c #B14588D737FB",
"P  c #B1CF89413826",
"I  c #B4888B5C3903",
"U  c #B5088BBE392B",
"Y  c #B9328EF53A7C",
"T  c #B9DD8F7A3AB2",
"R  c #BA288FB33AC9",
"E  c #BD32920B3BBF",
"W  c #BDC892803BEE",
"Q  c #C166954A3D13",
"!  c #C5D698B73E79",
"~  c #C73699C73EE8",
"^  c #C8249A7F3F34",
"/  c #C9859B8F3FA3",
"(  c #CBAD9D394051",
")  c #CDEA9EF34106",
"_  c #CEDB9FAE4153",
"`  c #D04CA0CA41C7",
"'  c #D1A2A1D24233",
"]  c #D4D9A44D4337",
"[  c #D5F9A52C4392",
"{  c #D7B4A682441E",
"}  c #D87CA71C445D",
"|  c #D8FEA7814486",
" . c #D99DA7FB44B8",
".. c #DBCAA9A94568",
"X. c #DE71ABB5463F",
"o. c #E030AD0E46CC",
"O. c #E1C9AE4A474D",
"+. c #E204AE784760",
"@. c #E2E6AF2647A7",
"#. c #E477B05C4825",
"$. c #E56AB1184872",
"%. c #E618B19E48A9",
"&. c #E6BAB21B48DC",
"*. c #E72AB2714900",
"=. c #E79DB2CA4924",
/* pixels */
"=.=.=.=.=.=.=.=.=.=.=.=.=.=.=.=.=.=.=.=.=.=.=.=.=.=.=.=.=.=.=.=.=.=.=.=.",
"=.=.=.=.=.=.=.=.=.=.=.=.=.=.=.=.=.=.=.=.=.=.=.=.=.=.=.=.=.=.=.=.=.=.=.=.",
"=.=.=.=.=.=.=.=.=.=.=.=.=.=.=.=.=.=.=.=.=.=.=.=.=.=.=.=.=.=.=.=.=.=.=.=.",
"=.=.=.=.=.=.=.=.=.=.=.=.=.=.=.=.=.=.=.=.=.=.=.=.=.=.=.=.=.=.=.=.=.=.=.=.",
"=.=.=.=.=.=.=.=.=.=.=.=.=.=.=.=.=.=.=.=.=.=.=.=.=.=.=.=.=.=.=.=.=.=.=.=.",
"=.=.=.=.=.=.=.=.=.=.=.=.=.=.=.=.=.=.=.=.=.=.=.=.=.=.=.=.=.=.=.=.=.=.=.=.",
"=.=.=.=.=.=.=.=.=.=.=.=.=.=.=.=.=.=.=.=.=.=.=.=.=.=.=.=.=.=.=.=.=.=.=.=.",
"=.=.=.=.=.=.=.=.=.=.=.=.=.=.=.=.=.=.=.=.=.=.=.=.=.=.=.=.=.=.=.=.=.=.=.=.",
"=.=.=.=.=.=.=.=.=.=.=.=.=.=.=.=.=.=.=.=.=.=.=.=.=.=.=.=.=.=.=.=.=.=.=.=.",
"=.=.=.=.=.=.=.k g E =.=.=.=.=.Y N g N Y =.=.n g g g g g g g g g Y =.=.=.",
"=.=.=.=.=.=.^   * V =.=.=.} r   $   *   e } q                 * n =.=.=.",
"=.=.=.=.{ Y 5 $ * V =.=.=.q $             9 e                   n =.=.=.",
"=.=.=.z     $   * V =.=.~       P  .P       ~ Q Q Q Q W Q   * 8 =.=.=.=.",
"=.=.=.k         * V =.=.Z $   a =.=.=.p   $ C =.=.=.=.=.,     ' =.=.=.=.",
"=.=.=._ L L g   * V =.=.K     , o.=.X.,     K =.=.=.=.c     Z =.=.=.=.=.",
"=.=.=.=.=.=.g   * V =.=.=.1 *     5     $ , =.=.=.=.'     2 =.=.=.=.=.=.",
"=.=.=.=.=.=.g   * C =.=.=.Y               ~ =.=.=.=.p *   Y =.=.=.=.=.=.",
"=.=.=.=.=.=.g   * C =.=.]       8 d -       o.=.=.'     8 =.=.=.=.=.=.=.",
"=.=.=.=.=.=.g   * V =.=.b * * s =.=.=.5     L =.=.g *   K =.=.=.=.=.=.=.",
"=.=.=.=.=.=.g   * V =.=.x   = v =.=.=.u   $ Z =.o.      o.=.=.=.=.=.=.=.",
"=.=.=.=.=.=.g   * V =.=.F       Y { D       ^ =.U     a =.=.=.=.=.=.=.=.",
"=.=.=.=.=.=.g   * V =.=.o.;   $         $ t =.=.g     K =.=.=.=.=.=.=.=.",
"=.=.=.=.=.=.g   * V =.=.=./ 3           t X.=.=.      ] =.=.=.=.=.=.=.=.",
"=.=.=.=.=.=.S g g E =.=.=.=.=.I M k C E =.=.=.=.k g h =.=.=.=.=.=.=.=.=.",
"=.=.=.=.=.=.=.=.=.=.=.=.=.=.=.=.=.=.=.=.=.=.=.=.=.=.=.=.=.=.=.=.=.=.=.=.",
"=.=.=.=.=.=.=.=.=.=.=.=.=.=.=.=.=.=.=.=.=.=.=.=.=.=.=.=.=.=.=.=.=.=.=.=.",
"=.=.=.=.=.=.=.=.=.=.=.=.=.=.=.=.=.=.=.=.=.=.=.=.=.=.=.=.=.=.=.=.=.=.=.=.",
"=.=.=.=.=.=.=.=.=.=.=.=.=.=.=.=.=.=.=.=.=.=.=.=.=.=.=.=.=.=.=.=.=.=.=.=.",
"=.=.=.=.=.=.=.=.=.=.=.=.=.=.=.=.=.=.=.=.=.=.=.=.=.=.=.=.=.=.=.=.=.=.=.=.",
"=.=.=.=.=.=.=.=.=.=.=.=.=.=.=.=.=.=.=.=.=.=.=.=.=.=.=.=.=.=.=.=.=.=.=.=.",
"=.=.=.=.=.=.=.=.=.=.=.=.=.=.=.=.=.=.=.=.=.=.=.=.=.=.=.=.=.=.=.=.=.=.=.=.",
"=.=.=.=.=.=.=.=.=.=.=.=.=.=.=.=.=.=.=.=.=.=.=.=.=.=.=.=.=.=.=.=.=.=.=.=.",
"=.=.=.=.=.=.=.=.=.=.=.=.=.=.=.=.=.=.=.=.=.=.=.=.=.=.=.=.=.=.=.=.=.=.=.=.",
"=.=.=.=.=.=.=.=.=.=.=.=.=.=.=.=.=.=.=.=.=.=.=.=.=.=.=.=.=.=.=.=.=.=.=.=.",
"=.=.=.=.=.=.=.=.=.=.=.=.=.=.=.=.=.=.=.=.=.=.=.=.=.=.=.=.=.=.=.=.=.=.=.=.",
"=.=.=.=.=.=.=.=.=.=.=.=.=.=.=.=.=.=.=.=.=.=.=.=.=.=.=.=.=.=.=.=.=.=.=.=."
};
