/* XPM */
static char *empty-0-LB-342[] = {
/* columns rows colors chars-per-pixel */
"36 36 117 2",
"   c #000700060002",
".  c #010A00CC0054",
"X  c #01DA016E0096",
"o  c #025001C900BB",
"O  c #02BB021B00DD",
"+  c #0322026B00FD",
"@  c #037902AE0119",
"#  c #03FD03140143",
"$  c #047F0378016B",
"%  c #0531040201A3",
"&  c #05A0045801C7",
"*  c #064A04DC01FD",
"=  c #067C0502020C",
"-  c #06CC053F0225",
";  c #076005B20255",
":  c #0A2907D80335",
">  c #0B2208980384",
",  c #112A0D40056C",
"<  c #184212BA07A9",
"1  c #22D11AE00AFF",
"2  c #23BE1B970B49",
"3  c #2B1A21460D9C",
"4  c #2D6E23110E58",
"5  c #30B125960F60",
"6  c #3189263D0FA4",
"7  c #3326277C1027",
"8  c #383E2B6A11C3",
"9  c #39572C43121B",
"0  c #3BE92E3F12EB",
"q  c #3C8E2EBE131F",
"w  c #3F7430FB140A",
"e  c #3FA1311E1418",
"r  c #46E836BC1664",
"t  c #488A37FF16E8",
"y  c #51423EBA19A9",
"u  c #534240451A4B",
"i  c #5E5848D41DCB",
"p  c #60434A4F1E66",
"a  c #62B14C2F1F2A",
"s  c #65554E382000",
"d  c #65AB4E7B201B",
"f  c #65D64E9C2028",
"g  c #6A3451FC218A",
"h  c #6BF9535A2219",
"j  c #6DDB54CD22B1",
"k  c #6FC55647234C",
"l  c #73D059672493",
"z  c #7A715E8426AA",
"x  c #7D1E60952783",
"c  c #7D8360E327A2",
"v  c #7EBA61D32805",
"b  c #7F686259283C",
"n  c #813663BE28CE",
"m  c #857767072A26",
"M  c #86BD68032A8D",
"N  c #87C868D12AE1",
"B  c #88C469932B31",
"V  c #898B6A2C2B6F",
"C  c #89E96A752B8D",
"Z  c #8CA86C942C6B",
"A  c #8E8E6E0B2D04",
"S  c #922970D42E28",
"D  c #95F273C02F5A",
"F  c #975874D42FCB",
"G  c #98287575300D",
"H  c #99F276D6309D",
"J  c #9AEE779830ED",
"K  c #9CA078E73176",
"L  c #9D83799731BE",
"P  c #9ECB7A943225",
"I  c #A0967BF632B5",
"U  c #A3597E183395",
"Y  c #A42C7EBA33D8",
"T  c #A69D809D349D",
"R  c #A6CA80C034AC",
"E  c #A9F5833235AC",
"W  c #AAE083E735F6",
"Q  c #ACC2855B368E",
"!  c #AEA286CE3726",
"~  c #AFAA879A3779",
"^  c #B03F880D37A9",
"/  c #B14588D737FB",
"(  c #B8228E233A26",
")  c #B9E08F7C3AB2",
"_  c #BBEB910F3B58",
"`  c #BD9192553BDD",
"'  c #BDC6927E3BEE",
"]  c #BE0D92B53C04",
"[  c #C08994A03CCD",
"{  c #C16395483D12",
"}  c #C4B097D53E1C",
"|  c #C50198133E36",
" . c #C52C98343E44",
".. c #C5D298B43E78",
"X. c #CADD9C994010",
"o. c #CBDB9D5D4060",
"O. c #CD889EA840E7",
"+. c #D04FA0CD41C8",
"@. c #D143A1894215",
"#. c #D328A2FF42AE",
"$. c #D439A3D24304",
"%. c #D54BA4A6435B",
"&. c #D627A54F43A0",
"*. c #D795A6694414",
"=. c #D9EDA83944D1",
"-. c #DB89A9774553",
";. c #DC5FAA1C4597",
":. c #DE23AB794626",
">. c #E020AD0246C7",
",. c #E0F8ADA9470B",
"<. c #E1A1AE2B4740",
"1. c #E431B025480F",
"2. c #E5ABB14A4887",
"3. c #E602B18D48A2",
"4. c #E69DB20448D3",
"5. c #E746B2874909",
"6. c #E79DB2CA4924",
/* pixels */
"6.6.6.6.6.6.6.6.6.6.6.6.6.6.6.6.6.6.6.6.6.6.6.6.6.6.6.6.6.6.6.6.6.6.6.6.",
"6.6.6.6.6.6.6.6.6.6.6.6.6.6.6.6.6.6.6.6.6.6.6.6.6.6.6.6.6.6.6.6.6.6.6.6.",
"6.6.6.6.6.6.6.6.6.6.6.6.6.6.6.6.6.6.6.6.6.6.6.6.6.6.6.6.6.6.6.6.6.6.6.6.",
"6.6.6.6.6.6.6.6.6.6.6.6.6.6.6.6.6.6.6.6.6.6.6.6.6.6.6.6.6.6.6.6.6.6.6.6.",
"6.6.6.6.6.6.6.6.6.6.6.6.6.6.6.6.6.6.6.6.6.6.6.6.6.6.6.6.6.6.6.6.6.6.6.6.",
"6.6.6.6.6.6.6.6.6.6.6.6.6.6.6.6.6.6.6.6.6.6.6.6.6.6.6.6.6.6.6.6.6.6.6.6.",
"6.6.6.6.6.6.6.6.6.6.6.6.6.6.6.6.6.6.6.6.6.6.6.6.6.6.6.6.6.6.6.6.6.6.6.6.",
"6.6.6.6.6.6.6.6.6.6.6.6.6.6.6.6.6.6.6.6.6.6.6.6.6.6.6.6.6.6.6.6.6.6.6.6.",
"6.6.6.6.6.6.6.6.6.6.6.6.6.6.6.6.6.6.6.6.6.6.6.6.6.6.6.6.6.6.6.6.6.6.6.6.",
"6.6.6.,.W n z Y :.6.6.6.6.6.6.6.6.6.h s U 6.6.6.6.6.( n f v ( 6.6.6.6.6.",
"6.6.(             R 6.6.6.6.6.6.6.A     a 6.6.6.@.<   *   *   6 ;.6.6.6.",
"6.6.    *     *     *.6.6.6.6.6.|       s 6.6.6.%   %         * 7 6.6.6.",
"6.Q       O.@.,     K 6.6.6.6.,.: %     s 6.6.E       { *.J       ..6.6.",
"6.V   * V 6.6.V :   h 6.6.6.6.a     *   s 6.6.j     R 6.6.6.w   * K 6.6.",
"6.j     K 6.6.k % * V 6.6.6.E   * 8 *   f 6.6.u     | 6.6.6.9     Q 6.6.",
"6.6.6.6.{ 1 *       *.6.6.*.      D *   f 6.6.:.*.*.6.6.6.M       -.6.6.",
"6.6.6.6./         4 @.6.6.6 *   E D *   s 6.6.6.6.6.6.Q >       S 6.6.6.",
"6.6.6.6.O.s y *       ,.M   % a 6.D *   s 6.6.6.6.@.w     *   J 6.6.6.6.",
"6.K a i _ 6.6.6.4     /       2 1 1 *   1 1 N 6...  % *   s *.6.6.6.6.6.",
"6.j   * b 6.6.6.t     I                     s ;.      r @.6.6.6.6.6.6.6.",
"6.K       | *.E       X.f f f f f s *   s s U A     l { { { { { { :.6.6.",
"6.:.    *         % q 6.6.6.6.6.6.D *   s 6.6.1                   D 6.6.",
"6.6.{     %       9 -.6.6.6.6.6.6.D *   s 6.6.                  * D 6.6.",
"6.6.6.,.Q v j F [ 6.6.6.6.6.6.6.6.` s s U 6.6.h f f s s s s f f s [ 6.6.",
"6.6.6.6.6.6.6.6.6.6.6.6.6.6.6.6.6.6.6.6.6.6.6.6.6.6.6.6.6.6.6.6.6.6.6.6.",
"6.6.6.6.6.6.6.6.6.6.6.6.6.6.6.6.6.6.6.6.6.6.6.6.6.6.6.6.6.6.6.6.6.6.6.6.",
"6.6.6.6.6.6.6.6.6.6.6.6.6.6.6.6.6.6.6.6.6.6.6.6.6.6.6.6.6.6.6.6.6.6.6.6.",
"6.6.6.6.6.6.6.6.6.6.6.6.6.6.6.6.6.6.6.6.6.6.6.6.6.6.6.6.6.6.6.6.6.6.6.6.",
"6.6.6.6.6.6.6.6.6.6.6.6.6.6.6.6.6.6.6.6.6.6.6.6.6.6.6.6.6.6.6.6.6.6.6.6.",
"6.6.6.6.6.6.6.6.6.6.6.6.6.6.6.6.6.6.6.6.6.6.6.6.6.6.6.6.6.6.6.6.6.6.6.6.",
"6.6.6.6.6.6.6.6.6.6.6.6.6.6.6.6.6.6.6.6.6.6.6.6.6.6.6.6.6.6.6.6.6.6.6.6.",
"6.6.6.6.6.6.6.6.6.6.6.6.6.6.6.6.6.6.6.6.6.6.6.6.6.6.6.6.6.6.6.6.6.6.6.6.",
"6.6.6.6.6.6.6.6.6.6.6.6.6.6.6.6.6.6.6.6.6.6.6.6.6.6.6.6.6.6.6.6.6.6.6.6.",
"6.6.6.6.6.6.6.6.6.6.6.6.6.6.6.6.6.6.6.6.6.6.6.6.6.6.6.6.6.6.6.6.6.6.6.6.",
"6.6.6.6.6.6.6.6.6.6.6.6.6.6.6.6.6.6.6.6.6.6.6.6.6.6.6.6.6.6.6.6.6.6.6.6.",
"6.6.6.6.6.6.6.6.6.6.6.6.6.6.6.6.6.6.6.6.6.6.6.6.6.6.6.6.6.6.6.6.6.6.6.6."
};
