/* XPM */
static char *empty-0-LB-320[] = {
/* columns rows colors chars-per-pixel */
"36 36 140 2",
"   c #000A00070003",
".  c #011400D50057",
"X  c #01CE01650092",
"o  c #024001BD00B6",
"O  c #02B0021400D9",
"+  c #0322026B00FD",
"@  c #037A02AF0119",
"#  c #047C0376016B",
"$  c #059A045301C5",
"%  c #062904C101F2",
"&  c #067C0502020C",
"*  c #06CC053F0225",
"=  c #076005B20255",
"-  c #0888069602B2",
";  c #0B2208980384",
":  c #112A0D40056C",
">  c #16C711950731",
",  c #184212BA07A9",
"<  c #22681A8F0ADE",
"1  c #23BE1B970B49",
"2  c #26F61E130C4E",
"3  c #29361FD00D03",
"4  c #2B1A21460D9C",
"5  c #2D6E23110E58",
"6  c #3189263D0FA4",
"7  c #3326277C1027",
"8  c #34622870108B",
"9  c #39572C43121B",
"0  c #3BE92E3F12EB",
"q  c #3C8E2EBE131F",
"w  c #3F7430FB140A",
"e  c #3FA1311E1418",
"r  c #46E836BC1664",
"t  c #47FB379116BB",
"y  c #488A37FF16E8",
"u  c #51423EBA19A9",
"i  c #534240451A4B",
"p  c #5E5848D41DCB",
"a  c #61884B4A1ECD",
"s  c #62FE4C6A1F43",
"d  c #63D34D0F1F86",
"f  c #65554E382000",
"g  c #65AB4E7B201B",
"h  c #65D64E9C2028",
"j  c #66FF4F822086",
"k  c #676E4FD720A9",
"l  c #688950B22103",
"z  c #6A3451FC218A",
"x  c #6BF953592218",
"c  c #6DDB54CD22B1",
"v  c #6FC55647234C",
"b  c #73D059672493",
"n  c #76095B1D2546",
"m  c #77C65C7525D3",
"M  c #7A715E8426AA",
"N  c #7D1E60952783",
"B  c #7D8360E327A2",
"V  c #7EBA61D32805",
"C  c #7F686259283C",
"Z  c #7FD562AD285E",
"A  c #80FE639328BC",
"S  c #8326653D296B",
"D  c #853766D52A11",
"F  c #86BD68032A8D",
"G  c #87EF68EF2AED",
"H  c #88D969A32B37",
"J  c #899B6A392B75",
"K  c #89E96A752B8D",
"L  c #8CA86C942C6B",
"P  c #8EBB6E2D2D12",
"I  c #90046F2C2D7A",
"U  c #90E96FDD2DC3",
"Y  c #922970D42E28",
"T  c #952873232F1A",
"R  c #95F273C02F5A",
"E  c #974174C12FC4",
"W  c #98287575300D",
"Q  c #99F276D6309D",
"!  c #9AE0778E30E8",
"~  c #9CA078E73176",
"^  c #9D83799731BE",
"/  c #9DCD79D031D5",
"(  c #9ECB7A943225",
")  c #A0967BF632B5",
"_  c #A1497C8032EF",
"`  c #A3837E3833A3",
"'  c #A45C7EE033E8",
"]  c #A66A8076348D",
"[  c #A69D809D349D",
"{  c #A6CA80C034AC",
"}  c #A9E7832735A8",
"|  c #AAE083E735F6",
" . c #ACBF8559368D",
".. c #AEA286CE3726",
"X. c #AFAA879A3779",
"o. c #B03F880D37A9",
"O. c #B14588D737FB",
"+. c #B1D389443827",
"@. c #B60F8C89397E",
"#. c #B7FF8E083A1A",
"$. c #B9E08F7C3AB2",
"%. c #BA3F8FC53AD1",
"&. c #BB43908D3B22",
"*. c #BBEB910F3B58",
"=. c #BD9192553BDD",
"-. c #BDC6927E3BEE",
";. c #BE0D92B53C04",
":. c #C08994A03CCD",
">. c #C16395483D12",
",. c #C2A2963E3D76",
"<. c #C4B697D93E1E",
"1. c #C50198133E36",
"2. c #C52C98343E44",
"3. c #C647990E3E9D",
"4. c #CADD9C994010",
"5. c #CB1D9CCA4024",
"6. c #CBDB9D5D4060",
"7. c #CD869EA640E6",
"8. c #D061A0DA41CD",
"9. c #D143A1894215",
"0. c #D34FA31D42BA",
"q. c #D3D4A38442E5",
"w. c #D4C5A43E4331",
"e. c #D54BA4A6435B",
"r. c #D627A54F43A0",
"t. c #D795A6694414",
"y. c #D9EDA83944D1",
"u. c #DB89A9774553",
"i. c #DC5FAA1C4597",
"p. c #DDBEAB2A4606",
"a. c #DE23AB794626",
"s. c #E024AD0546C8",
"d. c #E0F8ADA9470B",
"f. c #E2F7AF3447AC",
"g. c #E431B025480F",
"h. c #E5ABB14A4887",
"j. c #E602B18D48A2",
"k. c #E69BB20348D3",
"l. c #E739B27D4904",
"z. c #E79DB2CA4924",
/* pixels */
"z.z.z.z.z.z.z.z.z.z.z.z.z.z.z.z.z.z.z.z.z.z.z.z.z.z.z.z.z.z.z.z.z.z.z.z.",
"z.z.z.z.z.z.z.z.z.z.z.z.z.z.z.z.z.z.z.z.z.z.z.z.z.z.z.z.z.z.z.z.z.z.z.z.",
"z.z.z.z.z.z.z.z.z.z.z.z.z.z.z.z.z.z.z.z.z.z.z.z.z.z.z.z.z.z.z.z.z.z.z.z.",
"z.z.z.z.z.z.z.z.z.z.z.z.z.z.z.z.z.z.z.z.z.z.z.z.z.z.z.z.z.z.z.z.z.z.z.z.",
"z.z.z.z.z.z.z.z.z.z.z.z.z.z.z.z.z.z.z.z.z.z.z.z.z.z.z.z.z.z.z.z.z.z.z.z.",
"z.z.z.z.z.z.z.z.z.z.z.z.z.z.z.z.z.z.z.z.z.z.z.z.z.z.z.z.z.z.z.z.z.z.z.z.",
"z.z.z.z.z.z.z.z.z.z.z.z.z.z.z.z.z.z.z.z.z.z.z.z.z.z.z.z.z.z.z.z.z.z.z.z.",
"z.z.z.z.z.z.z.z.z.z.z.z.z.z.z.z.z.z.z.z.z.z.z.z.z.z.z.z.z.z.z.z.z.z.z.z.",
"z.z.z.z.z.z.z.z.z.z.z.z.z.z.z.z.z.z.z.z.z.z.z.z.z.z.z.z.z.z.z.z.z.z.z.z.",
"z.z.z.d.} C M ' a.z.z.z.z.z.z.#.A k V #.z.z.z.z.z.z.3.S k J 7.z.z.z.z.z.",
"z.z.#.    #       { z.z.z.7.,   #   %   6 a.z.z.z.d   %   %   G z.z.z.z.",
"z.z.    %     %     r.z.z.% %           % 6 z.z.P               +.z.z.z.",
"z. .      7.9.:     ~ z. .      >.t.Q       3.d.      J r.a     > z.z.z.",
"z.J   % J z.z.J -   z z.v     { z.z.z.e   # ~ *.      z.z.a.      r.z.z.",
"z.c     ~ z.z.v % % L z.i     3.z.z.z.9     o.Y %   k z.z.z.2     #.z.z.",
"z.z.z.z.>.< %       r.z.d.r.r.z.z.z.G       y.m   - C z.z.z.y   # _ z.z.",
"z.z.z.z.o.        5 9.z.z.z.z.z. .;       Y z.d   % R z.z.z.d   % Q z.z.",
"z.z.z.z.7.k u %       d.z.z.9.e     %   Q z.z.D   - S z.z.z.r      .z.z.",
"z._ p p =.z.z.z.5     +.z.3.  # %   k r.z.z.z._ #   z z.z.z.4     >.z.z.",
"z.c   % V z.z.z.y     ) a.      r 9.z.z.z.z.z.#.      z.z.d.      9.z.z.",
"z.~       3.t.}       6.P     n >.>.>.>.>.>.s.z.      ! a.m     8 z.z.z.",
"z.s.    %         # 0 z.1                   R z.Y               #.z.z.z.",
"z.z.;.            0 y.z.                  % R z.z.S           ' z.z.z.z.",
"z.z.z.d. .V c Q ;.z.z.z.z k d k d k d k d k =.z.z.z.6.~ k { 9.z.z.z.z.z.",
"z.z.z.z.z.z.z.z.z.z.z.z.z.z.z.z.z.z.z.z.z.z.z.z.z.z.z.z.z.z.z.z.z.z.z.z.",
"z.z.z.z.z.z.z.z.z.z.z.z.z.z.z.z.z.z.z.z.z.z.z.z.z.z.z.z.z.z.z.z.z.z.z.z.",
"z.z.z.z.z.z.z.z.z.z.z.z.z.z.z.z.z.z.z.z.z.z.z.z.z.z.z.z.z.z.z.z.z.z.z.z.",
"z.z.z.z.z.z.z.z.z.z.z.z.z.z.z.z.z.z.z.z.z.z.z.z.z.z.z.z.z.z.z.z.z.z.z.z.",
"z.z.z.z.z.z.z.z.z.z.z.z.z.z.z.z.z.z.z.z.z.z.z.z.z.z.z.z.z.z.z.z.z.z.z.z.",
"z.z.z.z.z.z.z.z.z.z.z.z.z.z.z.z.z.z.z.z.z.z.z.z.z.z.z.z.z.z.z.z.z.z.z.z.",
"z.z.z.z.z.z.z.z.z.z.z.z.z.z.z.z.z.z.z.z.z.z.z.z.z.z.z.z.z.z.z.z.z.z.z.z.",
"z.z.z.z.z.z.z.z.z.z.z.z.z.z.z.z.z.z.z.z.z.z.z.z.z.z.z.z.z.z.z.z.z.z.z.z.",
"z.z.z.z.z.z.z.z.z.z.z.z.z.z.z.z.z.z.z.z.z.z.z.z.z.z.z.z.z.z.z.z.z.z.z.z.",
"z.z.z.z.z.z.z.z.z.z.z.z.z.z.z.z.z.z.z.z.z.z.z.z.z.z.z.z.z.z.z.z.z.z.z.z.",
"z.z.z.z.z.z.z.z.z.z.z.z.z.z.z.z.z.z.z.z.z.z.z.z.z.z.z.z.z.z.z.z.z.z.z.z.",
"z.z.z.z.z.z.z.z.z.z.z.z.z.z.z.z.z.z.z.z.z.z.z.z.z.z.z.z.z.z.z.z.z.z.z.z."
};
