/* XPM */
static char *empty-0-LB-L[] = {
/* columns rows colors chars-per-pixel */
"36 36 9 1",
"  c black",
". c #065504E30200",
"X c #65554E382000",
"o c #95F673C22F5B",
"O c #A3597E183395",
"+ c #BDC892803BEE",
"@ c #D0FFA15441FF",
"# c #E507B0CB4853",
"$ c #E79DB2CA4924",
/* pixels */
"$$$$$$$$$$$$$$$$$$$$$$$$$$$$$$$$$$$$",
"$$$$$$$$$$$$$$$$$$$$$$$$$$$$$$$$$$$$",
"$$$$$$$$$$$$$$$$$$$$$$$$$$$$$$$$$$$$",
"$$$$$$$$$$$$$$$$$$$$$$$$$$$$$$$$$$$$",
"$$$$$$$$$$$$$$$$$$$$$$$$$$$$$$$$$$$$",
"$$$$$$$$$$$$$$$$$$$$$$$$$$$$$$$$$$$$",
"$$$$$$$$$$$$$$$$$$$$$$$$$$$$$$$$$$$$",
"$$$$$$$$$$$$$$$$$$$$$$$$$$$$$$$$$$$$",
"$$$$$$$$$$$$+XXO$$$$$$$$$$$$$$$$$$$$",
"$$$$$$$$$$$$o. X$$$$$$$$$$$$$$$$$$$$",
"$$$$$$$$$$$$o. X$$$$$$$$$$$$$$$$$$$$",
"$$$$$$$$$$$$o. X$$$$$$$$$$$$$$$$$$$$",
"$$$$$$$$$$$$o. X$$$$$$$$$$$$$$$$$$$$",
"$$$$$$$$$$$$o. X$$$$$$$$$$$$$$$$$$$$",
"$$$$$$$$$$$$o. X$$$$$$$$$$$$$$$$$$$$",
"$$$$$$$$$$$$o. X$$$$$$$$$$$$$$$$$$$$",
"$$$$$$$$$$$$o. X$$$$$$$$$$$$$$$$$$$$",
"$$$$$$$$$$$$o. X$$$$$$$$$$$$$$$$$$$$",
"$$$$$$$$$$$$o. X$$$$$$$$$$$$$$$$$$$$",
"$$$$$$$$$$$$o. X$$$$$$$$$$$$$$$$$$$$",
"$$$$$$$$$$$$o. X@@@@@@$$$$$$$$$$$$$$",
"$$$$$$$$$$$$o.        o$$$$$$$$$$$$$",
"$$$$$$$$$$$$o.       .o$$$$$$$$$$$$$",
"$$$$$$$$$$$$+XXXXXXXXX+$$$$$$$$$$$$$",
"$$$$$$$$$$$$$$$$$$$$$$$$$$$$$$$$$$$$",
"$$$$$$$$$$$$$$$$$$$$$$$$$$$$$$$$$$$$",
"$$$$$$$$$$$$$$$$$$$$$$$$$$$$$$$$$$$$",
"$$$$$$$$$$$$$$$$$$$$$$$$$$$$$$$$$$$$",
"$$$$$$$$$$$$$$$$$$$$$$$$$$$$$$$$$$$$",
"$$$$$$$$$$$$$$$$$$$$$$$$$$$$$$$$$$$$",
"$$$$$$$$$$$$$$$$$$$$$$$$$$$$$$$$$$$$",
"$$$$$$$$$$$$$$$$$$$$$$$$$$$$$$$$$$$$",
"$$$$$$$$$$$$$$$$$$$$$$$$$$$$$$$$$$$$",
"$$$$$$$$$$$$$$$$$$$$$$$$$$$$$$$$$$$$",
"$$$$$$$$$$$$$$$$$$$$$$$$$$$$$$$$$$$$",
"$$$$$$$$$$$$$$$$$$$$$$$$$$$$$$$$$$$$"
};
