/* XPM */
static char *empty-0-LB-z[] = {
/* columns rows colors chars-per-pixel */
"36 36 37 1",
"  c black",
". c #01520104006A",
"X c #0589044601BF",
"o c #0A2B07D90336",
"O c #0F2D0BB704CB",
"+ c #143A0F9D0663",
"@ c #19CF13EC0826",
"# c #1C0C15A608DB",
"$ c #1F81185209F3",
"% c #22BF1AD20AF8",
"& c #240A1BD20B62",
"* c #29F420630D40",
"= c #332327791026",
"- c #385E2B8311CD",
"; c #4E163C4718A9",
": c #51503EC419AD",
"> c #60CA4AB81E91",
", c #65554E382000",
"< c #67994FF820B7",
"1 c #7F0F62142820",
"2 c #811563A528C3",
"3 c #829C64D2293F",
"4 c #964F74072F77",
"5 c #A742811D34D1",
"6 c #B0FC889F37E4",
"7 c #B3A08AA938B9",
"8 c #BDE192933BF6",
"9 c #C4C497E33E23",
"0 c #D3E5A39142EA",
"q c #D650A56F43AD",
"w c #D898A7324466",
"e c #D94BA7BC449E",
"r c #E2AFAEFB4795",
"t c #E4D7B0A64844",
"y c #E508B0CC4853",
"u c #E75FB29A4910",
"i c #E79DB2CA4924",
/* pixels */
"iiiiiiiiiiiiiiiiiiiiiiiiiiiiiiiiiiii",
"iiiiiiiiiiiiiiiiiiiiiiiiiiiiiiiiiiii",
"iiiiiiiiiiiiiiiiiiiiiiiiiiiiiiiiiiii",
"iiiiiiiiiiiiiiiiiiiiiiiiiiiiiiiiiiii",
"iiiiiiiiiiiiiiiiiiiiiiiiiiiiiiiiiiii",
"iiiiiiiiiiiiiiiiiiiiiiiiiiiiiiiiiiii",
"iiiiiiiiiiiiiiiiiiiiiiiiiiiiiiiiiiii",
"iiiiiiiiiiiiiiiiiiiiiiiiiiiiiiiiiiii",
"iiiiiiiiiiiiiiiiiiiiiiiiiiiiiiiiiiii",
"iiiiiiiiiiiiiiiiiiiiiiiiiiiiiiiiiiii",
"iiiiiiiiiiiiiiiiiiiiiiiiiiiiiiiiiiii",
"iiiiiiiiiiiiiiiiiiiiiiiiiiiiiiiiiiii",
"iiiiiiiiiiiir,,,,,,,,6iiiiiiiiiiiiii",
"iiiiiiiiiiii0       *1iiiiiiiiiiiiii",
"iiiiiiiiiiiiq       X1iiiiiiiiiiiiii",
"iiiiiiiiiiiiiiiii- $=iiiiiiiiiiiiiii",
"iiiiiiiiiiiiiiii< % eiiiiiiiiiiiiiii",
"iiiiiiiiiiiiiii4 @ 9iiiiiiiiiiiiiiii",
"iiiiiiiiiiiiii8 o 5iiiiiiiiiiiiiiiii",
"iiiiiiiiiiiiie   2iiiiiiiiiiiiiiiiii",
"iiiiiiiiiiiii@ +:iiiiiiiiiiiiiiiiiii",
"iiiiiiiiiiii> O      &iiiiiiiiiiiiii",
"iiiiiiiiiiii;       $@iiiiiiiiiiiiii",
"iiiiiiiiiiii7,,,,,,,,3iiiiiiiiiiiiii",
"iiiiiiiiiiiiiiiiiiiiiiiiiiiiiiiiiiii",
"iiiiiiiiiiiiiiiiiiiiiiiiiiiiiiiiiiii",
"iiiiiiiiiiiiiiiiiiiiiiiiiiiiiiiiiiii",
"iiiiiiiiiiiiiiiiiiiiiiiiiiiiiiiiiiii",
"iiiiiiiiiiiiiiiiiiiiiiiiiiiiiiiiiiii",
"iiiiiiiiiiiiiiiiiiiiiiiiiiiiiiiiiiii",
"iiiiiiiiiiiiiiiiiiiiiiiiiiiiiiiiiiii",
"iiiiiiiiiiiiiiiiiiiiiiiiiiiiiiiiiiii",
"iiiiiiiiiiiiiiiiiiiiiiiiiiiiiiiiiiii",
"iiiiiiiiiiiiiiiiiiiiiiiiiiiiiiiiiiii",
"iiiiiiiiiiiiiiiiiiiiiiiiiiiiiiiiiiii",
"iiiiiiiiiiiiiiiiiiiiiiiiiiiiiiiiiiii"
};
