/* XPM */
static char *empty-0-LB-300[] = {
/* columns rows colors chars-per-pixel */
"36 36 106 2",
"   c #000900070003",
".  c #011A00D90059",
"X  c #01C801600090",
"o  c #023C01B900B4",
"O  c #02B6021800DB",
"+  c #0322026B00FD",
"@  c #037B02B00119",
"#  c #04800379016C",
"$  c #0594044E01C3",
"%  c #062004BA01EF",
"&  c #067C0502020C",
"*  c #06CC053F0225",
"=  c #076005B20255",
"-  c #0888069702B2",
";  c #112A0D40056C",
":  c #16C711950731",
">  c #22681A8F0ADE",
",  c #26F61E130C4E",
"<  c #29361FD00D03",
"1  c #2B1A21460D9C",
"2  c #2D6E23110E58",
"3  c #34622870108B",
"4  c #3BE92E3F12EB",
"5  c #3C8E2EBE131F",
"6  c #47FB379116BB",
"7  c #488A37FF16E8",
"8  c #51423EBA19A9",
"9  c #5E5848D41DCB",
"0  c #61884B4A1ECD",
"q  c #62FE4C6A1F43",
"w  c #63D34D0F1F86",
"e  c #65554E382000",
"r  c #66FF4F822086",
"t  c #676E4FD720A9",
"y  c #688950B22103",
"u  c #6A3451FC218A",
"i  c #6BF653572218",
"p  c #6DB554AF22A5",
"a  c #6FC55647234C",
"s  c #76095B1D2546",
"d  c #77C65C7525D3",
"f  c #7A715E8426AA",
"g  c #7D1E60952783",
"h  c #7EBA61D32805",
"j  c #7F686259283C",
"k  c #7FD562AD285E",
"l  c #80C6636828AA",
"z  c #8326653D296B",
"x  c #853766D52A11",
"c  c #87EF68EF2AED",
"v  c #88E369AC2B3A",
"b  c #89A06A3D2B76",
"n  c #89E96A752B8D",
"m  c #8EBB6E2D2D12",
"M  c #90046F2C2D7A",
"N  c #90E96FDD2DC3",
"B  c #952873232F1A",
"V  c #973974BB2FC1",
"C  c #9ADC778A30E7",
"Z  c #9CA078E73176",
"A  c #9DCD79D031D5",
"S  c #9ECB7A943225",
"D  c #A0967BF632B5",
"F  c #A1497C8032EF",
"G  c #A3837E3833A3",
"H  c #A46C7EEC33ED",
"J  c #A66A8076348D",
"K  c #A6CA80C034AC",
"L  c #A9E7832735A8",
"P  c #ACBD8558368D",
"I  c #AEA286CE3726",
"U  c #B080883F37BD",
"Y  c #B14588D737FB",
"T  c #B1D389443827",
"R  c #B60F8C89397E",
"E  c #B7F38DFF3A17",
"W  c #BA3F8FC53AD1",
"Q  c #BB43908D3B22",
"!  c #BBEB910F3B58",
"~  c #BD9192553BDD",
"^  c #BE0D92B53C04",
"/  c #C08994A03CCD",
"(  c #C2A2963E3D76",
")  c #C50198133E36",
"_  c #C6BB99683EC2",
"`  c #CADD9C994010",
"'  c #CB1D9CCA4024",
"]  c #CBDB9D5D4060",
"[  c #CD859EA540E6",
"{  c #D067A0DF41CF",
"}  c #D12FA17A420F",
"|  c #D39DA35942D3",
" . c #D3D4A38442E5",
".. c #D4C5A43E4331",
"X. c #D64CA56C43AC",
"o. c #D779A654440B",
"O. c #DB89A9774553",
"+. c #DDBEAB2A4606",
"@. c #DE23AB794626",
"#. c #E035AD1246CD",
"$. c #E0F8ADA9470B",
"%. c #E2F7AF3447AC",
"&. c #E460B04A481E",
"*. c #E6A1B20848D5",
"=. c #E739B27D4905",
"-. c #E79DB2CA4924",
/* pixels */
"-.-.-.-.-.-.-.-.-.-.-.-.-.-.-.-.-.-.-.-.-.-.-.-.-.-.-.-.-.-.-.-.-.-.-.-.",
"-.-.-.-.-.-.-.-.-.-.-.-.-.-.-.-.-.-.-.-.-.-.-.-.-.-.-.-.-.-.-.-.-.-.-.-.",
"-.-.-.-.-.-.-.-.-.-.-.-.-.-.-.-.-.-.-.-.-.-.-.-.-.-.-.-.-.-.-.-.-.-.-.-.",
"-.-.-.-.-.-.-.-.-.-.-.-.-.-.-.-.-.-.-.-.-.-.-.-.-.-.-.-.-.-.-.-.-.-.-.-.",
"-.-.-.-.-.-.-.-.-.-.-.-.-.-.-.-.-.-.-.-.-.-.-.-.-.-.-.-.-.-.-.-.-.-.-.-.",
"-.-.-.-.-.-.-.-.-.-.-.-.-.-.-.-.-.-.-.-.-.-.-.-.-.-.-.-.-.-.-.-.-.-.-.-.",
"-.-.-.-.-.-.-.-.-.-.-.-.-.-.-.-.-.-.-.-.-.-.-.-.-.-.-.-.-.-.-.-.-.-.-.-.",
"-.-.-.-.-.-.-.-.-.-.-.-.-.-.-.-.-.-.-.-.-.-.-.-.-.-.-.-.-.-.-.-.-.-.-.-.",
"-.-.-.-.-.-.-.-.-.-.-.-.-.-.-.-.-.-.-.-.-.-.-.-.-.-.-.-.-.-.-.-.-.-.-.-.",
"-.-.-.$.L k f H @.-.-.-.-.-.-._ z t b [ -.-.-.-.-.-._ z r b [ -.-.-.-.-.",
"-.-.E       #     K -.-.-.-.w   %   %   b -.-.-.-.w   %   %   c -.-.-.-.",
"-.-.    %     %     o.-.-.m               T -.-.m               T -.-.-.",
"-.P       [ } ;     Z -.-.      b ..0     : -.$.      b o.0     : -.-.-.",
"-.b   % b -.-.b -   i -.Q       -.-.@.      o.Q       -.-.@.      o.-.-.",
"-.p     Z -.-.p % % b -.N %   i -.-.-.,     R B %   r -.-.-.,     E -.-.",
"-.-.-.-.( > %       o.-.s   - k -.-.-.6     G d   - k -.-.-.6     G -.-.",
"-.-.-.-.U         2 [ -.r   % B -.-.-.w   % V r   % B -.-.-.w   % V -.-.",
"-.-.-.-.[ e 8 #   #   $.x   % k -.-.-.6     P x   - k -.-.-.6     P -.-.",
"-.G 9 9 ^ -.-.-.1     U G   % i -.-.-.<     ( G   % i -.-.-.<     ( -.-.",
"-.p   % k -.-.-.7     G Q       -.-.$.      } E       -.-.$.      ..-.-.",
"-.Z       _ o.L       ] -.      C @.f     3 -.-.      C @.d     3 -.-.-.",
"-.@.    %         # 5 -.-.m               R -.-.B               R -.-.-.",
"-.-.^     %       4 O.-.-.-.z           H -.-.-.-.z           H -.-.-.-.",
"-.-.-.$.P g p V ^ -.-.-.-.-.-.` Z i K [ -.-.-.-.-.-.] Z r K } -.-.-.-.-.",
"-.-.-.-.-.-.-.-.-.-.-.-.-.-.-.-.-.-.-.-.-.-.-.-.-.-.-.-.-.-.-.-.-.-.-.-.",
"-.-.-.-.-.-.-.-.-.-.-.-.-.-.-.-.-.-.-.-.-.-.-.-.-.-.-.-.-.-.-.-.-.-.-.-.",
"-.-.-.-.-.-.-.-.-.-.-.-.-.-.-.-.-.-.-.-.-.-.-.-.-.-.-.-.-.-.-.-.-.-.-.-.",
"-.-.-.-.-.-.-.-.-.-.-.-.-.-.-.-.-.-.-.-.-.-.-.-.-.-.-.-.-.-.-.-.-.-.-.-.",
"-.-.-.-.-.-.-.-.-.-.-.-.-.-.-.-.-.-.-.-.-.-.-.-.-.-.-.-.-.-.-.-.-.-.-.-.",
"-.-.-.-.-.-.-.-.-.-.-.-.-.-.-.-.-.-.-.-.-.-.-.-.-.-.-.-.-.-.-.-.-.-.-.-.",
"-.-.-.-.-.-.-.-.-.-.-.-.-.-.-.-.-.-.-.-.-.-.-.-.-.-.-.-.-.-.-.-.-.-.-.-.",
"-.-.-.-.-.-.-.-.-.-.-.-.-.-.-.-.-.-.-.-.-.-.-.-.-.-.-.-.-.-.-.-.-.-.-.-.",
"-.-.-.-.-.-.-.-.-.-.-.-.-.-.-.-.-.-.-.-.-.-.-.-.-.-.-.-.-.-.-.-.-.-.-.-.",
"-.-.-.-.-.-.-.-.-.-.-.-.-.-.-.-.-.-.-.-.-.-.-.-.-.-.-.-.-.-.-.-.-.-.-.-.",
"-.-.-.-.-.-.-.-.-.-.-.-.-.-.-.-.-.-.-.-.-.-.-.-.-.-.-.-.-.-.-.-.-.-.-.-.",
"-.-.-.-.-.-.-.-.-.-.-.-.-.-.-.-.-.-.-.-.-.-.-.-.-.-.-.-.-.-.-.-.-.-.-.-."
};
