/* XPM */
static char *empty-0-LB-34[] = {
/* columns rows colors chars-per-pixel */
"36 36 83 1",
"  c #000200020001",
". c #010E00D00055",
"X c #019E01400083",
"o c #023D01BA00B5",
"O c #02F9024C00F0",
"+ c #0543041001A9",
"@ c #064904DA01FC",
"# c #072605850242",
"$ c #08CB06C902C7",
"% c #0A83081D0352",
"& c #0BB8090B03B3",
"* c #0C2E096703D9",
"= c #0DBB0A990456",
"- c #14800FD3067A",
"; c #18C6131F07D2",
": c #1BD9157F08CB",
"> c #1F92185F09F8",
", c #22D61AE40B00",
"< c #23F81BC40B5C",
"1 c #26E21E040C48",
"2 c #29641FF40D12",
"3 c #29F420620D3F",
"4 c #2F9424BA0F06",
"5 c #31C4266B0FB7",
"6 c #34D628C910AF",
"7 c #361B29C41116",
"8 c #436234041547",
"9 c #441F34961583",
"0 c #4B0F39F017B4",
"q c #4B703A3B17D3",
"w c #4E363C5F18B3",
"e c #51303EAC19A3",
"r c #5E5848D41DCB",
"t c #62344BCF1F03",
"y c #628C4C131F1F",
"u c #65554E382000",
"i c #65AB4E7B201B",
"p c #686D509C20FA",
"a c #6D7A54822292",
"s c #6EA3556822F0",
"d c #712B575B23BD",
"f c #73E359752499",
"g c #7B055EF626D9",
"h c #7F096211281E",
"j c #82D264FC2950",
"k c #840C65EE29B3",
"l c #893369E92B54",
"z c #8AAC6B0B2BCA",
"x c #904C6F632D91",
"c c #908E6F962DA6",
"v c #936D71CD2E8E",
"b c #943572672ECD",
"n c #94B072C72EF4",
"m c #95B973932F48",
"M c #9DC879CC31D3",
"N c #A0687BD332A8",
"B c #A3647E203399",
"V c #A98982DE3589",
"C c #B9F18F893AB8",
"Z c #BB18906C3B15",
"A c #BB4F90973B26",
"S c #BE6192F63C1F",
"D c #C42B976E3DF2",
"F c #C50F981D3E3B",
"G c #CC369DA3407C",
"H c #CDA99EC140F2",
"J c #D35AA32642BE",
"K c #D41AA3BA42FA",
"L c #D7B9A6874420",
"P c #D923A79D4492",
"I c #DA06A84D44D9",
"U c #DAA4A8C7450B",
"Y c #DBA3A98B455C",
"T c #DEFFAC23466C",
"R c #E07BAD4846E3",
"E c #E2B9AF044799",
"W c #E358AF7F47CB",
"Q c #E484B0654829",
"! c #E4FDB0C44850",
"~ c #E602B18D48A2",
"^ c #E6A0B20648D4",
"/ c #E76CB2A44914",
"( c #E79DB2CA4924",
/* pixels */
"((((((((((((((((((((((((((((((((((((",
"((((((((((((((((((((((((((((((((((((",
"((((((((((((((((((((((((((((((((((((",
"((((((((((((((((((((((((((((((((((((",
"((((((((((((((((((((((((((((((((((((",
"((((((((((((((((((((((((((((((((((((",
"((((((((((((((((((((((((((((((((((((",
"((((((((((((((((((((((((((((((((((((",
"((((((((((((((((((((((((((((((((((((",
"(((((((((SmuxC(((((((((AuuE(((((((((",
"((((((((q   & 0(((((((U   P(((((((((",
"(((((((f &     g((((((4   P(((((((((",
"(((((((   xUk : (((((h    P(((((((((",
"((((((( - E(E   U(((D <   P(((((((((",
"(((((((   ((K ; E(((=#    P(((((((((",
"((((((((((9;   d(((w  g   U(((((((((",
"((((((((((     m((N 1,(   P(((((((((",
"((((((((((gt5 + vL - G(   P(((((((((",
"(((((((rrp(((B 3$7  ,,,   ,2T(((((((",
"((((((( * E((F > 3          P(((((((",
"(((((((   lKG7 48Muuuuu   uuE(((((((",
"(((((((y $    * A((((((   P(((((((((",
"((((((((w   #  m(((((((   L(((((((((",
"(((((((((GldjVT((((((((auu((((((((((",
"((((((((((((((((((((((((((((((((((((",
"((((((((((((((((((((((((((((((((((((",
"((((((((((((((((((((((((((((((((((((",
"((((((((((((((((((((((((((((((((((((",
"((((((((((((((((((((((((((((((((((((",
"((((((((((((((((((((((((((((((((((((",
"((((((((((((((((((((((((((((((((((((",
"((((((((((((((((((((((((((((((((((((",
"((((((((((((((((((((((((((((((((((((",
"((((((((((((((((((((((((((((((((((((",
"((((((((((((((((((((((((((((((((((((",
"(((((((((((((((((((((((((((((((((((("
};
