/* XPM */
static char *empty-0-LB-21[] = {
/* columns rows colors chars-per-pixel */
"36 36 64 1",
"  c #000800060003",
". c #023401B300B2",
"X c #02B1021400D9",
"o c #037B02B0011A",
"O c #049103860171",
"+ c #059D045501C6",
"@ c #065504E40200",
"# c #0B2108970384",
"$ c #184212B907A9",
"% c #201C18C90A24",
"& c #23BE1B970B49",
"* c #3188263C0FA4",
"= c #3326277C1027",
"- c #39572C43121B",
"; c #3F7430FB1409",
": c #3FA0311D1418",
"> c #46E836BC1664",
", c #534440471A4C",
"< c #65554E382000",
"1 c #65AB4E7B201B",
"2 c #65D64E9C2028",
"3 c #6A9F524E21AC",
"4 c #6AB2525C21B1",
"5 c #6BFC535B221A",
"6 c #6CB053E62252",
"7 c #6E29550922CA",
"8 c #73CF59662492",
"9 c #7D8360E327A2",
"0 c #813663BE28CE",
"q c #86BD68032A8D",
"w c #8CA86C932C6B",
"e c #922B70D52E28",
"r c #95F373C02F5A",
"t c #98297576300D",
"y c #99F176D5309D",
"u c #9D87799931BF",
"i c #A3597E183395",
"p c #A69D809D349D",
"a c #AAE083E735F6",
"s c #AFA987993779",
"d c #B00187DD3795",
"f c #B14588D737FB",
"g c #B9208EE73A76",
"h c #B9E08F7C3AB2",
"j c #BDC7927F3BEE",
"k c #C16395483D12",
"l c #C4B597D83E1E",
"z c #C52D98353E44",
"x c #C5D298B43E78",
"c c #C8239A7E3F34",
"v c #CEDB9FAD4152",
"b c #D157A199421B",
"n c #D328A2FF42AE",
"m c #D54BA4A6435B",
"M c #D601A5324394",
"N c #D7C6A6904423",
"B c #D9EEA83A44D2",
"V c #DC5EAA1C4597",
"C c #E00BACF246C0",
"Z c #E402B0014800",
"A c #E5ABB14A4887",
"S c #E602B18D48A2",
"D c #E711B25E48F7",
"F c #E79DB2CA4924",
/* pixels */
"FFFFFFFFFFFFFFFFFFFFFFFFFFFFFFFFFFFF",
"FFFFFFFFFFFFFFFFFFFFFFFFFFFFFFFFFFFF",
"FFFFFFFFFFFFFFFFFFFFFFFFFFFFFFFFFFFF",
"FFFFFFFFFFFFFFFFFFFFFFFFFFFFFFFFFFFF",
"FFFFFFFFFFFFFFFFFFFFFFFFFFFFFFFFFFFF",
"FFFFFFFFFFFFFFFFFFFFFFFFFFFFFFFFFFFF",
"FFFFFFFFFFFFFFFFFFFFFFFFFFFFFFFFFFFF",
"FFFFFFFFFFFFFFFFFFFFFFFFFFFFFFFFFFFF",
"FFFFFFFFFFFFFFFFFFFFFFFFFFFFFFFFFFFF",
"FFFFFFFFFFg929gFFFFFFF52jFFFFFFFFFFF",
"FFFFFFFFb$ O + *VFFFFc +rFFFFFFFFFFF",
"FFFFFFFF++     +*FFMg&++rFFFFFFFFFFF",
"FFFFFFFa   kNy   z6  O +rFFFFFFFFFFF",
"FFFFFFF7O pFFF; Ou5    +rFFFFFFFFFFF",
"FFFFFFF,  zFFF-  svdf2 +rFFFFFFFFFFF",
"FFFFFFFCMMFFFq   VFFF2 +rFFFFFFFFFFF",
"FFFFFFFFFFFd#   eFFFF2 +rFFFFFFFFFFF",
"FFFFFFFFFb;  + yFFFFF2 +rFFFFFFFFFFF",
"FFFFFFFFz O+ 2MFFFFFF2 +rFFFFFFFFFFF",
"FFFFFFFV   >bFFFFFFFF2 +rFFFFFFFFFFF",
"FFFFFFFw O8kkkkkkCFFF< +rFFFFFFFFFFF",
"FFFFFFF&         rFFF< +rFFFFFFFFFFF",
"FFFFFFF         +rFFF< +rFFFFFFFFFFF",
"FFFFFFF6222222222jFFFi<<jFFFFFFFFFFF",
"FFFFFFFFFFFFFFFFFFFFFFFFFFFFFFFFFFFF",
"FFFFFFFFFFFFFFFFFFFFFFFFFFFFFFFFFFFF",
"FFFFFFFFFFFFFFFFFFFFFFFFFFFFFFFFFFFF",
"FFFFFFFFFFFFFFFFFFFFFFFFFFFFFFFFFFFF",
"FFFFFFFFFFFFFFFFFFFFFFFFFFFFFFFFFFFF",
"FFFFFFFFFFFFFFFFFFFFFFFFFFFFFFFFFFFF",
"FFFFFFFFFFFFFFFFFFFFFFFFFFFFFFFFFFFF",
"FFFFFFFFFFFFFFFFFFFFFFFFFFFFFFFFFFFF",
"FFFFFFFFFFFFFFFFFFFFFFFFFFFFFFFFFFFF",
"FFFFFFFFFFFFFFFFFFFFFFFFFFFFFFFFFFFF",
"FFFFFFFFFFFFFFFFFFFFFFFFFFFFFFFFFFFF",
"FFFFFFFFFFFFFFFFFFFFFFFFFFFFFFFFFFFF"
};
