/* XPM */
static char *empty-0-LB-61[] = {
/* columns rows colors chars-per-pixel */
"36 36 78 1",
"  c #000700060002",
". c #01A001410083",
"X c #028F01F900CF",
"o c #02BD021D00DD",
"O c #0315026100F9",
"+ c #03A102CD0125",
"@ c #03F2030C013F",
"# c #0482037B016D",
"$ c #050503E00196",
"% c #05CD047A01D5",
"& c #065504E40200",
"* c #070105680236",
"= c #0841065F029B",
"- c #09FF07B80328",
"; c #0AB908470363",
": c #0CB009CB0402",
"> c #201618C50A22",
", c #2F1724590EDF",
"< c #318F26420FA6",
"1 c #3D282F351350",
"2 c #4D673BC01871",
"3 c #4ED83CDD18E6",
"4 c #520E3F5719E9",
"5 c #5EBD49211DEB",
"6 c #64474D691FAB",
"7 c #65554E382000",
"8 c #656A4E492007",
"9 c #67CF502220C8",
"0 c #6A1551E32180",
"q c #6A9F524E21AC",
"w c #6AB5525E21B2",
"e c #6CB053E62252",
"r c #6E46552022D3",
"t c #6E6F553F22E0",
"y c #6ED4558D22FF",
"u c #798C5DD32662",
"i c #7B895F5D2703",
"p c #82C764F4294C",
"a c #83936591298D",
"s c #85D767512A44",
"d c #865A67B62A6D",
"f c #87E568E72AEA",
"g c #89BD6A532B7F",
"h c #953F73352F21",
"j c #95EC73BB2F58",
"k c #974274C32FC4",
"l c #990F76273056",
"z c #99C476B2308F",
"x c #9E797A55320B",
"c c #A32A7DF33387",
"v c #A4047E9C33CB",
"b c #A5347F86342B",
"n c #AF168727374A",
"m c #AFDA87BF3788",
"M c #B12A88C237F2",
"N c #B4EB8BA83922",
"B c #B9208EE73A76",
"V c #B9FF8F943ABC",
"C c #BDC6927E3BEE",
"Z c #C263960E3D63",
"A c #C4FB980E3E34",
"S c #C8239A7E3F34",
"D c #C8869ACA3F53",
"F c #CB509CF14034",
"G c #CEDB9FAD4152",
"H c #D287A283427B",
"J c #D3A8A36242D7",
"K c #D5F7A52A4391",
"L c #D6CBA5CE43D4",
"P c #D7B4A682441E",
"I c #D893A72E4464",
"U c #DB15A91E452F",
"Y c #DDECAB4F4615",
"T c #E2C7AF0E479D",
"R c #E55CB10D486E",
"E c #E6A4B20A48D5",
"W c #E732B2774902",
"Q c #E79DB2CA4924",
/* pixels */
"QQQQQQQQQQQQQQQQQQQQQQQQQQQQQQQQQQQQ",
"QQQQQQQQQQQQQQQQQQQQQQQQQQQQQQQQQQQQ",
"QQQQQQQQQQQQQQQQQQQQQQQQQQQQQQQQQQQQ",
"QQQQQQQQQQQQQQQQQQQQQQQQQQQQQQQQQQQQ",
"QQQQQQQQQQQQQQQQQQQQQQQQQQQQQQQQQQQQ",
"QQQQQQQQQQQQQQQQQQQQQQQQQQQQQQQQQQQQ",
"QQQQQQQQQQQQQQQQQQQQQQQQQQQQQQQQQQQQ",
"QQQQQQQQQQQQQQQQQQQQQQQQQQQQQQQQQQQQ",
"QQQQQQQQQQQQQQQQQQQQQQQQQQQQQQQQQQQQ",
"QQQQQQQQQQIhyfVQQQQQQQq9CQQQQQQQQQQQ",
"QQQQQQQQQz   # 3QQQQQS *kQQQQQQQQQQQ",
"QQQQQQQQM       sQQPB> *kQQQQQQQQQQQ",
"QQQQQQQQ;  yHv   Qw  # *hQQQQQQQQQQQ",
"QQQQQQQD   QQQ:  Kq    *hQQQQQQQQQQQ",
"QQQQQQQx# 9zyfNQQQGMM7 *kQQQQQQQQQQQ",
"QQQQQQQu#*   # ,KQQQQ7 *hQQQQQQQQQQQ",
"QQQQQQQq  * > *#1QQQQ7 *hQQQQQQQQQQQ",
"QQQQQQQy  =UQK   GQQQ7 *hQQQQQQQQQQQ",
"QQQQQQQa**sQQQ3  vQQQ7 *hQQQQQQQQQQQ",
"QQQQQQQm #qQQQ<  mQQQ7 *hQQQQQQQQQQQ",
"QQQQQQQY   vIk   JQQQ9 *kQQQQQQQQQQQ",
"QQQQQQQQu       qQQQQ7 *hQQQQQQQQQQQ",
"QQQQQQQQQ4 *   5TQQQQ7 *kQQQQQQQQQQQ",
"QQQQQQQQQQAa7zZQQQQQQc77CQQQQQQQQQQQ",
"QQQQQQQQQQQQQQQQQQQQQQQQQQQQQQQQQQQQ",
"QQQQQQQQQQQQQQQQQQQQQQQQQQQQQQQQQQQQ",
"QQQQQQQQQQQQQQQQQQQQQQQQQQQQQQQQQQQQ",
"QQQQQQQQQQQQQQQQQQQQQQQQQQQQQQQQQQQQ",
"QQQQQQQQQQQQQQQQQQQQQQQQQQQQQQQQQQQQ",
"QQQQQQQQQQQQQQQQQQQQQQQQQQQQQQQQQQQQ",
"QQQQQQQQQQQQQQQQQQQQQQQQQQQQQQQQQQQQ",
"QQQQQQQQQQQQQQQQQQQQQQQQQQQQQQQQQQQQ",
"QQQQQQQQQQQQQQQQQQQQQQQQQQQQQQQQQQQQ",
"QQQQQQQQQQQQQQQQQQQQQQQQQQQQQQQQQQQQ",
"QQQQQQQQQQQQQQQQQQQQQQQQQQQQQQQQQQQQ",
"QQQQQQQQQQQQQQQQQQQQQQQQQQQQQQQQQQQQ"
};
