/* XPM */
static char *empty-0-LB-271[] = {
/* columns rows colors chars-per-pixel */
"36 36 94 2",
"   c #000300020001",
".  c #013700F00062",
"X  c #01B301500089",
"o  c #0213019A00A8",
"O  c #02E3023A00E9",
"+  c #03540291010D",
"@  c #041203240149",
"#  c #05C8047701D3",
"$  c #06D705480229",
"%  c #07AB05EB026B",
"&  c #07F406240283",
"*  c #0C52098203E4",
"=  c #0DD00AAA045D",
"-  c #0F7F0BF604E5",
";  c #0FB90C2304F7",
":  c #10D90D010552",
">  c #10FC0D1C055D",
",  c #11EA0DD405A8",
"<  c #12930E5705DE",
"1  c #1B71152F08AA",
"2  c #1D9416D50957",
"3  c #1F2F181209D9",
"4  c #219319EB0A9B",
"5  c #24F11C840BAA",
"6  c #268C1DC10C2C",
"7  c #27981E900C80",
"8  c #2B22214C0D9F",
"9  c #2C2F221B0DF4",
"0  c #2CB122800E1D",
"q  c #2E3E23B20E9A",
"w  c #2F9E24C20F09",
"e  c #313D26020F8C",
"r  c #3460286E108A",
"t  c #3B1F2DA312AB",
"y  c #3C722EA91317",
"u  c #3F6230ED1404",
"i  c #446634CC159A",
"p  c #573843541B8B",
"a  c #58F244A81C16",
"s  c #5CD247A71D50",
"d  c #65554E382000",
"f  c #69BB519E2163",
"g  c #6A9F524E21AC",
"h  c #6DB054AC22A3",
"j  c #6EED55A02307",
"k  c #7116574C23B6",
"l  c #72E658B12448",
"z  c #78035CA425E6",
"x  c #7AE45EDD26CF",
"c  c #7E8B61AE27F6",
"v  c #808463352896",
"b  c #813063B928CC",
"n  c #881D69122AFC",
"m  c #8DCB6D742CC7",
"M  c #905E6F712D97",
"N  c #963073EF2F6D",
"B  c #98AD75DB3037",
"V  c #9DAB79B531CA",
"C  c #9FC97B583275",
"Z  c #AB13840F3606",
"A  c #AD9685FF36D1",
"S  c #AE10865D36F7",
"D  c #AE8186B4371B",
"F  c #B14888D937FC",
"G  c #B3A38AAA38BA",
"H  c #B6A78CFF39AE",
"J  c #B8CB8EA63A5B",
"K  c #BB2090723B18",
"L  c #BB5090973B27",
"P  c #BE3092CF3C0F",
"I  c #BFE994243C9B",
"U  c #C16495493D13",
"Y  c #C40A97543DE8",
"T  c #C6C499703EC5",
"R  c #CB9A9D2B404C",
"E  c #CCC29E0F40A9",
"W  c #CF3E9FFB4172",
"Q  c #CFDAA07241A3",
"!  c #D36FA33642C5",
"~  c #D54BA4A6435B",
"^  c #D769A6484406",
"/  c #D7F4A6B34432",
"(  c #D8DDA767447C",
")  c #D9BBA81344C2",
"_  c #DA06A84D44D9",
"`  c #DA92A8BA4506",
"'  c #DCBEAA6645B5",
"]  c #DD48AAD045E1",
"[  c #DF7EAC854693",
"{  c #DFDDACCF46B2",
"}  c #E119ADC34715",
"|  c #E664B1D848C1",
" . c #E74BB28B490A",
".. c #E79DB2CA4924",
/* pixels */
"........................................................................",
"........................................................................",
"........................................................................",
"........................................................................",
"........................................................................",
"........................................................................",
"........................................................................",
"........................................................................",
"........................................................................",
"........~ N l l V _ ...._ d d d d d d d d d f ........J d h ............",
"......f       & $   N ..S                 =   ........2 ;   ............",
"....v   &         >   L H                 5   ..{ W z   2   ............",
"....      b ^ R 2   e y ..U U U U U U q @   S ..        2   ............",
".._   7   ......P   4   ............n   > h ....        2   ............",
"..W     r ......S   7 $ ..........^   7   { ....F F F   2   ............",
"....~ ~ [ ....T     > c ..........t     S ............  2   ............",
"..........( p     1 > ' ........U   q w ..............  2   ............",
"........m     =   u ( ..........8     K ..............  2   ............",
"......i   *   > Z ............Q   q > ................  2   ............",
"....a   2   V ................s   > M ................  2   ............",
"..{   2   U U U U U U Y ......$     ~ ................  2   ............",
"..V   >                 ....Q   q & ..................  2   ............",
"..h                 ;   ....c   e s ..................  ;   ............",
"..L d d d d d d d d d h ....J d d F ..................d d h ............",
"........................................................................",
"........................................................................",
"........................................................................",
"........................................................................",
"........................................................................",
"........................................................................",
"........................................................................",
"........................................................................",
"........................................................................",
"........................................................................",
"........................................................................",
"........................................................................"
};
