/* XPM */
static char *empty-0-LB-67[] = {
/* columns rows colors chars-per-pixel */
"36 36 97 2",
"   c #000A00080003",
".  c #01A901480086",
"X  c #026401D800C1",
"o  c #02B4021600DA",
"O  c #0315026100F9",
"+  c #036802A10113",
"@  c #03F2030C013F",
"#  c #048B0381016F",
"$  c #051B03F1019D",
"%  c #05BB046D01CF",
"&  c #06CD05400225",
"*  c #0841065F029B",
"=  c #09FF07B80328",
"-  c #0AB908470363",
";  c #0CB009CB0402",
":  c #11C60DB8059D",
">  c #1BEE158F08D2",
",  c #201018C00A20",
"<  c #26E61E070C49",
"1  c #27281E3A0C5D",
"2  c #2F1724590EDF",
"3  c #2F7924A50EFE",
"4  c #31B0265B0FB0",
"5  c #3D282F351350",
"6  c #4D673BC01871",
"7  c #4ED83CDD18E6",
"8  c #520E3F5719E9",
"9  c #52713FA41A09",
"0  c #58D344911C0D",
"q  c #5EBD49211DEB",
"w  c #60534A5B1E6B",
"e  c #64474D691FAB",
"r  c #65444E2B1FFB",
"t  c #656A4E492007",
"y  c #67CF502220C8",
"u  c #6858508C20F3",
"i  c #6A1551E32180",
"p  c #6A9F524E21AC",
"a  c #6AB7526021B3",
"s  c #6E46552022D3",
"d  c #6E6F553F22E0",
"f  c #6ED4558D22FF",
"g  c #798C5DD32662",
"h  c #7B895F5D2703",
"j  c #7FE062B52861",
"k  c #82C764F4294C",
"l  c #83936591298D",
"z  c #85D767512A44",
"x  c #865A67B62A6D",
"c  c #87E568E72AEA",
"v  c #89BD6A532B7F",
"b  c #8D246CF32C92",
"n  c #8F286E812D35",
"m  c #953F73352F21",
"M  c #959E737E2F3F",
"N  c #974274C32FC4",
"B  c #9835757F3011",
"V  c #990F76273056",
"C  c #99C476B2308F",
"Z  c #9E797A55320B",
"A  c #A2FB7DCF3378",
"S  c #A4047E9C33CB",
"D  c #A5347F86342B",
"F  c #ACDF85723697",
"G  c #AD98860136D2",
"H  c #AF168727374A",
"J  c #AFDA87BF3788",
"K  c #B0F3889737E1",
"L  c #B4FA8BB33927",
"P  c #B9258EEC3A77",
"I  c #B9FF8F943ABC",
"U  c #C166954A3D13",
"Y  c #C263960E3D63",
"T  c #C4FB980E3E34",
"R  c #C8869ACA3F53",
"E  c #CB509CF14034",
"W  c #CDEA9EF34106",
"Q  c #CEE79FB74156",
"!  c #D04CA0CA41C7",
"~  c #D1A2A1D24233",
"^  c #D287A283427B",
"/  c #D3A8A36242D7",
"(  c #D4D9A44D4337",
")  c #D5F7A52A4391",
"_  c #D6CBA5CE43D4",
"`  c #D7A8A679441A",
"'  c #D893A72E4464",
"]  c #DB15A91E452F",
"[  c #DDECAB4F4615",
"{  c #E1C9AE4A474D",
"}  c #E2C7AF0E479D",
"|  c #E2E6AF2647A7",
" . c #E463B04C481F",
".. c #E56CB1194873",
"X. c #E68DB1F848CE",
"o. c #E73FB2814906",
"O. c #E79DB2CA4924",
/* pixels */
"O.O.O.O.O.O.O.O.O.O.O.O.O.O.O.O.O.O.O.O.O.O.O.O.O.O.O.O.O.O.O.O.O.O.O.O.",
"O.O.O.O.O.O.O.O.O.O.O.O.O.O.O.O.O.O.O.O.O.O.O.O.O.O.O.O.O.O.O.O.O.O.O.O.",
"O.O.O.O.O.O.O.O.O.O.O.O.O.O.O.O.O.O.O.O.O.O.O.O.O.O.O.O.O.O.O.O.O.O.O.O.",
"O.O.O.O.O.O.O.O.O.O.O.O.O.O.O.O.O.O.O.O.O.O.O.O.O.O.O.O.O.O.O.O.O.O.O.O.",
"O.O.O.O.O.O.O.O.O.O.O.O.O.O.O.O.O.O.O.O.O.O.O.O.O.O.O.O.O.O.O.O.O.O.O.O.",
"O.O.O.O.O.O.O.O.O.O.O.O.O.O.O.O.O.O.O.O.O.O.O.O.O.O.O.O.O.O.O.O.O.O.O.O.",
"O.O.O.O.O.O.O.O.O.O.O.O.O.O.O.O.O.O.O.O.O.O.O.O.O.O.O.O.O.O.O.O.O.O.O.O.",
"O.O.O.O.O.O.O.O.O.O.O.O.O.O.O.O.O.O.O.O.O.O.O.O.O.O.O.O.O.O.O.O.O.O.O.O.",
"O.O.O.O.O.O.O.O.O.O.O.O.O.O.O.O.O.O.O.O.O.O.O.O.O.O.O.O.O.O.O.O.O.O.O.O.",
"O.O.O.O.O.O.O.O.O.O.' m f c I O.O.b y r r r r r r y r P O.O.O.O.O.O.O.O.",
"O.O.O.O.O.O.O.O.O.C       #   7 O.2                 & n O.O.O.O.O.O.O.O.",
"O.O.O.O.O.O.O.O.K               z 4                   n O.O.O.O.O.O.O.O.",
"O.O.O.O.O.O.O.O.-     f ^ S       Q U U U U U U   # < O.O.O.O.O.O.O.O.O.",
"O.O.O.O.O.O.O.R       O.O.O.;     ) O.O.O.O.O.:     Q O.O.O.O.O.O.O.O.O.",
"O.O.O.O.O.O.O.Z #   y C f c L O.O.O.O.O.O.O.k     C O.O.O.O.O.O.O.O.O.O.",
"O.O.O.O.O.O.O.g # &       #   3 ) O.O.O.O.Q     > O.O.O.O.O.O.O.O.O.O.O.",
"O.O.O.O.O.O.O.p     &   <   & & 5 O.O.O.O.8 #   I O.O.O.O.O.O.O.O.O.O.O.",
"O.O.O.O.O.O.O.f     & ] O.)       E O.O.Q     1 O.O.O.O.O.O.O.O.O.O.O.O.",
"O.O.O.O.O.O.O.l & & l O.O.O.7     D O.O.r #   F O.O.O.O.O.O.O.O.O.O.O.O.",
"O.O.O.O.O.O.O.F   & r O.O.O.4     K O.{       { O.O.O.O.O.O.O.O.O.O.O.O.",
"O.O.O.O.O.O.O.[       S ' m       / O.L     0 O.O.O.O.O.O.O.O.O.O.O.O.O.",
"O.O.O.O.O.O.O.O.g               p O.O.e     F O.O.O.O.O.O.O.O.O.O.O.O.O.",
"O.O.O.O.O.O.O.O.O.8   &       q { O.O.      ) O.O.O.O.O.O.O.O.O.O.O.O.O.",
"O.O.O.O.O.O.O.O.O.O.T l y C U O.O.O.O.p y p O.O.O.O.O.O.O.O.O.O.O.O.O.O.",
"O.O.O.O.O.O.O.O.O.O.O.O.O.O.O.O.O.O.O.O.O.O.O.O.O.O.O.O.O.O.O.O.O.O.O.O.",
"O.O.O.O.O.O.O.O.O.O.O.O.O.O.O.O.O.O.O.O.O.O.O.O.O.O.O.O.O.O.O.O.O.O.O.O.",
"O.O.O.O.O.O.O.O.O.O.O.O.O.O.O.O.O.O.O.O.O.O.O.O.O.O.O.O.O.O.O.O.O.O.O.O.",
"O.O.O.O.O.O.O.O.O.O.O.O.O.O.O.O.O.O.O.O.O.O.O.O.O.O.O.O.O.O.O.O.O.O.O.O.",
"O.O.O.O.O.O.O.O.O.O.O.O.O.O.O.O.O.O.O.O.O.O.O.O.O.O.O.O.O.O.O.O.O.O.O.O.",
"O.O.O.O.O.O.O.O.O.O.O.O.O.O.O.O.O.O.O.O.O.O.O.O.O.O.O.O.O.O.O.O.O.O.O.O.",
"O.O.O.O.O.O.O.O.O.O.O.O.O.O.O.O.O.O.O.O.O.O.O.O.O.O.O.O.O.O.O.O.O.O.O.O.",
"O.O.O.O.O.O.O.O.O.O.O.O.O.O.O.O.O.O.O.O.O.O.O.O.O.O.O.O.O.O.O.O.O.O.O.O.",
"O.O.O.O.O.O.O.O.O.O.O.O.O.O.O.O.O.O.O.O.O.O.O.O.O.O.O.O.O.O.O.O.O.O.O.O.",
"O.O.O.O.O.O.O.O.O.O.O.O.O.O.O.O.O.O.O.O.O.O.O.O.O.O.O.O.O.O.O.O.O.O.O.O.",
"O.O.O.O.O.O.O.O.O.O.O.O.O.O.O.O.O.O.O.O.O.O.O.O.O.O.O.O.O.O.O.O.O.O.O.O.",
"O.O.O.O.O.O.O.O.O.O.O.O.O.O.O.O.O.O.O.O.O.O.O.O.O.O.O.O.O.O.O.O.O.O.O.O."
};
