/* XPM */
static char *empty-0-LB-316[] = {
/* columns rows colors chars-per-pixel */
"36 36 120 2",
"   c #000800060003",
".  c #010A00CC0054",
"X  c #01BD0158008D",
"o  c #026F01E100C4",
"O  c #02AD021100D8",
"+  c #0318026300FA",
"@  c #038002B4011B",
"#  c #03F2030C013F",
"$  c #0481037A016C",
"%  c #050503E00196",
"&  c #05BB046D01CF",
"*  c #064E04DE01FE",
"=  c #067C0502020C",
"-  c #06E70554022D",
";  c #076005B20255",
":  c #08420660029C",
">  c #09FC07B50327",
",  c #0AB808460363",
"<  c #0CAE09CA0401",
"1  c #112A0D40056C",
"2  c #201618C50A22",
"3  c #22681A8F0ADE",
"4  c #2B1A21460D9C",
"5  c #2D6E23110E58",
"6  c #2F1524580EDE",
"7  c #319026420FA7",
"8  c #3BE92E3F12EB",
"9  c #3C8E2EBE131F",
"0  c #3D252F33134F",
"q  c #488A37FF16E8",
"w  c #4D673BC01871",
"e  c #4ED83CDD18E6",
"r  c #51423EBA19A9",
"t  c #520F3F5819EA",
"y  c #5E5848D41DCB",
"u  c #5EBC49211DEA",
"i  c #64434D651FAA",
"p  c #65554E382000",
"a  c #656A4E492007",
"s  c #67CB501F20C7",
"d  c #6A2451EE2185",
"f  c #6A9F524E21AC",
"g  c #6AB5525E21B2",
"h  c #6BF653572218",
"j  c #6CB053E62252",
"k  c #6DE554D422B4",
"l  c #6E70554022E0",
"z  c #6ED4558C22FF",
"x  c #6FC55647234C",
"c  c #798C5DD32662",
"v  c #7A715E8426AA",
"b  c #7B8A5F5D2703",
"n  c #7D1E60952783",
"m  c #7EBA61D32805",
"M  c #7F686259283C",
"N  c #82C864F4294D",
"B  c #83936591298D",
"V  c #85D4674E2A43",
"C  c #865A67B62A6E",
"Z  c #87E468E62AEA",
"A  c #88C469932B31",
"S  c #89A46A402B77",
"D  c #89E96A752B8D",
"F  c #953F73352F21",
"G  c #95EC73BB2F58",
"H  c #974D74CB2FC8",
"J  c #990F76273056",
"K  c #99C476B2308F",
"L  c #9AEE779830ED",
"P  c #9CA078E73176",
"I  c #9E797A54320B",
"U  c #9ECB7A943225",
"Y  c #A0967BF632B5",
"T  c #A3297DF33386",
"R  c #A4187EAB33D2",
"E  c #A5317F84342A",
"W  c #A6CA80C034AC",
"Q  c #A9E7832735A8",
"!  c #ACC2855B368E",
"~  c #AEA286CE3726",
"^  c #AF178728374A",
"/  c #B02C87FF37A3",
"(  c #B13088C637F4",
")  c #B4EB8BA83922",
"_  c #B8228E233A26",
"`  c #B9208EE73A76",
"'  c #BA008F943ABD",
"]  c #BBEB910F3B58",
"[  c #BD9192553BDD",
"{  c #BDC6927E3BEE",
"}  c #BE0D92B53C04",
"|  c #C08994A03CCD",
" . c #C263960D3D63",
".. c #C4FF98113E35",
"X. c #C8239A7E3F34",
"o. c #C8869ACA3F53",
"O. c #CADD9C994010",
"+. c #CB4E9CF04033",
"@. c #CBDB9D5D4060",
"#. c #CD889EA840E7",
"$. c #CEDB9FAD4152",
"%. c #D04FA0CD41C8",
"&. c #D12FA17A420F",
"*. c #D287A283427B",
"=. c #D3A7A36142D6",
"-. c #D613A540439A",
";. c #D6CCA5CF43D4",
":. c #D797A66B4415",
">. c #D893A72E4464",
",. c #DB15A91D452F",
"<. c #DB89A9774553",
"1. c #DE11AB6B4620",
"2. c #E035AD1346CE",
"3. c #E0F8ADA9470B",
"4. c #E2C6AF0E479D",
"5. c #E460B04A481E",
"6. c #E55CB10C486E",
"7. c #E697B20048D1",
"8. c #E734B2784903",
"9. c #E79DB2CA4924",
/* pixels */
"9.9.9.9.9.9.9.9.9.9.9.9.9.9.9.9.9.9.9.9.9.9.9.9.9.9.9.9.9.9.9.9.9.9.9.9.",
"9.9.9.9.9.9.9.9.9.9.9.9.9.9.9.9.9.9.9.9.9.9.9.9.9.9.9.9.9.9.9.9.9.9.9.9.",
"9.9.9.9.9.9.9.9.9.9.9.9.9.9.9.9.9.9.9.9.9.9.9.9.9.9.9.9.9.9.9.9.9.9.9.9.",
"9.9.9.9.9.9.9.9.9.9.9.9.9.9.9.9.9.9.9.9.9.9.9.9.9.9.9.9.9.9.9.9.9.9.9.9.",
"9.9.9.9.9.9.9.9.9.9.9.9.9.9.9.9.9.9.9.9.9.9.9.9.9.9.9.9.9.9.9.9.9.9.9.9.",
"9.9.9.9.9.9.9.9.9.9.9.9.9.9.9.9.9.9.9.9.9.9.9.9.9.9.9.9.9.9.9.9.9.9.9.9.",
"9.9.9.9.9.9.9.9.9.9.9.9.9.9.9.9.9.9.9.9.9.9.9.9.9.9.9.9.9.9.9.9.9.9.9.9.",
"9.9.9.9.9.9.9.9.9.9.9.9.9.9.9.9.9.9.9.9.9.9.9.9.9.9.9.9.9.9.9.9.9.9.9.9.",
"9.9.9.9.9.9.9.9.9.9.9.9.9.9.9.9.9.9.9.9.9.9.9.9.9.9.9.9.9.9.9.9.9.9.9.9.",
"9.9.9.9.2.W n c R 1.9.9.9.9.9.9.9.h p [ 9.9.9.9.9.:.F h Z _ 9.9.9.9.9.9.",
"9.9.9._ @ @ @ @ @ @ W 9.9.9.9.9.X.@ - F 9.9.9.9.H @ @ @ @ @ e 9.9.9.9.9.",
"9.9.9.@ @ @ @ @ @ @ @ -.9.9.-.) 2 @ - F 9.9.9.~ @ @ @ @ @ @ @ V 9.9.9.9.",
"9.9.! @ @ @ @.&.< @ @ L 9.h @ @ @ @ @ F 9.9.9.> @ @ z &.T @ @ @ 9.9.9.9.",
"9.9.V @ % V 9.9.Z - @ h 9.h @ @ @ @ - F 9.9.o.@ @ @ 9.9.9.> @ @ -.9.9.9.",
"9.9.h @ @ K 9.9.z @ @ Z 9.#.( ( i @ % F 9.9.L @ @ i K z Z ( 5.9.9.9.9.9.",
"9.9.9.9.9.} 3 - @ @ @ -.9.9.9.9.i @ - F 9.9.c @ % @ @ @ @ @ 6 =.9.9.9.9.",
"9.9.9.9.9.~ @ @ @ @ 4 #.9.9.9.9.i @ @ F 9.9.h @ @ @ @ 2 @ % @ 9 9.9.9.9.",
"9.9.9.9.9.@.i e @ @ @ @ 2.9.9.9.p @ - F 9.9.z @ @ - ,.9.&.@ @ @ @.9.9.9.",
"9.9.L i y ] 9.9.9.3 @ @ / 9.9.9.i @ - F 9.9.N @ % V 9.9.9.w @ @ E 9.9.9.",
"9.9.z @ - M 9.9.9.w @ @ Y 9.9.9.i @ - F 9.9.~ @ % s 9.9.9.6 @ @ ( 9.9.9.",
"9.9.L @ @ @  .-.Q @ @ @ o.9.9.9.i @ - F 9.9.1.@ @ @ T -.F @ @ @ &.9.9.9.",
"9.9.,.@ @ @ @ @ @ @ @ 8 9.9.9.9.i @ - F 9.9.9.c @ @ @ @ @ @ @ s 9.9.9.9.",
"9.9.9.[ @ @ @ @ @ @ 8 >.9.9.9.9.i @ @ F 9.9.9.9.e @ - @ @ @ y 5.9.9.9.9.",
"9.9.9.9.2.~ c h F [ 9.9.9.9.9.9.T i p [ 9.9.9.9.9. .N i H } 9.9.9.9.9.9.",
"9.9.9.9.9.9.9.9.9.9.9.9.9.9.9.9.9.9.9.9.9.9.9.9.9.9.9.9.9.9.9.9.9.9.9.9.",
"9.9.9.9.9.9.9.9.9.9.9.9.9.9.9.9.9.9.9.9.9.9.9.9.9.9.9.9.9.9.9.9.9.9.9.9.",
"9.9.9.9.9.9.9.9.9.9.9.9.9.9.9.9.9.9.9.9.9.9.9.9.9.9.9.9.9.9.9.9.9.9.9.9.",
"9.9.9.9.9.9.9.9.9.9.9.9.9.9.9.9.9.9.9.9.9.9.9.9.9.9.9.9.9.9.9.9.9.9.9.9.",
"9.9.9.9.9.9.9.9.9.9.9.9.9.9.9.9.9.9.9.9.9.9.9.9.9.9.9.9.9.9.9.9.9.9.9.9.",
"9.9.9.9.9.9.9.9.9.9.9.9.9.9.9.9.9.9.9.9.9.9.9.9.9.9.9.9.9.9.9.9.9.9.9.9.",
"9.9.9.9.9.9.9.9.9.9.9.9.9.9.9.9.9.9.9.9.9.9.9.9.9.9.9.9.9.9.9.9.9.9.9.9.",
"9.9.9.9.9.9.9.9.9.9.9.9.9.9.9.9.9.9.9.9.9.9.9.9.9.9.9.9.9.9.9.9.9.9.9.9.",
"9.9.9.9.9.9.9.9.9.9.9.9.9.9.9.9.9.9.9.9.9.9.9.9.9.9.9.9.9.9.9.9.9.9.9.9.",
"9.9.9.9.9.9.9.9.9.9.9.9.9.9.9.9.9.9.9.9.9.9.9.9.9.9.9.9.9.9.9.9.9.9.9.9.",
"9.9.9.9.9.9.9.9.9.9.9.9.9.9.9.9.9.9.9.9.9.9.9.9.9.9.9.9.9.9.9.9.9.9.9.9.",
"9.9.9.9.9.9.9.9.9.9.9.9.9.9.9.9.9.9.9.9.9.9.9.9.9.9.9.9.9.9.9.9.9.9.9.9."
};
