/* XPM */
static char *empty-0-LB-A[] = {
/* columns rows colors chars-per-pixel */
"36 36 57 1",
"  c #000800070003",
". c #0173011F0075",
"X c #023501B400B3",
"o c #02C0021F00DE",
"O c #032B02720100",
"+ c #032F02750101",
"@ c #044103490158",
"# c #052103F6019F",
"$ c #0590044B01C2",
"% c #072605840242",
"& c #0F3B0BC204CF",
"* c #1D6F16B9094C",
"= c #1E57176B0995",
"- c #20BC19450A56",
"; c #22E61AF00B05",
": c #285E1F290CBF",
"> c #2DF323780E83",
", c #301925210F30",
"< c #36F42A6B115A",
"1 c #3E0F2FE81399",
"2 c #4D2C3B92185F",
"3 c #627D4C071F1A",
"4 c #65554E382000",
"5 c #6858508C20F3",
"6 c #76905B862571",
"7 c #7B085EF826DA",
"8 c #7C595FFD2744",
"9 c #7EC961DF2809",
"0 c #801B62E42874",
"q c #8AFC6B492BE4",
"w c #8DE56D882CCF",
"e c #9692743B2F8C",
"r c #998A7686307C",
"t c #A0E87C3532D0",
"y c #A1A57CC7330C",
"u c #A4DD7F433410",
"i c #A791815934EA",
"p c #AA8983A435DA",
"a c #B4348B1B38E8",
"s c #BF7493CA3C75",
"d c #C9BA9BB83FB4",
"f c #CC959DEC409B",
"g c #CD889EA840E7",
"h c #CF4DA0064177",
"j c #D265A2694271",
"k c #D51CA482434C",
"l c #D675A58C43B9",
"z c #D784A65D440F",
"x c #D95EA7CB44A4",
"c c #DBEDA9C54573",
"v c #DDE3AB484612",
"b c #DF37AC4F467E",
"n c #E0A0AD6546EF",
"m c #E32BAF5C47BD",
"M c #E5FDB18948A1",
"N c #E776B2AC4918",
"B c #E79DB2CA4924",
/* pixels */
"BBBBBBBBBBBBBBBBBBBBBBBBBBBBBBBBBBBB",
"BBBBBBBBBBBBBBBBBBBBBBBBBBBBBBBBBBBB",
"BBBBBBBBBBBBBBBBBBBBBBBBBBBBBBBBBBBB",
"BBBBBBBBBBBBBBBBBBBBBBBBBBBBBBBBBBBB",
"BBBBBBBBBBBBBBBBBBBBBBBBBBBBBBBBBBBB",
"BBBBBBBBBBBBBBBBBBBBBBBBBBBBBBBBBBBB",
"BBBBBBBBBBBBBBBBBBBBBBBBBBBBBBBBBBBB",
"BBBBBBBBBBBBBBBBBBBBBBBBBBBBBBBBBBBB",
"BBBBBBBBBBBBBBBf444mBBBBBBBBBBBBBBBB",
"BBBBBBBBBBBBBBB6%  pBBBBBBBBBBBBBBBB",
"BBBBBBBBBBBBBBB    1BBBBBBBBBBBBBBBB",
"BBBBBBBBBBBBBBs     cBBBBBBBBBBBBBBB",
"BBBBBBBBBBBBBB3#%*  yBBBBBBBBBBBBBBB",
"BBBBBBBBBBBBBm   w# >BBBBBBBBBBBBBBB",
"BBBBBBBBBBBBBa   f   xBBBBBBBBBBBBBB",
"BBBBBBBBBBBBB2 %9B%  eBBBBBBBBBBBBBB",
"BBBBBBBBBBBBb   dB8% =BBBBBBBBBBBBBB",
"BBBBBBBBBBBBi  #;;;   jBBBBBBBBBBBBB",
"BBBBBBBBBBBB<        %qBBBBBBBBBBBBB",
"BBBBBBBBBBBx   44444  &BBBBBBBBBBBBB",
"BBBBBBBBBBBr  :BBBBl   fBBBBBBBBBBBB",
"BBBBBBBBBBB;  yBBBBB, %0BBBBBBBBBBBB",
"BBBBBBBBBBj   cBBBBBu   BBBBBBBBBBBB",
"BBBBBBBBBBl43qBBBBBBb445BBBBBBBBBBBB",
"BBBBBBBBBBBBBBBBBBBBBBBBBBBBBBBBBBBB",
"BBBBBBBBBBBBBBBBBBBBBBBBBBBBBBBBBBBB",
"BBBBBBBBBBBBBBBBBBBBBBBBBBBBBBBBBBBB",
"BBBBBBBBBBBBBBBBBBBBBBBBBBBBBBBBBBBB",
"BBBBBBBBBBBBBBBBBBBBBBBBBBBBBBBBBBBB",
"BBBBBBBBBBBBBBBBBBBBBBBBBBBBBBBBBBBB",
"BBBBBBBBBBBBBBBBBBBBBBBBBBBBBBBBBBBB",
"BBBBBBBBBBBBBBBBBBBBBBBBBBBBBBBBBBBB",
"BBBBBBBBBBBBBBBBBBBBBBBBBBBBBBBBBBBB",
"BBBBBBBBBBBBBBBBBBBBBBBBBBBBBBBBBBBB",
"BBBBBBBBBBBBBBBBBBBBBBBBBBBBBBBBBBBB",
"BBBBBBBBBBBBBBBBBBBBBBBBBBBBBBBBBBBB"
};
