/* XPM */
static char *empty-0-LB-174[] = {
/* columns rows colors chars-per-pixel */
"36 36 67 1",
"  c #000400030001",
". c #01D001660093",
"X c #023901B700B3",
"o c #02C6022400E0",
"O c #033002750102",
"+ c #03FD03140143",
"@ c #04B303A0017C",
"# c #0531040201A4",
"$ c #059E045601C6",
"% c #065504E30200",
"& c #069905180215",
"* c #0A2907D80335",
"= c #11C60DB8059D",
"- c #1BEE158F08D2",
"; c #201E18CB0A24",
": c #22E61AF00B05",
"> c #26E61E070C49",
", c #27281E3A0C5D",
"< c #2F7924A50EFE",
"1 c #30B125960F60",
"2 c #31D026740FBB",
"3 c #383E2B6A11C3",
"4 c #52713FA41A09",
"5 c #58D344911C0D",
"6 c #604B4A551E68",
"7 c #62B14C2F1F2A",
"8 c #65514E351FFF",
"9 c #6858508C20F3",
"0 c #6A9F524E21AC",
"q c #6AB3525E21B2",
"w c #6BFB535B2219",
"e c #6CB253E72253",
"r c #7FE062B52861",
"t c #857767072A26",
"y c #87C868D12AE1",
"u c #8D246CF32C92",
"i c #8E8E6E0B2D04",
"p c #8F286E812D35",
"a c #95F573C12F5B",
"s c #9835757F3011",
"d c #A3597E183395",
"f c #AA03833C35B0",
"g c #ACDF85723697",
"h c #AD98860136D2",
"j c #B14588D737FB",
"k c #B5088BBE392B",
"l c #B9248EEA3A77",
"z c #BDC7927F3BEE",
"x c #C166954A3D13",
"c c #C4AA97D03E1B",
"v c #C8249A7F3F34",
"b c #CDEA9EF34106",
"n c #CEE19FB34154",
"m c #D04CA0CA41C7",
"M c #D1A2A1D24233",
"N c #D439A3D24304",
"B c #D4D9A44D4337",
"V c #D581A4CF436C",
"C c #D7C0A68B4422",
"Z c #E1AAAE324743",
"A c #E1C9AE4A474D",
"S c #E2E6AF2647A7",
"D c #E463B04C481F",
"F c #E57CB1264878",
"G c #E6ADB21048D8",
"H c #E72DB2734900",
"J c #E79DB2CA4924",
/* pixels */
"JJJJJJJJJJJJJJJJJJJJJJJJJJJJJJJJJJJJ",
"JJJJJJJJJJJJJJJJJJJJJJJJJJJJJJJJJJJJ",
"JJJJJJJJJJJJJJJJJJJJJJJJJJJJJJJJJJJJ",
"JJJJJJJJJJJJJJJJJJJJJJJJJJJJJJJJJJJJ",
"JJJJJJJJJJJJJJJJJJJJJJJJJJJJJJJJJJJJ",
"JJJJJJJJJJJJJJJJJJJJJJJJJJJJJJJJJJJJ",
"JJJJJJJJJJJJJJJJJJJJJJJJJJJJJJJJJJJJ",
"JJJJJJJJJJJJJJJJJJJJJJJJJJJJJJJJJJJJ",
"JJJJJJJJJJJJJJJJJJJJJJJJJJJJJJJJJJJJ",
"JJJJJJJJq8zJu888888888lJJJJe8dJJJJJJ",
"JJJJJJJv $aJ<        $uJJJu  8JJJJJJ",
"JJJJJCl;@$aJ2         uJJc   8JJJJJJ",
"JJJJe  @ $aJnxxxxxx @>JJA*   8JJJJJJ",
"JJJJq    $aJJJJJJJ=  MJJ7$ $ 8JJJJJJ",
"JJJJnjj8 $sJJJJJJt  sJJf $3$ 8JJJJJJ",
"JJJJJJJ8 $sJJJJJn  -JJN   s$ 8JJJJJJ",
"JJJJJJJ8 $aJJJJJ4$ lJJ2@ fa$ 8JJJJJJ",
"JJJJJJJ8 $aJJJJn  >JJt @7Js$ 8JJJJJJ",
"JJJJJJJ8 $aJJJJ8$ hJC   :::@ ::yJJJJ",
"JJJJJJJ8 $aJJJA   AJB          8JJJJ",
"JJJJJJJ8 $sJJJk  5JJA888888$ 88dJJJJ",
"JJJJJJJ8 $aJJJ7  hJJJJJJJJs$ 8JJJJJJ",
"JJJJJJJ8 $aJJJ   BJJJJJJJJa$ 8JJJJJJ",
"JJJJJJJd88zJJJq8qJJJJJJJJJz88dJJJJJJ",
"JJJJJJJJJJJJJJJJJJJJJJJJJJJJJJJJJJJJ",
"JJJJJJJJJJJJJJJJJJJJJJJJJJJJJJJJJJJJ",
"JJJJJJJJJJJJJJJJJJJJJJJJJJJJJJJJJJJJ",
"JJJJJJJJJJJJJJJJJJJJJJJJJJJJJJJJJJJJ",
"JJJJJJJJJJJJJJJJJJJJJJJJJJJJJJJJJJJJ",
"JJJJJJJJJJJJJJJJJJJJJJJJJJJJJJJJJJJJ",
"JJJJJJJJJJJJJJJJJJJJJJJJJJJJJJJJJJJJ",
"JJJJJJJJJJJJJJJJJJJJJJJJJJJJJJJJJJJJ",
"JJJJJJJJJJJJJJJJJJJJJJJJJJJJJJJJJJJJ",
"JJJJJJJJJJJJJJJJJJJJJJJJJJJJJJJJJJJJ",
"JJJJJJJJJJJJJJJJJJJJJJJJJJJJJJJJJJJJ",
"JJJJJJJJJJJJJJJJJJJJJJJJJJJJJJJJJJJJ"
};
