/* XPM */
static char *empty-0-LB-40[] = {
/* columns rows colors chars-per-pixel */
"36 36 89 1",
"  c #000300020001",
". c #0487037F016E",
"X c #05EC049201DF",
"o c #067904FF020B",
"O c #072605850242",
"+ c #0A5007F60342",
"@ c #0AF508750376",
"# c #0C8F09B203F7",
"$ c #0DBA0A990456",
"% c #10E70D0C0556",
"& c #12270E0305BB",
"* c #12EC0E9B05FA",
"= c #13320ED10610",
"- c #14800FD30679",
"; c #17F2127C0790",
": c #183312AE07A4",
"> c #196313990804",
", c #1C1115AA08DD",
"< c #1E2817480986",
"1 c #2086191B0A46",
"2 c #221A1A530AC5",
"3 c #22C91AD90AFC",
"4 c #231D1B1B0B17",
"5 c #23F91BC40B5C",
"6 c #26E71E080C49",
"7 c #28B41F6B0CDA",
"8 c #294A1FDF0D0A",
"9 c #29641FF40D12",
"0 c #2A1E20830D4D",
"q c #2A7620C60D69",
"w c #2D5222FC0E50",
"e c #2D92232D0E64",
"r c #2F9A24BF0F08",
"t c #2FD124EA0F1A",
"y c #361829C21115",
"u c #3B022D8D12A2",
"i c #4E603C8018C0",
"p c #512E3EAB19A3",
"a c #560742681B2A",
"s c #5A07457F1C6E",
"d c #5B67468E1CDD",
"f c #60F34AD71E9E",
"g c #65554E382000",
"h c #6D7C54832293",
"j c #701856872366",
"k c #72F958C0244F",
"l c #77A05C5725C7",
"z c #7B0C5EFC26DB",
"x c #7F096210281E",
"c c #7F366233282C",
"v c #896B6A142B65",
"b c #9DC679CA31D3",
"n c #A0677BD232A7",
"m c #A51F7F763425",
"M c #A66D8078348E",
"N c #A764813634DC",
"B c #A91982883566",
"V c #AA0A834235B2",
"C c #B069882D37B5",
"Z c #B52F8BDC3937",
"A c #B71A8D5839D2",
"S c #B9218EE83A76",
"D c #BB56909C3B29",
"F c #BE1792BC3C07",
"G c #C402974F3DE6",
"H c #C59398833E64",
"J c #C67499323EAB",
"K c #C7F29A583F24",
"L c #C8619AAD3F47",
"P c #CBC99D4F405A",
"I c #CC2E9D9D407A",
"U c #D3E6A39242EA",
"Y c #D49BA41E4323",
"T c #D60FA53E4399",
"R c #D7B8A6864420",
"E c #D923A79D4492",
"W c #DA1AA85C44DF",
"Q c #DBA3A98B455C",
"! c #DD85AAFF45F4",
"~ c #DE71ABB5463F",
"^ c #DF06AC29466E",
"/ c #E0C7AD8446FC",
"( c #E0F4ADA6470A",
") c #E11BADC44716",
"_ c #E394AFAD47DE",
"` c #E4C0B094483C",
"' c #E52BB0E7485E",
"] c #E6E3B23B48E9",
"[ c #E79DB2CA4924",
/* pixels */
"[[[[[[[[[[[[[[[[[[[[[[[[[[[[[[[[[[[[",
"[[[[[[[[[[[[[[[[[[[[[[[[[[[[[[[[[[[[",
"[[[[[[[[[[[[[[[[[[[[[[[[[[[[[[[[[[[[",
"[[[[[[[[[[[[[[[[[[[[[[[[[[[[[[[[[[[[",
"[[[[[[[[[[[[[[[[[[[[[[[[[[[[[[[[[[[[",
"[[[[[[[[[[[[[[[[[[[[[[[[[[[[[[[[[[[[",
"[[[[[[[[[[[[[[[[[[[[[[[[[[[[[[[[[[[[",
"[[[[[[[[[[[[[[[[[[[[[[[[[[[[[[[[[[[[",
"[[[[[[[[[[[[[[[[[[[[[[[[[[[[[[[[[[[[",
"[[[[[[[[[[[[Dgg_[[[[_mkzC[[[[[[[[[[[",
"[[[[[[[[[[[Q   E[[[D   @ *Y[[[[[[[[[",
"[[[[[[[[[[[r   E[[!  *   27[[[[[[[[[",
"[[[[[[[[[[x    E[[f 6 HS   Z[[[[[[[[",
"[[[[[[[[[G 5   E[[+  m[[i rd[[[[[[[[",
"[[[[[[[[[$O    E[[ . E[[N e:[[[[[[[[",
"[[[[[[[[i  z   E[[ : _[[K 2 [[[[[[[[",
"[[[[[[[m 62[   E[[ , [[[Y , [[[[[[[[",
"[[[[[[T - I[   E[[ > _[[H 2 [[[[[[[[",
"[[[[[[y  222   27^ O Q[[V 0e[[[[[[[[",
"[[[[[[0          E#  V[[a 7d[[[[[[[[",
"[[[[[[bggggg   gg_j 0*YP   G[[[[[[[[",
"[[[[[[[[[[[[   E[[_  *   ;2[[[[[[[[[",
"[[[[[[[[[[[[   E[[[K.  O u![[[[[[[[[",
"[[[[[[[[[[[[jgg_[[[[!AxvD[[[[[[[[[[[",
"[[[[[[[[[[[[[[[[[[[[[[[[[[[[[[[[[[[[",
"[[[[[[[[[[[[[[[[[[[[[[[[[[[[[[[[[[[[",
"[[[[[[[[[[[[[[[[[[[[[[[[[[[[[[[[[[[[",
"[[[[[[[[[[[[[[[[[[[[[[[[[[[[[[[[[[[[",
"[[[[[[[[[[[[[[[[[[[[[[[[[[[[[[[[[[[[",
"[[[[[[[[[[[[[[[[[[[[[[[[[[[[[[[[[[[[",
"[[[[[[[[[[[[[[[[[[[[[[[[[[[[[[[[[[[[",
"[[[[[[[[[[[[[[[[[[[[[[[[[[[[[[[[[[[[",
"[[[[[[[[[[[[[[[[[[[[[[[[[[[[[[[[[[[[",
"[[[[[[[[[[[[[[[[[[[[[[[[[[[[[[[[[[[[",
"[[[[[[[[[[[[[[[[[[[[[[[[[[[[[[[[[[[[",
"[[[[[[[[[[[[[[[[[[[[[[[[[[[[[[[[[[[["
};
