/* XPM */
static char *empty-0-LB-312[] = {
/* columns rows colors chars-per-pixel */
"36 36 112 2",
"   c #000900070003",
".  c #010A00CC0054",
"X  c #01DA016E0096",
"o  c #025001C900BB",
"O  c #02A9020E00D7",
"+  c #0322026B00FD",
"@  c #037902AE0119",
"#  c #048A0381016F",
"$  c #059C045401C6",
"%  c #064E04DF01FE",
"&  c #067C0502020C",
"*  c #06CC053F0225",
"=  c #076005B20255",
"-  c #0B2208980384",
";  c #112A0D40056C",
":  c #184212BA07A9",
">  c #201C18C90A24",
",  c #22681A8F0ADE",
"<  c #23BE1B970B49",
"1  c #2B1A21460D9C",
"2  c #2D6E23110E58",
"3  c #3189263D0FA4",
"4  c #3326277C1027",
"5  c #39572C43121B",
"6  c #3BE92E3F12EB",
"7  c #3C8E2EBE131F",
"8  c #3F7430FB140A",
"9  c #3FA1311E1418",
"0  c #46E836BC1664",
"q  c #488A37FF16E8",
"w  c #51423EBA19A9",
"e  c #534240451A4B",
"r  c #5E5848D41DCB",
"t  c #65554E382000",
"y  c #65AB4E7B201B",
"u  c #65D64E9C2028",
"i  c #6A3451FC218A",
"p  c #6A9F524E21AC",
"a  c #6AB2525C21B1",
"s  c #6BF953592218",
"d  c #6CB053E62252",
"f  c #6DDB54CD22B1",
"g  c #6FC55647234C",
"h  c #73D059672493",
"j  c #7A715E8426AA",
"k  c #7D1E60952783",
"l  c #7D8360E327A2",
"z  c #7EBA61D32805",
"x  c #7F686259283C",
"c  c #813663BE28CE",
"v  c #86BD68032A8D",
"b  c #88C469932B31",
"n  c #898B6A2C2B6F",
"m  c #89E96A752B8D",
"M  c #8CA86C942C6B",
"N  c #922970D42E28",
"B  c #95F273C02F5A",
"V  c #975874D42FCB",
"C  c #98287575300D",
"Z  c #99F276D6309D",
"A  c #9AEE779830ED",
"S  c #9CA078E73176",
"D  c #9D83799731BE",
"F  c #9ECB7A943225",
"G  c #A0967BF632B5",
"H  c #A3597E183395",
"J  c #A42C7EBA33D8",
"K  c #A69D809D349D",
"L  c #A6CA80C034AC",
"P  c #A9E7832735A8",
"I  c #AAE083E735F6",
"U  c #ACC2855B368E",
"Y  c #AEA286CE3726",
"T  c #AFAA879A3779",
"R  c #B03F880D37A9",
"E  c #B14588D737FB",
"W  c #B8228E233A26",
"Q  c #B9208EE73A76",
"!  c #B9E08F7C3AB2",
"~  c #BBEB910F3B58",
"^  c #BD9192553BDD",
"/  c #BDC6927E3BEE",
"(  c #BE0D92B53C04",
")  c #C08994A03CCD",
"_  c #C16395483D12",
"`  c #C4B697D93E1E",
"'  c #C50198133E36",
"]  c #C52C98343E44",
"[  c #C5D298B43E78",
"{  c #C8239A7E3F34",
"}  c #CADD9C994010",
"|  c #CBDB9D5D4060",
" . c #CD889EA840E7",
".. c #CEDB9FAD4152",
"X. c #D04FA0CD41C8",
"o. c #D143A1894215",
"O. c #D328A2FF42AE",
"+. c #D54BA4A6435B",
"@. c #D627A54F43A0",
"#. c #D7A0A6724417",
"$. c #D9EDA83944D1",
"%. c #DB89A9774553",
"&. c #DC5FAA1C4597",
"*. c #DE23AB794626",
"=. c #E020AD0246C7",
"-. c #E0F8ADA9470B",
";. c #E431B025480F",
":. c #E5ABB14A4887",
">. c #E602B18D48A2",
",. c #E67EB1EC48C9",
"<. c #E71FB26848FC",
"1. c #E79DB2CA4924",
/* pixels */
"1.1.1.1.1.1.1.1.1.1.1.1.1.1.1.1.1.1.1.1.1.1.1.1.1.1.1.1.1.1.1.1.1.1.1.1.",
"1.1.1.1.1.1.1.1.1.1.1.1.1.1.1.1.1.1.1.1.1.1.1.1.1.1.1.1.1.1.1.1.1.1.1.1.",
"1.1.1.1.1.1.1.1.1.1.1.1.1.1.1.1.1.1.1.1.1.1.1.1.1.1.1.1.1.1.1.1.1.1.1.1.",
"1.1.1.1.1.1.1.1.1.1.1.1.1.1.1.1.1.1.1.1.1.1.1.1.1.1.1.1.1.1.1.1.1.1.1.1.",
"1.1.1.1.1.1.1.1.1.1.1.1.1.1.1.1.1.1.1.1.1.1.1.1.1.1.1.1.1.1.1.1.1.1.1.1.",
"1.1.1.1.1.1.1.1.1.1.1.1.1.1.1.1.1.1.1.1.1.1.1.1.1.1.1.1.1.1.1.1.1.1.1.1.",
"1.1.1.1.1.1.1.1.1.1.1.1.1.1.1.1.1.1.1.1.1.1.1.1.1.1.1.1.1.1.1.1.1.1.1.1.",
"1.1.1.1.1.1.1.1.1.1.1.1.1.1.1.1.1.1.1.1.1.1.1.1.1.1.1.1.1.1.1.1.1.1.1.1.",
"1.1.1.1.1.1.1.1.1.1.1.1.1.1.1.1.1.1.1.1.1.1.1.1.1.1.1.1.1.1.1.1.1.1.1.1.",
"1.1.1.1.=.K l j H *.1.1.1.1.1.1.1.s t ^ 1.1.1.1.1.W l t j W 1.1.1.1.1.1.",
"1.1.1.W @ @ @ @ @ @ K 1.1.1.1.1.{ @ * B 1.1.1.o.: @ @ @ @ @ 3 *.1.1.1.1.",
"1.1.1.@ @ @ @ @ @ @ @ @.1.1.@.W > @ * B 1.1.-.@ @ @ @ @ @ @ * 3 1.1.1.1.",
"1.1.I @ @ @ | o.- @ @ A 1.s @ @ @ @ @ B 1.1.P @ @ @ _ @.V @ @ @ { 1.1.1.",
"1.1.v @ # v 1.1.b * @ s 1.s @ @ @ @ # B 1.1.g @ @ K 1.1.1.7 @ @ F 1.1.1.",
"1.1.s @ @ Z 1.1.g @ @ b 1. .R R t @ * B 1.1.w @ @ _ 1.1.1.4 @ @ U 1.1.1.",
"1.1.1.1.1.( , * @ @ @ @.1.1.1.1.t @ * B 1.1.=.@.O.1.1.1.v @ @ @ $.1.1.1.",
"1.1.1.1.1.U @ @ @ @ 1  .1.1.1.1.t @ @ B 1.1.1.1.1.1.U - @ @ @ M 1.1.1.1.",
"1.1.1.1.1.} t w @ @ @ @ =.1.1.1.t @ # B 1.1.1.1.o.7 @ @ @ @ V 1.1.1.1.1.",
"1.1.F r r ^ 1.1.1.< @ @ U 1.1.1.t @ * B 1.1.1._ @ @ @ @ u @.1.1.1.1.1.1.",
"1.1.g @ * z 1.1.1.q @ @ H 1.1.1.t @ # B 1.1.*.@ @ @ 0 o.1.1.1.1.1.1.1.1.",
"1.1.F @ @ @ _ @.I @ @ @ | 1.1.1.t @ # B 1.1.b @ @ g ) ^ _ ( _ _ *.1.1.1.",
"1.1.%.@ @ @ @ @ @ @ @ 5 -.1.1.1.t @ * B 1.1., @ @ @ @ @ @ @ @ @ B 1.1.1.",
"1.1.1.^ @ @ @ @ @ @ 5 %.1.1.1.1.t @ @ B 1.1.@ @ @ @ @ @ @ @ @ @ B 1.1.1.",
"1.1.1.1.-.U j s B ( 1.1.1.1.1.1.G t t ^ 1.1.s t t t t t t t t t ^ 1.1.1.",
"1.1.1.1.1.1.1.1.1.1.1.1.1.1.1.1.1.1.1.1.1.1.1.1.1.1.1.1.1.1.1.1.1.1.1.1.",
"1.1.1.1.1.1.1.1.1.1.1.1.1.1.1.1.1.1.1.1.1.1.1.1.1.1.1.1.1.1.1.1.1.1.1.1.",
"1.1.1.1.1.1.1.1.1.1.1.1.1.1.1.1.1.1.1.1.1.1.1.1.1.1.1.1.1.1.1.1.1.1.1.1.",
"1.1.1.1.1.1.1.1.1.1.1.1.1.1.1.1.1.1.1.1.1.1.1.1.1.1.1.1.1.1.1.1.1.1.1.1.",
"1.1.1.1.1.1.1.1.1.1.1.1.1.1.1.1.1.1.1.1.1.1.1.1.1.1.1.1.1.1.1.1.1.1.1.1.",
"1.1.1.1.1.1.1.1.1.1.1.1.1.1.1.1.1.1.1.1.1.1.1.1.1.1.1.1.1.1.1.1.1.1.1.1.",
"1.1.1.1.1.1.1.1.1.1.1.1.1.1.1.1.1.1.1.1.1.1.1.1.1.1.1.1.1.1.1.1.1.1.1.1.",
"1.1.1.1.1.1.1.1.1.1.1.1.1.1.1.1.1.1.1.1.1.1.1.1.1.1.1.1.1.1.1.1.1.1.1.1.",
"1.1.1.1.1.1.1.1.1.1.1.1.1.1.1.1.1.1.1.1.1.1.1.1.1.1.1.1.1.1.1.1.1.1.1.1.",
"1.1.1.1.1.1.1.1.1.1.1.1.1.1.1.1.1.1.1.1.1.1.1.1.1.1.1.1.1.1.1.1.1.1.1.1.",
"1.1.1.1.1.1.1.1.1.1.1.1.1.1.1.1.1.1.1.1.1.1.1.1.1.1.1.1.1.1.1.1.1.1.1.1.",
"1.1.1.1.1.1.1.1.1.1.1.1.1.1.1.1.1.1.1.1.1.1.1.1.1.1.1.1.1.1.1.1.1.1.1.1."
};
