/* XPM */
static char *empty-0-LB-273[] = {
/* columns rows colors chars-per-pixel */
"36 36 125 2",
"   c #000B00080003",
".  c #010A00CC0054",
"X  c #01D8016D0095",
"o  c #024C01C600B9",
"O  c #02AA020E00D7",
"+  c #0322026B00FD",
"@  c #036E02A60115",
"#  c #048F03850170",
"$  c #0531040201A4",
"%  c #0597045101C4",
"&  c #063204C801F5",
"*  c #067C0502020C",
"=  c #06B3052C021E",
"-  c #076005B20255",
";  c #0B2108970384",
":  c #11760D7B0584",
">  c #184212B907A9",
",  c #1BEE158F08D2",
"<  c #22681A8F0ADE",
"1  c #23BE1B970B49",
"2  c #26E61E070C49",
"3  c #27281E3A0C5D",
"4  c #2B1A21460D9C",
"5  c #2D6E23110E58",
"6  c #2F7924A50EFE",
"7  c #31AC26580FAF",
"8  c #3326277C1027",
"9  c #39572C43121B",
"0  c #3BE82E3F12EB",
"q  c #3C8C2EBD131E",
"w  c #3F7430FB1409",
"e  c #3FA0311D1418",
"r  c #46E836BC1664",
"t  c #488A37FF16E8",
"y  c #51423EBA19A9",
"u  c #52713FA41A09",
"i  c #534440471A4C",
"p  c #58D344911C0D",
"a  c #5E5848D41DCB",
"s  c #60534A5B1E6B",
"d  c #654C4E311FFD",
"f  c #65AB4E7B201B",
"g  c #65D64E9C2028",
"h  c #6858508C20F3",
"j  c #6A3451FC218A",
"k  c #6A9F524E21AC",
"l  c #6BFA53592219",
"z  c #6DDC54CD22B1",
"x  c #6FC35645234B",
"c  c #73CF59662492",
"v  c #7A725E8526AB",
"b  c #7D1E60952783",
"n  c #7D8360E327A2",
"m  c #7EB961D22804",
"M  c #7F646256283A",
"N  c #7FE062B52861",
"B  c #813663BE28CE",
"V  c #86BD68032A8D",
"C  c #88C269912B30",
"Z  c #898A6A2B2B6F",
"A  c #89E96A752B8D",
"S  c #8CFB6CD32C85",
"D  c #8F286E812D35",
"F  c #922B70D52E28",
"G  c #95F673C22F5B",
"H  c #975874D42FCB",
"J  c #982F757A300F",
"K  c #99F176D5309D",
"L  c #9AEA779530EC",
"P  c #9C9F78E73176",
"I  c #9D87799931BF",
"U  c #9ECB7A943225",
"Y  c #A0947BF532B5",
"T  c #A42C7EBB33D8",
"R  c #A69D809D349D",
"E  c #A6CB80C134AC",
"W  c #A9E7832735A8",
"Q  c #AAE083E735F6",
"!  c #ACD185673692",
"~  c #AD98860136D2",
"^  c #AEA286CE3726",
"/  c #AFA987993779",
"(  c #B03F880D37A9",
")  c #B14488D637FB",
"_  c #B5088BBE392B",
"`  c #B8218E233A25",
"'  c #B9258EEC3A77",
"]  c #B9E08F7C3AB2",
"[  c #BBE9910E3B57",
"{  c #BD9192553BDD",
"}  c #BDC892803BEE",
"|  c #BE0D92B53C04",
" . c #C088949F3CCD",
".. c #C16495493D12",
"X. c #C4B597D83E1E",
"o. c #C50198123E36",
"O. c #C52D98353E44",
"+. c #C5D298B43E78",
"@. c #CADC9C98400F",
"#. c #CBDB9D5D4060",
"$. c #CD879EA740E7",
"%. c #CDEA9EF34106",
"&. c #CEE79FB74156",
"*. c #D04DA0CB41C7",
"=. c #D143A1894215",
"-. c #D1A2A1D24233",
";. c #D328A2FF42AE",
":. c #D4D9A44D4337",
">. c #D54BA4A6435B",
",. c #D627A54F43A0",
"<. c #D795A6694414",
"1. c #D9EEA83A44D2",
"2. c #DB88A9774553",
"3. c #DC5EAA1C4597",
"4. c #DE24AB794626",
"5. c #E020AD0246C7",
"6. c #E0F7ADA8470B",
"7. c #E1C9AE4A474D",
"8. c #E2E6AF2647A7",
"9. c #E442B0324814",
"0. c #E594B138487F",
"q. c #E602B18D48A2",
"w. c #E68EB1F848CE",
"e. c #E736B27B4904",
"r. c #E79DB2CA4924",
/* pixels */
"r.r.r.r.r.r.r.r.r.r.r.r.r.r.r.r.r.r.r.r.r.r.r.r.r.r.r.r.r.r.r.r.r.r.r.r.",
"r.r.r.r.r.r.r.r.r.r.r.r.r.r.r.r.r.r.r.r.r.r.r.r.r.r.r.r.r.r.r.r.r.r.r.r.",
"r.r.r.r.r.r.r.r.r.r.r.r.r.r.r.r.r.r.r.r.r.r.r.r.r.r.r.r.r.r.r.r.r.r.r.r.",
"r.r.r.r.r.r.r.r.r.r.r.r.r.r.r.r.r.r.r.r.r.r.r.r.r.r.r.r.r.r.r.r.r.r.r.r.",
"r.r.r.r.r.r.r.r.r.r.r.r.r.r.r.r.r.r.r.r.r.r.r.r.r.r.r.r.r.r.r.r.r.r.r.r.",
"r.r.r.r.r.r.r.r.r.r.r.r.r.r.r.r.r.r.r.r.r.r.r.r.r.r.r.r.r.r.r.r.r.r.r.r.",
"r.r.r.r.r.r.r.r.r.r.r.r.r.r.r.r.r.r.r.r.r.r.r.r.r.r.r.r.r.r.r.r.r.r.r.r.",
"r.r.r.r.r.r.r.r.r.r.r.r.r.r.r.r.r.r.r.r.r.r.r.r.r.r.r.r.r.r.r.r.r.r.r.r.",
"r.r.r.r.r.r.r.r.r.r.r.r.r.r.r.r.r.r.r.r.r.r.r.r.r.r.r.r.r.r.r.r.r.r.r.r.",
"r.r.r.r.' m d b ' r.r.r.A d d d d d d d d d ' r.r.9.Q v v T 3.r.r.r.r.r.",
"r.r.*.> @ @ @ @ @ 7 3.r.5 @ @ @ @ @ @ @ @ # S r._ @ @ @ @ @ @ T r.r.r.r.",
"r.9.% @ @ @ @ @ @ % 8 r.5 @ @ @ @ @ @ @ @ @ S r.@ @ @ @ @ @ @ @ ,.r.r.r.",
"r.Q @ @ @ | ,.K @ @ @ X.$.X.| X.|  .X.@ @ 2 r.Q @ @ @ @.$.: @ @ P r.r.r.",
"r.z @ @ T r.r.r.0 @ # P r.r.r.r.r.9.; @ @ *.r.V @ % V r.r.V # @ j r.r.r.",
"r.u @ @ O.r.r.r.9 @ @ ^ r.r.r.r.r.b @ @ G r.r.j @ @ K r.r.l @ # Z r.r.r.",
"r.5.*.,.r.r.r.V @ @ @ ,.r.r.r.r.$.@ @ > r.r.r.r.r.r.X.< % @ @ @ ,.r.r.r.",
"r.r.r.r.r.^ - @ @ @ D r.r.r.r.r.u @ @ _ r.r.r.r.r.r.) @ @ @ @ 4 $.r.r.r.",
"r.r.r.*.0 @ @ # @ K r.r.r.r.r.$.@ @ 2 r.r.r.r.r.r.r.$.d y @ @ @ @ 5.r.r.",
"r.r.X.@ @ % @ d *.r.r.r.r.r.r.d @ @ ^ r.r.r.r.Y a a | r.r.r.3 @ @ ^ r.r.",
"r.2.@ @ @ r *.r.r.r.r.r.r.r.5.@ @ @ 9.r.r.r.r.z @ % b r.r.r.r @ @ P r.r.",
"r.S @ @ x X.| | X.| X.3.r.r._ @ @ i r.r.r.r.r.P @ @ @ X.,.E @ @ @ @.r.r.",
"r.< @ @ @ @ @ @ @ @ @ G r.r.a @ @ ^ r.r.r.r.r.5.@ @ @ @ @ @ @ @ 0 r.r.r.",
"r.@ @ @ @ @ @ @ @ @ @ G r.r.@ @ @ *.r.r.r.r.r.r.' @ @ @ @ @ @ 9 <.r.r.r.",
"r.j d d d d d d d d d | r.r.g d d r.r.r.r.r.r.r.r.3.^ v j G | r.r.r.r.r.",
"r.r.r.r.r.r.r.r.r.r.r.r.r.r.r.r.r.r.r.r.r.r.r.r.r.r.r.r.r.r.r.r.r.r.r.r.",
"r.r.r.r.r.r.r.r.r.r.r.r.r.r.r.r.r.r.r.r.r.r.r.r.r.r.r.r.r.r.r.r.r.r.r.r.",
"r.r.r.r.r.r.r.r.r.r.r.r.r.r.r.r.r.r.r.r.r.r.r.r.r.r.r.r.r.r.r.r.r.r.r.r.",
"r.r.r.r.r.r.r.r.r.r.r.r.r.r.r.r.r.r.r.r.r.r.r.r.r.r.r.r.r.r.r.r.r.r.r.r.",
"r.r.r.r.r.r.r.r.r.r.r.r.r.r.r.r.r.r.r.r.r.r.r.r.r.r.r.r.r.r.r.r.r.r.r.r.",
"r.r.r.r.r.r.r.r.r.r.r.r.r.r.r.r.r.r.r.r.r.r.r.r.r.r.r.r.r.r.r.r.r.r.r.r.",
"r.r.r.r.r.r.r.r.r.r.r.r.r.r.r.r.r.r.r.r.r.r.r.r.r.r.r.r.r.r.r.r.r.r.r.r.",
"r.r.r.r.r.r.r.r.r.r.r.r.r.r.r.r.r.r.r.r.r.r.r.r.r.r.r.r.r.r.r.r.r.r.r.r.",
"r.r.r.r.r.r.r.r.r.r.r.r.r.r.r.r.r.r.r.r.r.r.r.r.r.r.r.r.r.r.r.r.r.r.r.r.",
"r.r.r.r.r.r.r.r.r.r.r.r.r.r.r.r.r.r.r.r.r.r.r.r.r.r.r.r.r.r.r.r.r.r.r.r.",
"r.r.r.r.r.r.r.r.r.r.r.r.r.r.r.r.r.r.r.r.r.r.r.r.r.r.r.r.r.r.r.r.r.r.r.r.",
"r.r.r.r.r.r.r.r.r.r.r.r.r.r.r.r.r.r.r.r.r.r.r.r.r.r.r.r.r.r.r.r.r.r.r.r."
};
