/* XPM */
static char *empty-2-conv[] = {
/* columns rows colors chars-per-pixel */
"25 25 11 1",
"  c #03550293010D",
". c #050503E00196",
"X c #05C1047101D1",
"o c #067D0502020C",
"O c #069005100212",
"+ c #8AB06B0E2BCC",
"@ c #B33A8A593899",
"# c #B6378CA8398B",
"$ c #E79DB2CA4924",
"% c #EB7AB5C54A5C",
"& c #EF67B8CD4B99",
/* pixels */
"$$$$$$$$$$$$$$$$$$$$$$$$$",
"$$$$$$$$$$$$$$$$$$$$$$$$$",
"$$$$$$$$$$$$$$$$$$$$$$$$$",
"$$$$$$$$$$$$$$$$$$$$$$$$$",
"$$$$$$$$$$$$$$$$$$$$$$$$$",
"$$$$$$$$$$$$$$$$$$$$$$$$$",
"$$$$$$$$$$$$$$$$$$$$$$$$$",
"$$$$$$$$$$$$$$$$$$$$$$$$$",
"$$$$$$$$$$$$$$$$$$$$$$$$$",
"$$$$$$$%$$$$$$$$$$$$$$$$$",
"%%%%%%%%%%%%%%%%%%%%%%%%%",
"@@@@@@@@@@@@@@@@@@@@@@@@@",
"XXXXOXOOOOOX XXXXXXXXXXXX",
"@@@@@@@@@@#+.+#@@@@@@@@@@",
"%%%%%%%%%%&#X#&%%%%%%%%%%",
"$$$$$$$$$$%@X@%$$$$$$%$$$",
"$$$$$$$$$$%@X@%$$$$$$$$$$",
"$$$$$$$$$$%@O@%$$$$$$$$$$",
"$$$$$$$$$$%@O@%$$$$$$$$$$",
"$$$$$$$$$$%@X@%%$$$$$$$$$",
"$$$$$$$$$$%@X@%$$$$$$$$$$",
"$$$$$$$$$$%@X@%$$$$$$$$$$",
"$$$$$$$$$$%@X@%$$$$$$$$$$",
"$$$$$$$$$$%@X@%$$$$$$$$$$",
"$$$$$$$$$$%@X@%%$$$$$$$$$"
};
