/* XPM */
static char *empty-0-LB-319[] = {
/* columns rows colors chars-per-pixel */
"36 36 116 2",
"   c #000C00090004",
".  c #010A00CC0054",
"X  c #01CC01630091",
"o  c #026401D800C1",
"O  c #02B2021500DA",
"+  c #0317026200FA",
"@  c #037502AB0118",
"#  c #04A903990179",
"$  c #058C044801C1",
"%  c #064E04DE01FE",
"&  c #067C0502020C",
"*  c #06DD054C022B",
"=  c #076005B20255",
"-  c #112A0D40056C",
";  c #201C18C90A24",
":  c #216819CA0A8D",
">  c #22681A8F0ADE",
",  c #26521D940C1A",
"<  c #281A1EF50CAA",
"1  c #2B1A21460D9C",
"2  c #2C7922540E0B",
"3  c #2D6E23110E58",
"4  c #2D8923260E61",
"5  c #315B26190F96",
"6  c #3BE92E3F12EB",
"7  c #3C8E2EBE131F",
"8  c #404B31A1144E",
"9  c #429233631506",
"0  c #436534061548",
"q  c #43EB346D1572",
"w  c #488A37FF16E8",
"e  c #4B5E3A2E17CD",
"r  c #51423EBA19A9",
"t  c #549C41501AB8",
"y  c #559C42161B09",
"u  c #5E5848D41DCB",
"i  c #65554E382000",
"p  c #69375138213A",
"a  c #6A3451FC218A",
"s  c #6A9F524E21AC",
"d  c #6AE3528321C1",
"f  c #6BF653572218",
"g  c #6CB053E62252",
"h  c #6DB554AF22A5",
"j  c #6FC55647234C",
"k  c #74A65A0C24D6",
"l  c #78635CEF2604",
"z  c #78A25D1F2618",
"x  c #7A715E8426AA",
"c  c #7D1E60952783",
"v  c #7EBA61D32805",
"b  c #7F686259283C",
"n  c #81E364432904",
"m  c #86D368132A93",
"M  c #889769702B22",
"N  c #88E369AB2B3A",
"B  c #898B6A2C2B6F",
"V  c #89FC6A842B93",
"C  c #8CC66CAB2C74",
"Z  c #924A70ED2E32",
"A  c #95F273C02F5A",
"S  c #975874D42FCB",
"D  c #9A2B770230AF",
"F  c #9AEE779830ED",
"G  c #9CA078E73176",
"H  c #9D9779A631C4",
"J  c #9ECB7A943225",
"K  c #A0967BF632B5",
"L  c #A3597E183395",
"P  c #A3D27E7533BB",
"I  c #A4377EC333DC",
"U  c #A5C97FFA345A",
"Y  c #A6CA80C034AC",
"T  c #A88E821D353A",
"R  c #A9E7832735A8",
"E  c #AC5E850E366E",
"W  c #ACB78553368A",
"Q  c #AE20866936FC",
"!  c #AEA286CE3726",
"~  c #B080883F37BD",
"^  c #B14588D737FB",
"/  c #B25389A73850",
"(  c #B80A8E113A1E",
")  c #B9208EE73A76",
"_  c #BB4990923B24",
"`  c #BC3591483B6F",
"'  c #BD6292303BCE",
"]  c #BDC6927E3BEE",
"[  c #BE0D92B53C04",
"{  c #C08994A03CCD",
"}  c #C14C95363D0A",
"|  c #C50198133E36",
" . c #C8239A7E3F34",
".. c #CADD9C994010",
"X. c #CBDB9D5D4060",
"o. c #CCAD9DFF40A2",
"O. c #CD3A9E6C40CF",
"+. c #CD889EA840E7",
"@. c #CEDB9FAD4152",
"#. c #D04FA0CD41C8",
"$. c #D12FA17A420F",
"%. c #D64CA56C43AC",
"&. c #D793A6684413",
"*. c #D909A7894489",
"=. c #DB29A92D4535",
"-. c #DB89A9774553",
";. c #DC80AA3645A2",
":. c #DD58AADC45E6",
">. c #DE23AB794626",
",. c #DE84ABC44645",
"<. c #E05EAD3246DA",
"1. c #E0F8ADA9470B",
"2. c #E460B04A481E",
"3. c #E6ADB21148D8",
"4. c #E712B25E48F8",
"5. c #E79DB2CA4924",
/* pixels */
"5.5.5.5.5.5.5.5.5.5.5.5.5.5.5.5.5.5.5.5.5.5.5.5.5.5.5.5.5.5.5.5.5.5.5.5.",
"5.5.5.5.5.5.5.5.5.5.5.5.5.5.5.5.5.5.5.5.5.5.5.5.5.5.5.5.5.5.5.5.5.5.5.5.",
"5.5.5.5.5.5.5.5.5.5.5.5.5.5.5.5.5.5.5.5.5.5.5.5.5.5.5.5.5.5.5.5.5.5.5.5.",
"5.5.5.5.5.5.5.5.5.5.5.5.5.5.5.5.5.5.5.5.5.5.5.5.5.5.5.5.5.5.5.5.5.5.5.5.",
"5.5.5.5.5.5.5.5.5.5.5.5.5.5.5.5.5.5.5.5.5.5.5.5.5.5.5.5.5.5.5.5.5.5.5.5.",
"5.5.5.5.5.5.5.5.5.5.5.5.5.5.5.5.5.5.5.5.5.5.5.5.5.5.5.5.5.5.5.5.5.5.5.5.",
"5.5.5.5.5.5.5.5.5.5.5.5.5.5.5.5.5.5.5.5.5.5.5.5.5.5.5.5.5.5.5.5.5.5.5.5.",
"5.5.5.5.5.5.5.5.5.5.5.5.5.5.5.5.5.5.5.5.5.5.5.5.5.5.5.5.5.5.5.5.5.5.5.5.",
"5.5.5.5.5.5.5.5.5.5.5.5.5.5.5.5.5.5.5.5.5.5.5.5.5.5.5.5.5.5.5.5.5.5.5.5.",
"5.5.5.5.,.Y v x P >.5.5.5.5.5.5.5.f i ' 5.5.5.5.5.( Z i m +.5.5.5.5.5.5.",
"5.5.5.( @ @ @ @ @ @ Y 5.5.5.5.5. .@ = A 5.5.5.*.q @ @ @ @ @ x 5.5.5.5.5.",
"5.5.5.@ @ @ @ @ @ @ @ %.5.5.%.( ; @ = A 5.5.5.7 = @ @ @ @ @ @ P 5.5.5.5.",
"5.5.R @ @ @ X.$.- @ @ F 5.f @ @ @ @ @ A 5.5.) @ @ @ E %.m @ @ @ 5.5.5.5.",
"5.5.m @ # m 5.5.m # @ f 5.f @ @ @ @ # A 5.5.C @ @ f 5.5.5., @ @ +.5.5.5.",
"5.5.f @ @ D 5.5.j @ @ M 5.+.~ ~ i @ = A 5.5.j @ # M 5.5.5.r @ @ R 5.5.5.",
"5.5.5.5.5.[ : = @ @ @ %.5.5.5.5.i @ # A 5.5.T @ @ 3 5.5.-.@ @ @ J 5.5.5.",
"5.5.5.5.5.E @ @ @ @ 1 +.5.5.5.5.i @ @ A 5.5.>.@ @ @ ; t @ @ @ @ D 5.5.5.",
"5.5.5.5.5...i r @ @ @ @ ,.5.5.5.i @ # A 5.5.5./ @ @ @ @ @ @ @ @ Y 5.5.5.",
"5.5.J u u ' 5.5.5.< @ @ ~ 5.5.5.i @ = A 5.5.5.5.*.m 9 5 k , @ @ } 5.5.5.",
"5.5.j @ = b 5.5.5.w @ @ P 5.5.5.i @ # A 5.5.( @ @ w 5.5.-.@ @ @ >.5.5.5.",
"5.5.J @ @ @ } %.T @ @ @ ..5.5.5.i @ # A 5.5.>.@ @ @ ( X.w @ @ 9 5.5.5.5.",
"5.5.-.@ @ @ @ @ @ @ @ 6 5.5.5.5.i @ = A 5.5.5.t @ @ @ @ # @ @ X.5.5.5.5.",
"5.5.5.) @ @ @ @ @ @ 6 *.5.5.5.5.i @ @ A 5.5.5.<.< @ @ @ @ @ E 5.5.5.5.5.",
"5.5.5.5.<.E x f A ' 5.5.5.5.5.5.K i i ' 5.5.5.5.5.R n j P ,.5.5.5.5.5.5.",
"5.5.5.5.5.5.5.5.5.5.5.5.5.5.5.5.5.5.5.5.5.5.5.5.5.5.5.5.5.5.5.5.5.5.5.5.",
"5.5.5.5.5.5.5.5.5.5.5.5.5.5.5.5.5.5.5.5.5.5.5.5.5.5.5.5.5.5.5.5.5.5.5.5.",
"5.5.5.5.5.5.5.5.5.5.5.5.5.5.5.5.5.5.5.5.5.5.5.5.5.5.5.5.5.5.5.5.5.5.5.5.",
"5.5.5.5.5.5.5.5.5.5.5.5.5.5.5.5.5.5.5.5.5.5.5.5.5.5.5.5.5.5.5.5.5.5.5.5.",
"5.5.5.5.5.5.5.5.5.5.5.5.5.5.5.5.5.5.5.5.5.5.5.5.5.5.5.5.5.5.5.5.5.5.5.5.",
"5.5.5.5.5.5.5.5.5.5.5.5.5.5.5.5.5.5.5.5.5.5.5.5.5.5.5.5.5.5.5.5.5.5.5.5.",
"5.5.5.5.5.5.5.5.5.5.5.5.5.5.5.5.5.5.5.5.5.5.5.5.5.5.5.5.5.5.5.5.5.5.5.5.",
"5.5.5.5.5.5.5.5.5.5.5.5.5.5.5.5.5.5.5.5.5.5.5.5.5.5.5.5.5.5.5.5.5.5.5.5.",
"5.5.5.5.5.5.5.5.5.5.5.5.5.5.5.5.5.5.5.5.5.5.5.5.5.5.5.5.5.5.5.5.5.5.5.5.",
"5.5.5.5.5.5.5.5.5.5.5.5.5.5.5.5.5.5.5.5.5.5.5.5.5.5.5.5.5.5.5.5.5.5.5.5.",
"5.5.5.5.5.5.5.5.5.5.5.5.5.5.5.5.5.5.5.5.5.5.5.5.5.5.5.5.5.5.5.5.5.5.5.5.",
"5.5.5.5.5.5.5.5.5.5.5.5.5.5.5.5.5.5.5.5.5.5.5.5.5.5.5.5.5.5.5.5.5.5.5.5."
};
