/* XPM */
static char *empty-0-LB-242[] = {
/* columns rows colors chars-per-pixel */
"36 36 80 1",
"  c #000100010000",
". c #013600EF0062",
"X c #01B301500089",
"o c #0213019A00A8",
"O c #03540291010D",
"+ c #05C8047701D3",
"@ c #06B3052C021E",
"# c #076705B70256",
"$ c #07F406240283",
"% c #0C52098303E4",
"& c #0DC90AA4045B",
"* c #0F7F0BF604E5",
"= c #0FC80C2E04FC",
"- c #10D90D010552",
"; c #11E90DD305A8",
": c #12B60E7205E9",
"> c #14860FD8067B",
", c #1B71152F08AA",
"< c #1D9316D40957",
"1 c #219419EC0A9B",
"2 c #22D61AE40B00",
"3 c #23F81BC40B5C",
"4 c #26E21E040C48",
"5 c #27981E900C80",
"6 c #29641FF40D12",
"7 c #2A2020840D4D",
"8 c #2F9A24BF0F08",
"9 c #313525FC0F89",
"0 c #3460286E108A",
"q c #361B29C41116",
"w c #3C702EA81316",
"e c #3F6230ED1404",
"r c #446634CC159A",
"t c #51303EAC19A3",
"y c #573943541B8B",
"u c #58F244A81C16",
"i c #65554E382000",
"p c #69BB519E2163",
"a c #6D7B54822292",
"s c #6EEC559F2307",
"d c #7116574C23B6",
"f c #72E658B12448",
"g c #7AF15EE726D3",
"h c #7F096211281E",
"j c #808463352896",
"k c #813063BA28CC",
"l c #8DCC6D742CC7",
"z c #963173F02F6E",
"x c #98AD75DB3037",
"c c #9DCA79CD31D4",
"v c #9FC97B583275",
"b c #A0687BD332A8",
"n c #AB13840F3606",
"m c #AD9685FF36D1",
"M c #BB3B90883B20",
"N c #BB4F90973B26",
"B c #BE3092CF3C0F",
"V c #C16395483D12",
"C c #C41B97613DED",
"Z c #C6C499703EC5",
"A c #CB9A9D2B404C",
"S c #CC2F9D9D407A",
"D c #CF209FE44168",
"F c #D344A31542B7",
"G c #D54BA4A6435B",
"H c #D76AA6494407",
"J c #D7F4A6B34432",
"K c #D918A795448F",
"L c #D9BBA81344C2",
"P c #DA92A8B94506",
"I c #DBA3A98B455C",
"U c #DCBEAA6545B5",
"Y c #DD48AAD045E1",
"T c #DF56AC664687",
"R c #E394AFAD47DE",
"E c #E4C0B094483D",
"W c #E4FDB0C44850",
"Q c #E664B1D848C1",
"! c #E74DB28D490B",
"~ c #E79DB2CA4924",
/* pixels */
"~~~~~~~~~~~~~~~~~~~~~~~~~~~~~~~~~~~~",
"~~~~~~~~~~~~~~~~~~~~~~~~~~~~~~~~~~~~",
"~~~~~~~~~~~~~~~~~~~~~~~~~~~~~~~~~~~~",
"~~~~~~~~~~~~~~~~~~~~~~~~~~~~~~~~~~~~",
"~~~~~~~~~~~~~~~~~~~~~~~~~~~~~~~~~~~~",
"~~~~~~~~~~~~~~~~~~~~~~~~~~~~~~~~~~~~",
"~~~~~~~~~~~~~~~~~~~~~~~~~~~~~~~~~~~~",
"~~~~~~~~~~~~~~~~~~~~~~~~~~~~~~~~~~~~",
"~~~~~~~~~~~~~~~~~~~~~~~~~~~~~~~~~~~~",
"~~~~GzfdcL~~~~~~~Nii~~~~~FzffcL~~~~~",
"~~~p   $$ z~~~~~L   K~~~p   $$ z~~~~",
"~~j $    - B~~~~9   K~~k $    - N~~~",
"~~   kHA< 9w~~~h    K~~   kKS< 9w~~~",
"~L 6 ~~~B 1 ~~C 3   L~L 6 ~~~B 1 ~~~",
"~D  q~~~m 6$~~%$    L~S  q~~~m 6$~~~",
"~~GGY~~Z  -g~t  g   L~~GGY~~Z  -g~~~",
"~~~~~Lu  ,-Yb 61~   K~~~~~Ly  <-Y~~~",
"~~~~l  % eKK > S~   L~~~~l  % eK~~~~",
"~~~r % %n~~q  111   17Y~r % =n~~~~~~",
"~~u < c~~~~7          Ku < c~~~~~~~~",
"~T < CCCCCBciiiii   iiR < CCCCBCC~~~",
"~b -        ~~~~~   L~c -        ~~~",
"~c        % ~~~~~   K~a        % ~~~",
"~Niiiiiiiiia~~~~~aiiR~Biiiiiiiiia~~~",
"~~~~~~~~~~~~~~~~~~~~~~~~~~~~~~~~~~~~",
"~~~~~~~~~~~~~~~~~~~~~~~~~~~~~~~~~~~~",
"~~~~~~~~~~~~~~~~~~~~~~~~~~~~~~~~~~~~",
"~~~~~~~~~~~~~~~~~~~~~~~~~~~~~~~~~~~~",
"~~~~~~~~~~~~~~~~~~~~~~~~~~~~~~~~~~~~",
"~~~~~~~~~~~~~~~~~~~~~~~~~~~~~~~~~~~~",
"~~~~~~~~~~~~~~~~~~~~~~~~~~~~~~~~~~~~",
"~~~~~~~~~~~~~~~~~~~~~~~~~~~~~~~~~~~~",
"~~~~~~~~~~~~~~~~~~~~~~~~~~~~~~~~~~~~",
"~~~~~~~~~~~~~~~~~~~~~~~~~~~~~~~~~~~~",
"~~~~~~~~~~~~~~~~~~~~~~~~~~~~~~~~~~~~",
"~~~~~~~~~~~~~~~~~~~~~~~~~~~~~~~~~~~~"
};
