/* XPM */
static char *empty-0-LB-247[] = {
/* columns rows colors chars-per-pixel */
"36 36 95 2",
"   c #000800060002",
".  c #01D001660093",
"X  c #023501B400B2",
"o  c #02C1022000DF",
"O  c #0362029C0112",
"+  c #03FD03140143",
"@  c #0499038C0174",
"#  c #0531040201A4",
"$  c #059D045601C6",
"%  c #065504E40200",
"&  c #069905180215",
"*  c #0A2907D80335",
"=  c #0B2108970384",
"-  c #11C60DB8059D",
";  c #184212B907A9",
":  c #1BEE158F08D2",
">  c #22E61AF00B05",
",  c #23BE1B970B49",
"<  c #26E61E070C49",
"1  c #27281E3A0C5D",
"2  c #2F7924A50EFE",
"3  c #30B125960F60",
"4  c #31AC26580FAF",
"5  c #3326277C1027",
"6  c #383E2B6A11C3",
"7  c #39572C43121B",
"8  c #3F7430FB1409",
"9  c #3FA0311D1418",
"0  c #46E836BC1664",
"q  c #52713FA41A09",
"w  c #534440471A4C",
"e  c #58D344911C0D",
"r  c #604B4A551E68",
"t  c #62B14C2F1F2A",
"y  c #65514E351FFF",
"u  c #65AB4E7B201B",
"i  c #65D64E9C2028",
"p  c #6858508C20F3",
"a  c #6A9F524E21AC",
"s  c #6BFC535B2219",
"d  c #6E29550922CA",
"f  c #73CF59662492",
"g  c #7D8360E327A2",
"h  c #7FE062B52861",
"j  c #813663BE28CE",
"k  c #857767072A26",
"l  c #86BD68032A8D",
"z  c #87C868D12AE1",
"x  c #8CFB6CD32C85",
"c  c #8E8E6E0B2D04",
"v  c #8F286E812D35",
"b  c #922B70D52E28",
"n  c #95F373C12F5A",
"m  c #982F757A300F",
"M  c #99F176D5309D",
"N  c #9D87799931BF",
"B  c #A3597E183395",
"V  c #A69D809D349D",
"C  c #AA03833C35B0",
"Z  c #AAE083E735F6",
"A  c #ACDF85723697",
"S  c #AD98860136D2",
"D  c #AFA987993779",
"F  c #B00187DD3795",
"G  c #B5088BBE392B",
"H  c #B9258EEC3A77",
"J  c #B9E08F7C3AB2",
"K  c #BDC7927F3BEE",
"L  c #C16495493D12",
"P  c #C4B097D43E1C",
"I  c #C52D98353E44",
"U  c #C5D298B43E78",
"Y  c #CDEA9EF34106",
"T  c #CEE79FB74156",
"R  c #D04CA0CA41C7",
"E  c #D157A199421B",
"W  c #D1A2A1D24233",
"Q  c #D328A2FF42AE",
"!  c #D439A3D24304",
"~  c #D4D9A44D4337",
"^  c #D566A4BB4363",
"/  c #D601A5324394",
"(  c #D7CCA6944425",
")  c #D9EEA83A44D2",
"_  c #DC5EAA1C4597",
"`  c #E011ACF746C2",
"'  c #E1A1AE2B4740",
"]  c #E1C9AE4A474D",
"[  c #E2E6AF2647A7",
"{  c #E433B026480F",
"}  c #E594B138487F",
"|  c #E602B18D48A2",
" . c #E6ADB21048D8",
".. c #E740B2824907",
"X. c #E79DB2CA4924",
/* pixels */
"X.X.X.X.X.X.X.X.X.X.X.X.X.X.X.X.X.X.X.X.X.X.X.X.X.X.X.X.X.X.X.X.X.X.X.X.",
"X.X.X.X.X.X.X.X.X.X.X.X.X.X.X.X.X.X.X.X.X.X.X.X.X.X.X.X.X.X.X.X.X.X.X.X.",
"X.X.X.X.X.X.X.X.X.X.X.X.X.X.X.X.X.X.X.X.X.X.X.X.X.X.X.X.X.X.X.X.X.X.X.X.",
"X.X.X.X.X.X.X.X.X.X.X.X.X.X.X.X.X.X.X.X.X.X.X.X.X.X.X.X.X.X.X.X.X.X.X.X.",
"X.X.X.X.X.X.X.X.X.X.X.X.X.X.X.X.X.X.X.X.X.X.X.X.X.X.X.X.X.X.X.X.X.X.X.X.",
"X.X.X.X.X.X.X.X.X.X.X.X.X.X.X.X.X.X.X.X.X.X.X.X.X.X.X.X.X.X.X.X.X.X.X.X.",
"X.X.X.X.X.X.X.X.X.X.X.X.X.X.X.X.X.X.X.X.X.X.X.X.X.X.X.X.X.X.X.X.X.X.X.X.",
"X.X.X.X.X.X.X.X.X.X.X.X.X.X.X.X.X.X.X.X.X.X.X.X.X.X.X.X.X.X.X.X.X.X.X.X.",
"X.X.X.X.X.X.X.X.X.X.X.X.X.X.X.X.X.X.X.X.X.X.X.X.X.X.X.X.X.X.X.X.X.X.X.X.",
"X.X.X.X.X.J j y g J X.X.X.X.X.X.X.X.s y B X.x y y t y y y y y y J X.X.X.",
"X.X.X.E ;   $   $   4 _ X.X.X.X.X.x     y X.2                 $ x X.X.X.",
"X.X.{ $ $           $ 4 X.X.X.X.U       y X.4                   x X.X.X.",
"X.X.A       L ( M       U X.X.{ = #     y X.T L L L L K L   $ 1 X.X.X.X.",
"X.X.d     V X.X.X.9   # N X.X.t     $   y X.X.X.X.X.X.X.-     E X.X.X.X.",
"X.X.q     U X.X.X.7     A X.C   $ 6 $   y X.X.X.X.X.X.j     M X.X.X.X.X.",
"X.X.{ E / X.X.X.l       _ !       m $   y X.X.X.X.X.E     : X.X.X.X.X.X.",
"X.X.X.X.X.X.F =       b X.4 #   C n $   y X.X.X.X.X.q $   J X.X.X.X.X.X.",
"X.X.X.X.E 0     $   m X.k   # t X.n $   y X.X.X.X.T     1 X.X.X.X.X.X.X.",
"X.X.X.U     $   y / X./       , , , $   , , z X.X.t $   A X.X.X.X.X.X.X.",
"X.X._       0 ! X.X.X./                     y X.{       { X.X.X.X.X.X.X.",
"X.X.x     f L L L L L L y y y y y y $   y y B X.G     e X.X.X.X.X.X.X.X.",
"X.X.,                   n X.X.X.X.n $   y X.X.X.t #   A X.X.X.X.X.X.X.X.",
"X.X.                  $ n X.X.X.X.n $   y X.X.X.      / X.X.X.X.X.X.X.X.",
"X.X.d y y y y y y y y y K X.X.X.X.K y y B X.X.X.a y y X.X.X.X.X.X.X.X.X.",
"X.X.X.X.X.X.X.X.X.X.X.X.X.X.X.X.X.X.X.X.X.X.X.X.X.X.X.X.X.X.X.X.X.X.X.X.",
"X.X.X.X.X.X.X.X.X.X.X.X.X.X.X.X.X.X.X.X.X.X.X.X.X.X.X.X.X.X.X.X.X.X.X.X.",
"X.X.X.X.X.X.X.X.X.X.X.X.X.X.X.X.X.X.X.X.X.X.X.X.X.X.X.X.X.X.X.X.X.X.X.X.",
"X.X.X.X.X.X.X.X.X.X.X.X.X.X.X.X.X.X.X.X.X.X.X.X.X.X.X.X.X.X.X.X.X.X.X.X.",
"X.X.X.X.X.X.X.X.X.X.X.X.X.X.X.X.X.X.X.X.X.X.X.X.X.X.X.X.X.X.X.X.X.X.X.X.",
"X.X.X.X.X.X.X.X.X.X.X.X.X.X.X.X.X.X.X.X.X.X.X.X.X.X.X.X.X.X.X.X.X.X.X.X.",
"X.X.X.X.X.X.X.X.X.X.X.X.X.X.X.X.X.X.X.X.X.X.X.X.X.X.X.X.X.X.X.X.X.X.X.X.",
"X.X.X.X.X.X.X.X.X.X.X.X.X.X.X.X.X.X.X.X.X.X.X.X.X.X.X.X.X.X.X.X.X.X.X.X.",
"X.X.X.X.X.X.X.X.X.X.X.X.X.X.X.X.X.X.X.X.X.X.X.X.X.X.X.X.X.X.X.X.X.X.X.X.",
"X.X.X.X.X.X.X.X.X.X.X.X.X.X.X.X.X.X.X.X.X.X.X.X.X.X.X.X.X.X.X.X.X.X.X.X.",
"X.X.X.X.X.X.X.X.X.X.X.X.X.X.X.X.X.X.X.X.X.X.X.X.X.X.X.X.X.X.X.X.X.X.X.X.",
"X.X.X.X.X.X.X.X.X.X.X.X.X.X.X.X.X.X.X.X.X.X.X.X.X.X.X.X.X.X.X.X.X.X.X.X."
};
