/* XPM */
static char *empty-0-LB-Y[] = {
/* columns rows colors chars-per-pixel */
"36 36 46 1",
"  c black",
". c #019F01410083",
"X c #026901DD00C3",
"o c #03D402F50135",
"O c #04A803980178",
"+ c #058C044901C1",
"@ c #065504E30200",
"# c #0EDB0B7804B1",
"$ c #13620EF6061F",
"% c #141E0F87065A",
"& c #192D136F07F3",
"* c #212119930A76",
"= c #2DBE234F0E72",
"- c #39672C501220",
"; c #434833F0153F",
": c #5496414B1AB6",
"> c #5B10464B1CC2",
", c #64004D311F94",
"< c #65554E382000",
"1 c #684C508320F0",
"2 c #6D7C54832293",
"3 c #76DF5BC3258A",
"4 c #89826A252B6C",
"5 c #91D370912E0D",
"6 c #92F471712E68",
"7 c #95F673C22F5B",
"8 c #982F7579300F",
"9 c #9AF977A130F0",
"0 c #A0607BCD32A5",
"q c #A15B7C8E32F4",
"w c #A3597E183395",
"e c #AAD183DC35F1",
"r c #BA0C8F9D3AC0",
"t c #BDC892803BEE",
"y c #BF8F93DF3C7E",
"u c #C072948E3CC6",
"i c #C10B95043CF6",
"p c #C9AF9BAF3FB0",
"a c #CFFDA08E41AE",
"s c #D772A64F4409",
"d c #DC68AA24459A",
"f c #DE89ABC84646",
"g c #E57BB1254877",
"h c #E61DB1A248AB",
"j c #E73BB27E4905",
"k c #E79DB2CA4924",
/* pixels */
"kkkkkkkkkkkkkkkkkkkkkkkkkkkkkkkkkkkk",
"kkkkkkkkkkkkkkkkkkkkkkkkkkkkkkkkkkkk",
"kkkkkkkkkkkkkkkkkkkkkkkkkkkkkkkkkkkk",
"kkkkkkkkkkkkkkkkkkkkkkkkkkkkkkkkkkkk",
"kkkkkkkkkkkkkkkkkkkkkkkkkkkkkkkkkkkk",
"kkkkkkkkkkkkkkkkkkkkkkkkkkkkkkkkkkkk",
"kkkkkkkkkkkkkkkkkkkkkkkkkkkkkkkkkkkk",
"kkkkkkkkkkkkkkkkkkkkkkkkkkkkkkkkkkkk",
"kkkkkkkkkkk2<<tkkkkkk9<<9kkkkkkkkkkk",
"kkkkkkkkkkk-@ %kkkkks   6kkkkkkkkkkk",
"kkkkkkkkkkka   6kkkk>@ &kkkkkkkkkkkk",
"kkkkkkkkkkkk4   skki   tkkkkkkkkkkkk",
"kkkkkkkkkkkkk$ @:kk* @<kkkkkkkkkkkkk",
"kkkkkkkkkkkkkt   r0   fkkkkkkkkkkkkk",
"kkkkkkkkkkkkkk1O #   0kkkkkkkkkkkkkk",
"kkkkkkkkkkkkkkf   @ =kkkkkkkkkkkkkkk",
"kkkkkkkkkkkkkkke    pkkkkkkkkkkkkkkk",
"kkkkkkkkkkkkkkkk; @3kkkkkkkkkkkkkkkk",
"kkkkkkkkkkkkkkkk< @7kkkkkkkkkkkkkkkk",
"kkkkkkkkkkkkkkkk< @7kkkkkkkkkkkkkkkk",
"kkkkkkkkkkkkkkkk< @7kkkkkkkkkkkkkkkk",
"kkkkkkkkkkkkkkkk< @7kkkkkkkkkkkkkkkk",
"kkkkkkkkkkkkkkkk< @7kkkkkkkkkkkkkkkk",
"kkkkkkkkkkkkkkkkw<<tkkkkkkkkkkkkkkkk",
"kkkkkkkkkkkkkkkkkkkkkkkkkkkkkkkkkkkk",
"kkkkkkkkkkkkkkkkkkkkkkkkkkkkkkkkkkkk",
"kkkkkkkkkkkkkkkkkkkkkkkkkkkkkkkkkkkk",
"kkkkkkkkkkkkkkkkkkkkkkkkkkkkkkkkkkkk",
"kkkkkkkkkkkkkkkkkkkkkkkkkkkkkkkkkkkk",
"kkkkkkkkkkkkkkkkkkkkkkkkkkkkkkkkkkkk",
"kkkkkkkkkkkkkkkkkkkkkkkkkkkkkkkkkkkk",
"kkkkkkkkkkkkkkkkkkkkkkkkkkkkkkkkkkkk",
"kkkkkkkkkkkkkkkkkkkkkkkkkkkkkkkkkkkk",
"kkkkkkkkkkkkkkkkkkkkkkkkkkkkkkkkkkkk",
"kkkkkkkkkkkkkkkkkkkkkkkkkkkkkkkkkkkk",
"kkkkkkkkkkkkkkkkkkkkkkkkkkkkkkkkkkkk"
};
