/* XPM */
static char *empty-0-LB-93[] = {
/* columns rows colors chars-per-pixel */
"36 36 113 2",
"   c #000700050002",
".  c #010E00D00055",
"X  c #0199013C0081",
"o  c #023C01BA00B5",
"O  c #02F9024B00F0",
"+  c #055D042401B1",
"@  c #064904DA01FC",
"#  c #075005A5024F",
"$  c #08C906C802C7",
"%  c #09C7078D0316",
"&  c #0AB508440361",
"*  c #0B9008ED03A6",
"=  c #0BB6090A03B3",
"-  c #0C50098103E3",
";  c #0E060AD4046E",
":  c #0E110ADC0471",
">  c #10480C910524",
",  c #147A0FCE0678",
"<  c #18D1132807D6",
"1  c #1BA6155808BB",
"2  c #1C2115B608E2",
"3  c #1CE3164D091F",
"4  c #1EC117BD09B6",
"5  c #1F99186409FA",
"6  c #219C19F10A9D",
"7  c #222E1A620ACB",
"8  c #242A1BEB0B6C",
"9  c #25931D010BDE",
"0  c #26F31E110C4D",
"q  c #29C820410D32",
"w  c #2AB620F80D7D",
"e  c #2BF821F10DE3",
"r  c #2F8F24B60F04",
"t  c #30C025A10F65",
"y  c #31C4266B0FB7",
"u  c #32D6273E100E",
"i  c #34F428DF10B9",
"p  c #3FE93156142E",
"a  c #435E34011546",
"s  c #441E34951583",
"d  c #46E436B91663",
"f  c #498F38C9173B",
"g  c #4AC139B5179C",
"h  c #4BD33A8817F2",
"j  c #4E363C5F18B3",
"k  c #555341DD1AF2",
"l  c #580643F31BCC",
"z  c #5D0447CD1D60",
"x  c #5E1F48A81DB9",
"c  c #5E9249011DDD",
"v  c #611B4AF51EAA",
"b  c #62344BCE1F03",
"n  c #628C4C131F1F",
"m  c #658D4E652011",
"M  c #676E4FD720A9",
"N  c #686B509B20F9",
"B  c #6EA3556822F0",
"V  c #712B575C23BD",
"C  c #73E359752499",
"Z  c #77D65C8125D8",
"A  c #79405D99264A",
"S  c #7B015EF426D7",
"D  c #82D264FC2950",
"F  c #840B65ED29B3",
"G  c #868B67DB2A7D",
"H  c #87C568CE2AE0",
"J  c #893269E82B53",
"K  c #8AAC6B0B2BCA",
"L  c #8E706DF42CFB",
"P  c #904B6F622D91",
"I  c #90766F842D9F",
"U  c #936B71CC2E8E",
"Y  c #943472672ECD",
"T  c #94B072C62EF4",
"R  c #95B873932F48",
"E  c #994B76553069",
"W  c #A3647E203399",
"Q  c #A6938096349A",
"!  c #A76A813B34DE",
"~  c #A82B81D0351B",
"^  c #A95B82BA357B",
"/  c #ABD384A33642",
"(  c #AEC486E83730",
")  c #AF88877F376E",
"_  c #B87B8E683A42",
"`  c #B92E8EF23A7A",
"'  c #B9F28F893AB8",
"]  c #BB16906B3B14",
"[  c #BE6192F53C1F",
"{  c #C50F981D3E3B",
"}  c #C6EE998F3ED2",
"|  c #C7ED9A543F23",
" . c #CC5E9DC2408A",
".. c #CD0C9E4840C0",
"X. c #CDA99EC140F2",
"o. c #D002A09241B0",
"O. c #D05DA0D741CC",
"+. c #D35AA32642BE",
"@. c #D419A3BA42FA",
"#. c #D553A4AC435E",
"$. c #D5E6A51D438C",
"%. c #DA06A84D44D9",
"&. c #DA9AA8BF4508",
"*. c #DEF7AC1D4669",
"=. c #E07AAD4846E3",
"-. c #E2C1AF0A479B",
";. c #E2FFAF3947AF",
":. c #E434B0284810",
">. c #E506B0CA4852",
",. c #E602B18C48A2",
"<. c #E6A5B20A48D6",
"1. c #E76CB2A44914",
"2. c #E79DB2CA4924",
/* pixels */
"2.2.2.2.2.2.2.2.2.2.2.2.2.2.2.2.2.2.2.2.2.2.2.2.2.2.2.2.2.2.2.2.2.2.2.2.",
"2.2.2.2.2.2.2.2.2.2.2.2.2.2.2.2.2.2.2.2.2.2.2.2.2.2.2.2.2.2.2.2.2.2.2.2.",
"2.2.2.2.2.2.2.2.2.2.2.2.2.2.2.2.2.2.2.2.2.2.2.2.2.2.2.2.2.2.2.2.2.2.2.2.",
"2.2.2.2.2.2.2.2.2.2.2.2.2.2.2.2.2.2.2.2.2.2.2.2.2.2.2.2.2.2.2.2.2.2.2.2.",
"2.2.2.2.2.2.2.2.2.2.2.2.2.2.2.2.2.2.2.2.2.2.2.2.2.2.2.2.2.2.2.2.2.2.2.2.",
"2.2.2.2.2.2.2.2.2.2.2.2.2.2.2.2.2.2.2.2.2.2.2.2.2.2.2.2.2.2.2.2.2.2.2.2.",
"2.2.2.2.2.2.2.2.2.2.2.2.2.2.2.2.2.2.2.2.2.2.2.2.2.2.2.2.2.2.2.2.2.2.2.2.",
"2.2.2.2.2.2.2.2.2.2.2.2.2.2.2.2.2.2.2.2.2.2.2.2.2.2.2.2.2.2.2.2.2.2.2.2.",
"2.2.2.2.2.2.2.2.2.2.2.2.2.2.2.2.2.2.2.2.2.2.2.2.2.2.2.2.2.2.2.2.2.2.2.2.",
"2.2.2.2.2.2.2.2.2.&.^ Z A ) 2.2.2.2.2.2.[ R m I _ 2.2.2.2.2.2.2.2.2.2.2.",
"2.2.2.2.2.2.2.2.L       &   : O.2.2.2.h       %   h 2.2.2.2.2.2.2.2.2.2.",
"2.2.2.2.2.2.2.!     >       7 & 2.2.C   &           A 2.2.2.2.2.2.2.2.2.",
"2.2.2.2.2.2.2.&   1 k o.} -     W 2.      P &.F   3   2.2.2.2.2.2.2.2.2.",
"2.2.2.2.2.2.2.  &   &.2.2.!   u s 2.  <   ;.2.;.      &.2.2.2.2.2.2.2.2.",
"2.2.2.2.2.2.2.  <   2.2.2. .  w   2.      2.2.#.  <   ;.2.2.2.2.2.2.2.2.",
"2.2.2.2.2.2.2.      _ 2.2.m   5   2.2.2.2.s <       V 2.2.2.2.2.2.2.2.2.",
"2.2.2.2.2.2.2.c   3   g 0     3   2.2.2.2.          R 2.2.2.2.2.2.2.2.2.",
"2.2.2.2.2.2.2.2.i       %     9   2.2.2.2.S m y   @   I 2.2.2.2.2.2.2.2.",
"2.2.2.2.2.2.2.2.2.) c 9 g P   y e 2.c c N 2.2.2.W   w % 2.2.2.2.2.2.2.2.",
"2.2.2.2.2.2.2.3      .2.2.h   7 A 2.  &   ;.2.2.}   3   2.2.2.2.2.2.2.2.",
"2.2.2.2.2.2.2.a   3 l #.)   @   } 2.      J O. .i   r a 2.2.2.2.2.2.2.2.",
"2.2.2.2.2.2.2._     -       @ c 2.2.n   %         -   ] 2.2.2.2.2.2.2.2.",
"2.2.2.2.2.2.2.2.J       :   z 2.2.2.2.j       @     R 2.2.2.2.2.2.2.2.2.",
"2.2.2.2.2.2.2.2.2.$.E N G } 2.2.2.2.2.2. .J V F ^ *.2.2.2.2.2.2.2.2.2.2.",
"2.2.2.2.2.2.2.2.2.2.2.2.2.2.2.2.2.2.2.2.2.2.2.2.2.2.2.2.2.2.2.2.2.2.2.2.",
"2.2.2.2.2.2.2.2.2.2.2.2.2.2.2.2.2.2.2.2.2.2.2.2.2.2.2.2.2.2.2.2.2.2.2.2.",
"2.2.2.2.2.2.2.2.2.2.2.2.2.2.2.2.2.2.2.2.2.2.2.2.2.2.2.2.2.2.2.2.2.2.2.2.",
"2.2.2.2.2.2.2.2.2.2.2.2.2.2.2.2.2.2.2.2.2.2.2.2.2.2.2.2.2.2.2.2.2.2.2.2.",
"2.2.2.2.2.2.2.2.2.2.2.2.2.2.2.2.2.2.2.2.2.2.2.2.2.2.2.2.2.2.2.2.2.2.2.2.",
"2.2.2.2.2.2.2.2.2.2.2.2.2.2.2.2.2.2.2.2.2.2.2.2.2.2.2.2.2.2.2.2.2.2.2.2.",
"2.2.2.2.2.2.2.2.2.2.2.2.2.2.2.2.2.2.2.2.2.2.2.2.2.2.2.2.2.2.2.2.2.2.2.2.",
"2.2.2.2.2.2.2.2.2.2.2.2.2.2.2.2.2.2.2.2.2.2.2.2.2.2.2.2.2.2.2.2.2.2.2.2.",
"2.2.2.2.2.2.2.2.2.2.2.2.2.2.2.2.2.2.2.2.2.2.2.2.2.2.2.2.2.2.2.2.2.2.2.2.",
"2.2.2.2.2.2.2.2.2.2.2.2.2.2.2.2.2.2.2.2.2.2.2.2.2.2.2.2.2.2.2.2.2.2.2.2.",
"2.2.2.2.2.2.2.2.2.2.2.2.2.2.2.2.2.2.2.2.2.2.2.2.2.2.2.2.2.2.2.2.2.2.2.2.",
"2.2.2.2.2.2.2.2.2.2.2.2.2.2.2.2.2.2.2.2.2.2.2.2.2.2.2.2.2.2.2.2.2.2.2.2."
};
