/* XPM */
static char *empty-0-LB-0[] = {
/* columns rows colors chars-per-pixel */
"36 36 61 1",
"  c #000800060003",
". c #012A00E6005E",
"X c #01B70152008B",
"o c #023001B100B1",
"O c #02C6022400E0",
"+ c #037E02B2011B",
"@ c #0592044C01C2",
"# c #061F04BA01EF",
"$ c #0888069602B2",
"% c #16C711950731",
"& c #26F61E130C4E",
"* c #29361FD00D03",
"= c #34642871108B",
"- c #47FB379116BB",
"; c #61894B4A1ECD",
": c #62FE4C6A1F43",
"> c #63D34D0F1F86",
", c #65554E382000",
"< c #67014F832087",
"1 c #676E4FD720A9",
"2 c #688D50B42104",
"3 c #76095B1D2546",
"4 c #77C65C7525D2",
"5 c #7FD962B0285F",
"6 c #80CA636A28AB",
"7 c #8326653D296B",
"8 c #853866D52A11",
"9 c #87ED68ED2AED",
"0 c #890369C42B44",
"q c #89AB6A462B7A",
"w c #8EBB6E2D2D12",
"e c #90056F2C2D7B",
"r c #90E96FDD2DC3",
"t c #952B73262F1B",
"y c #972C74B22FBD",
"u c #9AD3778330E4",
"i c #9DCD79D031D5",
"p c #A1497C8032EF",
"a c #A3867E3B33A4",
"s c #A48C7F0533F7",
"d c #A66A8076348D",
"f c #ACBD8558368D",
"g c #B1D189433827",
"h c #B60F8C8A397E",
"j c #B7DE8DEE3A10",
"k c #BA408FC53AD1",
"l c #BB43908D3B22",
"z c #C2A4963F3D77",
"x c #C6BB99683EC2",
"c c #CB1D9CCA4024",
"v c #CD829EA340E6",
"b c #D073A0E841D3",
"n c #D39EA35A42D3",
"m c #D3D4A38442E5",
"M c #D4C6A43F4331",
"N c #DDBEAB2A4606",
"B c #E034AD1146CD",
"V c #E2F7AF3447AC",
"C c #E6ABB20F48D7",
"Z c #E739B27C4904",
"A c #E79DB2CA4924",
/* pixels */
"AAAAAAAAAAAAAAAAAAAAAAAAAAAAAAAAAAAA",
"AAAAAAAAAAAAAAAAAAAAAAAAAAAAAAAAAAAA",
"AAAAAAAAAAAAAAAAAAAAAAAAAAAAAAAAAAAA",
"AAAAAAAAAAAAAAAAAAAAAAAAAAAAAAAAAAAA",
"AAAAAAAAAAAAAAAAAAAAAAAAAAAAAAAAAAAA",
"AAAAAAAAAAAAAAAAAAAAAAAAAAAAAAAAAAAA",
"AAAAAAAAAAAAAAAAAAAAAAAAAAAAAAAAAAAA",
"AAAAAAAAAAAAAAAAAAAAAAAAAAAAAAAAAAAA",
"AAAAAAAAAAAAAAAAAAAAAAAAAAAAAAAAAAAA",
"AAAAAAAAAAAAAAAx62qvAAAAAAAAAAAAAAAA",
"AAAAAAAAAAAAAA> $ # qAAAAAAAAAAAAAAA",
"AAAAAAAAAAAAAw       gAAAAAAAAAAAAAA",
"AAAAAAAAAAAAV   qM;  %AAAAAAAAAAAAAA",
"AAAAAAAAAAAAl   AAN   MAAAAAAAAAAAAA",
"AAAAAAAAAAAAr# 2AAA&  jAAAAAAAAAAAAA",
"AAAAAAAAAAAA3 $6AAA-  aAAAAAAAAAAAAA",
"AAAAAAAAAAAA< #tAAA> #yAAAAAAAAAAAAA",
"AAAAAAAAAAAA8 $6AAA-  fAAAAAAAAAAAAA",
"AAAAAAAAAAAAa #2AAA*  zAAAAAAAAAAAAA",
"AAAAAAAAAAAAl   AAV   nAAAAAAAAAAAAA",
"AAAAAAAAAAAAA   uN4  =AAAAAAAAAAAAAA",
"AAAAAAAAAAAAAr       hAAAAAAAAAAAAAA",
"AAAAAAAAAAAAAA6     sAAAAAAAAAAAAAAA",
"AAAAAAAAAAAAAAAci1fvAAAAAAAAAAAAAAAA",
"AAAAAAAAAAAAAAAAAAAAAAAAAAAAAAAAAAAA",
"AAAAAAAAAAAAAAAAAAAAAAAAAAAAAAAAAAAA",
"AAAAAAAAAAAAAAAAAAAAAAAAAAAAAAAAAAAA",
"AAAAAAAAAAAAAAAAAAAAAAAAAAAAAAAAAAAA",
"AAAAAAAAAAAAAAAAAAAAAAAAAAAAAAAAAAAA",
"AAAAAAAAAAAAAAAAAAAAAAAAAAAAAAAAAAAA",
"AAAAAAAAAAAAAAAAAAAAAAAAAAAAAAAAAAAA",
"AAAAAAAAAAAAAAAAAAAAAAAAAAAAAAAAAAAA",
"AAAAAAAAAAAAAAAAAAAAAAAAAAAAAAAAAAAA",
"AAAAAAAAAAAAAAAAAAAAAAAAAAAAAAAAAAAA",
"AAAAAAAAAAAAAAAAAAAAAAAAAAAAAAAAAAAA",
"AAAAAAAAAAAAAAAAAAAAAAAAAAAAAAAAAAAA"
};
