/* XPM */
static char *empty-0-LB-22[] = {
/* columns rows colors chars-per-pixel */
"36 36 64 1",
"  c #000200010001",
". c #013600EF0062",
"X c #01B301500089",
"o c #0213019A00A8",
"O c #03540291010D",
"+ c #05C8047701D3",
"@ c #06B3052C021E",
"# c #078705D00260",
"$ c #07F406240283",
"% c #0C52098303E4",
"& c #0DD00AAA045D",
"* c #0F7F0BF604E5",
"= c #0FC80C2E04FC",
"- c #10D90D010552",
"; c #11E90DD305A8",
": c #12B60E7205E9",
"> c #1B71152F08AA",
", c #1D9316D40957",
"< c #219419EC0A9B",
"1 c #27981E900C80",
"2 c #313525FC0F89",
"3 c #3460286E108A",
"4 c #3C702EA81316",
"5 c #3F6230ED1404",
"6 c #446634CC159A",
"7 c #573943541B8B",
"8 c #58F244A81C16",
"9 c #65554E382000",
"0 c #69BB519E2163",
"q c #6D7B54822292",
"w c #6EEC559F2307",
"e c #7116574C23B6",
"r c #72E658B12448",
"t c #7AE35EDC26CE",
"y c #808463352896",
"u c #813063BA28CC",
"i c #8DCC6D742CC7",
"p c #963173F02F6E",
"a c #98AD75DB3037",
"s c #9DCB79CE31D4",
"d c #9FC97B583275",
"f c #AB13840F3606",
"g c #AD9685FF36D1",
"h c #BB3B90883B20",
"j c #BB4F90973B27",
"k c #BE3092CF3C0F",
"l c #C16395483D12",
"z c #C40A97543DE8",
"x c #C6C499703EC5",
"c c #CB9A9D2B404C",
"v c #CF209FE44168",
"b c #D344A31542B7",
"n c #D54BA4A6435B",
"m c #D743A62A43FA",
"M c #D7F4A6B34432",
"N c #D8DDA768447C",
"B c #D9BBA81344C2",
"V c #DA92A8B94506",
"C c #DCBEAA6545B5",
"Z c #DD48AAD045E1",
"A c #DF7EAC854693",
"S c #E664B1D848C1",
"D c #E74DB28D490B",
"F c #E79DB2CA4924",
/* pixels */
"FFFFFFFFFFFFFFFFFFFFFFFFFFFFFFFFFFFF",
"FFFFFFFFFFFFFFFFFFFFFFFFFFFFFFFFFFFF",
"FFFFFFFFFFFFFFFFFFFFFFFFFFFFFFFFFFFF",
"FFFFFFFFFFFFFFFFFFFFFFFFFFFFFFFFFFFF",
"FFFFFFFFFFFFFFFFFFFFFFFFFFFFFFFFFFFF",
"FFFFFFFFFFFFFFFFFFFFFFFFFFFFFFFFFFFF",
"FFFFFFFFFFFFFFFFFFFFFFFFFFFFFFFFFFFF",
"FFFFFFFFFFFFFFFFFFFFFFFFFFFFFFFFFFFF",
"FFFFFFFFFFFFFFFFFFFFFFFFFFFFFFFFFFFF",
"FFFFFFFFFbpredVFFFFFbprrdMFFFFFFFFFF",
"FFFFFFFF0   ++ aFFF0   ++ aFFFFFFFFF",
"FFFFFFFu ++   : hFu ++   : hFFFFFFFF",
"FFFFFFF   uMv> 24F   uMv> 24FFFFFFFF",
"FFFFFFV 1 FFFk < V 1 FFFk < FFFFFFFF",
"FFFFFFv  3FFFg 1+b  3FFFg 1+FFFFFFFF",
"FFFFFFFnnZFFx  :tFnnAFFx  :tFFFFFFFF",
"FFFFFFFFFFM7  >:ZFFFFM7  >:ZFFFFFFFF",
"FFFFFFFFFi  * 5nFFFFi  * 5MFFFFFFFFF",
"FFFFFFFF6 % *fFFFFF6 * *fFFFFFFFFFFF",
"FFFFFFF8 > dFFFFFF8 > dFFFFFFFFFFFFF",
"FFFFFFZ > zzzkzzzA > zzkkzzzFFFFFFFF",
"FFFFFFd :        d :        FFFFFFFF",
"FFFFFFd        * q        * FFFFFFFF",
"FFFFFFh999999999qh999999999qFFFFFFFF",
"FFFFFFFFFFFFFFFFFFFFFFFFFFFFFFFFFFFF",
"FFFFFFFFFFFFFFFFFFFFFFFFFFFFFFFFFFFF",
"FFFFFFFFFFFFFFFFFFFFFFFFFFFFFFFFFFFF",
"FFFFFFFFFFFFFFFFFFFFFFFFFFFFFFFFFFFF",
"FFFFFFFFFFFFFFFFFFFFFFFFFFFFFFFFFFFF",
"FFFFFFFFFFFFFFFFFFFFFFFFFFFFFFFFFFFF",
"FFFFFFFFFFFFFFFFFFFFFFFFFFFFFFFFFFFF",
"FFFFFFFFFFFFFFFFFFFFFFFFFFFFFFFFFFFF",
"FFFFFFFFFFFFFFFFFFFFFFFFFFFFFFFFFFFF",
"FFFFFFFFFFFFFFFFFFFFFFFFFFFFFFFFFFFF",
"FFFFFFFFFFFFFFFFFFFFFFFFFFFFFFFFFFFF",
"FFFFFFFFFFFFFFFFFFFFFFFFFFFFFFFFFFFF"
};
