/* XPM */
static char *empty-0-LB-355[] = {
/* columns rows colors chars-per-pixel */
"36 36 104 2",
"   c #000F000C0005",
".  c #010A00CC0054",
"X  c #01DE01710097",
"o  c #026401D800C1",
"O  c #02BE021E00DE",
"+  c #0322026B00FD",
"@  c #037702AD0118",
"#  c #046703660164",
"$  c #050803E20197",
"%  c #05B0046401CC",
"&  c #063B04D001F8",
"*  c #067C0502020C",
"=  c #06CC053F0225",
"-  c #076005B20255",
";  c #112A0D40056C",
":  c #189512F907C3",
">  c #1E58176C0995",
",  c #22681A8F0ADE",
"<  c #24251BE60B6A",
"1  c #271B1E300C59",
"2  c #2B1A21460D9C",
"3  c #2D6E23110E58",
"4  c #2EB5240E0EC0",
"5  c #2EFE24460ED7",
"6  c #3BE92E3F12EB",
"7  c #3CA82ED21328",
"8  c #3F0530A513E7",
"9  c #431433C7152E",
"0  c #44CA351A15B9",
"q  c #458A35AE15F6",
"w  c #488A37FF16E8",
"e  c #4C293ACB180D",
"r  c #511B3E9B199C",
"t  c #581C44041BD3",
"y  c #5D6248151D7D",
"u  c #5E5848D41DCB",
"i  c #637D4CCC1F6B",
"p  c #65554E382000",
"a  c #6A3451FC218A",
"s  c #6AD5527821BD",
"d  c #6BF653572218",
"f  c #6DB554AF22A5",
"g  c #6FC55647234C",
"h  c #75C15AE6252F",
"j  c #76D75BBD2587",
"k  c #78255CBE25F1",
"l  c #7A715E8426AA",
"z  c #7D1E60952783",
"x  c #7ED761E9280E",
"c  c #7F686259283C",
"v  c #8743686A2AB7",
"b  c #88C469932B31",
"n  c #898B6A2C2B6F",
"m  c #89E96A752B8D",
"M  c #8CF96CD22C85",
"N  c #956673542F2E",
"B  c #975874D42FCB",
"V  c #9AEE779830ED",
"C  c #9CAD78F1317A",
"Z  c #9ECB7A943225",
"A  c #9F517AFB324F",
"S  c #A0877BEB32B1",
"D  c #A41B7EAD33D3",
"F  c #A71F810134C6",
"G  c #A9E7832735A8",
"H  c #AB9C84783631",
"J  c #ACC2855B368E",
"K  c #AEA286CE3726",
"L  c #B080883F37BD",
"P  c #B10888A837E8",
"I  c #B1D489463828",
"U  c #B6158C8E3980",
"Y  c #B8228E233A26",
"T  c #BBEB910F3B58",
"R  c #BD9192553BDD",
"E  c #BE0D92B53C04",
"W  c #C08994A03CCD",
"Q  c #C166954A3D13",
"!  c #C50198133E36",
"~  c #CA369C173FDB",
"^  c #CADD9C994010",
"/  c #CBD59D58405E",
"(  c #CD889EA840E7",
")  c #CE559F464128",
"_  c #CF019FCB415F",
"`  c #D0A0A10C41E1",
"'  c #D12FA17A420F",
"]  c #D192A1C6422E",
"[  c #D1D7A1FB4244",
"{  c #D550A4AA435D",
"}  c #D64CA56C43AC",
"|  c #D757A63A4400",
" . c #D8E2A76B447D",
".. c #DB89A9774553",
"X. c #DC0FA9DF457E",
"o. c #DDB5AB244603",
"O. c #DE23AB794626",
"+. c #E035AD1346CE",
"@. c #E0F8ADA9470B",
"#. c #E350AF7847C8",
"$. c #E460B04A481E",
"%. c #E691B1FB48CF",
"&. c #E73AB27D4905",
"*. c #E79DB2CA4924",
/* pixels */
"*.*.*.*.*.*.*.*.*.*.*.*.*.*.*.*.*.*.*.*.*.*.*.*.*.*.*.*.*.*.*.*.*.*.*.*.",
"*.*.*.*.*.*.*.*.*.*.*.*.*.*.*.*.*.*.*.*.*.*.*.*.*.*.*.*.*.*.*.*.*.*.*.*.",
"*.*.*.*.*.*.*.*.*.*.*.*.*.*.*.*.*.*.*.*.*.*.*.*.*.*.*.*.*.*.*.*.*.*.*.*.",
"*.*.*.*.*.*.*.*.*.*.*.*.*.*.*.*.*.*.*.*.*.*.*.*.*.*.*.*.*.*.*.*.*.*.*.*.",
"*.*.*.*.*.*.*.*.*.*.*.*.*.*.*.*.*.*.*.*.*.*.*.*.*.*.*.*.*.*.*.*.*.*.*.*.",
"*.*.*.*.*.*.*.*.*.*.*.*.*.*.*.*.*.*.*.*.*.*.*.*.*.*.*.*.*.*.*.*.*.*.*.*.",
"*.*.*.*.*.*.*.*.*.*.*.*.*.*.*.*.*.*.*.*.*.*.*.*.*.*.*.*.*.*.*.*.*.*.*.*.",
"*.*.*.*.*.*.*.*.*.*.*.*.*.*.*.*.*.*.*.*.*.*.*.*.*.*.*.*.*.*.*.*.*.*.*.*.",
"*.*.*.*.*.*.*.*.*.*.*.*.*.*.*.*.*.*.*.*.*.*.*.*.*.*.*.*.*.*.*.*.*.*.*.*.",
"*.*.*.@.G c l D O.*.*.*.*.H p p p p p p i N *.*.H p p p p p p p N *.*.*.",
"*.*.Y     #       F *.*.*.t               9 *.*.t               9 *.*.*.",
"*.*.    &     &     | *.*.>               0 *.*.>               9 *.*.*.",
"*.J       ) [ ;     C *.*.      Q Q Q Q W [ *.*.      Q Q Q Q Q [ *.*.*.",
"*.b   & b *.*.b -   a *.O.    < *.*.*.*.*.*.*.O.    , *.*.*.*.*.*.*.*.*.",
"*.f     C *.*.g & & M *.)     u 9 1 i C *.*.*.)     u 9 1 p C *.*.*.*.*.",
"*.*.*.*.Q , &       | *.J     &         : | *.I               : | *.*.*.",
"*.*.*.*.P         5 [ *.M & &   r 0   # # 5 *.M & #   r 0   & # 4 *.*.*.",
"*.*.*.*.) p r &       @.C 7 8 _ *.*. .      ~ C 7 8 _ *.*. .      ~ *.*.",
"*.D u u T *.*.*.2     I *.*.*.*.*.*.*.e     S *.*.*.*.*.*.*.e     D *.*.",
"*.f   & c *.*.*.e     S       @.*.*.*.5     U       @.*.*.*.5     U *.*.",
"*.C       ! | G       ) 5     a [ [ v       | 5     a [ [ v       | *.*.",
"*.O.    &           7 *.P     &           c *.I     &           z *.*.*.",
"*.*.W     #       7  .*.*.D             h *.*.*.S             h *.*.*.*.",
"*.*.*.@.J z f B W *.*.*.*.*. .F l h D [ *.*.*.*.*.O.F l k D _ *.*.*.*.*.",
"*.*.*.*.*.*.*.*.*.*.*.*.*.*.*.*.*.*.*.*.*.*.*.*.*.*.*.*.*.*.*.*.*.*.*.*.",
"*.*.*.*.*.*.*.*.*.*.*.*.*.*.*.*.*.*.*.*.*.*.*.*.*.*.*.*.*.*.*.*.*.*.*.*.",
"*.*.*.*.*.*.*.*.*.*.*.*.*.*.*.*.*.*.*.*.*.*.*.*.*.*.*.*.*.*.*.*.*.*.*.*.",
"*.*.*.*.*.*.*.*.*.*.*.*.*.*.*.*.*.*.*.*.*.*.*.*.*.*.*.*.*.*.*.*.*.*.*.*.",
"*.*.*.*.*.*.*.*.*.*.*.*.*.*.*.*.*.*.*.*.*.*.*.*.*.*.*.*.*.*.*.*.*.*.*.*.",
"*.*.*.*.*.*.*.*.*.*.*.*.*.*.*.*.*.*.*.*.*.*.*.*.*.*.*.*.*.*.*.*.*.*.*.*.",
"*.*.*.*.*.*.*.*.*.*.*.*.*.*.*.*.*.*.*.*.*.*.*.*.*.*.*.*.*.*.*.*.*.*.*.*.",
"*.*.*.*.*.*.*.*.*.*.*.*.*.*.*.*.*.*.*.*.*.*.*.*.*.*.*.*.*.*.*.*.*.*.*.*.",
"*.*.*.*.*.*.*.*.*.*.*.*.*.*.*.*.*.*.*.*.*.*.*.*.*.*.*.*.*.*.*.*.*.*.*.*.",
"*.*.*.*.*.*.*.*.*.*.*.*.*.*.*.*.*.*.*.*.*.*.*.*.*.*.*.*.*.*.*.*.*.*.*.*.",
"*.*.*.*.*.*.*.*.*.*.*.*.*.*.*.*.*.*.*.*.*.*.*.*.*.*.*.*.*.*.*.*.*.*.*.*.",
"*.*.*.*.*.*.*.*.*.*.*.*.*.*.*.*.*.*.*.*.*.*.*.*.*.*.*.*.*.*.*.*.*.*.*.*."
};
