/* XPM */
static char *empty-0-LB-225[] = {
/* columns rows colors chars-per-pixel */
"36 36 99 2",
"   c #000D000A0004",
".  c #01E101730098",
"X  c #023301B300B2",
"o  c #02BD021E00DD",
"O  c #037902AF0119",
"+  c #046D036A0166",
"@  c #050803E20197",
"#  c #05A0045801C7",
"$  c #065604E40200",
"%  c #0B2108970384",
"&  c #185E12CF07B2",
"*  c #1E58176C0995",
"=  c #23BE1B970B49",
"-  c #24251BE60B6A",
";  c #271B1E300C59",
":  c #2EB5240E0EC0",
">  c #2EFE24460ED7",
",  c #3189263C0FA4",
"<  c #3326277C1027",
"1  c #39572C43121B",
"2  c #3CB52EDC132C",
"3  c #3F0530A513E7",
"4  c #3F7430FB1409",
"5  c #3FA1311E1418",
"6  c #431433C7152E",
"7  c #44CA351A15B9",
"8  c #458A35AE15F6",
"9  c #46E836BC1664",
"0  c #4C293ACB180D",
"q  c #51073E8C1996",
"w  c #534340461A4B",
"e  c #581C44041BD3",
"r  c #5D6248151D7D",
"t  c #637D4CCC1F6B",
"y  c #65554E382000",
"u  c #65AB4E7B201B",
"i  c #65D64E9C2028",
"p  c #6AD5527821BD",
"a  c #6BFC535B2219",
"s  c #6E29550922CA",
"d  c #73D059662492",
"f  c #75C15AE6252F",
"g  c #76D75BBD2587",
"h  c #78255CBE25F1",
"j  c #7D8360E327A2",
"k  c #7EE561F42812",
"l  c #813663BE28CE",
"z  c #86BD68032A8D",
"x  c #8743686A2AB7",
"c  c #8CC36CA82C74",
"v  c #922A70D42E28",
"b  c #956673542F2E",
"n  c #95F473C12F5B",
"m  c #98287575300D",
"M  c #99F176D6309D",
"N  c #9CB378F6317C",
"B  c #9D85799831BF",
"V  c #9E0B79FF31E8",
"C  c #9F517AFB324F",
"Z  c #A0797BE032AD",
"A  c #A4127EA733D0",
"S  c #A69D809D349D",
"D  c #A749812234D3",
"F  c #AB1F8417360A",
"G  c #AFAA879A3779",
"H  c #B00087DC3795",
"J  c #B0E9889037DE",
"K  c #B1D489463828",
"L  c #B6158C8E3980",
"P  c #B9E08F7C3AB2",
"I  c #BDC7927F3BEE",
"U  c #C16495493D12",
"Y  c #C4B697D93E1E",
"T  c #C52D98343E44",
"R  c #C5D298B43E78",
"E  c #CA369C173FDB",
"W  c #CBD29D56405D",
"Q  c #CE559F464128",
"!  c #CF019FCB415F",
"~  c #D0C9A12B41EE",
"^  c #D157A199421B",
"/  c #D192A1C6422E",
"(  c #D1D7A1FB4244",
")  c #D329A2FF42AE",
"_  c #D54CA4A7435B",
"`  c #D601A5324394",
"'  c #D799A66D4415",
"]  c #D8E2A76B447D",
"[  c #D9EDA83944D1",
"{  c #DC4EAA104592",
"}  c #DDB5AB244603",
"|  c #E00BACF246C0",
" . c #E350AF7847C8",
".. c #E402B0014800",
"X. c #E5ABB14A4887",
"o. c #E602B18D48A2",
"O. c #E693B1FD48D0",
"+. c #E738B27C4904",
"@. c #E79DB2CA4924",
/* pixels */
"@.@.@.@.@.@.@.@.@.@.@.@.@.@.@.@.@.@.@.@.@.@.@.@.@.@.@.@.@.@.@.@.@.@.@.@.",
"@.@.@.@.@.@.@.@.@.@.@.@.@.@.@.@.@.@.@.@.@.@.@.@.@.@.@.@.@.@.@.@.@.@.@.@.",
"@.@.@.@.@.@.@.@.@.@.@.@.@.@.@.@.@.@.@.@.@.@.@.@.@.@.@.@.@.@.@.@.@.@.@.@.",
"@.@.@.@.@.@.@.@.@.@.@.@.@.@.@.@.@.@.@.@.@.@.@.@.@.@.@.@.@.@.@.@.@.@.@.@.",
"@.@.@.@.@.@.@.@.@.@.@.@.@.@.@.@.@.@.@.@.@.@.@.@.@.@.@.@.@.@.@.@.@.@.@.@.",
"@.@.@.@.@.@.@.@.@.@.@.@.@.@.@.@.@.@.@.@.@.@.@.@.@.@.@.@.@.@.@.@.@.@.@.@.",
"@.@.@.@.@.@.@.@.@.@.@.@.@.@.@.@.@.@.@.@.@.@.@.@.@.@.@.@.@.@.@.@.@.@.@.@.",
"@.@.@.@.@.@.@.@.@.@.@.@.@.@.@.@.@.@.@.@.@.@.@.@.@.@.@.@.@.@.@.@.@.@.@.@.",
"@.@.@.@.@.@.@.@.@.@.@.@.@.@.@.@.@.@.@.@.@.@.@.@.@.@.@.@.@.@.@.@.@.@.@.@.",
"@.@.@.@.P k i j P @.@.@.@.@.@.P l i h P @.@.@.@.F y t t y y y y n @.@.@.",
"@.@.~ & o o o + o , { @.@.~ & o # o o o , } @.@.e o o o o o o o 6 @.@.@.",
"@...# o o o o o o # < @...o o o o o o o # , @.@.* o o o o o o o 9 @.@.@.",
"@.F o o o I ' M o o o Y F o o o I ' M o o o I @.o o o I I I I Y ~ @.@.@.",
"@.s o o A @.@.@.2 o + V a o o A @.@.@.2 o o V } o o = @.@.@.@.@.@.@.@.@.",
"@.q o o R @.@.@.1 o o J q o o R @.@.@.1 o o G E o o r 2 - t Z @.@.@.@.@.",
"@.| ) ) @.@.@.z o o o ) ..~ ~ @.@.@.z o o o ] G o o o o o o o & ~ @.@.@.",
"@.@.@.@.@.G $ o o o v @.@.@.@.@.G $ o o o v @.c # + o q 6 o o o : @.@.@.",
"@.@.@.~ 2 o o # o n @.@.@.@.~ 2 o o o o n @.@.M 2 3 W @.@.] o o o W @.@.",
"@.@.I o + # o i ~ @.@.@.@.R o o # o y ) @.@.@.@.@.@.@.@.@.@.0 o o V @.@.",
"@.} o o o 9 ~ @.@.@.@.@.{ o o o 9 ~ @.@.@.@.@.o o o ..@.@.@.: o o L @.@.",
"@.c o o d I I I I I I ..c o o d I I I I I Y | > o o p ! Q z o o o ) @.@.",
"@.= o o o o o o o o o n = o o o o + o o o o n K o o + o o o o o j @.@.@.",
"@.V o o o o o o o o # n o o o o o o o o o + n @.V o o o o o o d @.@.@.@.",
"@.p t t y t t y t y i I p t t t y y t t t y I @.@.{ F d d A Q @.@.@.@.@.",
"@.@.@.@.@.@.@.@.@.@.@.@.@.@.@.@.@.@.@.@.@.@.@.@.@.@.@.@.@.@.@.@.@.@.@.@.",
"@.@.@.@.@.@.@.@.@.@.@.@.@.@.@.@.@.@.@.@.@.@.@.@.@.@.@.@.@.@.@.@.@.@.@.@.",
"@.@.@.@.@.@.@.@.@.@.@.@.@.@.@.@.@.@.@.@.@.@.@.@.@.@.@.@.@.@.@.@.@.@.@.@.",
"@.@.@.@.@.@.@.@.@.@.@.@.@.@.@.@.@.@.@.@.@.@.@.@.@.@.@.@.@.@.@.@.@.@.@.@.",
"@.@.@.@.@.@.@.@.@.@.@.@.@.@.@.@.@.@.@.@.@.@.@.@.@.@.@.@.@.@.@.@.@.@.@.@.",
"@.@.@.@.@.@.@.@.@.@.@.@.@.@.@.@.@.@.@.@.@.@.@.@.@.@.@.@.@.@.@.@.@.@.@.@.",
"@.@.@.@.@.@.@.@.@.@.@.@.@.@.@.@.@.@.@.@.@.@.@.@.@.@.@.@.@.@.@.@.@.@.@.@.",
"@.@.@.@.@.@.@.@.@.@.@.@.@.@.@.@.@.@.@.@.@.@.@.@.@.@.@.@.@.@.@.@.@.@.@.@.",
"@.@.@.@.@.@.@.@.@.@.@.@.@.@.@.@.@.@.@.@.@.@.@.@.@.@.@.@.@.@.@.@.@.@.@.@.",
"@.@.@.@.@.@.@.@.@.@.@.@.@.@.@.@.@.@.@.@.@.@.@.@.@.@.@.@.@.@.@.@.@.@.@.@.",
"@.@.@.@.@.@.@.@.@.@.@.@.@.@.@.@.@.@.@.@.@.@.@.@.@.@.@.@.@.@.@.@.@.@.@.@.",
"@.@.@.@.@.@.@.@.@.@.@.@.@.@.@.@.@.@.@.@.@.@.@.@.@.@.@.@.@.@.@.@.@.@.@.@."
};
