/* XPM */
static char *empty-0-LB-38[] = {
/* columns rows colors chars-per-pixel */
"36 36 115 2",
"   c #000700050002",
".  c #010900CD0054",
"X  c #018F0134007E",
"o  c #024B01C500BA",
"O  c #02F9024C00F0",
"+  c #04790374016A",
"@  c #0581044001BD",
"#  c #064904DA01FC",
"$  c #065E04EA0203",
"%  c #06F5055F0232",
"&  c #079C05DF0267",
"*  c #089E06A702B9",
"=  c #09E607A40320",
"-  c #0A83081D0352",
";  c #0BC3091403B7",
":  c #0C33096B03DB",
">  c #0DDE0AB40461",
",  c #0F640BE104DC",
"<  c #147A0FCE0678",
"1  c #15D810DC06E6",
"2  c #1774121A0768",
"3  c #18C6131F07D2",
"4  c #1BD9157F08CB",
"5  c #1ECE17C809BA",
"6  c #1F69184009EC",
"7  c #205118F20A34",
"8  c #29C720400D31",
"9  c #2B60217C0DB2",
"0  c #2DD323600E79",
"q  c #2F8E24B50F04",
"w  c #31C4266B0FB7",
"e  c #327D26FA0FF2",
"r  c #34DD28CF10B2",
"t  c #3C9B2EC81323",
"y  c #3DDA2FBF1388",
"u  c #40C431FE1474",
"i  c #412E32511495",
"p  c #436234041547",
"a  c #441F34961583",
"s  c #4779372C1692",
"d  c #49E5390A1755",
"f  c #4B0F39F017B4",
"g  c #4B703A3B17D3",
"h  c #4E363C5F18B3",
"j  c #5E5848D41DCB",
"k  c #62344BCF1F03",
"l  c #62934C181F21",
"z  c #63AC4CF11F79",
"x  c #65204E101FEF",
"c  c #659A4E6F2016",
"v  c #686D509C20FA",
"b  c #6C2C53802229",
"n  c #6EA3556822F0",
"m  c #705D56BC237C",
"M  c #712B575B23BD",
"N  c #73E359752499",
"B  c #754C5A8C250A",
"V  c #78535CE22600",
"C  c #78815D05260E",
"Z  c #7B015EF326D7",
"A  c #7F636255283A",
"S  c #7FBD629B2856",
"D  c #8300651F295F",
"F  c #840C65EE29B3",
"G  c #893369E92B54",
"H  c #8AAC6B0B2BCA",
"J  c #904C6F632D91",
"K  c #908E6F962DA6",
"L  c #90D86FD02DBE",
"P  c #91B370782E03",
"I  c #925470F42E35",
"U  c #936D71CD2E8E",
"Y  c #943572672ECD",
"T  c #94C972DA2EFC",
"R  c #95B973932F48",
"E  c #9C2D788F3152",
"W  c #A0F57C3F32D4",
"Q  c #A2637D5A3348",
"!  c #A3347DFB338A",
"~  c #A7E181973504",
"^  c #A8B282393546",
"/  c #A98982DE3589",
"(  c #B39C8AA538B8",
")  c #B8168E1A3A22",
"_  c #B9F18F893AB8",
"`  c #BB18906C3B15",
"'  c #BE6192F63C1F",
"]  c #C50F981D3E3B",
"[  c #C74C99D83EEF",
"{  c #CADD9C994010",
"}  c #CC3C9DA8407F",
"|  c #CD299E5E40C9",
" . c #CDA99EC140F2",
".. c #CFC9A065419E",
"X. c #CFF2A08541AB",
"o. c #D183A1BA4229",
"O. c #D25FA264426F",
"+. c #D35AA32642BE",
"@. c #D41AA3BA42FA",
"#. c #D63FA56243A8",
"$. c #DA06A84D44D9",
"%. c #DAA4A8C7450B",
"&. c #DDCCAB36460A",
"*. c #DE87ABC64645",
"=. c #DEF7AC1D4669",
"-. c #E07BAD4846E3",
";. c #E12EADD2471C",
":. c #E2B9AF044799",
">. c #E2FFAF3A47AF",
",. c #E447B0364816",
"<. c #E5D3B1684893",
"1. c #E602B18D48A2",
"2. c #E6A0B20648D4",
"3. c #E76CB2A44914",
"4. c #E79DB2CA4924",
/* pixels */
"4.4.4.4.4.4.4.4.4.4.4.4.4.4.4.4.4.4.4.4.4.4.4.4.4.4.4.4.4.4.4.4.4.4.4.4.",
"4.4.4.4.4.4.4.4.4.4.4.4.4.4.4.4.4.4.4.4.4.4.4.4.4.4.4.4.4.4.4.4.4.4.4.4.",
"4.4.4.4.4.4.4.4.4.4.4.4.4.4.4.4.4.4.4.4.4.4.4.4.4.4.4.4.4.4.4.4.4.4.4.4.",
"4.4.4.4.4.4.4.4.4.4.4.4.4.4.4.4.4.4.4.4.4.4.4.4.4.4.4.4.4.4.4.4.4.4.4.4.",
"4.4.4.4.4.4.4.4.4.4.4.4.4.4.4.4.4.4.4.4.4.4.4.4.4.4.4.4.4.4.4.4.4.4.4.4.",
"4.4.4.4.4.4.4.4.4.4.4.4.4.4.4.4.4.4.4.4.4.4.4.4.4.4.4.4.4.4.4.4.4.4.4.4.",
"4.4.4.4.4.4.4.4.4.4.4.4.4.4.4.4.4.4.4.4.4.4.4.4.4.4.4.4.4.4.4.4.4.4.4.4.",
"4.4.4.4.4.4.4.4.4.4.4.4.4.4.4.4.4.4.4.4.4.4.4.4.4.4.4.4.4.4.4.4.4.4.4.4.",
"4.4.4.4.4.4.4.4.4.4.4.4.4.4.4.4.4.4.4.4.4.4.4.4.4.4.4.4.4.4.4.4.4.4.4.4.",
"4.4.4.4.4.4.4.4.4.' R x K _ 4.4.4.4.4.4.#.W Z S ~ &.4.4.4.4.4.4.4.4.4.4.",
"4.4.4.4.4.4.4.4.g       =   d 4.4.4.4.z       @     L 4.4.4.4.4.4.4.4.4.",
"4.4.4.4.4.4.4.N   ;           Z 4.4.M     ,       >   ( 4.4.4.4.4.4.4.4.",
"4.4.4.4.4.4.4.      J $.F   5   4.4.    > c O...p   0 t 4.4.4.4.4.4.4.4.",
"4.4.4.4.4.4.4.  1   :.4.:.      $.4.      O.4.4.{   6   4.4.4.4.4.4.4.4.",
"4.4.4.4.4.4.4.      4.4.@.  3   :.4.      W 4.4.D   9 + 4.4.4.4.4.4.4.4.",
"4.4.4.4.4.4.4.4.4.4.p 3       M 4.4.z   1   @ +   >   E 4.4.4.4.4.4.4.4.",
"4.4.4.4.4.4.4.4.4.4.          L 4.4.4.y             n 4.4.4.4.4.4.4.4.4.",
"4.4.4.4.4.4.4.4.4.4.Z k e   @   L 4.s   7   d r       L 4.4.4.4.4.4.4.4.",
"4.4.4.4.4.4.4.j j v 4.4.4.!   9 = 4.  =   [ 4.4.L   9 @ 4.4.4.4.4.4.4.4.",
"4.4.4.4.4.4.4.  :   :.4.4.[   5   4.  1   :.4.4.{   5   4.4.4.4.4.4.4.4.",
"4.4.4.4.4.4.4.      G O.| r   e p 4.      Z O.| e   0 y 4.4.4.4.4.4.4.4.",
"4.4.4.4.4.4.4.z   =         >   ` 4.B     =       >   _ 4.4.4.4.4.4.4.4.",
"4.4.4.4.4.4.4.4.h       @     R 4.4.4.x       @     R 4.4.4.4.4.4.4.4.4.",
"4.4.4.4.4.4.4.4.4.| G M D / &.4.4.4.4.4.#.! Z S / =.4.4.4.4.4.4.4.4.4.4.",
"4.4.4.4.4.4.4.4.4.4.4.4.4.4.4.4.4.4.4.4.4.4.4.4.4.4.4.4.4.4.4.4.4.4.4.4.",
"4.4.4.4.4.4.4.4.4.4.4.4.4.4.4.4.4.4.4.4.4.4.4.4.4.4.4.4.4.4.4.4.4.4.4.4.",
"4.4.4.4.4.4.4.4.4.4.4.4.4.4.4.4.4.4.4.4.4.4.4.4.4.4.4.4.4.4.4.4.4.4.4.4.",
"4.4.4.4.4.4.4.4.4.4.4.4.4.4.4.4.4.4.4.4.4.4.4.4.4.4.4.4.4.4.4.4.4.4.4.4.",
"4.4.4.4.4.4.4.4.4.4.4.4.4.4.4.4.4.4.4.4.4.4.4.4.4.4.4.4.4.4.4.4.4.4.4.4.",
"4.4.4.4.4.4.4.4.4.4.4.4.4.4.4.4.4.4.4.4.4.4.4.4.4.4.4.4.4.4.4.4.4.4.4.4.",
"4.4.4.4.4.4.4.4.4.4.4.4.4.4.4.4.4.4.4.4.4.4.4.4.4.4.4.4.4.4.4.4.4.4.4.4.",
"4.4.4.4.4.4.4.4.4.4.4.4.4.4.4.4.4.4.4.4.4.4.4.4.4.4.4.4.4.4.4.4.4.4.4.4.",
"4.4.4.4.4.4.4.4.4.4.4.4.4.4.4.4.4.4.4.4.4.4.4.4.4.4.4.4.4.4.4.4.4.4.4.4.",
"4.4.4.4.4.4.4.4.4.4.4.4.4.4.4.4.4.4.4.4.4.4.4.4.4.4.4.4.4.4.4.4.4.4.4.4.",
"4.4.4.4.4.4.4.4.4.4.4.4.4.4.4.4.4.4.4.4.4.4.4.4.4.4.4.4.4.4.4.4.4.4.4.4.",
"4.4.4.4.4.4.4.4.4.4.4.4.4.4.4.4.4.4.4.4.4.4.4.4.4.4.4.4.4.4.4.4.4.4.4.4."
};
