/* XPM */
static char *empty-0-LB-313[] = {
/* columns rows colors chars-per-pixel */
"36 36 77 1",
"  c #000800060003",
". c #010A00CC0054",
"X c #01DA016E0096",
"o c #026301D800C1",
"O c #02A6020B00D6",
"+ c #0322026B00FD",
"@ c #037802AD0118",
"# c #048A0381016F",
"$ c #0598045101C5",
"% c #064904DA01FC",
"& c #067C0502020C",
"* c #06CC05400225",
"= c #076005B20255",
"- c #11280D3F056C",
"; c #201C18C90A24",
": c #22681A8F0ADE",
"> c #2B1A21460D9C",
", c #2D6E23110E58",
"< c #3BE92E3F12EB",
"1 c #3C8D2EBD131E",
"2 c #488A37FF16E8",
"3 c #51423EBA19A9",
"4 c #5E5848D41DCB",
"5 c #65554E382000",
"6 c #6A3451FC218A",
"7 c #6A9F524E21AC",
"8 c #6AB2525C21B1",
"9 c #6BF753572218",
"0 c #6CB053E62252",
"q c #6DB554AF22A5",
"w c #6FC45646234C",
"e c #7A725E8526AA",
"r c #7D1E60952783",
"t c #7EBA61D22804",
"y c #7F666258283B",
"u c #88C369922B30",
"i c #898A6A2C2B6F",
"p c #89E96A752B8D",
"a c #95F273C02F5A",
"s c #975874D42FCB",
"d c #9AEC779730EC",
"f c #9CA078E73176",
"g c #9ECB7A943225",
"h c #A0957BF532B5",
"j c #A3597E183395",
"k c #A42C7EBB33D8",
"l c #A6CB80C034AC",
"z c #A9E7832735A8",
"x c #ACC2855B368E",
"c c #AEA286CE3726",
"v c #B07F883E37BD",
"b c #B14588D737FB",
"n c #B8218E233A25",
"m c #B9208EE73A76",
"M c #BBEA910E3B58",
"N c #BD9192553BDD",
"B c #BDC6927E3BEE",
"V c #BE0D92B53C04",
"C c #C08894A03CCD",
"Z c #C50198123E36",
"A c #C8239A7E3F34",
"S c #CADC9C99400F",
"D c #CBDB9D5D4060",
"F c #CD889EA840E7",
"G c #CEDB9FAD4152",
"H c #D04FA0CD41C8",
"J c #D12FA17A420F",
"K c #D64CA56C43AC",
"L c #D787A65F4410",
"P c #DB88A9774553",
"I c #DE23AB794626",
"U c #E035AD1246CE",
"Y c #E0F7ADA9470B",
"T c #E460B04A481E",
"R c #E67EB1EC48C9",
"E c #E71FB26948FC",
"W c #E79DB2CA4924",
/* pixels */
"WWWWWWWWWWWWWWWWWWWWWWWWWWWWWWWWWWWW",
"WWWWWWWWWWWWWWWWWWWWWWWWWWWWWWWWWWWW",
"WWWWWWWWWWWWWWWWWWWWWWWWWWWWWWWWWWWW",
"WWWWWWWWWWWWWWWWWWWWWWWWWWWWWWWWWWWW",
"WWWWWWWWWWWWWWWWWWWWWWWWWWWWWWWWWWWW",
"WWWWWWWWWWWWWWWWWWWWWWWWWWWWWWWWWWWW",
"WWWWWWWWWWWWWWWWWWWWWWWWWWWWWWWWWWWW",
"WWWWWWWWWWWWWWWWWWWWWWWWWWWWWWWWWWWW",
"WWWWWWWWWWWWWWWWWWWWWWWWWWWWWWWWWWWW",
"WWWWUlrejIWWWWWWW95VWWWWUleejIWWWWWW",
"WWWn@@@@@@lWWWWWA@%aWWWn@@@@@@lWWWWW",
"WWW@@@@@@@@KWWKn;@%aWWU@@@@@@@@KWWWW",
"WWz@@@SJ-@@dW9@@@@@aWWz@@@SJ-@@fWWWW",
"WWu@@uWWu#@9W9@@@@#aWWu@#uWWu#@9WWWW",
"WW9@@dWWq@@uWFvv5@%aWW9@@dWWq@@uWWWW",
"WWWWWV:%@@@KWWWW5@%aWWWWWV:#@@@KWWWW",
"WWWWWc@@@@>FWWWW5@@aWWWWWv@@@@>FWWWW",
"WWWWWS53@@@@UWWW5@#aWWWWWF53@@@@UWWW",
"WWh44MWWW:@@cWWW5@%aWWf44VWWW:@@vWWW",
"WWq@%yWWW2@@hWWW5@%aWWq@%yWWW2@@fWWW",
"WWf@@@ZKc@@@SWWW5@%aWWd@@@ZKz@@@SWWW",
"WWP@@@@@@@@<WWWW5@#aWWI@@@@@@@@<WWWW",
"WWWV@@@@@@<LWWWW5@@aWWWV@@@@@@<LWWWW",
"WWWWUce9aVWWWWWWh55VWWWWUze9aVWWWWWW",
"WWWWWWWWWWWWWWWWWWWWWWWWWWWWWWWWWWWW",
"WWWWWWWWWWWWWWWWWWWWWWWWWWWWWWWWWWWW",
"WWWWWWWWWWWWWWWWWWWWWWWWWWWWWWWWWWWW",
"WWWWWWWWWWWWWWWWWWWWWWWWWWWWWWWWWWWW",
"WWWWWWWWWWWWWWWWWWWWWWWWWWWWWWWWWWWW",
"WWWWWWWWWWWWWWWWWWWWWWWWWWWWWWWWWWWW",
"WWWWWWWWWWWWWWWWWWWWWWWWWWWWWWWWWWWW",
"WWWWWWWWWWWWWWWWWWWWWWWWWWWWWWWWWWWW",
"WWWWWWWWWWWWWWWWWWWWWWWWWWWWWWWWWWWW",
"WWWWWWWWWWWWWWWWWWWWWWWWWWWWWWWWWWWW",
"WWWWWWWWWWWWWWWWWWWWWWWWWWWWWWWWWWWW",
"WWWWWWWWWWWWWWWWWWWWWWWWWWWWWWWWWWWW"
};
