/* XPM */
static char *empty-0-LB-254[] = {
/* columns rows colors chars-per-pixel */
"36 36 112 2",
"   c #000A00080003",
".  c #01E101730098",
"X  c #023401B300B2",
"o  c #02C9022600E1",
"O  c #037902AE0119",
"+  c #03FD03140143",
"@  c #046F036B0166",
"#  c #052303F7019F",
"$  c #05A7045D01C9",
"%  c #065504E40200",
"&  c #0A2907D80335",
"*  c #0B2108970384",
"=  c #186B12D907B6",
"-  c #1E58176C0995",
";  c #22E61AF00B05",
":  c #24251BE60B6A",
">  c #271B1E300C59",
",  c #2EB5240E0EC0",
"<  c #2EFE24460ED7",
"1  c #30B125960F60",
"2  c #3188263C0FA4",
"3  c #3326277C1027",
"4  c #383E2B6A11C3",
"5  c #39572C43121B",
"6  c #3CB52EDC132C",
"7  c #3F0530A513E7",
"8  c #3F7430FB1409",
"9  c #3FA0311D1418",
"0  c #431433C7152E",
"q  c #44CA351A15B9",
"w  c #458A35AE15F6",
"e  c #46E836BC1664",
"r  c #4C293ACB180D",
"t  c #51073E8C1996",
"y  c #534440471A4C",
"u  c #581C44041BD3",
"i  c #5D6248151D7D",
"p  c #60434A4F1E66",
"a  c #62B14C2F1F2A",
"s  c #637D4CCC1F6B",
"d  c #65554E382000",
"f  c #65AB4E7B201B",
"g  c #65D64E9C2028",
"h  c #6AD5527821BD",
"j  c #6BFC535B2219",
"k  c #6E29550922CA",
"l  c #73CF59662492",
"z  c #75C15AE6252F",
"x  c #76D75BBD2587",
"c  c #78255CBE25F1",
"v  c #7D8360E327A2",
"b  c #7EE561F42812",
"n  c #813663BE28CE",
"m  c #857767072A26",
"M  c #86BD68032A8D",
"N  c #8743686A2AB7",
"B  c #87C868D12AE1",
"V  c #8CD16CB22C78",
"C  c #8E8E6E0B2D04",
"Z  c #922B70D52E28",
"A  c #956673542F2E",
"S  c #95F373C12F5A",
"D  c #98297576300D",
"F  c #99F176D5309D",
"G  c #9CB378F6317C",
"H  c #9D87799931BF",
"J  c #9F517AFB324F",
"K  c #A0797BE032AD",
"L  c #A3597E183395",
"P  c #A4127EA733D0",
"I  c #A69D809D349D",
"U  c #A749812234D3",
"Y  c #AA03833C35B0",
"T  c #AB3E84303613",
"R  c #AFA987993779",
"E  c #B00187DD3795",
"W  c #B0E9889037DE",
"Q  c #B1D489463828",
"!  c #B6158C8E3980",
"~  c #B9E08F7C3AB2",
"^  c #BDC7927F3BEE",
"/  c #BFA693F03C85",
"(  c #C16495493D12",
")  c #C4B097D43E1C",
"_  c #C52D98353E44",
"`  c #C5D298B43E78",
"'  c #CA369C173FDB",
"]  c #CBD29D56405D",
"[  c #CE559F464128",
"{  c #CF019FCB415F",
"}  c #D0C9A12B41EE",
"|  c #D157A199421B",
" . c #D192A1C6422E",
".. c #D1D7A1FB4244",
"X. c #D328A2FF42AE",
"o. c #D439A3D24304",
"O. c #D54DA4A7435C",
"+. c #D601A5324394",
"@. c #D780A65A440D",
"#. c #D8E2A76B447D",
"$. c #D9EEA83A44D2",
"%. c #DC44AA08458F",
"&. c #DDB5AB244603",
"*. c #E00BACF246C0",
"=. c #E1A1AE2B4740",
"-. c #E350AF7847C8",
";. c #E402B0014800",
":. c #E5ABB14A4887",
">. c #E602B18D48A2",
",. c #E69BB20348D2",
"<. c #E74CB28B490A",
"1. c #E79DB2CA4924",
/* pixels */
"1.1.1.1.1.1.1.1.1.1.1.1.1.1.1.1.1.1.1.1.1.1.1.1.1.1.1.1.1.1.1.1.1.1.1.1.",
"1.1.1.1.1.1.1.1.1.1.1.1.1.1.1.1.1.1.1.1.1.1.1.1.1.1.1.1.1.1.1.1.1.1.1.1.",
"1.1.1.1.1.1.1.1.1.1.1.1.1.1.1.1.1.1.1.1.1.1.1.1.1.1.1.1.1.1.1.1.1.1.1.1.",
"1.1.1.1.1.1.1.1.1.1.1.1.1.1.1.1.1.1.1.1.1.1.1.1.1.1.1.1.1.1.1.1.1.1.1.1.",
"1.1.1.1.1.1.1.1.1.1.1.1.1.1.1.1.1.1.1.1.1.1.1.1.1.1.1.1.1.1.1.1.1.1.1.1.",
"1.1.1.1.1.1.1.1.1.1.1.1.1.1.1.1.1.1.1.1.1.1.1.1.1.1.1.1.1.1.1.1.1.1.1.1.",
"1.1.1.1.1.1.1.1.1.1.1.1.1.1.1.1.1.1.1.1.1.1.1.1.1.1.1.1.1.1.1.1.1.1.1.1.",
"1.1.1.1.1.1.1.1.1.1.1.1.1.1.1.1.1.1.1.1.1.1.1.1.1.1.1.1.1.1.1.1.1.1.1.1.",
"1.1.1.1.1.1.1.1.1.1.1.1.1.1.1.1.1.1.1.1.1.1.1.1.1.1.1.1.1.1.1.1.1.1.1.1.",
"1.1.1.1.~ b f v ~ 1.1.1.1.T d d d d s s d A 1.1.1.1.1.1.1.j d L 1.1.1.1.",
"1.1.} = o o o # o 2 %.1.1.y o o o o o o o 0 1.1.1.1.1.1.V o o s 1.1.1.1.",
"1.;.$ o o o o o o $ 3 1.1.- o o o o o o o 0 1.1.1.1.1.) o o o d 1.1.1.1.",
"1.Y o o o ^ +.F o o o ) 1.o o o ^ ) ^ ) ) { 1.1.1.1.;.& o o o s 1.1.1.1.",
"1.k o o P 1.1.1.6 o # G %.o o ; 1.1.1.1.1.1.1.1.1.1.a o o o o s 1.1.1.1.",
"1.t o o ` 1.1.1.4 o o R ' o o i 6 : a G 1.1.1.1.1.U o o 4 # o s 1.1.1.1.",
"1.;.} +.1.1.1.M o o o +.R o o o o o o o = +.1.1.} o o o A # o d 1.1.1.1.",
"1.1.1.1.1.R & o o o C 1.V $ o o t q o o o , 1.1.< # o Y A $ o s 1.1.1.1.",
"1.1.1.} 6 o o # o F 1.1.G 6 6 ] 1.1.+.o o o ` M o o i 1.A # o d 1.1.1.1.",
"1.1.) o o $ o d } 1.1.1.1.1.1.1.1.1.1.r o o G o o o ; ; ; o o ; ; M 1.1.",
"1.%.o o o q } 1.1.1.1.1.o o o ;.1.1.1., o o ! o o o o o o o o o o d 1.1.",
"1.V o o l ^ ) ^ ) ^ ) &., o o j } } M o o o +.d d d d d s $ o s s L 1.1.",
"1.^ o o o o o o o o o A R o o o o o o o o c 1.1.1.1.1.1.A $ o d 1.1.1.1.",
"1.o o o o o o o o o # A 1.G o o o o o o z 1.1.1.1.1.1.1.A # o s 1.1.1.1.",
"1.j s s d d s s s d d ^ 1.1.%.U z z L [ 1.1.1.1.1.1.1.1.^ d d L 1.1.1.1.",
"1.1.1.1.1.1.1.1.1.1.1.1.1.1.1.1.1.1.1.1.1.1.1.1.1.1.1.1.1.1.1.1.1.1.1.1.",
"1.1.1.1.1.1.1.1.1.1.1.1.1.1.1.1.1.1.1.1.1.1.1.1.1.1.1.1.1.1.1.1.1.1.1.1.",
"1.1.1.1.1.1.1.1.1.1.1.1.1.1.1.1.1.1.1.1.1.1.1.1.1.1.1.1.1.1.1.1.1.1.1.1.",
"1.1.1.1.1.1.1.1.1.1.1.1.1.1.1.1.1.1.1.1.1.1.1.1.1.1.1.1.1.1.1.1.1.1.1.1.",
"1.1.1.1.1.1.1.1.1.1.1.1.1.1.1.1.1.1.1.1.1.1.1.1.1.1.1.1.1.1.1.1.1.1.1.1.",
"1.1.1.1.1.1.1.1.1.1.1.1.1.1.1.1.1.1.1.1.1.1.1.1.1.1.1.1.1.1.1.1.1.1.1.1.",
"1.1.1.1.1.1.1.1.1.1.1.1.1.1.1.1.1.1.1.1.1.1.1.1.1.1.1.1.1.1.1.1.1.1.1.1.",
"1.1.1.1.1.1.1.1.1.1.1.1.1.1.1.1.1.1.1.1.1.1.1.1.1.1.1.1.1.1.1.1.1.1.1.1.",
"1.1.1.1.1.1.1.1.1.1.1.1.1.1.1.1.1.1.1.1.1.1.1.1.1.1.1.1.1.1.1.1.1.1.1.1.",
"1.1.1.1.1.1.1.1.1.1.1.1.1.1.1.1.1.1.1.1.1.1.1.1.1.1.1.1.1.1.1.1.1.1.1.1.",
"1.1.1.1.1.1.1.1.1.1.1.1.1.1.1.1.1.1.1.1.1.1.1.1.1.1.1.1.1.1.1.1.1.1.1.1.",
"1.1.1.1.1.1.1.1.1.1.1.1.1.1.1.1.1.1.1.1.1.1.1.1.1.1.1.1.1.1.1.1.1.1.1.1."
};
