/* XPM */
static char *empty-0-LB-F[] = {
/* columns rows colors chars-per-pixel */
"36 36 20 1",
"  c black",
". c #0C29096303D7",
"X c #0F7F0BF604E5",
"o c #184512BC07AA",
"O c #1D9316D50957",
"+ c #21D91A210AB0",
"@ c #22E61AF00B05",
"# c #264F1D920C19",
"$ c #2E1323910E8D",
"% c #65554E382000",
"& c #6D7C54832293",
"* c #751E5A6824FC",
"= c #8D246CF32C92",
"- c #931B718E2E74",
"; c #AB9C84783631",
": c #B8CB8EA63A5B",
"> c #D0FFA15441FF",
", c #E418B0134808",
"< c #E594B138487F",
"1 c #E79DB2CA4924",
/* pixels */
"111111111111111111111111111111111111",
"111111111111111111111111111111111111",
"111111111111111111111111111111111111",
"111111111111111111111111111111111111",
"111111111111111111111111111111111111",
"111111111111111111111111111111111111",
"111111111111111111111111111111111111",
"111111111111111111111111111111111111",
"1111111111111%%%%%%%%%%:111111111111",
"1111111111111         @=111111111111",
"1111111111111 .        =111111111111",
"1111111111111 O >>>>>>>1111111111111",
"1111111111111 O 11111111111111111111",
"1111111111111 O 11111111111111111111",
"1111111111111 O ,1111111111111111111",
"1111111111111 o @@@@@#-1111111111111",
"1111111111111        $*1111111111111",
"1111111111111 O %%%%%%;1111111111111",
"1111111111111 O 11111111111111111111",
"1111111111111 O 11111111111111111111",
"1111111111111 O 11111111111111111111",
"1111111111111 O 11111111111111111111",
"1111111111111 X 11111111111111111111",
"1111111111111%%&11111111111111111111",
"111111111111111111111111111111111111",
"111111111111111111111111111111111111",
"111111111111111111111111111111111111",
"111111111111111111111111111111111111",
"111111111111111111111111111111111111",
"111111111111111111111111111111111111",
"111111111111111111111111111111111111",
"111111111111111111111111111111111111",
"111111111111111111111111111111111111",
"111111111111111111111111111111111111",
"111111111111111111111111111111111111",
"111111111111111111111111111111111111"
};
