/* XPM */
static char *empty-0-LB-296[] = {
/* columns rows colors chars-per-pixel */
"36 36 146 2",
"   c #000D000A0004",
".  c #01AB01490087",
"X  c #025201CB00BC",
"o  c #02BD021D00DD",
"O  c #0314026000F9",
"+  c #037D02B1011A",
"@  c #03F2030C013F",
"#  c #049203870172",
"$  c #050503E00196",
"%  c #05A1045901C7",
"&  c #065504E30200",
"*  c #06F905610234",
"=  c #08420660029C",
"-  c #09FC07B50327",
";  c #0AB808460363",
":  c #0B2108970384",
">  c #0CAE09CA0401",
",  c #184212B907A9",
"<  c #201018C00A20",
"1  c #216819CA0A8D",
"2  c #23BE1B970B49",
"3  c #26521D940C1A",
"4  c #281A1EF50CAA",
"5  c #2C7922540E0B",
"6  c #2D8923260E61",
"7  c #2F1524580EDE",
"8  c #315B26190F96",
"9  c #318C263F0FA5",
"0  c #3326277C1027",
"q  c #39572C43121B",
"w  c #3D252F33134F",
"e  c #3F7430FB1409",
"r  c #3FA0311D1418",
"t  c #404B31A1144E",
"y  c #429233631506",
"u  c #436534061548",
"i  c #43EB346D1572",
"p  c #46E836BC1664",
"a  c #4B5E3A2E17CD",
"s  c #4D673BC01871",
"d  c #4ED83CDD18E6",
"f  c #520F3F5819EA",
"g  c #534440471A4C",
"h  c #549C41501AB8",
"j  c #559C42161B09",
"k  c #5EBC49211DEA",
"l  c #64434D651FAA",
"z  c #65554E382000",
"x  c #656A4E492007",
"c  c #65AB4E7B201B",
"v  c #65D64E9C2028",
"b  c #67CB501F20C7",
"n  c #69375138213A",
"m  c #6A1351E1217F",
"M  c #6AE6528521C2",
"N  c #6BFC535B221A",
"B  c #6E37551322CE",
"V  c #6E70554022E0",
"C  c #6ED4558C22FF",
"Z  c #73CF59662492",
"A  c #74A65A0C24D6",
"S  c #78635CEF2604",
"D  c #78A25D1F2618",
"F  c #798C5DD32662",
"G  c #7B8A5F5D2703",
"H  c #7D8360E327A2",
"J  c #813663BE28CE",
"K  c #81E364432904",
"L  c #82C864F4294D",
"P  c #83936591298D",
"I  c #85D4674E2A43",
"U  c #865A67B62A6E",
"Y  c #86C8680B2A90",
"T  c #87E468E62AEA",
"R  c #889769702B22",
"E  c #892269DB2B4E",
"W  c #89BD6A532B7F",
"Q  c #8A0F6A932B99",
"!  c #8CB76C9F2C6F",
"~  c #922B70D52E28",
"^  c #924A70ED2E32",
"/  c #953F73352F21",
"(  c #95D973AB2F52",
")  c #974274C32FC4",
"_  c #98297576300D",
"`  c #990F76273056",
"'  c #99F576D8309E",
"]  c #9D8F799F31C2",
"[  c #9E797A54320B",
"{  c #A2FA7DCE3377",
"}  c #A3D27E7533BB",
"|  c #A4237EB433D5",
" . c #A5317F84342A",
".. c #A5C97FFA345A",
"X. c #A69D809D349D",
"o. c #A88E821D353A",
"O. c #AAE083E735F6",
"+. c #AC5E850E366E",
"@. c #ACAC854B3687",
"#. c #AE20866936FC",
"$. c #AF178728374A",
"%. c #AFA987993779",
"&. c #AFED87CE378F",
"*. c #B0F0889537E0",
"=. c #B25389A73850",
"-. c #B4EB8BA83922",
";. c #B7F38DFF3A17",
":. c #B9E08F7C3AB2",
">. c #BA008F943ABD",
",. c #BB4990923B24",
"<. c #BC7F91813B86",
"1. c #BD32920C3BBF",
"2. c #BDC892803BEE",
"3. c #C16095463D11",
"4. c #C263960D3D63",
"5. c #C4B597D83E1E",
"6. c #C4FC980F3E34",
"7. c #C52D98353E44",
"8. c #C5D298B43E78",
"9. c #C8869ACA3F53",
"0. c #CB4E9CF04033",
"q. c #CCAD9DFF40A2",
"w. c #CD3A9E6C40CF",
"e. c #D157A199421B",
"r. c #D287A283427B",
"t. c #D353A32042BB",
"y. c #D54BA4A6435B",
"u. c #D5FAA52D4392",
"i. c #D6CCA5CF43D4",
"p. c #D7AFA67E441C",
"a. c #D893A72E4464",
"s. c #D909A7894489",
"d. c #D9EEA83A44D2",
"f. c #DB1FA9254532",
"g. c #DC73AA2C459D",
"h. c #DD58AADC45E6",
"j. c #DDECAB4F4615",
"k. c #DE84ABC44645",
"l. c #E042AD1C46D1",
"z. c #E2C6AF0E479D",
"x. c #E402B0014800",
"c. c #E584B12B487A",
"v. c #E602B18D48A2",
"b. c #E6B4B21748DB",
"n. c #E742B2834907",
"m. c #E79DB2CA4924",
/* pixels */
"m.m.m.m.m.m.m.m.m.m.m.m.m.m.m.m.m.m.m.m.m.m.m.m.m.m.m.m.m.m.m.m.m.m.m.m.",
"m.m.m.m.m.m.m.m.m.m.m.m.m.m.m.m.m.m.m.m.m.m.m.m.m.m.m.m.m.m.m.m.m.m.m.m.",
"m.m.m.m.m.m.m.m.m.m.m.m.m.m.m.m.m.m.m.m.m.m.m.m.m.m.m.m.m.m.m.m.m.m.m.m.",
"m.m.m.m.m.m.m.m.m.m.m.m.m.m.m.m.m.m.m.m.m.m.m.m.m.m.m.m.m.m.m.m.m.m.m.m.",
"m.m.m.m.m.m.m.m.m.m.m.m.m.m.m.m.m.m.m.m.m.m.m.m.m.m.m.m.m.m.m.m.m.m.m.m.",
"m.m.m.m.m.m.m.m.m.m.m.m.m.m.m.m.m.m.m.m.m.m.m.m.m.m.m.m.m.m.m.m.m.m.m.m.",
"m.m.m.m.m.m.m.m.m.m.m.m.m.m.m.m.m.m.m.m.m.m.m.m.m.m.m.m.m.m.m.m.m.m.m.m.",
"m.m.m.m.m.m.m.m.m.m.m.m.m.m.m.m.m.m.m.m.m.m.m.m.m.m.m.m.m.m.m.m.m.m.m.m.",
"m.m.m.m.m.m.m.m.m.m.m.m.m.m.m.m.m.m.m.m.m.m.m.m.m.m.m.m.m.m.m.m.m.m.m.m.",
"m.m.m.m.>.H v H >.m.m.m.m.m.m.<.~ m T q.m.m.m.m.m.m.p.^ B Q >.m.m.m.m.m.",
"m.m.e., o o o $ o 9 g.m.m.s.t o o o o o F m.m.m.m.( o o o o o s m.m.m.m.",
"m.x.$ o o o o o o % 0 m.m.r $ o o o o o o | m.m.%.o o o o o o o I m.m.m.",
"m.O.o o o 2.y.' o o o 5.>.o o o O.y.Q o o o m.m.- o o B w.| o o o m.m.m.",
"m.B o o ..m.m.m.w o $ ] Q o $ m m.m.m.2 o o 9.7.o o o x.m.m.- o o y.m.m.",
"m.f o o 7.m.m.m.q o o %.A o $ T m.m.m.g o o %.] o o l ' B I -.m.m.m.m.m.",
"m.l.t.y.m.m.m.I o o o y.O.o o 5 m.m.g.o o o ] F o % o o o o o 6 y.m.m.m.",
"m.m.m.m.m.%.- o o o ^ m.g.o o o 1 f o o o o ' m o o % o < o $ o q m.m.m.",
"m.m.m.e.w o o $ o _ m.m.m.%.o $ o o o o o o  .B o o ; d.m.y.o o o 0.m.m.",
"m.m.5.o o % o z e.m.m.m.m.m.s.I t 9 F 4 o o 5.L o % I m.m.m.a o o { m.m.",
"m.d.o o o p e.m.m.m.m.m.>.o o a m.m.d.o o o d.%.o o b m.m.m.7 o o *.m.m.",
"m.! o o C 5.2.2.5.2.5.g.g.o o o >.q.a o o t m.g.o o o { y.^ o o o e.m.m.",
"m.1 o o o o o o o o o ( m.g o o o o o o o q.m.m.F o o o o o o o b m.m.m.",
"m.o o o o o o o o o $ ( m.g.5 o o o o o *.m.m.m.m.d o $ o o o k x.m.m.m.",
"m.m l l z l l l l z z <.m.m.m.%.H A { g.m.m.m.m.m.m.5.L l ' 2.m.m.m.m.m.",
"m.m.m.m.m.m.m.m.m.m.m.m.m.m.m.m.m.m.m.m.m.m.m.m.m.m.m.m.m.m.m.m.m.m.m.m.",
"m.m.m.m.m.m.m.m.m.m.m.m.m.m.m.m.m.m.m.m.m.m.m.m.m.m.m.m.m.m.m.m.m.m.m.m.",
"m.m.m.m.m.m.m.m.m.m.m.m.m.m.m.m.m.m.m.m.m.m.m.m.m.m.m.m.m.m.m.m.m.m.m.m.",
"m.m.m.m.m.m.m.m.m.m.m.m.m.m.m.m.m.m.m.m.m.m.m.m.m.m.m.m.m.m.m.m.m.m.m.m.",
"m.m.m.m.m.m.m.m.m.m.m.m.m.m.m.m.m.m.m.m.m.m.m.m.m.m.m.m.m.m.m.m.m.m.m.m.",
"m.m.m.m.m.m.m.m.m.m.m.m.m.m.m.m.m.m.m.m.m.m.m.m.m.m.m.m.m.m.m.m.m.m.m.m.",
"m.m.m.m.m.m.m.m.m.m.m.m.m.m.m.m.m.m.m.m.m.m.m.m.m.m.m.m.m.m.m.m.m.m.m.m.",
"m.m.m.m.m.m.m.m.m.m.m.m.m.m.m.m.m.m.m.m.m.m.m.m.m.m.m.m.m.m.m.m.m.m.m.m.",
"m.m.m.m.m.m.m.m.m.m.m.m.m.m.m.m.m.m.m.m.m.m.m.m.m.m.m.m.m.m.m.m.m.m.m.m.",
"m.m.m.m.m.m.m.m.m.m.m.m.m.m.m.m.m.m.m.m.m.m.m.m.m.m.m.m.m.m.m.m.m.m.m.m.",
"m.m.m.m.m.m.m.m.m.m.m.m.m.m.m.m.m.m.m.m.m.m.m.m.m.m.m.m.m.m.m.m.m.m.m.m.",
"m.m.m.m.m.m.m.m.m.m.m.m.m.m.m.m.m.m.m.m.m.m.m.m.m.m.m.m.m.m.m.m.m.m.m.m."
};
