/* XPM */
static char *empty-0-LB-287[] = {
/* columns rows colors chars-per-pixel */
"36 36 134 2",
"   c #000800060003",
".  c #011C00DB0059",
"X  c #01B301500089",
"o  c #022701A900AE",
"O  c #02E3023A00E9",
"+  c #037402A90117",
"@  c #045F03600162",
"#  c #05C4047401D2",
"$  c #066F04F70208",
"%  c #06D705480229",
"&  c #07A605E7026A",
"*  c #07F406240283",
"=  c #08190640028F",
"-  c #09E607A40320",
";  c #0AAF083F0360",
":  c #0C49097C03E1",
">  c #0DD70AAF045F",
",  c #0F6D0BE804DF",
"<  c #0FB90C2304F7",
"1  c #10D90D010552",
"2  c #10FC0D1C055D",
"3  c #11EA0DD405A8",
"4  c #12930E5705DE",
"5  c #1510104206A7",
"6  c #1774121A0768",
"7  c #1B71152F08AA",
"8  c #1D9316D40957",
"9  c #1ECE17C809BA",
"0  c #1F4A182809E1",
"q  c #205118F20A34",
"w  c #219319EB0A9B",
"e  c #24F11C840BAA",
"r  c #268C1DC10C2C",
"t  c #27981E900C80",
"y  c #2B22214C0D9F",
"u  c #2B60217C0DB2",
"i  c #2C2F221B0DF4",
"p  c #2CB122800E1D",
"a  c #2DD1235E0E78",
"s  c #2E3E23B20E9A",
"d  c #2F9E24C20F09",
"f  c #313D26020F8C",
"g  c #327D26FA0FF2",
"h  c #34A228A1109F",
"j  c #3B1A2D9F12AA",
"k  c #3C722EA91317",
"l  c #3E98305113C4",
"z  c #3F6230ED1404",
"x  c #40C431FE1474",
"c  c #412E32511495",
"v  c #446634CC159A",
"b  c #4779372C1692",
"n  c #49E5390A1755",
"m  c #573843541B8B",
"M  c #58F244A81C16",
"N  c #5CD247A71D50",
"B  c #65524E361FFF",
"V  c #658A4E622011",
"C  c #69BB519E2163",
"Z  c #6A9F524E21AC",
"A  c #6C2C53802229",
"S  c #6DE754D522B4",
"D  c #6EED55A02307",
"F  c #7116574C23B6",
"G  c #72E658B12448",
"H  c #754C5A8C250A",
"J  c #786E5CF72608",
"K  c #78815D05260E",
"L  c #7AE45EDD26CF",
"P  c #7BC35F892715",
"I  c #7C315FDE2738",
"U  c #7E8B61AE27F6",
"Y  c #7FBD629B2856",
"T  c #808463352896",
"R  c #813063B928CC",
"E  c #832E6543296D",
"W  c #852866CA2A0D",
"Q  c #881D69122AFC",
"!  c #8D296CF72C94",
"~  c #8DCB6D742CC7",
"^  c #905E6F712D97",
"/  c #91B370782E03",
"(  c #925470F42E35",
")  c #94E272ED2F04",
"_  c #963073EF2F6D",
"`  c #981675663007",
"'  c #98AD75DB3037",
"]  c #9C2D788F3152",
"[  c #9DAB79B531CA",
"{  c #9FC97B583275",
"}  c #A0F57C3F32D4",
"|  c #A34A7E0D3391",
" . c #A61680353472",
".. c #A8B282393546",
"X. c #AB13840F3606",
"o. c #AD9685FF36D1",
"O. c #AE10865D36F7",
"+. c #AE8186B4371B",
"@. c #B3A38AAA38BA",
"#. c #B8168E1A3A22",
"$. c #B8CB8EA63A5B",
"%. c #BB2090723B18",
"&. c #BB5090973B27",
"*. c #BE3092CF3C0F",
"=. c #BFE994243C9B",
"-. c #C16495493D13",
";. c #C40A97543DE8",
":. c #C6C499703EC5",
">. c #C74C99D83EEF",
",. c #CADD9C994010",
"<. c #CB9A9D2B404C",
"1. c #CD299E5E40C9",
"2. c #CF6CA01E4181",
"3. c #CFE6A07B41A7",
"4. c #D183A1BA4229",
"5. c #D25FA264426F",
"6. c #D36FA33642C5",
"7. c #D54BA4A6435B",
"8. c #D686A59943BE",
"9. c #D769A6484406",
"0. c #D7F4A6B34432",
"q. c #D8DDA767447C",
"w. c #D9BBA81344C2",
"e. c #DA06A84D44D9",
"r. c #DA92A8BA4506",
"t. c #DC42AA06458E",
"y. c #DD48AAD045E1",
"u. c #DE87ABC64645",
"i. c #DF7EAC854693",
"p. c #E123ADCB4719",
"a. c #E5D3B1684893",
"s. c #E664B1D848C1",
"d. c #E748B2894909",
"f. c #E79DB2CA4924",
/* pixels */
"f.f.f.f.f.f.f.f.f.f.f.f.f.f.f.f.f.f.f.f.f.f.f.f.f.f.f.f.f.f.f.f.f.f.f.f.",
"f.f.f.f.f.f.f.f.f.f.f.f.f.f.f.f.f.f.f.f.f.f.f.f.f.f.f.f.f.f.f.f.f.f.f.f.",
"f.f.f.f.f.f.f.f.f.f.f.f.f.f.f.f.f.f.f.f.f.f.f.f.f.f.f.f.f.f.f.f.f.f.f.f.",
"f.f.f.f.f.f.f.f.f.f.f.f.f.f.f.f.f.f.f.f.f.f.f.f.f.f.f.f.f.f.f.f.f.f.f.f.",
"f.f.f.f.f.f.f.f.f.f.f.f.f.f.f.f.f.f.f.f.f.f.f.f.f.f.f.f.f.f.f.f.f.f.f.f.",
"f.f.f.f.f.f.f.f.f.f.f.f.f.f.f.f.f.f.f.f.f.f.f.f.f.f.f.f.f.f.f.f.f.f.f.f.",
"f.f.f.f.f.f.f.f.f.f.f.f.f.f.f.f.f.f.f.f.f.f.f.f.f.f.f.f.f.f.f.f.f.f.f.f.",
"f.f.f.f.f.f.f.f.f.f.f.f.f.f.f.f.f.f.f.f.f.f.f.f.f.f.f.f.f.f.f.f.f.f.f.f.",
"f.f.f.f.f.f.f.f.f.f.f.f.f.f.f.f.f.f.f.f.f.f.f.f.f.f.f.f.f.f.f.f.f.f.f.f.",
"f.f.f.f.6.` G F [ e.f.f.f.f.f.y...I I ..e.f.e.B B B B B B B B B C f.f.f.",
"f.f.f.C       & &   ' f.f.f.I       &     ~ o.                :   f.f.f.",
"f.f.T   &         1   &.f.'     >       ;   |                 e   f.f.f.",
"f.f.      E 7.2.8   g k f.5   1 B 6.2.z   s k -.-.-.-.-.-.s     o.f.f.f.",
"f.e.  t   f.f.f.*.  w   f.      6.f.f.,.  0   f.f.f.f.f.Q   1 D f.f.f.f.",
"f.2.    h f.f.f.o.  t = f.      { f.f.E   y @ f.f.f.f.9.  t   p.f.f.f.f.",
"f.f.7.7.y.f.f.>.    1 I f.W   5   & @   >   [ f.f.f.f.k     o.f.f.f.f.f.",
"f.f.f.f.f.0.m     7 1 y.f.f.z             D f.f.f.f.=.  s d f.f.f.f.f.f.",
"f.f.f.f.~     >   z 0.f.f.b   w   n h       / f.f.f.y     &.f.f.f.f.f.f.",
"f.f.f.z   >   1 X.f.f.f.f.  =   >.f.f.(   s = f.f.2.  s 1 f.f.f.f.f.f.f.",
"f.f.N   8   [ f.f.f.f.f.f.  5   p.f.f.>.  0   f.f.N   1 / f.f.f.f.f.f.f.",
"f.i.  8   -.-.-.-.-.-.;.f.      K 6.2.g   s z f.f.&     6.f.f.f.f.f.f.f.",
"f.{   1                 f.H   @ =       :   #.f.3.  s & f.f.f.f.f.f.f.f.",
"f.D                 ,   f.f.B       &     ) f.f.I   g N f.f.f.f.f.f.f.f.",
"f.&.B B B B B B B B B D f.f.f.0.| K T ..y.f.f.f.#.B B @.f.f.f.f.f.f.f.f.",
"f.f.f.f.f.f.f.f.f.f.f.f.f.f.f.f.f.f.f.f.f.f.f.f.f.f.f.f.f.f.f.f.f.f.f.f.",
"f.f.f.f.f.f.f.f.f.f.f.f.f.f.f.f.f.f.f.f.f.f.f.f.f.f.f.f.f.f.f.f.f.f.f.f.",
"f.f.f.f.f.f.f.f.f.f.f.f.f.f.f.f.f.f.f.f.f.f.f.f.f.f.f.f.f.f.f.f.f.f.f.f.",
"f.f.f.f.f.f.f.f.f.f.f.f.f.f.f.f.f.f.f.f.f.f.f.f.f.f.f.f.f.f.f.f.f.f.f.f.",
"f.f.f.f.f.f.f.f.f.f.f.f.f.f.f.f.f.f.f.f.f.f.f.f.f.f.f.f.f.f.f.f.f.f.f.f.",
"f.f.f.f.f.f.f.f.f.f.f.f.f.f.f.f.f.f.f.f.f.f.f.f.f.f.f.f.f.f.f.f.f.f.f.f.",
"f.f.f.f.f.f.f.f.f.f.f.f.f.f.f.f.f.f.f.f.f.f.f.f.f.f.f.f.f.f.f.f.f.f.f.f.",
"f.f.f.f.f.f.f.f.f.f.f.f.f.f.f.f.f.f.f.f.f.f.f.f.f.f.f.f.f.f.f.f.f.f.f.f.",
"f.f.f.f.f.f.f.f.f.f.f.f.f.f.f.f.f.f.f.f.f.f.f.f.f.f.f.f.f.f.f.f.f.f.f.f.",
"f.f.f.f.f.f.f.f.f.f.f.f.f.f.f.f.f.f.f.f.f.f.f.f.f.f.f.f.f.f.f.f.f.f.f.f.",
"f.f.f.f.f.f.f.f.f.f.f.f.f.f.f.f.f.f.f.f.f.f.f.f.f.f.f.f.f.f.f.f.f.f.f.f.",
"f.f.f.f.f.f.f.f.f.f.f.f.f.f.f.f.f.f.f.f.f.f.f.f.f.f.f.f.f.f.f.f.f.f.f.f."
};
