/* XPM */
static char *empty-0-LB-162[] = {
/* columns rows colors chars-per-pixel */
"36 36 121 2",
"   c #000300020001",
".  c #012A00E6005E",
"X  c #0198013B0081",
"o  c #022B01AC00AF",
"O  c #03540291010D",
"+  c #04E103C4018A",
"@  c #050703E10196",
"#  c #05CE047C01D5",
"$  c #063004C601F4",
"%  c #06B3052C021E",
"&  c #078405CD0260",
"*  c #07F406240283",
"=  c #08D406D102CA",
"-  c #0ABE084B0364",
";  c #0B5808C10395",
":  c #0C52098303E4",
">  c #0DCD0AA7045C",
",  c #0F7F0BF604E5",
"<  c #0FC80C2E04FC",
"1  c #10D80D010552",
"2  c #11E80DD205A7",
"3  c #12B70E7205E9",
"4  c #13EF0F63064B",
"5  c #14FE103406A1",
"6  c #15E310E506E9",
"7  c #1762120D0762",
"8  c #183312AE07A4",
"9  c #198B13B70811",
"0  c #1B80153A08AF",
"q  c #1CBA162C0912",
"w  c #1D9316D50957",
"e  c #1F30181309D9",
"r  c #1FB9187D0A05",
"t  c #1FE3189D0A12",
"y  c #219419EC0A9B",
"u  c #21FE1A3D0ABC",
"i  c #24131BD90B65",
"p  c #24521C090B78",
"a  c #278E1E880C7E",
"s  c #3065255C0F49",
"d  c #313525FC0F8A",
"f  c #3460286E108A",
"g  c #3C6F2EA71316",
"h  c #3F6130ED1404",
"j  c #43D7345E156C",
"k  c #446734CD159A",
"l  c #476B3721168E",
"z  c #4B9E3A5F17E1",
"x  c #573943541B8B",
"c  c #58F244A91C17",
"v  c #592A44D41C28",
"b  c #5D2F47EE1D6D",
"n  c #5D9B48421D8F",
"m  c #65554E382000",
"M  c #69BC519E2163",
"N  c #6C0F536A2220",
"B  c #6D7B54832293",
"V  c #6EEC559F2307",
"C  c #701456842365",
"Z  c #7116574C23B6",
"A  c #72E658B12449",
"S  c #745359CB24BC",
"D  c #78045CA425E6",
"F  c #7AE15EDB26CE",
"G  c #7BE05FA0271E",
"H  c #801462DE2872",
"J  c #808463352896",
"K  c #810F63A028C1",
"L  c #859C67232A31",
"P  c #8DCC6D752CC7",
"I  c #92DA715C2E60",
"U  c #963173F02F6E",
"Y  c #991076273056",
"T  c #9CE5791D318C",
"R  c #9DAB79B531CA",
"E  c #9FC87B573275",
"W  c #A03E7BB2329A",
"Q  c #A3AA7E5633AF",
"!  c #A4A67F1933FF",
"~  c #AB13840F3606",
"^  c #AD9685FF36D1",
"/  c #AE9886C63723",
"(  c #AF9D878F3775",
")  c #B13D88D037F8",
"_  c #B28E89D53862",
"`  c #B9248EEB3A77",
"'  c #BB07905F3B0F",
"]  c #BB4F90973B26",
"[  c #BD89924E3BDB",
"{  c #BE6492F73C1F",
"}  c #C16395483D12",
"|  c #C40A97543DE8",
" . c #C6C499703EC5",
".. c #C95D9B703F96",
"X. c #C9C89BC33FB8",
"o. c #CB9B9D2B404C",
"O. c #CC0B9D82406F",
"+. c #CCC29E0F40A9",
"@. c #CF209FE34168",
"#. c #D19BA1CD4231",
"$. c #D22CA23D425F",
"%. c #D35CA32842BF",
"&. c #D54BA4A6435B",
"*. c #D5FCA52F4393",
"=. c #D742A62A43FA",
"-. c #D7F4A6B34432",
";. c #D8A9A73F446B",
":. c #D8DDA768447C",
">. c #D9BCA81344C2",
",. c #DA56A88B44F3",
"<. c #DA92A8B94506",
"1. c #DB6FA963454B",
"2. c #DCBDAA6545B5",
"3. c #DD6AAAEA45EB",
"4. c #DF42AC574681",
"5. c #DFDDACCF46B2",
"6. c #E19AAE26473E",
"7. c #E1D5AE534751",
"8. c #E664B1D848C1",
"9. c #E741B2834907",
"0. c #E79DB2CA4924",
/* pixels */
"0.0.0.0.0.0.0.0.0.0.0.0.0.0.0.0.0.0.0.0.0.0.0.0.0.0.0.0.0.0.0.0.0.0.0.0.",
"0.0.0.0.0.0.0.0.0.0.0.0.0.0.0.0.0.0.0.0.0.0.0.0.0.0.0.0.0.0.0.0.0.0.0.0.",
"0.0.0.0.0.0.0.0.0.0.0.0.0.0.0.0.0.0.0.0.0.0.0.0.0.0.0.0.0.0.0.0.0.0.0.0.",
"0.0.0.0.0.0.0.0.0.0.0.0.0.0.0.0.0.0.0.0.0.0.0.0.0.0.0.0.0.0.0.0.0.0.0.0.",
"0.0.0.0.0.0.0.0.0.0.0.0.0.0.0.0.0.0.0.0.0.0.0.0.0.0.0.0.0.0.0.0.0.0.0.0.",
"0.0.0.0.0.0.0.0.0.0.0.0.0.0.0.0.0.0.0.0.0.0.0.0.0.0.0.0.0.0.0.0.0.0.0.0.",
"0.0.0.0.0.0.0.0.0.0.0.0.0.0.0.0.0.0.0.0.0.0.0.0.0.0.0.0.0.0.0.0.0.0.0.0.",
"0.0.0.0.0.0.0.0.0.0.0.0.0.0.0.0.0.0.0.0.0.0.0.0.0.0.0.0.0.0.0.0.0.0.0.0.",
"0.0.0.0.0.0.0.0.0.0.0.0.0.0.0.0.0.0.0.0.0.0.0.0.0.0.0.0.0.0.0.0.0.0.0.0.",
"0.0.0.0.0.0.` m B 0.0.0.0.0.0.[ K Z T 5.0.0.0.0.0.%.U A Z T ,.0.0.0.0.0.",
"0.0.0.0.0.0.e 1   0.0.0.0.,.p     # =   [ 0.0.0.M       = #   Y 0.0.0.0.",
"0.0.0.5.+.D   w   0.0.0.0.4   7       w   ,.0.K   # @       <   ] 0.0.0.",
"0.0.0.        w   0.0.0.L   p   { %.>     ! 0.      K -.o.w   d g 0.0.0.",
"0.0.0.        w   0.0.0.0     T 0.0.Y     n ,.  a   0.0.0.{   y   0.0.0.",
"0.0.0.) ) )   w   0.0.0.  @   ` H M W %.0.0.+.    f 0.0.0.(   a # 0.0.0.",
"0.0.0.0.0.0.  w   0.0.0.  9       # #   I 0.0.&.&.4.0.0. .    1 F 0.0.0.",
"0.0.0.0.0.0.  w   0.0.0.    #         ;   { 0.0.0.0.,.x     w 1 4.0.0.0.",
"0.0.0.0.0.0.  w   0.0.0.      Q 0.0.b   d j 0.0.0.P     >   h -.0.0.0.0.",
"0.0.0.0.0.0.  w   0.0.0.  8   7.0.0...  e   0.0.j   :   < ~ 0.0.0.0.0.0.",
"0.0.0.0.0.0.  w   0.0.0.  =   ,.0.0.)   y ; 0.c   w   T 0.0.0.0.0.0.0.0.",
"0.0.0.0.0.0.  w   0.0.0.z   e j +.X.7   a c 5.  w   } } } } } } | 0.0.0.",
"0.0.0.0.0.0.  w   0.0.0.&.    4       7   %.W   1                 0.0.0.",
"0.0.0.0.0.0.  1   0.0.0.0.(       #     ) 0.B                 >   0.0.0.",
"0.0.0.0.0.0.m m B 0.0.0.0.0.4.! S J ( 7.0.0.] m m m m m m m m m B 0.0.0.",
"0.0.0.0.0.0.0.0.0.0.0.0.0.0.0.0.0.0.0.0.0.0.0.0.0.0.0.0.0.0.0.0.0.0.0.0.",
"0.0.0.0.0.0.0.0.0.0.0.0.0.0.0.0.0.0.0.0.0.0.0.0.0.0.0.0.0.0.0.0.0.0.0.0.",
"0.0.0.0.0.0.0.0.0.0.0.0.0.0.0.0.0.0.0.0.0.0.0.0.0.0.0.0.0.0.0.0.0.0.0.0.",
"0.0.0.0.0.0.0.0.0.0.0.0.0.0.0.0.0.0.0.0.0.0.0.0.0.0.0.0.0.0.0.0.0.0.0.0.",
"0.0.0.0.0.0.0.0.0.0.0.0.0.0.0.0.0.0.0.0.0.0.0.0.0.0.0.0.0.0.0.0.0.0.0.0.",
"0.0.0.0.0.0.0.0.0.0.0.0.0.0.0.0.0.0.0.0.0.0.0.0.0.0.0.0.0.0.0.0.0.0.0.0.",
"0.0.0.0.0.0.0.0.0.0.0.0.0.0.0.0.0.0.0.0.0.0.0.0.0.0.0.0.0.0.0.0.0.0.0.0.",
"0.0.0.0.0.0.0.0.0.0.0.0.0.0.0.0.0.0.0.0.0.0.0.0.0.0.0.0.0.0.0.0.0.0.0.0.",
"0.0.0.0.0.0.0.0.0.0.0.0.0.0.0.0.0.0.0.0.0.0.0.0.0.0.0.0.0.0.0.0.0.0.0.0.",
"0.0.0.0.0.0.0.0.0.0.0.0.0.0.0.0.0.0.0.0.0.0.0.0.0.0.0.0.0.0.0.0.0.0.0.0.",
"0.0.0.0.0.0.0.0.0.0.0.0.0.0.0.0.0.0.0.0.0.0.0.0.0.0.0.0.0.0.0.0.0.0.0.0.",
"0.0.0.0.0.0.0.0.0.0.0.0.0.0.0.0.0.0.0.0.0.0.0.0.0.0.0.0.0.0.0.0.0.0.0.0."
};
