/* XPM */
static char *empty-0-LB-63[] = {
/* columns rows colors chars-per-pixel */
"36 36 117 2",
"   c #000500040002",
".  c #010F00D10055",
"X  c #019401380080",
"o  c #024301BF00B7",
"O  c #02F9024B00F0",
"+  c #04E103C4018A",
"@  c #050703E10196",
"#  c #058B044801C0",
"$  c #063804CD01F7",
"%  c #06B3052C021D",
"&  c #078405CD0260",
"*  c #08CC06CA02C8",
"=  c #0AA30836035C",
"-  c #0B5808C10395",
";  c #0BB8090B03B3",
":  c #0C2E096703D9",
">  c #0DCA0AA5045B",
",  c #13EF0F63064B",
"<  c #147A0FCE0678",
"1  c #14FE103406A1",
"2  c #15E210E506E9",
"3  c #1762120D0762",
"4  c #183312AE07A4",
"5  c #18C6131F07D2",
"6  c #198A13B70811",
"7  c #1BB4156208C0",
"8  c #1CBA162C0912",
"9  c #1FA6186E09FF",
"0  c #1FE1189C0A11",
"q  c #21FD1A3D0ABC",
"w  c #24131BD90B65",
"e  c #24511C090B78",
"r  c #277A1E790C77",
"t  c #29C820410D32",
"y  c #2F8F24B60F04",
"u  c #3064255B0F48",
"i  c #31C4266B0FB7",
"p  c #34D628C910AF",
"a  c #435E34011546",
"s  c #43FD347B1579",
"d  c #476D3723168E",
"f  c #4B0F39F117B4",
"g  c #4B873A4C17DA",
"h  c #4E363C5F18B3",
"j  c #592D44D71C29",
"k  c #5D2E47EE1D6D",
"l  c #5D96483E1D8E",
"z  c #5E5848D41DCB",
"x  c #62344BCE1F03",
"c  c #628C4C131F1F",
"v  c #65AB4E7B201B",
"b  c #686B509B20F9",
"n  c #6C10536A2220",
"m  c #6EA3556822F0",
"M  c #701456842364",
"N  c #712B575C23BD",
"B  c #741B59A024AA",
"V  c #7B015EF426D7",
"C  c #7BE05F9F271E",
"Z  c #801562DF2872",
"A  c #80ED638528B7",
"S  c #82D264FC2950",
"D  c #840B65ED29B3",
"F  c #859D67242A31",
"G  c #893269E82B53",
"H  c #8AAC6B0B2BCA",
"J  c #904B6F622D91",
"K  c #908F6F972DA6",
"L  c #92DB715D2E60",
"P  c #936B71CC2E8E",
"I  c #943472672ECD",
"U  c #94B072C62EF4",
"Y  c #95B873932F48",
"T  c #997476743075",
"R  c #9CE8791F318D",
"E  c #9FC97B583275",
"W  c #A03E7BB2329A",
"Q  c #A3647E203399",
"!  c #A3AA7E5633AF",
"~  c #A4A57F1833FE",
"^  c #A98982DE3589",
"/  c #AE9886C63723",
"(  c #AF9C878F3774",
")  c #B11A88B637ED",
"_  c #B28E89D53862",
"`  c #B97C8F2F3A93",
"'  c #B9F28F893AB8",
"]  c #BAF490513B09",
"[  c #BD89924E3BDB",
"{  c #BE7E930B3C27",
"}  c #C50F981D3E3B",
"|  c #C95D9B703F96",
" . c #C9C89BC33FB8",
".. c #CC0B9D82406F",
"X. c #CC3C9DA8407F",
"o. c #CDA99EC140F2",
"O. c #D19BA1CD4231",
"+. c #D22DA23E425F",
"@. c #D367A33042C3",
"#. c #D419A3BA42FA",
"$. c #D5FCA52F4393",
"%. c #D8AAA740446C",
"&. c #DA2EA86C44E6",
"*. c #DAA4A8C7450B",
"=. c #DB6EA963454B",
"-. c #DD8BAB0445F6",
";. c #DEFFAC23466C",
":. c #E07AAD4846E3",
">. c #E19BAE26473E",
",. c #E1D6AE544751",
"<. c #E2B9AF034798",
"1. c #E2FFAF3947AF",
"2. c #E447B0374816",
"3. c #E602B18C48A2",
"4. c #E6A0B20648D4",
"5. c #E74BB28B490A",
"6. c #E79DB2CA4924",
/* pixels */
"6.6.6.6.6.6.6.6.6.6.6.6.6.6.6.6.6.6.6.6.6.6.6.6.6.6.6.6.6.6.6.6.6.6.6.6.",
"6.6.6.6.6.6.6.6.6.6.6.6.6.6.6.6.6.6.6.6.6.6.6.6.6.6.6.6.6.6.6.6.6.6.6.6.",
"6.6.6.6.6.6.6.6.6.6.6.6.6.6.6.6.6.6.6.6.6.6.6.6.6.6.6.6.6.6.6.6.6.6.6.6.",
"6.6.6.6.6.6.6.6.6.6.6.6.6.6.6.6.6.6.6.6.6.6.6.6.6.6.6.6.6.6.6.6.6.6.6.6.",
"6.6.6.6.6.6.6.6.6.6.6.6.6.6.6.6.6.6.6.6.6.6.6.6.6.6.6.6.6.6.6.6.6.6.6.6.",
"6.6.6.6.6.6.6.6.6.6.6.6.6.6.6.6.6.6.6.6.6.6.6.6.6.6.6.6.6.6.6.6.6.6.6.6.",
"6.6.6.6.6.6.6.6.6.6.6.6.6.6.6.6.6.6.6.6.6.6.6.6.6.6.6.6.6.6.6.6.6.6.6.6.",
"6.6.6.6.6.6.6.6.6.6.6.6.6.6.6.6.6.6.6.6.6.6.6.6.6.6.6.6.6.6.6.6.6.6.6.6.",
"6.6.6.6.6.6.6.6.6.6.6.6.6.6.6.6.6.6.6.6.6.6.6.6.6.6.6.6.6.6.6.6.6.6.6.6.",
"6.6.6.6.6.6.6.6.6.6.[ Z M Q ;.6.6.6.6.6.{ Y v P ` 6.6.6.6.6.6.6.6.6.6.6.",
"6.6.6.6.6.6.6.6.*.e     $ $   ] 6.6.6.f       *   g 6.6.6.6.6.6.6.6.6.6.",
"6.6.6.6.6.6.6.6.<   2       8   *.6.B   =           V 6.6.6.6.6.6.6.6.6.",
"6.6.6.6.6.6.6.F   e   { O.>     ~ 6.      J *.D   8   6.6.6.6.6.6.6.6.6.",
"6.6.6.6.6.6.6.7     R 6.6.T     z 6.  <   <.6.<.      *.6.6.6.6.6.6.6.6.",
"6.6.6.6.6.6.6.  $   ` C n W O.6.6.6.      6.6.$.  5   <.6.6.6.6.6.6.6.6.",
"6.6.6.6.6.6.6.  7       @ $   P 6.6.6.6.6.s 5       N 6.6.6.6.6.6.6.6.6.",
"6.6.6.6.6.6.6.    $         =   { 6.6.6.6.          Y 6.6.6.6.6.6.6.6.6.",
"6.6.6.6.6.6.6.      R 6.6.z   u s 6.6.6.6.V c i   $   P 6.6.6.6.6.6.6.6.",
"6.6.6.6.6.6.6.  7   <.6.6. .  0   6.z z b 6.6.6.Q   t * 6.6.6.6.6.6.6.6.",
"6.6.6.6.6.6.6.  *   %.6.6._   q = 6.  =   <.6.6.}   0   6.6.6.6.6.6.6.6.",
"6.6.6.6.6.6.6.f   q s o. .2   r j 6.      G O.o.p   y a 6.6.6.6.6.6.6.6.",
"6.6.6.6.6.6.6.$.    ,       2   O.6.c   *         :   ] 6.6.6.6.6.6.6.6.",
"6.6.6.6.6.6.6.6./       $     ) 6.6.6.h       $     P 6.6.6.6.6.6.6.6.6.",
"6.6.6.6.6.6.6.6.6.;.Q B Z / <.6.6.6.6.6.o.G N D ^ :.6.6.6.6.6.6.6.6.6.6.",
"6.6.6.6.6.6.6.6.6.6.6.6.6.6.6.6.6.6.6.6.6.6.6.6.6.6.6.6.6.6.6.6.6.6.6.6.",
"6.6.6.6.6.6.6.6.6.6.6.6.6.6.6.6.6.6.6.6.6.6.6.6.6.6.6.6.6.6.6.6.6.6.6.6.",
"6.6.6.6.6.6.6.6.6.6.6.6.6.6.6.6.6.6.6.6.6.6.6.6.6.6.6.6.6.6.6.6.6.6.6.6.",
"6.6.6.6.6.6.6.6.6.6.6.6.6.6.6.6.6.6.6.6.6.6.6.6.6.6.6.6.6.6.6.6.6.6.6.6.",
"6.6.6.6.6.6.6.6.6.6.6.6.6.6.6.6.6.6.6.6.6.6.6.6.6.6.6.6.6.6.6.6.6.6.6.6.",
"6.6.6.6.6.6.6.6.6.6.6.6.6.6.6.6.6.6.6.6.6.6.6.6.6.6.6.6.6.6.6.6.6.6.6.6.",
"6.6.6.6.6.6.6.6.6.6.6.6.6.6.6.6.6.6.6.6.6.6.6.6.6.6.6.6.6.6.6.6.6.6.6.6.",
"6.6.6.6.6.6.6.6.6.6.6.6.6.6.6.6.6.6.6.6.6.6.6.6.6.6.6.6.6.6.6.6.6.6.6.6.",
"6.6.6.6.6.6.6.6.6.6.6.6.6.6.6.6.6.6.6.6.6.6.6.6.6.6.6.6.6.6.6.6.6.6.6.6.",
"6.6.6.6.6.6.6.6.6.6.6.6.6.6.6.6.6.6.6.6.6.6.6.6.6.6.6.6.6.6.6.6.6.6.6.6.",
"6.6.6.6.6.6.6.6.6.6.6.6.6.6.6.6.6.6.6.6.6.6.6.6.6.6.6.6.6.6.6.6.6.6.6.6.",
"6.6.6.6.6.6.6.6.6.6.6.6.6.6.6.6.6.6.6.6.6.6.6.6.6.6.6.6.6.6.6.6.6.6.6.6."
};
