/* XPM */
static char *empty-0-LB-116[] = {
/* columns rows colors chars-per-pixel */
"36 36 81 1",
"  c #000300020001",
". c #012B00E7005F",
"X c #018F0134007E",
"o c #025901D000BE",
"O c #04E103C4018A",
"+ c #050703E10196",
"@ c #05D4048001D7",
"# c #063004C601F4",
"$ c #06B3052C021D",
"% c #078405CD025F",
"& c #08D406D102CA",
"* c #0ABE084B0364",
"= c #0B5808C10395",
"- c #0DCA0AA5045B",
"; c #0F7F0BF604E5",
": c #13EF0F63064B",
"> c #14FE103406A1",
", c #15E310E506E9",
"< c #1762120D0762",
"1 c #183312AE07A4",
"2 c #198B13B70811",
"3 c #1B8F154608B4",
"4 c #1CBA162C0912",
"5 c #1D9416D50957",
"6 c #1F2F181209D9",
"7 c #1FB9187D0A05",
"8 c #1FE3189D0A12",
"9 c #21FE1A3D0ABC",
"0 c #24131BD90B65",
"q c #24521C090B78",
"w c #277B1E7A0C78",
"e c #3065255C0F49",
"r c #43D7345E156C",
"t c #476B3721168E",
"y c #4B9E3A5F17E1",
"u c #592A44D41C28",
"i c #5D2F47EE1D6D",
"p c #5D9B48421D8F",
"a c #65554E382000",
"s c #6C0F536A2220",
"d c #6D7B54822292",
"f c #701456842365",
"g c #745359CB24BC",
"h c #78035CA425E6",
"j c #7BE05FA0271E",
"k c #801462DE2872",
"l c #80ED638528B7",
"z c #859C67232A31",
"x c #92DA715C2E60",
"c c #997376743075",
"v c #9CE5791D318C",
"b c #9FC77B563275",
"n c #A03E7BB2329A",
"m c #A3AA7E5633AF",
"M c #A4A67F1933FF",
"N c #AE9886C63723",
"B c #AF9D878F3775",
"V c #B14288D437FA",
"C c #B28E89D53862",
"Z c #B9068ED43A6E",
"A c #BAD390373AFF",
"S c #BD89924E3BDB",
"D c #BE9893203C30",
"F c #C95D9B703F96",
"G c #C9C89BC33FB8",
"H c #CC0B9D82406F",
"J c #CCC29E0F40A9",
"K c #D19BA1CD4231",
"L c #D22CA23D425F",
"P c #D375A33B42C6",
"I c #D5FCA52F4393",
"U c #D8A9A73F446B",
"Y c #DA56A88B44F3",
"T c #DB6FA963454B",
"R c #DD8BAB0445F6",
"E c #DF06AC29466E",
"W c #DFDDACCF46B2",
"Q c #E19AAE26473E",
"! c #E1D5AE534751",
"~ c #E72AB27148FF",
"^ c #E79DB2CA4924",
/* pixels */
"^^^^^^^^^^^^^^^^^^^^^^^^^^^^^^^^^^^^",
"^^^^^^^^^^^^^^^^^^^^^^^^^^^^^^^^^^^^",
"^^^^^^^^^^^^^^^^^^^^^^^^^^^^^^^^^^^^",
"^^^^^^^^^^^^^^^^^^^^^^^^^^^^^^^^^^^^",
"^^^^^^^^^^^^^^^^^^^^^^^^^^^^^^^^^^^^",
"^^^^^^^^^^^^^^^^^^^^^^^^^^^^^^^^^^^^",
"^^^^^^^^^^^^^^^^^^^^^^^^^^^^^^^^^^^^",
"^^^^^^^^^^^^^^^^^^^^^^^^^^^^^^^^^^^^",
"^^^^^^^^^^^^^^^^^^^^^^^^^^^^^^^^^^^^",
"^^^^^^^Zad^^^^^^Zad^^^^^^DlfmR^^^^^^",
"^^^^^^^8; ^^^^^^5; ^^^^Tq  $$ Z^^^^^",
"^^^^WJh 5 ^^^WJh 5 ^^^^: ,   5 T^^^^",
"^^^^    5 ^^^    5 ^^^z q SP-  M^^^^",
"^^^^    5 ^^^    5 ^^^3  v^^c  p^^^^",
"^^^^VVV 5 ^^^VVV 5 ^^^ $ ZjsnP^^^^^^",
"^^^^^^^ 5 ^^^^^^ 5 ^^^ 3   O$ x^^^^^",
"^^^^^^^ 5 ^^^^^^ 5 ^^^  $    = D^^^^",
"^^^^^^^ 5 ^^^^^^ 5 ^^^   m^^p er^^^^",
"^^^^^^^ 5 ^^^^^^ 5 ^^^ 1 W^^F 9 ^^^^",
"^^^^^^^ 5 ^^^^^^ 5 ^^^ & U^^V 9*^^^^",
"^^^^^^^ 5 ^^^^^^ 5 ^^^y 9rJF1 wu^^^^",
"^^^^^^^ 5 ^^^^^^ 5 ^^^I  :   , P^^^^",
"^^^^^^^ ; ^^^^^^ ; ^^^^B   $  V^^^^^",
"^^^^^^^aad^^^^^^aad^^^^^RMgkBW^^^^^^",
"^^^^^^^^^^^^^^^^^^^^^^^^^^^^^^^^^^^^",
"^^^^^^^^^^^^^^^^^^^^^^^^^^^^^^^^^^^^",
"^^^^^^^^^^^^^^^^^^^^^^^^^^^^^^^^^^^^",
"^^^^^^^^^^^^^^^^^^^^^^^^^^^^^^^^^^^^",
"^^^^^^^^^^^^^^^^^^^^^^^^^^^^^^^^^^^^",
"^^^^^^^^^^^^^^^^^^^^^^^^^^^^^^^^^^^^",
"^^^^^^^^^^^^^^^^^^^^^^^^^^^^^^^^^^^^",
"^^^^^^^^^^^^^^^^^^^^^^^^^^^^^^^^^^^^",
"^^^^^^^^^^^^^^^^^^^^^^^^^^^^^^^^^^^^",
"^^^^^^^^^^^^^^^^^^^^^^^^^^^^^^^^^^^^",
"^^^^^^^^^^^^^^^^^^^^^^^^^^^^^^^^^^^^",
"^^^^^^^^^^^^^^^^^^^^^^^^^^^^^^^^^^^^"
};
