/* XPM */
static char *empty-0-LB-199[] = {
/* columns rows colors chars-per-pixel */
"36 36 80 1",
"  c #000800060002",
". c #013800F10063",
"X c #019601390080",
"o c #023901B800B4",
"O c #0578043801BA",
"+ c #075005A5024F",
"@ c #09C7078D0316",
"# c #0ACD08570369",
"$ c #0B8E08EC03A6",
"% c #0BB4090903B2",
"& c #0C71099B03EE",
"* c #0E060AD3046E",
"= c #0E100ADB0471",
"- c #0F7F0BF604E5",
"; c #10480C910524",
": c #18E8133A07DE",
"> c #1B76153308AC",
", c #1C2015B608E2",
"< c #1CE3164D091F",
"1 c #1D9316D50957",
"2 c #1EC117BE09B7",
"3 c #1F30181309D9",
"4 c #1F9F186909FC",
"5 c #219D19F20A9D",
"6 c #22301A640ACC",
"7 c #242A1BEB0B6C",
"8 c #25941D020BDE",
"9 c #26F31E110C4D",
"0 c #2AB620F80D7D",
"q c #2BF421ED0DE1",
"w c #30C125A20F65",
"e c #32D7273F100E",
"r c #351028F610C2",
"t c #3FE93156142E",
"y c #46E136B61662",
"u c #498E38C8173A",
"i c #4A7439791783",
"p c #4C363AD51811",
"a c #555241DC1AF1",
"s c #580643F31BCC",
"d c #5D0447CE1D60",
"f c #5DAE48501D95",
"g c #5E9249011DDD",
"h c #611A4AF41EAA",
"j c #65554E382000",
"k c #65704E4E2008",
"l c #676E4FD720A9",
"z c #6D7C54832293",
"x c #77E65C8D25DD",
"c c #793F5D97264A",
"v c #868B67DC2A7D",
"b c #87C568CE2AE0",
"n c #8E706DF42CFB",
"m c #905E6F712D97",
"M c #994B76553069",
"N c #A6918094349A",
"B c #A76A813B34DE",
"V c #A82B81D0351B",
"C c #A92D8298356C",
"Z c #ABD284A23642",
"A c #AEC386E83730",
"S c #AF88877F376E",
"D c #B14888D937FC",
"F c #B8798E673A41",
"G c #B90D8ED93A70",
"H c #C6EC998E3ED1",
"J c #C7EE9A553F23",
"K c #CC969DED409C",
"L c #CD0D9E4940C1",
"P c #D001A09141B0",
"I c #D05DA0D741CC",
"U c #D553A4AC435E",
"Y c #D5E6A51D438C",
"T c #DA94A8BA4506",
"R c #DFDDACCF46B2",
"E c #E2CAAF10479E",
"W c #E420B019480A",
"Q c #E506B0CA4852",
"! c #E6AFB21248D9",
"~ c #E79DB2CA4924",
/* pixels */
"~~~~~~~~~~~~~~~~~~~~~~~~~~~~~~~~~~~~",
"~~~~~~~~~~~~~~~~~~~~~~~~~~~~~~~~~~~~",
"~~~~~~~~~~~~~~~~~~~~~~~~~~~~~~~~~~~~",
"~~~~~~~~~~~~~~~~~~~~~~~~~~~~~~~~~~~~",
"~~~~~~~~~~~~~~~~~~~~~~~~~~~~~~~~~~~~",
"~~~~~~~~~~~~~~~~~~~~~~~~~~~~~~~~~~~~",
"~~~~~~~~~~~~~~~~~~~~~~~~~~~~~~~~~~~~",
"~~~~~~~~~~~~~~~~~~~~~~~~~~~~~~~~~~~~",
"~~~~~~~~~~~~~~~~~~~~~~~~~~~~~~~~~~~~",
"~~~~~~Gjz~~~~~TCxxA~~~~~~TCxxD~~~~~~",
"~~~~~~4- ~~~~n   # &P~~~n   # &P~~~~",
"~~~RLx 1 ~~~B  -   5@~~B  ;   5#~~~~",
"~~~    1 ~~~# 1aPJ&  B~# >aPJ#  B~~~",
"~~~    1 ~~~ # T~~C ey~ # T~~C ey~~~",
"~~~DDD 1 ~~~ : E~~L 0 ~ : E~~L 0 ~~~",
"~~~~~~ 1 ~~~   G~~j 5 ~   G~~j 4 ~~~",
"~~~~~~ 1 ~~~h 4 u9  1 ~h 1 u9  1 ~~~",
"~~~~~~ 1 ~~~~r   @  9 ~~r   #  9 ~~~",
"~~~~~~ 1 ~~~~~Zf8um wq~~~Af5um wq~~~",
"~~~~~~ 1 ~~~1  L~~p 5x~>  L~~p 5x~~~",
"~~~~~~ 1 ~~~y >sUA O J~t 1sUA @ J~~~",
"~~~~~~ 4 ~~~G  &   Of~~G  #   Of~~~~",
"~~~~~~ & ~~~~b   # d~~~~b  O& d~~~~~",
"~~~~~~jjz~~~~~YMzvJ~~~~~~UMjvJ~~~~~~",
"~~~~~~~~~~~~~~~~~~~~~~~~~~~~~~~~~~~~",
"~~~~~~~~~~~~~~~~~~~~~~~~~~~~~~~~~~~~",
"~~~~~~~~~~~~~~~~~~~~~~~~~~~~~~~~~~~~",
"~~~~~~~~~~~~~~~~~~~~~~~~~~~~~~~~~~~~",
"~~~~~~~~~~~~~~~~~~~~~~~~~~~~~~~~~~~~",
"~~~~~~~~~~~~~~~~~~~~~~~~~~~~~~~~~~~~",
"~~~~~~~~~~~~~~~~~~~~~~~~~~~~~~~~~~~~",
"~~~~~~~~~~~~~~~~~~~~~~~~~~~~~~~~~~~~",
"~~~~~~~~~~~~~~~~~~~~~~~~~~~~~~~~~~~~",
"~~~~~~~~~~~~~~~~~~~~~~~~~~~~~~~~~~~~",
"~~~~~~~~~~~~~~~~~~~~~~~~~~~~~~~~~~~~",
"~~~~~~~~~~~~~~~~~~~~~~~~~~~~~~~~~~~~"
};
