/* XPM */
static char *empty-0-LB-219[] = {
/* columns rows colors chars-per-pixel */
"36 36 108 2",
"   c #000C00090004",
".  c #01B90154008B",
"X  c #023401B300B2",
"o  c #02BE021E00DE",
"O  c #0313026000F9",
"+  c #037602AC0118",
"@  c #04AD039C017A",
"#  c #0593044D01C3",
"$  c #065504E40200",
"%  c #06EF055A0231",
"&  c #0B2108970384",
"*  c #184212B907A9",
"=  c #201C18C90A24",
"-  c #216819CA0A8D",
";  c #23BE1B970B49",
":  c #26521D940C1A",
">  c #281A1EF50CAA",
",  c #2C7922540E0B",
"<  c #2D8923260E61",
"1  c #315B26190F96",
"2  c #3188263C0FA4",
"3  c #3326277C1027",
"4  c #39572C43121B",
"5  c #3F7430FB1409",
"6  c #3FA0311D1418",
"7  c #404B31A1144E",
"8  c #429233631506",
"9  c #436534061548",
"0  c #43EB346D1572",
"q  c #46E836BC1664",
"w  c #4B5E3A2E17CD",
"e  c #534440471A4C",
"r  c #549C41501AB8",
"t  c #559C42161B09",
"y  c #65554E382000",
"u  c #65AB4E7B201B",
"i  c #65D64E9C2028",
"p  c #69375138213A",
"a  c #6A9F524E21AC",
"s  c #6AE3528321C1",
"d  c #6BFC535B221A",
"f  c #6CB053E62252",
"g  c #6E29550922CA",
"h  c #73CF59662492",
"j  c #74A65A0C24D6",
"k  c #78635CEF2604",
"l  c #78A25D1F2618",
"z  c #7D8360E327A2",
"x  c #813663BE28CE",
"c  c #81E364432904",
"v  c #86C8680B2A90",
"b  c #889769702B22",
"n  c #892269DB2B4E",
"m  c #8A0F6A932B99",
"M  c #8CB76C9F2C6F",
"N  c #922B70D52E28",
"B  c #924A70ED2E32",
"V  c #95F373C02F5A",
"C  c #98297576300D",
"Z  c #9A0E76EC30A6",
"A  c #9D8F799F31C2",
"S  c #A3597E183395",
"D  c #A3D27E7533BB",
"F  c #A4417ECB33DF",
"G  c #A5C97FFA345A",
"H  c #A69D809D349D",
"J  c #A88E821D353A",
"K  c #AAE083E735F6",
"L  c #AC5E850E366E",
"P  c #ACAC854B3687",
"I  c #AE20866936FC",
"U  c #AFA987993779",
"Y  c #B00187DD3795",
"T  c #B14588D737FB",
"R  c #B25389A73850",
"E  c #B7F38DFF3A17",
"W  c #B9208EE73A76",
"Q  c #B9E08F7C3AB2",
"!  c #BB4990923B24",
"~  c #BC7F91813B86",
"^  c #BD32920C3BBF",
"/  c #BDC7927F3BEE",
"(  c #C16095463D11",
")  c #C4B597D83E1E",
"_  c #C52D98353E44",
"`  c #C5D298B43E78",
"'  c #C8239A7E3F34",
"]  c #CCAD9DFF40A2",
"[  c #CD3A9E6C40CF",
"{  c #CEDB9FAD4152",
"}  c #D157A199421B",
"|  c #D328A2FF42AE",
" . c #D54BA4A6435B",
".. c #D601A5324394",
"X. c #D7B7A684441F",
"o. c #D909A7894489",
"O. c #D9EEA83A44D2",
"+. c #DB29A92D4535",
"@. c #DC73AA2C459D",
"#. c #DD58AADC45E6",
"$. c #DE84ABC44645",
"%. c #E042AD1C46D1",
"&. c #E402B0014800",
"*. c #E5ABB14A4887",
"=. c #E602B18D48A2",
"-. c #E6C5B22348E0",
";. c #E711B25E48F7",
":. c #E79DB2CA4924",
/* pixels */
":.:.:.:.:.:.:.:.:.:.:.:.:.:.:.:.:.:.:.:.:.:.:.:.:.:.:.:.:.:.:.:.:.:.:.:.",
":.:.:.:.:.:.:.:.:.:.:.:.:.:.:.:.:.:.:.:.:.:.:.:.:.:.:.:.:.:.:.:.:.:.:.:.",
":.:.:.:.:.:.:.:.:.:.:.:.:.:.:.:.:.:.:.:.:.:.:.:.:.:.:.:.:.:.:.:.:.:.:.:.",
":.:.:.:.:.:.:.:.:.:.:.:.:.:.:.:.:.:.:.:.:.:.:.:.:.:.:.:.:.:.:.:.:.:.:.:.",
":.:.:.:.:.:.:.:.:.:.:.:.:.:.:.:.:.:.:.:.:.:.:.:.:.:.:.:.:.:.:.:.:.:.:.:.",
":.:.:.:.:.:.:.:.:.:.:.:.:.:.:.:.:.:.:.:.:.:.:.:.:.:.:.:.:.:.:.:.:.:.:.:.",
":.:.:.:.:.:.:.:.:.:.:.:.:.:.:.:.:.:.:.:.:.:.:.:.:.:.:.:.:.:.:.:.:.:.:.:.",
":.:.:.:.:.:.:.:.:.:.:.:.:.:.:.:.:.:.:.:.:.:.:.:.:.:.:.:.:.:.:.:.:.:.:.:.",
":.:.:.:.:.:.:.:.:.:.:.:.:.:.:.:.:.:.:.:.:.:.:.:.:.:.:.:.:.:.:.:.:.:.:.:.",
":.:.:.:.:.Q x i z Q :.:.:.:.:.:.:.a i / :.:.:.:.:.^ B a m { :.:.:.:.:.:.",
":.:.:.} *   #   #   1 @.:.:.:.:.'   # V :.:.:.O.0       #   l :.:.:.:.:.",
":.:.&.# #           # 3 :.:. .Q - # # V :.:.:.8 #             F :.:.:.:.",
":.:.L       / o.Z       ` d     @   # V :.:.Q       L X.m       :.:.:.:.",
":.:.g     J :.:.:.5   @ A a         # V :.:.M   # a :.:.:.:     { :.:.:.",
":.:.e     ` :.:.:.4     Y { T T i   # V :.:.j   # m :.:.:.r     L :.:.:.",
":.:.&.}  .:.:.:.v       O.:.:.:.i   # V :.:.K     < :.:.@.    @ A :.:.:.",
":.:.:.:.:.:.T &       B :.:.:.:.i   # V :.:.@.      - r   #   # Z :.:.:.",
":.:.:.:.} 5     #   V :.:.:.:.:.i   # V :.:.:.R   #     #       K :.:.:.",
":.:.:.`   @ #   i  .:.:.:.:.:.:.i   # V :.:.:.:.O.m 8 1 k ,     / :.:.:.",
":.:.@.      w  .:.:.:.:.:.:.:.:.i   # V :.:.^     w :.:.O.      @.:.:.:.",
":.:.M     j / / / ) / ) &.:.:.:.i   # V :.:.@.      Q { w   # 0 :.:.:.:.",
":.:.:                   V :.:.:.i   # V :.:.:.r @             { :.:.:.:.",
":.:.                  # V :.:.:.i   # V :.:.:.&.<           R :.:.:.:.:.",
":.:.a i y y i i i i i i / :.:.:.D i i / :.:.:.:.:.L c j F $.:.:.:.:.:.:.",
":.:.:.:.:.:.:.:.:.:.:.:.:.:.:.:.:.:.:.:.:.:.:.:.:.:.:.:.:.:.:.:.:.:.:.:.",
":.:.:.:.:.:.:.:.:.:.:.:.:.:.:.:.:.:.:.:.:.:.:.:.:.:.:.:.:.:.:.:.:.:.:.:.",
":.:.:.:.:.:.:.:.:.:.:.:.:.:.:.:.:.:.:.:.:.:.:.:.:.:.:.:.:.:.:.:.:.:.:.:.",
":.:.:.:.:.:.:.:.:.:.:.:.:.:.:.:.:.:.:.:.:.:.:.:.:.:.:.:.:.:.:.:.:.:.:.:.",
":.:.:.:.:.:.:.:.:.:.:.:.:.:.:.:.:.:.:.:.:.:.:.:.:.:.:.:.:.:.:.:.:.:.:.:.",
":.:.:.:.:.:.:.:.:.:.:.:.:.:.:.:.:.:.:.:.:.:.:.:.:.:.:.:.:.:.:.:.:.:.:.:.",
":.:.:.:.:.:.:.:.:.:.:.:.:.:.:.:.:.:.:.:.:.:.:.:.:.:.:.:.:.:.:.:.:.:.:.:.",
":.:.:.:.:.:.:.:.:.:.:.:.:.:.:.:.:.:.:.:.:.:.:.:.:.:.:.:.:.:.:.:.:.:.:.:.",
":.:.:.:.:.:.:.:.:.:.:.:.:.:.:.:.:.:.:.:.:.:.:.:.:.:.:.:.:.:.:.:.:.:.:.:.",
":.:.:.:.:.:.:.:.:.:.:.:.:.:.:.:.:.:.:.:.:.:.:.:.:.:.:.:.:.:.:.:.:.:.:.:.",
":.:.:.:.:.:.:.:.:.:.:.:.:.:.:.:.:.:.:.:.:.:.:.:.:.:.:.:.:.:.:.:.:.:.:.:.",
":.:.:.:.:.:.:.:.:.:.:.:.:.:.:.:.:.:.:.:.:.:.:.:.:.:.:.:.:.:.:.:.:.:.:.:."
};
