/* XPM */
static char *empty-0-LB-159[] = {
/* columns rows colors chars-per-pixel */
"36 36 123 2",
"   c #000500040002",
".  c #011E00DD005A",
"X  c #01AC014A0087",
"o  c #024401C000B8",
"O  c #05AF046301CB",
"+  c #0706056C0238",
"@  c #075005A5024F",
"#  c #08AE06B402BE",
"$  c #09C7078D0316",
"%  c #0ACD08570369",
"&  c #0B8E08EC03A6",
"*  c #0BB9090C03B4",
"=  c #0C71099B03EE",
"-  c #0E060AD3046E",
";  c #0E100ADB0471",
":  c #0F7F0BF604E5",
">  c #10420C8C0522",
",  c #12650E3305CF",
"<  c #1576109206C7",
"1  c #186D12DB07B7",
"2  c #18E8133A07DE",
"3  c #1BA7155908BC",
"4  c #1C2015B608E2",
"5  c #1CE3164D091F",
"6  c #1D9316D50957",
"7  c #1EC117BE09B7",
"8  c #1F30181309D9",
"9  c #1FA1186A09FD",
"0  c #20D8195B0A5F",
"q  c #219D19F20A9D",
"w  c #22301A640ACC",
"e  c #23851B6B0B37",
"r  c #242A1BEB0B6C",
"t  c #25941D020BDE",
"y  c #26F31E110C4D",
"u  c #2ABF20FF0D80",
"i  c #2BF421ED0DE1",
"p  c #2EAB24060EBC",
"a  c #30C125A20F65",
"s  c #32D7273F100E",
"d  c #351028F610C2",
"f  c #3DAA2F9A1379",
"g  c #3ECD307A13D5",
"h  c #3FE93156142E",
"j  c #408331CC145F",
"k  c #41AF32B414BE",
"l  c #46E136B61662",
"z  c #48C9383016FC",
"x  c #498E38C8173A",
"c  c #4A7439791783",
"v  c #4C363AD51811",
"b  c #555241DC1AF1",
"n  c #580643F31BCC",
"m  c #587B444D1BF1",
"M  c #5CF947C61D5C",
"N  c #5DAE48501D95",
"B  c #5EB249191DE8",
"V  c #611A4AF41EAA",
"C  c #63144C7B1F4A",
"Z  c #65554E382000",
"A  c #65704E4E2008",
"S  c #66184ECF203D",
"D  c #676E4FD720A9",
"F  c #696E5162214B",
"G  c #6D5054612285",
"H  c #6D7C54832293",
"J  c #77EE5C9325DF",
"K  c #79325D8E2646",
"L  c #7F17621A2822",
"P  c #80F8638E28BA",
"I  c #82276478291A",
"U  c #85F267662A4D",
"Y  c #868B67DC2A7D",
"T  c #87C568CE2AE0",
"R  c #8E6D6DF12CFA",
"E  c #905E6F712D97",
"W  c #96B474552F97",
"Q  c #994B76553069",
"!  c #9E267A1431F1",
"~  c #A29A7D843359",
"^  c #A6918094349A",
"/  c #A76A813B34DE",
"(  c #A82B81D0351B",
")  c #A92D8298356C",
"_  c #AB9684743630",
"`  c #ABD284A23642",
"'  c #AEC386E83730",
"]  c #AF88877F376E",
"[  c #B096885037C4",
"{  c #B14888D937FC",
"}  c #B4E08BA0391E",
"|  c #B5758C13394D",
" . c #B6B88D0C39B3",
".. c #B8798E673A41",
"X. c #B8FC8ECC3A6A",
"o. c #BD4092163BC3",
"O. c #C154953C3D0D",
"+. c #C31596983D9B",
"@. c #C45B97923E02",
"#. c #C6EC998E3ED1",
"$. c #C7EE9A553F23",
"%. c #C8A29AE03F5B",
"&. c #CCA19DF6409F",
"*. c #CD0D9E4940C1",
"=. c #CD869EA740E7",
"-. c #CEAE9F8B4144",
";. c #D001A09141B0",
":. c #D05DA0D741CC",
">. c #D0E2A13E41F6",
",. c #D553A4AC435E",
"<. c #D5E6A51D438C",
"1. c #D92BA7A44494",
"2. c #D969A7D344A8",
"3. c #DA94A8BA4506",
"4. c #DBB6A99B4562",
"5. c #DE3CAB8C462E",
"6. c #DFDDACCF46B2",
"7. c #E2CAAF10479E",
"8. c #E420B019480A",
"9. c #E544B0FA4866",
"0. c #E687B1F348CC",
"q. c #E752B290490C",
"w. c #E79DB2CA4924",
/* pixels */
"w.w.w.w.w.w.w.w.w.w.w.w.w.w.w.w.w.w.w.w.w.w.w.w.w.w.w.w.w.w.w.w.w.w.w.w.",
"w.w.w.w.w.w.w.w.w.w.w.w.w.w.w.w.w.w.w.w.w.w.w.w.w.w.w.w.w.w.w.w.w.w.w.w.",
"w.w.w.w.w.w.w.w.w.w.w.w.w.w.w.w.w.w.w.w.w.w.w.w.w.w.w.w.w.w.w.w.w.w.w.w.",
"w.w.w.w.w.w.w.w.w.w.w.w.w.w.w.w.w.w.w.w.w.w.w.w.w.w.w.w.w.w.w.w.w.w.w.w.",
"w.w.w.w.w.w.w.w.w.w.w.w.w.w.w.w.w.w.w.w.w.w.w.w.w.w.w.w.w.w.w.w.w.w.w.w.",
"w.w.w.w.w.w.w.w.w.w.w.w.w.w.w.w.w.w.w.w.w.w.w.w.w.w.w.w.w.w.w.w.w.w.w.w.",
"w.w.w.w.w.w.w.w.w.w.w.w.w.w.w.w.w.w.w.w.w.w.w.w.w.w.w.w.w.w.w.w.w.w.w.w.",
"w.w.w.w.w.w.w.w.w.w.w.w.w.w.w.w.w.w.w.w.w.w.w.w.w.w.w.w.w.w.w.w.w.w.w.w.",
"w.w.w.w.w.w.w.w.w.w.w.w.w.w.w.w.w.w.w.w.w.w.w.w.w.w.w.w.w.w.w.w.w.w.w.w.",
"w.w.w.w.w.w.X.A H w.w.w.w.A Z Z Z Z Z A Z 5.w.w.w.3.) J J { w.w.w.w.w.w.",
"w.w.w.w.w.w.9 :   w.w.w.*.                *.w.w.R       &   = ;.w.w.w.w.",
"w.w.w.6.*.J   6   w.w.w.!   :             ;.w.(     :       q & w.w.w.w.",
"w.w.w.        6   w.w.w.H   = ~ O.O.O.O.O.w.w.&   3 b ;.$.=     ( w.w.w.",
"w.w.w.        6   w.w.w.j     O.w.w.w.w.w.w.w.  &   3.w.w.(   s l w.w.w.",
"w.w.w.{ { {   6   w.w.w.3     N u x I >.w.w.w.  2   7.w.w.*.  u   w.w.w.",
"w.w.w.w.w.w.  6   w.w.w.  +         :   L w.w.      X.w.w.A   9   w.w.w.",
"w.w.w.w.w.w.  6   w.w.w.  +   q N 6   #   } w.V   6   x y     9   w.w.w.",
"w.w.w.w.w.w.  6   w.w.w.f g I w.w.w.m   p j w.w.d       #     t   w.w.w.",
"w.w.w.w.w.w.  6   w.w.w.w.w.w.w.w.w.%.  q   w.w.w.` N t x E   a i w.w.w.",
"w.w.w.w.w.w.  6   w.w.J     W w.w.w.{   q < w.6     *.w.w.v   q J w.w.w.",
"w.w.w.w.w.w.  6   w.w.`   q   X.1.O.:   q C w.h   6 m <.`   #   $.w.w.w.",
"w.w.w.w.w.w.  6   w.w.w.<   :         2   1.w.X.    =       + N w.w.w.w.",
"w.w.w.w.w.w.  :   w.w.w.5.q       #   3 o.w.w.w.T       =   N w.w.w.w.w.",
"w.w.w.w.w.w.A A H w.w.w.w.w.$.Y F R  .w.w.w.w.w.w.<.Q D Y $.w.w.w.w.w.w.",
"w.w.w.w.w.w.w.w.w.w.w.w.w.w.w.w.w.w.w.w.w.w.w.w.w.w.w.w.w.w.w.w.w.w.w.w.",
"w.w.w.w.w.w.w.w.w.w.w.w.w.w.w.w.w.w.w.w.w.w.w.w.w.w.w.w.w.w.w.w.w.w.w.w.",
"w.w.w.w.w.w.w.w.w.w.w.w.w.w.w.w.w.w.w.w.w.w.w.w.w.w.w.w.w.w.w.w.w.w.w.w.",
"w.w.w.w.w.w.w.w.w.w.w.w.w.w.w.w.w.w.w.w.w.w.w.w.w.w.w.w.w.w.w.w.w.w.w.w.",
"w.w.w.w.w.w.w.w.w.w.w.w.w.w.w.w.w.w.w.w.w.w.w.w.w.w.w.w.w.w.w.w.w.w.w.w.",
"w.w.w.w.w.w.w.w.w.w.w.w.w.w.w.w.w.w.w.w.w.w.w.w.w.w.w.w.w.w.w.w.w.w.w.w.",
"w.w.w.w.w.w.w.w.w.w.w.w.w.w.w.w.w.w.w.w.w.w.w.w.w.w.w.w.w.w.w.w.w.w.w.w.",
"w.w.w.w.w.w.w.w.w.w.w.w.w.w.w.w.w.w.w.w.w.w.w.w.w.w.w.w.w.w.w.w.w.w.w.w.",
"w.w.w.w.w.w.w.w.w.w.w.w.w.w.w.w.w.w.w.w.w.w.w.w.w.w.w.w.w.w.w.w.w.w.w.w.",
"w.w.w.w.w.w.w.w.w.w.w.w.w.w.w.w.w.w.w.w.w.w.w.w.w.w.w.w.w.w.w.w.w.w.w.w.",
"w.w.w.w.w.w.w.w.w.w.w.w.w.w.w.w.w.w.w.w.w.w.w.w.w.w.w.w.w.w.w.w.w.w.w.w.",
"w.w.w.w.w.w.w.w.w.w.w.w.w.w.w.w.w.w.w.w.w.w.w.w.w.w.w.w.w.w.w.w.w.w.w.w."
};
