/* XPM */
static char *empty-0-LB-115[] = {
/* columns rows colors chars-per-pixel */
"36 36 71 1",
"  c #000100010000",
". c #012500E2005D",
"X c #01ED017C009C",
"o c #025001C900BB",
"O c #05CA047801D4",
"+ c #0706056C0238",
"@ c #08AE06B402BE",
"# c #0BBE091003B5",
"$ c #0F7F0BF604E5",
"% c #10400C8B0522",
"& c #12650E3305CF",
"* c #1576109206C7",
"= c #186D12DB07B7",
"- c #1BB8156608C1",
"; c #1D9416D50957",
": c #1F2F181209D9",
"> c #1FA2186B09FD",
", c #20D8195B0A5F",
"< c #219C19F10A9D",
"1 c #23851B6B0B37",
"2 c #2AC821060D82",
"3 c #2EAB24060EBC",
"4 c #3DAA2F9A1379",
"5 c #3ECD307A13D5",
"6 c #408331CC145F",
"7 c #41AF32B414BE",
"8 c #48C9383016FC",
"9 c #587B444D1BF1",
"0 c #5CEF47BD1D59",
"q c #5ED249321DF2",
"w c #63144C7B1F4A",
"e c #65554E382000",
"r c #66184ECF203D",
"t c #696E5162214B",
"y c #6D5054612285",
"u c #6D7B54822292",
"i c #78035CA425E6",
"p c #79185D7A263D",
"a c #7F17621A2822",
"s c #80F8638E28BA",
"d c #82276478291A",
"f c #85F267662A4D",
"g c #8E6A6DEF2CF9",
"h c #96B474552F97",
"j c #9E267A1431F1",
"k c #A29A7D843359",
"l c #AB9684743630",
"z c #B096885037C4",
"x c #B14888D937FC",
"c c #B4E08BA0391E",
"v c #B5758C13394D",
"b c #B6B88D0C39B3",
"n c #B8CB8EA63A5B",
"m c #BD4092163BC3",
"M c #C154953C3D0D",
"N c #C31596983D9B",
"B c #C45B97923E02",
"V c #C8A29AE03F5B",
"C c #CCC29E0F40A9",
"Z c #CD869EA740E7",
"A c #CEAE9F8B4144",
"S c #D0E2A13E41F6",
"D c #D92BA7A44494",
"F c #D969A7D344A8",
"G c #DBB6A99B4562",
"H c #DE3CAB8C462E",
"J c #DFDDACCF46B2",
"K c #E5BFB159488D",
"L c #E65FB1D448C0",
"P c #E752B290490C",
"I c #E79DB2CA4924",
/* pixels */
"IIIIIIIIIIIIIIIIIIIIIIIIIIIIIIIIIIII",
"IIIIIIIIIIIIIIIIIIIIIIIIIIIIIIIIIIII",
"IIIIIIIIIIIIIIIIIIIIIIIIIIIIIIIIIIII",
"IIIIIIIIIIIIIIIIIIIIIIIIIIIIIIIIIIII",
"IIIIIIIIIIIIIIIIIIIIIIIIIIIIIIIIIIII",
"IIIIIIIIIIIIIIIIIIIIIIIIIIIIIIIIIIII",
"IIIIIIIIIIIIIIIIIIIIIIIIIIIIIIIIIIII",
"IIIIIIIIIIIIIIIIIIIIIIIIIIIIIIIIIIII",
"IIIIIIIIIIIIIIIIIIIIIIIIIIIIIIIIIIII",
"IIIIIIIneuIIIIIIneuIIIIeeeeeeeeHIIII",
"IIIIIII>$ IIIIII;% IIIZ        ZIIII",
"IIIIJZi ; IIIJZi ; IIIj %      AIIII",
"IIII    ; III    ; IIIu $kMMMMMIIIII",
"IIII    ; III    ; III7  MIIIIIIIIII",
"IIIIxxx ; IIIxxx ; III;  028dSIIIIII",
"IIIIIII ; IIIIII ; III O    % aIIIII",
"IIIIIII ; IIIIII ; III O 1q; @ cIIII",
"IIIIIII ; IIIIII ; III55aIII9 37IIII",
"IIIIIII ; IIIIII ; IIIIIIIIIV > IIII",
"IIIIIII ; IIIIII ; IIi  hIIIx 1*IIII",
"IIIIIII ; IIIIII ; IIl 1 cGB$ 1wIIII",
"IIIIIII ; IIIIII ; III* %    = DIIII",
"IIIIIII $ IIIIII $ IIIG1   O -mIIIII",
"IIIIIIIeeuIIIIIIeeuIIIIIVftgvIIIIIII",
"IIIIIIIIIIIIIIIIIIIIIIIIIIIIIIIIIIII",
"IIIIIIIIIIIIIIIIIIIIIIIIIIIIIIIIIIII",
"IIIIIIIIIIIIIIIIIIIIIIIIIIIIIIIIIIII",
"IIIIIIIIIIIIIIIIIIIIIIIIIIIIIIIIIIII",
"IIIIIIIIIIIIIIIIIIIIIIIIIIIIIIIIIIII",
"IIIIIIIIIIIIIIIIIIIIIIIIIIIIIIIIIIII",
"IIIIIIIIIIIIIIIIIIIIIIIIIIIIIIIIIIII",
"IIIIIIIIIIIIIIIIIIIIIIIIIIIIIIIIIIII",
"IIIIIIIIIIIIIIIIIIIIIIIIIIIIIIIIIIII",
"IIIIIIIIIIIIIIIIIIIIIIIIIIIIIIIIIIII",
"IIIIIIIIIIIIIIIIIIIIIIIIIIIIIIIIIIII",
"IIIIIIIIIIIIIIIIIIIIIIIIIIIIIIIIIIII"
};
