/* XPM */
static char *empty-0-LB-95[] = {
/* columns rows colors chars-per-pixel */
"36 36 117 2",
"   c #000700050002",
".  c #011100D20056",
"X  c #01AC014A0087",
"o  c #024401C000B8",
"O  c #05AF046301CB",
"+  c #0706056C0238",
"@  c #075005A5024F",
"#  c #08AE06B402BE",
"$  c #09C7078D0316",
"%  c #0ACD08570369",
"&  c #0B9008ED03A6",
"*  c #0BB9090C03B4",
"=  c #0C71099B03EE",
"-  c #0E060AD4046E",
";  c #0E110ADC0471",
":  c #10420C8C0522",
">  c #12650E3305CF",
",  c #1576109206C7",
"<  c #186D12DB07B7",
"1  c #18E8133A07DE",
"2  c #1BA7155808BC",
"3  c #1C2115B608E2",
"4  c #1CE3164D091F",
"5  c #1EC117BD09B6",
"6  c #1FA1186A09FD",
"7  c #20D8195B0A5F",
"8  c #219C19F10A9D",
"9  c #222E1A620ACB",
"0  c #23851B6B0B37",
"q  c #242A1BEB0B6C",
"w  c #25931D010BDE",
"e  c #26F31E110C4D",
"r  c #2ABF20FF0D80",
"t  c #2BF821F10DE3",
"y  c #2EAB24060EBC",
"u  c #30C025A10F65",
"i  c #32D6273E100E",
"p  c #351128F610C2",
"a  c #3DAA2F9A1379",
"s  c #3ECD307A13D5",
"d  c #3FE93156142E",
"f  c #408331CC145F",
"g  c #41AF32B414BE",
"h  c #46E436B91663",
"j  c #48C9383016FC",
"k  c #498F38C9173B",
"l  c #4A7339791783",
"z  c #4C363AD51811",
"x  c #555341DD1AF2",
"c  c #580643F31BCC",
"v  c #587B444D1BF1",
"b  c #5CF947C51D5C",
"n  c #5DAE48501D95",
"m  c #5EB249191DE8",
"M  c #611B4AF51EAA",
"N  c #63144C7B1F4A",
"B  c #65554E382000",
"V  c #65704E4E2008",
"C  c #66184ECF203D",
"Z  c #676E4FD720A9",
"A  c #696E5162214B",
"S  c #6D5054612285",
"D  c #77D65C8125D8",
"F  c #79335D8F2646",
"G  c #7F17621A2822",
"H  c #80F8638E28BA",
"J  c #82276478291A",
"K  c #85F267662A4D",
"L  c #868B67DB2A7D",
"P  c #87C568CE2AE0",
"I  c #8E6D6DF12CFA",
"U  c #905E6F712D97",
"Y  c #96B474552F97",
"T  c #994B76553069",
"R  c #9E267A1431F1",
"E  c #A29A7D843359",
"W  c #A6938096349A",
"Q  c #A76A813B34DE",
"!  c #A82B81D0351B",
"~  c #A92D8297356C",
"^  c #AB9684743630",
"/  c #ABD384A33642",
"(  c #AEC486E83730",
")  c #AF88877F376E",
"_  c #B096885037C4",
"`  c #B4E08BA0391E",
"'  c #B5758C13394D",
"]  c #B6B88D0C39B3",
"[  c #B87B8E683A42",
"{  c #B92E8EF23A7A",
"}  c #BD4092163BC3",
"|  c #C154953C3D0D",
" . c #C31596983D9B",
".. c #C45B97923E02",
"X. c #C6EE998F3ED2",
"o. c #C7ED9A543F23",
"O. c #C8A29AE03F5B",
"+. c #CC809DDC4095",
"@. c #CD0C9E4840C0",
"#. c #CD869EA740E7",
"$. c #CEAE9F8B4144",
"%. c #D002A09241B0",
"&. c #D05DA0D741CC",
"*. c #D0E2A13E41F6",
"=. c #D553A4AC435E",
"-. c #D5E6A51D438C",
";. c #D92BA7A44494",
":. c #D969A7D344A8",
">. c #DA95A8BB4506",
",. c #DBB6A99B4562",
"<. c #DE3CAB8C462E",
"1. c #E2CAAF11479E",
"2. c #E420B019480A",
"3. c #E544B0FA4866",
"4. c #E687B1F348CC",
"5. c #E752B290490C",
"6. c #E79DB2CA4924",
/* pixels */
"6.6.6.6.6.6.6.6.6.6.6.6.6.6.6.6.6.6.6.6.6.6.6.6.6.6.6.6.6.6.6.6.6.6.6.6.",
"6.6.6.6.6.6.6.6.6.6.6.6.6.6.6.6.6.6.6.6.6.6.6.6.6.6.6.6.6.6.6.6.6.6.6.6.",
"6.6.6.6.6.6.6.6.6.6.6.6.6.6.6.6.6.6.6.6.6.6.6.6.6.6.6.6.6.6.6.6.6.6.6.6.",
"6.6.6.6.6.6.6.6.6.6.6.6.6.6.6.6.6.6.6.6.6.6.6.6.6.6.6.6.6.6.6.6.6.6.6.6.",
"6.6.6.6.6.6.6.6.6.6.6.6.6.6.6.6.6.6.6.6.6.6.6.6.6.6.6.6.6.6.6.6.6.6.6.6.",
"6.6.6.6.6.6.6.6.6.6.6.6.6.6.6.6.6.6.6.6.6.6.6.6.6.6.6.6.6.6.6.6.6.6.6.6.",
"6.6.6.6.6.6.6.6.6.6.6.6.6.6.6.6.6.6.6.6.6.6.6.6.6.6.6.6.6.6.6.6.6.6.6.6.",
"6.6.6.6.6.6.6.6.6.6.6.6.6.6.6.6.6.6.6.6.6.6.6.6.6.6.6.6.6.6.6.6.6.6.6.6.",
"6.6.6.6.6.6.6.6.6.6.6.6.6.6.6.6.6.6.6.6.6.6.6.6.6.6.6.6.6.6.6.6.6.6.6.6.",
"6.6.6.6.6.6.6.6.6.>.~ D F ) 6.6.6.6.6.C B B C C B N B <.6.6.6.6.6.6.6.6.",
"6.6.6.6.6.6.6.6.I       %   ; &.6.6.$.                $.6.6.6.6.6.6.6.6.",
"6.6.6.6.6.6.6.Q     :       8 % 2.6.R   :             $.6.6.6.6.6.6.6.6.",
"6.6.6.6.6.6.6.%   2 x &.o.=     E 6.S   % E | | | | | 6.6.6.6.6.6.6.6.6.",
"6.6.6.6.6.6.6.  %   >.6.6.~   i h 6.g     | 6.6.6.6.6.6.6.6.6.6.6.6.6.6.",
"6.6.6.6.6.6.6.  1   6.6.6.+.  r   6.2     b r k J &.6.6.6.6.6.6.6.6.6.6.",
"6.6.6.6.6.6.6.      ] 6.6.B   6   6.  +         :   G 6.6.6.6.6.6.6.6.6.",
"6.6.6.6.6.6.6.M   6   k e     2   6.  +   8 m 2   $   ] 6.6.6.6.6.6.6.6.",
"6.6.6.6.6.6.6.6.p       %     w   6.a g J 6.6.6.v   y g 6.6.6.6.6.6.6.6.",
"6.6.6.6.6.6.6.6.6.) b 8 k Y   u r 6.6.6.6.6.6.6.O.  6   6.6.6.6.6.6.6.6.",
"6.6.6.6.6.6.6.2     $.6.6.k   8 F F     Y 6.6.6._   8 , 6.6.6.6.6.6.6.6.",
"6.6.6.6.6.6.6.g   2 b &.)   +   o.^   8   ] >.| :   8 N 6.6.6.6.6.6.6.6.",
"6.6.6.6.6.6.6.{     ;       + b 6.6.,   :         <   ;.6.6.6.6.6.6.6.6.",
"6.6.6.6.6.6.6.6.P       =   b 6.6.6.>.w       +   2 } 6.6.6.6.6.6.6.6.6.",
"6.6.6.6.6.6.6.6.6.-.T A K o.6.6.6.6.6.6.o.K A I ] 6.6.6.6.6.6.6.6.6.6.6.",
"6.6.6.6.6.6.6.6.6.6.6.6.6.6.6.6.6.6.6.6.6.6.6.6.6.6.6.6.6.6.6.6.6.6.6.6.",
"6.6.6.6.6.6.6.6.6.6.6.6.6.6.6.6.6.6.6.6.6.6.6.6.6.6.6.6.6.6.6.6.6.6.6.6.",
"6.6.6.6.6.6.6.6.6.6.6.6.6.6.6.6.6.6.6.6.6.6.6.6.6.6.6.6.6.6.6.6.6.6.6.6.",
"6.6.6.6.6.6.6.6.6.6.6.6.6.6.6.6.6.6.6.6.6.6.6.6.6.6.6.6.6.6.6.6.6.6.6.6.",
"6.6.6.6.6.6.6.6.6.6.6.6.6.6.6.6.6.6.6.6.6.6.6.6.6.6.6.6.6.6.6.6.6.6.6.6.",
"6.6.6.6.6.6.6.6.6.6.6.6.6.6.6.6.6.6.6.6.6.6.6.6.6.6.6.6.6.6.6.6.6.6.6.6.",
"6.6.6.6.6.6.6.6.6.6.6.6.6.6.6.6.6.6.6.6.6.6.6.6.6.6.6.6.6.6.6.6.6.6.6.6.",
"6.6.6.6.6.6.6.6.6.6.6.6.6.6.6.6.6.6.6.6.6.6.6.6.6.6.6.6.6.6.6.6.6.6.6.6.",
"6.6.6.6.6.6.6.6.6.6.6.6.6.6.6.6.6.6.6.6.6.6.6.6.6.6.6.6.6.6.6.6.6.6.6.6.",
"6.6.6.6.6.6.6.6.6.6.6.6.6.6.6.6.6.6.6.6.6.6.6.6.6.6.6.6.6.6.6.6.6.6.6.6.",
"6.6.6.6.6.6.6.6.6.6.6.6.6.6.6.6.6.6.6.6.6.6.6.6.6.6.6.6.6.6.6.6.6.6.6.6.",
"6.6.6.6.6.6.6.6.6.6.6.6.6.6.6.6.6.6.6.6.6.6.6.6.6.6.6.6.6.6.6.6.6.6.6.6."
};
