/* XPM */
static char *wmoku-0-LB-315[] = {
/* columns rows colors chars-per-pixel */
"36 36 116 2",
"   c #000D000D000D",
".  c #019D019D019D",
"X  c #026F026F026F",
"o  c #037503750375",
"O  c #048B048B048B",
"+  c #059705970597",
"@  c #062906290629",
"#  c #0E270E270E27",
"$  c #16DB16DB16DB",
"%  c #1B2A1B2A1B2A",
"&  c #1DDB1DDB1DDB",
"*  c #1F681F681F68",
"=  c #238A238A238A",
"-  c #256F256F256F",
";  c #271B271B271B",
":  c #29F629F629F6",
">  c #2F4C2F4C2F4C",
",  c #31EE31EE31EE",
"<  c #394539453945",
"1  c #3A943A943A94",
"2  c #3C993C993C99",
"3  c #3ECD3ECD3ECD",
"4  c #400E400E400E",
"5  c #431A431A431A",
"6  c #470E470E470E",
"7  c #4E2F4E2F4E2F",
"8  c #4FFF4FFF4FFF",
"9  c #517251725172",
"0  c #52EE52EE52EE",
"q  c #538E538E538E",
"w  c #56FF56FF56FF",
"e  c #5ADC5ADC5ADC",
"r  c #5BF15BF15BF1",
"t  c #5DAE5DAE5DAE",
"y  c #5E635E635E63",
"u  c #5FE65FE65FE6",
"i  c #61C761C761C7",
"p  c #632463246324",
"a  c #654C654C654C",
"s  c #674867486748",
"d  c #691269126912",
"f  c #6A556A556A55",
"g  c #6D026D026D02",
"h  c #711971197119",
"j  c #722C722C722C",
"k  c #762876287628",
"l  c #768E768E768E",
"z  c #791379137913",
"x  c #7FC07FC07FC0",
"c  c #88C069902B2F",
"v  c #ACC2855B368E",
"b  c #B8228E233A26",
"n  c #E460B04A481E",
"m  c #E79DB2CA4924",
"M  c #80E780E780E7",
"N  c #841684168416",
"B  c #861186118611",
"V  c #86B186B186B1",
"C  c #884488448844",
"Z  c #88F688F688F6",
"A  c #89F389F389F3",
"S  c #8B6D8B6D8B6D",
"D  c #8BF38BF38BF3",
"F  c #8D168D168D16",
"G  c #8DC38DC38DC3",
"H  c #8F328F328F32",
"J  c #8FCE8FCE8FCE",
"K  c #90E690E690E6",
"L  c #920992099209",
"P  c #949E949E949E",
"I  c #95F895F895F8",
"U  c #973497349734",
"Y  c #983298329832",
"T  c #99B899B899B8",
"R  c #9C879C879C87",
"E  c #9E9D9E9D9E9D",
"W  c #9F1D9F1D9F1D",
"Q  c #A243A243A243",
"!  c #A324A324A324",
"~  c #A5A4A5A4A5A4",
"^  c #A776A776A776",
"/  c #A93BA93BA93B",
"(  c #AA5BAA5BAA5B",
")  c #AC21AC21AC21",
"_  c #AD51AD51AD51",
"`  c #AEBCAEBCAEBC",
"'  c #B152B152B152",
"]  c #B1D2B1D2B1D2",
"[  c #B3D3B3D3B3D3",
"{  c #B4EDB4EDB4ED",
"}  c #B5F7B5F7B5F7",
"|  c #B6DAB6DAB6DA",
" . c #B838B838B838",
".. c #B8FFB8FFB8FF",
"X. c #BA71BA71BA71",
"o. c #BB29BB29BB29",
"O. c #BD2DBD2DBD2D",
"+. c #BE38BE38BE38",
"@. c #BEFBBEFBBEFB",
"#. c #C138C138C138",
"$. c #C31DC31DC31D",
"%. c #C658C658C658",
"&. c #C71BC71BC71B",
"*. c #C82FC82FC82F",
"=. c #C97AC97AC97A",
"-. c #CBD2CBD2CBD2",
";. c #CE64CE64CE64",
":. c #CF3CCF3CCF3C",
">. c #D35CD35CD35C",
",. c #D674D674D674",
"<. c #D75CD75CD75C",
"1. c #DF7DDF7DDF7D",
"2. c #E57DE57DE57D",
"3. c #E79DE79DE79D",
"4. c #EEA9EEA9EEA9",
"5. c #EFBEEFBEEFBE",
/* pixels */
"m m m m m m m m m m m m m m m m m o o n m m m m m m m m m m m m m m m m ",
"m m m m m m m m m m m m m m m m m o o n m m m m m m m m m m m m m m m m ",
"m m m m m m m m m m m m m m :.:.&.&.&.:.<.:.m m m m m m m m m m m m m m ",
"m m m m m m m m m m m :.&.:.:.:.:.:.:.,.<.<.<.:.<.m m m m m m m m m m m ",
"m m m m m m m m m :.&.:.:.:.:.:.:.:.<.<.<.<.<.<.<.:.:.m m m m m m m m m ",
"m m m m m m m m :.&.&.:.:.:.:.:.:.,.<.<.1.1.1.1.<.<.:.:.m m m m m m m m ",
"m m m m m m m :.&.&.&.&.:.:.:.:.:.,.<.1.1.1.1.1.1.1.<.<.:.m m m m m m m ",
"m m m m m m :.&.&.&.&.&.:.:.:.:.,.,.1.1.1.3.3.3.3.1.1.<.<.:.m m m m m m ",
"m m m m m :.&.&.&.&.&.&.&.:.:.:.,.,.1.1.3.3.3.3.3.3.1.1.1.,.:.m m m m m ",
"m m m m &.H g d H +.&.&.&.:.:.:.<.a i +.3.5.5.` d a a r i i r V m m m m ",
"m m m b o o o o o o H &.&.:.:.:...o + I 3.5.4.e o o o o o o o 2 m m m m ",
"m m n o o o o o o o o | &.:.+.Q & + + I 3.5.4.& o o o o o o o 2 :.m m m ",
"m m v o o o ` _ # o o V &.r o o o o o I 3.5.4.o o o &.#.| ..` &.<.m m m ",
"m m c o o g +.+.g o o e &.e o o o o + H 3.5.3.o o - 3.3.1.1.,.,.<.m m m ",
"m m w o o x +.+.r o o k &.` T W e o + J 3.3.*.o o e 2 - r T ,.<.:.&.m m ",
"m m | | | I % + o o o _ &.&.*.:.e o + J 1.3._ o o o o o o o $ &.:.&.m n ",
"m m | | | A o o o o - ^ &.&.&.&.e o o A 1.1.V + + o 7 5 o o o : :.&.n n ",
"o o _ ..| Q 7 2 o o o o ..&.&.&.w o + A ,.,.I 1 1 &.1.<.*.o o o [ &.o o ",
"o o l 6 6 H | | ` - o o J *.&.&.w o + V :.,.,.,.,.,.<.<.,.6 o o Z &.o o ",
"n n q o + r | | | 1 o o V +.&.&.w o + V :.:.o o o :.<.<.:.- o o R &.n m ",
"n m l o o o J ^ V o o o ^ +.+.&.w o + V :.:.- o o r ....l o o o ..&.m m ",
"m m ^ o o o o o o o o > +.#.+.#.q o + M &.:.W o o o o o o o o d &.&.m m ",
"m m n H o o o o o o > ^ +.+.+.+.q o o x &.&.&.A o o o o o o a :.*.m m m ",
"m m m _ ^ M e q h I | | | +.#.+.V q w Q &.&.&.&...H a a A ..:.:.:.m m m ",
"m m m ` ` ` ` ` ` ` ..| | | +.#.+.+.+.+.&.&.&.&.&.&.&.&.&.:.:.:.:.m m m ",
"m m m m ` _ ` ` ` ` _ | | | | | +.#.+.#.+.&.&.&.&.&.&.&.&.:.:.:.m m m m ",
"m m m m | ` ` ` ` ` _ ..| | | | ..+.+.+.#.+.+.+.+.+.*.&.&.:.:.:.m m m m ",
"m m m m m ` ` ` ` ` ` ` _ ..| | | | +.#.+.+.#.+.+.+.&.&.:.:.:.m m m m m ",
"m m m m m m ` ` ` ` ` ` ` ` | ..| | | | | | | +.#.+.&.&.:.:.m m m m m m ",
"m m m m m m m ` ` ` ` ` ` _ _ ` _ ..| | | | | | +.+.&.&.:.m m m m m m m ",
"m m m m m m m m ` ` ` ` ` ` ` ` ` ` _ | | | | | +.+.&.&.m m m m m m m m ",
"m m m m m m m m m ` ` ` ` ` ` ` ` ` ` _ | | | | +.#.&.m m m m m m m m m ",
"m m m m m m m m m m m ` ` ` ` ` _ _ ` ` ` | | @.| m m m m m m m m m m m ",
"m m m m m m m m m m m m m m ` ` _ _ ` ` | | m m m m m m m m m m m m m m ",
"m m m m m m m m m m m m m m m m n o o m m m m m m m m m m m m m m m m m ",
"m m m m m m m m m m m m m m m m n o o m m m m m m m m m m m m m m m m m "
};
