/* XPM */
static char *wmoku-0-LB-151[] = {
/* columns rows colors chars-per-pixel */
"36 36 96 2",
"   c #000700070007",
".  c #019E019E019E",
"X  c #027202720272",
"o  c #037A037A037A",
"O  c #04C604C604C6",
"+  c #057205720572",
"@  c #061D061D061D",
"#  c #17B817B817B8",
"$  c #1B611B611B61",
"%  c #201C201C201C",
"&  c #205720572057",
"*  c #245C245C245C",
"=  c #26CB26CB26CB",
"-  c #29CA29CA29CA",
";  c #2D4B2D4B2D4B",
":  c #343034303430",
">  c #35FC35FC35FC",
",  c #389538953895",
"<  c #3E383E383E38",
"1  c #442544254425",
"2  c #456E456E456E",
"3  c #473447344734",
"4  c #487F487F487F",
"5  c #4C714C714C71",
"6  c #4ED64ED64ED6",
"7  c #4FFF4FFF4FFF",
"8  c #538E538E538E",
"9  c #571C571C571C",
"0  c #5AAA5AAA5AAA",
"q  c #5BBE5BBE5BBE",
"w  c #5C815C815C81",
"e  c #5E105E105E10",
"r  c #611861186118",
"t  c #61C761C761C7",
"y  c #631163116311",
"u  c #655565556555",
"i  c #662966296629",
"p  c #66E266E266E2",
"a  c #6E706E706E70",
"s  c #708070807080",
"d  c #718A718A718A",
"f  c #744774477447",
"g  c #766476647664",
"h  c #793079307930",
"j  c #7B3B7B3B7B3B",
"k  c #7BA77BA77BA7",
"l  c #E79DB2CA4924",
"z  c #810381038103",
"x  c #836083608360",
"c  c #862A862A862A",
"v  c #89F089F089F0",
"b  c #8B6D8B6D8B6D",
"n  c #8C6C8C6C8C6C",
"m  c #8D0B8D0B8D0B",
"M  c #90B090B090B0",
"N  c #922C922C922C",
"B  c #92A292A292A2",
"V  c #953695369536",
"C  c #95D495D495D4",
"Z  c #981598159815",
"A  c #998C998C998C",
"S  c #99B899B899B8",
"D  c #9AA59AA59AA5",
"F  c #9F259F259F25",
"G  c #A308A308A308",
"H  c #AA2FAA2FAA2F",
"J  c #AC0DAC0DAC0D",
"K  c #AEBBAEBBAEBB",
"L  c #B152B152B152",
"P  c #B1F3B1F3B1F3",
"I  c #B37BB37BB37B",
"U  c #B3EFB3EFB3EF",
"Y  c #B574B574B574",
"T  c #B6DDB6DDB6DD",
"R  c #B978B978B978",
"E  c #BA9DBA9DBA9D",
"W  c #BE97BE97BE97",
"Q  c #BEFEBEFEBEFE",
"!  c #C08DC08DC08D",
"~  c #C166C166C166",
"^  c #C20EC20EC20E",
"/  c #C343C343C343",
"(  c #C626C626C626",
")  c #C71BC71BC71B",
"_  c #C823C823C823",
"`  c #CE9CCE9CCE9C",
"'  c #CF3CCF3CCF3C",
"]  c #D550D550D550",
"[  c #D61DD61DD61D",
"{  c #D75CD75CD75C",
"}  c #D935D935D935",
"|  c #DE93DE93DE93",
" . c #DF7BDF7BDF7B",
".. c #E6A4E6A4E6A4",
"X. c #E79CE79CE79C",
"o. c #EFAFEFAFEFAF",
/* pixels */
"l l l l l l l l l l l l l l l l l     l l l l l l l l l l l l l l l l l ",
"l l l l l l l l l l l l l l l l l     l l l l l l l l l l l l l l l l l ",
"l l l l l l l l l l l l l l ' ' ) ) ) ' { ' l l l l l l l l l l l l l l ",
"l l l l l l l l l l l ' ) ' ' ' ' ' ' { { { { ' { l l l l l l l l l l l ",
"l l l l l l l l l ' ) ' ' ' ' ' ' ' { { { { { { { ' ' l l l l l l l l l ",
"l l l l l l l l ' ) ) ' ' ' ' ' ' { { {  . . . .{ { ' ' l l l l l l l l ",
"l l l l l l l ' ) ) ) ) ' ' ' ' ' { {  . . . . . . .{ { ' l l l l l l l ",
"l l l l l l ' ) ) ) ) ) ' ' ' ' { {  . . .X.X.X.X. . .{ { ' l l l l l l ",
"l l l l l ' ) ) ) _ _ _ ) ' ' ' { {  . .X.X.X.X.X.X. . . .{ ' l l l l l ",
"l l l l ' ) ) q 9 F ) ) ) S q q w w t p p S o.o.o.X.X.p t T { ' l l l l ",
"l l l l ' ) J   @ z ) ) ) 7               2 o.o.o.o._   @ m { { l l l l ",
"l l l ' E F $ @ @ z ) ) ) $               2 o.o. .Q & @ @ B { { ' l l l ",
"l l l w         @ j ) ) )       T L Q ! Q { o.s     @   @ B { { { l l l ",
"l l l q         @ j ) ) Q     & { {  . .X.o.o.a         @ B { { { l l l ",
"l l T H B B 8   @ k ! ) J     8 , * w S X.X.X.{ T L t   @ B { { ' ) l l ",
"l l T T T T 7     k Q Q S     @         # { X.X.X.X.p   @ v { { ' ) l l ",
"l l T T T T 7   @ k Q Q j @ @   4 <   @   ;  .X.X. .t   @ v { ' ' ) l l ",
"    J T T T 7   @ j Q Q k : > L ' ' !       )  . . .t   @ m ' ' ' )     ",
"    J L J L 7   @ j Q Q ! ) _ _ ) ' ' 2   @ V { { { w   @ m ' ' ) )     ",
"l l L J L J 8   @ g Q Q       ! ) ) ' -     F { { { w   @ c ' ' ) ) l l ",
"l l L J L J 7     g Q Q *     w L T g       ! ' ' ' q   @ c ' ' ) ) l l ",
"l l J L L J 4   @ g T Q V     @           s ' ' ' ' q   @ c ' ) ) ) l l ",
"l l l L J L 7   @ g T T Q z             p ) ) ) ' ' q   @ c ' ' ) l l l ",
"l l l J J J j 4 7 V T T T Q T v p t m L ) ) ) ) ) ) v 9 9 H ' ' ' l l l ",
"l l l L J L J L J L T T T T Q Q Q Q Q Q ) ) ) ) ) ) ) ) ) ' ' ' ' l l l ",
"l l l l L J L J L J J E T T T T Q Q Q Q Q ) ) ) ) ) ) ) ) ' ' ' l l l l ",
"l l l l T L J L J L J T T T T T T Q Q Q Q Q Q Q Q Q ) ) ) ' ' ' l l l l ",
"l l l l l J L J L J L L J T T T T T Q Q Q Q Q Q Q Q ) ) ' ' ' l l l l l ",
"l l l l l l J L J L L J L J T T T T T T T T T Q Q Q ) ) ' ' l l l l l l ",
"l l l l l l l J L J J L J L J L J T T T T T T T Q Q ) ) ' l l l l l l l ",
"l l l l l l l l J L L J L J L J L J J E T T T T Q Q ) ) l l l l l l l l ",
"l l l l l l l l l L J L J L J L J L J J T T T T Q Q ) l l l l l l l l l ",
"l l l l l l l l l l l L J L J L J L J L J E T Q T l l l l l l l l l l l ",
"l l l l l l l l l l l l l l L J L J L J T T l l l l l l l l l l l l l l ",
"l l l l l l l l l l l l l l l l l     l l l l l l l l l l l l l l l l l ",
"l l l l l l l l l l l l l l l l l     l l l l l l l l l l l l l l l l l "
};
