/* XPM */
static char *wmoku-0-LB-197[] = {
/* columns rows colors chars-per-pixel */
"36 36 101 2",
"   c #000A000A000A",
".  c #018D018D018D",
"X  c #02A202A202A2",
"o  c #038403840384",
"O  c #04C104C104C1",
"+  c #054705470547",
"@  c #062306230623",
"#  c #112611261126",
"$  c #19F819F819F8",
"%  c #1B9C1B9C1B9C",
"&  c #1DE41DE41DE4",
"*  c #23E223E223E2",
"=  c #248E248E248E",
"-  c #28BE28BE28BE",
";  c #2C292C292C29",
":  c #312331233123",
">  c #339033903390",
",  c #396039603960",
"<  c #3C893C893C89",
"1  c #40CA40CA40CA",
"2  c #466E466E466E",
"3  c #4C7F4C7F4C7F",
"4  c #4FDC4FDC4FDC",
"5  c #51A451A451A4",
"6  c #538E538E538E",
"7  c #563056305630",
"8  c #571C571C571C",
"9  c #59B359B359B3",
"0  c #5AAA5AAA5AAA",
"q  c #5BAE5BAE5BAE",
"w  c #5DBB5DBB5DBB",
"e  c #5FF55FF55FF5",
"r  c #61CA61CA61CA",
"t  c #645D645D645D",
"y  c #655565556555",
"u  c #68E368E368E3",
"i  c #6B1A6B1A6B1A",
"p  c #6BB76BB76BB7",
"a  c #73E773E773E7",
"s  c #766476647664",
"d  c #78D378D378D3",
"f  c #7AF77AF77AF7",
"g  c #7BA77BA77BA7",
"h  c #7FFB7FFB7FFB",
"j  c #8D246CF32C92",
"k  c #B8CB8EA63A5B",
"l  c #E79DB2CA4924",
"z  c #80EA80EA80EA",
"x  c #83CC83CC83CC",
"c  c #853885388538",
"v  c #880688068806",
"b  c #8D2E8D2E8D2E",
"n  c #8F938F938F93",
"m  c #90E690E690E6",
"M  c #922592259225",
"N  c #94C394C394C3",
"B  c #95D495D495D4",
"V  c #994C994C994C",
"C  c #9AAD9AAD9AAD",
"Z  c #9C019C019C01",
"A  c #9D979D979D97",
"S  c #9E219E219E21",
"D  c #9F259F259F25",
"F  c #A043A043A043",
"G  c #A135A135A135",
"H  c #A1FAA1FAA1FA",
"J  c #A325A325A325",
"K  c gray66",
"L  c #AA4BAA4BAA4B",
"P  c #AC4DAC4DAC4D",
"I  c #AEBAAEBAAEBA",
"U  c #B0A0B0A0B0A0",
"Y  c #B3BBB3BBB3BB",
"T  c #B604B604B604",
"R  c #B6DBB6DBB6DB",
"E  c #B95EB95EB95E",
"W  c #BA9DBA9DBA9D",
"Q  c #BC66BC66BC66",
"!  c #BE71BE71BE71",
"~  c #BEFDBEFDBEFD",
"^  c #C166C166C166",
"/  c #C230C230C230",
"(  c #C2ECC2ECC2EC",
")  c #C530C530C530",
"_  c #C6ADC6ADC6AD",
"`  c #C71AC71AC71A",
"'  c #C83DC83DC83D",
"]  c #CB04CB04CB04",
"[  c #CD61CD61CD61",
"{  c #CE45CE45CE45",
"}  c #CF3CCF3CCF3C",
"|  c #D04CD04CD04C",
" . c #D1F1D1F1D1F1",
".. c #D408D408D408",
"X. c #D562D562D562",
"o. c #D64DD64DD64D",
"O. c #D75CD75CD75C",
"+. c #DF7DDF7DDF7D",
"@. c #E463E463E463",
"#. c #E79DE79DE79D",
"$. c #EFBEEFBEEFBE",
/* pixels */
"l l l l l l l l l l l l l l l l l     l l l l l l l l l l l l l l l l l ",
"l l l l l l l l l l l l l l l l l     l l l l l l l l l l l l l l l l l ",
"l l l l l l l l l l l l l l } } ` ` ` } O.} l l l l l l l l l l l l l l ",
"l l l l l l l l l l l } ` } } } } } } O.O.O.O.} O.l l l l l l l l l l l ",
"l l l l l l l l l } ` } } } } } } } O.O.O.O.O.O.O.} } l l l l l l l l l ",
"l l l l l l l l } ` ` } } } } } } O.O.O.+.+.+.+.O.O.} } l l l l l l l l ",
"l l l l l l l } ` ` ` ` } } } } } O.O.+.+.+.+.+.+.+.O.O.} l l l l l l l ",
"l l l l l l } ` ` ` ` ` } } } } O.O.+.+.+.#.#.#.#.+.+.O.O.} l l l l l l ",
"l l l l l } ` ` ` ` ` ` ` } } } O.O.+.+.#.#.#.#.#.#.+.+.+.O. .l l l l l ",
"l l l l } ` ` q 8 J ` ` `  .} L v r z } #.$.M u u t t r r r w q k l l l ",
"l l l l } ` P   @ z ` ` ` ~ <       @   s $.>                 @ j l l l ",
"l l l } E S & @ @ z ` ` ` , @             L >                   g l l l ",
"l l l w         @ f ` ` J       J ' c       O.` ' ' ' ~ E   @ = O.l l l ",
"l l l q         @ f ` ` f   @ w O.O.+.=     O.$.$.$.#.#.#     ~ O.l l l ",
"l l R L M M 6   @ g ~ ' t   @ f } O.O.6     P $.$.#.#.g     M O.} ` l l ",
"l l R R R R 4     g ~ ~ M     - } } }     @ S #.#.#. .    $ O.O.} ` l l ",
"l l R R R R 4   @ f ~ ~ ~       & 4       @ B #.#.+.4 @   P O.} } ` l l ",
"    P R R R 6   @ f ~ ~ ~ V         @       J +.+.`     = O.} } } `     ",
"    Y P P P 4   @ f ~ ~ ~ ' ~ s , - p =     Y O.O.w @   J O.} } ` `     ",
"l l P P Y P 4   @ s ~ ~ S     1 ' ` `       ` O. .      ' } } } ` ` l l ",
"l l Y P P P 4     s ~ ~ R       S Y 1   @ < } } J     4 } } } } ` ` l l ",
"l l Y P Y P 4   @ s R ~ ~ 2               E } } 8     V } } } ` ` ` l l ",
"l l l P Y P 3   @ s R R ~ E =           V ` ` `       ~ } } } } ` l l l ",
"l l l P P P f 3 4 B R R R ~ ~ M p r b ~ ` ` ` ` q q q ` ` } } } } l l l ",
"l l l Y P P P Y P P E R R R ~ ~ ~ ~ ~ ~ ` ` ` ` ` ` ` ` ` } } } } l l l ",
"l l l l P Y P P Y P P E R R R R ~ ~ ~ ~ ~ ` ` ` ` ` ` ` ` } } } l l l l ",
"l l l l E P Y P Y P P E R R R R R ~ ~ ~ ~ ~ ~ ~ ~ ~ ` ` ` } } } l l l l ",
"l l l l l Y P P P P Y P P R R R R R ~ ~ ~ ~ ~ ~ ~ ~ ` ` } } } l l l l l ",
"l l l l l l P P P Y P P P P R E R R R R R R R ~ ~ ~ ` ` } } l l l l l l ",
"l l l l l l l Y P Y P Y Y Y P P P R R R R R R R ~ ~ ` ` } l l l l l l l ",
"l l l l l l l l P P P Y P P Y P P P P E R R R R ~ ~ ` ` l l l l l l l l ",
"l l l l l l l l l Y P P P Y P P Y Y P P R R R R ~ ~ ` l l l l l l l l l ",
"l l l l l l l l l l l P P Y P P P P Y Y P R R ~ R l l l l l l l l l l l ",
"l l l l l l l l l l l l l l P Y Y P P P R R l l l l l l l l l l l l l l ",
"l l l l l l l l l l l l l l l l l     l l l l l l l l l l l l l l l l l ",
"l l l l l l l l l l l l l l l l l     l l l l l l l l l l l l l l l l l "
};
