/* XPM */
static char *wmoku-0-LB-310[] = {
/* columns rows colors chars-per-pixel */
"36 36 115 2",
"   c #000900090009",
".  c #019601960196",
"X  c #026402640264",
"o  c #036D036D036D",
"O  c #049304930493",
"+  c #059B059B059B",
"@  c #061D061D061D",
"#  c #086208620862",
"$  c #0E270E270E27",
"%  c #152E152E152E",
"&  c #1B2A1B2A1B2A",
"*  c #1DDB1DDB1DDB",
"=  c #238A238A238A",
"-  c #258725872587",
";  c #265126512651",
":  c #2EDF2EDF2EDF",
">  c #2F4C2F4C2F4C",
",  c #31EE31EE31EE",
"<  c #394539453945",
"1  c #402740274027",
"2  c #42EE42EE42EE",
"3  c #472C472C472C",
"4  c #4FFF4FFF4FFF",
"5  c #517251725172",
"6  c #52EE52EE52EE",
"7  c #538E538E538E",
"8  c #56FF56FF56FF",
"9  c #58E958E958E9",
"0  c #5ACA5ACA5ACA",
"q  c #5BF95BF95BF9",
"w  c #5DC65DC65DC6",
"e  c #5E635E635E63",
"r  c #601D601D601D",
"t  c #613361336133",
"y  c #61C761C761C7",
"u  c #632463246324",
"i  c #638963896389",
"p  c #671567156715",
"a  c #694269426942",
"s  c #6B2A6B2A6B2A",
"d  c #6CF06CF06CF0",
"f  c #711971197119",
"g  c #722C722C722C",
"h  c #756275627562",
"j  c #761976197619",
"k  c #768E768E768E",
"l  c #792179217921",
"z  c #7C427C427C42",
"x  c #7E657E657E65",
"c  c #7FCB7FCB7FCB",
"v  c #88C069902B2F",
"b  c #ACC2855B368E",
"n  c #B8228E233A26",
"m  c #E460B04A481E",
"M  c #E79DB2CA4924",
"N  c #80CD80CD80CD",
"B  c #831A831A831A",
"V  c #842084208420",
"C  c #862A862A862A",
"Z  c #86F986F986F9",
"A  c #881488148814",
"S  c #8A878A878A87",
"D  c #8B6D8B6D8B6D",
"F  c #8BF38BF38BF3",
"G  c #8D218D218D21",
"H  c #8E228E228E22",
"J  c #8F268F268F26",
"K  c #8FEC8FEC8FEC",
"L  c #90E790E790E7",
"P  c #922B922B922B",
"I  c #933B933B933B",
"U  c #93BD93BD93BD",
"Y  c #949E949E949E",
"T  c #95F895F895F8",
"R  c #983298329832",
"E  c #9A8C9A8C9A8C",
"W  c #9C819C819C81",
"Q  c #9E9D9E9D9E9D",
"!  c #A243A243A243",
"~  c #A324A324A324",
"^  c #A481A481A481",
"/  c #A57EA57EA57E",
"(  c #A6A5A6A5A6A5",
")  c #A769A769A769",
"_  c #A93BA93BA93B",
"`  c #AA5BAA5BAA5B",
"'  c #AC21AC21AC21",
"]  c #AD51AD51AD51",
"[  c #AE9BAE9BAE9B",
"{  c #AEBCAEBCAEBC",
"}  c #B16AB16AB16A",
"|  c #B1D2B1D2B1D2",
" . c #B5F0B5F0B5F0",
".. c #B6DAB6DAB6DA",
"X. c #B838B838B838",
"o. c #B8C7B8C7B8C7",
"O. c #BA4DBA4DBA4D",
"+. c #BE38BE38BE38",
"@. c #BEFBBEFBBEFB",
"#. c #C10AC10AC10A",
"$. c #C1D5C1D5C1D5",
"%. c #C64FC64FC64F",
"&. c #C71BC71BC71B",
"*. c #C89AC89AC89A",
"=. c #C94AC94AC94A",
"-. c #CE6CCE6CCE6C",
";. c #CF3CCF3CCF3C",
":. c #D3D4D3D4D3D4",
">. c #D5FFD5FFD5FF",
",. c #D75AD75AD75A",
"<. c #DF7DDF7DDF7D",
"1. c #E6D6E6D6E6D6",
"2. c #E79DE79DE79D",
"3. c #EAEFEAEFEAEF",
"4. c #EFB3EFB3EFB3",
/* pixels */
"M M M M M M M M M M M M M M M M M o o m M M M M M M M M M M M M M M M M ",
"M M M M M M M M M M M M M M M M M o o m M M M M M M M M M M M M M M M M ",
"M M M M M M M M M M M M M M ;.;.&.&.&.;.,.;.M M M M M M M M M M M M M M ",
"M M M M M M M M M M M ;.&.;.;.;.;.;.;.>.,.,.,.;.,.M M M M M M M M M M M ",
"M M M M M M M M M ;.&.;.;.;.;.;.;.;.,.,.,.,.,.,.,.;.;.M M M M M M M M M ",
"M M M M M M M M ;.&.&.;.;.;.;.;.;.>.,.,.<.<.<.<.,.,.;.;.M M M M M M M M ",
"M M M M M M M ;.&.&.&.&.;.;.;.;.;.,.,.<.<.<.<.<.<.<.,.,.;.M M M M M M M ",
"M M M M M M ;.&.&.&.&.&.;.;.;.;.>.>.<.<.<.2.2.2.2.<.<.,.,.;.M M M M M M ",
"M M M M M ;.&.&.&.&.&.&.&.;.;.;.,.,.<.<.1.1.1.1.2.2.<.<.<.>.;.M M M M M ",
"M M M M &.J d a J @.&.&.&.;.;.;.,.i r @.1.4.4.4.4.&.N r V &.>.;.M M M M ",
"M M M n o o o o o o J &.&.;.;.;.O.o O R 2.4.4.4.p o o o o o x ,.M M M M ",
"M M M o o o o o o o o ..&.;.@.! * o O T 2.4.4.L o o o o o o o ( ;.M M M ",
"M M b o o o { { $ o o C &.w o o o o o T 2.4.2.o o o J >.0 o o % ,.M M M ",
"M M v o O d @.@.d o o 0 &.0 o o o o O J 2.4.&.o o o 1.2.>.o o o &.M M M ",
"M M 7 o o x @.@.w o o h &.} R Q 0 o O L 1.2.J o o r 1.1.<.= o o / &.M M ",
"M M ......T & O o o o { &.&.&.;.0 o O L <.1.h o $ x 1.<.<.1 o o L &.M m ",
"m m ......S o o o o - ) &.&.&.&.0 o o S <.<.r o O J <.<.<.w o o Z &.M m ",
"o o { ....Q 4 1 o o o o X.&.&.&.0 o O S ,.,.N o O x <.,.,.2 o o R &.o o ",
"o o l 3 3 J ....} = o o L &.&.&.7 o O C ;.>.L o o w >.,.>.= o o ( &.o o ",
"m m 6 o O w ......< o o V @.&.&.7 o O C ;.;.( o o o >.,.&.o o o  .&.m M ",
"M M h o o o L ( C o o o ( @.@.&.0 o O C ;.;.;.o o o S $.a o o : &.&.M M ",
"M M ( o o o o o o o o : @.@.@.@.7 o O N &.;.;.N o o o o o o o R &.&.M M ",
"M M m J o o o o o o : ) @.@.@.@.6 o o N &.&.&.&.g o o o o o L ;.&.M M M ",
"M M M { ) N 0 6 d T ..O...@.@.@.C 6 7 ( &.&.&.&.&.{ C 7 J O.;.;.;.M M M ",
"M M M { { { { { { { ........@.@.@.@.@.@.&.&.&.&.&.&.&.&.&.;.;.;.;.M M M ",
"M M M M { { { { { { { ..........@.@.@.@.@.&.&.&.&.&.&.&.&.;.;.;.M M M M ",
"M M M M ..{ { { { { { ............@.@.@.@.@.@.@.@.@.&.&.&.;.;.;.M M M M ",
"M M M M m { { { { { { { { ..........@.@.@.@.@.@.@.@.&.&.;.;.;.m M M M M ",
"M M M M M M { { { { { { { { ..................@.@.@.&.&.;.;.M M M M M M ",
"M M M M M M M { { { { { { { { { { ..............@.@.&.&.;.m M M M M M M ",
"M M M M M M M M { { { { { { { { { { { ..........@.@.&.&.M M M M M M M M ",
"M M M M M M M M M { { { { { { { { { { { ........@.@.&.M M M M M M M M M ",
"M M M M M M M M M M M { { { { { { { { { { ....@...M M M M M M M M M M M ",
"M M M M M M M M M M M M M M { { { ] { { ....M M M M M M M M M M M M M M ",
"M M M M M M M M M M M M M M M M m o o M m M M M M M M M M M M M M M M M ",
"M M M M M M M M M M M M M M M M m o o M M M M M M M M M M M M M M M M M "
};
