/* XPM */
static char *wmoku-0-LB-Z[] = {
/* columns rows colors chars-per-pixel */
"36 36 62 1",
"  c black",
". c #013801380138",
"X c #051305130513",
"o c #061C061C061C",
"O c #07D607D607D6",
"+ c #09B509B509B5",
"@ c #0BDC0BDC0BDC",
"# c #0EC40EC40EC4",
"$ c #170917091709",
"% c #1DA41DA41DA4",
"& c #1E261E261E26",
"* c #240024002400",
"= c #247624762476",
"- c #281428142814",
"; c #2ECC2ECC2ECC",
": c #34B234B234B2",
"> c #362136213621",
", c #376437643764",
"< c #3F673F673F67",
"1 c #4FFF4FFF4FFF",
"2 c #538E538E538E",
"3 c #571C571C571C",
"4 c #584558455845",
"5 c #5AB75AB75AB7",
"6 c #5E385E385E38",
"7 c #61C761C761C7",
"8 c #655565556555",
"9 c #6F1E6F1E6F1E",
"0 c #71CD71CD71CD",
"q c #761F761F761F",
"w c #77C277C277C2",
"e c #E79DB2CA4924",
"r c #855285528552",
"t c #8AE08AE08AE0",
"y c #A416A416A416",
"u c #A547A547A547",
"i c #AEBDAEBDAEBD",
"p c #B1ACB1ACB1AC",
"a c #B3A9B3A9B3A9",
"s c #B3EBB3EBB3EB",
"d c #B6DAB6DAB6DA",
"f c #B8EDB8EDB8ED",
"g c #BAFFBAFFBAFF",
"h c #BD59BD59BD59",
"j c #BDBEBDBEBDBE",
"k c #BEFBBEFBBEFB",
"l c #C01BC01BC01B",
"z c #C0FEC0FEC0FE",
"x c #C254C254C254",
"c c #C5F7C5F7C5F7",
"v c #C71BC71BC71B",
"b c #CF3CCF3CCF3C",
"n c #D12CD12CD12C",
"m c #D62BD62BD62B",
"M c #D75CD75CD75C",
"N c #D958D958D958",
"B c #DCC9DCC9DCC9",
"V c #DF7DDF7DDF7D",
"C c #E1B3E1B3E1B3",
"Z c #E79DE79DE79D",
"A c #EC6AEC6AEC6A",
"S c #EFBEEFBEEFBE",
/* pixels */
"eeeeeeeeeeeeeeeee  eeeeeeeeeeeeeeeee",
"eeeeeeeeeeeeeeeee  eeeeeeeeeeeeeeeee",
"eeeeeeeeeeeeeebbvvvbMbeeeeeeeeeeeeee",
"eeeeeeeeeeebvbbbbbbMMMMbMeeeeeeeeeee",
"eeeeeeeeebvbbbbbbbMMMMMMMbbeeeeeeeee",
"eeeeeeeebvvbbbbbbMMMVVVVMMbbeeeeeeee",
"eeeeeeebvvvvbbbbbMMVVVVVVVMMbeeeeeee",
"eeeeeebvvvvvbbbbMMVVVZZZZVVMMbeeeeee",
"eeeeebvvvvvv44466677888VZZVVVMbeeeee",
"eeeebvvvvvvk           VSZZVVVMbeeee",
"eeeebvvvkvvl         + VSSZZVVMMeeee",
"eeebvvvkkvvvsgggllk  o0SSSZZVVMMneee",
"eeevvvvkkkvvvvbbMn+ --ASSSSZVVMMmeee",
"eeevkkkkkkvvvvbbM, & MASSSZZVVMMmeee",
"eedkkkkkkkkvvvvb9 @ iZZSSZZZVVMMbvee",
"eedddddkkkkkvvvy   wVZZZZZZVVMMMbvee",
"eedddddkkkkkvvk  &:mVVVZZVVVVMMnbvee",
"  idddddkkkkkv- & lmMMVVVVVMMMbbbv  ",
"  iiiidddkkkk4 @ ynbbmMmMMMMmmbbvv  ",
"eeiiiiddddkkt   wvbbbbnmMMMMnbbbvvee",
"eeiiiiidddks  $<sssggggbbbbbbbbbvvee",
"eeiiiiiiddd: o         dbbbbbbbvvvee",
"eeeiiiiiidd;           sbbbbbbbbveee",
"eeeiiiiiiddr12222233333kvvvvvbbbbeee",
"eeeiiiiiiiddddkkkkkkvvvvvvvvvbbbbeee",
"eeeeiiiiiiidddddkkkkkvvvvvvvvbbbeeee",
"eeeediiiiiiddddddkkkkkkkkkvvvbbbeeee",
"eeeeeiiiiiiiidddddkkkkkkkkvvbbbeeeee",
"eeeeeeiiiiiiiidddddddddkkkvvbbeeeeee",
"eeeeeeeiiiiiiiiiidddddddkkvvbeeeeeee",
"eeeeeeeeiiiiiiiiiiidddddkkvveeeeeeee",
"eeeeeeeeeiiiiiiiiiiiddddkkveeeeeeeee",
"eeeeeeeeeeeiiiiiiiiiiddkdeeeeeeeeeee",
"eeeeeeeeeeeeeeiiiiiiddeeeeeeeeeeeeee",
"eeeeeeeeeeeeeeeee  eeeeeeeeeeeeeeeee",
"eeeeeeeeeeeeeeeee  eeeeeeeeeeeeeeeee"
};
