/* XPM */
static char *wmoku-0-LB-84[] = {
/* columns rows colors chars-per-pixel */
"36 36 95 2",
"   c #000700070007",
".  c #019001900190",
"X  c #038603860386",
"o  c #046404640464",
"O  c #056B056B056B",
"+  c #067A067A067A",
"@  c #077C077C077C",
"#  c #098F098F098F",
"$  c #0A140A140A14",
"%  c #0BEB0BEB0BEB",
"&  c #0CAA0CAA0CAA",
"*  c #0D7E0D7E0D7E",
"=  c #115F115F115F",
"-  c #128312831283",
";  c #131513151315",
":  c #1A901A901A90",
">  c #1BFF1BFF1BFF",
",  c #1F3A1F3A1F3A",
"<  c #207320732073",
"1  c #215E215E215E",
"2  c #243624362436",
"3  c #255C255C255C",
"4  c #26A026A026A0",
"5  c #278F278F278F",
"6  c #28CE28CE28CE",
"7  c #29A229A229A2",
"8  c #2B9D2B9D2B9D",
"9  c #306930693069",
"0  c #314631463146",
"q  c #339D339D339D",
"w  c #36F436F436F4",
"e  c #37DD37DD37DD",
"r  c #386D386D386D",
"t  c #3CEE3CEE3CEE",
"y  c #4C4A4C4A4C4A",
"u  c #4E574E574E57",
"i  c #572857285728",
"p  c #587D587D587D",
"a  c #5AAA5AAA5AAA",
"s  c #5CFE5CFE5CFE",
"d  c #5E1D5E1D5E1D",
"f  c #5F135F135F13",
"g  c #635D635D635D",
"h  c #651665166516",
"j  c #660D660D660D",
"k  c #68E368E368E3",
"l  c #6AC36AC36AC3",
"z  c #6DCE6DCE6DCE",
"x  c #70C570C570C5",
"c  c #7AE97AE97AE9",
"v  c #7D697D697D69",
"b  c #7E0C7E0C7E0C",
"n  c #E79DB2CA4924",
"m  c #80B280B280B2",
"M  c #825F825F825F",
"N  c #837F837F837F",
"B  c #84B884B884B8",
"V  c #87A387A387A3",
"C  c #8B1A8B1A8B1A",
"Z  c #8BBF8BBF8BBF",
"A  c #8EDB8EDB8EDB",
"S  c #948594859485",
"D  c #952695269526",
"F  c #9E419E419E41",
"G  c #A456A456A456",
"H  c #A5BEA5BEA5BE",
"J  c #A943A943A943",
"K  c #ACC2ACC2ACC2",
"L  c #AE65AE65AE65",
"P  c #AEBAAEBAAEBA",
"I  c #B29FB29FB29F",
"U  c #B2C2B2C2B2C2",
"Y  c #B4D8B4D8B4D8",
"T  c #B6DCB6DCB6DC",
"R  c #B9ADB9ADB9AD",
"E  c #BD63BD63BD63",
"W  c #BDDABDDABDDA",
"Q  c #BEFBBEFBBEFB",
"!  c #C105C105C105",
"~  c #C22EC22EC22E",
"^  c #C3A3C3A3C3A3",
"/  c #C471C471C471",
"(  c #C71BC71BC71B",
")  c #CBA0CBA0CBA0",
"_  c #CF3CCF3CCF3C",
"`  c #D185D185D185",
"'  c #D75CD75CD75C",
"]  c #D923D923D923",
"[  c #DCBADCBADCBA",
"{  c #DCF5DCF5DCF5",
"}  c #DF7DDF7DDF7D",
"|  c #E0C2E0C2E0C2",
" . c #E376E376E376",
".. c #E79DE79DE79D",
"X. c #EFBEEFBEEFBE",
/* pixels */
"n n n n n n n n n n n n n n n n n . . n n n n n n n n n n n n n n n n n ",
"n n n n n n n n n n n n n n n n n . . n n n n n n n n n n n n n n n n n ",
"n n n n n n n n n n n n n n _ _ ( ( ( _ ' _ n n n n n n n n n n n n n n ",
"n n n n n n n n n n n _ ( _ _ _ _ _ _ ' ' ' ' _ ' n n n n n n n n n n n ",
"n n n n n n n n n _ ( _ _ _ _ _ _ _ ' ' ' ' ' ' ' _ _ n n n n n n n n n ",
"n n n n n n n n _ ( ( _ _ _ _ _ _ ' ' ' | { | | ' ' _ _ n n n n n n n n ",
"n n n n n n n _ ( ( ( ( _ _ _ _ _ ' ' | | | | { { | ] ] _ n n n n n n n ",
"n n n n n n _ ( ( ( ( ( _ _ _ _ ' ' { { { ........| { ' ' _ n n n n n n ",
"n n n n n _ ( ( ( ( ( ( ) _ _ _ ' ' { | ............{ { | ] _ n n n n n ",
"n n n n _ ( ( ( ( Q A k k D ( _ ' ' | ....X.X.^ k h ..{ | { ' _ n n n n ",
"n n n n _ ( ( ( h . . . . . . v ' ' { ....X.... . . ' ..| | ' ' n n n n ",
"n n n _ ( ( ( v . . % . . . % . H ' { ....X.8 . . . ] ..{ { ' ' _ n n n ",
"n n n ( ( ( ( = . % i I I w . 3 w ' { ....N . . . . | ..| | ] ' ' n n n ",
"n n n ( Q Q Q . . . T ( ( L . > . ' { | ^ . 3 . . . ] ..| { ' ' ' n n n ",
"n n T Q Q Q Q . . . N ( ( x . 3 . ' ] { * o . . . . ] ..| { ' ' _ ( n n ",
"n n T T T T T z . * . o . . % . A _ ] u . . c . . . ] { | ' ' ' _ ( n n ",
"n n T T T T T Q 9 . . . . . . f _ _ D . 3 , { . . . _ | | ' ' _ _ ( n n ",
". . L T T T T w . > . t 7 . . . N Q . = . Q { . . . _ ' ' ' _ _ _ ( . . ",
". . L L L L T . o . H Q Q v . 1 o 9 . . , , , . . . , 3 _ ' _ _ ( ( . . ",
"n n L L L L T . = . R Q Q G . > . 1 . . . . . . . . . . ^ _ _ _ ( ( n n ",
"n n L L L L L . . . g J J 7 . 3 w V i a a a a . . . a a ) _ _ _ ( ( n n ",
"n n L L L L I i . . o . . . % . F ( ( ( ( _ _ . . . ^ _ _ _ _ ( ( ( n n ",
"n n n L L L L L y . . . o . . c Q ( ( ( ( ( ( . . . ^ _ _ _ _ _ ( n n n ",
"n n n L L L L L L J N f h V T Q Q Q ( ( ( ( ( f i i ^ ( ( _ _ _ _ n n n ",
"n n n L L L L L L L T T T T Q Q Q Q Q Q ( ( ( ( ( ( ( ( ( _ _ _ _ n n n ",
"n n n n L L L L L L L T T T T T Q Q Q Q Q ( ( ( ( ( ( ( ( _ _ _ n n n n ",
"n n n n T L L I L I L T T T T T T Q Q Q Q Q Q Q Q Q ( ( ( _ _ _ n n n n ",
"n n n n n L L L L L L L L T T T T T Q Q Q Q Q Q Q Q ( ( _ _ _ n n n n n ",
"n n n n n n L L L L L L L L T T T T T T T T T Q Q Q ( ( _ _ n n n n n n ",
"n n n n n n n L I L L L L L L L L T T T T T T T Q Q ( ( _ n n n n n n n ",
"n n n n n n n n L L L L I L L L L L L T T T T T Q Q ( ( n n n n n n n n ",
"n n n n n n n n n L L L L L L L L L L L T T T T Q Q ( n n n n n n n n n ",
"n n n n n n n n n n n L L L L L L L L L L T T Q T n n n n n n n n n n n ",
"n n n n n n n n n n n n n n L I L L L L T T n n n n n n n n n n n n n n ",
"n n n n n n n n n n n n n n n n n . . n n n n n n n n n n n n n n n n n ",
"n n n n n n n n n n n n n n n n n . . n n n n n n n n n n n n n n n n n "
};
