/* XPM */
static char *wmoku-0-LB-102[] = {
/* columns rows colors chars-per-pixel */
"36 36 114 2",
"   c #000200020002",
".  c #017E017E017E",
"X  c #021C021C021C",
"o  c #039C039C039C",
"O  c #04E204E204E2",
"+  c #05B405B405B4",
"@  c #069806980698",
"#  c #07AD07AD07AD",
"$  c #08DE08DE08DE",
"%  c #0A450A450A45",
"&  c #0B930B930B93",
"*  c #0CD80CD80CD8",
"=  c #0DB60DB60DB6",
"-  c #0EAC0EAC0EAC",
";  c #0F910F910F91",
":  c #116411641164",
">  c #12EC12EC12EC",
",  c #14CE14CE14CE",
"<  c #15D215D215D2",
"1  c #165016501650",
"2  c #177817781778",
"3  c #185A185A185A",
"4  c #198419841984",
"5  c #1AB71AB71AB7",
"6  c #1B3E1B3E1B3E",
"7  c #1CDE1CDE1CDE",
"8  c #1DB11DB11DB1",
"9  c #1E3E1E3E1E3E",
"0  c #1F381F381F38",
"q  c #21FE21FE21FE",
"w  c #22FA22FA22FA",
"e  c #24B624B624B6",
"r  c #25DC25DC25DC",
"t  c #28B428B428B4",
"y  c #29BF29BF29BF",
"u  c #2DAA2DAA2DAA",
"i  c #2FD12FD12FD1",
"p  c #32BA32BA32BA",
"a  c #346034603460",
"s  c #383138313831",
"d  c #38B538B538B5",
"f  c #3F9A3F9A3F9A",
"g  c #4BA04BA04BA0",
"h  c #4C9E4C9E4C9E",
"j  c #508D508D508D",
"k  c #52A752A752A7",
"l  c #53C153C153C1",
"z  c #571C571C571C",
"x  c #5AAA5AAA5AAA",
"c  c #5C6D5C6D5C6D",
"v  c #5E1E5E1E5E1E",
"b  c #5EFB5EFB5EFB",
"n  c #61F561F561F5",
"m  c #672C672C672C",
"M  c #68E568E568E5",
"N  c #6AE76AE76AE7",
"B  c #6D1F6D1F6D1F",
"V  c #6DB26DB26DB2",
"C  c #6F0D6F0D6F0D",
"Z  c #714F714F714F",
"A  c #E79DB2CA4924",
"S  c #850885088508",
"D  c #85BA85BA85BA",
"F  c #88D388D388D3",
"G  c #8DF78DF78DF7",
"H  c #8F198F198F19",
"J  c #922E922E922E",
"K  c #941794179417",
"L  c #94E894E894E8",
"P  c #963196319631",
"I  c #972497249724",
"U  c #982398239823",
"Y  c #9BA59BA59BA5",
"T  c #9EF79EF79EF7",
"R  c #A105A105A105",
"E  c #A369A369A369",
"W  c #A539A539A539",
"Q  c #A78DA78DA78D",
"!  c #A886A886A886",
"~  c #AA39AA39AA39",
"^  c #AC23AC23AC23",
"/  c #AD08AD08AD08",
"(  c #AEBCAEBCAEBC",
")  c #B005B005B005",
"_  c #B190B190B190",
"`  c #B629B629B629",
"'  c #B6E1B6E1B6E1",
"]  c #B947B947B947",
"[  c #B9EAB9EAB9EA",
"{  c #BB9BBB9BBB9B",
"}  c #BE6DBE6DBE6D",
"|  c #BEFCBEFCBEFC",
" . c #BFCCBFCCBFCC",
".. c #C15EC15EC15E",
"X. c #C2F4C2F4C2F4",
"o. c #C476C476C476",
"O. c #C528C528C528",
"+. c #C71BC71BC71B",
"@. c #C822C822C822",
"#. c #C93CC93CC93C",
"$. c #CA74CA74CA74",
"%. c #CE24CE24CE24",
"&. c #CF3CCF3CCF3C",
"*. c #D142D142D142",
"=. c #D344D344D344",
"-. c #D49BD49BD49B",
";. c #D54BD54BD54B",
":. c #D75AD75AD75A",
">. c #DD48DD48DD48",
",. c #DF7CDF7CDF7C",
"<. c #E23EE23EE23E",
"1. c #E567E567E567",
"2. c #E795E795E795",
"3. c #EFA1EFA1EFA1",
/* pixels */
"A A A A A A A A A A A A A A A A A     A A A A A A A A A A A A A A A A A ",
"A A A A A A A A A A A A A A A A A     A A A A A A A A A A A A A A A A A ",
"A A A A A A A A A A A A A A &.&.+.+.+.&.:.&.A A A A A A A A A A A A A A ",
"A A A A A A A A A A A &.+.&.&.&.&.&.&.:.:.:.:.&.:.A A A A A A A A A A A ",
"A A A A A A A A A &.+.&.&.&.&.&.&.&.:.:.:.:.:.:.:.&.&.A A A A A A A A A ",
"A A A A A A A A &.+.+.&.&.&.&.&.&.:.:.:.,.,.,.,.:.:.&.&.A A A A A A A A ",
"A A A A A A A &.+.+.+.+.&.&.&.&.&.:.:.,.,.,.,.,.,.,.:.:.&.A A A A A A A ",
"A A A A A A &.+.+.+.+.+.&.&.&.&.:.:.,.,.,.2.2.2.2.,.,.:.:.&.A A A A A A ",
"A A A A A &.+.+.+.+.+.+.+.&.&.&.:.:.,.,.2.2.2.2.2.2.,.,.,.-.&.A A A A A ",
"A A A A &.+.T z v +.+.+.+.&.@.K V V ~ 2.2.3.3.3.3.-.K V V Y @.&.A A A A ",
"A A A A &.+.3 =   +.+.+.+.Q       $   : -.3.3.3.V       @ @   H A A A A ",
"A A A @._ M   3   +.+.+.|     :       w y 3.3.D   @ @       :   Q A A A ",
"A A A         3   | +.+.l   w   { /       { 3.      D -.+.7   u s A A A ",
"A A A         3   | +.+.$     K -.-.h   p v ,.  y   2.2.,.'   7   A A A ",
"A A ' J J J   3   | | +.      +.&.-.T   u 3 &.    a 2.2.,.~   r @ +.A A ",
"A A ' ' ' '   3   | | |   ,   @.&.&.{   w   2.-.-.,.2.,.|     : V +.A A ",
"A A ' ' ' '   3   | | |   3   X.&.&.+.  7   ,.2.2.,.&.z     3 : +.+.A A ",
"    / { ' {   ,   | | |   ,   X.&.&._   7   ,.,.,.F     =   a X.&.+.    ",
"    _ / / /   3   | | |   @   | @.&.K   r y :.-.f   =   = R &.&.+.+.    ",
"A A / / _ /   3   ' | | $     J @.@.h   r l &.l   3   K &.&.&.&.+.+.A A ",
"A A / / _ /   3   ' | | x   w = ' /       / @.  3   / / / / / / ~ +.A A ",
"A A / _ / /   ,   ' ' | {     =       : 7 &.H   :                 +.A A ",
"A A A / / _   $   ' ' ' | Q @     @   p X.+.v                 =   A A A ",
"A A A _ _ / h h l ' ' ' ' | { K M Z Q X.+.+.R z z z z z z x x x n A A A ",
"A A A / _ _ / / / / { ' ' ' | | | | | | +.+.+.+.+.+.+.+.+.&.&.&.&.A A A ",
"A A A A / / / _ _ / / ' ' ' ' ' | | | | | +.+.+.+.+.+.+.+.&.&.&.A A A A ",
"A A A A { / _ / / _ / ' ' ' ' ' ' | | | | | | | | | +.+.+.&.&.&.A A A A ",
"A A A A A / _ / / _ / _ / ' ' ' ' ' | | | | | | | | +.+.&.&.&.A A A A A ",
"A A A A A A / / / _ / / _ / ' { ' ' ' ' ' ' ' | | | +.+.&.&.A A A A A A ",
"A A A A A A A _ / _ / _ / / / / / ' ' ' ' ' ' ' | | +.+.&.A A A A A A A ",
"A A A A A A A A _ / _ / / _ _ / / _ / { ' ' ' ' | | +.+.A A A A A A A A ",
"A A A A A A A A A / / / _ / / _ / / / / ' ' ' ' | | +.A A A A A A A A A ",
"A A A A A A A A A A A / / _ / / / _ / / / { ' | ' A A A A A A A A A A A ",
"A A A A A A A A A A A A A A / _ / _ / _ ' ' A A A A A A A A A A A A A A ",
"A A A A A A A A A A A A A A A A A     A A A A A A A A A A A A A A A A A ",
"A A A A A A A A A A A A A A A A A     A A A A A A A A A A A A A A A A A "
};
