/* XPM */
static char *wmoku-0-LB-288[] = {
/* columns rows colors chars-per-pixel */
"36 36 139 2",
"   c #000E000E000E",
".  c #018801880188",
"X  c #02B1021400D9",
"o  c #028E028E028E",
"O  c #038F038F038F",
"+  c #0589044601BF",
"@  c #048304830483",
"#  c #057305730573",
"$  c #067406740674",
"%  c #08C908C908C9",
"&  c #09D209D209D2",
"*  c #0AA60AA60AA6",
"=  c #0F1F0F1F0F1F",
"-  c #184212B907A9",
";  c #10E310E310E3",
":  c #117511751175",
">  c #137313731373",
",  c #152B152B152B",
"<  c #18A018A018A0",
"1  c #191F191F191F",
"2  c #1B421B421B42",
"3  c #1DB81DB81DB8",
"4  c #1FC01FC01FC0",
"5  c #23BE1B970B49",
"6  c #224222422242",
"7  c #239A239A239A",
"8  c #29AE29AE29AE",
"9  c #2AA62AA62AA6",
"0  c #2BF82BF82BF8",
"q  c #2DA12DA12DA1",
"w  c #2F472F472F47",
"e  c #309A309A309A",
"r  c #315D315D315D",
"t  c #32AD32AD32AD",
"y  c #349534953495",
"u  c #357D357D357D",
"i  c #534440471A4C",
"p  c #65554E382000",
"a  c #6BFC535B221A",
"s  c #6E29550922CA",
"d  c #445044504450",
"f  c #4A6F4A6F4A6F",
"g  c #4C7D4C7D4C7D",
"h  c #4FD74FD74FD7",
"j  c #506550655065",
"k  c #530853085308",
"l  c #554855485548",
"z  c #564D564D564D",
"x  c #576257625762",
"c  c #58E958E958E9",
"v  c #5AA65AA65AA6",
"b  c #5E385E385E38",
"n  c #61C761C761C7",
"m  c #663866386638",
"M  c #6BE56BE56BE5",
"N  c #6F176F176F17",
"B  c #713F713F713F",
"V  c #719071907190",
"C  c #762776277627",
"Z  c #788778877887",
"A  c #7AB67AB67AB6",
"S  c #7BA77BA77BA7",
"D  c #7D777D777D77",
"F  c #7EEF7EEF7EEF",
"G  c #800F800F800F",
"H  c #8CA86C932C6B",
"J  c #97C575282FED",
"K  c #AAE083E735F6",
"L  c #C71899B03EDF",
"P  c #D157A199421B",
"I  c #D87CA71C445D",
"U  c #DC9AAA4A45AA",
"Y  c #E011ACF746C2",
"T  c #E402B0014800",
"R  c #E605B18E48A3",
"E  c #E79DB2CA4924",
"W  c #808380838083",
"Q  c #827882788278",
"!  c #852685268526",
"~  c #85C285C285C2",
"^  c #876B876B876B",
"/  c #883788378837",
"(  c #896289628962",
")  c #8AA28AA28AA2",
"_  c #8D3B8D3B8D3B",
"`  c #8FF78FF78FF7",
"'  c #91E491E491E4",
"]  c #946594659465",
"[  c #94DC94DC94DC",
"{  c #960C960C960C",
"}  c #973D973D973D",
"|  c #97B897B897B8",
" . c #98CA98CA98CA",
".. c #9B329B329B32",
"X. c #9D199D199D19",
"o. c #9F769F769F76",
"O. c #9FE19FE19FE1",
"+. c #A2E0A2E0A2E0",
"@. c #A42CA42CA42C",
"#. c #A64DA64DA64D",
"$. c #A6EBA6EBA6EB",
"%. c #A83DA83DA83D",
"&. c #A93FA93FA93F",
"*. c #AB7FAB7FAB7F",
"=. c #AC16AC16AC16",
"-. c #AD3CAD3CAD3C",
";. c #AEBBAEBBAEBB",
":. c #B088B088B088",
">. c #B103B103B103",
",. c #B401B401B401",
"<. c #B551B551B551",
"1. c #B623B623B623",
"2. c #B6DAB6DAB6DA",
"3. c #B92BB92BB92B",
"4. c #B9DDB9DDB9DD",
"5. c #BD0ABD0ABD0A",
"6. c #BEFABEFABEFA",
"7. c #C0F4C0F4C0F4",
"8. c #C239C239C239",
"9. c #C46FC46FC46F",
"0. c #C656C656C656",
"q. c #C719C719C719",
"w. c #C897C897C897",
"e. c #CA58CA58CA58",
"r. c #CD35CD35CD35",
"t. c #CE5ACE5ACE5A",
"y. c #CF3BCF3BCF3B",
"u. c #D1FBD1FBD1FB",
"i. c #D540D540D540",
"p. c #D6B0D6B0D6B0",
"a. c #D75BD75BD75B",
"s. c #DA17DA17DA17",
"d. c #DE63DE63DE63",
"f. c #DF7DDF7DDF7D",
"g. c #E058E058E058",
"h. c #E481E481E481",
"j. c #E79DE79DE79D",
"k. c #EE23EE23EE23",
"l. c #EFBEEFBEEFBE",
/* pixels */
"E E E E E E E E E E E E E E E E E o o R E E E E E E E E E E E E E E E E ",
"E E E E E E E E E E E E E E E E E o o R E E E E E E E E E E E E E E E E ",
"E E E E E E E E E E E E E E y.y.q.q.q.y.a.y.E E E E E E E E E E E E E E ",
"E E E E E E E E E E E y.q.y.y.y.y.y.y.i.i.s.i.y.a.E E E E E E E E E E E ",
"E E E E E E E E E y.q.y.y.y.y.y.y.y.a.a.a.a.i.s.a.y.y.E E E E E E E E E ",
"E E E E E E E E y.q.q.y.y.y.y.y.y.i.a.i.f.g.f.f.a.a.y.y.E E E E E E E E ",
"E E E E E E E y.q.q.q.q.y.y.y.y.y.i.s.f.f.f.f.f.f.f.a.a.y.E E E E E E E ",
"E E E E E E y.q.q.q.q.q.y.y.y.y.i.s.f.f.f.j.j.j.j.f.g.a.a.y.E E E E E E ",
"E E E E R y.q.q.q.q.q.q.q.y.y.y.s.i.f.f.j.j.j.j.j.j.f.f.f.i.y.E E E E E ",
"E E E E $.N z M o.q.q.q.q.y.y.$.^ b _ 1.j.l.l.l.l.j.4.) n _ -.y.R R E E ",
"E E P - o o o @ o 0 5.q.q.5.0 o o o o o r g.k.k.g.u o o o o o q I R E E ",
"E T + o o o o o o @ 0 q.q.0 o o o o o o @ r k.k.r @ o o o o o o 0 R E E ",
"E K o o o @.4.G o o o %.%.o o o @.r.%.o o o r.y.o o o -.y.%.o o o L R E ",
"E s o o ( 5.6.6.r o o ^ G @ o f i.i.f.h o o | o.o o k j.f.f.f o + J E E ",
"E i o o @.5.5.5.q o o { | o o = r.s.y.; o o -.1.o o ; f.f.i.= o o { E R ",
"E Y $.$.1.1.1.B o o o >.q., o o o , o o @ ; j.j., o o o 4 o o o ; 9.E R ",
"R R 1.1.1.( @ o o o A 6.q.o.o o o o o o o 5.f.j.1.o o o o o o o >.q.E R ",
"o o -.$.r o o o o F 5.6.-.o o o 4 k @ o o o s.y.o o o 7 k % o o o 6.o o ",
"o o ' o o @ o h $.5.6.6.B @ o h q.y.y.4 o o $.G o o k s.i.i., o o { o o ",
"R I o o o u $.1.1.1.5.5.c o @ N q.q.y.d o o ( m o @ A i.y.y.d o o Q R E ",
"E H o o z _ ' { | { o.4._ o o o o.1._ o o o >.| o o o $.6.{ o o o -.R E ",
"E 5 o o o o o o o o o A 4.% o o o o o o o r r.r.% o o o o o o o r q.E E ",
"R o o o o o o o o o o C 6.%.< o o o o o r 5.q.q.1., o o o o o r 5.E E E ",
"R a p f h f f f f h h { 2.5.5.{ C k F @.q.q.q.q.q.r.| A z ^ %.y.y.E E E ",
"R E E -.:.:.-.:.-.:.1.2.2.2.6.6.6.6.6.6.q.q.q.q.q.q.q.q.q.y.y.y.y.E E E ",
"E E E E -.-.:.-.:.-.-.2.2.2.2.2.6.6.6.6.5.q.q.w.q.q.q.q.q.y.y.y.E E E E ",
"E E E E 2.-.-.:.-.:.-.1.2.1.2.2.2.6.6.6.6.6.6.6.5.6.r.q.q.y.y.y.E E E E ",
"E E E E E :.-.-.:.-.:.:.:.1.2.2.2.2.6.6.6.6.6.6.5.5.q.q.y.y.y.R E E E E ",
"E E E E E E :.-.-.:.-.-.-.:.2.2.2.2.2.2.2.2.2.6.6.6.q.q.y.y.E E E E E E ",
"E E E E E E E :.:.-.-.:.:.-.:.-.:.1.2.2.2.2.2.2.6.5.q.q.y.R E E E E E E ",
"E E E E E E E E -.:.:.-.-.:.:.-.:.-.-.2.2.2.2.2.6.6.q.q.E E E E E E E E ",
"E E E E E E E E E :.-.-.:.-.-.:.-.:.-.:.2.2.2.1.6.6.q.E E E E E E E E E ",
"E E E E E E E E E E E -.:.-.:.-.-.-.:.-.:.1.2.6.2.E E E E E E E E E E E ",
"E E E E E E E E E E E E E E :.-.-.-.-.:.1.1.E E E E E E E E E E E E E E ",
"E E E E E E E E E E E E E E E E R o o E E E E E E E E E E E E E E E E E ",
"E E E E E E E E E E E E E E E E R o o E E E E E E E E E E E E E E E E E "
};
