/* XPM */
static char *wmoku-0-LB-333[] = {
/* columns rows colors chars-per-pixel */
"36 36 132 2",
"   c #001000100010",
".  c #019F019F019F",
"X  c #027101E200C5",
"o  c #039A02C80123",
"O  c #027D027D027D",
"+  c #035F035F035F",
"@  c #047304730473",
"#  c #057805780578",
"$  c #067A067A067A",
"%  c #0E270E270E27",
"&  c #108D108D108D",
"*  c #1B2A1B2A1B2A",
"=  c #1EC91EC91EC9",
"-  c #219D219D219D",
";  c #257525752575",
":  c #269126912691",
">  c #28A628A628A6",
",  c #2BD62BD62BD6",
"<  c #2F8D2F8D2F8D",
"1  c #33C633C633C6",
"2  c #35E335E335E3",
"3  c #394539453945",
"4  c #402740274027",
"5  c #6DB554AF22A5",
"6  c #40E740E740E7",
"7  c #472C472C472C",
"8  c #48B548B548B5",
"9  c #4B8F4B8F4B8F",
"0  c #4FFF4FFF4FFF",
"q  c #511A511A511A",
"w  c #517251725172",
"e  c #57B957B957B9",
"r  c #590659065906",
"t  c #5ADE5ADE5ADE",
"y  c #5C295C295C29",
"u  c #5CCF5CCF5CCF",
"i  c #5E2B5E2B5E2B",
"p  c #5E635E635E63",
"a  c #601D601D601D",
"s  c #62C062C062C0",
"d  c #663766376637",
"f  c #672A672A672A",
"g  c #67EB67EB67EB",
"h  c #694269426942",
"j  c #6BB36BB36BB3",
"k  c #6CF06CF06CF0",
"l  c #6DB96DB96DB9",
"z  c #712D712D712D",
"x  c #71EA71EA71EA",
"c  c #75FF75FF75FF",
"v  c #7A477A477A47",
"b  c #7B3B7B3B7B3B",
"n  c #7FC07FC07FC0",
"m  c #88C069902B2F",
"M  c #9CA078E73176",
"N  c #ACC2855B368E",
"B  c #B8228E233A26",
"V  c #BD9192553BDD",
"C  c #DE38AB8A462D",
"Z  c #E0F8ADA9470B",
"A  c #E460B04A481E",
"S  c #E79DB2CA4924",
"D  c #812581258125",
"F  c #821A821A821A",
"G  c #841A841A841A",
"H  c #862886288628",
"J  c #876A876A876A",
"K  c #888288828882",
"L  c #89D589D589D5",
"P  c #8A9C8A9C8A9C",
"I  c #8C0B8C0B8C0B",
"U  c #8D578D578D57",
"Y  c #8DC38DC38DC3",
"T  c #8F608F608F60",
"R  c #8FD88FD88FD8",
"E  c #918991899189",
"W  c #921592159215",
"Q  c #941494149414",
"!  c #94F594F594F5",
"~  c #962096209620",
"^  c #980698069806",
"/  c #9B009B009B00",
"(  c #9C4F9C4F9C4F",
")  c #9E6A9E6A9E6A",
"_  c #A189A189A189",
"`  c #A243A243A243",
"'  c #A314A314A314",
"]  c #A43DA43DA43D",
"[  c #A4C0A4C0A4C0",
"{  c #A709A709A709",
"}  c #A966A966A966",
"|  c #A9F6A9F6A9F6",
" . c #AB0CAB0CAB0C",
".. c #AC04AC04AC04",
"X. c #AD51AD51AD51",
"o. c #AE63AE63AE63",
"O. c #AEBBAEBBAEBB",
"+. c #B079B079B079",
"@. c #B16AB16AB16A",
"#. c #B2D2B2D2B2D2",
"$. c #B3D3B3D3B3D3",
"%. c #B582B582B582",
"&. c #B5F7B5F7B5F7",
"*. c #B6DCB6DCB6DC",
"=. c #B838B838B838",
"-. c #B915B915B915",
";. c #BA62BA62BA62",
":. c #BCB8BCB8BCB8",
">. c #BD8DBD8DBD8D",
",. c #BEA1BEA1BEA1",
"<. c #BEFFBEFFBEFF",
"1. c #C08FC08FC08F",
"2. c #C0F5C0F5C0F5",
"3. c #C281C281C281",
"4. c #C452C452C452",
"5. c #C68CC68CC68C",
"6. c #C71AC71AC71A",
"7. c #C924C924C924",
"8. c #C9D9C9D9C9D9",
"9. c #CBDBCBDBCBDB",
"0. c #CE5ACE5ACE5A",
"q. c #CF3BCF3BCF3B",
"w. c #D651D651D651",
"e. c #D75BD75BD75B",
"r. c #D83AD83AD83A",
"t. c #DDD2DDD2DDD2",
"y. c #DE0FDE0FDE0F",
"u. c #DF7DDF7DDF7D",
"i. c #E0F7E0F7E0F7",
"p. c #E79DE79DE79D",
"a. c #EC64EC64EC64",
"s. c #EFBEEFBEEFBE",
/* pixels */
"S S S S S S S S S S S S S S S S S     S S S S S S S S S S S S S S S S S ",
"S S S S S S S S S S S S S S S S S     S S S S S S S S S S S S S S S S S ",
"S S S S S S S S S S S S S S q.q.6.6.6.q.e.q.S S S S S S S S S S S S S S ",
"S S S S S S S S S S S q.6.q.q.q.q.q.q.e.e.e.e.q.e.S S S S S S S S S S S ",
"S S S S S S S S S q.6.q.q.q.q.q.q.q.e.e.e.e.e.e.e.q.q.S S S S S S S S S ",
"S S S S S S S S q.6.6.q.q.q.q.q.q.e.e.e.u.u.u.u.e.e.q.q.S S S S S S S S ",
"S S S S S S S q.6.6.6.6.q.q.q.q.q.e.e.u.u.u.u.u.u.u.e.e.q.S S S S S S S ",
"S S S S S S q.6.6.6.6.7.q.q.q.q.e.e.u.u.u.p.p.p.p.u.u.e.e.q.S S S S S S ",
"S S S S S q.6.6.6.6.6.6.6.q.q.q.e.e.u.i.p.a.p.a.p.p.u.u.u.e.q.S S S S S ",
"S S S Z ^ l h Y <.6.6.6.6.q.7.! c x ) u.p.s.a.s.s.i. .b c ) q.q.S S S S ",
"S S B     +       Y 6.6.6.]             { a.s.s.<.    +   #   ^ S S S S ",
"S S     #     #     -.6.6.#   #     #     u.s.a.    #     #     <.S S S ",
"S N       @.@.%     K 6.!       <.1.&     { s.@.      7.7.&     ! S S S ",
"S m   # x <.<.x $   y 6.c   # b r.e.H #   l s.Y # $ K p.i.H $   s S S S ",
"S 5     n <.<.u # # x 6.u     K q.e.h # # K a.l     ^ a.i.l # # b 6.S S ",
"S S *.*.^ * #       @.1.7.6.6.X.= #       e.p.p.p.a.1.- #       1.6.S S ",
"S S *.*.Y         :  .<.6.6.7.^         , 7.i.p.p.u. .        > -.7.S S ",
"    X.*.' 9 6 #       -.<.6.6.X.t 8 #   #   r.u.u.u.6.u 9 #       1.    ",
"    8 7 Y X.*.*.-     W H q q ' 6.q.q.:     ] ! e t X.e.e.e.>     ^     ",
"S 5   # s X.*.*.3     H t   # l 6.6.q.6     Y d   # c r.q.q.6   # K S S ",
"S M       ! ' H       { G        .-.W       @.Y       @.1.^       X.S S ",
"S C     #         # , <.*.    #           2 q.6.    #         # < 6.S S ",
"S S V             < X.-.<.)             2 <.6.6. .    #       2 <.S S S ",
"S S S  .H u q x W *.*.*.*.<.-.W h t G ' 7.6.6.6.6.1.! l u H  .q.q.S S S ",
"S S S @.X.X.X.@.X.X.-.*.*.*.<.<.<.<.<.<.6.6.6.6.6.6.6.6.6.q.q.q.q.S S S ",
"S S S S X.@.X.X.@.X.X.-.*.*.*.*.<.<.<.<.<.6.6.6.6.6.6.6.6.q.q.q.S S S S ",
"S S S S -.X.@.X.@.X.X.-.*.*.*.*.*.<.<.<.<.<.<.<.<.<.6.6.6.q.q.q.S S S S ",
"S S S S S X.@.X.X.X.@.X.X.*.*.*.*.*.<.<.<.<.<.<.<.<.6.6.q.q.q.S S S S S ",
"S S S S S S X.+.X.@.X.X.X.X.*.-.*.*.*.*.*.*.*.<.<.<.6.6.q.q.S S S S S S ",
"S S S S S S S X.X.@.X.@.@.@.X.X.X.*.*.*.*.*.*.*.<.<.6.6.q.S S S S S S S ",
"S S S S S S S S X.X.X.@.X.X.@.X.X.X.X.-.*.*.*.*.<.<.6.6.S S S S S S S S ",
"S S S S S S S S S @.X.X.X.@.X.X.@.@.X.X.*.*.*.*.<.<.6.S S S S S S S S S ",
"S S S S S S S S S S S X.@.X.X.@.@.X.X.X.@.*.*.<.*.S S S S S S S S S S S ",
"S S S S S S S S S S S S S S +.X.X.X.@.X.*.*.S S S S S S S S S S S S S S ",
"S S S S S S S S S S S S S S S S S     S S S S S S S S S S S S S S S S S ",
"S S S S S S S S S S S S S S S S S     S S S S S S S S S S S S S S S S S "
};
