/* XPM */
static char *wmoku-0-LB-168[] = {
/* columns rows colors chars-per-pixel */
"36 36 117 2",
"   c #000A000A000A",
".  c #015601560156",
"X  c #021502150215",
"o  c #03C003C003C0",
"O  c #046804680468",
"+  c #059505950595",
"@  c #066806680668",
"#  c #075A075A075A",
"$  c #08DB08DB08DB",
"%  c #09C609C609C6",
"&  c #0ABD0ABD0ABD",
"*  c #0BB10BB10BB1",
"=  c #0CE50CE50CE5",
"-  c #0D510D510D51",
";  c #0FA80FA80FA8",
":  c #106E106E106E",
">  c #11F211F211F2",
",  c #139513951395",
"<  c #14A814A814A8",
"1  c #15DA15DA15DA",
"2  c #165016501650",
"3  c #176B176B176B",
"4  c #186318631863",
"5  c #1A8D1A8D1A8D",
"6  c #1B911B911B91",
"7  c #1CBC1CBC1CBC",
"8  c #1E691E691E69",
"9  c #1F2F1F2F1F2F",
"0  c #206320632063",
"q  c #235323532353",
"w  c #26DA26DA26DA",
"e  c #284928492849",
"r  c #292E292E292E",
"t  c #2A692A692A69",
"y  c #2D002D002D00",
"u  c #2D2D2D2D2D2D",
"i  c #312F312F312F",
"p  c #36EF36EF36EF",
"a  c #37AD37AD37AD",
"s  c #3D653D653D65",
"d  c #3EBB3EBB3EBB",
"f  c #44D644D644D6",
"g  c #4C714C714C71",
"h  c #4FC74FC74FC7",
"j  c #529852985298",
"k  c #535F535F535F",
"l  c #571C571C571C",
"z  c #5A7C5A7C5A7C",
"x  c #5E1E5E1E5E1E",
"c  c #5FEB5FEB5FEB",
"v  c #60D660D660D6",
"b  c #647A647A647A",
"n  c #672C672C672C",
"m  c #67DF67DF67DF",
"M  c #690769076907",
"N  c #699C699C699C",
"B  c #6BD26BD26BD2",
"V  c #6DCF6DCF6DCF",
"C  c #6ED66ED66ED6",
"Z  c #72DC72DC72DC",
"A  c #77DA77DA77DA",
"S  c #7E947E947E94",
"D  c #801A801A801A",
"F  c #E79DB2CA4924",
"G  c #825D825D825D",
"H  c #834183418341",
"J  c #852F852F852F",
"K  c #86F486F486F4",
"L  c #880F880F880F",
"P  c #895A895A895A",
"I  c #8C168C168C16",
"U  c #8DB38DB38DB3",
"Y  c #90CD90CD90CD",
"T  c #922F922F922F",
"R  c #941194119411",
"E  c #94F094F094F0",
"W  c #961796179617",
"Q  c #96F196F196F1",
"!  c #983E983E983E",
"~  c #9AAE9AAE9AAE",
"^  c #9D6D9D6D9D6D",
"/  c #9E409E409E40",
"(  c #9F2C9F2C9F2C",
")  c #9FF79FF79FF7",
"_  c #A0F5A0F5A0F5",
"`  c #A613A613A613",
"'  c #A9A8A9A8A9A8",
"]  c #AA6EAA6EAA6E",
"[  c #AD76AD76AD76",
"{  c #AEBCAEBCAEBC",
"}  c #B035B035B035",
"|  c #B20AB20AB20A",
" . c #B42BB42BB42B",
".. c #B6ADB6ADB6AD",
"X. c #B6DCB6DCB6DC",
"o. c #B829B829B829",
"O. c #B999B999B999",
"+. c #BA40BA40BA40",
"@. c #BB24BB24BB24",
"#. c #BC0DBC0DBC0D",
"$. c #BEFBBEFBBEFB",
"%. c #C209C209C209",
"&. c #C356C356C356",
"*. c #C691C691C691",
"=. c #C71BC71BC71B",
"-. c #C879C879C879",
";. c #CC3CCC3CCC3C",
":. c #CF3DCF3DCF3D",
">. c #D160D160D160",
",. c #D25FD25FD25F",
"<. c #D75CD75CD75C",
"1. c #DC2CDC2CDC2C",
"2. c #DF78DF78DF78",
"3. c #E322E322E322",
"4. c #E5D3E5D3E5D3",
"5. c #E79DE79DE79D",
"6. c #EFBEEFBEEFBE",
/* pixels */
"F F F F F F F F F F F F F F F F F     F F F F F F F F F F F F F F F F F ",
"F F F F F F F F F F F F F F F F F     F F F F F F F F F F F F F F F F F ",
"F F F F F F F F F F F F F F :.:.=.=.=.:.<.:.F F F F F F F F F F F F F F ",
"F F F F F F F F F F F :.=.:.:.:.:.:.:.<.<.<.<.:.<.F F F F F F F F F F F ",
"F F F F F F F F F :.=.:.:.:.:.:.:.:.<.<.<.<.<.<.<.:.:.F F F F F F F F F ",
"F F F F F F F F :.=.=.:.:.:.:.:.:.<.<.<.2.2.2.2.<.<.:.:.F F F F F F F F ",
"F F F F F F F :.=.=.=.=.:.:.:.:.:.<.<.2.2.2.2.2.2.2.<.<.:.F F F F F F F ",
"F F F F F F :.=.=.=.=.=.:.:.:.:.<.<.2.2.2.5.5.5.5.2.2.<.<.:.F F F F F F ",
"F F F F F :.=.=.=.=.=.=.=.:.:.:.<.<.2.2.5.5.5.5.5.5.2.2.2.<.:.F F F F F ",
"F F F F :.=.( l x =.=.=.=.:.:.` A M ~ 2.5.6.6.6.6.2.` A A ( :.:.F F F F ",
"F F F F :.=.4 -   =.=.=.=.%.q     O %   @.6.6.6.S       %     G F F F F ",
"F F F -.| M   4   =.=.=.=.,   ,       8   2.6.(     ,       %   ( F F F ",
"F F F         4   $.=.=.Z   q   | %.-     ` 6.4   , M :.-.d   t a F F F ",
"F F F         4   $.=.=.3     U <.<.R     v 6.      :.5.2.%.  8   F F F ",
"F F ..T T T   4   $.$.=.      ` C b R :.5.5.5.      _ 5.2.S   t   -.F F ",
"F F ........  4   $.$.$.  3       O O   U 5.5.J   3   O O   -   U =.F F ",
"F F ........  4   $.$.$.    O         %   @.2.5.d             v :.=.F F ",
"    { ......  3   $.$.$.      P :.:.l   u d 2.f   8   f i       G =.    ",
"    { { { {   3   $.$.$.  3   %.=.:.|   8   <.  O   @.<.<.P   t O -.    ",
"F F { { { {   3   ..$.%.  O   @.=.=._   8 % :.  3   :.<.:.|   4   =.F F ",
"F F { { { {   3   ..$.$.d   4 d { { ,   q h :.      M $.@.u   t a =.F F ",
"F F { { { {   3   ....$.{     ,       ,   @.:.b   O %       %   ( =.F F ",
"F F F { { {   %   ......%.T       O     ~ =.=.=.z       %     J =.F F F ",
"F F F { { { h h k ........$...J x M ~ %.=.=.=.=.=.@.U b C R =.:.:.F F F ",
"F F F { { { { { { { ..@.....$.$.$.$.$.$.=.=.=.=.=.=.=.=.=.:.:.:.:.F F F ",
"F F F F { { { { { { { ..........$.$.$.$.$.=.=.=.=.=.=.=.=.:.:.:.F F F F ",
"F F F F ..{ { { { { { ............$.$.$.$.$.$.$.$.$.=.=.=.:.:.:.F F F F ",
"F F F F F { { { { { { { { ..........$.$.$.$.$.$.$.$.=.=.:.:.:.F F F F F ",
"F F F F F F { { { { { { { { ..................$.$.$.=.=.:.:.F F F F F F ",
"F F F F F F F { { { { { { { { { { ..............$.$.=.=.:.F F F F F F F ",
"F F F F F F F F { { { { { { { { { { { ..........$.$.=.=.F F F F F F F F ",
"F F F F F F F F F { { { { { { { { { { { ........$.$.=.F F F F F F F F F ",
"F F F F F F F F F F F { { { { { { { { { { ....$...F F F F F F F F F F F ",
"F F F F F F F F F F F F F F { { { { { { ....F F F F F F F F F F F F F F ",
"F F F F F F F F F F F F F F F F F     F F F F F F F F F F F F F F F F F ",
"F F F F F F F F F F F F F F F F F     F F F F F F F F F F F F F F F F F "
};
