/* XPM */
static char *wmoku-0-LB-352[] = {
/* columns rows colors chars-per-pixel */
"36 36 139 2",
"   c #000B000B000B",
".  c #018B018B018B",
"X  c #027101E200C5",
"o  c #039A02C80123",
"O  c #027302730273",
"+  c #038903890389",
"@  c #049504950495",
"#  c #056E056E056E",
"$  c #0ABE0ABE0ABE",
"%  c #0E270E270E27",
"&  c #17B817B817B8",
"*  c #191C191C191C",
"=  c #1B281B281B28",
"-  c #1FFB1FFB1FFB",
";  c #205720572057",
":  c #220722072207",
">  c #245C245C245C",
",  c #257525752575",
"<  c #26CB26CB26CB",
"1  c #29CA29CA29CA",
"2  c #2DB52DB52DB5",
"3  c #2F8D2F8D2F8D",
"4  c #343034303430",
"5  c #35A635A635A6",
"6  c #389538953895",
"7  c #394539453945",
"8  c #3B003B003B00",
"9  c #3DCF3DCF3DCF",
"0  c #402740274027",
"q  c #6DB554AF22A5",
"w  c #41EE41EE41EE",
"e  c #442544254425",
"r  c #456E456E456E",
"t  c #472F472F472F",
"y  c #487F487F487F",
"u  c #4ED64ED64ED6",
"i  c #4FFF4FFF4FFF",
"p  c #517251725172",
"a  c #538E538E538E",
"s  c #562E562E562E",
"d  c #571C571C571C",
"f  c #5AC15AC15AC1",
"g  c #5C005C005C00",
"h  c #5CAA5CAA5CAA",
"j  c #5E385E385E38",
"k  c #5E8A5E8A5E8A",
"l  c #601D601D601D",
"z  c #611861186118",
"x  c #61F061F061F0",
"c  c #631163116311",
"v  c #655565556555",
"b  c #662966296629",
"n  c #67A067A067A0",
"m  c #694269426942",
"M  c #6CF06CF06CF0",
"N  c #711971197119",
"B  c #71DD71DD71DD",
"V  c #744774477447",
"C  c #792579257925",
"Z  c #7CFB7CFB7CFB",
"A  c #7DDA7DDA7DDA",
"S  c #7FC07FC07FC0",
"D  c #88C069902B2F",
"F  c #95F273C02F5A",
"G  c #9CA078E73176",
"H  c #9D83799731BE",
"J  c #ACC2855B368E",
"K  c #B8228E233A26",
"L  c #BD9192553BDD",
"P  c #BDC6927E3BEE",
"I  c #C52C98343E44",
"U  c #DC23A9EE4584",
"Y  c #DE38AB8A462D",
"T  c #E0F8ADA9470B",
"R  c #E460B04A481E",
"E  c #E79DB2CA4924",
"W  c #810E810E810E",
"Q  c #831383138313",
"!  c #841684168416",
"~  c #862886288628",
"^  c #885388538853",
"/  c #89F089F089F0",
"(  c #8BF38BF38BF3",
")  c #8D168D168D16",
"_  c #8DC38DC38DC3",
"`  c #8F608F608F60",
"'  c #918991899189",
"]  c #92A292A292A2",
"[  c #948B948B948B",
"{  c #94EA94EA94EA",
"}  c #974B974B974B",
"|  c #980798079807",
" . c #998C998C998C",
".. c #99B899B899B8",
"X. c #9AA59AA59AA5",
"o. c #A243A243A243",
"O. c #A2DAA2DAA2DA",
"+. c #A66EA66EA66E",
"@. c #A747A747A747",
"#. c #A95DA95DA95D",
"$. c #ABC4ABC4ABC4",
"%. c #AD0DAD0DAD0D",
"&. c #AEBDAEBDAEBD",
"*. c #B138B138B138",
"=. c #B1F3B1F3B1F3",
"-. c #B37BB37BB37B",
";. c #B3E8B3E8B3E8",
":. c #B574B574B574",
">. c #B5F7B5F7B5F7",
",. c #B6DAB6DAB6DA",
"<. c #B838B838B838",
"1. c #B8C7B8C7B8C7",
"2. c #BA37BA37BA37",
"3. c #BB57BB57BB57",
"4. c #BCB0BCB0BCB0",
"5. c #BEA0BEA0BEA0",
"6. c #BEFDBEFDBEFD",
"7. c #C090C090C090",
"8. c #C165C165C165",
"9. c #C20EC20EC20E",
"0. c #C343C343C343",
"q. c #C60AC60AC60A",
"w. c #C71BC71BC71B",
"e. c #CC03CC03CC03",
"r. c #CD1FCD1FCD1F",
"t. c #CF3BCF3BCF3B",
"y. c #D03AD03AD03A",
"u. c #D54DD54DD54D",
"i. c #D75CD75CD75C",
"p. c #D8B0D8B0D8B0",
"a. c #D935D935D935",
"s. c #DD9DDD9DDD9D",
"d. c #DE93DE93DE93",
"f. c #DF7DDF7DDF7D",
"g. c #E011E011E011",
"h. c #E653E653E653",
"j. c #E79DE79DE79D",
"k. c #EC02EC02EC02",
"l. c #EFBEEFBEEFBE",
/* pixels */
"E E E E E E E E E E E E E E E E E     E E E E E E E E E E E E E E E E E ",
"E E E E E E E E E E E E E E E E E     E E E E E E E E E E E E E E E E E ",
"E E E E E E E E E E E E E E t.t.w.w.w.t.i.t.E E E E E E E E E E E E E E ",
"E E E E E E E E E E E t.w.t.t.t.t.t.t.i.i.i.i.t.i.E E E E E E E E E E E ",
"E E E E E E E E E t.w.t.t.t.t.t.t.t.i.i.i.i.i.i.i.t.t.E E E E E E E E E ",
"E E E E E E E E t.w.w.t.t.t.t.t.t.i.i.i.f.f.f.f.i.i.t.t.E E E E E E E E ",
"E E E E E E E t.w.w.w.w.t.t.t.t.t.i.i.f.f.f.f.f.f.f.i.i.t.E E E E E E E ",
"E E E E E E t.w.w.w.w.w.t.t.t.t.i.i.f.f.f.j.j.j.j.f.f.i.i.t.E E E E E E ",
"E E E E E y.w.w.w.w.w.w.w.t.t.t.i.i.g.g.j.j.j.j.j.j.f.f.f.i.t.E E E E E ",
"E E E T  .M m ) 6.w.w.w.w. .f f k k x v v  .l.l.l.j.1.Z x C &.t.E E E E ",
"E E K     +       ) w.w.w.u               r l.l.i.=   #   #   2 U E E E ",
"E E     #     #     <.w.w.=               r l.k.#   #         # 2 E E E ",
"E J       *.*.%   + / w.w.      *.,.1.8.6.a.l.*.      6.y.|       I E E ",
"E D   # B 7.6.B #   f w.6.    ; a.i.f.f.j.l.l.B     +.j.f.f.8   # H E E ",
"E q     S 6.6.g # # B w.&.    a 8 > k  .j.j.j.s     w.j.f.f.5      .E E ",
"E E ,.,.| = #       *.7.|     #         & i.j.f.i.i.j.f.f.Z       1.E E ",
"E E ,.,./         > #.6.C # #   r 9   # # 2 f.j.j.f.f.#.$       Q w.E E ",
"    &.,.o.u e #       1.Q 5 5 *.y.t.8.      8.f.f.t.9     #   / t.w.    ",
"    r y ) &.,.,.>     [ 6.w.w.w.w.t.t.r     [ i.,.    #   k 6.t.w.w.    ",
"E q   # x &.,.,.8     !       8.w.w.t.1     o.t.      e 6.t.t.t.w.w.E E ",
"E H       | o.!       #.>     f *.,.V       8.Z     v &.#.&.&.#.+.6.E E ",
"E Y     #           4 6.[     #           B t.;                   Q E E ",
"E E P             2 &.,.6.Q             v w.w.                  # F E E ",
"E E E #.! k a B ) ,.,.,.,.6.,./ v x ) *.w.w.w.k s f s f s f f f f P E E ",
"E E E *.&.&.&.&.&.&.,.,.,.,.6.6.6.6.6.6.w.w.w.w.w.w.w.w.w.t.t.t.t.E E E ",
"E E E E &.&.&.&.&.&.&.,.,.,.,.,.6.6.6.6.6.w.w.w.w.w.w.w.w.t.t.t.E E E E ",
"E E E E ,.&.&.&.&.&.&.,.,.,.,.,.,.6.6.6.6.6.6.6.6.6.w.w.w.t.t.t.E E E E ",
"E E E E E &.&.&.&.&.&.&.&.,.,.,.,.,.6.6.6.6.6.6.6.6.w.w.t.t.t.E E E E E ",
"E E E E E E &.&.&.&.&.&.&.&.,.,.,.,.,.,.,.,.,.6.6.6.w.w.t.t.E E E E E E ",
"E E E E E E E &.&.&.&.&.&.&.&.&.&.,.,.,.,.,.,.,.6.6.w.w.t.E E E E E E E ",
"E E E E E E E E &.&.&.&.&.&.&.&.&.&.&.,.,.,.,.,.6.6.w.w.E E E E E E E E ",
"E E E E E E E E E &.&.&.&.&.&.&.&.&.&.&.,.,.,.,.6.6.w.E E E E E E E E E ",
"E E E E E E E E E E E &.&.&.&.&.&.&.&.&.&.,.,.6.,.E E E E E E E E E E E ",
"E E E E E E E E E E E E E E &.&.&.&.&.&.,.,.E E E E E E E E E E E E E E ",
"E E E E E E E E E E E E E E E E E     E E E E E E E E E E E E E E E E E ",
"E E E E E E E E E E E E E E E E E     E E E E E E E E E E E E E E E E E "
};
