/* XPM */
static char *wmoku-0-LB-105[] = {
/* columns rows colors chars-per-pixel */
"36 36 121 2",
"   c #000200020002",
".  c #013501350135",
"X  c #025002500250",
"o  c #03E403E403E4",
"O  c #04E204E204E2",
"+  c #05AD05AD05AD",
"@  c #064906490649",
"#  c #087808780878",
"$  c #0A450A450A45",
"%  c #0BB10BB10BB1",
"&  c #0C270C270C27",
"*  c #0DA10DA10DA1",
"=  c #0E830E830E83",
"-  c #0F670F670F67",
";  c #109A109A109A",
":  c #116311631163",
">  c #12A812A812A8",
",  c #134613461346",
"<  c #14CE14CE14CE",
"1  c #15D615D615D6",
"2  c #165016501650",
"3  c #177817781778",
"4  c #186718671867",
"5  c #1ADC1ADC1ADC",
"6  c #1CA61CA61CA6",
"7  c #1D8A1D8A1D8A",
"8  c #1E3E1E3E1E3E",
"9  c #1F871F871F87",
"0  c #205C205C205C",
"q  c #21FE21FE21FE",
"w  c #22FA22FA22FA",
"e  c #24F124F124F1",
"r  c #25DC25DC25DC",
"t  c #28B428B428B4",
"y  c #29F329F329F3",
"u  c #2AC82AC82AC8",
"i  c #2D922D922D92",
"p  c #2FD12FD12FD1",
"a  c #32BA32BA32BA",
"s  c #3AC53AC53AC5",
"d  c #3B803B803B80",
"f  c #3C993C993C99",
"g  c #42C742C742C7",
"h  c #463B463B463B",
"j  c #4BA04BA04BA0",
"k  c #4C9E4C9E4C9E",
"l  c #508D508D508D",
"z  c #524652465246",
"x  c #529852985298",
"c  c #535853585358",
"v  c #552C552C552C",
"b  c #571C571C571C",
"n  c #5AA65AA65AA6",
"m  c #5B7F5B7F5B7F",
"M  c #5CAE5CAE5CAE",
"N  c #5E2B5E2B5E2B",
"B  c #5E9C5E9C5E9C",
"V  c #61C761C761C7",
"C  c #655565556555",
"Z  c #672C672C672C",
"A  c #68E568E568E5",
"S  c #69AD69AD69AD",
"D  c #6AE76AE76AE7",
"F  c #6C596C596C59",
"G  c #6F3B6F3B6F3B",
"H  c #713A713A713A",
"J  c #732673267326",
"K  c #762B762B762B",
"L  c #7A6D7A6D7A6D",
"P  c #7C727C727C72",
"I  c #7D967D967D96",
"U  c #CEAE9F8B4144",
"Y  c #DE3CAB8C462E",
"T  c #E79DB2CA4924",
"R  c #8C208C208C20",
"E  c #922E922E922E",
"W  c #93BE93BE93BE",
"Q  c #94E894E894E8",
"!  c #972497249724",
"~  c #998799879987",
"^  c #9BA59BA59BA5",
"/  c #9E009E009E00",
"(  c #9EDB9EDB9EDB",
")  c #A219A219A219",
"_  c #A373A373A373",
"`  c #A3B3A3B3A3B3",
"'  c #A539A539A539",
"]  c #A7A3A7A3A7A3",
"[  c #A84FA84FA84F",
"{  c #A910A910A910",
"}  c #AA39AA39AA39",
"|  c #AC23AC23AC23",
" . c #AE8DAE8DAE8D",
".. c #AEBCAEBCAEBC",
"X. c #B005B005B005",
"o. c #B190B190B190",
"O. c #B3D3B3D3B3D3",
"+. c #B629B629B629",
"@. c #B6DFB6DFB6DF",
"#. c #B91AB91AB91A",
"$. c #BA7ABA7ABA7A",
"%. c #BB9BBB9BBB9B",
"&. c #BCE0BCE0BCE0",
"*. c #BE6DBE6DBE6D",
"=. c #BEFCBEFCBEFC",
"-. c #C14CC14CC14C",
";. c #C260C260C260",
":. c #C2F4C2F4C2F4",
">. c #C4FBC4FBC4FB",
",. c #C71BC71BC71B",
"<. c #C84DC84DC84D",
"1. c #C93CC93CC93C",
"2. c #CE1FCE1FCE1F",
"3. c #CF3BCF3BCF3B",
"4. c #D4ACD4ACD4AC",
"5. c #D75CD75CD75C",
"6. c #DF7CDF7CDF7C",
"7. c #E567E567E567",
"8. c #E79DE79DE79D",
"9. c #EDCFEDCFEDCF",
"0. c #EFA6EFA6EFA6",
/* pixels */
"T T T T T T T T T T T T T T T T T     T T T T T T T T T T T T T T T T T ",
"T T T T T T T T T T T T T T T T T     T T T T T T T T T T T T T T T T T ",
"T T T T T T T T T T T T T T 3.3.,.,.,.3.5.3.T T T T T T T T T T T T T T ",
"T T T T T T T T T T T 3.,.3.3.3.3.3.3.5.5.5.5.3.5.T T T T T T T T T T T ",
"T T T T T T T T T 3.,.3.3.3.3.3.3.3.5.5.5.5.5.5.5.3.3.T T T T T T T T T ",
"T T T T T T T T 3.,.,.3.3.3.3.3.3.5.5.5.6.6.6.6.5.5.3.3.T T T T T T T T ",
"T T T T T T T 3.,.,.,.,.3.3.3.3.3.5.5.6.6.6.6.6.6.6.5.5.3.T T T T T T T ",
"T T T T T T 3.,.,.,.,.<.3.3.3.3.5.5.6.6.6.8.8.8.8.6.6.5.5.3.T T T T T T ",
"T T T T T 3.,.,.,.,.,.,.,.3.3.3.5.5.6.6.8.8.8.8.8.8.6.6.6.5.3.T T T T T ",
"T T T T 3.,.( b B ,.,.,.,.3.<.W A G { 8.8.0.0.0.A C C V V V B m Y T T T ",
"T T T T 3.,.4 *   ,.,.,.,.]       #   : 3.0.0.5.                U T T T ",
"T T T <.X.A   4   ,.,.,.=.    :       w u 0.0.`   :             $.T T T ",
"T T T         4   =.,.,.c   w   $. .      $.0.H   # ] :.$.$.X.@.5.T T T ",
"T T T         4   =.,.,.#     W 5.5.j   a B 0.g     :.8.6.6.5.5.5.T T T ",
"T T @.E E E   4   =.=.,.      ,.3.5.^   i 4 8.9     B u h I :.5.3.,.T T ",
"T T @.@.@.@.  4   =.=.=.  1   <.3.3.$.  w   8.  @         *   K 3.,.T T ",
"T T @.@.@.@.  4   =.=.=.  4   :.3.3.,.  9   6.  @   w m 4   @   ` ,.T T ",
"     .@.@.@.  4   =.=.=.  1   :.3.3.X.  9   6.s s I 6.5.5.c   u s ,.    ",
"     . . . .  4   =.=.=.  @   =.,.3.^   e u 5.5.5.5.5.5.5.$.  9   ,.    ",
"T T  . . . .  1   @.=.=.#     E ,.,.k   e c A     R 5.5.3.(   9 : ,.T T ",
"T T  . . . .  4   @.=.=.m   w * @. .       .^   w   ` ,. .*   9 b ,.T T ",
"T T X. . .X.  1   @.@.=.$.    *       : 9 3.3.:   *         1   $.,.T T ",
"T T T  . . .  #   @.@.@.=.] @     @   a =.,.,.=.9       @   4 { ,.T T T ",
"T T T  . .X.k k c @.@.@.@.=.$.W A H ` ,.,.,.,.,.,.{ H m L ` 3.3.3.T T T ",
"T T T  . . .X. . . .@.@.@.@.=.=.=.=.=.=.,.,.,.,.,.,.,.,.,.3.3.3.3.T T T ",
"T T T T  . . . .X. . .@.@.@.@.@.=.=.=.=.=.,.,.,.,.,.,.,.,.3.3.3.T T T T ",
"T T T T @.X. . . . . .@.@.@.@.@.@.=.=.=.=.=.=.=.=.=.,.,.,.3.3.3.T T T T ",
"T T T T T  . . . . . .X. .@.@.@.@.@.=.=.=.=.=.=.=.=.,.,.3.3.3.T T T T T ",
"T T T T T T  . . . . . . . .@.@.@.@.@.@.@.@.@.=.=.=.,.,.3.3.T T T T T T ",
"T T T T T T T  . . . . . . . . . .@.@.@.@.@.@.@.=.=.,.,.3.T T T T T T T ",
"T T T T T T T T  .X. . . . . . . . . .@.@.@.@.@.=.=.,.,.T T T T T T T T ",
"T T T T T T T T T  . . . .X. . . . . . .@.@.@.@.=.=.,.T T T T T T T T T ",
"T T T T T T T T T T T  . . . .X. . . . . .@.@.=.@.T T T T T T T T T T T ",
"T T T T T T T T T T T T T T  . . . . .X.@.@.T T T T T T T T T T T T T T ",
"T T T T T T T T T T T T T T T T T     T T T T T T T T T T T T T T T T T ",
"T T T T T T T T T T T T T T T T T     T T T T T T T T T T T T T T T T T "
};
