/* XPM */
static char *wmoku-0-LB-61[] = {
/* columns rows colors chars-per-pixel */
"36 36 82 1",
"  c #000500050005",
". c #016501650165",
"X c #028802880288",
"o c #038403840384",
"O c #048004800480",
"+ c #058E058E058E",
"@ c #067C067C067C",
"# c #088B088B088B",
"$ c #0B5A0B5A0B5A",
"% c #1B901B901B90",
"& c #213D213D213D",
"* c #2A222A222A22",
"= c #2A9B2A9B2A9B",
"- c #36B836B836B8",
"; c #40C740C740C7",
": c #428A428A428A",
"> c #468B468B468B",
", c #4E1E4E1E4E1E",
"< c #501050105010",
"1 c #52B052B052B0",
"2 c #559955995599",
"3 c #571C571C571C",
"4 c #57D957D957D9",
"5 c #5ACC5ACC5ACC",
"6 c #5E385E385E38",
"7 c #5EED5EED5EED",
"8 c #61A761A761A7",
"9 c #643964396439",
"0 c #655565556555",
"q c #671A671A671A",
"w c #67E067E067E0",
"e c #68E168E168E1",
"r c #6E5D6E5D6E5D",
"t c #74D274D274D2",
"y c #7B4E7B4E7B4E",
"u c #7CEC7CEC7CEC",
"i c #7E357E357E35",
"p c #804D804D804D",
"a c #E79DB2CA4924",
"s c #820782078207",
"d c #82AC82AC82AC",
"f c #842F842F842F",
"g c #863886388638",
"h c #8A398A398A39",
"j c #8B6D8B6D8B6D",
"k c #8C6C8C6C8C6C",
"l c #8CFF8CFF8CFF",
"z c #90D890D890D8",
"x c #93D093D093D0",
"c c #95F295F295F2",
"v c #981D981D981D",
"b c #9B4D9B4D9B4D",
"n c #A049A049A049",
"m c #A324A324A324",
"M c #A558A558A558",
"N c #A66CA66CA66C",
"B c #AB0DAB0DAB0D",
"V c #ADE0ADE0ADE0",
"C c #AEBBAEBBAEBB",
"Z c #B145B145B145",
"A c #B1D3B1D3B1D3",
"S c #B4A6B4A6B4A6",
"D c #B4FAB4FAB4FA",
"F c #B5EEB5EEB5EE",
"G c #B6DAB6DAB6DA",
"H c #B8A6B8A6B8A6",
"J c #B920B920B920",
"K c #BA2DBA2DBA2D",
"L c #BAFEBAFEBAFE",
"P c #BE66BE66BE66",
"I c #BEFDBEFDBEFD",
"U c #C057C057C057",
"Y c #C46FC46FC46F",
"T c #C52BC52BC52B",
"R c #C71AC71AC71A",
"E c #CF3CCF3CCF3C",
"W c #D69AD69AD69A",
"Q c #D75CD75CD75C",
"! c #DED0DED0DED0",
"~ c #DF7DDF7DDF7D",
"^ c #E79DE79DE79D",
"/ c #EFBAEFBAEFBA",
/* pixels */
"aaaaaaaaaaaaaaaaa  aaaaaaaaaaaaaaaaa",
"aaaaaaaaaaaaaaaaa  aaaaaaaaaaaaaaaaa",
"aaaaaaaaaaaaaaEERRREQEaaaaaaaaaaaaaa",
"aaaaaaaaaaaEREEEEEEQQQQEQaaaaaaaaaaa",
"aaaaaaaaaEREEEEEEEQQQQQQQEEaaaaaaaaa",
"aaaaaaaaERREEEEEEQQQ~~~~QQEEaaaaaaaa",
"aaaaaaaERRRREEEEEQQ~~~~~~~QQEaaaaaaa",
"aaaaaaERRRRREEEEQQ~~~^^^^~~QQEaaaaaa",
"aaaaaERRRRRRREEEQQ~~^^^^^^~~~QEaaaaa",
"aaaaERRRRRHd7uMEQQ~^^/reR^^~~~QEaaaa",
"aaaaERRRUd   O >QQ~^^E #b/^^~~QQaaaa",
"aaaERRRIz       uQ~QH&OOb/^^~~QQEaaa",
"aaaRRRRI#  7Gk   Qe  O #b//^~~QQQaaa",
"aaaRIIIM   RRR$  R9    Ob/^^~~QQQaaa",
"aaGIIIIdO 2g7tbEEQUVS9 Ob^^^~~QQERaa",
"aaGGGGG9 #     =UEQ~~9 Oc^^~~QQQERaa",
"aaGGGGG5  O % OO-EQQ~8 Ob~~~~QQEERaa",
"  VGGGG5  #GUH   GEQQ7 Ok~~QQQEEER  ",
"  SVVVG9OOrIIR:  cEEE7 #kQQQQQEERR  ",
"aaVVVVGh O2III=  cEEE5 OkQQQEEEERRaa",
"aaVVVSVV   gSy   GREE5 OgEEEEEEERRaa",
"aaSVVVVV8       5RRRR5 OgEEEEEERRRaa",
"aaaVVVVVV: O   ,HRRRR2 OgEEEEEEERaaa",
"aaaVVSVVVGbe,umIUIRRRk52mRRRREEEEaaa",
"aaaVVVSVVVHGGGIIIIIIRRRRRRRRREEEEaaa",
"aaaaVVVVVVVGGGGGIIIIIRRRRRRRREEEaaaa",
"aaaaGVVVVVVHGGGGGIIIIIIIIIRRREEEaaaa",
"aaaaaSVVSVVVVHGGGGIIIIIIIIRREEEaaaaa",
"aaaaaaVVSVVVVSGHGGGGGGGIIIRREEaaaaaa",
"aaaaaaaVVVVVVVVVVGGGGGGGIIRREaaaaaaa",
"aaaaaaaaVVVSVVVVVSVHGGGGIIRRaaaaaaaa",
"aaaaaaaaaVVVVVVVVVVVGGGGIIRaaaaaaaaa",
"aaaaaaaaaaaVVVSVVSVVVGGIGaaaaaaaaaaa",
"aaaaaaaaaaaaaaVVVVVVGGaaaaaaaaaaaaaa",
"aaaaaaaaaaaaaaaaa  aaaaaaaaaaaaaaaaa",
"aaaaaaaaaaaaaaaaa  aaaaaaaaaaaaaaaaa"
};
