/* XPM */
static char *wmoku-0-LB-190[] = {
/* columns rows colors chars-per-pixel */
"36 36 119 2",
"   c #000500050005",
".  c #015F015F015F",
"X  c #04B204B204B2",
"o  c #05B405B405B4",
"O  c #068B068B068B",
"+  c #08C008C008C0",
"@  c #09B309B309B3",
"#  c #0AA00AA00AA0",
"$  c #0BC30BC30BC3",
"%  c #0C0E0C0E0C0E",
"&  c #0D530D530D53",
"*  c #0E510E510E51",
"=  c #0F200F200F20",
"-  c #103D103D103D",
";  c #119811981198",
":  c #125112511251",
">  c #133213321332",
",  c #156A156A156A",
"<  c #165016501650",
"1  c #176617661766",
"2  c #186618661866",
"3  c #1ACC1ACC1ACC",
"4  c #1C111C111C11",
"5  c #1D191D191D19",
"6  c #1D981D981D98",
"7  c #1EBB1EBB1EBB",
"8  c #1FB61FB61FB6",
"9  c #20A620A620A6",
"0  c #219D219D219D",
"q  c #22E522E522E5",
"w  c #24F124F124F1",
"e  c #25F125F125F1",
"r  c #26F626F626F6",
"t  c #289328932893",
"y  c #2A8A2A8A2A8A",
"u  c #2B9F2B9F2B9F",
"i  c #2C762C762C76",
"p  c #2D9D2D9D2D9D",
"a  c #32D732D732D7",
"s  c #34BF34BF34BF",
"d  c #41D141D141D1",
"f  c #429E429E429E",
"g  c #443144314431",
"h  c #495D495D495D",
"j  c #4BA64BA64BA6",
"k  c #4C8C4C8C4C8C",
"l  c #4D644D644D64",
"z  c #4FF64FF64FF6",
"x  c #50EA50EA50EA",
"c  c #529852985298",
"v  c #537953795379",
"b  c #552355235523",
"n  c #571C571C571C",
"m  c #5E385E385E38",
"M  c #645364536453",
"N  c #672C672C672C",
"B  c #6CEC6CEC6CEC",
"V  c #6F1A6F1A6F1A",
"C  c #6FF46FF46FF4",
"Z  c #70BC70BC70BC",
"A  c #736E736E736E",
"S  c #762176217621",
"D  c #7E677E677E67",
"F  c #7F727F727F72",
"G  c #E79DB2CA4924",
"H  c #812C812C812C",
"J  c #8FEB8FEB8FEB",
"K  c #922F922F922F",
"L  c #93B493B493B4",
"P  c #963C963C963C",
"I  c #975F975F975F",
"U  c #98B298B298B2",
"Y  c #9D519D519D51",
"T  c #9E1B9E1B9E1B",
"R  c #9EDB9EDB9EDB",
"E  c #A185A185A185",
"W  c #A244A244A244",
"Q  c #A517A517A517",
"!  c #A66DA66DA66D",
"~  c #A86AA86AA86A",
"^  c #A95FA95FA95F",
"/  c #AA27AA27AA27",
"(  c #AC24AC24AC24",
")  c #AEBAAEBAAEBA",
"_  c #B038B038B038",
"`  c #B24FB24FB24F",
"'  c #B349B349B349",
"]  c #B656B656B656",
"[  c #B6DCB6DCB6DC",
"{  c #B887B887B887",
"}  c #B9E8B9E8B9E8",
"|  c #BD99BD99BD99",
" . c #BE2FBE2FBE2F",
".. c #BEFCBEFCBEFC",
"X. c #C1BEC1BEC1BE",
"o. c #C1EFC1EFC1EF",
"O. c #C392C392C392",
"+. c #C55BC55BC55B",
"@. c #C71BC71BC71B",
"#. c #C84DC84DC84D",
"$. c #C90CC90CC90C",
"%. c #CAF5CAF5CAF5",
"&. c gray80",
"*. c #CE96CE96CE96",
"=. c #CF3CCF3CCF3C",
"-. c #D001D001D001",
";. c #D54ED54ED54E",
":. c #D75CD75CD75C",
">. c #D935D935D935",
",. c #D9E4D9E4D9E4",
"<. c #DD58DD58DD58",
"1. c #DF7DDF7DDF7D",
"2. c #E0DDE0DDE0DD",
"3. c #E0F4E0F4E0F4",
"4. c #E420E420E420",
"5. c #E54BE54BE54B",
"6. c #E79DE79DE79D",
"7. c #ED25ED25ED25",
"8. c #EFBEEFBEEFBE",
/* pixels */
"G G G G G G G G G G G G G G G G G     G G G G G G G G G G G G G G G G G ",
"G G G G G G G G G G G G G G G G G     G G G G G G G G G G G G G G G G G ",
"G G G G G G G G G G G G G G =.=.@.@.@.=.:.=.G G G G G G G G G G G G G G ",
"G G G G G G G G G G G =.@.=.=.=.=.=.=.:.:.:.:.=.:.G G G G G G G G G G G ",
"G G G G G G G G G =.@.=.=.=.=.=.=.=.:.:.:.:.:.:.:.=.=.G G G G G G G G G ",
"G G G G G G G G =.@.@.=.=.=.=.=.=.:.:.:.1.1.1.1.:.:.=.=.G G G G G G G G ",
"G G G G G G G =.@.@.@.@.=.=.=.=.=.:.:.1.1.1.1.1.1.1.:.:.=.G G G G G G G ",
"G G G G G G =.@.@.@.@.@.=.=.=.=.:.:.1.1.1.6.6.6.6.1.1.:.:.=.G G G G G G ",
"G G G G G =.@.@.@.@.@.@.@.=.=.=.:.:.1.1.6.6.6.6.6.6.3.1.1.:.=.G G G G G ",
"G G G G =.@.R n m @.@.@.@.=.O.I V V / 6.6.8.8.8.8.3.Q V A / :.=.G G G G ",
"G G G G =.@.2 &   @.@.@.@.F       @   & =.8.8.8.O.      @   > O.G G G G ",
"G G G #.` N   2   @.@.@.K     &       9 @ 8.8.6.    >       8 w =.G G G ",
"G G G         2   ..@.@.@   2 k O.} @     / 8.M   y   @.`       Q G G G ",
"G G G         2   ..@.@.  @   @.:.:.E   a j 8.@     Q 6.3.j   i n G G G ",
"G G [ K K K   2   ....@.  <   #.=.:...  y   6.  X   ,.6.1.E   y < @.G G ",
"G G [ [ [ [   2   ......      Q =.=.m   8   6.  2   3.1.1.}   9   @.G G ",
"G G [ [ [ [   2   ......n   2   d 9     8   1.  8   1.1.1.@.  2   @.G G ",
"    ( } [ [   <   ........i       @     9   1.  2   ,.:.:.[   8   #.    ",
"    ` ( ( `   2   ........@.K x 9 d H   i y ,.  X   #.:.:.R   w w #.    ",
"G G ( ( ` (   <   [ ....2     ` @.@.g   9 N =.@     R ,.=.k   w k @.G G ",
"G G ` ( ` (   2   [ ....s   < k [ I   X   ` =.M   w & ..[       Q #.G G ",
"G G ( ` ( `   <   [ [ ..U     @       X x =.=.#.    &       > 8 @.@.G G ",
"G G G ( ` (   &   [ [ [ ..V       @   x @.@.@.@.[ X     X   a @.@.G G G ",
"G G G ` ( ( k k x [ [ [ [ ..` F n V ( #.@.@.@.@.@...R V S / =.=.=.G G G ",
"G G G ( ` ` ( ` ` ( [ [ [ [ ............@.@.@.@.@.@.@.@.@.=.=.=.=.G G G ",
"G G G G ( ( ` ( ( ` ( } [ [ [ [ ..........@.@.@.@.@.@.@.@.=.=.=.G G G G ",
"G G G G } ( ( ( ` ( ( } [ [ [ [ [ ..................@.@.@.=.=.=.G G G G ",
"G G G G G ` ( ` ( ( ` ( ( } [ [ [ [ ................@.@.=.=.=.G G G G G ",
"G G G G G G ( ( ` ( ` ` ( ( [ } [ [ [ [ [ [ [ ......@.@.=.=.G G G G G G ",
"G G G G G G G ` ( ( ( ( ` ` ( ( ( } [ [ [ [ [ [ ....@.@.=.G G G G G G G ",
"G G G G G G G G ( ` ` ( ( ` ( ` ` ( ( } [ [ [ [ ....@.@.G G G G G G G G ",
"G G G G G G G G G ` ( ( ` ( ( ` ( ( ` ( [ [ [ [ ....@.G G G G G G G G G ",
"G G G G G G G G G G G ( ` ( ( ` ( ( ` ( ` [ [ ..[ G G G G G G G G G G G ",
"G G G G G G G G G G G G G G ` ( ` ( ( ` [ [ G G G G G G G G G G G G G G ",
"G G G G G G G G G G G G G G G G G     G G G G G G G G G G G G G G G G G ",
"G G G G G G G G G G G G G G G G G     G G G G G G G G G G G G G G G G G "
};
