/* XPM */
static char *wmoku-0-LB-127[] = {
/* columns rows colors chars-per-pixel */
"36 36 101 2",
"   c #000300030003",
".  c #017701770177",
"X  c #02D502D502D5",
"o  c #03A403A403A4",
"O  c #052C052C052C",
"+  c #069006900690",
"@  c #077607760776",
"#  c #0A980A980A98",
"$  c #0B920B920B92",
"%  c #0C5C0C5C0C5C",
"&  c #0D830D830D83",
"*  c #0E490E490E49",
"=  c #0FD30FD30FD3",
"-  c #117F117F117F",
";  c #165016501650",
":  c #175917591759",
">  c #186818681868",
",  c #195A195A195A",
"<  c #1ACF1ACF1ACF",
"1  c #1CA31CA31CA3",
"2  c #219421942194",
"3  c #225822582258",
"4  c #253125312531",
"5  c #269826982698",
"6  c #273C273C273C",
"7  c #297229722972",
"8  c #2AA32AA32AA3",
"9  c #2BAB2BAB2BAB",
"0  c #2CA42CA42CA4",
"q  c #313531353135",
"w  c #390C390C390C",
"e  c #3ADE3ADE3ADE",
"r  c #3E8E3E8E3E8E",
"t  c #6A9F524E21AC",
"y  c #495749574957",
"u  c #4C714C714C71",
"i  c #4E0B4E0B4E0B",
"p  c #4FFF4FFF4FFF",
"a  c #52E652E652E6",
"s  c #538E538E538E",
"d  c #562756275627",
"f  c #571C571C571C",
"g  c #579257925792",
"h  c #5AAA5AAA5AAA",
"j  c #5E265E265E26",
"k  c #5E9B5E9B5E9B",
"l  c #61C761C761C7",
"z  c #655565556555",
"x  c #66E066E066E0",
"c  c #68FA68FA68FA",
"v  c #6AD66AD66AD6",
"b  c #6E7B6E7B6E7B",
"n  c #713971397139",
"m  c #739873987398",
"M  c #79E579E579E5",
"N  c #7AE17AE17AE1",
"B  c #E79DB2CA4924",
"V  c #812C812C812C",
"C  c #835783578357",
"Z  c #83E083E083E0",
"A  c #866286628662",
"S  c #893C893C893C",
"D  c #922F922F922F",
"F  c #93E093E093E0",
"G  c #982398239823",
"H  c #98E098E098E0",
"J  c #9A6C9A6C9A6C",
"K  c #9EDB9EDB9EDB",
"L  c #A167A167A167",
"P  c #A241A241A241",
"I  c #A63FA63FA63F",
"U  c #AD08AD08AD08",
"Y  c #ADE4ADE4ADE4",
"T  c #AEBCAEBCAEBC",
"R  c #B005B005B005",
"E  c #B1F3B1F3B1F3",
"W  c #B42CB42CB42C",
"Q  c #B6E0B6E0B6E0",
"!  c #B849B849B849",
"~  c #B92EB92EB92E",
"^  c #BA57BA57BA57",
"/  c #BBE5BBE5BBE5",
"(  c #BD2FBD2FBD2F",
")  c #BE39BE39BE39",
"_  c #BEFABEFABEFA",
"`  c #C11AC11AC11A",
"'  c #C1CEC1CEC1CE",
"]  c #C60EC60EC60E",
"[  c #C71AC71AC71A",
"{  c #C833C833C833",
"}  c #C8CCC8CCC8CC",
"|  c #CEBCCEBCCEBC",
" . c #CF3CCF3CCF3C",
".. c #D14DD14DD14D",
"X. c #D4FFD4FFD4FF",
"o. c #D75BD75BD75B",
"O. c #D9BCD9BCD9BC",
"+. c #DF7DDF7DDF7D",
"@. c #E1ADE1ADE1AD",
"#. c #E79DE79DE79D",
"$. c #EFB6EFB6EFB6",
/* pixels */
"B B B B B B B B B B B B B B B B B     B B B B B B B B B B B B B B B B B ",
"B B B B B B B B B B B B B B B B B     B B B B B B B B B B B B B B B B B ",
"B B B B B B B B B B B B B B  . .[ [ [  .o. .B B B B B B B B B B B B B B ",
"B B B B B B B B B B B  .[  . . . . . .o.o.o.o. .o.B B B B B B B B B B B ",
"B B B B B B B B B  .[  . . . . . . .o.o.o.o.o.o.o. . .B B B B B B B B B ",
"B B B B B B B B  .[ [  . . . . . .o.o.o.+.+.+.+.o.o. . .B B B B B B B B ",
"B B B B B B B  .[ [ [ [  . . . . .o.o.+.+.+.+.+.+.+.o.o. .B B B B B B B ",
"B B B B B B  .[ [ [ [ [  . . . .o.o.+.+.+.#.#.#.#.+.+.o.o. .B B B B B B ",
"B B B B B  .[ [ [ [ [ [ [  . . .o.o.+.@.#.#.#.#.#.#.+.+.+.o. .B B B B B ",
"B B B B  .[ K f j [ [ [ [  ._ A x x G o.#.$.@.x x x x l l l j h t B B B ",
"B B B B  .[ , &   [ [ [ { j       $ @   H $.Q                 $   B B B ",
"B B B { E x   :   [ [ [ b   @         -   ' _                 3   B B B ",
"B B B         ,   _ [ [       m { _ 1   0 r $.{ { { { ' / 0     P B B B ",
"B B B         :   _ [ /   3    .o.o.Q   3   $.$.$.$.#.#.C   & x o.B B B ",
"B B Q D D D   ,   _ _ E     0  ...o.P   5 $ #.$.$.#.#.o.  5   .. .[ B B ",
"B B Q Q Q Q   ,   _ _ _ / Q _  . .E     - N #.#.#.#.#.e     P o. .[ B B ",
"B B Q Q Q Q   ,   _ _ _ [ [ [ / i     , - o.+.#.#.+./   8 0 o. . .[ B B ",
"    U / Q Q   :   _ _ _ _ [ N     &   e { o.+.+.+.+.8     U  . . .[     ",
"    U U U U   :   _ _ _ _ e   $   & H  . .o.o.o.o._   8 - o. . .[ [     ",
"B B E U U E   :   Q _ _ y   ,   S [  . . . . .o.o.f   & C  . . .[ [ B B ",
"B B U U E U   :   Q _ /   ,   I I I I U U U  . . .$     _  . . .[ [ B B ",
"B B U E U U   :   Q Q C   &                  . ./   5 @  . . .[ [ [ B B ",
"B B B U U E   &   Q Q f                 &   [ [ b   8 s  . . . .[ B B B ",
"B B B E U U i y s Q Q D i s s s s s f f h j [ [ K f f H [  . . . .B B B ",
"B B B U U U E U E U Q Q Q Q _ _ _ _ _ _ [ [ [ [ [ [ [ [ [  . . . .B B B ",
"B B B B E U U E U U U / Q Q Q Q _ _ _ _ _ [ [ [ [ [ [ [ [  . . .B B B B ",
"B B B B Q U U E U E U Q Q Q Q Q Q _ _ _ _ _ _ _ _ _ [ [ [  . . .B B B B ",
"B B B B B E U U U E U E U Q Q Q Q Q _ _ _ _ _ _ _ _ [ [  . . .B B B B B ",
"B B B B B B U E U E U U U U Q Q Q Q Q Q Q Q Q _ _ _ [ [  . .B B B B B B ",
"B B B B B B B U U E U E E E U U U Q Q Q Q Q Q Q _ _ [ [  .B B B B B B B ",
"B B B B B B B B U U U E U U U E E U U / Q Q Q Q _ _ [ [ B B B B B B B B ",
"B B B B B B B B B E U U U E U E U U U U Q Q Q Q _ _ [ B B B B B B B B B ",
"B B B B B B B B B B B U E U U E U E U U U / Q _ Q B B B B B B B B B B B ",
"B B B B B B B B B B B B B B U U U E U E Q Q B B B B B B B B B B B B B B ",
"B B B B B B B B B B B B B B B B B     B B B B B B B B B B B B B B B B B ",
"B B B B B B B B B B B B B B B B B     B B B B B B B B B B B B B B B B B "
};
