/* XPM */
static char *wmoku-0-LB-20[] = {
/* columns rows colors chars-per-pixel */
"36 36 111 2",
"   c #000500050005",
".  c #01A701A701A7",
"X  c #02DC02DC02DC",
"o  c #04AC04AC04AC",
"O  c #059C059C059C",
"+  c #06CA06CA06CA",
"@  c #09F409F409F4",
"#  c #0A290A290A29",
"$  c #0B530B530B53",
"%  c #0CDE0CDE0CDE",
"&  c #0D4D0D4D0D4D",
"*  c #0E2E0E2E0E2E",
"=  c #0F430F430F43",
"-  c #107D107D107D",
";  c #125112511251",
":  c #13BA13BA13BA",
">  c #178517851785",
",  c #19CE19CE19CE",
"<  c #1D191D191D19",
"1  c #1E0B1E0B1E0B",
"2  c #1EE71EE71EE7",
"3  c #1F621F621F62",
"4  c #20F020F020F0",
"5  c #231C231C231C",
"6  c #234D234D234D",
"7  c #261F261F261F",
"8  c #26A726A726A7",
"9  c #275827582758",
"0  c #28B428B428B4",
"q  c #2A242A242A24",
"w  c #2B9B2B9B2B9B",
"e  c #2D922D922D92",
"r  c #2FD12FD12FD1",
"t  c #34CC34CC34CC",
"y  c #35FF35FF35FF",
"u  c #367C367C367C",
"i  c #383438343834",
"p  c #463846384638",
"a  c #47EB47EB47EB",
"s  c #4C714C714C71",
"d  c #4FFF4FFF4FFF",
"f  c #512051205120",
"g  c #539C539C539C",
"h  c #572F572F572F",
"j  c #5A475A475A47",
"k  c #5B675B675B67",
"l  c #5D8C5D8C5D8C",
"z  c #605C605C605C",
"x  c #613761376137",
"c  c #62C562C562C5",
"v  c #69F969F969F9",
"b  c #6D5C6D5C6D5C",
"n  c #6DF56DF56DF5",
"m  c #6F0E6F0E6F0E",
"M  c #74EB74EB74EB",
"N  c #762176217621",
"B  c #770277027702",
"V  c #78A778A778A7",
"C  c #7BD37BD37BD3",
"Z  c #E79DB2CA4924",
"A  c #811C811C811C",
"S  c #83A283A283A2",
"D  c #889B889B889B",
"F  c #8D318D318D31",
"G  c #931193119311",
"H  c #953995399539",
"J  c #982498249824",
"K  c #9D519D519D51",
"L  c #9F769F769F76",
"P  c #A373A373A373",
"I  c #A63FA63FA63F",
"U  c #A890A890A890",
"Y  c #AADBAADBAADB",
"T  c #AC43AC43AC43",
"R  c #AD43AD43AD43",
"E  c #AE18AE18AE18",
"W  c #AEBCAEBCAEBC",
"Q  c #AFE0AFE0AFE0",
"!  c #B2D2B2D2B2D2",
"~  c #B43AB43AB43A",
"^  c #B566B566B566",
"/  c #B677B677B677",
"(  c #B6DAB6DAB6DA",
")  c #B958B958B958",
"_  c #BB5CBB5CBB5C",
"`  c #BD99BD99BD99",
"'  c #BDF9BDF9BDF9",
"]  c #BF01BF01BF01",
"[  c #C128C128C128",
"{  c #C2D0C2D0C2D0",
"}  c #C523C523C523",
"|  c #C6A0C6A0C6A0",
" . c #C71AC71AC71A",
".. c #C7F2C7F2C7F2",
"X. c #CAFFCAFFCAFF",
"o. c #CC82CC82CC82",
"O. c #CF3CCF3CCF3C",
"+. c #D14FD14FD14F",
"@. c #D49BD49BD49B",
"#. c #D5BFD5BFD5BF",
"$. c #D60FD60FD60F",
"%. c #D75CD75CD75C",
"&. c #D9E4D9E4D9E4",
"*. c #DD58DD58DD58",
"=. c #DF7DDF7DDF7D",
"-. c #E0DDE0DDE0DD",
";. c #E0F4E0F4E0F4",
":. c #E567E567E567",
">. c #E6E3E6E3E6E3",
",. c #E79DE79DE79D",
"<. c #EFBEEFBEEFBE",
/* pixels */
"Z Z Z Z Z Z Z Z Z Z Z Z Z Z Z Z Z     Z Z Z Z Z Z Z Z Z Z Z Z Z Z Z Z Z ",
"Z Z Z Z Z Z Z Z Z Z Z Z Z Z Z Z Z     Z Z Z Z Z Z Z Z Z Z Z Z Z Z Z Z Z ",
"Z Z Z Z Z Z Z Z Z Z Z Z Z Z O.O. . . .O.%.O.Z Z Z Z Z Z Z Z Z Z Z Z Z Z ",
"Z Z Z Z Z Z Z Z Z Z Z O. .O.O.O.O.O.O.%.%.%.%.O.%.Z Z Z Z Z Z Z Z Z Z Z ",
"Z Z Z Z Z Z Z Z Z O. .O.O.O.O.O.O.O.%.%.%.%.%.%.%.O.O.Z Z Z Z Z Z Z Z Z ",
"Z Z Z Z Z Z Z Z O. . .O.O.O.O.O.O.%.%.%.=.=.=.=.%.%.O.O.Z Z Z Z Z Z Z Z ",
"Z Z Z Z Z Z Z O. . . . .O.O.O.O.O.%.%.=.=.=.=.=.=.=.%.%.O.Z Z Z Z Z Z Z ",
"Z Z Z Z Z Z O. . . . . .O.O.O.O.%.%.=.=.=.,.,.,.,.=.=.%.%.O.Z Z Z Z Z Z ",
"Z Z Z Z Z O. . . . . . . .O.O.O.%.%.;.;.,.,.,.,.,.,.=.=.=.%.O.Z Z Z Z Z ",
"Z Z Z Z O. . . . .( A x x F { O.%.%.;.,.=.Q B C ( ,.,.=.=.=.%.O.Z Z Z Z ",
"Z Z Z Z O. . . .h       + +   D %.%.=.(       $   ; %.,.=.=.%.%.Z Z Z Z ",
"Z Z Z O. . . .v   +         *   Q %.%.    ;       5 9 ,.=.=.%.%.O.Z Z Z ",
"Z Z Z  . . . .      m ( Q ,   e u %.l   9   O.]       ( =.=.%.%.%.Z Z Z ",
"Z Z Z  .] ] (   5    . . .P   1   %.$     Y <.<.f   t h =.=.%.%.&.Z Z Z ",
"Z Z ( ] ] ] Y     w ]  . .H   5 + %.      &.,.<.Q   e > =.=.%.%.O. .Z Z ",
"Z Z ( ( ( ( ( Q Q ( ] ] Y     ; m O.  ,   ;.,.,. .  5   =.%.%.%.O. .Z Z ",
"Z Z ( ( ( ( ( ] ] ] Q a     > ;  .O.  ,   =.=.,.%.  1   =.%.%.O.O. .Z Z ",
"    Q ( ( ( ( ( ] B     $   u ( O.O.  >   +.=.=.]   1   %.%.O.O.O. .    ",
"    Q Y Q Q ( ( u   $   * G  . . .O.  +   X.%.%.K   9 w %.%.O.O. . .    ",
"Z Z Q Q Y Q ( a   >   A ] ]  . . . .$     J O.%.d   9 f O.O.O.O. . .Z Z ",
"Z Z Q Q Y Q I   >   K P K P K I Y  .l   9 ; ] (       Q O.O.O.O. . .Z Z ",
"Z Z Q Q Q Q C   *                  .{     *       ; 1 O.O.O.O. . . .Z Z ",
"Z Z Z Q Q Q f                 *    . .Y +         u  .O.O.O.O.O. .Z Z Z ",
"Z Z Z Y Q Q F s d d d d f g g f h {  . .] K m B P  . . . .O.O.O.O.Z Z Z ",
"Z Z Z Q Q Q Q Q Q Q ( ( ( ( ] ] ] ] ] ]  . . . . . . . . .O.O.O.O.Z Z Z ",
"Z Z Z Z Q Y Y Q Y Q Q ( ( ( ( ( ] ] ] ] ]  . . . . . . . .O.O.O.Z Z Z Z ",
"Z Z Z Z ( Q Q Q Q Q Q ( ( ( ( ( ( ] ] ] ] ] ] ] ] ]  . . .O.O.O.Z Z Z Z ",
"Z Z Z Z Z Q Y Q Y Q Q Q Q Q ( ( ( ( ] ] ] ] ] ] ] ]  . .O.O.O.Z Z Z Z Z ",
"Z Z Z Z Z Z Q Y Q Y Q Y Q Y ( ( ( ( ( ( ( ( ( ] ] ]  . .O.O.Z Z Z Z Z Z ",
"Z Z Z Z Z Z Z Q Q Q Q Q Q Q Q Q Q ( ( ( ( ( ( ( ] ]  . .O.Z Z Z Z Z Z Z ",
"Z Z Z Z Z Z Z Z Q Y Q Y Q Y Y Q Y Q Y ( ( ( ( ( ] ]  . .Z Z Z Z Z Z Z Z ",
"Z Z Z Z Z Z Z Z Z Q Q Q Q Q Q Q Q Q Q Q ( ( ( ( ] ]  .Z Z Z Z Z Z Z Z Z ",
"Z Z Z Z Z Z Z Z Z Z Z Q Q Q Y Q Q Q Q Q Q Q ( ] ( Z Z Z Z Z Z Z Z Z Z Z ",
"Z Z Z Z Z Z Z Z Z Z Z Z Z Z Q Q Q Q Y Q ( ( Z Z Z Z Z Z Z Z Z Z Z Z Z Z ",
"Z Z Z Z Z Z Z Z Z Z Z Z Z Z Z Z Z     Z Z Z Z Z Z Z Z Z Z Z Z Z Z Z Z Z ",
"Z Z Z Z Z Z Z Z Z Z Z Z Z Z Z Z Z     Z Z Z Z Z Z Z Z Z Z Z Z Z Z Z Z Z "
};
