/* XPM */
static char *wmoku-0-LB-C[] = {
/* columns rows colors chars-per-pixel */
"36 36 77 1",
"  c #000A000A000A",
". c #01C301C301C3",
"X c #025A025A025A",
"o c #038503850385",
"O c #049A049A049A",
"+ c #053905390539",
"@ c #06B806B806B8",
"# c #084908490849",
"$ c #09D209D209D2",
"% c #0ADA0ADA0ADA",
"& c #0BC60BC60BC6",
"* c #0C270C270C27",
"= c #0E570E570E57",
"- c #103810381038",
"; c #122412241224",
": c #175D175D175D",
"> c #1CAC1CAC1CAC",
", c #248D248D248D",
"< c #259E259E259E",
"1 c #27CA27CA27CA",
"2 c #284F284F284F",
"3 c #429542954295",
"4 c #516B516B516B",
"5 c #54AA54AA54AA",
"6 c #576357635763",
"7 c #595359535953",
"8 c #5CD05CD05CD0",
"9 c #5D755D755D75",
"0 c #635063506350",
"q c #670F670F670F",
"w c #6BD76BD76BD7",
"e c #6CBC6CBC6CBC",
"r c #700770077007",
"t c #708F708F708F",
"y c #71FC71FC71FC",
"u c #7A657A657A65",
"i c #7B537B537B53",
"p c #7E237E237E23",
"a c #7F3E7F3E7F3E",
"s c #E79DB2CA4924",
"d c #84EF84EF84EF",
"f c #900C900C900C",
"g c #925992599259",
"h c #936393639363",
"j c #996699669966",
"k c #9A389A389A38",
"l c #9C839C839C83",
"z c #9D999D999D99",
"x c #9DE29DE29DE2",
"c c #A72FA72FA72F",
"v c #A932A932A932",
"b c #AC4BAC4BAC4B",
"n c #AE26AE26AE26",
"m c #AEBAAEBAAEBA",
"M c #B36FB36FB36F",
"N c #B448B448B448",
"B c #B6DAB6DAB6DA",
"V c #B9B0B9B0B9B0",
"C c #B9C2B9C2B9C2",
"Z c #BD68BD68BD68",
"A c #BE09BE09BE09",
"S c #BEFBBEFBBEFB",
"D c #C0AAC0AAC0AA",
"F c #C133C133C133",
"G c #C23FC23FC23F",
"H c #C2E4C2E4C2E4",
"J c #C71AC71AC71A",
"K c #CECACECACECA",
"L c #CF3CCF3CCF3C",
"P c #D001D001D001",
"I c #D276D276D276",
"U c #D4C0D4C0D4C0",
"Y c #D75BD75BD75B",
"T c #DF7DDF7DDF7D",
"R c #E79DE79DE79D",
"E c #ED3BED3BED3B",
"W c #EFBEEFBEEFBE",
/* pixels */
"sssssssssssssssss  sssssssssssssssss",
"sssssssssssssssss  sssssssssssssssss",
"ssssssssssssssLLJJJLYLssssssssssssss",
"sssssssssssLJLLLLLLYYYYLYsssssssssss",
"sssssssssLJLLLLLLLYYYYYYYLLsssssssss",
"ssssssssLJJLLLLLLYYYTTTTYYLLssssssss",
"sssssssLJJJJLLLLLYYTTTTTTTYYLsssssss",
"ssssssLJJJJJLLLPYYTTTRRRRTTYYLssssss",
"sssssLJJJJJJJLLbpquzPRRRRRTTTYLsssss",
"ssssLJJJJJJJJb=   ++ rWWWRRTTTYLssss",
"ssssLJJJSJJJz  &&     rWWWRRTTYYssss",
"sssLJJJSSJJH  > fZZr + JWWRRTTYYLsss",
"sssJJJJSSSJ0 2 HYYTR9 <rWWWRTTYYYsss",
"sssJSSSSSSJ-  dLYYTTJ  &WWRRTTYYYsss",
"ssBSSSSSSSS + BLLYYTRRRWWRRRTTYYLJss",
"ssBBBBBSSSS : SLLLYTTRRRRRRTTYYYLJss",
"ssBBBBBSSSS : HJLLYYTTTRRTTTTYYLLJss",
"  bBBBBBSSS + MJLLLYY&  LTTYYYLLLJ  ",
"  bMbMBBBSS&  uJJLLLS - YYYYYYLLJJ  ",
"ssbMbbBBBBS6 < MJJLL4 23YYYYLLLLJJss",
"ssbMMbbBBBSZ  > pcv9   jLLLLLLLLJJss",
"ssbbbbMbBBBSh  &&    &6LLLLLLLLJJJss",
"sssMbMbMbBBBSj+   +  wHJLLLLLLLLJsss",
"sssbbMbbbBBBBSSzr6thMJJJJJJJJLLLLsss",
"sssbMMbbMbBBBBSSSSSSJJJJJJJJJLLLLsss",
"ssssbbbMbbbZBBBBSSSSSJJJJJJJJLLLssss",
"ssssZbbMbMbZBBBBBSSSSSSSSSJJJLLLssss",
"sssssbMbbMbbbBBBBBSSSSSSSSJJLLLsssss",
"ssssssbbbMbbbbBBBBBBBBBSSSJJLLssssss",
"sssssssbbMbMMMbbbBBBBBBBSSJJLsssssss",
"ssssssssbbbMbbbMbMbZBBBBSSJJssssssss",
"sssssssssMbbbMbMbbbbBBBBSSJsssssssss",
"sssssssssssMbbMbMbMMbBBSBsssssssssss",
"ssssssssssssssMbbbbbBBssssssssssssss",
"sssssssssssssssss  sssssssssssssssss",
"sssssssssssssssss  sssssssssssssssss"
};
