/* XPM */
static char *wmoku-0-LB-199[] = {
/* columns rows colors chars-per-pixel */
"36 36 116 2",
"   c #000700070007",
".  c #017901790179",
"X  c #04CB04CB04CB",
"o  c #068B068B068B",
"O  c #08C008C008C0",
"+  c #099409940994",
"@  c #0A8E0A8E0A8E",
"#  c #0BC00BC00BC0",
"$  c #0C4D0C4D0C4D",
"%  c #0D330D330D33",
"&  c #0E510E510E51",
"*  c #104810481048",
"=  c #156915691569",
"-  c #165016501650",
";  c #176617661766",
":  c #186A186A186A",
">  c #197919791979",
",  c #1AC21AC21AC2",
"<  c #1B5A1B5A1B5A",
"1  c #1C6D1C6D1C6D",
"2  c #1D961D961D96",
"3  c #1EB21EB21EB2",
"4  c #1F411F411F41",
"5  c #219F219F219F",
"6  c #22E522E522E5",
"7  c #25AF25AF25AF",
"8  c #27B727B727B7",
"9  c #28DE28DE28DE",
"0  c #2AB62AB62AB6",
"q  c #2B9F2B9F2B9F",
"w  c #2D9D2D9D2D9D",
"e  c #2F462F462F46",
"r  c #32D732D732D7",
"t  c gray20",
"y  c #34B234B234B2",
"u  c #392F392F392F",
"i  c #41DC41DC41DC",
"p  c #429E429E429E",
"a  c #443144314431",
"s  c #453A453A453A",
"d  c #46FA46FA46FA",
"f  c #495D495D495D",
"g  c #4BAB4BAB4BAB",
"h  c #4C684C684C68",
"j  c #4EC24EC24EC2",
"k  c #4FF64FF64FF6",
"l  c #50C950C950C9",
"z  c #52E952E952E9",
"x  c #537953795379",
"c  c #554955495549",
"v  c #571C571C571C",
"b  c #581F581F581F",
"n  c #58E958E958E9",
"m  c #5E415E415E41",
"M  c #611A611A611A",
"N  c #672C672C672C",
"B  c #683B683B683B",
"V  c #6C7C6C7C6C7C",
"C  c #6F306F306F30",
"Z  c #6FF46FF46FF4",
"A  c #70BC70BC70BC",
"S  c #73A673A673A6",
"D  c #74FE74FE74FE",
"F  c #797A797A797A",
"G  c #7E677E677E67",
"H  c #7F727F727F72",
"J  c #E79DB2CA4924",
"K  c #812C812C812C",
"L  c #83C783C783C7",
"P  c #863C863C863C",
"I  c #8FEB8FEB8FEB",
"U  c #922F922F922F",
"Y  c #937093709370",
"T  c #93B493B493B4",
"R  c #963C963C963C",
"E  c #975F975F975F",
"W  c #98B298B298B2",
"Q  c #9AE19AE19AE1",
"!  c #9C5E9C5E9C5E",
"~  c #9EDB9EDB9EDB",
"^  c #9FC49FC49FC4",
"/  c #A244A244A244",
"(  c #A50FA50FA50F",
")  c #A5B0A5B0A5B0",
"_  c #A94EA94EA94E",
"`  c #AB01AB01AB01",
"'  c #AC24AC24AC24",
"]  c #AD49AD49AD49",
"[  c #AEBAAEBAAEBA",
"{  c #B038B038B038",
"}  c #B1FCB1FCB1FC",
"|  c #B2E2B2E2B2E2",
" . c #B6DCB6DCB6DC",
".. c #B82CB82CB82C",
"X. c #B9E6B9E6B9E6",
"o. c #BE57BE57BE57",
"O. c #BEFBBEFBBEFB",
"+. c #C15BC15BC15B",
"@. c #C392C392C392",
"#. c #C512C512C512",
"$. c #C71BC71BC71B",
"%. c #C84DC84DC84D",
"&. c #CAEBCAEBCAEB",
"*. c #CCEBCCEBCCEB",
"=. c #CF3CCF3CCF3C",
"-. c #D02FD02FD02F",
";. c #D41ED41ED41E",
":. c #D75CD75CD75C",
">. c #DA94DA94DA94",
",. c #DE97DE97DE97",
"<. c #DF7DDF7DDF7D",
"1. c #E2CAE2CAE2CA",
"2. c #E420E420E420",
"3. c #E79DE79DE79D",
"4. c #ED25ED25ED25",
"5. c #EFBEEFBEEFBE",
/* pixels */
"J J J J J J J J J J J J J J J J J     J J J J J J J J J J J J J J J J J ",
"J J J J J J J J J J J J J J J J J     J J J J J J J J J J J J J J J J J ",
"J J J J J J J J J J J J J J =.=.$.$.$.=.:.=.J J J J J J J J J J J J J J ",
"J J J J J J J J J J J =.$.=.=.=.=.=.=.:.:.:.:.=.:.J J J J J J J J J J J ",
"J J J J J J J J J =.$.=.=.=.=.=.=.=.:.:.:.:.:.:.:.=.=.J J J J J J J J J ",
"J J J J J J J J =.$.$.=.=.=.=.=.=.:.:.:.<.<.<.<.:.:.=.=.J J J J J J J J ",
"J J J J J J J =.$.$.$.$.=.=.=.=.=.:.:.<.<.<.<.<.<.<.:.:.=.J J J J J J J ",
"J J J J J J =.$.$.$.$.$.=.=.=.=.:.:.<.<.<.3.3.3.3.<.<.:.:.=.J J J J J J ",
"J J J J J =.$.$.$.$.$.$.$.=.=.=.:.:.<.<.3.3.3.3.3.3.<.<.<.:.=.J J J J J ",
"J J J J =.$.~ v m $.$.$.$.=.@.E Z Z _ 3.3.5.5.5.5.>._ D D _ :.=.J J J J ",
"J J J J =.$.: %   $.$.$.$.H       +   % -.5.5.5.U       +   + @.J J J J ",
"J J J %.} B   :   $.$.$.U     %       5 + 5.5.]     *       4 + =.J J J ",
"J J J         :   O.$.$.+   : g @.X.+     ] 5.+   4 b -.@.+     ! J J J ",
"J J J         :   O.$.$.  +   $.:.:./   t g 5.  +   >.3.<./   e i J J J ",
"J J  .U U U   :   O.O.$.  -   %.=.:.O.  8   3.  :   1.3.<.$.  8   $.J J ",
"J J  . . . .  :   O.O.O.      ( =.=.m   5   3.       .<.<.m   4   $.J J ",
"J J  . . . .  :   O.O.O.v   :   i 5     4   <.M   4   s 7     :   $.J J ",
"    ] X. . .  -   O.O.O.O.e       +     7   <.<.t       +     5   $.    ",
"    ] ] ] }   :   O.O.O.O.$.U l 4 i K   8 8 :.>.:.~ b 5 s P   e 7 $.    ",
"J J ] } ] ]   -    .O.O.-     } $.$.s   5 B =.:     O.:.=.s   4 B $.J J ",
"J J ] } ] }   -    .O.O.t   - g  .E   o   } =.u   : g @.!   o   _ %.J J ",
"J J ] ] ] }   -    . .O.!     +       o l -.=.(     %       o l $.$.J J ",
"J J J } ] ]   %    . . .O.Z       +   g $.$.$.$.F       %   l =.$.J J J ",
"J J J ] } ] g g l  . . . .O.} H v Z ] $.$.$.$.$.$.X.K b S } =.=.=.J J J ",
"J J J ] } ] } ] ] }  . . . .O.O.O.O.O.O.$.$.$.$.$.$.$.$.$.=.=.=.=.J J J ",
"J J J J ] ] } ] ] } ]  . . . . .O.O.O.O.O.$.$.$.$.$.$.$.$.=.=.=.J J J J ",
"J J J J  .} ] ] ] ] ] X. . . . . .O.O.O.O.O.O.O.O.O.$.$.$.=.=.=.J J J J ",
"J J J J J ] ] } ] } ] ] ] X. . . . .O.O.O.O.O.O.O.O.$.$.=.=.=.J J J J J ",
"J J J J J J ] ] ] } ] ] ] }  .X. . . . . . . .O.O.O.$.$.=.=.J J J J J J ",
"J J J J J J J ] ] ] ] } ] ] ] ] ] X. . . . . . .O.O.$.$.=.J J J J J J J ",
"J J J J J J J J ] } ] ] ] } } ] ] ] ]  . . . . .O.O.$.$.J J J J J J J J ",
"J J J J J J J J J ] } } ] ] ] ] } ] } ]  . . . .O.O.$.J J J J J J J J J ",
"J J J J J J J J J J J } ] ] } ] } ] ] ] ] X. .O. .J J J J J J J J J J J ",
"J J J J J J J J J J J J J J } ] ] ] } ]  . .J J J J J J J J J J J J J J ",
"J J J J J J J J J J J J J J J J J     J J J J J J J J J J J J J J J J J ",
"J J J J J J J J J J J J J J J J J     J J J J J J J J J J J J J J J J J "
};
