/* XPM */
static char *wmoku-0-LB-299[] = {
/* columns rows colors chars-per-pixel */
"36 36 131 2",
"   c #000D000D000D",
".  c #018C018C018C",
"X  c #02B1021400D9",
"o  c #02C402C402C4",
"O  c #032D032D032D",
"+  c #0589044601BF",
"@  c #049B049B049B",
"#  c #056605660566",
"$  c #06EF06EF06EF",
"%  c #08C908C908C9",
"&  c #184212B907A9",
"*  c #1DE41DE41DE4",
"=  c #23BE1B970B49",
"-  c #203C203C203C",
";  c #23CC23CC23CC",
":  c #24D224D224D2",
">  c #27CA27CA27CA",
",  c #28BE28BE28BE",
"<  c #2A942A942A94",
"1  c #2C102C102C10",
"2  c #2DB72DB72DB7",
"3  c #2F472F472F47",
"4  c #323B323B323B",
"5  c #345234523452",
"6  c #357D357D357D",
"7  c #399039903990",
"8  c #3C893C893C89",
"9  c #3DE63DE63DE6",
"0  c #534440471A4C",
"q  c #65554E382000",
"w  c #6BFC535B221A",
"e  c #6E29550922CA",
"r  c #40CA40CA40CA",
"t  c #428C428C428C",
"y  c #436543654365",
"u  c #461F461F461F",
"i  c #465E465E465E",
"p  c #4C7B4C7B4C7B",
"a  c #4EAC4EAC4EAC",
"s  c #4FFF4FFF4FFF",
"d  c #506550655065",
"f  c #51A451A451A4",
"g  c #52CB52CB52CB",
"h  c #576257625762",
"j  c #5FF55FF55FF5",
"k  c #61D561D561D5",
"l  c #644764476447",
"z  c #658665866586",
"x  c #6B176B176B17",
"c  c #6BCE6BCE6BCE",
"v  c #6F176F176F17",
"b  c #6FEC6FEC6FEC",
"n  c #73E773E773E7",
"m  c #766476647664",
"M  c #78C178C178C1",
"N  c #7AB37AB37AB3",
"B  c #7BA77BA77BA7",
"V  c #7D6A7D6A7D6A",
"C  c #7EEF7EEF7EEF",
"Z  c #8CA86C932C6B",
"A  c #AAE083E735F6",
"S  c #CCD89E2040B0",
"D  c #D157A199421B",
"F  c #DC9AAA4A45AA",
"G  c #E011ACF746C2",
"H  c #E402B0014800",
"J  c #E602B18D48A2",
"K  c #E6DEB23748E8",
"L  c #E79DB2CA4924",
"P  c #83CC83CC83CC",
"I  c #84FD84FD84FD",
"U  c #877287728772",
"Y  c #880688068806",
"T  c #894289428942",
"R  c #8AAE8AAE8AAE",
"E  c #8CFF8CFF8CFF",
"W  c #8E858E858E85",
"Q  c #8F938F938F93",
"!  c #90E690E690E6",
"~  c #91D591D591D5",
"^  c #92C592C592C5",
"/  c #944994499449",
"(  c #94C394C394C3",
")  c #95C295C295C2",
"_  c #974D974D974D",
"`  c #98ED98ED98ED",
"'  c #9C019C019C01",
"]  c #9D979D979D97",
"[  c #9E219E219E21",
"{  c #9F819F819F81",
"}  c #A01FA01FA01F",
"|  c #A100A100A100",
" . c #A31DA31DA31D",
".. c #A496A496A496",
"X. c #A64AA64AA64A",
"o. c #A6EBA6EBA6EB",
"O. c #A871A871A871",
"+. c #A909A909A909",
"@. c #AA05AA05AA05",
"#. c #AC39AC39AC39",
"$. c #ACACACACACAC",
"%. c #AEBAAEBAAEBA",
"&. c #B02AB02AB02A",
"*. c #B3B7B3B7B3B7",
"=. c #B551B551B551",
"-. c #B604B604B604",
";. c #B6DBB6DBB6DB",
":. c #B7D6B7D6B7D6",
">. c #B92AB92AB92A",
",. c #BC73BC73BC73",
"<. c #BD3DBD3DBD3D",
"1. c #BDD8BDD8BDD8",
"2. c #BEFDBEFDBEFD",
"3. c #C206C206C206",
"4. c #C52AC52AC52A",
"5. c #C6C4C6C4C6C4",
"6. c #C71BC71BC71B",
"7. c #C877C877C877",
"8. c #C909C909C909",
"9. c #CBC7CBC7CBC7",
"0. c #CD61CD61CD61",
"q. c #CE00CE00CE00",
"w. c #CF3CCF3CCF3C",
"e. c #D008D008D008",
"r. c #D408D408D408",
"t. c #D75CD75CD75C",
"y. c #DE8CDE8CDE8C",
"u. c #DF7DDF7DDF7D",
"i. c #E0A7E0A7E0A7",
"p. c #E79DE79DE79D",
"a. c #EFAAEFAAEFAA",
/* pixels */
"L L L L L L L L L L L L L L L L L o o H L L L L L L L L L L L L L L L L ",
"L L L L L L L L L L L L L L L L L o o H L L L L L L L L L L L L L L L L ",
"L L L L L L L L L L L L L L w.w.6.6.6.w.t.w.L L L L L L L L L L L L L L ",
"L L L L L L L L L L L w.6.w.w.w.w.w.w.t.t.t.t.w.t.L L L L L L L L L L L ",
"L L L L L L L L L w.6.w.w.w.w.w.w.w.t.t.t.t.t.t.t.w.w.L L L L L L L L L ",
"L L L L L L L L w.6.6.w.w.w.w.w.w.t.t.t.u.u.u.u.t.t.w.w.L L L L L L L L ",
"L L L L L L L w.6.6.6.6.w.w.w.w.w.t.t.u.u.u.u.u.u.u.t.t.w.L L L L L L L ",
"L L L L L L w.6.6.6.6.6.w.w.w.w.t.t.y.y.u.p.p.p.p.u.u.t.t.w.L L L L L L ",
"L L L L H w.6.6.6.6.6.6.6.w.w.w.t.t.y.y.p.p.p.p.p.p.y.y.u.t.w.L L L L L ",
"L L L L o.b h x { 6.6.6.6.e.w.+.I l P 9.p.a.a.a.a.p.1.T z P 1.w.L L L L ",
"L L D & o o o o o < ,.6.6.2.7 o o o @ o M a.a.a.i.i o o o o o b L L L L ",
"L H + o o o o o o @ 1 6.6.7 @ o o o o o o +.a.a.t @ o o o o o o Q L L L ",
"L A o o o  .,.C o o o o. .o o o { 6.I o o o a.2.o o o #.w.I o o o H L L ",
"L e o o T 1.2.1.4 o @ I m o @ j t.t.u.- o o e.Q o @ x p.y.y.- o o S L L ",
"L 0 o o  .1.2.1.2 o o ( l o o M w.t.t.g o o #.m o @ T p.y.y.a o o Q L L ",
"L G o.o.-.-.-.b o o o *.Q o o > w.w.w.o o o { o.o o 2 y.y.9.o o @ Y L H ",
"L L -.-.-.T @ o o o M 2.1.o o o * p o o o o Q y.o o o * g o o o o P L H ",
"o o #.o.4 o o @ o C 2.2.1.( o @ o o o o o o  .y.+.o o o o o o o o Q o o ",
"o o Q o o o o a o.1.2.2.1.6.,.b 7 < x - o o -.t.t.9.M 9 2 b - o o ..o o ",
"H F o o o 6 o.-.-.-.2.1.` o o 9 6.6.6.o o o 6.#.o o i t.w.2.o o o 1.H L ",
"H Z o o h Q Q ( ` ( { ,.-.o o o { #.9 o o 7 w.6.o o o  .,.t o o 7 6.L L ",
"L = o o o o o o o o o M 1.t o o o o o o o -.w.w.p o o o o o o o &.6.L L ",
"H o o o o o o o o o o m 1.,.- o o o o o ` 6.6.6.6.> o o o o o { 6.L L L ",
"H w q p p p p p p a g ( ,.2.1.Q x j T 1.6.6.6.6.6.6.Q b l Q 6.w.w.L L L ",
"L L L #.&.%.%.%.#.*.-.-.,.-.1.1.2.2.2.2.6.6.6.6.6.6.6.6.6.w.w.w.w.L L L ",
"L L L L %.%.%.%.#.*.#.-.-.-.,.-.2.2.2.2.1.6.6.9.6.6.6.6.6.w.w.w.L L L L ",
"L L L L ;.%.%.%.#.#.*.-.-.-.-.-.,.1.2.2.1.1.2.2.1.1.6.6.6.w.w.w.L L L L ",
"L L L L L %.%.%.*.#.#.#.#.,.-.-.-.-.2.2.1.1.2.2.1.1.6.6.w.w.w.L L L L L ",
"L L L L L L %.%.#.#.*.*.#.*.-.,.-.-.-.-.-.-.-.2.2.2.6.6.w.w.L L L L L L ",
"L L L L L L L %.*.#.#.#.#.#.#.#.#.,.-.-.-.,.-.-.2.1.6.6.w.L L L L L L L ",
"L L L L L L L L *.#.*.#.*.#.*.#.#.#.#.,.-.-.-.-.2.2.6.6.L L L L L L L L ",
"L L L L L L L L L #.#.#.*.#.#.#.*.*.#.#.-.-.-.,.2.2.6.L L L L L L L L L ",
"L L L L L L L L L L L %.%.%.%.%.%.%.%.%.%.;.;.2.;.L L L L L L L L L L L ",
"L L L L L L L L L L L L L L %.%.%.#.%.%.;.;.L L L L L L L L L L L L L L ",
"L L L L L L L L L L L L L L L L H o o L L L L L L L L L L L L L L L L L ",
"L L L L L L L L L L L L L L L L H o o L L L L L L L L L L L L L L L L L "
};
