/* XPM */
static char *wmoku-0-LB-8[] = {
/* columns rows colors chars-per-pixel */
"36 36 69 1",
"  c #000E000E000E",
". c #019201920192",
"X c #027802780278",
"o c #039703970397",
"O c #048004800480",
"+ c #057E057E057E",
"@ c #09B909B909B9",
"# c #0F1F0F1F0F1F",
"$ c #118311831183",
"% c #137513751375",
"& c #152E152E152E",
"* c #191F191F191F",
"= c #1DA61DA61DA6",
"- c #224222422242",
"; c #2ABB2ABB2ABB",
": c #2D6A2D6A2D6A",
"> c #303B303B303B",
", c #314F314F314F",
"< c #32E832E832E8",
"1 c #445044504450",
"2 c #4A6F4A6F4A6F",
"3 c #4C9E4C9E4C9E",
"4 c #4F884F884F88",
"5 c #530B530B530B",
"6 c #554855485548",
"7 c #5AA65AA65AA6",
"8 c #5E385E385E38",
"9 c #714271427142",
"0 c #719071907190",
"q c #75EA75EA75EA",
"w c #E79DB2CA4924",
"e c #808380838083",
"r c #827B827B827B",
"t c #883788378837",
"y c #8A998A998A99",
"u c #8D2C8D2C8D2C",
"i c #8FF78FF78FF7",
"p c #94DC94DC94DC",
"a c #972F972F972F",
"s c #9D1C9D1C9D1C",
"d c #9FE79FE79FE7",
"f c #A2A4A2A4A2A4",
"g c #A42DA42DA42D",
"h c #A5F7A5F7A5F7",
"j c #A7F2A7F2A7F2",
"k c #AB77AB77AB77",
"l c #AEBBAEBBAEBB",
"z c #B070B070B070",
"x c #B451B451B451",
"c c #B6DAB6DAB6DA",
"v c #B91BB91BB91B",
"b c #BCF1BCF1BCF1",
"n c #BEFABEFABEFA",
"m c #C228C228C228",
"M c #C4ADC4ADC4AD",
"N c #C5CDC5CDC5CD",
"B c #C71AC71AC71A",
"V c #CA58CA58CA58",
"C c #CD35CD35CD35",
"Z c #CE51CE51CE51",
"A c #CF3BCF3BCF3B",
"S c #D75CD75CD75C",
"D c #DA17DA17DA17",
"F c #DF7DDF7DDF7D",
"G c #E016E016E016",
"H c #E439E439E439",
"J c #E79DE79DE79D",
"K c #EE1AEE1AEE1A",
"L c #EFBEEFBEEFBE",
/* pixels */
"wwwwwwwwwwwwwwwww  wwwwwwwwwwwwwwwww",
"wwwwwwwwwwwwwwwww  wwwwwwwwwwwwwwwww",
"wwwwwwwwwwwwwwAABBBASAwwwwwwwwwwwwww",
"wwwwwwwwwwwABAAAAAASSSSASwwwwwwwwwww",
"wwwwwwwwwABAAAAAAASSSSSSSAAwwwwwwwww",
"wwwwwwwwABBAAAAAASSSFFFFSSAAwwwwwwww",
"wwwwwwwABBBBAAAAASSFFFFFFFSSAwwwwwww",
"wwwwwwABBBBBAAAASSFFFJJJJFFSSAwwwwww",
"wwwwwABBBBBBBAAASSGGJJJJJJFFFSAwwwww",
"wwwwABBBBBBBBAAhy8uvJLLLLJJFFFSAwwww",
"wwwwABBBnBBBBm:   O ,GLLLLJJFFSSwwww",
"wwwABBBnnBBBB;O      ,LLLLJJFFSSAwww",
"wwwBBBBnnnBBk   hVl   ALLLLJFFSSSwww",
"wwwBnnnnnnBBrO 2SSF4 OsLLLJJFFSSSwww",
"wwcnnnnnnnnBa  %BSA%  lLLJJJFFSSABww",
"wwcccccnnnnnB%O  =   %JJJJJFFSSSABww",
"wwcccccnnnnnVs       mFJJGFFFSSAABww",
"  lcccccnnnnx   -5@   SGGGFSSSAAAB  ",
"  llllcccnnn9 O4BAA=  fSSSSSSSAABB  ",
"wwllllccccnn7 OqBBA1  ySSSSSAAAABBww",
"wwlllllcccnnu   svi   xAAAAAAAAABBww",
"wwllllllcccnv@      O,AAAAAAAAABBBww",
"wwwllllllcccnh*   O ,nBBAAAAAAAABwww",
"wwwllllllccccnnaq6rfVBBBBBBBBAAAAwww",
"wwwlllllllccccnnnnnnBBBBBBBBBAAAAwww",
"wwwwlllllllcccccnnnnnBBBBBBBBAAAwwww",
"wwwwcllllllccccccnnnnnnnnnBBBAAAwwww",
"wwwwwllllllllcccccnnnnnnnnBBAAAwwwww",
"wwwwwwllllllllcccccccccnnnBBAAwwwwww",
"wwwwwwwllllllllllcccccccnnBBAwwwwwww",
"wwwwwwwwlllllllllllcccccnnBBwwwwwwww",
"wwwwwwwwwlllllllllllccccnnBwwwwwwwww",
"wwwwwwwwwwwllllllllllccncwwwwwwwwwww",
"wwwwwwwwwwwwwwllllllccwwwwwwwwwwwwww",
"wwwwwwwwwwwwwwwww  wwwwwwwwwwwwwwwww",
"wwwwwwwwwwwwwwwww  wwwwwwwwwwwwwwwww"
};
