/* XPM */
static char *wmoku-0-LB-358[] = {
/* columns rows colors chars-per-pixel */
"36 36 152 2",
"   c #001000100010",
".  c #018201820182",
"X  c #027101E200C5",
"o  c #039A02C80123",
"O  c #027A027A027A",
"+  c #039403940394",
"@  c #049F049F049F",
"#  c #058205820582",
"$  c #067406740674",
"%  c #0A030A030A03",
"&  c #0AA60AA60AA6",
"*  c #0E270E270E27",
"=  c #10E310E310E3",
"-  c #116711671167",
";  c #17B817B817B8",
":  c #1B671B671B67",
">  c #1DDB1DDB1DDB",
",  c #1FC01FC01FC0",
"<  c #205720572057",
"1  c #220722072207",
"2  c #239A239A239A",
"3  c #245C245C245C",
"4  c #257525752575",
"5  c #26CB26CB26CB",
"6  c #29CA29CA29CA",
"7  c #2CCA2CCA2CCA",
"8  c #2D4B2D4B2D4B",
"9  c #2F8D2F8D2F8D",
"0  c #30FC30FC30FC",
"q  c #329832983298",
"w  c #343034303430",
"e  c #34E434E434E4",
"r  c #35FC35FC35FC",
"t  c #389538953895",
"y  c #394539453945",
"u  c #3E383E383E38",
"i  c #402740274027",
"p  c #6DB554AF22A5",
"a  c #442544254425",
"s  c #445044504450",
"d  c #456E456E456E",
"f  c #472F472F472F",
"g  c #487F487F487F",
"h  c #4CA34CA34CA3",
"j  c #4ED64ED64ED6",
"k  c #4FFF4FFF4FFF",
"l  c #517251725172",
"z  c #530753075307",
"x  c #538E538E538E",
"c  c #564D564D564D",
"v  c #58E958E958E9",
"b  c #5AE05AE05AE0",
"n  c #5C005C005C00",
"m  c #5C815C815C81",
"M  c #5E385E385E38",
"N  c #5E635E635E63",
"B  c #601D601D601D",
"V  c #611861186118",
"C  c #61C761C761C7",
"Z  c #631163116311",
"A  c #63CB63CB63CB",
"S  c #655565556555",
"D  c #663166316631",
"F  c #694269426942",
"G  c #6C016C016C01",
"H  c #6CF06CF06CF0",
"J  c #711971197119",
"K  c #71CF71CF71CF",
"L  c #744774477447",
"P  c #793079307930",
"I  c #7AB67AB67AB6",
"U  c #7FE87FE87FE8",
"Y  c #88C069902B2F",
"T  c #97C575282FED",
"R  c #9CA078E73176",
"E  c #ACC2855B368E",
"W  c #B8228E233A26",
"Q  c #BD9192553BDD",
"!  c #C7B09A253F0F",
"~  c #DA46A87E44EE",
"^  c #DE38AB8A462D",
"/  c #E0F8ADA9470B",
"(  c #E460B04A481E",
")  c #E633B1B348B2",
"_  c #E79DB2CA4924",
"`  c #813581358135",
"'  c #836083608360",
"]  c #841684168416",
"[  c #852685268526",
"{  c #85F585F585F5",
"}  c #888288828882",
"|  c #89BE89BE89BE",
" . c #8BF38BF38BF3",
".. c #8D168D168D16",
"X. c #8DCD8DCD8DCD",
"o. c #8F608F608F60",
"O. c #8FA68FA68FA6",
"+. c #918991899189",
"@. c #92A292A292A2",
"#. c #94EA94EA94EA",
"$. c #962996299629",
"%. c #97F397F397F3",
"&. c #995699569956",
"*. c #99B899B899B8",
"=. c #9AEB9AEB9AEB",
"-. c #A243A243A243",
";. c #A2DAA2DAA2DA",
":. c #A690A690A690",
">. c #A747A747A747",
",. c #A941A941A941",
"<. c #AB92AB92AB92",
"1. c #ABC4ABC4ABC4",
"2. c #AD47AD47AD47",
"3. c #AE54AE54AE54",
"4. c #AEBDAEBDAEBD",
"5. c #B0A1B0A1B0A1",
"6. c #B144B144B144",
"7. c #B1F3B1F3B1F3",
"8. c #B37BB37BB37B",
"9. c #B3E3B3E3B3E3",
"0. c #B574B574B574",
"q. c #B61AB61AB61A",
"w. c #B6DAB6DAB6DA",
"e. c #B838B838B838",
"r. c #B8C7B8C7B8C7",
"t. c #BA3DBA3DBA3D",
"y. c #BCF0BCF0BCF0",
"u. c #BEA0BEA0BEA0",
"i. c #BEFBBEFBBEFB",
"p. c #C08DC08DC08D",
"a. c #C140C140C140",
"s. c #C22DC22DC22D",
"d. c #C343C343C343",
"f. c #C431C431C431",
"g. c #C63FC63FC63F",
"h. c #C71AC71AC71A",
"j. c #C897C897C897",
"k. c #CE78CE78CE78",
"l. c #CF3CCF3CCF3C",
"z. c #D116D116D116",
"x. c #D1FBD1FBD1FB",
"c. c #D548D548D548",
"v. c #D6B0D6B0D6B0",
"b. c #D75BD75BD75B",
"n. c #D935D935D935",
"m. c #DBC2DBC2DBC2",
"M. c #DE7BDE7BDE7B",
"N. c #DF7DDF7DDF7D",
"B. c #E5D0E5D0E5D0",
"V. c #E6A4E6A4E6A4",
"C. c #E797E797E797",
"Z. c #EFBEEFBEEFBE",
/* pixels */
"_ _ _ _ _ _ _ _ _ _ _ _ _ _ _ _ _     _ _ _ _ _ _ _ _ _ _ _ _ _ _ _ _ _ ",
"_ _ _ _ _ _ _ _ _ _ _ _ _ _ _ _ _     _ _ _ _ _ _ _ _ _ _ _ _ _ _ _ _ _ ",
"_ _ _ _ _ _ _ _ _ _ _ _ _ _ l.l.h.h.h.l.b.l._ _ _ _ _ _ _ _ _ _ _ _ _ _ ",
"_ _ _ _ _ _ _ _ _ _ _ l.h.l.l.l.l.l.l.b.b.b.b.l.b._ _ _ _ _ _ _ _ _ _ _ ",
"_ _ _ _ _ _ _ _ _ l.h.l.l.l.l.l.l.l.b.b.b.b.b.b.b.l.l._ _ _ _ _ _ _ _ _ ",
"_ _ _ _ _ _ _ _ l.h.h.l.l.l.l.l.l.b.b.b.N.N.N.N.b.b.l.l._ _ _ _ _ _ _ _ ",
"_ _ _ _ _ _ _ l.h.h.h.h.l.l.l.l.l.b.b.N.N.N.N.N.N.N.b.b.l._ _ _ _ _ _ _ ",
"_ _ _ _ _ _ l.h.h.h.h.h.l.l.l.l.b.b.N.N.N.C.C.C.C.N.N.b.b.l._ _ _ _ _ _ ",
"_ _ _ _ _ l.h.h.h.h.h.h.h.l.l.l.b.b.N.N.C.C.C.C.C.C.N.N.N.b.l._ _ _ _ _ ",
"_ _ _ / &.H F X.i.h.h.h.h.&.b b M M Z S S &.Z.Z.Z.C.w.} Z X.4.l._ _ _ _ ",
"_ _ W       +     X.h.h.h.j               d Z.Z.z.>   #       q ~ _ _ _ ",
"_ _     #     #     r.h.h.:               d Z.C.#             # 8 _ _ _ ",
"_ E       6.6.*     } h.h.      6.w.r.a.i.b.Z.4.      6.b.<.      ! _ _ ",
"_ Y   # J p.i.J $   m h.i.    < b.b.N.B.C.Z.Z.H     x C.N.N.j     T _ _ ",
"_ p     U i.i.m # # J h.4.    x t 3 b %.C.C.C.O.#   - N.B.b.*     %._ _ ",
"_ _ w.w.%.: #       6.a.%.    #         : b.C.b.  #     >     # - h._ _ ",
"_ _ w.w.X.        3 4.a.I # #   g u   # # 8 N.C.r.              6.j._ _ ",
"    4.r.-.j i #       r.' q r 6.l.l.a.      a.l.      < b %       a.    ",
"    g d X.4.w.w.<     O.i.h.j.h.h.l.l.d     %.U # # x b.b.b.>     &.    ",
"_ p   # M 4.w.r.t     '       a.h.h.l.6     -.S   # I b.l.l.d     ] _ _ ",
"_ R       %.-.]       <.6     b 6.w.L       a.&.      :.a.%.      4._ _ ",
"_ ^               # 8 i.O.    #           J l.j.*               9 h._ _ ",
"_ _ Q     #       8 4.w.i.'             S h.h.h.w.:   #       r i.) _ _ ",
"_ _ _ <.] M x J O.w.w.w.w.i.w.} S Z X.6.j.h.h.h.h.h.&.I b ] <.z.l._ _ _ ",
"_ _ _ 4.4.4.4.4.4.4.w.w.w.w.i.i.i.i.i.i.h.h.h.h.h.h.h.h.h.l.l.l.l._ _ _ ",
"_ _ _ _ 4.4.4.4.4.4.4.w.w.w.w.w.i.i.i.i.i.h.h.h.h.h.h.h.h.l.l.l._ _ _ _ ",
"_ _ _ _ w.4.4.4.4.4.4.w.w.w.w.w.w.i.i.i.i.i.i.i.i.i.h.h.h.l.l.l._ _ _ _ ",
"_ _ _ _ _ 4.4.4.4.4.4.4.4.w.w.w.w.w.i.i.i.i.i.i.i.i.h.h.l.l.l._ _ _ _ _ ",
"_ _ _ _ _ _ 4.4.4.4.4.4.4.4.w.w.w.w.w.w.w.w.w.i.i.i.h.h.l.l._ _ _ _ _ _ ",
"_ _ _ _ _ _ _ 4.4.4.4.4.4.4.4.4.4.w.w.w.w.w.w.w.i.i.h.h.l._ _ _ _ _ _ _ ",
"_ _ _ _ _ _ _ _ 4.4.4.4.4.4.4.4.4.4.4.w.w.w.w.w.i.i.h.h._ _ _ _ _ _ _ _ ",
"_ _ _ _ _ _ _ _ _ 4.4.4.4.4.4.4.4.4.4.4.w.w.w.w.i.i.h._ _ _ _ _ _ _ _ _ ",
"_ _ _ _ _ _ _ _ _ _ _ 4.4.4.4.4.4.4.4.4.4.w.w.i.w._ _ _ _ _ _ _ _ _ _ _ ",
"_ _ _ _ _ _ _ _ _ _ _ _ _ _ 4.4.4.4.4.4.w.w._ _ _ _ _ _ _ _ _ _ _ _ _ _ ",
"_ _ _ _ _ _ _ _ _ _ _ _ _ _ _ _ _     _ _ _ _ _ _ _ _ _ _ _ _ _ _ _ _ _ ",
"_ _ _ _ _ _ _ _ _ _ _ _ _ _ _ _ _     _ _ _ _ _ _ _ _ _ _ _ _ _ _ _ _ _ "
};
