/* XPM */
static char *wmoku-0-LB-107[] = {
/* columns rows colors chars-per-pixel */
"36 36 99 2",
"   c #000600060006",
".  c #01A801A801A8",
"X  c #027602760276",
"o  c #03B103B103B1",
"O  c #04CB04CB04CB",
"+  c #055105510551",
"@  c #062306230623",
"#  c #075607560756",
"$  c #112611261126",
"%  c #179317931793",
"&  c #19F819F819F8",
"*  c #1B9C1B9C1B9C",
"=  c #247B247B247B",
"-  c #259825982598",
";  c #2EDF2EDF2EDF",
":  c #312331233123",
">  c #339033903390",
",  c #42C942C942C9",
"<  c #459B459B459B",
"1  c #4C714C714C71",
"2  c #4FDC4FDC4FDC",
"3  c #538E538E538E",
"4  c #554955495549",
"5  c #563056305630",
"6  c #571C571C571C",
"7  c #595159515951",
"8  c #59C859C859C8",
"9  c #5AAA5AAA5AAA",
"0  c #5BD25BD25BD2",
"q  c #5DD45DD45DD4",
"w  c #5FEA5FEA5FEA",
"e  c #61C761C761C7",
"r  c #655565556555",
"t  c #657865786578",
"y  c #66F666F666F6",
"u  c #68E368E368E3",
"i  c #6C2E6C2E6C2E",
"p  c #6DD86DD86DD8",
"a  c #6EB36EB36EB3",
"s  c #726172617261",
"d  c #766476647664",
"f  c #76C176C176C1",
"g  c #79E779E779E7",
"h  c #7B3B7B3B7B3B",
"j  c #7BA77BA77BA7",
"k  c #7C937C937C93",
"l  c #7FFB7FFB7FFB",
"z  c #8D246CF32C92",
"x  c #B8CB8EA63A5B",
"c  c #E79DB2CA4924",
"v  c #80EA80EA80EA",
"b  c #821E821E821E",
"n  c #843584358435",
"m  c #850B850B850B",
"M  c #87EF87EF87EF",
"N  c #8D7E8D7E8D7E",
"B  c #8F0E8F0E8F0E",
"V  c #921392139213",
"C  c #95D495D495D4",
"Z  c #999399939993",
"A  c #9AAD9AAD9AAD",
"S  c #9F259F259F25",
"D  c #A132A132A132",
"F  c #A1FAA1FAA1FA",
"G  c #A32FA32FA32F",
"H  c #A714A714A714",
"J  c #AA91AA91AA91",
"K  c #AC44AC44AC44",
"L  c #AEBAAEBAAEBA",
"P  c #B1D0B1D0B1D0",
"I  c #B331B331B331",
"U  c #B4F9B4F9B4F9",
"Y  c #B6DAB6DAB6DA",
"T  c #B7F6B7F6B7F6",
"R  c #B978B978B978",
"E  c #BA9DBA9DBA9D",
"W  c #BD57BD57BD57",
"Q  c #BE5DBE5DBE5D",
"!  c #BEFBBEFBBEFB",
"~  c #C166C166C166",
"^  c #C304C304C304",
"/  c #C4F7C4F7C4F7",
"(  c #C6ADC6ADC6AD",
")  c #C719C719C719",
"_  c #C844C844C844",
"`  c #CB04CB04CB04",
"'  c #CD83CD83CD83",
"]  c #CE9CCE9CCE9C",
"[  c #CF3BCF3BCF3B",
"{  c #D04CD04CD04C",
"}  c #D1F1D1F1D1F1",
"|  c #D562D562D562",
" . c #D64FD64FD64F",
".. c #D75CD75CD75C",
"X. c #DC3DDC3DDC3D",
"o. c #DF7DDF7DDF7D",
"O. c #E463E463E463",
"+. c #E79DE79DE79D",
"@. c #EFBEEFBEEFBE",
/* pixels */
"c c c c c c c c c c c c c c c c c     c c c c c c c c c c c c c c c c c ",
"c c c c c c c c c c c c c c c c c     c c c c c c c c c c c c c c c c c ",
"c c c c c c c c c c c c c c [ [ ) ) ) [ ..[ c c c c c c c c c c c c c c ",
"c c c c c c c c c c c [ ) [ [ [ [ [ [ ........[ ..c c c c c c c c c c c ",
"c c c c c c c c c [ ) [ [ [ [ [ [ [ ..............[ [ c c c c c c c c c ",
"c c c c c c c c [ ) ) [ [ [ [ [ [ ......o.o.o.o.....[ [ c c c c c c c c ",
"c c c c c c c [ ) ) ) ) [ [ [ [ [ ....o.o.o.o.o.o.o.....[ c c c c c c c ",
"c c c c c c [ ) ) ) ) ) [ [ [ [ ....o.o.o.+.+.+.+.o.o.....[ c c c c c c ",
"c c c c c [ ) ) ) ) ) ) ) [ [ [ ....o.o.+.+.+.+.+.+.o.o.o...[ c c c c c ",
"c c c c [ ) ) 0 6 G ) ) ) [ [ P g e v [ +.@.V u u t t e e e q 0 x c c c ",
"c c c c [ ) K   @ v ) ) _ [ 0   @   @   M @.>                 @ z c c c ",
"c c c [ E S * @ @ v ) ) _ j               Y >                   j c c c ",
"c c c q         @ g ) ) ^       v ) q     & ..) _ _ ) ^ E   @ = ..c c c ",
"c c c 0         @ g ) ) G       ......      X.@.@.@.+.+.$     ^ ..c c c ",
"c c Y J V V 3   @ g ! ) j @   q [ ....=     E @.@.+.+.j     N ..[ ) c c ",
"c c Y Y Y Y 3   @ g ! ! t   # s [ [ ..<     G +.+.+.}     & ....[ ) c c ",
"c c Y Y Y Y 2   @ g ! ! 0   @ v [ [ ..0   @ V +.+.o.2 @   K ..[ [ ) c c ",
"    K Y Y Y 3   @ g ! ! p   @ p [ [ [ ,     H o.o.)     = ..[ [ [ )     ",
"    K P K K 2   @ g ! ! M     q ) [ [ =     Y ....q @   G ..[ [ ) )     ",
"c c P K P K 2   @ d ! ! Z       ) ) _       ! ..}       _ [ [ [ ) ) c c ",
"c c K P K P 2   @ d ! ! !       M ! t     ; [ [ H     2 [ [ [ [ ) ) c c ",
"c c P K P K 1   @ d Y ! ! d               G [ [ 6     Z [ [ [ ) ) ) c c ",
"c c c K K P 2     d Y Y ! ! p           N ) ) )       ! [ [ [ [ ) c c c ",
"c c c P K K g 1 2 C Y Y Y ! ! H v 6 N Y ) ) ) ) 0 6 0 ) ) [ [ [ [ c c c ",
"c c c K P P K P P K E Y Y Y ! ! ! ! ! ! ) ) ) ) ) ) ) ) ) [ [ [ [ c c c ",
"c c c c K K P K K P K Y Y Y Y Y ! ! ! ! ! ) ) ) ) ) ) ) ) [ [ [ c c c c ",
"c c c c E K K P K K K Y Y Y Y Y Y ! ! ! ! ! ! ! ! ! ) ) ) [ [ [ c c c c ",
"c c c c c P K K P K P P K E Y Y Y Y ! ! ! ! ! ! ! ! ) ) [ [ [ c c c c c ",
"c c c c c c K K K P K K K K Y Y Y Y Y Y Y Y Y ! ! ! ) ) [ [ c c c c c c ",
"c c c c c c c P P K K P P P K P K Y Y Y Y Y Y Y ! ! ) ) [ c c c c c c c ",
"c c c c c c c c K P K P K P P K K P K E Y Y Y Y ! ! ) ) c c c c c c c c ",
"c c c c c c c c c P K K P K K P K K P K Y Y Y Y ! ! ) c c c c c c c c c ",
"c c c c c c c c c c c K P K P K K P K P K Y Y ^ Y c c c c c c c c c c c ",
"c c c c c c c c c c c c c c K P P K P K Y Y c c c c c c c c c c c c c c ",
"c c c c c c c c c c c c c c c c c     c c c c c c c c c c c c c c c c c ",
"c c c c c c c c c c c c c c c c c     c c c c c c c c c c c c c c c c c "
};
