/* XPM */
static char *wmoku-0-LB-312[] = {
/* columns rows colors chars-per-pixel */
"36 36 114 2",
"   c #000800080008",
".  c #018601860186",
"X  c #026A026A026A",
"o  c #039503950395",
"O  c #049004900490",
"+  c #059005900590",
"@  c #061D061D061D",
"#  c #0ABE0ABE0ABE",
"$  c #0E270E270E27",
"%  c #191C191C191C",
"&  c #1B2A1B2A1B2A",
"*  c #1DDB1DDB1DDB",
"=  c #1FFB1FFB1FFB",
"-  c #238A238A238A",
";  c #257525752575",
":  c #2E0F2E0F2E0F",
">  c #2F6E2F6E2F6E",
",  c #31EE31EE31EE",
"<  c #375437543754",
"1  c #394539453945",
"2  c #3D3A3D3A3D3A",
"3  c #3D663D663D66",
"4  c #402740274027",
"5  c #41EE41EE41EE",
"6  c #472C472C472C",
"7  c #4FFF4FFF4FFF",
"8  c #517251725172",
"9  c #531853185318",
"0  c #538E538E538E",
"q  c #570E570E570E",
"w  c #5ABE5ABE5ABE",
"e  c #5BF15BF15BF1",
"r  c #5CD35CD35CD3",
"t  c #5D6F5D6F5D6F",
"y  c #5E8A5E8A5E8A",
"u  c #601D601D601D",
"i  c #61F061F061F0",
"p  c #632463246324",
"a  c #67A067A067A0",
"s  c #694269426942",
"d  c #6CF06CF06CF0",
"f  c #711971197119",
"g  c #721972197219",
"h  c #762876287628",
"j  c #768E768E768E",
"k  c #791E791E791E",
"l  c #7DDA7DDA7DDA",
"z  c #7FC07FC07FC0",
"x  c #88C069902B2F",
"c  c #ACC2855B368E",
"v  c #B8228E233A26",
"b  c #E460B04A481E",
"n  c #E79DB2CA4924",
"m  c #80F780F780F7",
"M  c #820482048204",
"N  c #82C782C782C7",
"B  c #841684168416",
"V  c #862A862A862A",
"C  c #86B186B186B1",
"Z  c #885388538853",
"A  c #8B6D8B6D8B6D",
"S  c #8BF38BF38BF3",
"D  c #8D218D218D21",
"F  c #8DC38DC38DC3",
"G  c #8F328F328F32",
"H  c #90E690E690E6",
"J  c #923F923F923F",
"K  c #948B948B948B",
"L  c #949E949E949E",
"P  c #95F895F895F8",
"I  c #983298329832",
"U  c #9D789D789D78",
"Y  c #9E9D9E9D9E9D",
"T  c #A243A243A243",
"R  c #A324A324A324",
"E  c #A5A4A5A4A5A4",
"W  c #A776A776A776",
"Q  c #A95DA95DA95D",
"!  c #AA14AA14AA14",
"~  c #AC3DAC3DAC3D",
"^  c #AD12AD12AD12",
"/  c #AEBCAEBCAEBC",
"(  c #B124B124B124",
")  c #B1D2B1D2B1D2",
"_  c #B369B369B369",
"`  c #B5F7B5F7B5F7",
"'  c #B6DCB6DCB6DC",
"]  c #B838B838B838",
"[  c #B8C7B8C7B8C7",
"{  c #B9F5B9F5B9F5",
"}  c #BE38BE38BE38",
"|  c #BEFBBEFBBEFB",
" . c #C093C093C093",
".. c #C10AC10AC10A",
"X. c #C2FDC2FDC2FD",
"o. c #C416C416C416",
"O. c #C562C562C562",
"+. c #C5D2C5D2C5D2",
"@. c #C71BC71BC71B",
"#. c #C82DC82DC82D",
"$. c #C94AC94AC94A",
"%. c #CC5ACC5ACC5A",
"&. c #CE9CCE9CCE9C",
"*. c #CF3CCF3CCF3C",
"=. c #D54BD54BD54B",
"-. c #D75CD75CD75C",
";. c #D8B0D8B0D8B0",
":. c #DD9DDD9DDD9D",
">. c #DF7DDF7DDF7D",
",. c #E011E011E011",
"<. c #E79DE79DE79D",
"1. c #EC02EC02EC02",
"2. c #EE15EE15EE15",
"3. c #EFBEEFBEEFBE",
/* pixels */
"n n n n n n n n n n n n n n n n n o o b n n n n n n n n n n n n n n n n ",
"n n n n n n n n n n n n n n n n n o o b n n n n n n n n n n n n n n n n ",
"n n n n n n n n n n n n n n *.*.@.@.@.*.-.*.n n n n n n n n n n n n n n ",
"n n n n n n n n n n n *.@.*.*.*.*.*.*.=.-.-.-.*.-.n n n n n n n n n n n ",
"n n n n n n n n n *.@.*.*.*.*.*.*.*.-.-.-.-.-.-.-.*.*.n n n n n n n n n ",
"n n n n n n n n *.@.@.*.*.*.*.*.*.=.-.-.>.>.>.>.-.-.*.*.n n n n n n n n ",
"n n n n n n n *.@.@.@.@.*.*.*.*.*.-.-.>.>.>.>.>.>.>.-.-.*.n n n n n n n ",
"n n n n n n *.@.@.@.@.@.*.*.*.*.=.;.>.>.>.<.<.<.<.>.>.-.-.*.n n n n n n ",
"n n n n n *.@.@.@.@.@.@.@.*.*.*.=.;.,.,.<.<.<.<.<.<.>.>.>.;.*.n n n n n ",
"n n n n @.G d a G } @.@.@.*.*.*.;.i i } <.3.3.3.2.{ m r k / ;.*.n n n n ",
"n n n v o o o o o o G @.@.*.*.*.{ o + P <.3.3.;.& o o o o o : *.n n n n ",
"n n b o o o o o o o o ` @.*.} T * o + P <.3.<.+ o o o o o o + : *.n n n ",
"n n c o o o / / # o o V @.r o o o o o P <.3./ o o o #.=.J o o o ' n n n ",
"n n x o o d } } d o o w @.w o o o o + G <.2.g + o / <.<.>.2 o o J n n n ",
"n n q o o z } } r o o h @./ I Y q o + J <.<.9 o o X.<.<.>., o o U @.n n ",
"n n ` ` ` P & + o o o / @.@.#.*.w o + G >.<.>.=.*.<.<.>.m o o o X.@.n b ",
"b b { ` ` A o o o o - ! @.@.@.@.w o o A >.>.>.<.<.>.E # o o o z *.@.b b ",
"o o / ` ` Y 7 5 o o o o { @.@.@.w o o A ;.=.>.>.*.3 o o o o V *.*.@.o o ",
"o o k 6 6 G ` ` / ; o o J @.@.@.q o + V *.=.=.` o o o o r @.*.*.@.@.o o ",
"b b 9 o + r ` ` ` 2 o o m } @.@.q o + V *.*.@.o o o 3 @.*.*.*.*.@.@.b n ",
"n n h o o o J E V o o o E } X.@.q o + V *.*.k o o p ! ! / ! ! / X.@.b n ",
"n n E o o o o o o o o : } } } } 9 o + m @.*.* o o o o o o o o o m @.n n ",
"n n b G o o o o o o : / } X.} X.9 o o m @.@.o o o o o o o o o o m n n n ",
"n n n / ! m w 9 d P ` ` ` } } } V 9 q T @.@.w q q 9 q q 9 w w w ! n n n ",
"n n n / / / / / / / ` ` ` ` } } } } X.} @.@.@.@.@.@.@.@.@.*.*.*.*.n n n ",
"n n n n / / / / / / / { ` { ` { } } } } } @.@.@.@.@.@.@.@.*.*.*.n n n n ",
"n n n n ` / / / / / / ` ` ` { ` ` X.} } } } } X.} } @.@.@.*.*.*.n n n n ",
"n n n n n / / / / / / / / ` ` ` ` ` } X.} } } } } } @.@.*.*.*.n n n n n ",
"n n n n n n / / / / / / / / ` ` ` { ` ` { ` ` } X.} @.@.*.*.n n n n n n ",
"n n n n n n n / / / / / / / / / / ` ` ` ` ` ` { } } @.@.*.n n n n n n n ",
"n n n n n n n n / / / / / / / / / / / { ` ` ` { } } @.@.n n n n n n n n ",
"n n n n n n n n n / / / / / / / / / / / { ` ` ` } } @.n n n n n n n n n ",
"n n n n n n n n n n n / / / / / / / / / / ` ' | ' n n n n n n n n n n n ",
"n n n n n n n n n n n n n n / / / ~ / / ` ` n n n n n n n n n n n n n n ",
"n n n n n n n n n n n n n n n n b o o n n n n n n n n n n n n n n n n n ",
"n n n n n n n n n n n n n n n n b o o n n n n n n n n n n n n n n n n n "
};
