/* XPM */
static char *wmoku-0-LB-279[] = {
/* columns rows colors chars-per-pixel */
"36 36 131 2",
"   c #000B000B000B",
".  c #019B019B019B",
"X  c #02B1021400D9",
"o  c #02A502A502A5",
"O  c #032A032A032A",
"+  c #0589044601BF",
"@  c #049F049F049F",
"#  c #056205620562",
"$  c #06E206E206E2",
"%  c #08C908C908C9",
"&  c #184212B907A9",
"*  c #112611261126",
"=  c #1AF31AF31AF3",
"-  c #23BE1B970B49",
";  c #203C203C203C",
":  c #230823082308",
">  c #23C223C223C2",
",  c #27CA27CA27CA",
"<  c #288928892889",
"1  c #2AB32AB32AB3",
"2  c #2BF82BF82BF8",
"3  c #2DB72DB72DB7",
"4  c #2F472F472F47",
"5  c #323B323B323B",
"6  c #345234523452",
"7  c #357D357D357D",
"8  c #39F039F039F0",
"9  c #3DE63DE63DE6",
"0  c #534440471A4C",
"q  c #65554E382000",
"w  c #6BFC535B221A",
"e  c #6E29550922CA",
"r  c #428C428C428C",
"t  c #436543654365",
"y  c #461F461F461F",
"u  c #464D464D464D",
"i  c #49C449C449C4",
"p  c #4C6E4C6E4C6E",
"a  c #4EAC4EAC4EAC",
"s  c #4FCE4FCE4FCE",
"d  c #506550655065",
"f  c #52CB52CB52CB",
"g  c #538E538E538E",
"h  c #560A560A560A",
"j  c #567A567A567A",
"k  c #578F578F578F",
"l  c #5AAA5AAA5AAA",
"z  c #5E385E385E38",
"x  c #61C761C761C7",
"c  c #643164316431",
"v  c #655565556555",
"b  c #658665866586",
"n  c #68E368E368E3",
"m  c #6B146B146B14",
"M  c #6BE56BE56BE5",
"N  c #6F176F176F17",
"B  c #6FEC6FEC6FEC",
"V  c #766476647664",
"C  c #76E676E676E6",
"Z  c #78E678E678E6",
"A  c #7BA77BA77BA7",
"S  c #7D6A7D6A7D6A",
"D  c #7EEF7EEF7EEF",
"F  c #8CA86C932C6B",
"G  c #AAE083E735F6",
"H  c #CCD89E2040B0",
"J  c #D157A199421B",
"K  c #DC9AAA4A45AA",
"L  c #E011ACF746C2",
"P  c #E402B0014800",
"I  c #E602B18D48A2",
"U  c #E6DEB23748E8",
"Y  c #E79DB2CA4924",
"T  c #83CC83CC83CC",
"R  c #84E084E084E0",
"E  c #877287728772",
"W  c #894289428942",
"Q  c #8AAE8AAE8AAE",
"!  c #8D298D298D29",
"~  c #8E858E858E85",
"^  c #91E691E691E6",
"/  c #92C592C592C5",
"(  c #944094409440",
")  c #94F194F194F1",
"_  c #95C295C295C2",
"`  c #974D974D974D",
"'  c #983598359835",
"]  c #98AD98AD98AD",
"[  c #9B539B539B53",
"{  c #9F819F819F81",
"}  c #9FD69FD69FD6",
"|  c #A31DA31DA31D",
" . c #A496A496A496",
".. c #A648A648A648",
"X. c #A6EBA6EBA6EB",
"o. c #A871A871A871",
"O. c #A93AA93AA93A",
"+. c #AC48AC48AC48",
"@. c #ACEBACEBACEB",
"#. c #AEBAAEBAAEBA",
"$. c #AFEFAFEFAFEF",
"%. c #B103B103B103",
"&. c #B1DDB1DDB1DD",
"*. c #B3C8B3C8B3C8",
"=. c #B551B551B551",
"-. c #B6DBB6DBB6DB",
";. c #B7D6B7D6B7D6",
":. c #B91DB91DB91D",
">. c #BA7EBA7EBA7E",
",. c #BC7FBC7FBC7F",
"<. c #BD3DBD3DBD3D",
"1. c #BE60BE60BE60",
"2. c #BEFCBEFCBEFC",
"3. c #C1FAC1FAC1FA",
"4. c #C524C524C524",
"5. c #C6C4C6C4C6C4",
"6. c #C71BC71BC71B",
"7. c #C909C909C909",
"8. c #CB65CB65CB65",
"9. c #CDCFCDCFCDCF",
"0. c #CF3CCF3CCF3C",
"q. c #D008D008D008",
"w. c #D45CD45CD45C",
"e. c #D75CD75CD75C",
"r. c #D8FDD8FDD8FD",
"t. c #DE8ADE8ADE8A",
"y. c #DF7DDF7DDF7D",
"u. c #E0A7E0A7E0A7",
"i. c #E79DE79DE79D",
"p. c #ED8AED8AED8A",
"a. c #EFBEEFBEEFBE",
/* pixels */
"Y Y Y Y Y Y Y Y Y Y Y Y Y Y Y Y Y o o I Y Y Y Y Y Y Y Y Y Y Y Y Y Y Y Y ",
"Y Y Y Y Y Y Y Y Y Y Y Y Y Y Y Y Y o o I Y Y Y Y Y Y Y Y Y Y Y Y Y Y Y Y ",
"Y Y Y Y Y Y Y Y Y Y Y Y Y Y 0.0.6.6.6.0.e.q.Y Y Y Y Y Y Y Y Y Y Y Y Y Y ",
"Y Y Y Y Y Y Y Y Y Y Y 0.6.0.0.0.0.0.0.w.e.e.e.q.w.Y Y Y Y Y Y Y Y Y Y Y ",
"Y Y Y Y Y Y Y Y Y 0.6.0.0.0.0.0.0.0.e.e.e.e.w.r.e.0.0.Y Y Y Y Y Y Y Y Y ",
"Y Y Y Y Y Y Y Y 0.6.6.0.0.0.0.0.w.w.r.w.y.u.y.y.e.e.0.q.Y Y Y Y Y Y Y Y ",
"Y Y Y Y Y Y Y 0.6.6.6.6.0.0.0.0.0.r.e.y.y.y.y.y.y.y.e.e.0.I Y Y Y Y Y Y ",
"Y Y Y Y Y Y 0.6.6.6.6.6.0.0.0.0.w.w.u.y.y.i.i.i.i.y.u.e.w.w.Y Y Y Y Y Y ",
"Y Y Y Y I 0.6.6.6.6.6.6.6.0.0.w.r.w.y.y.i.i.i.i.i.i.y.y.y.w.q.Y Y Y Y Y ",
"Y Y Y Y X.N h m } 6.6.6.Z k k k z z x x v m 1.a.a.i.1.W v T 1.0.Y Y Y Y ",
"Y Y J & o o o @ o 1 1.6., o o o o o o o o @ ^ a.u.u o o o o o N Y Y Y Y ",
"Y P + o o o o o o @ 1 6.1 o o o o o o o o o _ p.r @ o o o o o o / Y Y Y ",
"Y G o o o | :.D o o o o.%.X.@.@.%.-.:.o o 1 p.3.o o o @.0.T o o o I I Y ",
"Y e o o W 1.1.1.5 o o E 6.6.0.0.w.w.% o o r.p.^ o o m i.y.y.; o o H I I ",
"Y 0 o o | 1.1.1.3 o o _ 6.6.6.0.0.C o o _ i.i.C o @ W i.y.y.a o o ^ I I ",
"Y L X.X.-.-.-.N o o o %.6.6.6.0.:.o o = y.i.i.X.o o 1 y.y.8.o o + E Y I ",
"I I -.-.-.W @ o o o Z 3.6.6.6.6.i o o o.y.y.y.y.o o o = h o o o @ E I I ",
"o o @.X.5 o o o o D 1.1.1.6.6.@.o o , w.r.r.y.y.o.o @ o o o o o o ! o o ",
"o o ^ o o o o a X.1.1.1.1.8.6.h o o [ 0.0.w.r.w.w.8.D 9 3 N ; o o | o o ",
"I K o o o 7 X.-.-.-.1.1.1.1.3.o o o 8.0.0.0.0.%.o o r w.0.3.o o o 1.I Y ",
"I F o o h ^ ^ _ _ _ [ :.1.1._ o o i 6.0.0.0.0.3.o o o | -.r o o 8 6.Y Y ",
"I - o o o o o o o o o D 1.1.s o o ^ 6.6.6.0.0.0.i o o o o o o o $.6.Y Y ",
"I o o o o o o o o o o C 1.1.o o o -.6.6.6.6.6.6.6., o o o o o [ 6.Y Y Y ",
"I w q i i a i i i s a _ -.1.h h h 1.6.6.6.6.6.6.6.6._ N x ^ 6.0.0.Y Y Y ",
"I Y Y @.$.@.$.$.@.$.-.-.-.-.1.1.2.2.2.2.6.6.6.6.6.6.6.6.6.0.0.0.q.Y Y Y ",
"Y Y Y Y @.$.$.@.%.@.@.:.-.-.-.-.2.2.2.2.2.6.6.6.6.6.6.6.6.0.0.0.Y Y Y Y ",
"Y Y Y Y ;.@.@.$.@.%.@.;.-.;.-.-.;.1.2.2.2.2.2.2.1.1.8.6.6.0.0.0.Y Y Y Y ",
"Y Y Y Y Y $.@.$.$.@.%.@.@.;.-.-.-.-.2.1.2.2.2.2.1.1.6.6.0.0.0.I Y Y Y Y ",
"Y Y Y Y Y Y $.@.@.$.@.%.%.@.-.:.-.-.-.-.-.-.-.1.1.1.6.6.0.0.Y Y Y Y Y Y ",
"Y Y Y Y Y Y Y $.%.@.%.@.@.$.@.@.@.:.-.-.-.-.-.-.1.1.6.6.0.Y Y Y Y Y Y Y ",
"Y Y Y Y Y Y Y Y @.$.$.@.$.@.@.$.@.%.@.:.-.-.-.-.1.2.6.6.Y Y Y Y Y Y Y Y ",
"Y Y Y Y Y Y Y Y Y %.@.%.@.%.%.@.$.@.$.@.-.-.-.;.2.2.6.Y Y Y Y Y Y Y Y Y ",
"Y Y Y Y Y Y Y Y Y Y Y $.@.$.@.$.@.$.@.$.$.-.-.1.-.Y Y Y Y Y Y Y Y Y Y Y ",
"Y Y Y Y Y Y Y Y Y Y Y Y Y Y @.$.@.@.$.@.-.-.Y Y Y Y Y Y Y Y Y Y Y Y Y Y ",
"Y Y Y Y Y Y Y Y Y Y Y Y Y Y Y Y I o o Y Y Y Y Y Y Y Y Y Y Y Y Y Y Y Y Y ",
"Y Y Y Y Y Y Y Y Y Y Y Y Y Y Y Y I o o Y Y Y Y Y Y Y Y Y Y Y Y Y Y Y Y Y "
};
