/* XPM */
static char *wmoku-0-LB-149[] = {
/* columns rows colors chars-per-pixel */
"36 36 98 2",
"   c #000800080008",
".  c #018A018A018A",
"X  c #02B502B502B5",
"o  c #037703770377",
"O  c #04BC04BC04BC",
"+  c #056C056C056C",
"@  c #072D072D072D",
"#  c #091609160916",
"$  c #1B9C1B9C1B9C",
"%  c #1E001E001E00",
"&  c #1F3A1F3A1F3A",
"*  c #203C203C203C",
"=  c #24F924F924F9",
"-  c #254A254A254A",
";  c #27CA27CA27CA",
":  c #29D929D929D9",
">  c #2DB72DB72DB7",
",  c #325232523252",
"<  c #3C4D3C4D3C4D",
"1  c #3DE63DE63DE6",
"2  c #428C428C428C",
"3  c #436543654365",
"4  c #461F461F461F",
"5  c #464D464D464D",
"6  c #4C704C704C70",
"7  c #4FFF4FFF4FFF",
"8  c #51A451A451A4",
"9  c #52C652C652C6",
"0  c #538E538E538E",
"q  c #571C571C571C",
"w  c #584D584D584D",
"e  c #5AAA5AAA5AAA",
"r  c #5BB15BB15BB1",
"t  c #5DF55DF55DF5",
"y  c #61C761C761C7",
"u  c #643164316431",
"i  c #651965196519",
"p  c #658665866586",
"a  c #6E0B6E0B6E0B",
"s  c #6ED76ED76ED7",
"d  c #6FEC6FEC6FEC",
"f  c #74BF74BF74BF",
"g  c #766476647664",
"h  c #7B3B7B3B7B3B",
"j  c #7BA77BA77BA7",
"k  c #7D5D7D5D7D5D",
"l  c #7E417E417E41",
"z  c #E79DB2CA4924",
"x  c #80E980E980E9",
"c  c #83CC83CC83CC",
"v  c #84E384E384E3",
"b  c #862A862A862A",
"n  c #892289228922",
"m  c #89F189F189F1",
"M  c #8C6C8C6C8C6C",
"N  c #8CEB8CEB8CEB",
"B  c #921D921D921D",
"V  c #945694569456",
"C  c #95C295C295C2",
"Z  c #98BA98BA98BA",
"A  c #9A399A399A39",
"S  c #9C7B9C7B9C7B",
"D  c #9F599F599F59",
"F  c #A33FA33FA33F",
"G  c #A496A496A496",
"H  c #A62AA62AA62A",
"J  c #A88EA88EA88E",
"K  c #A948A948A948",
"L  c #AA91AA91AA91",
"P  c #AC11AC11AC11",
"I  c #AEBAAEBAAEBA",
"U  c #B000B000B000",
"Y  c #B2BCB2BCB2BC",
"T  c #B66FB66FB66F",
"R  c #B6DAB6DAB6DA",
"E  c #B7D6B7D6B7D6",
"W  c #B978B978B978",
"Q  c #BA1ABA1ABA1A",
"!  c #BC7FBC7FBC7F",
"~  c #BE30BE30BE30",
"^  c #BEFBBEFBBEFB",
"/  c #C126C126C126",
"(  c #C1DCC1DCC1DC",
")  c #C524C524C524",
"_  c #C62DC62DC62D",
"`  c #C71BC71BC71B",
"'  c #C9E1C9E1C9E1",
"]  c #CBC7CBC7CBC7",
"[  c #CE9CCE9CCE9C",
"{  c #CF3CCF3CCF3C",
"}  c #D594D594D594",
"|  c #D6B1D6B1D6B1",
" . c #D75CD75CD75C",
".. c #DF7DDF7DDF7D",
"X. c #E0A7E0A7E0A7",
"o. c #E6ABE6ABE6AB",
"O. c #E79DE79DE79D",
"+. c #EFBEEFBEEFBE",
/* pixels */
"z z z z z z z z z z z z z z z z z . . z z z z z z z z z z z z z z z z z ",
"z z z z z z z z z z z z z z z z z . . z z z z z z z z z z z z z z z z z ",
"z z z z z z z z z z z z z z { { ` ` ` {  .{ z z z z z z z z z z z z z z ",
"z z z z z z z z z z z { ` { { { { { { }  . . .{  .z z z z z z z z z z z ",
"z z z z z z z z z { ` { { { { { { {  . . . .}  . .{ { z z z z z z z z z ",
"z z z z z z z z { ` ` { { { { { { }  .} ..X..... . .{ { z z z z z z z z ",
"z z z z z z z { ` ` ` ` { { { { {  . ...........X... . .{ z z z z z z z ",
"z z z z z z { ` ` ` ` ` { { { { }  .X.X...O.O.O.O...X. . .{ z z z z z z ",
"z z z z z { ` ` ` ` ` ` ` { { {  . .....O.O.O.O.O.O.......} { z z z z z ",
"z z z z { ` ` r q F ` ` ` { { {  .y y F O.+.+.+.+.~ B u x `  .{ z z z z ",
"z z z z { ` L . + x ` ` ` { { { c . . u O.+.+.X.4 . . . + . f } z z z z ",
"z z z { W D $ . + x ` ` ` { { U . . . u O.+.+.2 + . . . . . . C { z z z ",
"z z z r . . . . + j ` ` ` ` ' # . . . y O.+.( . . . Y  .c . . . } z z z ",
"z z z r . . . . + j ` ` ` ` r . . + . y O.+.B . + d O.O...= . . ( z z z ",
"z z T L B B 9 . + j ~ ` ` B . . , + . y O.O.f . + n O.O...9 . . C ' z z ",
"z z T T T T 7 . + j ~ ~ T . . . c + . y ..O.H . . > O.X.{ . . . n ` z z ",
"z z T T T T 7 . + j ~ W : + . B c + . r X...} . . . * 9 . . . + n ` z z ",
". . U Y T T 7 . + k ~ d . . 9 ` c # . r  .} X.U . . . . + . . . B ` . . ",
". . U U U U 7 . + j U . . . % % % . . * % k } } ' k 1 > f * . . H ` . . ",
"z z U L U U 7 . + g U . . . . . . . . . . r L . . 4 } } ( . . . ~ ` z z ",
"z z U U U L 6 . + g W 9 q 9 9 r q + . r r B ` . . . F T 2 . . 1 ` ` z z ",
"z z U L U U 6 . + g T ~ ~ ~ ~ ~ x + . q ` { { 6 . . . . . . . Y ` ` z z ",
"z z z U L U 6 . + g T T ( ~ ~ ( j + . q ` ` ` ~ = . . . . . D { ` z z z ",
"z z z U U U j 6 7 C T T T ~ ~ ~ D 9 q n ` ` ` ` ` C f u n ` { { { z z z ",
"z z z U L U L U U U T T T T ~ ~ ~ ~ ~ ~ ` ` ` ` ` ` ` ` ` { { { { z z z ",
"z z z z U U U U L U U T T T T T ~ ~ ( ~ ~ ` ` ' ` ` ` ` ` { { { z z z z ",
"z z z z T U L U U U U T T T T T W ~ ~ ( ~ ~ ~ ~ ~ ( ` ` ` { { { z z z z ",
"z z z z z L U U L U U U U T T T T T ~ ~ ~ ( ~ ~ ~ ~ ` ` { { { z z z z z ",
"z z z z z z U U U L U L U L T T T T T T T T T ( ~ ~ ` ` { { z z z z z z ",
"z z z z z z z U U U U U U U U U U T W T T W T T ~ ~ ` ` { z z z z z z z ",
"z z z z z z z z U L L U U L L U L U U T T T T W ( ~ ` ` z z z z z z z z ",
"z z z z z z z z z U U U U U U U U U U U T T T T ~ ~ ` z z z z z z z z z ",
"z z z z z z z z z z z L U U U L L U U L U T T ~ T z z z z z z z z z z z ",
"z z z z z z z z z z z z z z U U U U U U T T z z z z z z z z z z z z z z ",
"z z z z z z z z z z z z z z z z z . . z z z z z z z z z z z z z z z z z ",
"z z z z z z z z z z z z z z z z z . . z z z z z z z z z z z z z z z z z "
};
