/* XPM */
static char *wmoku-5-conv[] = {
/* columns rows colors chars-per-pixel */
"25 25 189 2",
"   c #032801A70000",
".  c #039402120000",
"X  c #0682050101FF",
"o  c #6B336A9B696B",
"O  c #6B826AEA69BA",
"+  c #79F979617831",
"@  c #7A24798D785D",
"#  c #B2E1894B3622",
"$  c #B36A89D436AB",
"%  c #B3F98A64373B",
"&  c #B087A0217F57",
"*  c #B137A0D28008",
"=  c #DB82B1ED5EC1",
"-  c #DE84B2245964",
";  c #DFD8B3785AB8",
":  c #CC4EB0EC7A29",
">  c #D993B1CC623E",
",  c #DD53B3BD6092",
"<  c #DE00B46A613F",
"1  c #E0A7B71163E6",
"2  c #DFB6B7F76879",
"3  c #D25BB6F98035",
"4  c #E7D7B28747E8",
"5  c #E802B2584704",
"6  c #E809B29347A7",
"7  c #E861B2D647BF",
"8  c #E7C7B2A4485D",
"9  c #E721B2A649AE",
"0  c #E79EB2CA4921",
"q  c #E76BB2EF49F8",
"w  c #E7EFB2CC4886",
"e  c #E571B2A24D05",
"r  c #E631B3624DC5",
"t  c #E6C3B3F54E58",
"y  c #E6FFB4314E94",
"u  c #EBDEB53C47F7",
"i  c #EC1AB5774832",
"p  c #EC6FB5CC4887",
"a  c #E268B6075D47",
"s  c #E3A7B7475E87",
"d  c #E3E6B7855EC5",
"f  c #E158B7C26497",
"g  c #E284B8EE65C3",
"h  c #E19BB9D36A42",
"j  c #B463A3FE8334",
"k  c #BEF7AE928DC8",
"l  c #BF85AF208E55",
"z  c #C042AFDD8F12",
"x  c #AEA3AEA3AEA3",
"c  c #AE52AEABAF5D",
"v  c #ADEEAE9EAFFD",
"b  c #AE51AEB3AF77",
"n  c #AE40AEC3AFC9",
"m  c #AEBDAEB6AEA9",
"M  c #AECFAECEAECB",
"N  c #AFDBAFDBAFDB",
"B  c #AD32AE8DB143",
"V  c #AE89AF8DB195",
"C  c #AEEEAFF2B1FB",
"Z  c #B3FEAF1AA553",
"A  c #B694AF49A0B4",
"S  c #B5E0AF3DA1F5",
"D  c #B553AF33A2F1",
"F  c #B82AB186A43E",
"G  c #BC0DB72AAD62",
"H  c #B113B113B113",
"J  c #B2ABB2ABB2AB",
"K  c #B318B319B31D",
"L  c #B465B465B465",
"P  c #B282B3DDB694",
"I  c #B508B508B508",
"U  c #B689B68AB68C",
"Y  c #B659B6B2B765",
"T  c #B70AB70AB70A",
"R  c #B800B800B800",
"E  c #B6A0B7A4B9AD",
"W  c #B87BB9D6BC8D",
"Q  c #B8DAB8DAB8DA",
"!  c #BA5EBA5EBA5E",
"~  c #B92EB9B3BABD",
"^  c #BB03BB03BB03",
"/  c #BC8ABC8ABC8A",
"(  c #BDFEBDFEBDFE",
")  c #BF1EBF1DBF1D",
"_  c #BF43BFADC082",
"`  c #C01EC01EC01E",
"'  c #BFDAC033C0E5",
"]  c #C706B18C8699",
"[  c #CB6AB5F08AFD",
"{  c #CC24B6AA8BB8",
"}  c #C418B3B392E9",
"|  c #DAC6BF6488A1",
" . c #DB49BFE78924",
".. c #DBE3C08189BE",
"X. c #D591C0179523",
"o. c #D5E8C06F957B",
"O. c #C123B9D8AB44",
"+. c #DDB6C2548B90",
"@. c #DE68C3068C42",
"#. c #DA5DC4E399F0",
"$. c #DD6BC7F29CFE",
"%. c #C608C124B75D",
"&. c #CA32C38EB646",
"*. c #CD5BC611B77C",
"=. c #CBF9C715BD4E",
"-. c #CE7BC7D7BA8F",
";. c #CE62C842BC00",
":. c #CFC5C87AB9E5",
">. c #CF3CC897BB4F",
",. c #D24DCB03BC6E",
"<. c #D260CBBDBE74",
"1. c #D242CC22BFE1",
"2. c #D2D8CC35BEEC",
"3. c #C1B6C1B6C1B6",
"4. c #C204C204C204",
"5. c #C326C326C326",
"6. c #C3D7C3D7C3D7",
"7. c #C52AC52AC52A",
"8. c #C680C67EC67C",
"9. c #C59AC633C764",
"0. c #C647C6CCC7D6",
"q. c #C73AC739C738",
"w. c #C845C844C842",
"e. c #C704C7ABC8FB",
"r. c #C73FC89ACB51",
"t. c #C975C975C975",
"y. c #C957C9C2CA97",
"u. c #CA7ECA7ECA7E",
"i. c #C991CA95CC9E",
"p. c #CA13CA7DCB53",
"a. c #CB5DCB5DCB5D",
"s. c #CB46CC0DCD9B",
"d. c #CD6BCD69CD66",
"f. c #CE49CE49CE49",
"g. c #CDC9CE22CED4",
"h. c #CDF0CE88CFBA",
"j. c #CF5CCF5CCF5C",
"k. c #CF14CF88D06F",
"l. c #D038D03AD03E",
"z. c #CEB4CFB8D1C0",
"x. c #CE81CFDCD292",
"c. c #CEE8CFEDD1F6",
"v. c #CF16D071D328",
"b. c #D0D9CBF5C22E",
"n. c #D6B1CF66C0D2",
"m. c #D604CF60C218",
"M. c #D57ECF5DC31C",
"N. c #D66BD04BC409",
"B. c #D7FDD0B3C21E",
"V. c #D6B3D1D0C808",
"C. c #D79CD2B8C8F1",
"Z. c #D180D180D180",
"A. c #D237D237D237",
"S. c #D342D342D342",
"D. c #D432D436D440",
"F. c #D498D503D5D9",
"G. c #D564D564D564",
"H. c #D5E8D5E8D5E8",
"J. c #D5C1D6C5D8CD",
"K. c #D771D771D770",
"L. c #D748D7AAD86D",
"P. c #D831D831D831",
"I. c #D62FD78ADA41",
"U. c #D756D7E4D901",
"Y. c #D900D900D900",
"T. c #DA44DA44DA44",
"R. c #D9EADA6EDB78",
"E. c #DA5CDB23DCB0",
"W. c #DB7EDB7EDB7D",
"Q. c #DB85DBDEDC90",
"!. c #DBF7DC8FDDC1",
"~. c #DD81DD7FDD7D",
"^. c #DE2BDE28DE23",
"/. c #E04EE04DE04C",
"(. c #E116E116E116",
"). c #E2DBE2DBE2DB",
"_. c #E32EE32EE32E",
"`. c #E4A7E4A7E4A7",
"'. c #E59AE59AE59A",
"]. c #E617E617E617",
"[. c #E799E799E799",
"{. c #E8BAE8BAE8BA",
"}. c #E97DE97DE97D",
"|. c #EA54EA54EA54",
" X c #EB46EB46EB46",
".X c #EDA3EDA3EDA3",
"XX c #EE05EE05EE05",
"oX c #EFA4EFA4EFA4",
"OX c #F00DF00DF00D",
/* pixels */
"0 0 0 0 0 0 0 0 0 0 p $ X $ p 0 0 0 0 0 0 0 0 0 0 ",
"0 0 0 0 0 0 5 0 r g #.z @ } $.g r 0 6 0 0 0 0 0 0 ",
"0 0 0 0 0 5 d  .>.b.k.k.D.J.I.C.m.+.d 0 0 0 0 0 0 ",
"0 0 0 0 5 h >.y.j.k.k.l.J.I.W.Q.W.J.,.2 6 0 0 0 0 ",
"0 0 0 5 h >.e.e.j.k.k.C.K.W./././.^.W.m.h 6 0 0 0 ",
"0 0 0 h ;.e.8.8.y.j.k.G.W./.`.[.].].^.W.N.h 0 0 0 ",
"0 6 d >.e.8.8.8.8.j.j.G.W.`.|.XXXX|.`./.!.m.d 6 0 ",
"0 0  .y.8.4.8.8.8.j.j.J.W.]. XOXOXXX[.).^.J.+.0 0 ",
"0 y *.8.6.) 4.8.8.y.j.J.W.`. XOXOXoX X).^.Y.N.y 0 ",
"0 < %._ ) ) ) 8.8.y.j.D.Y./.|..XOXoX[.`.^.K.C.1 5 ",
"p { W ^ ^ ) ) ) 8.8.a.j.G.^.`.[. X[.[./.W.Y.l.o.p ",
"$ j Y T T ) ) ) 4.8.y.j.l.Y.^./.`.)./.W.K.l.l.z $ ",
"  O T K T R ) ) ` 8.q.a.C.l.J.W.W.W.Y.K.J.j.k.+   ",
"$ & B m K T R ) ) 4.8.q.i.k.l.l.G.J.G.D.j.j.i.z $ ",
"p ] B m m T T / ) ) 4.8.w.y.j.j.j.j.j.j.j.j.e.o.u ",
"0 = Z m m m T R / ) ` 4.8.8.8.e.y.j.j.a.j.j.=.1 0 ",
"0 r S m m m K T T ^ ) ) 4.4.8.8.8.e.w.w.j.l.,.y 0 ",
"0 0 : m m m m K T T ^ ) ) ) 4.8.8.8.8.8.a.j. .0 0 ",
"0 6 ; F v m m K T T T Y ) ) ) ) 4.) 8.y.k.,.d 5 0 ",
"0 0 6 > D m m m m K T T ^ ^ ^ ^ ) ) 8.i.b.h 0 0 0 ",
"0 0 0 6 > D m m m m N K K T T T ^ _ e.*.h 5 w 0 0 ",
"0 0 0 0 6 > S B m m m m m K T T ^ _ &.2 5 w 0 0 0 ",
"0 0 0 0 0 6 ; : S Z B B K B P G G 3 d 6 0 0 0 0 0 ",
"0 0 0 0 0 0 6 0 r = ] & O & { , r 0 5 0 0 0 0 0 0 ",
"0 0 0 0 0 0 0 0 0 0 u $ X $ p 0 w 0 0 0 0 0 0 0 0 "
};
