/* XPM */
static char *wmoku-0-LB-5[] = {
/* columns rows colors chars-per-pixel */
"36 36 72 1",
"  c #000B000B000B",
". c #019E019E019E",
"X c #027202720272",
"o c #035E035E035E",
"O c #04B904B904B9",
"+ c #057405740574",
"@ c #17B917B917B9",
"# c #1B241B241B24",
"$ c #205520552055",
"% c #245C245C245C",
"& c #26CA26CA26CA",
"* c #29CA29CA29CA",
"= c #2D4D2D4D2D4D",
"- c #343034303430",
"; c #35FC35FC35FC",
": c #389538953895",
"> c #3E383E383E38",
", c #442544254425",
"< c #456C456C456C",
"1 c #473247324732",
"2 c #488048804880",
"3 c #4ED44ED44ED4",
"4 c #538C538C538C",
"5 c #5AAA5AAA5AAA",
"6 c #5BD75BD75BD7",
"7 c #5C815C815C81",
"8 c #5E385E385E38",
"9 c #611861186118",
"0 c #61C761C761C7",
"q c #631163116311",
"w c #655565556555",
"e c #662A662A662A",
"r c #718C718C718C",
"t c #744774477447",
"y c #792F792F792F",
"u c #E79DB2CA4924",
"i c #813581358135",
"p c #835F835F835F",
"a c #89F089F089F0",
"s c #8D0B8D0B8D0B",
"d c #92A292A292A2",
"f c #953995399539",
"g c #981498149814",
"h c #998B998B998B",
"j c #99B899B899B8",
"k c #9AA49AA49AA4",
"l c #A2EDA2EDA2ED",
"z c #AEBBAEBBAEBB",
"x c #B15FB15FB15F",
"c c #B1F3B1F3B1F3",
"v c #B37BB37BB37B",
"b c #B3EFB3EFB3EF",
"n c #B574B574B574",
"m c #B6DAB6DAB6DA",
"M c #BA9DBA9DBA9D",
"N c #BE97BE97BE97",
"B c #BEFBBEFBBEFB",
"V c #C08EC08EC08E",
"C c #C166C166C166",
"Z c #C20EC20EC20E",
"A c #C344C344C344",
"S c #C626C626C626",
"D c #C71BC71BC71B",
"F c #CF3CCF3CCF3C",
"G c #D551D551D551",
"H c #D75CD75CD75C",
"J c #D934D934D934",
"K c #DE93DE93DE93",
"L c #DF7DDF7DDF7D",
"P c #E6A4E6A4E6A4",
"I c #E79DE79DE79D",
"U c #EFBEEFBEEFBE",
/* pixels */
"uuuuuuuuuuuuuuuuu  uuuuuuuuuuuuuuuuu",
"uuuuuuuuuuuuuuuuu  uuuuuuuuuuuuuuuuu",
"uuuuuuuuuuuuuuFFDDDFHFuuuuuuuuuuuuuu",
"uuuuuuuuuuuFDFFFFFFHHHHFHuuuuuuuuuuu",
"uuuuuuuuuFDFFFFFFFHHHHHHHFFuuuuuuuuu",
"uuuuuuuuFDDFFFFFFHHHLLLLHHFFuuuuuuuu",
"uuuuuuuFDDDDFFFFFHHLLLLLLLHHFuuuuuuu",
"uuuuuuFDDDDDFFFFHHLLLIIIILLHHFuuuuuu",
"uuuuuFDDDDDDDFFFHHLLIIIIIILLLHFuuuuu",
"uuuuFDDDDDDDDh5588qwwhUUUIILLLHFuuuu",
"uuuuFDDDBDDDD3       <UUUUIILLHHuuuu",
"uuuFDDDBBDDDD#       <UUUUIILLHHFuuu",
"uuuDDDDBBBDDD   mcMCBJUUUUUILLHHHuuu",
"uuuDBBBBBBDDB  $HHLLIUUUUUIILLHHHuuu",
"uumBBBBBBBBDz  4:%8hIIIUUIIILLHHFDuu",
"uummmmmBBBBBg  O    @HIIIIILLHHHFDuu",
"uummmmmBBBBByOO 2> OO=LIILLLLHHFFDuu",
"  zmmmmmBBBBp;;cFFC   CLLLLHHHFFFD  ",
"  zzzzmmmBBBBDDDDFF<  gHJHHHHHFFDD  ",
"uuzzzzmmmmBB   CDDF*  lJHHHHFFFFDDuu",
"uuzzzzzmmmBB%  8cmt   CFFFFFFFFFDDuu",
"uuzzzzzzmmmBd  O     rFFFFFFFFFDDDuu",
"uuuzzzzzzmmmBp      wDDDFFFFFFFFDuuu",
"uuuzzzzzzmmmmBmaqqscDDDDDDDDDFFFFuuu",
"uuuzzzzzzzmmmmBBBBBBDDDDDDDDDFFFFuuu",
"uuuuzzzzzzzmmmmmBBBBBDDDDDDDDFFFuuuu",
"uuuumzzzzzzmmmmmmBBBBBBBBBDDDFFFuuuu",
"uuuuuzzzzzzzzmmmmmBBBBBBBBDDFFFuuuuu",
"uuuuuuzzzzzzzzmmmmmmmmmBBBDDFFuuuuuu",
"uuuuuuuzzzzzzzzzzmmmmmmmBBDDFuuuuuuu",
"uuuuuuuuzzzzzzzzzzzmmmmmBBDDuuuuuuuu",
"uuuuuuuuuzzzzzzzzzzzmmmmBBDuuuuuuuuu",
"uuuuuuuuuuuzzzzzzzzzzmmBmuuuuuuuuuuu",
"uuuuuuuuuuuuuuzzzzzzmmuuuuuuuuuuuuuu",
"uuuuuuuuuuuuuuuuu  uuuuuuuuuuuuuuuuu",
"uuuuuuuuuuuuuuuuu  uuuuuuuuuuuuuuuuu"
};
