/* XPM */
static char *wmoku-0-LB-226[] = {
/* columns rows colors chars-per-pixel */
"36 36 134 2",
"   c #000800080008",
".  c #01A401A401A4",
"X  c #02B1021400D9",
"o  c #029F029F029F",
"O  c #035103510351",
"+  c #0589044601BF",
"@  c #049404940494",
"#  c #055E055E055E",
"$  c #068406840684",
"%  c #088508850885",
"&  c #09CC09CC09CC",
"*  c #0B720B720B72",
"=  c #184212B907A9",
"-  c #15B415B415B4",
";  c #1D781D781D78",
":  c #1EF01EF01EF0",
">  c #23BE1B970B49",
",  c #2A942A942A94",
"<  c #2BE02BE02BE0",
"1  c #2C582C582C58",
"2  c #2F472F472F47",
"3  c #318931893189",
"4  c #323B323B323B",
"5  c #34A234A234A2",
"6  c #357D357D357D",
"7  c #36B436B436B4",
"8  c #375437543754",
"9  c #3D173D173D17",
"0  c #534440471A4C",
"q  c #65554E382000",
"w  c #6BFC535B221A",
"e  c #6E29550922CA",
"r  c #454245424542",
"t  c #479347934793",
"y  c #495D495D495D",
"u  c #4C714C714C71",
"i  c #4FFF4FFF4FFF",
"p  c #506550655065",
"a  c #538E538E538E",
"s  c #550155015501",
"d  c #572057205720",
"f  c #576257625762",
"g  c #5B275B275B27",
"h  c #5E9E5E9E5E9E",
"j  c #608260826082",
"k  c #63EA63EA63EA",
"l  c #6ACA6ACA6ACA",
"z  c #6BE56BE56BE5",
"x  c #6E446E446E44",
"c  c #6EE86EE86EE8",
"v  c #711C711C711C",
"b  c #73FB73FB73FB",
"n  c #766476647664",
"m  c #782D782D782D",
"M  c #78D178D178D1",
"N  c #799379937993",
"B  c #7C0B7C0B7C0B",
"V  c #7D607D607D60",
"C  c #7EEF7EEF7EEF",
"Z  c #8CA86C932C6B",
"A  c #AAE083E735F6",
"S  c #D157A199421B",
"D  c #D5E2A51A438B",
"F  c #DC9AAA4A45AA",
"G  c #E011ACF746C2",
"H  c #E402B0014800",
"J  c #E602B18D48A2",
"K  c #E6CCB22948E2",
"L  c #E73CB27F4905",
"P  c #E79DB2CA4924",
"I  c #80E780E780E7",
"U  c #832083208320",
"Y  c #84E884E884E8",
"T  c #860486048604",
"R  c #876B876B876B",
"E  c #892A892A892A",
"W  c #8AAE8AAE8AAE",
"Q  c #8D428D428D42",
"!  c #8E018E018E01",
"~  c #900390039003",
"^  c #91DE91DE91DE",
"/  c #92E492E492E4",
"(  c #947894789478",
")  c #951495149514",
"_  c #95D495D495D4",
"`  c #974D974D974D",
"'  c #981B981B981B",
"]  c #98AD98AD98AD",
"[  c #99C499C499C4",
"{  c #9C919C919C91",
"}  c #9D2D9D2D9D2D",
"|  c #9E439E439E43",
" . c #9F769F769F76",
".. c #9FD69FD69FD6",
"X. c #A306A306A306",
"o. c #A409A409A409",
"O. c #A649A649A649",
"+. c #A6EBA6EBA6EB",
"@. c #A855A855A855",
"#. c #A939A939A939",
"$. c #AD03AD03AD03",
"%. c #ADEDADEDADED",
"&. c #AEBAAEBAAEBA",
"*. c #AFFEAFFEAFFE",
"=. c #B0FFB0FFB0FF",
"-. c #B3C2B3C2B3C2",
";. c #B54EB54EB54E",
":. c #B5E8B5E8B5E8",
">. c #B6DEB6DEB6DE",
",. c #B91DB91DB91D",
"<. c #B9EFB9EFB9EF",
"1. c #BB4EBB4EBB4E",
"2. c #BD3DBD3DBD3D",
"3. c #BF00BF00BF00",
"4. c #C09EC09EC09E",
"5. c #C0F5C0F5C0F5",
"6. c #C2F2C2F2C2F2",
"7. c #C401C401C401",
"8. c #C6AAC6AAC6AA",
"9. c #C71DC71DC71D",
"0. c #C88BC88BC88B",
"q. c #CB6CCB6CCB6C",
"w. c #CC17CC17CC17",
"e. c #CD7FCD7FCD7F",
"r. c #CE03CE03CE03",
"t. c #CF3DCF3DCF3D",
"y. c #D75BD75BD75B",
"u. c #D893D893D893",
"i. c #D9EDD9EDD9ED",
"p. c #DF7CDF7CDF7C",
"a. c #E3DCE3DCE3DC",
"s. c #E55CE55CE55C",
"d. c #E795E795E795",
"f. c #EFABEFABEFAB",
/* pixels */
"P P P P P P P P P P P P P P P P P o o J P P P P P P P P P P P P P P P P ",
"P P P P P P P P P P P P P P P P P o o J P P P P P P P P P P P P P P P P ",
"P P P P P P P P P P P P P P t.t.9.9.9.t.y.t.P P P P P P P P P P P P P P ",
"P P P P P P P P P P P t.9.t.t.t.t.t.t.y.y.y.y.t.y.P P P P P P P P P P P ",
"P P P P P P P P J t.9.t.t.t.t.t.t.t.y.y.y.y.y.y.y.t.t.P P P P P P P P P ",
"P P P P P P P P t.9.9.t.t.t.t.t.t.y.y.y.p.p.p.p.y.y.t.t.P P P P P P P P ",
"P P P P P P P t.9.9.9.9.t.t.t.t.t.y.y.p.p.p.p.p.p.p.y.y.t.P P P P P P P ",
"P P P P P P t.9.9.9.9.9.t.t.t.t.y.y.p.p.p.s.s.d.d.p.p.y.y.t.P P P P P P ",
"P P P P J t.9.9.9.9.9.9.9.t.t.t.y.y.p.p.d.d.s.s.d.d.p.p.p.y.t.J P P P P ",
"P P P P +.c d l  .9.9.9.9.t.t.+.m h m <.d.f.f.f.f.d.y.! l R @.t.P P P P ",
"P P S = o o o @ o < 2.9.9.2.- o o o o o 3 s.f.f.f.{ o o o o o y P P P P ",
"P H + o o o o o o @ < 9.4.o o o o o o o @ 6 f.f.:.o o o o o o o m P P P ",
"P A o o o o.<.C o o o @./ o o o =.9._ o o o 0.f.& o o c 0. .o o o J J P ",
"P e o o E 2.4.2.3 o o R h o o _ y.y.p.9 o o o.t.o o o s.p.p.& o o D J J ",
"P 0 o o o.2.4.2.2 o o _ r o o *.t.y.y.6 o o *.+.o o k ' l I +.y.t.9.J J ",
"P G +.+.:.:.:.c o o o =.4.:.:.t.t.t.N o o o u.N @ @ o o o o o < 4.9.P J ",
"J J :.:.:.E @ o o o N 2.9.9.9.9. .@ o o o E p.l o o @ o : o @ o 6 9.P J ",
"o o *.+.3 o o o o C 2.4.2.9.:.6 o o o o ! y.p.l o o & 0.u.9.o o o *.o o ",
"o o / o o @ o i +.2.4.2.2.@.o o o o g 2.t.y.y.N o @ C y.y.y.r o o E o o ",
"J F o o o 6 +.:.:.:.2.2.:.o o o 9 :.t.t.t.t.t.o.o o h y.t.t.< o o _ J P ",
"J Z o o d ! / _ ' _  .<.v o o k +.+.o.@.*.*.9.9.o o o / 2.I o o o :.P P ",
"J > o o o o o o o o o N ; o o o o o o o o o R t.l o o o o o o o g 9.P P ",
"J o o o o o o o o o @ m o o o o o o o o o o C 9.t.y o @ o o o p 7.P P P ",
"J w q y y i y y y i i _ d p p s p p d d d d o.9.9.9.@.c d R *.t.t.P P P ",
"J P P *.*.*.$.*.*.$.:.:.:.:.4.2.2.4.2.4.9.9.9.9.9.9.9.9.9.t.t.t.t.P P P ",
"P P P P *.$.$.*.$.*.*.:.>.:.>.>.4.2.4.4.2.9.9.9.9.9.9.9.9.t.t.t.P P P P ",
"P P P P -.*.*.$.$.*.*.-.>.>.>.>.:.2.4.2.4.2.2.4.2.4.9.9.9.t.t.t.P P P P ",
"P P P P J *.$.*.*.$.*.*.*.:.>.>.:.<.2.4.2.4.4.2.2.2.9.9.t.t.t.P P P P P ",
"P P P P P P *.*.$.*.$.*.*.@.:.:.:.:.<.:.<.:.:.2.2.4.9.9.t.t.P P P P P P ",
"P P P P P P J *.*.*.*.$.*.*.*.*.*.:.:.:.:.:.:.<.4.2.9.9.t.P P P P P P P ",
"P P P P P P J P *.$.*.*.*.*.*.*.*.*.=.:.:.:.:.<.2.4.9.9.P P P P P P P P ",
"P P P P P P P P H *.*.*.@.*.*.@.*.*.*.*.<.:.:.:.4.2.9.P P P P P P P P P ",
"P P P P P P P P P P P $.*.*.$.*.*.$.*.*.$.:.:.2.>.P P P P P P P P P P P ",
"P P P P P P P P P P P P P P *.$.$.*.*.$.:.:.P P P P P P P P P P P P P P ",
"P P P P P P P P P P P P P P P P J o o P P P P P P P P P P P P P P P P P ",
"P P P P P P P P P P P P P P P P J o o P P P P P P P P P P P P P P P P P "
};
