/* XPM */
static char *wmoku-0-LB-284[] = {
/* columns rows colors chars-per-pixel */
"36 36 125 2",
"   c #000900090009",
".  c #019B019B019B",
"X  c #02B1021400D9",
"o  c #02A302A302A3",
"O  c #038D038D038D",
"+  c #0589044601BF",
"@  c #049604960496",
"#  c #059B059B059B",
"$  c #061D061D061D",
"%  c #08C908C908C9",
"&  c #09B909B909B9",
"*  c #0A290A290A29",
"=  c #0F1F0F1F0F1F",
"-  c #184212B907A9",
";  c #118311831183",
":  c #137313731373",
">  c #152B152B152B",
",  c #191F191F191F",
"<  c #1DC41DC41DC4",
"1  c #1F3A1F3A1F3A",
"2  c #207320732073",
"3  c #224222422242",
"4  c #2AA62AA62AA6",
"5  c #2BF82BF82BF8",
"6  c #2D692D692D69",
"7  c #2F472F472F47",
"8  c #307430743074",
"9  c #314E314E314E",
"0  c #32AD32AD32AD",
"q  c #345234523452",
"w  c #357D357D357D",
"e  c #364536453645",
"r  c #534440471A4C",
"t  c #65554E382000",
"y  c #6BFC535B221A",
"u  c #6E29550922CA",
"i  c #445044504450",
"p  c #4A6F4A6F4A6F",
"a  c #4C774C774C77",
"s  c #4FD74FD74FD7",
"d  c #506550655065",
"f  c #530B530B530B",
"g  c #554855485548",
"h  c #571C571C571C",
"j  c #576257625762",
"k  c #5AAA5AAA5AAA",
"l  c #5CE35CE35CE3",
"z  c #5E385E385E38",
"x  c #62B162B162B1",
"c  c #683168316831",
"v  c #6BE56BE56BE5",
"b  c #6F176F176F17",
"n  c #713F713F713F",
"m  c #719071907190",
"M  c #74BA74BA74BA",
"N  c #762776277627",
"B  c #788778877887",
"V  c #7BA77BA77BA7",
"C  c #7D777D777D77",
"Z  c #7EEF7EEF7EEF",
"A  c #8CA86C932C6B",
"S  c #AAE083E735F6",
"D  c #BFA693F03C85",
"F  c #D157A199421B",
"G  c #DC9AAA4A45AA",
"H  c #E011ACF746C2",
"J  c #E402B0014800",
"K  c #E602B18D48A2",
"L  c #E79DB2CA4924",
"P  c #80A680A680A6",
"I  c #827882788278",
"U  c #862A862A862A",
"Y  c #876B876B876B",
"T  c #883788378837",
"R  c #896289628962",
"E  c #898E898E898E",
"W  c #8AE68AE68AE6",
"Q  c #8C6C8C6C8C6C",
"!  c #8D2B8D2B8D2B",
"~  c #8FF78FF78FF7",
"^  c #90B090B090B0",
"/  c #920692069206",
"(  c #946594659465",
")  c #94DC94DC94DC",
"_  c #95D495D495D4",
"`  c #973D973D973D",
"'  c #98AD98AD98AD",
"]  c #9D199D199D19",
"[  c #9F769F769F76",
"{  c #9FE19FE19FE1",
"}  c #A2F7A2F7A2F7",
"|  c #A43BA43BA43B",
" . c #A63DA63DA63D",
".. c #A6EBA6EBA6EB",
"X. c #A83DA83DA83D",
"o. c #A93AA93AA93A",
"O. c #A9B1A9B1A9B1",
"+. c #AB76AB76AB76",
"@. c #AEBBAEBBAEBB",
"#. c #B070B070B070",
"$. c #B401B401B401",
"%. c #B551B551B551",
"&. c #B6DAB6DAB6DA",
"*. c #B91BB91BB91B",
"=. c #BD17BD17BD17",
"-. c #BEFABEFABEFA",
";. c #C227C227C227",
":. c #C4ACC4ACC4AC",
">. c #C649C649C649",
",. c #C71AC71AC71A",
"<. c #CA58CA58CA58",
"1. c #CD35CD35CD35",
"2. c #CE50CE50CE50",
"3. c #CF3BCF3BCF3B",
"4. c #D439D439D439",
"5. c #D75CD75CD75C",
"6. c #DA17DA17DA17",
"7. c #DF7BDF7BDF7B",
"8. c #E015E015E015",
"9. c #E439E439E439",
"0. c #E6BCE6BCE6BC",
"q. c #E79DE79DE79D",
"w. c #E98CE98CE98C",
"e. c #EE19EE19EE19",
"r. c #EFBEEFBEEFBE",
/* pixels */
"L L L L L L L L L L L L L L L L L o o K L L L L L L L L L L L L L L L L ",
"L L L L L L L L L L L L L L L L L o o K L L L L L L L L L L L L L L L L ",
"L L L L L L L L L L L L L L 3.3.,.,.,.3.5.3.L L L L L L L L L L L L L L ",
"L L L L L L L L L L L 3.,.3.3.3.3.3.3.4.5.6.4.3.5.L L L L L L L L L L L ",
"L L L L L L L L L 3.,.3.3.3.3.3.3.3.4.6.4.6.4.6.6.3.3.L L L L L L L L L ",
"L L L L L L L L 3.,.,.3.3.3.3.3.3.4.6.4.7.7.7.7.5.4.3.3.L L L L L L L L ",
"L L L L L L L 3.,.,.,.,.3.3.3.3.3.6.4.7.7.7.7.7.8.7.4.6.3.L L L L L L L ",
"L L L L L L 3.,.,.,.,.,.3.3.3.3.6.4.9.7.7.q.q.q.q.7.8.5.5.3.L L L L L L ",
"L L L L K 3.,.,.,.,.,.,.,.3.3.3.4.4.7.7.q.q.q.q.q.q.7.7.7.4.3.L L L L L ",
"L L L L ..b h v [ ,.,.,.,.3.3...R z ~ %.q.r.r.r.r.q.q.7.7.c z / L L L L ",
"L L F - o o o # o 4 =.,.,.-.4 o # o o o 6 7.r.r.r.r.q.q.U o o z L L L L ",
"L J + o o o o o o # 4 ,.,.4 o o o o o o # 6 r.r.r.r.q.,.o o o z 3.L L L ",
"L S o o o | *.Z o o o X.X.o o o | <.#.o o o <.r.r.r.w.& o o o z 5.L L L ",
"L u o o R =.-.-.9 o o U Z # o p 4.4.7.a o o [ r.r.r.x o o o o z 4.L L L ",
"L r o o | =.-.=.6 o o ( ` o o = ,.4.3.; o o #.r.r.X.o o w # o k 3.,.L K ",
"L H ....%.%.%.n o o o $.,.> o o o < o o # ; q.w.3.o o o ~ # o z 3.,.L K ",
"K K %.%.%.R # o o o V -.,.[ o o o o o o o =.7.q.6 # o | ~ # o k 3.,.L K ",
"o o #...9 o o # o Z =.-.#.o o o 2 f # o o o 6.Z o # z 4.R # o k 3.,.o o ",
"o o / o o # o a ..=.=.=.b # o p ,.3.3.< o o | o o o < < < o o < < n o o ",
"K G o o o w ..%.%.%.=.=.k o # b ,.,.3.i o o R o o o o o o o o o o h K L ",
"K A o o h ~ / ( ` ` [ *.~ o o o [ *.~ o o o $.k k k k k k # o k j ~ K L ",
"K D o o o o o o o o o V *.& o o o o o o o 9 3.3.3.3.3.3.U # o h ,.,.L L ",
"K o o o o o o o o o o N -.X., o o o o o 9 =.,.,.3.3.3.3.U # o k ,.L L L ",
"K y t p a p p p p a f ( &.-.=.( n h Z | ,.,.,.,.,.,.,.,.| k k ~ 3.L L L ",
"K L L #.#.#.+.#.+.#.%.%.%.%.-.-.-.-.-.-.,.,.,.,.,.,.,.,.,.3.3.3.3.L L L ",
"L L L L +.#.+.#.#.#.#.%.&.&.&.&.-.-.-.-.=.,.,.<.,.,.,.,.,.3.3.3.L L L L ",
"L L L L %.+.#.#.#.+.#.%.&.&.&.&.*.=.-.-.=.-.-.-.=.-.<.,.,.3.3.3.L L L L ",
"L L L L L #.#.+.#.+.#.#.#.%.&.&.%.*.-.-.-.-.-.-.=.=.,.,.3.3.3.L L L L L ",
"L L L L L L #.#.#.#.+.+.#.#.%.%.*.%.%.*.*.%.*.-.-.=.,.,.3.3.L L L L L L ",
"L L L L L L L +.+.#.#.#.X.#.#.#.#.%.*.%.%.%.%.%.-.=.,.,.3.L L L L L L L ",
"L L L L L L L L +.#.#.#.#.#.X.#.X.#.#.%.%.*.%.%.-.-.,.,.L L L L L L L L ",
"L L L L L L L L J #.#.X.#.#.#.#.#.#.#.#.*.%.*.*.-.-.,.L L L L L L L L L ",
"L L L L L L L L L L L #.#.#.+.@.#.#.+.+.#.%.%.-.&.L L L L L L L L L L L ",
"L L L L L L L L L L L L K K @.@.+.#.#.#.%.%.L L L L L L L L L L L L L L ",
"L L L L L L L L L L L L L L L L K o o L L L L L L L L L L L L L L L L L ",
"L L L L L L L L L L L L L L L L K o o L L L L L L L L L L L L L L L L L "
};
