/* XPM */
static char *wmoku-0-LB-106[] = {
/* columns rows colors chars-per-pixel */
"36 36 110 2",
"   c #000300030003",
".  c #015301530153",
"X  c #026E026E026E",
"o  c #03E403E403E4",
"O  c #04CB04CB04CB",
"+  c #059805980598",
"@  c #062006200620",
"#  c #074007400740",
"$  c #088908890889",
"%  c #093C093C093C",
"&  c #0A5D0A5D0A5D",
"*  c #0BB10BB10BB1",
"=  c #0D860D860D86",
"-  c #0F9A0F9A0F9A",
";  c #118911891189",
":  c #12DA12DA12DA",
">  c #14CA14CA14CA",
",  c #15DB15DB15DB",
"<  c #166816681668",
"1  c #177817781778",
"2  c #185A185A185A",
"3  c #198B198B198B",
"4  c #1AC21AC21AC2",
"5  c #1CA31CA31CA3",
"6  c #1DB11DB11DB1",
"7  c #1E531E531E53",
"8  c #21FE21FE21FE",
"9  c #22FA22FA22FA",
"0  c #235323532353",
"q  c #24F124F124F1",
"w  c #259925992599",
"e  c #28B428B428B4",
"r  c #2A242A242A24",
"t  c #2B4D2B4D2B4D",
"y  c #2D922D922D92",
"u  c #2FD12FD12FD1",
"i  c #32BA32BA32BA",
"p  c #3CB33CB33CB3",
"a  c #3FE63FE63FE6",
"s  c #43A943A943A9",
"d  c #4BA04BA04BA0",
"f  c #4CA04CA04CA0",
"g  c #508D508D508D",
"h  c #529852985298",
"j  c #535853585358",
"k  c #56EE56EE56EE",
"l  c #5C6D5C6D5C6D",
"z  c #5E1E5E1E5E1E",
"x  c #5E9C5E9C5E9C",
"c  c #63FF63FF63FF",
"v  c #672C672C672C",
"b  c #684468446844",
"n  c #68E568E568E5",
"m  c #6AE76AE76AE7",
"M  c #6C256C256C25",
"N  c #6E1A6E1A6E1A",
"B  c #6F3B6F3B6F3B",
"V  c #714F714F714F",
"C  c #7C237C237C23",
"Z  c #E79DB2CA4924",
"A  c #888C888C888C",
"S  c #8A4D8A4D8A4D",
"D  c #8CB28CB28CB2",
"F  c #922E922E922E",
"G  c #93E793E793E7",
"H  c #94E894E894E8",
"J  c #972497249724",
"K  c #991899189918",
"L  c #9A5D9A5D9A5D",
"P  c #9AAE9AAE9AAE",
"I  c #9BEE9BEE9BEE",
"U  c #9D039D039D03",
"Y  c #9E759E759E75",
"T  c #9EDB9EDB9EDB",
"R  c #9FC39FC39FC3",
"E  c #A369A369A369",
"W  c #A539A539A539",
"Q  c #A7A3A7A3A7A3",
"!  c #AA60AA60AA60",
"~  c #AC23AC23AC23",
"^  c #ADB7ADB7ADB7",
"/  c #AEBCAEBCAEBC",
"(  c #B005B005B005",
")  c #B190B190B190",
"_  c #B49CB49CB49C",
"`  c #B65DB65DB65D",
"'  c #B6DFB6DFB6DF",
"]  c #B962B962B962",
"[  c #B9EAB9EAB9EA",
"{  c #BB7BBB7BBB7B",
"}  c #BD89BD89BD89",
"|  c #BE70BE70BE70",
" . c #BEFEBEFEBEFE",
".. c #C183C183C183",
"X. c #C2F4C2F4C2F4",
"o. c #C47AC47AC47A",
"O. c #C4FBC4FBC4FB",
"+. c #C71BC71BC71B",
"@. c #C84DC84DC84D",
"#. c #C94FC94FC94F",
"$. c #CA0ECA0ECA0E",
"%. c #CF3CCF3CCF3C",
"&. c #D1FCD1FCD1FC",
"*. c #D49BD49BD49B",
"=. c #D75CD75CD75C",
"-. c #DF7DDF7DDF7D",
";. c #E200E200E200",
":. c #E567E567E567",
">. c #E798E798E798",
",. c #EFA0EFA0EFA0",
/* pixels */
"Z Z Z Z Z Z Z Z Z Z Z Z Z Z Z Z Z     Z Z Z Z Z Z Z Z Z Z Z Z Z Z Z Z Z ",
"Z Z Z Z Z Z Z Z Z Z Z Z Z Z Z Z Z     Z Z Z Z Z Z Z Z Z Z Z Z Z Z Z Z Z ",
"Z Z Z Z Z Z Z Z Z Z Z Z Z Z %.%.+.+.+.%.=.%.Z Z Z Z Z Z Z Z Z Z Z Z Z Z ",
"Z Z Z Z Z Z Z Z Z Z Z %.+.%.%.%.%.%.%.=.=.=.=.%.=.Z Z Z Z Z Z Z Z Z Z Z ",
"Z Z Z Z Z Z Z Z Z %.+.%.%.%.%.%.%.%.=.=.=.=.=.=.=.%.%.Z Z Z Z Z Z Z Z Z ",
"Z Z Z Z Z Z Z Z %.+.+.%.%.%.%.%.%.=.=.=.-.-.-.-.=.=.%.%.Z Z Z Z Z Z Z Z ",
"Z Z Z Z Z Z Z %.+.+.+.+.%.%.%.%.%.=.=.-.-.-.-.-.-.-.=.=.%.Z Z Z Z Z Z Z ",
"Z Z Z Z Z Z %.+.+.+.+.+.%.%.%.%.=.=.-.-.-.>.>.>.>.-.-.=.=.%.Z Z Z Z Z Z ",
"Z Z Z Z Z %.+.+.+.+.+.+.+.%.%.%.=.=.-.-.>.>.>.>.>.>.-.-.-.=.%.Z Z Z Z Z ",
"Z Z Z Z %.+.T k z +.+.+.+.%.@.G n N ! >.>.,.,.,.,.>. .C N I %.%.Z Z Z Z ",
"Z Z Z Z %.+.2 =   +.+.+.+.Q       %   ; =.,.,.,.-.w     @ %   / Z Z Z Z ",
"Z Z Z @.) n   2   +.+.+. .    ;       9 e ,.,.,.>   >       2    .Z Z Z ",
"Z Z Z         2    .+.+.j   9   ] /       ] ,.A   w    .@.=     I Z Z Z ",
"Z Z Z         2    .+.+.%     G =.=.d   i x ,.6     T >.-.G     k Z Z Z ",
"Z Z ' F F F   2    . .+.      +.%.=.I   y > >.  @   ] C v I +.=.%.+.Z Z ",
"Z Z ' ' ' '   2    . . .  >   @.%.%.]   9   >.  2       @ @   A %.+.Z Z ",
"Z Z ' ' ' '   2    . . .  2   +.%.%.+.  6   -.    @         %   ! +.Z Z ",
"    / ' ' ]   >    . . .  >    .%.%.)   6   -.      I =.=.k   e p +.    ",
"    / / / /   2    . . .  @    .@.%.G   w e =.  >   %.=.=.]   6   +.    ",
"Z Z / / / /   2   '  . .%     F +.@.f   w j %.  %   %.=.%.E   6 % +.Z Z ",
"Z Z / / / /   2   '  . .l   9 = ' /       / %.s   6 s ] ' >   9 d +.Z Z ",
"Z Z / / / /   >   ' '  .]     =       ; 6 %.%. .    ;       ;   ' +.Z Z ",
"Z Z Z / / /   %   ' ' '  .Q @     @   i  .+.+.+.T       @     T +.Z Z Z ",
"Z Z Z / / / f f j ' ' ' '  .' G n V E +.+.+.+.+.+. .D x N T @.%.%.Z Z Z ",
"Z Z Z / / / / / / / ' ' ' '  . . . . . .+.+.+.+.+.+.+.+.+.%.%.%.%.Z Z Z ",
"Z Z Z Z / / / / / / / ' ' ' ' '  . . . . .+.+.+.+.+.+.+.+.%.%.%.Z Z Z Z ",
"Z Z Z Z ' / / / / / / ' ' ' ' ' '  . . . . . . . . .+.+.+.%.%.%.Z Z Z Z ",
"Z Z Z Z Z / / / / / / / / ' ' ' ' '  . . . . . . . .+.+.%.%.%.Z Z Z Z Z ",
"Z Z Z Z Z Z / / / / / / / / ' ' ' ' ' ' ' ' '  . . .+.+.%.%.Z Z Z Z Z Z ",
"Z Z Z Z Z Z Z / / / / / / / / / / ' ' ' ' ' ' '  . .+.+.%.Z Z Z Z Z Z Z ",
"Z Z Z Z Z Z Z Z / / / / / / / / / / / ' ' ' ' '  . .+.+.Z Z Z Z Z Z Z Z ",
"Z Z Z Z Z Z Z Z Z / / / / / / / / / / / ' ' ' '  . .+.Z Z Z Z Z Z Z Z Z ",
"Z Z Z Z Z Z Z Z Z Z Z / / / / / / / / / / ' '  .' Z Z Z Z Z Z Z Z Z Z Z ",
"Z Z Z Z Z Z Z Z Z Z Z Z Z Z / / / / / / ' ' Z Z Z Z Z Z Z Z Z Z Z Z Z Z ",
"Z Z Z Z Z Z Z Z Z Z Z Z Z Z Z Z Z     Z Z Z Z Z Z Z Z Z Z Z Z Z Z Z Z Z ",
"Z Z Z Z Z Z Z Z Z Z Z Z Z Z Z Z Z     Z Z Z Z Z Z Z Z Z Z Z Z Z Z Z Z Z "
};
