/* XPM */
static char *wmoku-0-LB-E[] = {
/* columns rows colors chars-per-pixel */
"36 36 40 1",
"  c black",
". c #025D025D025D",
"X c #047704770477",
"o c #057F057F057F",
"O c #1F3A1F3A1F3A",
"+ c #207320732073",
"@ c #21AD21AD21AD",
"# c #22E622E622E6",
"$ c #2D6B2D6B2D6B",
"% c #511C511C511C",
"& c #538E538E538E",
"* c #54C254C254C2",
"= c #571C571C571C",
"- c #5AAA5AAA5AAA",
"; c #5E385E385E38",
": c #61C761C761C7",
"> c #655565556555",
", c #65B665B665B6",
"< c #E79DB2CA4924",
"1 c #80ED80ED80ED",
"2 c #862D862D862D",
"3 c #8A088A088A08",
"4 c #8C6C8C6C8C6C",
"5 c #AEBAAEBAAEBA",
"6 c #B3A9B3A9B3A9",
"7 c #B6DAB6DAB6DA",
"8 c #BAFFBAFFBAFF",
"9 c #BEFBBEFBBEFB",
"0 c #C254C254C254",
"q c #C511C511C511",
"w c #C71CC71CC71C",
"e c #C9AAC9AAC9AA",
"r c #CF3CCF3CCF3C",
"t c #D0FFD0FFD0FF",
"y c #D51CD51CD51C",
"u c #D75CD75CD75C",
"i c #D854D854D854",
"p c #DF7DDF7DDF7D",
"a c #E79DE79DE79D",
"s c #EFBEEFBEEFBE",
/* pixels */
"<<<<<<<<<<<<<<<<<  <<<<<<<<<<<<<<<<<",
"<<<<<<<<<<<<<<<<<  <<<<<<<<<<<<<<<<<",
"<<<<<<<<<<<<<<rrwwwrur<<<<<<<<<<<<<<",
"<<<<<<<<<<<rwrrrrrruuuuru<<<<<<<<<<<",
"<<<<<<<<<rwrrrrrrruuuuuuurr<<<<<<<<<",
"<<<<<<<<rwwrrrrrruuuppppuurr<<<<<<<<",
"<<<<<<<rwwwwrrtrruupppppppuur<<<<<<<",
"<<<<<<rwwwwwrrttuupppaaaappuur<<<<<<",
"<<<<<rwwwwww4=;=;;::>>>taapppur<<<<<",
"<<<<rwwwwwww=          wsaapppur<<<<",
"<<<<rwww9www=          wssaappuu<<<<",
"<<<rwww99www= o200ettiusssaappuur<<<",
"<<<wwww999ww= o2uupaassssssappuuu<<<",
"<<<w999999ww= o2uuppasssssaappuuu<<<",
"<<799999999w= o2ruupaaassaaappuurw<<",
"<<7777799999= oOOOO###$aaaappuuurw<<",
"<<7777799999=          aappppuurrw<<",
"  5777779999= o==;=;;;>ppppuuurrrw  ",
"  5555777999& o1wrttruuuuuuuuurrww  ",
"<<5555777799& o1wwrrrrruuuuurrrrww<<",
"<<5555577799& o16668888wrrrrrrrrww<<",
"<<5555557779&          &rrrrrrrwww<<",
"<<<555555777&          &rrrrrrrrw<<<",
"<<<5555557771&&&&&=====3wwwwwrrrr<<<",
"<<<55555557777999999wwwwwwwwwrrrr<<<",
"<<<<55555557777799999wwwwwwwwrrr<<<<",
"<<<<7555555777777999999999wwwrrr<<<<",
"<<<<<555555557777799999999wwrrr<<<<<",
"<<<<<<55555555777777777999wwrr<<<<<<",
"<<<<<<<5555555555777777799wwr<<<<<<<",
"<<<<<<<<555555555557777799ww<<<<<<<<",
"<<<<<<<<<55555555555777799w<<<<<<<<<",
"<<<<<<<<<<<55555555557797<<<<<<<<<<<",
"<<<<<<<<<<<<<<55555577<<<<<<<<<<<<<<",
"<<<<<<<<<<<<<<<<<  <<<<<<<<<<<<<<<<<",
"<<<<<<<<<<<<<<<<<  <<<<<<<<<<<<<<<<<"
};
