/* XPM */
static char *wmoku-0-LB-189[] = {
/* columns rows colors chars-per-pixel */
"36 36 116 2",
"   c #000900090009",
".  c #017C017C017C",
"X  c #022602260226",
"o  c #037B037B037B",
"O  c #048504850485",
"+  c #054F054F054F",
"@  c #068406840684",
"#  c #071307130713",
"$  c #082A082A082A",
"%  c #091809180918",
"&  c #0A920A920A92",
"*  c #0BB40BB40BB4",
"=  c #0C8C0C8C0C8C",
"-  c #0D760D760D76",
";  c #104810481048",
":  c #121B121B121B",
">  c #135613561356",
",  c #165016501650",
"<  c #175917591759",
"1  c #186318631863",
"2  c #197919791979",
"3  c #1AD61AD61AD6",
"4  c #1B911B911B91",
"5  c #1C6D1C6D1C6D",
"6  c #1DA11DA11DA1",
"7  c #1E971E971E97",
"8  c #1F451F451F45",
"9  c #21A021A021A0",
"0  c #25AF25AF25AF",
"q  c #26DA26DA26DA",
"w  c #27B727B727B7",
"e  c #292E292E292E",
"r  c #2B732B732B73",
"t  c #2D9C2D9C2D9C",
"y  c #2F4D2F4D2F4D",
"u  c gray20",
"i  c #35CF35CF35CF",
"p  c #392F392F392F",
"a  c #39F239F239F2",
"s  c #3AEF3AEF3AEF",
"d  c #3D283D283D28",
"f  c #3EE53EE53EE5",
"g  c #420242024202",
"h  c #443144314431",
"j  c #453A453A453A",
"k  c #46FA46FA46FA",
"l  c #4C714C714C71",
"z  c #4EC24EC24EC2",
"x  c #508850885088",
"c  c #52E952E952E9",
"v  c #536253625362",
"b  c #571C571C571C",
"n  c #581F581F581F",
"m  c #58E958E958E9",
"M  c #5ADA5ADA5ADA",
"N  c #5E385E385E38",
"B  c #60E960E960E9",
"V  c #634E634E634E",
"C  c #672C672C672C",
"Z  c #681168116811",
"A  c #695469546954",
"S  c #6EBB6EBB6EBB",
"D  c #72F572F572F5",
"F  c #739A739A739A",
"G  c #74FE74FE74FE",
"H  c #79BA79BA79BA",
"J  c #7FFD7FFD7FFD",
"K  c #E79DB2CA4924",
"L  c #82D482D482D4",
"P  c #83C783C783C7",
"I  c #865486548654",
"U  c #877A877A877A",
"Y  c #8D298D298D29",
"T  c #900490049004",
"R  c #910591059105",
"E  c #922F922F922F",
"W  c #937093709370",
"Q  c #94B094B094B0",
"!  c #9AE19AE19AE1",
"~  c #9C469C469C46",
"^  c #9EDB9EDB9EDB",
"/  c #9FF89FF89FF8",
"(  c #A244A244A244",
")  c #A4B6A4B6A4B6",
"_  c #A5B0A5B0A5B0",
"`  c #A946A946A946",
"'  c #AB4CAB4CAB4C",
"]  c #AD49AD49AD49",
"[  c #AEBAAEBAAEBA",
"{  c #B031B031B031",
"}  c #B0E3B0E3B0E3",
"|  c #B20AB20AB20A",
" . c #B2E2B2E2B2E2",
".. c #B41BB41BB41B",
"X. c #B6DAB6DAB6DA",
"o. c #B848B848B848",
"O. c #BC3ABC3ABC3A",
"+. c #BEA9BEA9BEA9",
"@. c #BEFCBEFCBEFC",
"#. c #C14AC14AC14A",
"$. c #C3C0C3C0C3C0",
"%. c #C54CC54CC54C",
"&. c #C71BC71BC71B",
"*. c #C84DC84DC84D",
"=. c #CCEBCCEBCCEB",
"-. c #CF3CCF3CCF3C",
";. c #D05DD05DD05D",
":. c #D41ED41ED41E",
">. c #D75CD75CD75C",
",. c #DA94DA94DA94",
"<. c gray86",
"1. c #DE97DE97DE97",
"2. c #DF7DDF7DDF7D",
"3. c #E2CAE2CAE2CA",
"4. c #E79DE79DE79D",
"5. c #EFBEEFBEEFBE",
/* pixels */
"K K K K K K K K K K K K K K K K K     K K K K K K K K K K K K K K K K K ",
"K K K K K K K K K K K K K K K K K     K K K K K K K K K K K K K K K K K ",
"K K K K K K K K K K K K K K -.-.&.&.&.-.>.-.K K K K K K K K K K K K K K ",
"K K K K K K K K K K K -.&.-.-.-.-.-.-.>.>.>.>.-.>.K K K K K K K K K K K ",
"K K K K K K K K K -.&.-.-.-.-.-.-.-.>.>.>.>.>.>.>.-.-.K K K K K K K K K ",
"K K K K K K K K -.&.&.-.-.-.-.-.-.>.>.>.2.2.2.2.>.>.-.-.K K K K K K K K ",
"K K K K K K K -.&.&.&.&.-.-.-.-.-.>.>.2.2.2.2.2.2.2.>.>.-.K K K K K K K ",
"K K K K K K -.&.&.&.&.&.-.-.-.-.>.>.2.2.2.4.4.4.4.2.2.>.>.-.K K K K K K ",
"K K K K K -.&.&.&.&.&.&.&.-.-.-.>.>.2.2.4.4.4.4.4.4.2.2.2.,.-.K K K K K ",
"K K K K -.&.^ b N &.&.&.&.-.&.E F F ^ 2.4.5.5.5.5.,.` F F ` :.-.K K K K ",
"K K K K -.&.1 -   &.&.&.&.S       @     Y 5.5.5.E       &   - #.K K K K ",
"K K K *.{ A   1   &.&.&.P     -       &   O.5.]     :       8 & -.K K K ",
"K K K         1   @.&.&.:   - M #.#.d   y d 5.&   8 b :.#.&     ~ K K K ",
"K K K         1   @.&.&.      O.>.>.&.  8   5.  &   ,.4.2.(   y g K K K ",
"K K X.E E E   1   @.@.&.      E -.,.H   w @ 4.  1   2.4.2.&.  w   &.K K ",
"K K X.X.X.X.  1   @.@.@.F   :   @     -   ^ 4.      X.2.2.N   8   &.K K ",
"K K X.X.X.X.  1   @.@.@.&.i             A 2.2.B   8   k 0     1   &.K K ",
"    ] O.X.X.  <   @.@.@.p   8   g y       P 2.2.u       &     8   &.    ",
"    { ] ] ]   <   @.@.@.  @   ] &.:.P   w & >.>.>.^ M 8 k P   y 0 &.    ",
"K K ] { ] {   <   X.@.@.  :   #.&.*.{   1   -.1     @.>.-.k   8 A &.K K ",
"K K ] ] ] {   <   X.@.@.      V { { w   w d -.p   1 z @.~   @   ` &.K K ",
"K K ] { { ]   <   X.X.@.B   @ &       &   _ -._     &       @ x &.&.K K ",
"K K K { ] {   &   X.X.X.@.x       @     P &.&.&.H       -   x -.&.K K K ",
"K K K ] ] ] z z x X.X.X.X.#.{ P V A E @.&.&.&.&.&.O.P M F { -.-.-.K K K ",
"K K K { ] { ] { ] { X.X.X.X.@.@.@.@.@.@.&.&.&.&.&.&.&.&.&.-.-.-.-.K K K ",
"K K K K { ] { ] { ] ] O.X.X.X.X.@.@.@.@.@.&.&.&.&.&.&.&.&.-.-.-.K K K K ",
"K K K K X.{ ] { ] { ] X.X.X.X.X.X.@.@.@.@.@.@.@.@.@.&.&.&.-.-.-.K K K K ",
"K K K K K ] { ] { ] { { ] X.X.X.X.X.@.@.@.@.@.@.@.@.&.&.-.-.-.K K K K K ",
"K K K K K K ] { { ] { ] ] ] X.O.X.X.X.X.X.X.X.@.@.@.&.&.-.-.K K K K K K ",
"K K K K K K K ] ] { ] { { ] ] ] ] X.X.X.X.X.X.X.@.@.&.&.-.K K K K K K K ",
"K K K K K K K K { ] ] { ] { ] { ] { ] X.X.X.X.X.@.@.&.&.K K K K K K K K ",
"K K K K K K K K K ] { ] { ] { ] { ] { ] X.X.X.X.@.@.&.K K K K K K K K K ",
"K K K K K K K K K K K { ] { ] { { ] { ] { O.X.@.X.K K K K K K K K K K K ",
"K K K K K K K K K K K K K K { ] ] ] ] { X.X.K K K K K K K K K K K K K K ",
"K K K K K K K K K K K K K K K K K     K K K K K K K K K K K K K K K K K ",
"K K K K K K K K K K K K K K K K K     K K K K K K K K K K K K K K K K K "
};
