/* XPM */
static char *wmoku-0-LB-c[] = {
/* columns rows colors chars-per-pixel */
"36 36 56 1",
"  c #000900090009",
". c #01AF01AF01AF",
"X c #03C103C103C1",
"o c #046104610461",
"O c #052E052E052E",
"+ c #07B907B907B9",
"@ c #139313931393",
"# c #15A715A715A7",
"$ c #1ADC1ADC1ADC",
"% c #1F001F001F00",
"& c #203620362036",
"* c #221722172217",
"= c #23C823C823C8",
"- c #25A025A025A0",
"; c #29B529B529B5",
": c #31AB31AB31AB",
"> c #35CD35CD35CD",
", c #531853185318",
"< c #6A006A006A00",
"1 c #6A8D6A8D6A8D",
"2 c #6F386F386F38",
"3 c #778D778D778D",
"4 c #7A067A067A06",
"5 c #E79DB2CA4924",
"6 c #853D853D853D",
"7 c #8D6A8D6A8D6A",
"8 c #8DEF8DEF8DEF",
"9 c #91F491F491F4",
"0 c #A15AA15AA15A",
"q c #A521A521A521",
"w c #A80EA80EA80E",
"e c #AB2CAB2CAB2C",
"r c #AC90AC90AC90",
"t c #AD71AD71AD71",
"y c #AEBAAEBAAEBA",
"u c #B375B375B375",
"i c #B3D1B3D1B3D1",
"p c #B4EBB4EBB4EB",
"a c #B6DBB6DBB6DB",
"s c #B819B819B819",
"d c #BA0EBA0EBA0E",
"f c #BB15BB15BB15",
"g c #BDC6BDC6BDC6",
"h c #BEFBBEFBBEFB",
"j c #C00FC00FC00F",
"k c #C230C230C230",
"l c #C59FC59FC59F",
"z c #C71BC71BC71B",
"x c #C947C947C947",
"c c #CF3CCF3CCF3C",
"v c #CFFCCFFCCFFC",
"b c #D75CD75CD75C",
"n c #DB5BDB5BDB5B",
"m c #DF7DDF7DDF7D",
"M c #E79DE79DE79D",
"N c #EFBEEFBEEFBE",
/* pixels */
"55555555555555555  55555555555555555",
"55555555555555555  55555555555555555",
"55555555555555cczzzcbc55555555555555",
"55555555555czccccccbbbbcb55555555555",
"555555555czcccccccbbbbbbbcc555555555",
"55555555czzccccccbbbmmmmbbcc55555555",
"5555555czzzzcccccbbmmmmmmmbbc5555555",
"555555czzzzzccccbbmmmMMMMmmbbc555555",
"55555czzzzzzzcccbbmmMMMMMMmmmbc55555",
"5555czzzzzzzzcccbbmMMNNNNMMmmmbc5555",
"5555czzzhzzzzcccbbmMMNNNNNMMmmbb5555",
"555czzzhhzzzzcccbbmMMNNNNNMMmmbbc555",
"555zzzzhhhzzzzcxw420nNNNNNNMmmbbb555",
"555zhhhhhhzzzzqo  +  uNNNNMMmmbbb555",
"55ahhhhhhhhzza  #   # vNNMMMmmbbcz55",
"55aaaaahhhhhz: -%uz> &6MMMMmmbbbcz55",
"55aaaaahhhhhx   tcba  ,MMmmmmbbccz55",
"  taaaaahhhhh # xccbbbmmmmmbbbcccz  ",
"  tuttaaahhhh # kccctuhbbbbbbbcczz  ",
"55tttuaaaahhh   wzcd  ;bbbbbcccczz55",
"55ttuttdaahhh& --ta> $3ccccccccczz55",
"55tuttttaaahh0  @   @ dcccccccczzz55",
"555ttttttaaahh8   oo 9zzccccccccz555",
"555tuttutaaaahhd9118kzzzzzzzzcccc555",
"555tuttuttaaaahhhhhhzzzzzzzzzcccc555",
"5555ttttuttdaaaahhhhhzzzzzzzzccc5555",
"5555dttutttdaaaaahhhhhhhhhzzzccc5555",
"55555ttttutttaaaaahhhhhhhhzzccc55555",
"555555ttttutttaaaaaaaaahhhzzcc555555",
"5555555ttttttutttaaaaaaahhzzc5555555",
"55555555tuuttuuttutdaaaahhzz55555555",
"555555555tttttttttttaaaahhz555555555",
"55555555555utttuuttutaaha55555555555",
"55555555555555ttttttaa55555555555555",
"55555555555555555  55555555555555555",
"55555555555555555  55555555555555555"
};
