/* XPM */
static char *wmoku-0-LB-d[] = {
/* columns rows colors chars-per-pixel */
"36 36 59 1",
"  c #000700070007",
". c #017501750175",
"X c #040304030403",
"o c #049004900490",
"O c #05A405A405A4",
"+ c #067206720672",
"@ c #2DD82DD82DD8",
"# c #3AF83AF83AF8",
"$ c #3E673E673E67",
"% c #402540254025",
"& c #404140414041",
"* c #41B241B241B2",
"= c #4BA94BA94BA9",
"- c #508050805080",
"; c #571C571C571C",
": c #5AD85AD85AD8",
"> c #655565556555",
", c #68FC68FC68FC",
"< c #721372137213",
"1 c #746574657465",
"2 c #7A387A387A38",
"3 c #E79DB2CA4924",
"4 c #80EA80EA80EA",
"5 c #82DD82DD82DD",
"6 c #862D862D862D",
"7 c #872187218721",
"8 c #87D787D787D7",
"9 c #892D892D892D",
"0 c #8B708B708B70",
"q c #8C7B8C7B8C7B",
"w c #90B390B390B3",
"e c #944E944E944E",
"r c #95F695F695F6",
"t c #9B399B399B39",
"y c #9D9E9D9E9D9E",
"u c #A325A325A325",
"i c #A3BBA3BBA3BB",
"p c #A52CA52CA52C",
"a c #A5F1A5F1A5F1",
"s c #A802A802A802",
"d c #AC8CAC8CAC8C",
"f c #AEBCAEBCAEBC",
"g c #B341B341B341",
"h c #B3E6B3E6B3E6",
"j c #B671B671B671",
"k c #B6DAB6DAB6DA",
"l c #B830B830B830",
"z c #B946B946B946",
"x c #BDC8BDC8BDC8",
"c c #BEFBBEFBBEFB",
"v c #C1ECC1ECC1EC",
"b c #C71BC71BC71B",
"n c #CB9ACB9ACB9A",
"m c #CF3CCF3CCF3C",
"M c #D348D348D348",
"N c #D75CD75CD75C",
"B c #DF7DDF7DDF7D",
"V c #E79DE79DE79D",
"C c #EFBEEFBEEFBE",
/* pixels */
"33333333333333333  33333333333333333",
"33333333333333333  33333333333333333",
"33333333333333mmbbbmNm33333333333333",
"33333333333mbmmmmmmNNNNmN33333333333",
"333333333mbmmmmmmmNNNNNNNmm333333333",
"33333333mbbmmmmmmNNNBBBBNNmm33333333",
"3333333mbbbbmmmmmNNBBBBBBBNNm3333333",
"333333mbbbbbmmmmNNBBBVVVVBBNNm333333",
"33333mbbbbbbbmmmNNBy>>cVVVBBBNm33333",
"3333mbbbbbbbbmmmNNB> +tCCVVBBBNm3333",
"3333mbbbcbbbbmmmNNB> +tCCCVVBBNN3333",
"333mbbbccbbbbmmmNNB> +tCCCVVBBNNm333",
"333bbbbcccbbbbzr,1g> +tCCCCVBBNNN333",
"333bccccccbbb2   + @ +tCCCVVBBNNN333",
"33kccccccccb9  +   + +rCCVVVBBNNmb33",
"33kkkkkcccck   *kk-  +rVVVVBBNNNmb33",
"33kkkkkcccci   vmmM  +qVVBBBBNNmmb33",
"  dkkkkkccc9  #bmmm% +qVBBBNNNmmmb  ",
"  dgdgkkkccq  #bbmm% +9NNNNNNNmmbb  ",
"33dgddkkkkca   vbbn  +6NNNNNmmmmbb33",
"33ddddgzkkcz  +%dd=  +6mmmmmmmmmbb33",
"33dggdddkkkc2  +  +  +6mmmmmmmmbbb33",
"333dgddddkkkc1   + = +2bmmmmmmmmb333",
"333gddggdkkkkcd6:,aq;;anbbbbbmmmm333",
"333dddgdgdkkkkccccccbbbbbbbbbmmmm333",
"3333gdgddddzkkkkcccccbbbbbbbbmmm3333",
"3333kgdddgdkkkkkkcccccccccbbbmmm3333",
"33333ddgdgdgdzkkkkccccccccbbmmm33333",
"333333ddgddddgkkkkkkkkkcccbbmm333333",
"3333333gddgddddgdkkkkkkkccbbm3333333",
"33333333dggdgdddgddzkkkkccbb33333333",
"333333333dddgdgdddgdkkkkccb333333333",
"33333333333ddgddddddgkkck33333333333",
"33333333333333dggdgdkk33333333333333",
"33333333333333333  33333333333333333",
"33333333333333333  33333333333333333"
};
