/* XPM */
static char *wmoku-0-LB-196[] = {
/* columns rows colors chars-per-pixel */
"36 36 118 2",
"   c #000500050005",
".  c #016201620162",
"X  c #026E026E026E",
"o  c #04B404B404B4",
"O  c #059B059B059B",
"+  c #065506550655",
"@  c #074007400740",
"#  c #087B087B087B",
"$  c #099C099C099C",
"%  c #0A8B0A8B0A8B",
"&  c #0BCA0BCA0BCA",
"*  c #0C0E0C0E0C0E",
"=  c #0D510D510D51",
"-  c #0E510E510E51",
";  c #11D411D411D4",
":  c #12C812C812C8",
">  c #14C814C814C8",
",  c #15A615A615A6",
"<  c #166816681668",
"1  c #176617661766",
"2  c #186A186A186A",
"3  c #198B198B198B",
"4  c #1AB51AB51AB5",
"5  c #1C7B1C7B1C7B",
"6  c #1D7F1D7F1D7F",
"7  c #1EA71EA71EA7",
"8  c #219D219D219D",
"9  c #22E522E522E5",
"0  c #235323532353",
"q  c #257825782578",
"w  c #28DE28DE28DE",
"e  c #2AB62AB62AB6",
"r  c #2B762B762B76",
"t  c #2D9D2D9D2D9D",
"y  c #32D732D732D7",
"u  c #34B234B234B2",
"i  c #3CB33CB33CB3",
"p  c #3FE63FE63FE6",
"a  c #41D141D141D1",
"s  c #429E429E429E",
"d  c #43ED43ED43ED",
"f  c #495D495D495D",
"g  c #4BAB4BAB4BAB",
"h  c #4C784C784C78",
"j  c #4FF64FF64FF6",
"k  c #50EA50EA50EA",
"l  c #529852985298",
"z  c #537953795379",
"x  c #554955495549",
"c  c #56EE56EE56EE",
"v  c #5E385E385E38",
"b  c #63FF63FF63FF",
"n  c #672C672C672C",
"m  c #684468446844",
"M  c #6C256C256C25",
"N  c #6C7C6C7C6C7C",
"B  c #6E1A6E1A6E1A",
"V  c #6F306F306F30",
"C  c #6FF46FF46FF4",
"Z  c #70BC70BC70BC",
"A  c #7C237C237C23",
"S  c #7E677E677E67",
"D  c #7F727F727F72",
"F  c #E79DB2CA4924",
"G  c #812C812C812C",
"H  c #888C888C888C",
"J  c #8A4D8A4D8A4D",
"K  c #8CB28CB28CB2",
"L  c #8FEB8FEB8FEB",
"P  c #922F922F922F",
"I  c #93E393E393E3",
"U  c #963C963C963C",
"Y  c #975F975F975F",
"T  c #98E598E598E5",
"R  c #9A5D9A5D9A5D",
"E  c #9AAE9AAE9AAE",
"W  c #9C389C389C38",
"Q  c #9D039D039D03",
"!  c #9E759E759E75",
"~  c #9EDB9EDB9EDB",
"^  c #9FC39FC39FC3",
"/  c #A244A244A244",
"(  c #A50FA50FA50F",
")  c #A95FA95FA95F",
"_  c #AA88AA88AA88",
"`  c #AC24AC24AC24",
"'  c #ADB7ADB7ADB7",
"]  c #AEBAAEBAAEBA",
"[  c #B038B038B038",
"{  c #B1FCB1FCB1FC",
"}  c #B49CB49CB49C",
"|  c #B691B691B691",
" . c #B6DCB6DCB6DC",
".. c #B97DB97DB97D",
"X. c #B9E6B9E6B9E6",
"o. c #BB3BBB3BBB3B",
"O. c #BD89BD89BD89",
"+. c #BE45BE45BE45",
"@. c #BEFDBEFDBEFD",
"#. c #C1BEC1BEC1BE",
"$. c #C392C392C392",
"%. c #C47AC47AC47A",
"&. c #C4CFC4CFC4CF",
"*. c #C71BC71BC71B",
"=. c #C84DC84DC84D",
"-. c #C975C975C975",
";. c #CA0ECA0ECA0E",
":. c #CAEBCAEBCAEB",
">. c #CF3CCF3CCF3C",
",. c #D001D001D001",
"<. c #D1FCD1FCD1FC",
"1. c #D75CD75CD75C",
"2. c #DF7DDF7DDF7D",
"3. c #E200E200E200",
"4. c #E420E420E420",
"5. c #E798E798E798",
"6. c #ED25ED25ED25",
"7. c #EFAFEFAFEFAF",
/* pixels */
"F F F F F F F F F F F F F F F F F     F F F F F F F F F F F F F F F F F ",
"F F F F F F F F F F F F F F F F F     F F F F F F F F F F F F F F F F F ",
"F F F F F F F F F F F F F F >.>.*.*.*.>.1.>.F F F F F F F F F F F F F F ",
"F F F F F F F F F F F >.*.>.>.>.>.>.>.1.1.1.1.>.1.F F F F F F F F F F F ",
"F F F F F F F F F >.*.>.>.>.>.>.>.>.1.1.1.1.1.1.1.>.>.F F F F F F F F F ",
"F F F F F F F F >.*.*.>.>.>.>.>.>.1.1.1.2.2.2.2.1.1.>.>.F F F F F F F F ",
"F F F F F F F >.*.*.*.*.>.>.>.>.>.1.1.2.2.2.2.2.2.2.1.1.>.F F F F F F F ",
"F F F F F F >.*.*.*.*.*.>.>.>.>.1.1.2.2.2.5.5.5.5.2.2.1.1.>.F F F F F F ",
"F F F F F >.*.*.*.*.*.*.*.>.>.>.1.1.2.2.5.5.5.5.5.5.2.2.2.1.>.F F F F F ",
"F F F F >.*.! c v *.*.*.*.>.$.Y Z Z ( 5.5.7.7.7.7.5.@.D M T >.>.F F F F ",
"F F F F >.*.2 =   *.*.*.*.D       $   = <.7.7.7.3.q     @ @   ] F F F F ",
"F F F =.] M   2   *.*.*.P     =       9 $ 7.7.7.,   ,       2   *.F F F ",
"F F F         2   @.*.*.$   2 h $...=     ] 7.H   q   @.=.=     T F F F ",
"F F F         2   @.*.*.  $   *.1.1./   y f 7.2     ! 5.3.P     c F F F ",
"F F  .P P P   2   @.@.*.  ,   =.>.1.@.  e   5.  @   ..A m T *.1.>.*.F F ",
"F F  . . . .  2   @.@.@.      ( >.>.v   7   5.  2       @ @   H <.=.F F ",
"F F  . . . .  2   @.@.@.c   2   a 9     7   2.    @         $   ( =.F F ",
"    ]  . . .  2   @.@.@.@.t       $     9   2.      T 1.1.c   t i *.    ",
"    ] ] ] ]   ,   @.@.@.@.*.Y h 7 a G   e e 1.  ,   <.1.1...  7   *.    ",
"F F ] ] ] ]   2    .@.$.,     { *.*.d   7 V >.  $   =.1.<.!   7 $ *.F F ",
"F F ] ] ] ]   ,    .@.@.u   , h ..Y   @   { >.a   7 a  . .,   9 f *.F F ",
"F F ] ] ] ]   ,    . .@.T     $       @ k >.>.@.    :       :    .*.F F ",
"F F F ] ] ]   =    . . .@.Z       $   h *.*.*.*.!       @     ! *.F F F ",
"F F F ] ] ] h h k  . . . .@.] D c V ] *.*.*.*.*.*.@.H b V ! =.>.>.F F F ",
"F F F ] ] ] ] ] ] ]  . . . .@.@.@.@.@.@.*.*.*.*.*.*.*.*.*.>.>.>.<.F F F ",
"F F F F ] ] ] ] ] ] ]  . . . . .@.@.@.@.@.*.*.*.*.*.*.*.*.>.>.>.F F F F ",
"F F F F  .] ] ] ] ] ]  . . . . . .@.@.@.@.@.@.@.@.@.*.*.*.>.>.>.F F F F ",
"F F F F F ] ] ] ] ] ] ] ]  . . . . .@.@.@.@.@.@.@.@.*.*.>.>.>.F F F F F ",
"F F F F F F ] ] ] ] ] ] ] ]  . . . . . . . . .@.@.@.*.*.>.>.F F F F F F ",
"F F F F F F F ] ] ] ] ] ] ] ] ] ]  . . . . . . .@.@.*.*.>.F F F F F F F ",
"F F F F F F F F ] ] ] ] ] ] ] ] ] ] ]  . . . . .@.@.*.*.F F F F F F F F ",
"F F F F F F F F F ] ] ] ] ] ] ] ] ] ] ]  . . . .@.@.*.F F F F F F F F F ",
"F F F F F F F F F F F ] ] ] ] ] ] ] ] ] ]  . .@. .F F F F F F F F F F F ",
"F F F F F F F F F F F F F F ] ] ] ] ] ]  . .F F F F F F F F F F F F F F ",
"F F F F F F F F F F F F F F F F F     F F F F F F F F F F F F F F F F F ",
"F F F F F F F F F F F F F F F F F     F F F F F F F F F F F F F F F F F "
};
