/* XPM */
static char *wmoku-0-LB-r[] = {
/* columns rows colors chars-per-pixel */
"36 36 30 1",
"  c #000400040004",
". c #012001200120",
"X c #087708770877",
"o c #12C812C812C8",
"O c #538E538E538E",
"+ c #5A475A475A47",
"@ c #5E385E385E38",
"# c #61F661F661F6",
"$ c #655565556555",
"% c #E79DB2CA4924",
"& c #838C838C838C",
"* c #9F329F329F32",
"= c #A42FA42FA42F",
"- c #AEBAAEBAAEBA",
"; c #B681B681B681",
": c #B6DAB6DAB6DA",
"> c #BAA9BAA9BAA9",
", c #BB48BB48BB48",
"< c #BE4BBE4BBE4B",
"1 c #BEFBBEFBBEFB",
"2 c #C224C224C224",
"3 c #C3A3C3A3C3A3",
"4 c #C71BC71BC71B",
"5 c #CF3DCF3DCF3D",
"6 c #D75CD75CD75C",
"7 c #DABDDABDDABD",
"8 c #DF7DDF7DDF7D",
"9 c #E5BEE5BEE5BE",
"0 c #E79DE79DE79D",
"q c #EFBEEFBEEFBE",
/* pixels */
"%%%%%%%%%%%%%%%%%  %%%%%%%%%%%%%%%%%",
"%%%%%%%%%%%%%%%%%  %%%%%%%%%%%%%%%%%",
"%%%%%%%%%%%%%%55444565%%%%%%%%%%%%%%",
"%%%%%%%%%%%54555555666656%%%%%%%%%%%",
"%%%%%%%%%545555555666666655%%%%%%%%%",
"%%%%%%%%54455555566688886655%%%%%%%%",
"%%%%%%%5444455555668888888665%%%%%%%",
"%%%%%%544444555566888000088665%%%%%%",
"%%%%%54444444555668800000088865%%%%%",
"%%%%54444444455566800qqqq0088865%%%%",
"%%%%54441444455566800qqqqq008866%%%%",
"%%%544411444455566800qqqqq0088665%%%",
"%%%444411144445#@@5&$7qqqqq088666%%%",
"%%%411111144445      2qqqq0088666%%%",
"%%:111111114444   X  >0qq000886654%%",
"%%:::::11111444  o *:0000008866654%%",
"%%:::::11111444   =788800888866554%%",
"  -:::::1111144   1666888886665554  ",
"  ----:::111144   2556666666665544  ",
"%%----::::11114   2555576666555544%%",
"%%-----:::11111   >555555555555544%%",
"%%------:::1111   >445555555555444%%",
"%%%------:::111   >44444555555554%%%",
"%%%------::::11+OO244444444445555%%%",
"%%%-------::::1111114444444445555%%%",
"%%%%-------:::::1111144444444555%%%%",
"%%%%:------::::::111111111444555%%%%",
"%%%%%--------:::::1111111144555%%%%%",
"%%%%%%--------:::::::::1114455%%%%%%",
"%%%%%%%----------:::::::11445%%%%%%%",
"%%%%%%%%-----------:::::1144%%%%%%%%",
"%%%%%%%%%-----------::::114%%%%%%%%%",
"%%%%%%%%%%%----------::1:%%%%%%%%%%%",
"%%%%%%%%%%%%%%------::%%%%%%%%%%%%%%",
"%%%%%%%%%%%%%%%%%  %%%%%%%%%%%%%%%%%",
"%%%%%%%%%%%%%%%%%  %%%%%%%%%%%%%%%%%"
};
