/* XPM */
static char *wmoku-0-LB-297[] = {
/* columns rows colors chars-per-pixel */
"36 36 130 2",
"   c #000500050005",
".  c #017201720172",
"X  c #0209019200A5",
"o  c #02C502C502C5",
"O  c #03A403A403A4",
"+  c #04D604D604D6",
"@  c #058605860586",
"#  c #069E069E069E",
"$  c #08C008C008C0",
"%  c #095509550955",
"&  c #0A620A620A62",
"*  c #0B740B740B74",
"=  c #0C520C520C52",
"-  c #0DA00DA00DA0",
";  c #0E730E730E73",
":  c #0F740F740F74",
">  c #112611261126",
",  c #156915691569",
"<  c #166416641664",
"1  c #17D217D217D2",
"2  c #186818681868",
"3  c #1A9A1A9A1A9A",
"4  c #1CDD1CDD1CDD",
"5  c #1D7F1D7F1D7F",
"6  c #1E971E971E97",
"7  c #1F9F1F9F1F9F",
"8  c #205B205B205B",
"9  c #219D219D219D",
"0  c #228B228B228B",
"q  c #243824382438",
"w  c #253125312531",
"e  c #269826982698",
"r  c #28DE28DE28DE",
"t  c #297229722972",
"y  c #2A8C2A8C2A8C",
"u  c #2B822B822B82",
"i  c #2C722C722C72",
"p  c #2D792D792D79",
"a  c #33C833C833C8",
"s  c #348734873487",
"d  c #390C390C390C",
"f  c #65554E382000",
"g  c #69BB519E2163",
"h  c #6A9F524E21AC",
"j  c #6EED55A02307",
"k  c #41D141D141D1",
"l  c #42DC42DC42DC",
"z  c #443144314431",
"x  c #44DB44DB44DB",
"c  c #495D495D495D",
"v  c #4BAB4BAB4BAB",
"b  c #4C714C714C71",
"n  c #4FD24FD24FD2",
"m  c #514C514C514C",
"M  c #533353335333",
"N  c #53A653A653A6",
"B  c #554955495549",
"V  c #562756275627",
"C  c #56E256E256E2",
"Z  c #5AAA5AAA5AAA",
"A  c #5E385E385E38",
"S  c #613761376137",
"D  c #61CD61CD61CD",
"F  c #62C562C562C5",
"G  c #655565556555",
"H  c #669366936693",
"J  c #68E368E368E3",
"K  c #6C7C6C7C6C7C",
"L  c #6F3E6F3E6F3E",
"P  c #6FF36FF36FF3",
"I  c #713971397139",
"U  c #73A973A973A9",
"Y  c #74FE74FE74FE",
"T  c #7E387E387E38",
"R  c #7F727F727F72",
"E  c #808463352896",
"W  c #9FEE7B743281",
"Q  c #BB5090973B27",
"!  c #CF209FE44169",
"~  c #DA92A8BA4506",
"^  c #DF7EAC854693",
"/  c #E73EB2814906",
"(  c #E79DB2CA4924",
")  c #812781278127",
"_  c #834B834B834B",
"`  c #870F870F870F",
"'  c #878A878A878A",
"]  c #8F228F228F22",
"[  c #91E491E491E4",
"{  c #93B493B493B4",
"}  c #960396039603",
"|  c #98AE98AE98AE",
" . c #9A6C9A6C9A6C",
".. c #9D109D109D10",
"X. c #9F299F299F29",
"o. c #A0F4A0F4A0F4",
"O. c #A21BA21BA21B",
"+. c #A3E6A3E6A3E6",
"@. c #A50FA50FA50F",
"#. c #A838A838A838",
"$. c #AB35AB35AB35",
"%. c #AC24AC24AC24",
"&. c #AE3FAE3FAE3F",
"*. c #AEBCAEBCAEBC",
"=. c #B052B052B052",
"-. c #B206B206B206",
";. c #B42CB42CB42C",
":. c #B5F4B5F4B5F4",
">. c #B6DCB6DCB6DC",
",. c #B91DB91DB91D",
"<. c #BA4BBA4BBA4B",
"1. c #BB2CBB2CBB2C",
"2. c #BD24BD24BD24",
"3. c #BE85BE85BE85",
"4. c #BEFBBEFBBEFB",
"5. c #C137C137C137",
"6. c #C384C384C384",
"7. c #C512C512C512",
"8. c #C64EC64EC64E",
"9. c #C71BC71BC71B",
"0. c #C82FC82FC82F",
"q. c #CB1CCB1CCB1C",
"w. c #CF3CCF3CCF3C",
"e. c #D14DD14DD14D",
"r. c #D75BD75BD75B",
"t. c #DF7DDF7DDF7D",
"y. c #E1ADE1ADE1AD",
"u. c #E420E420E420",
"i. c #E79DE79DE79D",
"p. c #EFBEEFBEEFBE",
/* pixels */
"( ( ( ( ( ( ( ( ( ( ( ( ( ( ( ( (     ( ( ( ( ( ( ( ( ( ( ( ( ( ( ( ( ( ",
"( ( ( ( ( ( ( ( ( ( ( ( ( ( ( ( (     ( ( ( ( ( ( ( ( ( ( ( ( ( ( ( ( ( ",
"( ( ( ( ( ( ( ( ( ( ( ( ( ( w.w.9.9.9.w.r.w.( ( ( ( ( ( ( ( ( ( ( ( ( ( ",
"( ( ( ( ( ( ( ( ( ( ( w.9.w.w.w.w.w.w.r.r.r.r.w.r.( ( ( ( ( ( ( ( ( ( ( ",
"( ( ( ( ( ( ( ( ( w.9.w.w.w.w.w.w.w.r.r.r.r.r.r.r.w.w.( ( ( ( ( ( ( ( ( ",
"( ( ( ( ( ( ( ( w.9.9.w.w.w.w.w.w.r.r.r.t.t.t.t.r.r.w.w.( ( ( ( ( ( ( ( ",
"( ( ( ( ( ( ( w.9.9.9.9.w.w.w.w.w.r.r.t.t.t.t.t.t.t.r.r.w.( ( ( ( ( ( ( ",
"( ( ( ( ( ( w.9.9.9.9.9.w.w.w.w.r.r.t.t.t.i.i.i.i.t.t.r.r.w.( ( ( ( ( ( ",
"( ( ( ( ( w.9.9.9.9.9.9.9.w.w.w.r.r.t.y.i.i.i.i.i.i.t.t.t.r.w./ ( ( ( ( ",
"( ( ( ( 4._ F F ` ,.9.9.9.w.w.6...L Y *.y.p.y.J J G G F F F A Z g ( ( ( ",
"( ( ( g       # #   _ 9.9.w._       %   - r.>.                %   ( ( ( ",
"( ( E   #         -   o.9.}     -       0 - 4.                0   ( ( ( ",
"( (       P ,.#.2   y a 9.%   2 m 6.6.%     *.0.0.0.9.6.,.i     o.( ( ( ",
"( ~   0   4.4.4...  5   9.  %   0.r.y.o.  s x p.p.p.i.i.`   > G r.( ( ( ",
"( !     u 4.4.4.]   0 # 9.  ,   0.r.r.9.  y   p.p.i.i.r.  e   e.w.9.( ( ",
"( ( #.#.*.>.>.+.    - G 9.      @.w.r.F   0   i.i.i.i.d     o.r.w.9.( ( ",
"( ( >.>.,.#.x     2 - >.9.V   2   k e     5   i.i.t.,.  y i r.w.w.9.( ( ",
"    *.>.U     %   s =.4.4.9.i       %     e   t.t.t.y     *.w.w.w.9.    ",
"    *.s   %   - ` 4.4.4.4.9.9.} m 0 k _   i y r.r.6.  y > r.w.w.9.9.    ",
"( ( k   ,   R >.>.>.4.4.4.,     *.9.w.k   5 J r.r.V   - _ w.w.w.9.9.( ( ",
"( ^   ,   } [ } } } o.@.4.s   2 x ,.}   #   =.w.w.# #   4.w.w.w.9.9.( ( ",
"( W   -                 4.}     -       # m w.w.,.  e # w.w.w.9.9.9.( ( ",
"/ j                 -   4.4.U       -   m 9.9.9.U   i m w.w.w.w.9.( ( ( ",
"/ Q f n x n n x n n m V >.4.4.=.R V U *.9.9.9.9...V V } 9.w.w.w.w.( ( ( ",
"/ / ( *.*.*.*.*.*.*.>.>.>.>.4.4.4.4.4.4.9.9.9.9.0.9.9.9.9.w.w.w.w.( ( ( ",
"/ / ( ( *.*.*.*.*.*.*.>.>.>.>.>.4.4.4.4.4.9.9.9.9.9.9.9.9.w.w.w.( ( ( ( ",
"/ ( ( ( >.*.*.*.*.*.*.>.>.>.>.>.>.4.4.4.4.4.4.4.4.4.9.9.9.w.w.w.( ( ( ( ",
"/ / ( ( / *.*.*.*.*.*.*.*.>.>.>.>.>.4.4.4.4.4.4.4.4.9.9.w.w.w.( ( ( ( ( ",
"( ( ( ( ( ( *.*.*.*.*.*.*.*.>.>.>.>.>.>.>.>.>.4.4.4.9.9.w.w.( ( ( ( ( ( ",
"( ( ( ( ( ( ( *.*.*.*.*.*.*.*.*.*.>.>.>.>.>.>.>.4.4.9.9.w.( ( ( ( ( ( ( ",
"( ( ( ( ( ( ( ( *.*.*.*.*.*.*.*.*.*.*.>.>.>.>.>.4.4.9.9.( ( ( ( ( ( ( ( ",
"( ( ( ( ( ( ( ( ( *.*.*.*.*.*.*.*.*.*.*.>.>.>.>.4.4.9.( ( ( ( ( ( ( ( ( ",
"( ( ( ( ( ( ( ( ( ( ( *.*.*.*.*.*.*.*.*.*.>.>.4.>.( ( ( ( ( ( ( ( ( ( ( ",
"( ( ( ( ( ( ( ( ( ( ( ( ( ( *.*.*.*.*.*.>.>.( ( ( ( ( ( ( ( ( ( ( ( ( ( ",
"( ( ( ( ( ( ( ( ( ( ( ( ( ( ( ( (     ( ( ( ( ( ( ( ( ( ( ( ( ( ( ( ( ( ",
"( ( ( ( ( ( ( ( ( ( ( ( ( ( ( ( (     ( ( ( ( ( ( ( ( ( ( ( ( ( ( ( ( ( "
};
