/* XPM */
static char *wmoku-0-LB-208[] = {
/* columns rows colors chars-per-pixel */
"36 36 150 2",
"   c #000B000B000B",
".  c #019701970197",
"X  c #02B1021400D9",
"o  c #028B028B028B",
"O  c #038A038A038A",
"+  c #0589044601BF",
"@  c #048904890489",
"#  c #057C057C057C",
"$  c #067406740674",
"%  c #075607560756",
"&  c #08C908C908C9",
"*  c #0A030A030A03",
"=  c #0AA60AA60AA6",
"-  c #184212B907A9",
";  c #10E310E310E3",
":  c #116711671167",
">  c #179317931793",
",  c #18A018A018A0",
"<  c #1B421B421B42",
"1  c #1DDB1DDB1DDB",
"2  c #1FC01FC01FC0",
"3  c #23BE1B970B49",
"4  c #239A239A239A",
"5  c #24DF24DF24DF",
"6  c #259825982598",
"7  c #29AE29AE29AE",
"8  c #2A942A942A94",
"9  c #2BF82BF82BF8",
"0  c #2DD82DD82DD8",
"q  c #2EDF2EDF2EDF",
"w  c #2F472F472F47",
"e  c #30FC30FC30FC",
"r  c #316C316C316C",
"t  c #323B323B323B",
"y  c #349534953495",
"u  c #357D357D357D",
"i  c #534440471A4C",
"p  c #65554E382000",
"a  c #6BFC535B221A",
"s  c #6E29550922CA",
"d  c #42C942C942C9",
"f  c #445044504450",
"g  c #459B459B459B",
"h  c #4C784C784C78",
"j  c #4FFF4FFF4FFF",
"k  c #506550655065",
"l  c #530753075307",
"z  c #554955495549",
"x  c #564D564D564D",
"c  c #571C571C571C",
"v  c #576257625762",
"b  c #591D591D591D",
"n  c #59DD59DD59DD",
"m  c #5C075C075C07",
"M  c #5E1D5E1D5E1D",
"N  c #5FEA5FEA5FEA",
"B  c #61C761C761C7",
"V  c #65D865D865D8",
"C  c #66F666F666F6",
"Z  c #6C096C096C09",
"A  c #6DD86DD86DD8",
"S  c #6EF66EF66EF6",
"D  c #726172617261",
"F  c #766476647664",
"G  c #76C176C176C1",
"H  c #788778877887",
"J  c #79E779E779E7",
"K  c #7AB67AB67AB6",
"L  c #7BA77BA77BA7",
"P  c #7D057D057D05",
"I  c #7EEF7EEF7EEF",
"U  c #800080008000",
"Y  c #8CA86C932C6B",
"T  c #97C575282FED",
"R  c #AAE083E735F6",
"E  c #C71899B03EDF",
"W  c #D157A199421B",
"Q  c #D87CA71C445D",
"!  c #DC9AAA4A45AA",
"~  c #E011ACF746C2",
"^  c #E402B0014800",
"/  c #E605B18E48A3",
"(  c #E79DB2CA4924",
")  c #821E821E821E",
"_  c #843584358435",
"`  c #851485148514",
"'  c #85C285C285C2",
"]  c #876B876B876B",
"[  c #87EF87EF87EF",
"{  c #896289628962",
"}  c #8AAE8AAE8AAE",
"|  c #8D588D588D58",
" . c #8F0E8F0E8F0E",
".. c #91E191E191E1",
"X. c #946594659465",
"o. c #960C960C960C",
"O. c #974D974D974D",
"+. c #97B897B897B8",
"@. c #98F298F298F2",
"#. c #9B329B329B32",
"$. c #9D199D199D19",
"%. c #9F769F769F76",
"&. c #9FD69FD69FD6",
"*. c #A0FAA0FAA0FA",
"=. c #A32CA32CA32C",
"-. c #A663A663A663",
";. c #A706A706A706",
":. c #A863A863A863",
">. c #A93FA93FA93F",
",. c #AB92AB92AB92",
"<. c #AC16AC16AC16",
"1. c #AD3CAD3CAD3C",
"2. c #AEBAAEBAAEBA",
"3. c #B0A1B0A1B0A1",
"4. c #B103B103B103",
"5. c #B1D0B1D0B1D0",
"6. c #B331B331B331",
"7. c gray70",
"8. c #B525B525B525",
"9. c #B623B623B623",
"0. c #B6DAB6DAB6DA",
"q. c #B7F6B7F6B7F6",
"w. c #B93DB93DB93D",
"e. c #B9DDB9DDB9DD",
"r. c #BD2CBD2CBD2C",
"t. c #BE53BE53BE53",
"y. c #BEFBBEFBBEFB",
"u. c #C0F4C0F4C0F4",
"i. c #C24CC24CC24C",
"p. c #C31CC31CC31C",
"a. c #C431C431C431",
"s. c #C4F7C4F7C4F7",
"d. c #C69AC69AC69A",
"f. c #C719C719C719",
"g. c #C898C898C898",
"h. c #CD83CD83CD83",
"j. c #CE66CE66CE66",
"k. c #CF3BCF3BCF3B",
"l. c #D1FBD1FBD1FB",
"z. c #D540D540D540",
"x. c #D671D671D671",
"c. c #D75BD75BD75B",
"v. c #DC3DDC3DDC3D",
"b. c #DE63DE63DE63",
"n. c #DF7DDF7DDF7D",
"m. c #E09CE09CE09C",
"M. c #E4C9E4C9E4C9",
"N. c #E79DE79DE79D",
"B. c #EE2CEE2CEE2C",
"V. c #EFBEEFBEEFBE",
/* pixels */
"( ( ( ( ( ( ( ( ( ( ( ( ( ( ( ( ( o o / ( ( ( ( ( ( ( ( ( ( ( ( ( ( ( ( ",
"( ( ( ( ( ( ( ( ( ( ( ( ( ( ( ( ( o o / ( ( ( ( ( ( ( ( ( ( ( ( ( ( ( ( ",
"( ( ( ( ( ( ( ( ( ( ( / ( ( k.k.f.f.f.k.c.k.( ( ( ( ( ( ( ( ( ( ( ( ( ( ",
"( ( ( ( ( ( ( ( ( ( ( k.f.k.k.k.k.k.k.z.c.c.c.k.c.( ( ( ( ( ( ( ( ( ( ( ",
"( ( ( ( ( ( ( ( / k.f.k.k.k.k.k.k.k.c.c.c.c.c.c.c.k.k.( ( ( ( ( ( ( ( ( ",
"( ( ( ( ( ( ( ( k.f.f.k.k.k.k.k.k.z.c.c.n.n.n.n.c.c.k.k.( ( ( ( ( ( ( ( ",
"( ( ( ( ( ( ( k.f.f.f.f.k.k.k.k.k.c.c.n.n.n.n.n.n.n.c.c.k.( ( ( ( ( ( ( ",
"( ( ( ( ( ( k.f.f.f.f.f.k.k.k.k.c.c.n.n.n.N.N.N.N.n.n.c.c.k.( ( ( ( ( ( ",
"( ( ( ( / k.f.f.f.f.f.f.f.k.k.k.v.z.n.n.N.N.N.N.N.N.n.n.n.z.k.( ( ( ( ( ",
"( ( ( ( ;.S x Z %.f.f.f.f.k.k.3.K M ) h.N.V.V.V.V.N.e.{ B | 3.k.( / ( ( ",
"( ( W - o o o @ o 8 t.f.f.k.x o @ o o o { B.B.V.m.y o o o o o 0 Q / ( ( ",
"( ^ + o o o o o o @ 8 f.f.U o o o o o o o e.B.B.t @ o o o o o o 8 / ( ( ",
"( R o o o =.e.U o o o :.y.o o o U f.M o o > B.k.o o o 3.k.:.o o o E / ( ",
"( s o o { t.y.t.t o o ] =.o o o z.z.k.o o o v.#.o o k N.n.n.h o + T ( ( ",
"( i o o =.t.t.t.0 o o o.K o o M k.v.v.5 o o 9.9.o o ; n.n.z.= o o o.( / ",
"( ~ ;.;.9.9.9.S o o o 4.V o @ D k.k.z.f o o =.N., o o o 2 o o @ ; a.( / ",
"/ / 9.9.9.{ @ o o o K y.x o @ U k.k.z.m o o ..N.e.o o o o o o o 4.f.( / ",
"o o 3.;.t o o o o U t.t.S o @ S k.k.k.d o o ;.k.o o o 4 k = o o o y.o o ",
"o o ..o o @ o j ;.t.t.t.] o o x f.k.k.5 o o 9.U o o k z.z.z., o o o.o o ",
"/ Q o o o y ;.9.9.9.t.t.o.o o o f.f.f.o o o e.V o @ K v.k.k.d o o _ / ( ",
"( Y o o x | ..o.#.o.%.9.t.o o o ] t.V o o 0 k.o.o o o ;.y.o.o o o :.( ( ",
"( 3 o o o o o o o o o U y.G o o o o o o o =.k.h.= o o o o o o o t f.( ( ",
"/ o o o o o o o o o o F t.t.Z o o o o o { f.f.f.4., o o o o o t t.( ( ( ",
"/ a p h h h h h h j j o.9.t.t.:.U k | 4.f.f.f.f.f.h.#.K x ] :.k.k.( ( ( ",
"/ / ( 3.3.<.3.3.<.3.9.9.9.9.y.y.y.y.y.y.f.f.f.f.f.f.f.f.f.k.k.k.k.( ( ( ",
"( ( ( ( <.3.3.<.3.<.3.7.q.9.9.q.y.y.y.t.t.f.f.h.f.f.f.f.f.k.k.k.( ( ( ( ",
"( ( ( ( 9.<.<.3.<.3.3.7.9.9.9.9.e.t.t.t.t.t.y.y.t.t.f.f.f.k.k.k.( ( ( ( ",
"( ( ( ( ( 3.3.<.3.3.<.3.3.9.q.9.9.9.t.t.t.t.y.y.t.t.f.f.k.k.k.( ( ( ( ( ",
"( ( ( ( ( ( 3.<.3.3.<.3.3.3.9.9.9.9.9.e.e.9.9.y.t.t.f.f.k.k.( ( ( ( ( ( ",
"( ( ( ( ( ( / 3.<.3.3.<.3.:.3.3.3.9.9.9.9.9.9.9.t.t.f.f.k.( ( ( ( ( ( ( ",
"( ( ( ( ( ( ( ( 3.<.3.:.3.:.3.3.3.:.3.9.9.9.9.9.t.y.f.f.( ( ( ( ( ( ( ( ",
"( ( ( ( ( ( ( ( ^ 3.3.3.3.3.:.3.3.3.3.3.e.9.9.e.y.y.f.( ( ( ( ( ( ( ( ( ",
"( ( ( ( ( ( ( ( ( ( ( 3.<.3.<.2.3.<.3.3.<.9.9.t.9.( ( ( ( ( ( ( ( ( ( ( ",
"( ( ( ( ( ( ( ( ( ( ( ( ( ( 2.2.<.3.3.<.9.9.( ( ( ( ( ( ( ( ( ( ( ( ( ( ",
"( ( ( ( ( ( ( ( ( ( ( ( ( ( ( ( / o o ( ( ( ( ( ( ( ( ( ( ( ( ( ( ( ( ( ",
"( ( ( ( ( ( ( ( ( ( ( ( ( ( ( ( / o o ( ( ( ( ( ( ( ( ( ( ( ( ( ( ( ( ( "
};
