/* XPM */
static char *wmoku-0-LB-67[] = {
/* columns rows colors chars-per-pixel */
"36 36 91 1",
"  c #000800080008",
". c #017B017B017B",
"X c #028302830283",
"o c #038403840384",
"O c #049604960496",
"+ c #053E053E053E",
"@ c #06B406B406B4",
"# c #088B088B088B",
"$ c #0B5A0B5A0B5A",
"% c #126612661266",
"& c #1BBF1BBF1BBF",
"* c #25C825C825C8",
"= c #284328432843",
"- c #2A222A222A22",
"; c #2A9B2A9B2A9B",
": c #2C242C242C24",
"> c #2E512E512E51",
", c #36B836B836B8",
"< c #40C740C740C7",
"1 c #428A428A428A",
"2 c #468B468B468B",
"3 c #4E1E4E1E4E1E",
"4 c #4FB24FB24FB2",
"5 c #52BF52BF52BF",
"6 c #559955995599",
"7 c #571C571C571C",
"8 c #57D957D957D9",
"9 c #59DB59DB59DB",
"0 c #5B315B315B31",
"q c #5BA85BA85BA8",
"w c #5EED5EED5EED",
"e c #61A761A761A7",
"r c #643964396439",
"t c #655565556555",
"y c #673F673F673F",
"u c #67E067E067E0",
"i c #68E368E368E3",
"p c #6E5C6E5C6E5C",
"a c #74D274D274D2",
"s c #7B4E7B4E7B4E",
"d c #7CEC7CEC7CEC",
"f c #7E357E357E35",
"g c #801680168016",
"h c #E79DB2CA4924",
"j c #820782078207",
"k c #82F482F482F4",
"l c #842F842F842F",
"z c #866386638663",
"x c #8A398A398A39",
"c c #8D128D128D12",
"v c #8F288F288F28",
"b c #910191019101",
"n c #93D093D093D0",
"m c #982998299829",
"M c #9B3D9B3D9B3D",
"N c #A049A049A049",
"B c #A16AA16AA16A",
"V c #A1FAA1FAA1FA",
"C c #A558A558A558",
"Z c #A66CA66CA66C",
"A c #ADE0ADE0ADE0",
"S c #AEBBAEBBAEBB",
"D c #B211B211B211",
"F c #B4A6B4A6B4A6",
"G c #B4FAB4FAB4FA",
"H c #B5EEB5EEB5EE",
"J c #B6DAB6DAB6DA",
"K c #B8A6B8A6B8A6",
"L c #B97FB97FB97F",
"P c #BA65BA65BA65",
"I c #BAFEBAFEBAFE",
"U c #BE66BE66BE66",
"Y c #BF00BF00BF00",
"T c #C062C062C062",
"R c #C166C166C166",
"E c #C52BC52BC52B",
"W c #C6A9C6A9C6A9",
"Q c #C719C719C719",
"! c #C82FC82FC82F",
"~ c #CA05CA05CA05",
"^ c #CF3CCF3CCF3C",
"/ c #D04CD04CD04C",
"( c #D1A2D1A2D1A2",
") c #D2FAD2FAD2FA",
"_ c #D75BD75BD75B",
"` c #DF7DDF7DDF7D",
"' c #E57CE57CE57C",
"] c #E69EE69EE69E",
"[ c #E79DE79DE79D",
"{ c #EC67EC67EC67",
"} c #EFBEEFBEEFBE",
/* pixels */
"hhhhhhhhhhhhhhhhh  hhhhhhhhhhhhhhhhh",
"hhhhhhhhhhhhhhhhh  hhhhhhhhhhhhhhhhh",
"hhhhhhhhhhhhhh^^QQQ^_^hhhhhhhhhhhhhh",
"hhhhhhhhhhh^Q^^^^^^____^_hhhhhhhhhhh",
"hhhhhhhhh^Q^^^^^^^_______^^hhhhhhhhh",
"hhhhhhhh^QQ^^^^^^___````__^^hhhhhhhh",
"hhhhhhh^QQQQ^^^^^__```````__^hhhhhhh",
"hhhhhh^QQQQQ^^^^__```[[[[``__^hhhhhh",
"hhhhh^QQQQQQQ^^^__``[[[[[[```_^hhhhh",
"hhhh^QQQQQLgwsC/_krrriiiirrF``_^hhhh",
"hhhh^QQQTl   + 2_:        +c``__hhhh",
"hhh^QQQYb       g:         b``__^hhh",
"hhhQQQQY#  wJc   TLTT~~~ +='``___hhh",
"hhhQYYYC   QQQ$  Q``[}[%  /[``___hhh",
"hhJYYYYk +5lwaM^^__`[[k  M[[``__^Qhh",
"hhJJJJJr++     :T/_``/  &'[``___^Qhh",
"hhJJJJJ8  + & ++,^__`5  L````__/^Qhh",
"  SJJJJ0  +FYL   J^_Y  *```___^/^Q  ",
"  SSSSJr++pYYQ2  b^^0+ V______^^QQ  ",
"hhSSSSJx +8YYY=  m^~   /____^^^^QQhh",
"hhSSSSSS   lFs   JQV  3^^^^^^^^^QQhh",
"hhSSSSSSr       0~Q5+ M^^^^^^^^QQQhh",
"hhhSSSSSS< +   3LQQ   JQ^^^^^^^^Qhhh",
"hhhSSSSSSJMi3gVYYYQ080QQQQQQQ^^^^hhh",
"hhhSSSSSSSJJJJYYYYYYQQQQQQQQQ^^^^hhh",
"hhhhSSSSSSSJJJJJYYYYYQQQQQQQQ^^^hhhh",
"hhhhJSSSSSSJJJJJJYYYYYYYYYQQQ^^^hhhh",
"hhhhhSSSSSSSSJJJJJYYYYYYYYQQ^^^hhhhh",
"hhhhhhSSSSSSSSJJJJJJJJJYYYQQ^^hhhhhh",
"hhhhhhhSSSSSSSSSSJJJJJJJYYQQ^hhhhhhh",
"hhhhhhhhSSSSSSSSSSSJJJJJYYQQhhhhhhhh",
"hhhhhhhhhSSSSSSSSSSSJJJJYYQhhhhhhhhh",
"hhhhhhhhhhhSSSSSSSSSSJJYJhhhhhhhhhhh",
"hhhhhhhhhhhhhhSSSSSSJJhhhhhhhhhhhhhh",
"hhhhhhhhhhhhhhhhh  hhhhhhhhhhhhhhhhh",
"hhhhhhhhhhhhhhhhh  hhhhhhhhhhhhhhhhh"
};
