/* XPM */
static char *wmoku-0-LB-H[] = {
/* columns rows colors chars-per-pixel */
"36 36 38 1",
"  c black",
". c #0CC70CC70CC7",
"X c #0DDE0DDE0DDE",
"o c #14DC14DC14DC",
"O c #186318631863",
"+ c #196D196D196D",
"@ c #1A771A771A77",
"# c #1F3A1F3A1F3A",
"$ c #207320732073",
"% c #21AD21AD21AD",
"& c #4FFF4FFF4FFF",
"* c #538E538E538E",
"= c #571C571C571C",
"- c #5A475A475A47",
"; c #5AAA5AAA5AAA",
": c #5E2B5E2B5E2B",
"> c #61F661F661F6",
", c #655565556555",
"< c #6D7A6D7A6D7A",
"1 c #E79DB2CA4924",
"2 c #AEBAAEBAAEBA",
"3 c #B6DAB6DAB6DA",
"4 c #BAA9BAA9BAA9",
"5 c #BEFBBEFBBEFB",
"6 c #C248C248C248",
"7 c #C3A3C3A3C3A3",
"8 c #C71BC71BC71B",
"9 c #C9E6C9E6C9E6",
"0 c #CD6ACD6ACD6A",
"q c #CF3CCF3CCF3C",
"w c #D185D185D185",
"e c #D75CD75CD75C",
"r c #D923D923D923",
"t c #DF7DDF7DDF7D",
"y c #E0C2E0C2E0C2",
"u c #E394E394E394",
"i c #E79DE79DE79D",
"p c #EFBEEFBEEFBE",
/* pixels */
"11111111111111111  11111111111111111",
"11111111111111111  11111111111111111",
"11111111111111qq888qeq11111111111111",
"11111111111q8qqqqqqeeeeqe11111111111",
"111111111q8qqqqqqqeeeeeeeqq111111111",
"11111111q88qqqqqqeeetttteeqq11111111",
"1111111q8888qqqqqeettttttteeq1111111",
"111111q88888qqqqeetttiiiitteeq111111",
"11111q888888==,qeett<,,uiittteq11111",
"1111q8888888 X qeeti   tpiittteq1111",
"1111q8885888 + 9eeti   uppiittee1111",
"111q88855888 + qeeti   tppiitteeq111",
"111888855588 + qeeti   tpppitteee111",
"111855555588 + qeett   uppiitteee111",
"113555555558 + qqeet   upiiitteeq811",
"113333355555 o ###%%   riiitteeeq811",
"113333355555           ritttteeqq811",
"  2333335555 + *=;;;   wttteeeqqq8  ",
"  2222333555 + 88qww   9eeeeeeqq88  ",
"112222333356 + 888qw   9eeeeqqqq8811",
"112222233355 + 8888q   6qqqqqqqq8811",
"112222223335 o 58888   6qqqqqqq88811",
"111222222333 X 55888   4qqqqqqqq8111",
"111222222333**=55588;==888888qqqq111",
"11122222223333555555888888888qqqq111",
"11112222222333335555588888888qqq1111",
"11113222222333333555555555888qqq1111",
"1111122222222333335555555588qqq11111",
"1111112222222233333333355588qq111111",
"1111111222222222233333335588q1111111",
"111111112222222222233333558811111111",
"111111111222222222223333558111111111",
"111111111112222222222335311111111111",
"111111111111112222223311111111111111",
"11111111111111111  11111111111111111",
"11111111111111111  11111111111111111"
};
