/* XPM */
static char *wmoku-0-LB-355[] = {
/* columns rows colors chars-per-pixel */
"36 36 137 2",
"   c #000E000E000E",
".  c #019D019D019D",
"X  c #027101E200C5",
"o  c #039A02C80123",
"O  c #027502750275",
"+  c #037003700370",
"@  c #048804880488",
"#  c #056905690569",
"$  c #065706570657",
"%  c #0E270E270E27",
"&  c #16DB16DB16DB",
"*  c #17B817B817B8",
"=  c #1B281B281B28",
"-  c #1F681F681F68",
";  c #205720572057",
":  c #220722072207",
">  c #244024402440",
",  c #259925992599",
"<  c #26CB26CB26CB",
"1  c #29EB29EB29EB",
"2  c #2D4B2D4B2D4B",
"3  c #2F8D2F8D2F8D",
"4  c #343034303430",
"5  c #35FC35FC35FC",
"6  c #389538953895",
"7  c #394539453945",
"8  c #3A943A943A94",
"9  c #3C993C993C99",
"0  c #3DE23DE23DE2",
"q  c #3F3D3F3D3F3D",
"w  c #402740274027",
"e  c #431433C7152E",
"r  c #6DB554AF22A5",
"t  c #431A431A431A",
"y  c #442544254425",
"u  c #456E456E456E",
"i  c #472F472F472F",
"p  c #487F487F487F",
"a  c #4E2F4E2F4E2F",
"s  c #4ED64ED64ED6",
"d  c #4FFF4FFF4FFF",
"f  c #517251725172",
"g  c #538E538E538E",
"h  c #5AE65AE65AE6",
"j  c #5C005C005C00",
"k  c #5C815C815C81",
"l  c #5E035E035E03",
"z  c #5E635E635E63",
"x  c #5FE65FE65FE6",
"c  c #611861186118",
"v  c #61C761C761C7",
"b  c #631163116311",
"n  c #655065506550",
"m  c #662966296629",
"M  c #674867486748",
"N  c #694269426942",
"B  c #6A556A556A55",
"V  c #6D026D026D02",
"C  c #711971197119",
"Z  c #71CF71CF71CF",
"A  c #744774477447",
"S  c #791B791B791B",
"D  c #7FC07FC07FC0",
"F  c #88C069902B2F",
"G  c #956673542F2E",
"H  c #9CA078E73176",
"J  c #ACC2855B368E",
"K  c #B8228E233A26",
"L  c #BD9192553BDD",
"P  c #DE38AB8A462D",
"I  c #E0F8ADA9470B",
"U  c #E460B04A481E",
"Y  c #E79DB2CA4924",
"T  c #813581358135",
"R  c #836083608360",
"E  c #841684168416",
"W  c #862886288628",
"Q  c #888288828882",
"!  c #89F189F189F1",
"~  c #8BF38BF38BF3",
"^  c #8D0C8D0C8D0C",
"/  c #8DC38DC38DC3",
"(  c #8F1A8F1A8F1A",
")  c #8FCE8FCE8FCE",
"_  c #918991899189",
"`  c #92B792B792B7",
"'  c #942094209420",
"]  c #94EA94EA94EA",
"[  c #973497349734",
"{  c #980798079807",
"}  c #998C998C998C",
"|  c #99B899B899B8",
" . c #9AA59AA59AA5",
".. c #9C879C879C87",
"X. c #9F1D9F1D9F1D",
"o. c #A243A243A243",
"O. c #A2DAA2DAA2DA",
"+. c #A747A747A747",
"@. c #A93BA93BA93B",
"#. c #ABC4ABC4ABC4",
"$. c #AD51AD51AD51",
"%. c #ADD4ADD4ADD4",
"&. c #AEBDAEBDAEBD",
"*. c #B155B155B155",
"=. c #B1F3B1F3B1F3",
"-. c #B37BB37BB37B",
";. c #B3E1B3E1B3E1",
":. c #B574B574B574",
">. c #B5F7B5F7B5F7",
",. c #B6DAB6DAB6DA",
"<. c #B838B838B838",
"1. c #B8FFB8FFB8FF",
"2. c #BA9DBA9DBA9D",
"3. c #BB29BB29BB29",
"4. c #BD2DBD2DBD2D",
"5. c #BEA0BEA0BEA0",
"6. c #BEFABEFABEFA",
"7. c #C08DC08DC08D",
"8. c #C166C166C166",
"9. c #C20EC20EC20E",
"0. c #C336C336C336",
"q. c #C62CC62CC62C",
"w. c #C71BC71BC71B",
"e. c #C9AAC9AAC9AA",
"r. c #CF3CCF3CCF3C",
"t. c #D32BD32BD32B",
"y. c #D550D550D550",
"u. c #D674D674D674",
"i. c #D75CD75CD75C",
"p. c #D935D935D935",
"a. c #DE93DE93DE93",
"s. c #DF7DDF7DDF7D",
"d. c #E57DE57DE57D",
"f. c #E6A4E6A4E6A4",
"g. c #E79DE79DE79D",
"h. c #EEA9EEA9EEA9",
"j. c #EFBEEFBEEFBE",
/* pixels */
"Y Y Y Y Y Y Y Y Y Y Y Y Y Y Y Y Y     Y Y Y Y Y Y Y Y Y Y Y Y Y Y Y Y Y ",
"Y Y Y Y Y Y Y Y Y Y Y Y Y Y Y Y Y     Y Y Y Y Y Y Y Y Y Y Y Y Y Y Y Y Y ",
"Y Y Y Y Y Y Y Y Y Y Y Y Y Y r.r.w.w.w.r.i.r.Y Y Y Y Y Y Y Y Y Y Y Y Y Y ",
"Y Y Y Y Y Y Y Y Y Y Y r.w.r.r.r.r.r.r.i.i.i.i.r.i.Y Y Y Y Y Y Y Y Y Y Y ",
"Y Y Y Y Y Y Y Y Y r.w.r.r.r.r.r.r.r.i.i.i.i.i.i.i.r.r.Y Y Y Y Y Y Y Y Y ",
"Y Y Y Y Y Y Y Y r.w.w.r.r.r.r.r.r.i.i.i.s.s.s.s.i.i.r.r.Y Y Y Y Y Y Y Y ",
"Y Y Y Y Y Y Y r.w.w.w.w.r.r.r.r.r.i.i.s.s.s.s.s.s.s.i.i.r.Y Y Y Y Y Y Y ",
"Y Y Y Y Y Y r.w.w.w.w.w.r.r.r.r.i.i.s.s.s.g.g.g.g.s.s.i.i.r.Y Y Y Y Y Y ",
"Y Y Y Y Y r.w.w.w.w.w.w.w.r.r.r.i.i.s.s.g.g.g.g.g.g.s.s.s.i.r.Y Y Y Y Y ",
"Y Y Y I } V N / 6.w.w.w.w.} h h k k v n n } j.j.*.n n v v v k h G Y Y Y ",
"Y Y K     +       / w.w.w.s               i j.j.h               e Y Y Y ",
"Y Y     #     #     <.w.w.=               i h.h.-               q Y Y Y ",
"Y J       *.*.%     ! w.w.      ,.*.<.w.6.i.j.h.      7.<.<.*.,.7.Y Y Y ",
"Y F   # Z 7.6.Z $   k w.6.    ; i.i.s.s.g.h.j.g.    < g.d.s.i.i.i.Y Y Y ",
"Y r     D 6.6.j # # Z w.&.    g 5 < k } g.g.g.i.    k q < k ' i.r.w.Y Y ",
"Y Y ,.,.{ = #       *.7.{     #         & i.g.*.    #         & 6.w.Y Y ",
"Y Y ,.,.!         < #.6.S #     p q   # # 2 s./ #     s t   #   1 w.Y Y ",
"    &.,.o.s t #       <.R 5 5 *.r.r.7.      7.} 8 q w.i.i.e.      &.    ",
"    i i / &.,.,.;     ' 6.w.e.w.w.r.r.i     { i.i.i.i.i.i.i.i     !     ",
"Y r   # v &.,.,.8     E       7.w.w.r.1     o.      t.i.r.r.1     X.Y Y ",
"Y H       { o.E       +.<     h *.*.S       7.1     k 6.<.S       <.Y Y ",
"Y P     #         # 2 6.'     #           Z r.X.    #           V w.Y Y ",
"Y Y L             2 &.,.6.R             n w.w.w.'             N w.Y Y Y ",
"Y Y Y #.E k g Z ' ,.,.,.,.6.,.! n v / *.w.w.w.w.w.6./ N n ' <.t.r.Y Y Y ",
"Y Y Y &.&.&.&.&.&.&.,.,.,.,.6.6.6.6.6.6.w.w.w.w.w.w.w.w.w.r.r.r.r.Y Y Y ",
"Y Y Y Y &.&.&.&.&.&.&.,.,.,.,.,.6.6.6.6.6.w.w.w.w.w.w.w.w.r.r.r.Y Y Y Y ",
"Y Y Y Y ,.&.&.&.&.&.&.,.,.,.,.,.,.6.6.6.6.6.6.6.6.6.w.w.w.r.r.r.Y Y Y Y ",
"Y Y Y Y Y &.&.&.&.&.&.&.&.,.,.,.,.,.6.6.6.6.6.6.6.6.w.w.r.r.r.U Y Y Y Y ",
"Y Y Y Y Y Y &.&.&.&.&.&.&.&.,.,.,.,.,.,.,.,.,.6.6.6.w.w.r.r.Y Y Y Y Y Y ",
"Y Y Y Y Y Y Y &.&.&.&.&.&.&.&.&.&.,.,.,.,.,.,.,.6.6.w.w.r.Y Y Y Y Y Y Y ",
"Y Y Y Y Y Y Y Y &.&.&.&.&.&.&.&.&.&.&.,.,.,.,.,.6.6.w.w.Y Y Y Y Y Y Y Y ",
"Y Y Y Y Y Y Y Y Y &.&.&.&.&.&.&.&.&.&.&.,.,.,.,.6.6.w.Y Y Y Y Y Y Y Y Y ",
"Y Y Y Y Y Y Y Y Y Y Y &.&.&.&.&.&.&.&.&.&.,.,.6.,.Y Y Y Y Y Y Y Y Y Y Y ",
"Y Y Y Y Y Y Y Y Y Y Y Y Y Y &.&.&.&.&.&.,.,.Y Y Y Y Y Y Y Y Y Y Y Y Y Y ",
"Y Y Y Y Y Y Y Y Y Y Y Y Y Y Y Y Y     Y Y Y Y Y Y Y Y Y Y Y Y Y Y Y Y Y ",
"Y Y Y Y Y Y Y Y Y Y Y Y Y Y Y Y Y     Y Y Y Y Y Y Y Y Y Y Y Y Y Y Y Y Y "
};
