/* XPM */
static char *wmoku-0-LB-332[] = {
/* columns rows colors chars-per-pixel */
"36 36 142 2",
"   c #000B000B000B",
".  c #018F018F018F",
"X  c #027101E200C5",
"o  c #039A02C80123",
"O  c #027A027A027A",
"+  c #037C037C037C",
"@  c #046704670467",
"#  c #056C056C056C",
"$  c #066206620662",
"%  c #0ABE0ABE0ABE",
"&  c #0E270E270E27",
"*  c #108D108D108D",
"=  c #191C191C191C",
"-  c #1B2A1B2A1B2A",
";  c #1EC91EC91EC9",
":  c #1FFB1FFB1FFB",
">  c #220722072207",
",  c #257525752575",
"<  c #269126912691",
"1  c #2BD62BD62BD6",
"2  c #2DEA2DEA2DEA",
"3  c #2F8D2F8D2F8D",
"4  c #338033803380",
"5  c #35BE35BE35BE",
"6  c #394539453945",
"7  c #3B003B003B00",
"8  c #3D663D663D66",
"9  c #402740274027",
"0  c #6DB554AF22A5",
"q  c #40E740E740E7",
"w  c #41EE41EE41EE",
"e  c #472C472C472C",
"r  c #48B548B548B5",
"t  c #4FFF4FFF4FFF",
"y  c #511A511A511A",
"u  c #517251725172",
"i  c #562E562E562E",
"p  c #571C571C571C",
"a  c #590659065906",
"s  c #5AC05AC05AC0",
"d  c #5C295C295C29",
"f  c #5CD35CD35CD3",
"g  c #5E1E5E1E5E1E",
"h  c #5E8A5E8A5E8A",
"j  c #601D601D601D",
"k  c #621A621A621A",
"l  c #672A672A672A",
"z  c #67C667C667C6",
"x  c #694269426942",
"c  c #6CF06CF06CF0",
"v  c #6DB96DB96DB9",
"b  c #711971197119",
"n  c #71F171F171F1",
"m  c #75B175B175B1",
"M  c #791B791B791B",
"N  c #7B107B107B10",
"B  c #7CFB7CFB7CFB",
"V  c #7DDA7DDA7DDA",
"C  c #7FC07FC07FC0",
"Z  c #88C069902B2F",
"A  c #95F273C02F5A",
"S  c #9CA078E73176",
"D  c #9D83799731BE",
"F  c #ACC2855B368E",
"G  c #B8228E233A26",
"H  c #BD9192553BDD",
"J  c #BDC6927E3BEE",
"K  c #C52C98343E44",
"L  c #DC23A9EE4584",
"P  c #DE38AB8A462D",
"I  c #E0F8ADA9470B",
"U  c #E460B04A481E",
"Y  c #E79DB2CA4924",
"T  c #810681068106",
"R  c #821A821A821A",
"E  c #82C782C782C7",
"W  c #842284228422",
"Q  c #862886288628",
"!  c #885388538853",
"~  c #89E989E989E9",
"^  c #8A9C8A9C8A9C",
"/  c #8BF38BF38BF3",
"(  c #8D218D218D21",
")  c #8DC38DC38DC3",
"_  c #8F608F608F60",
"`  c #8FD88FD88FD8",
"'  c #918991899189",
"]  c #921592159215",
"[  c #948794879487",
"{  c #949E949E949E",
"}  c #974B974B974B",
"|  c #981898189818",
" . c #9C4F9C4F9C4F",
".. c #9E6A9E6A9E6A",
"X. c #A189A189A189",
"o. c #A243A243A243",
"O. c #A314A314A314",
"+. c #A43DA43DA43D",
"@. c #A4C0A4C0A4C0",
"#. c #A66EA66EA66E",
"$. c #A709A709A709",
"%. c #A95CA95CA95C",
"&. c #AC04AC04AC04",
"*. c #AD0DAD0DAD0D",
"=. c #AEBBAEBBAEBB",
"-. c #B0AFB0AFB0AF",
";. c #B124B124B124",
":. c #B3D3B3D3B3D3",
">. c #B582B582B582",
",. c #B5F7B5F7B5F7",
"<. c #B6DCB6DCB6DC",
"1. c #B838B838B838",
"2. c #B915B915B915",
"3. c #B9D2B9D2B9D2",
"4. c #BB57BB57BB57",
"5. c #BCB4BCB4BCB4",
"6. c #BD8DBD8DBD8D",
"7. c #BEA9BEA9BEA9",
"8. c #BEFDBEFDBEFD",
"9. c #C093C093C093",
"0. c #C163C163C163",
"q. c #C281C281C281",
"w. c #C452C452C452",
"e. c #C5D2C5D2C5D2",
"r. c #C71BC71BC71B",
"t. c #C924C924C924",
"y. c #CC03CC03CC03",
"u. c #CD1FCD1FCD1F",
"i. c #CE3BCE3BCE3B",
"p. c #CF3ACF3ACF3A",
"a. c #D03AD03AD03A",
"s. c #D54BD54BD54B",
"d. c #D75BD75BD75B",
"f. c #D875D875D875",
"g. c #DDB8DDB8DDB8",
"h. c #DE0FDE0FDE0F",
"j. c #DF7DDF7DDF7D",
"k. c #E011E011E011",
"l. c #E602E602E602",
"z. c #E79DE79DE79D",
"x. c #EC02EC02EC02",
"c. c #EFBEEFBEEFBE",
/* pixels */
"Y Y Y Y Y Y Y Y Y Y Y Y Y Y Y Y Y     Y Y Y Y Y Y Y Y Y Y Y Y Y Y Y Y Y ",
"Y Y Y Y Y Y Y Y Y Y Y Y Y Y Y Y Y     Y Y Y Y Y Y Y Y Y Y Y Y Y Y Y Y Y ",
"Y Y Y Y Y Y Y Y Y Y Y Y Y Y p.p.r.r.r.p.d.p.Y Y Y Y Y Y Y Y Y Y Y Y Y Y ",
"Y Y Y Y Y Y Y Y Y Y Y p.r.p.p.p.p.p.p.d.d.d.d.p.d.Y Y Y Y Y Y Y Y Y Y Y ",
"Y Y Y Y Y Y Y Y Y p.r.p.p.p.p.p.p.p.d.d.d.d.d.d.d.p.p.Y Y Y Y Y Y Y Y Y ",
"Y Y Y Y Y Y Y Y p.r.r.p.p.p.p.p.p.d.d.d.j.j.j.j.d.d.p.p.Y Y Y Y Y Y Y Y ",
"Y Y Y Y Y Y Y p.r.r.r.r.p.p.p.p.p.d.d.j.j.j.j.j.j.j.d.d.p.Y Y Y Y Y Y Y ",
"Y Y Y Y Y Y p.r.r.r.r.r.p.p.p.a.d.d.k.j.j.z.z.z.z.j.j.d.d.p.Y Y Y Y Y Y ",
"Y Y Y Y Y a.r.r.r.r.r.r.r.p.p.a.d.d.j.k.z.z.z.z.z.z.k.k.k.d.p.Y Y Y Y Y ",
"Y Y Y I | v x ( 8.r.r.r.r.p.t.[ m n ..j.z.c.c.c.c.z.1.B k N &.p.Y Y Y Y ",
"Y Y G     +       ( r.r.r.O.            #.c.c.c.f.-   #   #   2 L Y Y Y ",
"Y Y     #     #     1.r.r.#   #     #     j.c.c.#   +         # 2 Y Y Y ",
"Y F       ;.;.&   + ! r.[       8.q.*     #.c.;.      8.a.[       K Y Y ",
"Y Z   # n 9.8.n #   d r.m   # N f.f.Q #   v c.n     #.z.j.j.7   # D Y Y ",
"Y 0     C 8.8.d # # n r.h     ^ p.f.l # # ^ z.i     r.z.j.j.5     | Y Y ",
"Y Y <.<.| - #       ;.9.r.r.r.*.; #       d.z.j.d.d.z.j.j.B       1.Y Y ",
"Y Y <.<.(         , %.q.r.r.t.|         2 t.j.z.z.j.k.%.%       E r.Y Y ",
"    *.<.O.u 8 #       1.8.r.r.*.d e #   #   d.j.k.t.8     #   ^ p.r.    ",
"    r e ( *.<.<.,     ] Q u u O.r.p.p.,     O.d.<.  # #   h 8.p.r.r.    ",
"Y 0   # k *.<.<.7     E d   # v r.r.p.q     ( p.      q 8.p.p.p.r.r.Y Y ",
"Y D       [ O.Q       %.E       %.1.]       <.B     x *.%.*.*.*.#.8.Y Y ",
"Y P     #           3 8.<.    #           5 p.;                   E Y Y ",
"Y Y J             2 *.<.8...            5 8.r.                  # A Y Y ",
"Y Y Y %.Q h u n ] <.<.<.<.8.1.] x d E #.r.r.r.h i d i i i d d d d J Y Y ",
"Y Y Y ;.*.-.*.-.;.*.<.1.<.<.8.8.8.8.8.8.r.r.r.r.r.r.r.r.r.p.p.p.a.Y Y Y ",
"Y Y Y Y ;.*.*.*.*.;.*.1.<.<.<.<.8.8.8.8.8.r.r.r.r.r.r.r.r.p.p.p.Y Y Y Y ",
"Y Y Y Y 1.*.;.*.*.*.*.1.<.<.<.<.<.8.8.8.8.8.8.8.8.8.r.r.r.p.p.p.Y Y Y Y ",
"Y Y Y Y Y -.*.;.;.*.;.*.*.1.<.<.<.<.8.8.8.8.8.8.8.8.r.r.p.p.p.Y Y Y Y Y ",
"Y Y Y Y Y Y *.-.;.*.;.;.;.*.<.1.<.<.<.<.<.<.<.8.8.8.r.r.p.p.Y Y Y Y Y Y ",
"Y Y Y Y Y Y Y *.*.*.*.*.*.;.*.*.*.<.<.<.<.<.<.<.8.8.r.r.p.Y Y Y Y Y Y Y ",
"Y Y Y Y Y Y Y Y *.;.;.*.*.;.*.;.;.*.*.1.<.<.<.<.8.8.r.r.Y Y Y Y Y Y Y Y ",
"Y Y Y Y Y Y Y Y Y ;.*.*.;.*.*.;.*.*.;.*.<.<.<.<.8.8.r.Y Y Y Y Y Y Y Y Y ",
"Y Y Y Y Y Y Y Y Y Y Y *.;.*.;.*.*.-.*.*.;.<.<.8.<.Y Y Y Y Y Y Y Y Y Y Y ",
"Y Y Y Y Y Y Y Y Y Y Y Y Y Y *.-.;.*.-.*.<.<.Y Y Y Y Y Y Y Y Y Y Y Y Y Y ",
"Y Y Y Y Y Y Y Y Y Y Y Y Y Y Y Y Y     Y Y Y Y Y Y Y Y Y Y Y Y Y Y Y Y Y ",
"Y Y Y Y Y Y Y Y Y Y Y Y Y Y Y Y Y     Y Y Y Y Y Y Y Y Y Y Y Y Y Y Y Y Y "
};
