/* XPM */
static char *wmoku-0-LB-s[] = {
/* columns rows colors chars-per-pixel */
"36 36 63 1",
"  c #000600060006",
". c #01AB01AB01AB",
"X c #031903190319",
"o c #048604860486",
"O c #054705470547",
"+ c #075407540754",
"@ c #087B087B087B",
"# c #092B092B092B",
"$ c #0B5B0B5B0B5B",
"% c #0C9D0C9D0C9D",
"& c #0D4B0D4B0D4B",
"* c #117C117C117C",
"= c #127212721272",
"- c #14E214E214E2",
"; c #16AA16AA16AA",
": c #17BC17BC17BC",
"> c #1D631D631D63",
", c #1FCF1FCF1FCF",
"< c #23CC23CC23CC",
"1 c #314E314E314E",
"2 c #460746074607",
"3 c #48DC48DC48DC",
"4 c #517351735173",
"5 c #52B352B352B3",
"6 c #56FF56FF56FF",
"7 c #58FB58FB58FB",
"8 c #5EED5EED5EED",
"9 c #6C4F6C4F6C4F",
"0 c #762476247624",
"q c #7A9A7A9A7A9A",
"w c #7D647D647D64",
"e c #7FD47FD47FD4",
"r c #E79DB2CA4924",
"t c #80BC80BC80BC",
"y c #822F822F822F",
"u c #83CE83CE83CE",
"i c #84DF84DF84DF",
"p c #881E881E881E",
"a c #949594959495",
"s c #988198819881",
"d c #99FF99FF99FF",
"f c #9C0B9C0B9C0B",
"g c #A41CA41CA41C",
"h c #A845A845A845",
"j c #A96CA96CA96C",
"k c #AD01AD01AD01",
"l c #AEBAAEBAAEBA",
"z c #B275B275B275",
"x c #B6DAB6DAB6DA",
"c c #B7CAB7CAB7CA",
"v c #BB41BB41BB41",
"b c #BC70BC70BC70",
"n c #BEFBBEFBBEFB",
"m c #C480C480C480",
"M c #C5BEC5BEC5BE",
"N c #C71BC71BC71B",
"B c #CEB9CEB9CEB9",
"V c #CF3CCF3CCF3C",
"C c #D75CD75CD75C",
"Z c #DF7DDF7DDF7D",
"A c #E69CE69CE69C",
"S c #E799E799E799",
"D c #EFBEEFBEEFBE",
/* pixels */
"rrrrrrrrrrrrrrrrr  rrrrrrrrrrrrrrrrr",
"rrrrrrrrrrrrrrrrr  rrrrrrrrrrrrrrrrr",
"rrrrrrrrrrrrrrVVNNNVCVrrrrrrrrrrrrrr",
"rrrrrrrrrrrVNVVVVVVCCCCVCrrrrrrrrrrr",
"rrrrrrrrrVNVVVVVVVCCCCCCCVVrrrrrrrrr",
"rrrrrrrrVNNVVVVVVCCCZZZZCCVVrrrrrrrr",
"rrrrrrrVNNNNVVVVVCCZZZZZZZCCVrrrrrrr",
"rrrrrrVNNNNNVVVVCCZZZSSSSZZCCVrrrrrr",
"rrrrrVNNNNNNNVVVCCZZSSSSSSZZZCVrrrrr",
"rrrrVNNNNNNNNVVVCCZSSDDDDSSZZZCVrrrr",
"rrrrVNNNnNNNNVVVCCZSSDDDDDSSZZCCrrrr",
"rrrVNNNnnNNNNVVVCCZSSDDDDDSSZZCCVrrr",
"rrrNNNNnnnNNNNVge8izSDDDDDDSZZCCCrrr",
"rrrNnnnnnnNNNx@   @ :SDDDDSSZZCCCrrr",
"rrxnnnnnnnnNN% =    :4SDDSSSZZCCVNrr",
"rrxxxxxnnnnnN % jNd = SSSSSZZCCCVNrr",
"rrxxxxxnnnnnN + 4dN0qeZSSZZZZCCVVNrr",
"  lxxxxxnnnnn2  @  %aCZZZZZCCCVVVN  ",
"  llllxxxnnnnNi:   @ iCCCCCCCCVVNN  ",
"rrllllxxxxnnn++4nf2 < VCCCCCVVVVNNrr",
"rrlllllxxxnnn , jne , VVVVVVVVVVNNrr",
"rrllllllxxxnn= =    +6VVVVVVVVVNNNrr",
"rrrllllllxxxnj    @ 1NNNVVVVVVVVNrrr",
"rrrllllllxxxxnni97ejNNNNNNNNNVVVVrrr",
"rrrlllllllxxxxnnnnnnNNNNNNNNNVVVVrrr",
"rrrrlllllllxxxxxnnnnnNNNNNNNNVVVrrrr",
"rrrrxllllllxxxxxxnnnnnnnnnNNNVVVrrrr",
"rrrrrllllllllxxxxxnnnnnnnnNNVVVrrrrr",
"rrrrrrllllllllxxxxxxxxxnnnNNVVrrrrrr",
"rrrrrrrllllllllllxxxxxxxnnNNVrrrrrrr",
"rrrrrrrrlllllllllllxxxxxnnNNrrrrrrrr",
"rrrrrrrrrlllllllllllxxxxnnNrrrrrrrrr",
"rrrrrrrrrrrllllllllllxxnxrrrrrrrrrrr",
"rrrrrrrrrrrrrrllllllxxrrrrrrrrrrrrrr",
"rrrrrrrrrrrrrrrrr  rrrrrrrrrrrrrrrrr",
"rrrrrrrrrrrrrrrrr  rrrrrrrrrrrrrrrrr"
};
