/* XPM */
static char *wmoku-0-LB-179[] = {
/* columns rows colors chars-per-pixel */
"36 36 108 2",
"   c #000B000B000B",
".  c #019001900190",
"X  c #029C029C029C",
"o  c #035503550355",
"O  c #04C304C304C3",
"+  c #054F054F054F",
"@  c #069906990699",
"#  c #072D072D072D",
"$  c #108710871087",
"%  c #19F819F819F8",
"&  c #1B9C1B9C1B9C",
"*  c #203C203C203C",
"=  c #230823082308",
"-  c #24F924F924F9",
";  c #254A254A254A",
":  c #26E626E626E6",
">  c #27CA27CA27CA",
",  c #28CF28CF28CF",
"<  c #2AD22AD22AD2",
"1  c #2DB72DB72DB7",
"2  c #3C4D3C4D3C4D",
"3  c #3DE63DE63DE6",
"4  c #428C428C428C",
"5  c #436543654365",
"6  c #461F461F461F",
"7  c #469646964696",
"8  c #4C6D4C6D4C6D",
"9  c #4FE74FE74FE7",
"0  c #51A451A451A4",
"q  c #52CB52CB52CB",
"w  c #538E538E538E",
"e  c #560A560A560A",
"r  c #56E656E656E6",
"t  c #57EB57EB57EB",
"y  c #5AAA5AAA5AAA",
"u  c #5BB15BB15BB1",
"i  c #5DF55DF55DF5",
"p  c #61C761C761C7",
"a  c #643164316431",
"s  c #655565556555",
"d  c #658665866586",
"f  c #6ED76ED76ED7",
"g  c #6FEC6FEC6FEC",
"h  c #726A726A726A",
"j  c #74BF74BF74BF",
"k  c #766476647664",
"l  c #795479547954",
"z  c #7B3B7B3B7B3B",
"x  c #7BA77BA77BA7",
"c  c #7D5D7D5D7D5D",
"v  c #E79DB2CA4924",
"b  c #80EA80EA80EA",
"n  c #83CC83CC83CC",
"m  c #853885388538",
"M  c #892289228922",
"N  c #89F189F189F1",
"B  c #8CEB8CEB8CEB",
"V  c #921792179217",
"C  c #92DF92DF92DF",
"Z  c #944294429442",
"A  c #94F194F194F1",
"S  c #95C295C295C2",
"D  c #98BA98BA98BA",
"F  c #9A399A399A39",
"G  c #9B539B539B53",
"H  c #9F599F599F59",
"J  c #A325A325A325",
"K  c #A496A496A496",
"L  c #A639A639A639",
"P  c #A88EA88EA88E",
"I  c #A948A948A948",
"U  c #AA91AA91AA91",
"Y  c #AC34AC34AC34",
"T  c #AD0BAD0BAD0B",
"R  c #AEBCAEBCAEBC",
"E  c #AFF3AFF3AFF3",
"W  c #B103B103B103",
"Q  c #B1DDB1DDB1DD",
"!  c #B2BCB2BCB2BC",
"~  c #B3D3B3D3B3D3",
"^  c #B6DAB6DAB6DA",
"/  c #B7D6B7D6B7D6",
"(  c #B978B978B978",
")  c #BA46BA46BA46",
"_  c #BC7FBC7FBC7F",
"`  c #BE66BE66BE66",
"'  c #BEFCBEFCBEFC",
"]  c #C126C126C126",
"[  c #C1DCC1DCC1DC",
"{  c #C30EC30EC30E",
"}  c #C524C524C524",
"|  c #C62DC62DC62D",
" . c #C71BC71BC71B",
".. c #CBC7CBC7CBC7",
"X. c #CE9CCE9CCE9C",
"o. c #CF3CCF3CCF3C",
"O. c #D1A2D1A2D1A2",
"+. c #D45CD45CD45C",
"@. c #D594D594D594",
"#. c #D6B1D6B1D6B1",
"$. c #D75DD75DD75D",
"%. c #DE87DE87DE87",
"&. c #DF7DDF7DDF7D",
"*. c #E0A7E0A7E0A7",
"=. c #E6ABE6ABE6AB",
"-. c #E79DE79DE79D",
";. c #ED8AED8AED8A",
":. c #EFBEEFBEEFBE",
/* pixels */
"v v v v v v v v v v v v v v v v v     v v v v v v v v v v v v v v v v v ",
"v v v v v v v v v v v v v v v v v     v v v v v v v v v v v v v v v v v ",
"v v v v v v v v v v v v v v o.o. . . .o.$.o.v v v v v v v v v v v v v v ",
"v v v v v v v v v v v o. .o.o.o.o.o.o.$.$.$.$.o.$.v v v v v v v v v v v ",
"v v v v v v v v v o. .o.o.o.o.o.o.o.$.$.$.$.$.$.$.o.o.v v v v v v v v v ",
"v v v v v v v v o. . .o.o.o.o.o.o.$.$.$.&.&.&.&.$.$.o.o.v v v v v v v v ",
"v v v v v v v o. . . . .o.o.o.o.o.$.$.&.&.&.&.&.&.&.$.$.o.v v v v v v v ",
"v v v v v v o. . . . . .o.o.o.o.$.$.&.&.&.-.-.-.-.&.&.$.$.o.v v v v v v ",
"v v v v v o. . . . . . . .o.o.o.$.$.&.&.-.-.-.-.-.-.*.&.&.$.o.v v v v v ",
"v v v v o. . .u r J  .l r u u u i i p d d _ :.:.:._ A d n  .$.o.v v v v ",
"v v v v o. .T   + b  .,                 + A :.*.6       +   g $.v v v v ",
"v v v o.) H & + + b  .,                   A :.6 +             D O.v v v ",
"v v v i         + c  .~ L L T T ^ ^   + ; :.'       ~ $.n       $.v v v ",
"v v v u         + l  . . . .o.o.O.$     O.:.V   + f -.-.*.;     ' v v v ",
"v v ^ U V V w   + l '  . . . .o.g     V -.-.k   + M -.-.&.w     D  .v v ",
"v v ^ ^ ^ ^ w   + c ' '  . . .)     % &.&.-.U     1 -.&.$.    + B  .v v ",
"v v ^ ^ ^ ^ w   + c ' '  . . .7 +   T $.&.&.$.      = w   +   + M  .v v ",
"    T ^ ^ ^ 8   + c ' ' _  .~     ; O.$.$.$.&.U   +     +       A  .    ",
"    T T T ~ 8   + l ' ' '  .u     H o.o.o.$.$.$. .c 3 1 g ;     L  .    ",
"v v ~ T T T w   + k ' ' ' )       ' o.o.o.o.U     7 $.$. .      _  .v v ",
"v v ~ T T T 8   + k _ ' _ A     8  . .O.O.o. .      L ) 5   + 3  . .v v ",
"v v T T ~ T 8   + k ) ' _ w +   A  . . . .o.o.8 +             ~  . .v v ",
"v v v ~ T T 8   + k ^ ^ _       T  . . . . . .' ,           H o. .v v v ",
"v v v T ~ T l 8 8 A ^ ^ ^ r w u _ '  . . . . . . .A g p B  .o.o.o.v v v ",
"v v v T T T T ~ T ~ ^ ^ ^ ^ _ ' ' ' ' '  . . . . . . . . .o.o.o.o.v v v ",
"v v v v ~ T T T T T T ^ ^ ^ ^ ^ ' ' ' ' '  . . . . . . . .O.o.o.v v v v ",
"v v v v ) T T ~ T ~ T ^ ^ ^ ^ ^ ^ ' ' ' ' ' ' ' _ '  . . .o.o.o.v v v v ",
"v v v v v T T T T T ~ T T ^ ^ ^ ^ ^ ' ' ' ' ' ' ' '  . .o.o.o.v v v v v ",
"v v v v v v T T ~ T T T T ~ ^ ^ ^ ^ ^ ^ ^ ^ ^ _ ' '  . .o.o.v v v v v v ",
"v v v v v v v ~ T T T ~ T T T T T ) ^ ^ ^ ^ ^ ^ ' _  . .o.v v v v v v v ",
"v v v v v v v v ~ T T ~ T ~ T ~ T T T ^ ^ ^ ^ ^ ' '  . .v v v v v v v v ",
"v v v v v v v v v T T T T T T T ~ T ~ T ^ ^ ^ ) ' '  .v v v v v v v v v ",
"v v v v v v v v v v v T T T ~ T T T ~ T ~ ^ ^ _ ^ v v v v v v v v v v v ",
"v v v v v v v v v v v v v v T T T ~ T T ^ ^ v v v v v v v v v v v v v v ",
"v v v v v v v v v v v v v v v v v     v v v v v v v v v v v v v v v v v ",
"v v v v v v v v v v v v v v v v v     v v v v v v v v v v v v v v v v v "
};
