/* XPM */
static char *wmoku-0-LB-241[] = {
/* columns rows colors chars-per-pixel */
"36 36 104 2",
"   c #000100010001",
".  c #017401740174",
"X  c #02DC02DC02DC",
"o  c #04F904F904F9",
"O  c #05C205C205C2",
"+  c #067B067B067B",
"@  c #09BA09BA09BA",
"#  c #0B640B640B64",
"$  c #0C690C690C69",
"%  c #0DBF0DBF0DBF",
"&  c #0EC50EC50EC5",
"*  c #0F760F760F76",
"=  c #11A411A411A4",
"-  c #166416641664",
";  c #187818781878",
":  c #1A771A771A77",
">  c #1B811B811B81",
",  c #1CA61CA61CA6",
"<  c #1DB81DB81DB8",
"1  c #1EF11EF11EF1",
"2  c #1F341F341F34",
"3  c #20B120B120B1",
"4  c #218821882188",
"5  c #22BC22BC22BC",
"6  c #267D267D267D",
"7  c #2A4C2A4C2A4C",
"8  c #2B302B302B30",
"9  c #2C702C702C70",
"0  c #33C833C833C8",
"q  c #344334433443",
"w  c #6EED55A02307",
"e  c #431943194319",
"r  c #45CA45CA45CA",
"t  c #47EB47EB47EB",
"y  c #4C714C714C71",
"u  c #4FFF4FFF4FFF",
"i  c #538E538E538E",
"p  c #570657065706",
"a  c #5AAA5AAA5AAA",
"s  c #5E1D5E1D5E1D",
"d  c #5E9A5E9A5E9A",
"f  c #613761376137",
"g  c #61C761C761C7",
"h  c #62C562C562C5",
"j  c #655565556555",
"k  c #69A469A469A4",
"l  c #6E1A6E1A6E1A",
"z  c #6F0E6F0E6F0E",
"x  c #6FF16FF16FF1",
"c  c #72FE72FE72FE",
"v  c #761F761F761F",
"b  c #78A778A778A7",
"n  c #7C397C397C39",
"m  c #7E087E087E08",
"M  c #BB5090973B27",
"N  c #DA92A8BA4506",
"B  c #E73EB2814906",
"V  c #E79DB2CA4924",
"C  c #811C811C811C",
"Z  c #821A821A821A",
"A  c #833F833F833F",
"S  c #878A878A878A",
"D  c #89E489E489E4",
"F  c #8D108D108D10",
"G  c #8F228F228F22",
"H  c #91E491E491E4",
"J  c #98AD98AD98AD",
"K  c #9CD29CD29CD2",
"L  c #9F769F769F76",
"P  c #A0F4A0F4A0F4",
"I  c #A385A385A385",
"U  c #A3E6A3E6A3E6",
"Y  c #A850A850A850",
"T  c #AB35AB35AB35",
"R  c #AE9AAE9AAE9A",
"E  c #AEBCAEBCAEBC",
"W  c #B162B162B162",
"Q  c #B1F9B1F9B1F9",
"!  c #B52DB52DB52D",
"~  c #B64AB64AB64A",
"^  c #B6DFB6DFB6DF",
"/  c #B8CBB8CBB8CB",
"(  c #BAA9BAA9BAA9",
")  c #BB2CBB2CBB2C",
"_  c #BE24BE24BE24",
"`  c #BEFBBEFBBEFB",
"'  c #C248C248C248",
"]  c #C3A3C3A3C3A3",
"[  c #C4A5C4A5C4A5",
"{  c #C71BC71BC71B",
"}  c #C9E6C9E6C9E6",
"|  c #CBA0CBA0CBA0",
" . c #CC39CC39CC39",
".. c #CCE3CCE3CCE3",
"X. c #CF3CCF3CCF3C",
"o. c #D185D185D185",
"O. c #D3F2D3F2D3F2",
"+. c #D75CD75CD75C",
"@. c #D923D923D923",
"#. c #DF7DDF7DDF7D",
"$. c #E0C2E0C2E0C2",
"%. c #E79EE79EE79E",
"&. c #EB91EB91EB91",
"*. c #EFBEEFBEEFBE",
/* pixels */
"V V V V V V V V V V V V V V V V V     V V V V V V V V V V V V V V V V V ",
"V V V V V V V V V V V V V V V V V     V V V V V V V V V V V V V V V V V ",
"V V V V V V V V V V V V V V X.X.{ { { X.+.X.V V V V V V V V V V V V V V ",
"V V V V V V V V V V V X.{ X.X.X.X.X.X.+.+.+.+.X.+.V V V V V V V V V V V ",
"V V V V V V V V V X.{ X.X.X.X.X.X.X.+.+.+.+.+.+.+.X.X.V V V V V V V V V ",
"V V V V V V V V X.{ { X.X.X.X.X.X.+.+.+.#.#.#.#.+.+.X.X.V V V V V V V V ",
"V V V V V V V X.{ { { { X.X.X.X.X.+.+.#.#.#.#.#.#.#.+.+.X.V V V V V V V ",
"V V V V V V X.{ { { { { X.X.X.X.+.+.#.#.#.%.%.%.%.#.#.+.+.X.V V V V V V ",
"V V V V V X.{ { { { { { { X.X.X.+.+.#.#.%.%.%.%.%.%.#.#.#.+.X.V V V V V ",
"V V V V X.^ C g g S ( { { X.X.X.+.+.^ j j %.*.*.*.%.( g k #.+.X.V V V V ",
"V V V V d       o o   C { X.X.X.+.|       %.*.*.*.*., =   #.+.+.V V V V ",
"V V V c   o o       &   I X.X.X.+.8       #.*.%.O.n   ,   #.+.+.X.V V V ",
"V V V       z W Y :   8 0 { X.X.v         %.%.        ,   #.+.+.+.V V V ",
"V V N   5   ` ` ` K   ,   { X.E   5       %.*.        ,   #.+.+.+.V V V ",
"V V I     8 ` ` ` G   5 o { { # o         @.%.^ ( W   ,   #.+.+.X.{ V V ",
"V V ^ Y Y E ^ ` U     = k { r     z       @.%.%.%.%.  ,   +.+.+.X.{ V V ",
"V V ^ ^ ^ ^ Y y     - & ` D   5 , X.      O.#.%.%.#.  ,   +.+.X.X.{ V V ",
"    E ^ ^ c     #   q W W   =   ( X.      | #.#.#.#.  ,   +.X.X.X.{     ",
"    E E 0   #   & F ` ` 9     , , ,       5 5 X.+.+.  :   +.X.X.{ {     ",
"V V E e   -   n ^ ^ ` ` 5                     | +.+.  :   X.X.X.{ { V V ",
"V V Y   -   G J J J K I C i i p a p       a a X.X.X.  :   X.X.X.{ { V V ",
"V V b   &                 ` ` ` { {       ' X.X.X.X.  :   X.X.{ { { V V ",
"B B w                 &   ` ` ` ` {       ( { { X.X.  &   X.X.X.{ V V V ",
"B B M u y y y y u u u u p ` ` ` ` ` d p p ' { { { { p p d X.X.X.X.V V V ",
"B B V E E E E E E E ^ ^ ^ ^ ` ` ` ` ` ` { { { { { { { { { X.X.X.X.V V V ",
"B B V V E E E E E E E ^ ^ ^ ^ ^ ` ` ` ` ` { { { { { { { { X.X.X.V V V V ",
"B V V V ^ E E E E E E ^ ^ ^ ^ ^ ^ ` ` ` ` ` ` ` ` ` { { { X.X.X.V V V V ",
"B V V V B E E E E E E E E ^ ^ ^ ^ ^ ` ` ` ` ` ` ` ` { { X.X.X.V V V V V ",
"V V V V V V E E E E E E E E ^ ^ ^ ^ ^ ^ ^ ^ ^ ` ` ` { { X.X.V V V V V V ",
"V V V V V V B E E E E E E E E E E ^ ^ ^ ^ ^ ^ ^ ` ` { { X.V V V V V V V ",
"V V V V V V V V E E E E E E E E E E E ^ ^ ^ ^ ^ ` ` { { V V V V V V V V ",
"V V V V V V V V V E E E E E E E E E E E ^ ^ ^ ^ ` ` { V V V V V V V V V ",
"V V V V V V V V V V V E E E E E E E E E E ^ ^ ` ^ V V V V V V V V V V V ",
"V V V V V V V V V V V V V V E E E E E E ^ ^ V V V V V V V V V V V V V V ",
"V V V V V V V V V V V V V V V V V     V V V V V V V V V V V V V V V V V ",
"V V V V V V V V V V V V V V V V V     V V V V V V V V V V V V V V V V V "
};
