/* XPM */
static char *wmoku-0-LB-292[] = {
/* columns rows colors chars-per-pixel */
"36 36 141 2",
"   c #000900090009",
".  c #018801880188",
"X  c #02B1021400D9",
"o  c #02AB02AB02AB",
"O  c #036703670367",
"+  c #0589044601BF",
"@  c #049704970497",
"#  c #056305630563",
"$  c #08C908C908C9",
"%  c #0ABE0ABE0ABE",
"&  c #184212B907A9",
"*  c #191C191C191C",
"=  c #1DE41DE41DE4",
"-  c #1FFB1FFB1FFB",
";  c #23BE1B970B49",
":  c #23E223E223E2",
">  c #24D224D224D2",
",  c #28BE28BE28BE",
"<  c #2A942A942A94",
"1  c #2C102C102C10",
"2  c #2DEA2DEA2DEA",
"3  c #2F472F472F47",
"4  c #323B323B323B",
"5  c #345234523452",
"6  c #356735673567",
"7  c #396039603960",
"8  c #3B003B003B00",
"9  c #3C893C893C89",
"0  c #3D663D663D66",
"q  c #534440471A4C",
"w  c #65554E382000",
"e  c #6BFC535B221A",
"r  c #6E29550922CA",
"t  c #40CA40CA40CA",
"y  c #41EE41EE41EE",
"u  c #466E466E466E",
"i  c #4C7D4C7D4C7D",
"p  c #4FFF4FFF4FFF",
"a  c #506550655065",
"s  c #51A451A451A4",
"d  c #562E562E562E",
"f  c #571C571C571C",
"g  c #576257625762",
"h  c #5AAA5AAA5AAA",
"j  c #5CD35CD35CD3",
"k  c #5EB05EB05EB0",
"l  c #5FF55FF55FF5",
"z  c #61F761F761F7",
"x  c #645D645D645D",
"c  c #67A067A067A0",
"v  c #6B1A6B1A6B1A",
"b  c #6BCE6BCE6BCE",
"n  c #6F176F176F17",
"m  c #720672067206",
"M  c #73E773E773E7",
"N  c #766476647664",
"B  c #78D278D278D2",
"V  c #7AB37AB37AB3",
"C  c #7BA77BA77BA7",
"Z  c #7D257D257D25",
"A  c #7DDA7DDA7DDA",
"S  c #7EEF7EEF7EEF",
"D  c #8CA86C932C6B",
"F  c #95F273C02F5A",
"G  c #9D83799731BE",
"H  c #AAE083E735F6",
"J  c #BDC6927E3BEE",
"K  c #C52C98343E44",
"L  c #D157A199421B",
"P  c #DC5FAA1C4597",
"I  c #E011ACF746C2",
"U  c #E402B0014800",
"Y  c #E602B18D48A2",
"T  c #E79DB2CA4924",
"R  c #80E780E780E7",
"E  c #82C782C782C7",
"W  c #83CC83CC83CC",
"Q  c #853885388538",
"!  c #876B876B876B",
"~  c #881588158815",
"^  c #896289628962",
"/  c #8AAE8AAE8AAE",
"(  c #8CD48CD48CD4",
")  c #8F938F938F93",
"_  c #90E690E690E6",
"`  c #91E491E491E4",
"'  c #947894789478",
"]  c #94C394C394C3",
"[  c #95D495D495D4",
"{  c #974C974C974C",
"}  c #98ED98ED98ED",
"|  c #9C019C019C01",
" . c #9D979D979D97",
".. c #9E219E219E21",
"X. c #9F769F769F76",
"o. c #A01FA01FA01F",
"O. c #A100A100A100",
"+. c #A31DA31DA31D",
"@. c #A65FA65FA65F",
"#. c #A6EBA6EBA6EB",
"$. c #A863A863A863",
"%. c #A927A927A927",
"&. c #AA05AA05AA05",
"*. c #AC5EAC5EAC5E",
"=. c #AD02AD02AD02",
"-. c #AEBAAEBAAEBA",
";. c #B0A0B0A0B0A0",
":. c #B0DFB0DFB0DF",
">. c #B3B7B3B7B3B7",
",. c #B551B551B551",
"<. c #B604B604B604",
"1. c #B6DBB6DBB6DB",
"2. c #B92AB92AB92A",
"3. c #B9D2B9D2B9D2",
"4. c #BB57BB57BB57",
"5. c #BC8BBC8BBC8B",
"6. c #BD3DBD3DBD3D",
"7. c #BEFFBEFFBEFF",
"8. c #C093C093C093",
"9. c #C163C163C163",
"0. c #C230C230C230",
"q. c #C530C530C530",
"w. c #C64BC64BC64B",
"e. c #C71BC71BC71B",
"r. c #C877C877C877",
"t. c #CC03CC03CC03",
"y. c #CD40CD40CD40",
"u. c #CE19CE19CE19",
"i. c #CF3BCF3BCF3B",
"p. c #D03AD03AD03A",
"a. c #D408D408D408",
"s. c #D54BD54BD54B",
"d. c #D75CD75CD75C",
"f. c #D8B0D8B0D8B0",
"g. c #DD9DDD9DDD9D",
"h. c #DF7DDF7DDF7D",
"j. c #E011E011E011",
"k. c #E602E602E602",
"l. c #E79DE79DE79D",
"z. c #EC02EC02EC02",
"x. c #EFA8EFA8EFA8",
/* pixels */
"T T T T T T T T T T T T T T T T T o o Y T T T T T T T T T T T T T T T T ",
"T T T T T T T T T T T T T T T T T o o Y T T T T T T T T T T T T T T T T ",
"T T T T T T T T T T T T T T i.i.e.e.e.i.d.i.T T T T T T T T T T T T T T ",
"T T T T T T T T T T T i.e.i.i.i.i.i.i.s.d.f.s.p.d.T T T T T T T T T T T ",
"T T T T T T T T T i.e.i.i.i.i.i.i.i.s.f.d.d.s.f.d.i.i.T T T T T T T T T ",
"T T T T T T T T i.e.e.i.i.i.i.i.i.s.f.s.j.j.h.h.d.d.i.i.T T T T T T T T ",
"T T T T T T T i.e.e.e.e.i.i.i.i.i.d.d.h.h.h.h.h.j.h.s.f.i.T T T T T T T ",
"T T T T T T i.e.e.e.e.e.i.i.i.i.s.f.j.j.h.l.l.l.l.h.j.d.d.i.T T T T T T ",
"T T T T Y i.e.e.e.e.e.e.e.i.i.i.s.s.h.h.k.z.k.z.l.l.h.h.h.s.p.T T T T T ",
"T T T T #.n d v X.e.e.e.e.i.i.$.^ x E t.k.x.x.x.x.k.4.S l N =.i.T T T T ",
"T T L & o o o @ o < 6.e.e.9.7 o o o o o C z.x.x.f.* o o o o o 2 P T T T ",
"T U + o o o o o o @ 1 e.e.7 @ o o o o o o $.x.z.@ @ o o o o o @ 2 T T T ",
"T H o o o +.4.S o o o $.+.o o o X.t.E o o o z.:.o o o 9.i.) o o o K Y T ",
"T r o o ^ 6.6.9.4 o o ! N o o x s.s.h.: o o p.n o o #.k.h.h.7 o o G Y Y ",
"T q o o +.6.6.6.2 o o [ x o o C i.s.s.s o o =.d o o e.k.h.h.4 o o [ T Y ",
"T I #.#.1.1.1.n o o o :.) o o > i.i.i.o o o X.j.s.p.k.h.h.C o o o 4.T Y ",
"Y Y 1.1.1.^ @ o o o C 6.6.o o o = i o o o o ) k.z.h.h.$.% o o o E e.Y Y ",
"o o =.#.4 o o o o S 6.9.6.[ o @ o o o o o o +.h.h.t.0 o o o o ! i.e.o o ",
"o o ) o o o o p #.6.9.6.6.t.4.n 7 2 v : o o :.s.1.o o @ o l 6.i.e.e.o o ",
"Y P o o o 6 #.1.1.1.6.6.} o o 0 e.e.9.o o o e.t.o o o 0 4.i.i.i.e.e.Y T ",
"Y D o o d ) ) [ } [ X.4.1.o o o X.=.0 o o 7 i.S o o c $.$.$.=.=.#.6.T T ",
"Y ; o o o o o o o o o C 6.u o o o o o o o 4.i.= o o o o o o o o o E T T ",
"Y o o o o o o o o o o N 9.4.> o o o o o [ e.e.o o o o o o o o o $ F T T ",
"Y e w i i i i i i p p [ 1.6.6.) v l ^ 6.e.e.e.l d d d d d g g g g J T T ",
"Y Y T =.-.-.-.-.:.=.4.1.1.1.6.6.9.6.6.9.e.e.e.e.e.e.e.e.e.i.i.i.p.T T T ",
"T T T T -.-.-.-.=.=.=.1.1.1.1.1.6.9.6.6.6.e.e.e.e.e.e.e.e.i.i.i.T T T T ",
"T T T T 1.-.-.-.=.:.=.4.1.1.1.1.1.9.6.9.9.6.9.6.6.9.e.e.e.i.i.i.T T T T ",
"T T T T T -.-.-.:.=.=.=.=.4.1.1.1.1.9.6.6.9.6.9.6.6.e.e.i.i.i.T T T T T ",
"T T T T T T -.-.=.:.=.:.:.=.1.1.1.1.1.1.1.1.1.6.9.6.e.e.i.i.T T T T T T ",
"T T T T T T T -.=.:.:.=.=.:.=.=.=.1.1.1.1.1.1.1.6.6.e.e.i.T T T T T T T ",
"T T T T T T T T :.=.=.:.:.=.=.:.=.:.=.4.1.1.1.1.9.6.e.e.T T T T T T T T ",
"T T T T T T T T T =.:.=.=.:.:.=.:.=.=.=.1.1.1.1.9.6.e.T T T T T T T T T ",
"T T T T T T T T T T T -.-.-.-.-.=.=.:.=.;.1.1.6.1.T T T T T T T T T T T ",
"T T T T T T T T T T T T T T -.-.=.=.=.;.1.1.T T T T T T T T T T T T T T ",
"T T T T T T T T T T T T T T T T Y o o T T T T T T T T T T T T T T T T T ",
"T T T T T T T T T T T T T T T T Y o o T T T T T T T T T T T T T T T T T "
};
