/* XPM */
static char *wmoku-0-LB-29[] = {
/* columns rows colors chars-per-pixel */
"36 36 106 2",
"   c #000700070007",
".  c #019601960196",
"X  c #02DC02DC02DC",
"o  c #04EF04EF04EF",
"O  c #05FF05FF05FF",
"+  c #06B506B506B5",
"@  c #097009700970",
"#  c #0A8C0A8C0A8C",
"$  c #0B620B620B62",
"%  c #0CAA0CAA0CAA",
"&  c #0D4D0D4D0D4D",
"*  c #0E5E0E5E0E5E",
"=  c #0F660F660F66",
"-  c #10CC10CC10CC",
";  c #179017901790",
":  c #198219821982",
">  c #1B761B761B76",
",  c #1DCC1DCC1DCC",
"<  c #1FB51FB51FB5",
"1  c #20F020F020F0",
"2  c #21A021A021A0",
"3  c #22F222F222F2",
"4  c #244224422442",
"5  c #26F326F326F3",
"6  c #28DE28DE28DE",
"7  c #2AB62AB62AB6",
"8  c #2B9B2B9B2B9B",
"9  c #2D552D552D55",
"0  c #315631563156",
"q  c #32D732D732D7",
"w  c #35FF35FF35FF",
"e  c #36B636B636B6",
"r  c #383438343834",
"t  c #453A453A453A",
"y  c #463846384638",
"u  c #46E846E846E8",
"i  c #47EB47EB47EB",
"p  c #4C714C714C71",
"a  c #4EC24EC24EC2",
"s  c #4FFF4FFF4FFF",
"d  c #533A533A533A",
"f  c #53A253A253A2",
"g  c #572F572F572F",
"h  c #581F581F581F",
"j  c #58E958E958E9",
"k  c #5A495A495A49",
"l  c #613761376137",
"z  c #62C562C562C5",
"x  c #657065706570",
"c  c #69F969F969F9",
"v  c #6DF56DF56DF5",
"b  c #6F0E6F0E6F0E",
"n  c #70BD70BD70BD",
"m  c #73A973A973A9",
"M  c #74D174D174D1",
"N  c #78A778A778A7",
"B  c #7C0B7C0B7C0B",
"V  c #7D807D807D80",
"C  c #E79DB2CA4924",
"Z  c #811C811C811C",
"A  c #83B483B483B4",
"S  c #863C863C863C",
"D  c #889B889B889B",
"F  c #8D318D318D31",
"G  c #8E708E708E70",
"H  c #931193119311",
"J  c #953995399539",
"K  c #99BC99BC99BC",
"L  c #9C5E9C5E9C5E",
"P  c #9F6A9F6A9F6A",
"I  c #A18AA18AA18A",
"U  c #A37EA37EA37E",
"Y  c #A668A668A668",
"T  c #A890A890A890",
"R  c #AAD4AAD4AAD4",
"E  c #ABDEABDEABDE",
"W  c #AE15AE15AE15",
"Q  c #AEBCAEBCAEBC",
"!  c #AFE0AFE0AFE0",
"~  c #B1FCB1FCB1FC",
"^  c #B2D2B2D2B2D2",
"/  c #B43AB43AB43A",
"(  c #B5A7B5A7B5A7",
")  c #B676B676B676",
"_  c #B6DCB6DCB6DC",
"`  c #B82CB82CB82C",
"'  c #B958B958B958",
"]  c #BDF9BDF9BDF9",
"[  c #BEFABEFABEFA",
"{  c #C2D0C2D0C2D0",
"}  c #C582C582C582",
"|  c #C6A0C6A0C6A0",
" . c #C71AC71AC71A",
".. c #CCD8CCD8CCD8",
"X. c #CE67CE67CE67",
"o. c #CF3BCF3BCF3B",
"O. c #D001D001D001",
"+. c #D3AED3AED3AE",
"@. c #D75DD75DD75D",
"#. c #DA84DA84DA84",
"$. c #DF7DDF7DDF7D",
"%. c #E28DE28DE28D",
"&. c #E420E420E420",
"*. c #E51BE51BE51B",
"=. c #E79DE79DE79D",
"-. c #EFBEEFBEEFBE",
/* pixels */
"C C C C C C C C C C C C C C C C C     C C C C C C C C C C C C C C C C C ",
"C C C C C C C C C C C C C C C C C     C C C C C C C C C C C C C C C C C ",
"C C C C C C C C C C C C C C o.o. . . .o.@.o.C C C C C C C C C C C C C C ",
"C C C C C C C C C C C o. .o.o.o.o.o.o.@.@.@.@.o.@.C C C C C C C C C C C ",
"C C C C C C C C C o. .o.o.o.o.o.o.o.@.@.@.@.@.@.@.o.o.C C C C C C C C C ",
"C C C C C C C C o. . .o.o.o.o.o.o.@.@.@.$.$.$.$.@.@.o.o.C C C C C C C C ",
"C C C C C C C o. . . . .o.o.o.o.o.@.@.$.$.$.$.$.$.$.@.@.o.C C C C C C C ",
"C C C C C C o. . . . . .o.o.o.o.@.@.$.$.$.=.=.=.=.$.$.@.@.o.C C C C C C ",
"C C C C C o. . . . . . . .o.o.o.@.@.$.$.=.=.=.=.=.=.$.$.$.@.o.C C C C C ",
"C C C C o. . . . ._ Z l l F { o.@.@.$.=.@.! B V ! =.=.$.$.$.@.o.C C C C ",
"C C C C o. . . .h       + +   D @.@.$.F       *   - O.=.$.$.@.@.C C C C ",
"C C C o. . . .c   +         *   ! @.U     -       2 * =.$.$.@.@.o.C C C ",
"C C C  . . . .      b ' ! :   8 r @.#   : h @.O.*     Y $.$.@.@.@.C C C ",
"C C C  .[ [ _   2    . . .U   <   @.  #   %.-.-.!   q y $.$.@.@.@.C C C ",
"C C _ [ [ [ R     8 [  . .J   2 + @.  :   %.=.-.O.  8   $.$.@.@.o. .C C ",
"C C _ _ _ _ _ ! ! _ [ [ R     - b o.      ' =.=.x   <   $.@.@.@.o. .C C ",
"C C _ _ _ _ _ [ [ { ! i     : *  .o.h   <   y 5     <   $.@.@.o.o. .C C ",
"    ! _ _ _ _ _ [ M     #   r ' o.o.o.q       #     2   @.@.o.o.o. .    ",
"    ! ! ! ! _ _ r   #   * H  . . .o.o.o.L g 2 y S   8 8 @.@.o.o. . .    ",
"C C R ! ! ! _ y   ;   Z [ [  . . . .:     _ o.@.y   2 n o.o.o.o. . .C C ",
"C C ! ! ! ! Y   ;   P P P P P Y R  .r   : a { L   +   ! o.o.o.o. . .C C ",
"C C ! ! ! R M   *                  .P     #       + f o.o.o.o. . . .C C ",
"C C C ! ! ! g                 #    . .M       *   f o.o.o.o.o.o. .C C C ",
"C C C R ! ! F i a a f a f f f f h [  . .' Z h M R  . . . .o.o.o.o.C C C ",
"C C C ! ! ! ! ! ! ! _ _ _ _ [ [ [ [ [ [  . . . . . . . . .o.o.o.o.C C C ",
"C C C C ! R R ! R ! ! _ _ _ _ _ [ [ [ [ [  . . . . . . . .o.o.o.C C C C ",
"C C C C _ ! ! ! ! ! ! _ _ _ _ _ _ [ [ [ [ [ [ [ [ [  . . .o.o.o.C C C C ",
"C C C C C ! R ! R ! ! ! R _ _ _ _ _ [ [ [ [ [ [ [ [  . .o.o.o.C C C C C ",
"C C C C C C ! R ! R ! R ! ! _ _ _ _ _ _ _ _ _ [ [ [  . .o.o.C C C C C C ",
"C C C C C C C ! ! ! ! ! ! R ! ! ! _ _ _ _ _ _ _ [ [  . .o.C C C C C C C ",
"C C C C C C C C R ! ! R ! R R ! ! R ! _ _ _ _ _ [ [  . .C C C C C C C C ",
"C C C C C C C C C ! ! ! ! ! ! ! ! ! ! ! _ _ _ _ [ [  .C C C C C C C C C ",
"C C C C C C C C C C C ! ! ! R ! ! ! ! ! ! ! _ [ _ C C C C C C C C C C C ",
"C C C C C C C C C C C C C C ! ! ! ! R ! _ _ C C C C C C C C C C C C C C ",
"C C C C C C C C C C C C C C C C C     C C C C C C C C C C C C C C C C C ",
"C C C C C C C C C C C C C C C C C     C C C C C C C C C C C C C C C C C "
};
