/* XPM */
static char *wmoku-0-LB-249[] = {
/* columns rows colors chars-per-pixel */
"36 36 141 2",
"   c #000400040004",
".  c #018501850185",
"X  c #0209019200A5",
"o  c #02DC02DC02DC",
"O  c #04EF04EF04EF",
"+  c #058605860586",
"@  c #069006900690",
"#  c #093109310931",
"$  c #0AA40AA40AA4",
"%  c #0BBB0BBB0BBB",
"&  c #0C790C790C79",
"*  c #0D5A0D5A0D5A",
"=  c #0EC50EC50EC5",
"-  c #0F6D0F6D0F6D",
";  c #104810481048",
":  c #11A411A411A4",
">  c #166416641664",
",  c #187818781878",
"<  c #197919791979",
"1  c #1ADC1ADC1ADC",
"2  c #1B5A1B5A1B5A",
"3  c #1CA51CA51CA5",
"4  c #1DD51DD51DD5",
"5  c #1E971E971E97",
"6  c #1F3D1F3D1F3D",
"7  c #205A205A205A",
"8  c #218821882188",
"9  c #228922892289",
"0  c #25AF25AF25AF",
"q  c #267D267D267D",
"w  c #27B727B727B7",
"e  c #2A4C2A4C2A4C",
"r  c #2B682B682B68",
"t  c #2C702C702C70",
"y  c #2F462F462F46",
"u  c #339633963396",
"i  c #344334433443",
"p  c #392F392F392F",
"a  c #65554E382000",
"s  c #69BB519E2163",
"d  c #6EED55A02307",
"f  c #41E741E741E7",
"g  c #431943194319",
"h  c #443144314431",
"j  c #450A450A450A",
"k  c #45CA45CA45CA",
"l  c #46FA46FA46FA",
"z  c #4C714C714C71",
"x  c #4EC24EC24EC2",
"c  c #4FFF4FFF4FFF",
"v  c #508850885088",
"b  c #533A533A533A",
"n  c #538E538E538E",
"m  c #56F956F956F9",
"M  c #581F581F581F",
"N  c #58E958E958E9",
"B  c #5A465A465A46",
"V  c #5AAA5AAA5AAA",
"C  c #5E525E525E52",
"Z  c #612861286128",
"A  c #61C761C761C7",
"S  c #62C562C562C5",
"D  c #655565556555",
"F  c #683B683B683B",
"G  c #6E1A6E1A6E1A",
"H  c #6F0E6F0E6F0E",
"J  c #6FF16FF16FF1",
"K  c #71AB71AB71AB",
"L  c #73A673A673A6",
"P  c #74FE74FE74FE",
"I  c #797A797A797A",
"U  c #7E087E087E08",
"Y  c #808463352896",
"T  c #9FEE7B743281",
"R  c #BB5090973B27",
"E  c #CF209FE44169",
"W  c #DA92A8BA4506",
"Q  c #DF7EAC854693",
"!  c #E73EB2814906",
"~  c #E79DB2CA4924",
"^  c #811C811C811C",
"/  c #821A821A821A",
"(  c #833F833F833F",
")  c #83C783C783C7",
"_  c #863C863C863C",
"`  c #870F870F870F",
"'  c #878A878A878A",
"]  c #89E489E489E4",
"[  c #8F228F228F22",
"{  c #91E491E491E4",
"}  c #937093709370",
"|  c #98AD98AD98AD",
" . c #9AE19AE19AE1",
".. c #9C5E9C5E9C5E",
"X. c #9CD29CD29CD2",
"o. c #9F769F769F76",
"O. c #9FC49FC49FC4",
"+. c #A0F4A0F4A0F4",
"@. c #A244A244A244",
"#. c #A3E6A3E6A3E6",
"$. c #A5B0A5B0A5B0",
"%. c #A838A838A838",
"&. c #A946A946A946",
"*. c #AB1BAB1BAB1B",
"=. c #AD49AD49AD49",
"-. c #AE62AE62AE62",
";. c #AEBFAEBFAEBF",
":. c #B1F9B1F9B1F9",
">. c #B2E2B2E2B2E2",
",. c #B5F4B5F4B5F4",
"<. c #B6D9B6D9B6D9",
"1. c #B82CB82CB82C",
"2. c #B90CB90CB90C",
"3. c #BAA9BAA9BAA9",
"4. c #BB2CBB2CBB2C",
"5. c #BD07BD07BD07",
"6. c #BE97BE97BE97",
"7. c #BEFABEFABEFA",
"8. c #C129C129C129",
"9. c #C248C248C248",
"0. c #C3A3C3A3C3A3",
"q. c #C4A5C4A5C4A5",
"w. c #C554C554C554",
"e. c #C71BC71BC71B",
"r. c #C9E6C9E6C9E6",
"t. c #CBA0CBA0CBA0",
"y. c #CC39CC39CC39",
"u. c #CCE8CCE8CCE8",
"i. c #CF3CCF3CCF3C",
"p. c #D05DD05DD05D",
"a. c #D185D185D185",
"s. c #D41ED41ED41E",
"d. c #D75CD75CD75C",
"f. c #D923D923D923",
"g. c #DA94DA94DA94",
"h. c #DE97DE97DE97",
"j. c #DF7DDF7DDF7D",
"k. c #E2CAE2CAE2CA",
"l. c #E394E394E394",
"z. c #E79DE79DE79D",
"x. c #EFBEEFBEEFBE",
/* pixels */
"~ ~ ~ ~ ~ ~ ~ ~ ~ ~ ~ ~ ~ ~ ~ ~ ~     ~ ~ ~ ~ ~ ~ ~ ~ ~ ~ ~ ~ ~ ~ ~ ~ ~ ",
"~ ~ ~ ~ ~ ~ ~ ~ ~ ~ ~ ~ ~ ~ ~ ~ ~     ~ ~ ~ ~ ~ ~ ~ ~ ~ ~ ~ ~ ~ ~ ~ ~ ~ ",
"~ ~ ~ ~ ~ ~ ~ ~ ~ ~ ~ ~ ~ ~ i.i.e.e.e.i.d.i.~ ~ ~ ~ ~ ~ ~ ~ ~ ~ ~ ~ ~ ~ ",
"~ ~ ~ ~ ~ ~ ~ ~ ~ ~ ~ i.e.i.i.i.i.i.i.d.d.d.d.i.d.~ ~ ~ ~ ~ ~ ~ ~ ~ ~ ~ ",
"~ ~ ~ ~ ~ ~ ~ ~ ~ i.e.i.i.i.i.i.i.i.d.d.d.d.d.d.d.i.i.~ ~ ~ ~ ~ ~ ~ ~ ~ ",
"~ ~ ~ ~ ~ ~ ~ ~ i.e.e.i.i.i.i.i.i.d.d.d.j.j.j.j.d.d.i.i.~ ~ ~ ~ ~ ~ ~ ~ ",
"~ ~ ~ ~ ~ ~ ~ i.e.e.e.e.i.i.i.i.i.d.d.j.j.j.j.j.j.j.d.d.i.~ ~ ~ ~ ~ ~ ~ ",
"~ ~ ~ ~ ~ ~ i.e.e.e.e.e.i.i.i.i.d.d.j.j.j.z.z.z.z.j.j.d.d.i.~ ~ ~ ~ ~ ~ ",
"~ ~ ~ ~ ~ i.e.e.e.e.e.e.e.i.i.i.d.d.j.j.z.z.z.z.z.z.j.j.j.g.i.~ ~ ~ ~ ~ ",
"~ ~ ~ ~ 7.( S S _ 2.e.e.e.i.i.i.d.;.S D j.x.x.x.x.g.%.P P %.s.i.! ! ~ ~ ",
"~ ~ ~ s       @ @   ) e.e.i.i.i.t.      g.x.x.x.}       $   = 7.! ! ~ ~ ",
"~ ~ Y   @         =   +.e.i.i.i.y       g.x.x.;.    ;       3 $ i.~ ~ ~ ",
"~ ~       J 2.%.,   e u e.e.i.K         g.x.x.$   3 N s.7.=      .~ ~ ~ ",
"~ W   9   7.7.7.X.  3   e.e.;.  9       g.x.x.  $   g.z.j.#.  y g ~ ~ ~ ",
"~ E     r 7.7.7.[   9 @ e.e.$ @         g.z.z.  ,   j.z.j.e.  w   e.~ ~ ",
"~ ~ %.%.;.<.<.#.    = D e.k     G       s.z.z.      <.j.j.C   3   e.~ ~ ",
"~ ~ <.<.2.%.k     > = <.]   9 3 i.      i.j.j.C   3   k w     ,   e.~ ~ ",
"    ;.<.K     $   u :.:.  ;   :.i.      t.d.j.j.u       $     9   e.    ",
"    ;.u   $   = _ 7.7.y     3 3 3       9 w i.g.g.X.N 9 k _   y w e.    ",
"~ ~ g   >   I <.<.<.7.9                     7.,     7.d.i.k   3 D e.~ ~ ",
"~ Q   >   } }  . . .X.( v v M M M       N N t.p   , v 7. .  @   %.t.~ ~ ",
"~ T   =                 7.7.7.7.e.      2.s.i.#.    $       @ v e.e.~ ~ ",
"! d                 =   7.7.7.7.7.      2.e.e.e.I       =   v i.e.~ ~ ~ ",
"! R a x z z x z x x x M <.7.7.7.7.N M M e.e.e.e.t.2.( N K :.i.i.i.~ ~ ~ ",
"! ! ~ ;.;.;.;.;.;.;.<.<.<.<.7.7.7.7.7.7.e.e.e.e.e.e.e.e.e.i.i.i.i.~ ~ ~ ",
"~ ~ ~ ~ ;.;.;.;.;.;.;.<.<.<.<.<.7.7.7.7.7.e.e.e.e.e.e.e.e.i.i.i.~ ~ ~ ~ ",
"~ ~ ~ ~ <.;.;.;.;.;.;.<.<.<.<.<.<.7.7.7.7.7.7.7.7.7.e.e.e.i.i.i.~ ~ ~ ~ ",
"~ ~ ~ ~ ! ;.;.;.;.;.;.;.;.<.<.<.<.<.7.7.7.7.7.7.7.7.e.e.i.i.i.~ ~ ~ ~ ~ ",
"~ ~ ~ ~ ! ~ ;.;.;.;.;.;.;.;.<.<.<.<.<.<.<.<.<.7.7.7.e.e.i.i.~ ~ ~ ~ ~ ~ ",
"~ ~ ~ ~ ~ ~ ! ;.;.;.;.;.;.;.;.;.;.<.<.<.<.<.<.<.7.7.e.e.i.~ ~ ~ ~ ~ ~ ~ ",
"~ ~ ~ ~ ~ ~ ~ ~ ;.;.;.;.;.;.;.;.;.;.;.<.<.<.<.<.7.7.e.e.~ ~ ~ ~ ~ ~ ~ ~ ",
"~ ~ ~ ~ ~ ~ ~ ~ ! ;.;.;.;.;.;.;.;.;.;.;.<.<.<.<.7.7.e.~ ~ ~ ~ ~ ~ ~ ~ ~ ",
"~ ~ ~ ~ ~ ~ ~ ~ ~ ~ ~ ;.;.;.;.;.;.;.;.;.;.<.<.7.<.~ ~ ~ ~ ~ ~ ~ ~ ~ ~ ~ ",
"~ ~ ~ ~ ~ ~ ~ ~ ~ ~ ~ ~ ~ ~ ;.;.;.;.;.;.<.<.~ ~ ~ ~ ~ ~ ~ ~ ~ ~ ~ ~ ~ ~ ",
"~ ~ ~ ~ ~ ~ ~ ~ ~ ~ ~ ~ ~ ~ ! ~ ~     ~ ~ ~ ~ ~ ~ ~ ~ ~ ~ ~ ~ ~ ~ ~ ~ ~ ",
"~ ~ ~ ~ ~ ~ ~ ~ ~ ~ ~ ~ ~ ~ ~ ~ ~     ~ ~ ~ ~ ~ ~ ~ ~ ~ ~ ~ ~ ~ ~ ~ ~ ~ "
};
