/* XPM */
static char *wmoku-0-LB-250[] = {
/* columns rows colors chars-per-pixel */
"36 36 145 2",
"   c #000900090009",
".  c #01A001A001A0",
"X  c #02B1021400D9",
"o  c #026F026F026F",
"O  c #034103410341",
"+  c #0589044601BF",
"@  c #049804980498",
"#  c #057D057D057D",
"$  c #063506350635",
"%  c #088408840884",
"&  c #184212B907A9",
"*  c #152E152E152E",
"=  c #17B817B817B8",
"-  c #1B261B261B26",
";  c #23BE1B970B49",
":  c #205720572057",
">  c #247C247C247C",
",  c #26CB26CB26CB",
"<  c #29CA29CA29CA",
"1  c #2A942A942A94",
"2  c #2BF82BF82BF8",
"3  c #2D082D082D08",
"4  c #2D4B2D4B2D4B",
"5  c #2F472F472F47",
"6  c #323B323B323B",
"7  c #343034303430",
"8  c #345234523452",
"9  c #35BD35BD35BD",
"0  c #389538953895",
"q  c #3E383E383E38",
"w  c #534440471A4C",
"e  c #65554E382000",
"r  c #6BFC535B221A",
"t  c #6E29550922CA",
"y  c #404440444044",
"u  c #431343134313",
"i  c #442544254425",
"p  c #456E456E456E",
"a  c #473447344734",
"s  c #487F487F487F",
"d  c #4C714C714C71",
"f  c #4ED64ED64ED6",
"g  c #4FFF4FFF4FFF",
"h  c #506550655065",
"j  c #538E538E538E",
"k  c #576257625762",
"l  c #58E958E958E9",
"z  c #5AAA5AAA5AAA",
"x  c #5BF15BF15BF1",
"c  c #5C815C815C81",
"v  c #5E2F5E2F5E2F",
"b  c #612561256125",
"n  c #61C761C761C7",
"m  c #631163116311",
"M  c #638963896389",
"N  c #655565556555",
"B  c #662966296629",
"V  c #671567156715",
"C  c #6B2A6B2A6B2A",
"Z  c #6BE56BE56BE5",
"A  c #6F176F176F17",
"S  c #718A718A718A",
"D  c #744774477447",
"F  c #756275627562",
"G  c #763776377637",
"H  c #78DB78DB78DB",
"J  c #7BF57BF57BF5",
"K  c #7D777D777D77",
"L  c #7E657E657E65",
"P  c #7EB87EB87EB8",
"I  c #7FD57FD57FD5",
"U  c #8CA86C932C6B",
"Y  c #AAE083E735F6",
"T  c #D157A199421B",
"R  c #D4C5A43E4331",
"E  c #DC9AAA4A45AA",
"W  c #E011ACF746C2",
"Q  c #E402B0014800",
"!  c #E602B18D48A2",
"~  c #E79DB2CA4924",
"^  c #80DF80DF80DF",
"/  c #81F281F281F2",
"(  c #836083608360",
")  c #843584358435",
"_  c #876B876B876B",
"`  c #87A787A787A7",
"'  c #896289628962",
"]  c #8A0B8A0B8A0B",
"[  c #8AAE8AAE8AAE",
"{  c #8CCE8CCE8CCE",
"}  c #8FEC8FEC8FEC",
"|  c #91E491E491E4",
" . c #92EE92EE92EE",
".. c #943594359435",
"X. c #950E950E950E",
"o. c #95EE95EE95EE",
"O. c #974D974D974D",
"+. c #981598159815",
"@. c #98E598E598E5",
"#. c #99B899B899B8",
"$. c #9AA59AA59AA5",
"%. c #9C819C819C81",
"&. c #9E0D9E0D9E0D",
"*. c #9F499F499F49",
"=. c #9FD69FD69FD6",
"-. c #A304A304A304",
";. c #A654A654A654",
":. c #A71EA71EA71E",
">. c #A863A863A863",
",. c #A93AA93AA93A",
"<. c #AD2DAD2DAD2D",
"1. c #AE9BAE9BAE9B",
"2. c #AEBBAEBBAEBB",
"3. c #B15FB15FB15F",
"4. c #B1F3B1F3B1F3",
"5. c #B37BB37BB37B",
"6. c #B3E0B3E0B3E0",
"7. c #B563B563B563",
"8. c #B5E9B5E9B5E9",
"9. c #B6DAB6DAB6DA",
"0. c #B91DB91DB91D",
"q. c #BA8FBA8FBA8F",
"w. c #BD3DBD3DBD3D",
"e. c #BE97BE97BE97",
"r. c #BEFBBEFBBEFB",
"t. c #C08DC08DC08D",
"y. c #C166C166C166",
"u. c #C1F1C1F1C1F1",
"i. c #C343C343C343",
"p. c #C66FC66FC66F",
"a. c #C71BC71BC71B",
"s. c #C89AC89AC89A",
"d. c #CC66CC66CC66",
"f. c #CE3CCE3CCE3C",
"g. c #CF3CCF3CCF3C",
"h. c #D550D550D550",
"j. c #D5FFD5FFD5FF",
"k. c #D75AD75AD75A",
"l. c #D935D935D935",
"z. c #DE93DE93DE93",
"x. c #DF7DDF7DDF7D",
"c. c #E6BDE6BDE6BD",
"v. c #E79DE79DE79D",
"b. c #EAEFEAEFEAEF",
"n. c #EFB3EFB3EFB3",
/* pixels */
"~ ~ ~ ~ ~ ~ ~ ~ ~ ~ ~ ~ ~ ~ ~ ~ ~ o o ! ~ ~ ~ ~ ~ ~ ~ ~ ~ ~ ~ ~ ~ ~ ~ ~ ",
"~ ~ ~ ~ ~ ~ ~ ~ ~ ~ ~ ~ ~ ~ ~ ~ ~ o o ! ~ ~ ~ ~ ~ ~ ~ ~ ~ ~ ~ ~ ~ ~ ~ ~ ",
"~ ~ ~ ~ ~ ~ ~ ~ ~ ~ ~ ~ ~ ~ g.g.a.a.a.g.k.g.~ ~ ~ ~ ~ ~ ~ ~ ~ ~ ~ ~ ~ ~ ",
"~ ~ ~ ~ ~ ~ ~ ~ ~ ~ ~ g.a.g.g.g.g.g.g.h.k.k.k.g.k.~ ~ ~ ~ ~ ~ ~ ~ ~ ~ ~ ",
"~ ~ ~ ~ ~ ~ ~ ~ ~ g.a.g.g.g.g.g.g.g.k.k.k.k.k.k.k.g.g.~ ~ ~ ~ ~ ~ ~ ~ ~ ",
"~ ~ ~ ~ ~ ~ ~ ~ g.a.a.g.g.g.g.g.g.h.k.k.x.x.x.x.k.k.g.g.~ ~ ~ ~ ~ ~ ~ ~ ",
"~ ~ ~ ~ ~ ~ ~ g.a.a.a.a.g.g.g.g.g.k.k.x.x.x.x.x.x.x.k.k.g.~ ~ ~ ~ ~ ~ ~ ",
"~ ~ ~ ~ ~ ~ g.a.a.a.a.a.g.g.g.g.h.l.x.x.x.v.v.v.v.x.x.k.k.g.~ ~ ~ ~ ~ ~ ",
"~ ~ ~ ~ ! g.a.a.a.a.a.a.a.g.g.g.h.h.z.z.v.v.v.v.v.v.z.z.z.h.g.~ ~ ~ ~ ~ ",
"~ ~ ~ ~ :.A k C *.a.a.a.a.+.z z c c M M B *.n.n.n.v.a.P M _ e.g.~ ~ ~ ~ ",
"~ ~ T & o o o o o 1 e.a.a.d o o o o o o o y n.n.n.B o O o o o P ~ ~ ~ ~ ",
"~ Q + o o o o o o @ 1 a.a.- o o o o o o o a n.n...o o o o o o o *.~ ~ ~ ",
"~ Y o o o -.0.P o o o ,.a.o o o 3.9.0.t.t.l.n.v.o o o ' d.c o o * ! ! ~ ",
"~ t o o ' e.e.e.6 o o _ e.o o - h.h.x.x.v.n.n.t.o o o v.z.h.o o o T ~ ~ ",
"~ w o o -.e.e.e.4 o o o.<.o o h 0 : c +.v.v.v.o.o o B v.x.x.: o o *.~ ~ ",
"~ W :.:.9.9.9.A o o o 3.o.o o o o o o o - h.v.G o @ I x.x.h.y o o { ~ ! ",
"! ! 9.9.9.' % o o o J e.J @ o o a q o o o 1 z.B o @ [ x.x.l.z o o I ~ ! ",
"o o <.:.6 o o @ o J e.e.I 6 9 3.g.g.t.o o o t.I o % J l.l.l.q o o | o o ",
"o o | o o o o d :.e.e.e.e.a.a.a.a.g.g.y o o o.o.o o c l.h.h.> o o :.o o ",
"! E o o o 9 :.9.9.9.e.e.o o o t.a.d.g.1 o o -.,.o o o h.g.a.o o o 9.! ~ ",
"! U o o k [ | o.o.o.*.0.> o o z 3.3.S o o o e.g.o o o ' a.C o o 2 a.~ ~ ",
"! ; o o o o o o o o o J | o o o o o o o o A g.g.P o o o o o o o *.a.~ ~ ",
"~ o o o o o o o o o o G e._ o o o o o o B a.a.a.g.G o o o o o | a.~ ~ ~ ",
"~ r e a d d a d a h d o.9.e.3.' M c [ 3.a.a.a.a.a.a.<._ k | 0.g.g.~ ~ ~ ",
"~ ~ ~ <.<.<.<.3.<.<.0.9.9.9.e.t.e.e.e.e.a.a.a.a.a.a.a.a.a.g.g.g.g.~ ~ ~ ",
"~ ~ ~ ~ <.3.<.<.3.<.<.0.9.9.9.9.e.e.t.e.e.a.a.a.a.a.a.a.a.g.g.g.~ ~ ~ ~ ",
"~ ~ ~ ~ 9.3.3.<.<.3.<.0.9.9.9.9.9.t.t.e.e.t.e.e.e.e.a.a.a.g.g.g.~ ~ ~ ~ ",
"~ ~ ~ ~ ~ <.<.3.<.3.<.<.<.9.9.9.9.9.e.e.e.e.t.e.e.e.a.a.g.g.g.~ ~ ~ ~ ~ ",
"~ ~ ~ ~ ~ ~ <.<.<.<.3.3.<.<.9.9.9.9.9.9.9.9.9.e.e.e.a.a.g.g.~ ~ ~ ~ ~ ~ ",
"~ ~ ~ ~ ~ ~ ~ 3.3.<.<.<.3.3.<.<.<.9.9.9.9.9.9.9.e.e.a.a.g.~ ~ ~ ~ ~ ~ ~ ",
"~ ~ ~ ~ ~ ~ ~ ~ <.3.<.<.<.3.<.3.3.<.<.0.9.9.9.9.e.e.a.a.~ ~ ~ ~ ~ ~ ~ ~ ",
"~ ~ ~ ~ ~ ~ ~ ~ ~ <.3.3.<.<.3.<.<.<.3.<.9.9.9.9.e.e.a.~ ~ ~ ~ ~ ~ ~ ~ ~ ",
"~ ~ ~ ~ ~ ~ ~ ~ ~ ~ ~ <.3.<.<.3.<.<.3.2.2.9.9.t.9.~ ~ ~ ~ ~ ~ ~ ~ ~ ~ ~ ",
"~ ~ ~ ~ ~ ~ ~ ~ ~ ~ ~ ~ ~ ~ <.<.<.<.<.2.9.9.~ ~ ~ ~ ~ ~ ~ ~ ~ ~ ~ ~ ~ ~ ",
"~ ~ ~ ~ ~ ~ ~ ~ ~ ~ ~ ~ ~ ~ ~ ~ ! o o ~ ~ ~ ~ ~ ~ ~ ~ ~ ~ ~ ~ ~ ~ ~ ~ ~ ",
"~ ~ ~ ~ ~ ~ ~ ~ ~ ~ ~ ~ ~ ~ ~ ~ ! o o ~ ~ ~ ~ ~ ~ ~ ~ ~ ~ ~ ~ ~ ~ ~ ~ ~ "
};
