/* XPM */
static char *wmoku-0-LB-114[] = {
/* columns rows colors chars-per-pixel */
"36 36 68 1",
"  c black",
". c #02C502C502C5",
"X c #03A503A503A5",
"o c #049B049B049B",
"O c #058405840584",
"+ c #062506250625",
"@ c #0A840A840A84",
"# c #1A7C1A7C1A7C",
"$ c #1DDB1DDB1DDB",
"% c #1F3A1F3A1F3A",
"& c #207320732073",
"* c #2EFC2EFC2EFC",
"= c #383E383E383E",
"- c #4C714C714C71",
"; c #4FFF4FFF4FFF",
": c #538E538E538E",
"> c #571C571C571C",
", c #57FB57FB57FB",
"< c #5AAA5AAA5AAA",
"1 c #5BB05BB05BB0",
"2 c #5CE35CE35CE3",
"3 c #5DE85DE85DE8",
"4 c #61C761C761C7",
"5 c #632463246324",
"6 c #662866286628",
"7 c #683168316831",
"8 c #766476647664",
"9 c #797E797E797E",
"0 c #7B3B7B3B7B3B",
"q c #7BB57BB57BB5",
"w c #E79DB2CA4924",
"e c #80E980E980E9",
"r c #862A862A862A",
"t c #86B186B186B1",
"y c #8B6D8B6D8B6D",
"u c #8E8E8E8E8E8E",
"i c #90B090B090B0",
"p c #922A922A922A",
"a c #95EC95EC95EC",
"s c #986498649864",
"d c #9E1E9E1E9E1E",
"f c #9F259F259F25",
"g c #A324A324A324",
"h c #A45BA45BA45B",
"j c #A5A4A5A4A5A4",
"k c #AA91AA91AA91",
"l c #AC0DAC0DAC0D",
"z c #AEBCAEBCAEBC",
"x c #B1D2B1D2B1D2",
"c c #B6DAB6DAB6DA",
"v c #B978B978B978",
"b c #BA18BA18BA18",
"n c #BDC6BDC6BDC6",
"m c #BEFBBEFBBEFB",
"M c #C10AC10AC10A",
"N c #C681C681C681",
"B c #C71BC71BC71B",
"V c #C9F2C9F2C9F2",
"C c #CB91CB91CB91",
"Z c #CE9CCE9CCE9C",
"A c #CF3CCF3CCF3C",
"S c #D439D439D439",
"D c #D75CD75CD75C",
"F c #DEA4DEA4DEA4",
"G c #DF7DDF7DDF7D",
"H c #E79AE79AE79A",
"J c #E98CE98CE98C",
"K c #EFBEEFBEEFBE",
/* pixels */
"wwwwwwwwwwwwwwwww  wwwwwwwwwwwwwwwww",
"wwwwwwwwwwwwwwwww  wwwwwwwwwwwwwwwww",
"wwwwwwwwwwwwwwAABBBADAwwwwwwwwwwwwww",
"wwwwwwwwwwwABAAAAAADDDDADwwwwwwwwwww",
"wwwwwwwwwABAAAAAAADDDDDDDAAwwwwwwwww",
"wwwwwwwwABBAAAAAADDDGGGGDDAAwwwwwwww",
"wwwwwwwABBBBAAAAADDGGGGGGGDDAwwwwwww",
"wwwwwwABBBBBAAAADDGGGHHHHGGDDAwwwwww",
"wwwwwABBBBBBBAAADDGGHHHHHHGGGDAwwwww",
"wwwwABBB1,gBBAAAD55mHKKKKHH75fDAwwww",
"wwwwABBl +qVBAAAv +aHKKKKKu  5DDwwww",
"wwwABvf$+@qBBAMj$++aHKKKKV   5DDAwww",
"wwwB3    +qVV3    +aHKKKH@   5DDDwww",
"wwwB,    +qBB3    +pHKKK7+ + 5DDDwww",
"wwcmkpp: +0BBxsf1 +pHHHl +=+ 5DDABww",
"wwccccc: +0mBBBA1 +uGHD   a+ 3DDABww",
"wwccccc: +qmBBBB1 +yGG*+ gu+ 3DAABww",
"  lcccc; +qmmBBB1 +yDq +3Gp+ 3AAAB  ",
"  lxllc; +0mmBBB, +rm   $&&+ &$0BB  ",
"wwlxlxc; +0mmmBB, +rM          1BBww",
"wwxllxl: +0mmmmB, +rV111111+ 11pBBww",
"wwlxxll; +8mmmmm, @qBAAAAAr+ 1ABBBww",
"wwwxlxl;  8cmmmm: +qBBBBAAr  1AABwww",
"wwwlxll0;;accmmmr:,gBBBBBBg,,pAAAwww",
"wwwxllxllxccccmmmmmmBBBBBBBBBAAAAwww",
"wwwwxllxxllvccccmmmmmBBBBBBBBAAAwwww",
"wwwwvlxllxlvcccccmmmmmmmmmBBBAAAwwww",
"wwwwwxlxxlxllvccccmmmmmmmmBBAAAwwwww",
"wwwwwwlxxlxxxlcccccccccmmmBBAAwwwwww",
"wwwwwwwllxlllxlxlcccccccmmBBAwwwwwww",
"wwwwwwwwxllxxlxllxlvccccmmBBwwwwwwww",
"wwwwwwwwwlxllxllxlxlccccmmBwwwwwwwww",
"wwwwwwwwwwwxllxlxlxllvcmcwwwwwwwwwww",
"wwwwwwwwwwwwwwlxlxlxcvwwwwwwwwwwwwww",
"wwwwwwwwwwwwwwwww  wwwwwwwwwwwwwwwww",
"wwwwwwwwwwwwwwwww  wwwwwwwwwwwwwwwww"
};
