/* XPM */
static char *wmoku-0-LB-174[] = {
/* columns rows colors chars-per-pixel */
"36 36 82 1",
"  c #000400040004",
". c #01AF01AF01AF",
"X c #028502850285",
"o c #03A503A503A5",
"O c #04B204B204B2",
"+ c #056E056E056E",
"@ c #065906590659",
"# c #0A840A840A84",
"$ c #112611261126",
"% c #1AB71AB71AB7",
"& c #1F3A1F3A1F3A",
"* c #207320732073",
"= c #230823082308",
"- c #288928892889",
"; c #2AD22AD22AD2",
": c #2EFC2EFC2EFC",
"> c #383E383E383E",
", c #49C449C449C4",
"< c #4C6B4C6B4C6B",
"1 c #4FE74FE74FE7",
"2 c #538E538E538E",
"3 c #560A560A560A",
"4 c #56F456F456F4",
"5 c #57F357F357F3",
"6 c #5AAA5AAA5AAA",
"7 c #5BA85BA85BA8",
"8 c #5CE35CE35CE3",
"9 c #5E175E175E17",
"0 c #61C761C761C7",
"q c #655565556555",
"w c #662866286628",
"e c #683168316831",
"r c #68E368E368E3",
"t c #766476647664",
"y c #76E676E676E6",
"u c #795479547954",
"i c #797E797E797E",
"p c #7B3B7B3B7B3B",
"a c #7BB57BB57BB5",
"s c #E79DB2CA4924",
"d c #80EA80EA80EA",
"f c #862A862A862A",
"g c #8E8E8E8E8E8E",
"h c #90B090B090B0",
"j c #922692269226",
"k c #942E942E942E",
"l c #94F194F194F1",
"z c #95E395E395E3",
"x c #983598359835",
"c c #9B539B539B53",
"v c #9D9E9D9E9D9E",
"b c #9F259F259F25",
"n c #A324A324A324",
"m c #A45BA45BA45B",
"M c #A641A641A641",
"N c #AA91AA91AA91",
"B c #AC44AC44AC44",
"V c #AD0BAD0BAD0B",
"C c #AEBCAEBCAEBC",
"Z c #B103B103B103",
"A c #B1DDB1DDB1DD",
"S c #B3D3B3D3B3D3",
"D c #B6DAB6DAB6DA",
"F c #B978B978B978",
"G c #BA7EBA7EBA7E",
"H c #BEA5BEA5BEA5",
"J c #BEFCBEFCBEFC",
"K c #C218C218C218",
"L c #C681C681C681",
"P c #C71BC71BC71B",
"I c #C9F2C9F2C9F2",
"U c #CB4ACB4ACB4A",
"Y c #CF3CCF3CCF3C",
"T c #D44BD44BD44B",
"R c #D75CD75CD75C",
"E c #D8FDD8FDD8FD",
"W c #DE96DE96DE96",
"Q c #DF7DDF7DDF7D",
"! c #E799E799E799",
"~ c #E98CE98CE98C",
"^ c #ED8AED8AED8A",
"/ c #EFBEEFBEEFBE",
/* pixels */
"sssssssssssssssss  sssssssssssssssss",
"sssssssssssssssss  sssssssssssssssss",
"ssssssssssssssYYPPPYRYssssssssssssss",
"sssssssssssYPYYYYYYERRRYRsssssssssss",
"sssssssssYPYYYYYYYRRRRRRRYYsssssssss",
"ssssssssYPPYYYYYYERRQQQQRRYYssssssss",
"sssssssYPPPPYYYYYRRQQQQQQQRRYsssssss",
"ssssssYPPPPPYYYYERQQQ!!!!QQRRYssssss",
"sssssYPPPPPPPYYYREQQ!!!!!!QQQRYsssss",
"ssssYPPP55mPp555880wwwJ//!!r0bRYssss",
"ssssYPPC @dP;        @j///j  0RRssss",
"sssYPGb% @dP;         j//P   0RRYsss",
"sssP8    @dPAmCCDDG @-//~#   0RRRsss",
"sssP5    @dPPPYYRY$  E//w@ @ 0RRRsss",
"ssDJNjj2 @pPPPPYYp  c!~C @>@ 0RRYPss",
"ssDDDDD2 @pJPPPYG  %Q~Y   z@ 8RRYPss",
"ssDDDDD2 @aJPPPP,@ CQQ:@ mj@ 8EYYPss",
"  CDDDD1 @aJJPPA  *REa @8Qj@ 8YYYP  ",
"  CCCCD1 @aJJPP5@ cYJ   %**@ *%aPP  ",
"ssCCCCD1 @aJJJJ   PYJ          8PPss",
"ssCCCCC1 @pJJJz  1PYP588855@ 85zPPss",
"ssCCCCC1 @tJJJ1  zPPPYYYYYf@ 5YPPPss",
"sssCCCC,  tDJJ   DPPPPPPYYf@ 5YYPsss",
"sssCCCCp11zDDJ333JPPPPPPPPm55jYYYsss",
"sssCCCCCCCDDDDJJJJJJPPPPPPPPPYYYYsss",
"ssssCCCCCCCDDDDDJJJJJPPPPPPPPYYYssss",
"ssssDCCCCCCDDDDDDJJJJJJJJJPPPYYYssss",
"sssssCCCCCCCCDDDDDJJJJJJJJPPYYYsssss",
"ssssssCCCCCCCCDDDDDDDDDJJJPPYYssssss",
"sssssssCCCCCCCCCCDDDDDDDJJPPYsssssss",
"ssssssssCCCCCCCCCCCDDDDDJJPPssssssss",
"sssssssssCCCCCCCCCCCDDDDJJPsssssssss",
"sssssssssssCCCCCCCCCCDDJDsssssssssss",
"ssssssssssssssCCCCCCDDssssssssssssss",
"sssssssssssssssss  sssssssssssssssss",
"sssssssssssssssss  sssssssssssssssss"
};
