/* XPM */
static char *wmoku-0-LB-185[] = {
/* columns rows colors chars-per-pixel */
"36 36 123 2",
"   c #000700070007",
".  c #015301530153",
"X  c #023B023B023B",
"o  c #037B037B037B",
"O  c #045504550455",
"+  c #058C058C058C",
"@  c #066E066E066E",
"#  c #071307130713",
"$  c #081E081E081E",
"%  c #0A980A980A98",
"&  c #0BB10BB10BB1",
"*  c #0C270C270C27",
"=  c #0D8F0D8F0D8F",
"-  c #0E830E830E83",
";  c #0F330F330F33",
":  c #109A109A109A",
">  c #123312331233",
",  c #134E134E134E",
"<  c #15DA15DA15DA",
"1  c #165016501650",
"2  c #175917591759",
"3  c #187218721872",
"4  c #1ADC1ADC1ADC",
"5  c #1BAD1BAD1BAD",
"6  c #1C6C1C6C1C6C",
"7  c #1D631D631D63",
"8  c #1F731F731F73",
"9  c #205C205C205C",
"0  c #26DA26DA26DA",
"q  c #297829782978",
"w  c #2AC82AC82AC8",
"e  c #2B5E2B5E2B5E",
"r  c #2D9C2D9C2D9C",
"t  c #2F542F542F54",
"y  c #35CF35CF35CF",
"u  c #39F239F239F2",
"i  c #3ADA3ADA3ADA",
"p  c #3B803B803B80",
"a  c #3CE13CE13CE1",
"s  c #3EE53EE53EE5",
"d  c #421E421E421E",
"f  c #42C742C742C7",
"g  c #463B463B463B",
"h  c #4C714C714C71",
"j  c #524652465246",
"k  c #529852985298",
"l  c #536253625362",
"z  c #552C552C552C",
"x  c #571C571C571C",
"c  c #5AB75AB75AB7",
"v  c #5B7F5B7F5B7F",
"b  c #5CEF5CEF5CEF",
"n  c #5E2B5E2B5E2B",
"m  c #60B860B860B8",
"M  c #61C761C761C7",
"N  c #634E634E634E",
"B  c #655565556555",
"V  c #672C672C672C",
"C  c #67FC67FC67FC",
"Z  c #695469546954",
"A  c #69AD69AD69AD",
"S  c #6C596C596C59",
"D  c #6EBB6EBB6EBB",
"F  c #712671267126",
"G  c #730573057305",
"H  c #738373837383",
"J  c #762B762B762B",
"K  c #7A337A337A33",
"L  c #7C727C727C72",
"P  c #7D967D967D96",
"I  c #7FFD7FFD7FFD",
"U  c #CEAE9F8B4144",
"Y  c #DE3CAB8C462E",
"T  c #E79DB2CA4924",
"R  c #82D482D482D4",
"E  c #866B866B866B",
"W  c #877A877A877A",
"Q  c #8C208C208C20",
"!  c #8D298D298D29",
"~  c #900490049004",
"^  c #910591059105",
"/  c #922F922F922F",
"(  c #94B094B094B0",
")  c #998799879987",
"_  c #9C2D9C2D9C2D",
"`  c #9E009E009E00",
"'  c #9EDB9EDB9EDB",
"]  c #A02BA02BA02B",
"[  c #A219A219A219",
"{  c #A37DA37DA37D",
"}  c #A3B3A3B3A3B3",
"|  c #A4B6A4B6A4B6",
" . c #A84FA84FA84F",
".. c #A910A910A910",
"X. c #AB97AB97AB97",
"o. c #AE8DAE8DAE8D",
"O. c #AEBAAEBAAEBA",
"+. c #B031B031B031",
"@. c #B0E3B0E3B0E3",
"#. c #B20AB20AB20A",
"$. c #B3EBB3EBB3EB",
"%. c #B6DAB6DAB6DA",
"&. c #B880B880B880",
"*. c #B8EDB8EDB8ED",
"=. c #BA9EBA9EBA9E",
"-. c #BC3ABC3ABC3A",
";. c #BCE0BCE0BCE0",
":. c #BEFCBEFCBEFC",
">. c #C14DC14DC14D",
",. c #C260C260C260",
"<. c #C3C0C3C0C3C0",
"1. c #C548C548C548",
"2. c #C71BC71BC71B",
"3. c #C84DC84DC84D",
"4. c #CE1FCE1FCE1F",
"5. c #CF3BCF3BCF3B",
"6. c #D4BDD4BDD4BD",
"7. c #D75CD75CD75C",
"8. c gray86",
"9. c #DF7CDF7CDF7C",
"0. c #E79DE79DE79D",
"q. c #EDCFEDCFEDCF",
"w. c #EFBEEFBEEFBE",
/* pixels */
"T T T T T T T T T T T T T T T T T     T T T T T T T T T T T T T T T T T ",
"T T T T T T T T T T T T T T T T T     T T T T T T T T T T T T T T T T T ",
"T T T T T T T T T T T T T T 5.5.2.2.2.5.7.5.T T T T T T T T T T T T T T ",
"T T T T T T T T T T T 5.2.5.5.5.5.5.5.7.7.7.7.5.7.T T T T T T T T T T T ",
"T T T T T T T T T 5.2.5.5.5.5.5.5.5.7.7.7.7.7.7.7.5.5.T T T T T T T T T ",
"T T T T T T T T 5.2.2.5.5.5.5.5.5.7.7.7.9.9.9.9.7.7.5.5.T T T T T T T T ",
"T T T T T T T 5.2.2.2.2.5.5.5.5.5.7.7.9.9.9.9.9.9.9.7.7.5.T T T T T T T ",
"T T T T T T 5.2.2.2.2.2.5.5.5.5.7.7.9.9.9.0.0.0.0.9.9.7.7.5.T T T T T T ",
"T T T T T 5.2.2.2.2.2.2.2.5.5.5.7.7.9.9.0.0.0.0.0.0.9.9.9.7.5.T T T T T ",
"T T T T 5.2.' x n 2.2.2.2.5.2.( H H ' 9.0.w.w.0.Z B B M M M n c Y T T T ",
"T T T T 5.2.3 =   2.2.2.3.D       @     ! w.w.7.                U T T T ",
"T T T 3.+.Z   3   2.2.2.R     =       &   =.w.{   >             =.T T T ",
"T T T         3   :.2.2.>   = c ,.,.a   r a w.H   &  .,.=.=.+.%.7.T T T ",
"T T T         3   :.2.2.      =.7.7.,.  7   w.f     ,.0.9.9.7.7.7.T T T ",
"T T %./ / /   3   :.:.2.      / 5.7.K   e @ 0.7     n e g P ,.7.5.2.T T ",
"T T %.%.%.%.  3   :.:.:.H   >   @ @   =   ' 0.  @         =   J 5.2.T T ",
"T T %.%.%.%.  3   :.:.:.2.y             Z 9.9.  @   7 n 3   &   { 2.T T ",
"    O.%.%.%.  2   :.:.:.u   3   f r       R 9.u a P 9.7.7.l   e u 2.    ",
"    O.O.O.O.  2   :.:.:.  &   O.2.6.R   0 & 7.7.7.7.7.7.7.=.  3   2.    ",
"T T O.O.O.O.  2   %.:.:.  >   ,.2.3.+.  3   D     ! 7.7.5.'   9 > 2.T T ",
"T T O.O.O.O.  2   %.:.:.      B +.+.e   e u )   7   { ,.O.=   7 x 2.T T ",
"T T O.O.O.O.  2   %.%.:.M     &       &   { 5.>   >         2   =.2.T T ",
"T T T O.O.O.  &   %.%.%.:.l       @     P 2.2.:.9       @   3  .2.T T T ",
"T T T O.O.O.h h l %.%.%.%.:.+.R B Z / :.3.2.2.2.2. .H c K { 5.6.5.T T T ",
"T T T O.O.O.O.O.O.O.%.%.%.%.:.:.:.:.:.:.2.2.2.2.2.2.2.2.2.5.5.5.5.T T T ",
"T T T T O.O.O.O.O.O.O.%.%.%.%.%.:.:.:.:.:.2.2.2.2.2.2.2.2.6.5.5.T T T T ",
"T T T T %.O.O.O.O.O.O.%.%.%.%.%.%.:.:.:.:.:.:.:.:.:.2.2.2.5.5.5.T T T T ",
"T T T T T O.O.O.O.O.O.O.O.%.%.%.%.%.:.:.:.:.:.:.:.:.2.2.5.5.5.T T T T T ",
"T T T T T T O.O.O.O.O.O.O.O.%.%.%.%.%.%.%.%.%.:.:.:.2.2.5.5.T T T T T T ",
"T T T T T T T O.O.O.O.O.O.O.O.O.O.%.%.%.%.%.%.%.:.:.2.2.5.T T T T T T T ",
"T T T T T T T T O.O.O.O.O.O.O.O.O.O.O.%.%.%.%.%.:.:.2.2.T T T T T T T T ",
"T T T T T T T T T O.O.O.O.O.O.O.O.O.O.O.%.%.%.%.:.:.2.T T T T T T T T T ",
"T T T T T T T T T T T O.O.O.O.O.O.O.O.O.O.%.%.:.%.T T T T T T T T T T T ",
"T T T T T T T T T T T T T T O.O.O.O.O.O.%.%.T T T T T T T T T T T T T T ",
"T T T T T T T T T T T T T T T T T     T T T T T T T T T T T T T T T T T ",
"T T T T T T T T T T T T T T T T T     T T T T T T T T T T T T T T T T T "
};
