/* XPM */
static char *wmoku-0-LB-109[] = {
/* columns rows colors chars-per-pixel */
"36 36 119 2",
"   c #000500050005",
".  c #017D017D017D",
"X  c #03E403E403E4",
"o  c #04E304E304E3",
"O  c #059005900590",
"+  c #068B068B068B",
"@  c #08DE08DE08DE",
"#  c #091809180918",
"$  c #0A710A710A71",
"%  c #0BB40BB40BB4",
"&  c #0C8C0C8C0C8C",
"*  c #0D720D720D72",
"=  c #0F9A0F9A0F9A",
"-  c #104810481048",
";  c #116311631163",
":  c #12EC12EC12EC",
">  c #14CE14CE14CE",
",  c #15D215D215D2",
"<  c #165016501650",
"1  c #177817781778",
"2  c #185A185A185A",
"3  c #197919791979",
"4  c #1AD61AD61AD6",
"5  c #1B5A1B5A1B5A",
"6  c #1CC31CC31CC3",
"7  c #1DA71DA71DA7",
"8  c #1E6A1E6A1E6A",
"9  c #1F411F411F41",
"0  c #21CF21CF21CF",
"q  c #22FA22FA22FA",
"w  c #24F124F124F1",
"e  c #25BE25BE25BE",
"r  c #27B727B727B7",
"t  c #28B428B428B4",
"y  c #2A242A242A24",
"u  c #2B9F2B9F2B9F",
"i  c #2D922D922D92",
"p  c #2F8C2F8C2F8C",
"a  c #32BA32BA32BA",
"s  c gray20",
"d  c #392F392F392F",
"f  c #41E741E741E7",
"g  c #443144314431",
"h  c #453A453A453A",
"j  c #46FA46FA46FA",
"k  c #4BA04BA04BA0",
"l  c #4C9E4C9E4C9E",
"z  c #4EC24EC24EC2",
"x  c #508A508A508A",
"c  c #52E952E952E9",
"v  c #535853585358",
"b  c #571C571C571C",
"n  c #581F581F581F",
"m  c #58E958E958E9",
"M  c #5C6D5C6D5C6D",
"N  c #5E385E385E38",
"B  c #5E9C5E9C5E9C",
"V  c #611A611A611A",
"C  c #672C672C672C",
"Z  c #683B683B683B",
"A  c #68E568E568E5",
"S  c #6AE76AE76AE7",
"D  c #6F3B6F3B6F3B",
"F  c #714F714F714F",
"G  c #73A673A673A6",
"H  c #74FE74FE74FE",
"J  c #797A797A797A",
"K  c #E79DB2CA4924",
"L  c #83C783C783C7",
"P  c #863C863C863C",
"I  c #922E922E922E",
"U  c #937093709370",
"Y  c #93BE93BE93BE",
"T  c #94E894E894E8",
"R  c #972497249724",
"E  c #9AE19AE19AE1",
"W  c #9C019C019C01",
"Q  c #9EDB9EDB9EDB",
"!  c #9FC49FC49FC4",
"~  c #A244A244A244",
"^  c #A369A369A369",
"/  c #A539A539A539",
"(  c #A5B0A5B0A5B0",
")  c #A7A3A7A3A7A3",
"_  c #A946A946A946",
"`  c #AA39AA39AA39",
"'  c #AB01AB01AB01",
"]  c #AC23AC23AC23",
"[  c #AD49AD49AD49",
"{  c #AEBCAEBCAEBC",
"}  c #B005B005B005",
"|  c #B190B190B190",
" . c #B2E2B2E2B2E2",
".. c #B629B629B629",
"X. c #B6DFB6DFB6DF",
"o. c #B82CB82CB82C",
"O. c #B947B947B947",
"+. c #B9EAB9EAB9EA",
"@. c #BB9BBB9BBB9B",
"#. c #BE8BBE8BBE8B",
"$. c #BEFCBEFCBEFC",
"%. c #C147C147C147",
"&. c #C2F4C2F4C2F4",
"*. c #C519C519C519",
"=. c #C71BC71BC71B",
"-. c #C84DC84DC84D",
";. c #C93CC93CC93C",
":. c #CCEBCCEBCCEB",
">. c #CF3CCF3CCF3C",
",. c #D05DD05DD05D",
"<. c #D45DD45DD45D",
"1. c #D75CD75CD75C",
"2. c #DA94DA94DA94",
"3. c #DE97DE97DE97",
"4. c #DF7DDF7DDF7D",
"5. c #E2CAE2CAE2CA",
"6. c #E567E567E567",
"7. c #E79DE79DE79D",
"8. c #EFADEFADEFAD",
/* pixels */
"K K K K K K K K K K K K K K K K K     K K K K K K K K K K K K K K K K K ",
"K K K K K K K K K K K K K K K K K     K K K K K K K K K K K K K K K K K ",
"K K K K K K K K K K K K K K >.>.=.=.=.>.1.>.K K K K K K K K K K K K K K ",
"K K K K K K K K K K K >.=.>.>.>.>.>.>.1.1.1.1.>.1.K K K K K K K K K K K ",
"K K K K K K K K K >.=.>.>.>.>.>.>.>.1.1.1.1.1.1.1.>.>.K K K K K K K K K ",
"K K K K K K K K >.=.=.>.>.>.>.>.>.1.1.1.4.4.4.4.1.1.>.>.K K K K K K K K ",
"K K K K K K K >.=.=.=.=.>.>.>.>.>.1.1.4.4.4.4.4.4.4.1.1.>.K K K K K K K ",
"K K K K K K >.=.=.=.=.=.>.>.>.>.1.1.4.4.4.7.7.7.7.4.4.1.1.>.K K K K K K ",
"K K K K K >.=.=.=.=.=.=.=.>.>.,.1.1.4.4.7.7.7.7.7.7.4.4.4.1.>.K K K K K ",
"K K K K >.=.Q b N =.=.=.=.>.-.Y A D _ 7.7.8.8.8.8.2._ H H _ 1.>.K K K K ",
"K K K K >.=.2 *   =.=.=.=.)       @   ; 1.8.8.8.I       @   @ &.K K K K ",
"K K K -.| A   2   =.=.=.$.    ;       q r 8.8.{     ;       q @ >.K K K ",
"K K K         2   $.=.=.v   q   @.{       @.8.@   7 n ,.&.@     W K K K ",
"K K K         2   $.=.=.@     Y 1.1.k   a N 8.  @   2.7.4.~   a f K K K ",
"K K X.I I I   2   $.$.=.      =.>.1.W   i > 7.  2   5.7.4.=.  r   =.K K ",
"K K X.X.X.X.  2   $.$.$.  >   -.>.>.@.  r   7.      X.4.4.N   7   =.K K ",
"K K X.X.X.X.  2   $.$.$.  2   &.>.>.=.  7   4.B   7   j r     2   =.K K ",
"    { X.X.X.  2   $.$.$.  >   &.>.>.|   7   4.4.a       +     q   =.    ",
"    { { { {   2   $.$.$.  +   $.=.>.Y   r r 1.2.2.Q n q j P   i r =.    ",
"K K { { { {   2   X.$.$.@     I =.=.z   r z >.2     $.1.>.j   7 A =.K K ",
"K K { { { {   >   X.$.$.n   r * X.{       { >.d   2 z $.W   +   _ =.K K ",
"K K { { { {   >   X.X.$.@.    *       ; 7 >.>.)     @         v =.=.K K ",
"K K K { { {   @   X.X.X.$.~ +     +   a $.=.=.=.J       *   b -.=.K K K ",
"K K K { { { z z v X.X.X.X.$.@.Y A F ~ =.=.=.=.=.-.@.P n H | >.,.>.K K K ",
"K K K { { { { { { { X.X.X.X.$.$.$.$.$.$.=.=.=.=.=.=.=.=.=.>.>.>.>.K K K ",
"K K K K { { { { { { { X.X.X.X.X.$.$.$.$.$.=.=.=.=.=.=.=.=.>.>.>.K K K K ",
"K K K K X.{ { { { { { X.X.X.X.X.X.$.$.$.$.$.$.$.$.$.=.=.=.>.>.>.K K K K ",
"K K K K K { { { { { { { { X.X.X.X.X.$.$.$.$.$.$.$.$.=.=.>.>.>.K K K K K ",
"K K K K K K { { { { { { { { X.X.X.X.X.X.X.X.X.$.$.$.=.=.>.>.K K K K K K ",
"K K K K K K K { { { { { { { { { { X.X.X.X.X.X.X.$.$.=.=.>.K K K K K K K ",
"K K K K K K K K { { { { { { { { { { { X.X.X.X.X.$.$.=.=.K K K K K K K K ",
"K K K K K K K K K { { { { { { { { { { { X.X.X.X.$.$.=.K K K K K K K K K ",
"K K K K K K K K K K K { { { { { { { { { { X.X.$.X.K K K K K K K K K K K ",
"K K K K K K K K K K K K K K { { { { { { X.X.K K K K K K K K K K K K K K ",
"K K K K K K K K K K K K K K K K K     K K K K K K K K K K K K K K K K K ",
"K K K K K K K K K K K K K K K K K     K K K K K K K K K K K K K K K K K "
};
