/* XPM */
static char *wmoku-0-LB-192[] = {
/* columns rows colors chars-per-pixel */
"36 36 117 2",
"   c #000400040004",
".  c #017901790179",
"X  c #021C021C021C",
"o  c #035403540354",
"O  c #04B304B304B3",
"+  c #05FC05FC05FC",
"@  c #069406940694",
"#  c #07AD07AD07AD",
"$  c #08C008C008C0",
"%  c #09B309B309B3",
"&  c #0BB50BB50BB5",
"*  c #0C730C730C73",
"=  c #0D980D980D98",
"-  c #0E7F0E7F0E7F",
";  c #0F8C0F8C0F8C",
":  c #116711671167",
">  c #156915691569",
",  c #165016501650",
"<  c #176617661766",
"1  c #186A186A186A",
"2  c #198419841984",
"3  c #1AAD1AAD1AAD",
"4  c #1B3E1B3E1B3E",
"5  c #1CA31CA31CA3",
"6  c #1D7F1D7F1D7F",
"7  c #1EBB1EBB1EBB",
"8  c #1F381F381F38",
"9  c #219D219D219D",
"0  c #22E522E522E5",
"q  c #247C247C247C",
"w  c #28DE28DE28DE",
"e  c #295929592959",
"r  c #2AB62AB62AB6",
"t  c #2B9F2B9F2B9F",
"y  c #2DAF2DAF2DAF",
"u  c #32D732D732D7",
"i  c #348934893489",
"p  c #383138313831",
"a  c #38B538B538B5",
"s  c #3F9A3F9A3F9A",
"d  c #41D141D141D1",
"f  c #429E429E429E",
"g  c #443144314431",
"h  c #495D495D495D",
"j  c #4BAB4BAB4BAB",
"k  c #4C684C684C68",
"l  c #4FF64FF64FF6",
"z  c #50EA50EA50EA",
"x  c #52A752A752A7",
"c  c #53D153D153D1",
"v  c #554955495549",
"b  c #571C571C571C",
"n  c #5AAA5AAA5AAA",
"m  c #5E385E385E38",
"M  c #5F5A5F5A5F5A",
"N  c #61F561F561F5",
"B  c #672C672C672C",
"V  c #6CCD6CCD6CCD",
"C  c #6DB26DB26DB2",
"Z  c #6F146F146F14",
"A  c #6FF46FF46FF4",
"S  c #70BC70BC70BC",
"D  c #7E677E677E67",
"F  c #7F727F727F72",
"G  c #E79DB2CA4924",
"H  c #812C812C812C",
"J  c #850885088508",
"K  c #85BA85BA85BA",
"L  c #88D388D388D3",
"P  c #8DF78DF78DF7",
"I  c #8F198F198F19",
"U  c #8FEB8FEB8FEB",
"Y  c #922F922F922F",
"T  c #941294129412",
"R  c #963796379637",
"E  c #975F975F975F",
"W  c #982398239823",
"Q  c #98B298B298B2",
"!  c #9EF79EF79EF7",
"~  c #A105A105A105",
"^  c #A244A244A244",
"/  c #A50FA50FA50F",
"(  c #A783A783A783",
")  c #A886A886A886",
"_  c #A95FA95FA95F",
"`  c #AC24AC24AC24",
"'  c #AD08AD08AD08",
"]  c #AEBAAEBAAEBA",
"[  c #B038B038B038",
"{  c #B1FCB1FCB1FC",
"}  c #B6DEB6DEB6DE",
"|  c #B9E6B9E6B9E6",
" . c #BE2FBE2FBE2F",
".. c #BEFBBEFBBEFB",
"X. c #BFCCBFCCBFCC",
"o. c #C17BC17BC17B",
"O. c #C392C392C392",
"+. c #C476C476C476",
"@. c #C528C528C528",
"#. c #C71BC71BC71B",
"$. c #C822C822C822",
"%. c #CA74CA74CA74",
"&. c #CAEBCAEBCAEB",
"*. c #CE24CE24CE24",
"=. c #CF3CCF3CCF3C",
"-. c #D001D001D001",
";. c #D142D142D142",
":. c #D344D344D344",
">. c #D54BD54BD54B",
",. c #D75AD75AD75A",
"<. c #DD48DD48DD48",
"1. c #DF7CDF7CDF7C",
"2. c #E23EE23EE23E",
"3. c #E420E420E420",
"4. c #E795E795E795",
"5. c #ED25ED25ED25",
"6. c #EFB3EFB3EFB3",
/* pixels */
"G G G G G G G G G G G G G G G G G     G G G G G G G G G G G G G G G G G ",
"G G G G G G G G G G G G G G G G G     G G G G G G G G G G G G G G G G G ",
"G G G G G G G G G G G G G G =.=.#.#.#.=.,.=.G G G G G G G G G G G G G G ",
"G G G G G G G G G G G =.#.=.=.=.=.=.=.,.,.,.,.=.,.G G G G G G G G G G G ",
"G G G G G G G G G =.#.=.=.=.=.=.=.=.,.,.,.,.,.,.,.=.=.G G G G G G G G G ",
"G G G G G G G G =.#.#.=.=.=.=.=.=.,.,.,.1.1.1.1.,.,.=.=.G G G G G G G G ",
"G G G G G G G =.#.#.#.#.=.=.=.=.=.,.,.1.1.1.1.1.1.1.,.,.=.G G G G G G G ",
"G G G G G G =.#.#.#.#.#.=.=.=.=.,.,.1.1.1.4.4.4.4.1.1.,.,.=.G G G G G G ",
"G G G G G =.#.#.#.#.#.#.#.=.=.=.,.,.1.1.4.4.4.5.4.4.1.1.1.,.=.G G G G G ",
"G G G G =.#.! b m #.#.#.#.=.O.E S S / 4.4.6.6.6.6.:.E C C E $.=.G G G G ",
"G G G G =.#.1 =   #.#.#.#.F       %   = =.6.6.6.C       % +   I G G G G ",
"G G G $.{ B   1   #.#.#.Y     =       9 % 6.6.J   + +       =   / G G G ",
"G G G         1   ..#.#.%   1 k O.| %     ` 6.      J ,.#.4   y p G G G ",
"G G G         1   ..#.#.  %   #.,.,.^   u h 1.  e   4.4.1.}   4   G G G ",
"G G } Y Y Y   1   ....#.  ,   $.=.,...  y   =.    i 4.4.1.)   q + #.G G ",
"G G } } } }   1   ......      / =.=.m   4   4.:.,.1.4.1.O.    > C #.G G ",
"G G } } } }   1   ......b   1   d 9     4   1.5.4.1.:.l     1 > #.#.G G ",
"    ` | } }   ,   ........y       %     9   1.1.1.J     =   p ..=.#.    ",
"    ` ` ` {   1   ........#.E k 4 d H   y e ,.,.d   =   = ! =.=.#.#.    ",
"G G { ` { `   ,   } ....,     { $.#.g   9 B :.l   1   E =.=.=.=.#.#.G G ",
"G G { ` ` {   ,   } ....i   , k | E   +   { #.  1   ` ` ` ` ` ` ) #.G G ",
"G G ` { { `   ,   } } ..Q     %       + l =.I   >                 #.G G ",
"G G G { ` {   =   } } } ..C       =   l #.#.m                 =   G G G ",
"G G G ` { ` k k l } } } } O.` F b C ` #.#.#.^ b b b b b b n n m N G G G ",
"G G G ` { ` { ` { ` | } } } O...........#.#.#.#.#.#.#.#.#.=.=.=.=.G G G ",
"G G G G ` { ` { ` { ` | } } } } ..........#.#.#.#.#.#.#.#.=.=.=.G G G G ",
"G G G G } { ` { ` ` ` } } } } } } ..................#.#.#.=.=.=.G G G G ",
"G G G G G ` { ` { ` { { ` } } } } } ................#.#.=.=.=.G G G G G ",
"G G G G G G ` { ` { ` ` ` ` } } } } } } } } } ......#.#.=.=.G G G G G G ",
"G G G G G G G ` { ` ` { { { ` { ` } } } } } } } ....#.#.=.G G G G G G G ",
"G G G G G G G G ` { ` { ` { { ` ` { ` | } } } } ....#.#.G G G G G G G G ",
"G G G G G G G G G { ` ` { ` ` { ` ` { ` } } } } ....#.G G G G G G G G G ",
"G G G G G G G G G G G ` { ` { ` ` { ` { ` | } ..} G G G G G G G G G G G ",
"G G G G G G G G G G G G G G ` { ` { { ` } } G G G G G G G G G G G G G G ",
"G G G G G G G G G G G G G G G G G     G G G G G G G G G G G G G G G G G ",
"G G G G G G G G G G G G G G G G G     G G G G G G G G G G G G G G G G G "
};
