/* XPM */
static char *wmoku-0-LB-317[] = {
/* columns rows colors chars-per-pixel */
"36 36 102 2",
"   c #000700070007",
".  c #017201720172",
"X  c #027302730273",
"o  c #03A403A403A4",
"O  c #048A048A048A",
"+  c #06BB06BB06BB",
"@  c #076907690769",
"#  c #08D708D708D7",
"$  c #095409540954",
"%  c #0B740B740B74",
"&  c #0D530D530D53",
"*  c #0EF40EF40EF4",
"=  c #0F6E0F6E0F6E",
"-  c #10E310E310E3",
";  c #112611261126",
":  c #146D146D146D",
">  c #17F117F117F1",
",  c #19A219A219A2",
"<  c #1A771A771A77",
"1  c #1B811B811B81",
"2  c #1CA71CA71CA7",
"3  c #226622662266",
"4  c #253125312531",
"5  c #269826982698",
"6  c #273627362736",
"7  c #290929092909",
"8  c #299529952995",
"9  c #2AA32AA32AA3",
"0  c #2BAB2BAB2BAB",
"q  c #2C9F2C9F2C9F",
"w  c #2DF22DF22DF2",
"e  c #35C835C835C8",
"r  c #379037903790",
"t  c #3B103B103B10",
"y  c #408640864086",
"u  c #437F437F437F",
"i  c #472C472C472C",
"p  c #4A164A164A16",
"a  c #4DCD4DCD4DCD",
"s  c #4EC74EC74EC7",
"d  c #533353335333",
"f  c #538353835383",
"g  c #562756275627",
"h  c #571C571C571C",
"j  c #576657665766",
"k  c #5D505D505D50",
"l  c #5E2B5E2B5E2B",
"z  c #5F665F665F66",
"x  c #615961596159",
"c  c #61C761C761C7",
"v  c #62B062B062B0",
"b  c #655565556555",
"n  c #669366936693",
"m  c #679967996799",
"M  c #68D268D268D2",
"N  c #697B697B697B",
"B  c #6CD46CD46CD4",
"V  c #6D7A6D7A6D7A",
"C  c #6F976F976F97",
"Z  c #756375637563",
"A  c #79E279E279E2",
"S  c #7C277C277C27",
"D  c #E6B8B21948DC",
"F  c #E79DB2CA4924",
"G  c #80B580B580B5",
"H  c #860B860B860B",
"J  c #86BA86BA86BA",
"K  c #881D881D881D",
"L  c #986C986C986C",
"P  c #9A419A419A41",
"I  c #9B929B929B92",
"U  c #9E9D9E9D9E9D",
"Y  c #9EDB9EDB9EDB",
"T  c #9FD89FD89FD8",
"R  c #A24BA24BA24B",
"E  c #A3A9A3A9A3A9",
"W  c #A6DBA6DBA6DB",
"Q  c #ABD3ABD3ABD3",
"!  c #AE37AE37AE37",
"~  c #AEBAAEBAAEBA",
"^  c #B006B006B006",
"/  c #B138B138B138",
"(  c #B43BB43BB43B",
")  c #B6DBB6DBB6DB",
"_  c #B92EB92EB92E",
"`  c #B9FAB9FAB9FA",
"'  c #BB2CBB2CBB2C",
"]  c #BD5ABD5ABD5A",
"[  c #BEFBBEFBBEFB",
"{  c #C11AC11AC11A",
"}  c #C32AC32AC32A",
"|  c #C43DC43DC43D",
" . c #C62CC62CC62C",
".. c #C71BC71BC71B",
"X. c #C834C834C834",
"o. c #CF3CCF3CCF3C",
"O. c #D14DD14DD14D",
"+. c #D75BD75BD75B",
"@. c #DF7DDF7DDF7D",
"#. c #E1ADE1ADE1AD",
"$. c #E79DE79DE79D",
"%. c #EFB5EFB5EFB5",
/* pixels */
"F F F F F F F F F F F F F F F F F     F F F F F F F F F F F F F F F F F ",
"F F F F F F F F F F F F F F F F F     F F F F F F F F F F F F F F F F F ",
"F F F F F F F F F F F F F F o.o.......o.+.o.F F F F F F F F F F F F F F ",
"F F F F F F F F F F F o...o.o.o.o.o.o.+.+.+.+.o.+.F F F F F F F F F F F ",
"F F F F F F F F F o...o.o.o.o.o.o.o.+.+.+.+.+.+.+.o.o.F F F F F F F F F ",
"F F F F F F F F o.....o.o.o.o.o.o.+.+.+.@.@.@.@.+.+.o.o.F F F F F F F F ",
"F F F F F F F o.........o.o.o.o.o.+.+.@.@.@.@.@.@.@.+.+.o.F F F F F F F ",
"F F F F F F o...........o.o.o.o.+.+.@.@.@.$.$.$.$.@.@.+.+.o.F F F F F F ",
"F F F F F o.X.............o.o.o.+.+.@.@.$.$.$.$.$.$.@.@.@.+.o.D F F F F ",
"F F F F o.E G j S T ......o.o.o.+.~ c B $.#.m m m m m c c c l l F F F F ",
"F F F F u       $   y ....o.o.o.+.2 *   $.)                 $   F F F F ",
"F F F m   $           m ..o.X.) B   2   $.]                 3   o.F F F ",
"F F F       S ) B   ,   ....        2   $.%.X.X.X.X.X.} w     T +.F F F ",
"F F F   -   ] ] '       ' ..        2   $.%.%.%.%.%.$.K   * m +.+.F F F ",
"F F )       ] ] ~   :   } ..L U U   2   $.$.$.%.%.$.+.  6   o.+.o...F F ",
"F F ) ) ) ) e :       l ......o.o.  2   @.$.$.$.$.$.t     E +.+.o...F F ",
"F F ) ) ) )           A ........o.  ,   @.@.@.$.$.'   7 w +.+.o.o...F F ",
"    ~ ' ) ) c s 7   +   A ......o.  ,   +.+.@.@.@.7     ~ +.o.o.o...    ",
"    ~ u u d ) ) ) H   3 + ......X.  2   o.+.+.+.]   7 - +.+.o.o.....    ",
"F F ~   $   ^ ' ' L   ,   ] ......  ,   o.o.o.+.j   - H o.o.o.o.....F F ",
"F F ~       m E T 7   7 t ] ] ....  ,   o.o.o.o.$     ] o.o.o.o.....F F ",
"F F ~ p   $         $   L ] ] } ..  ,   ..o.o.'   6 + o.o.o.o.......F F ",
"F F F ~ t       +     Z ] } ] ] ]   *   ......B   w j o.o.o.o.o...F F F ",
"F F F ~ ^ L m d c H ^ ) ) ] } ] } d j l ......U j j L ....o.o.o.o.F F F ",
"F F F ~ ~ ~ ~ ~ ~ ~ ) ) ) ) ] } ] ] ] ] ..................o.o.o.o.F F F ",
"F F F F ~ ~ ~ ~ ~ ~ ~ ) ) ) ) ) } ] } ] ] ....X...........o.o.o.F F F F ",
"F F F F ) ~ ~ ~ ~ ~ ~ ) ) ) ) ) ) ] ] } } ] ] ] ] } ......o.o.o.F F F F ",
"F F F F F ~ ~ ~ ~ ~ ~ ~ ~ ) ) ) ) ) ] } ] ] } ] ] ] ....o.o.o.F F F F F ",
"F F F F F F ~ ~ ~ ~ ~ ~ ~ ~ ) ) ) ) ) ) ) ) ) ] ] ] ....o.o.F F F F F F ",
"F F F F F F F ~ ~ ~ ~ ~ ~ ~ ~ ~ ~ ) ) ) ) ) ) ) } ] ....o.F F F F F F F ",
"F F F F F F F F ~ ~ ~ ~ ~ ~ ~ ~ ~ ~ ~ ) ) ) ) ) ] ] ....F F F F F F F F ",
"F F F F F F F F F ~ ~ ~ ~ ~ ~ ~ ~ ~ ~ ~ ) ) ) ) ] } ..F F F F F F F F F ",
"F F F F F F F F F F F ~ ~ ~ ~ ~ ~ ~ ~ ~ ~ ) ) ] ) F F F F F F F F F F F ",
"F F F F F F F F F F F F F F ~ ~ ~ ~ ~ ~ ) ) F F F F F F F F F F F F F F ",
"F F F F F F F F F F F F F F F F F     F F F F F F F F F F F F F F F F F ",
"F F F F F F F F F F F F F F F F F     F F F F F F F F F F F F F F F F F "
};
