/* XPM */
static char *wmoku-0-LB-148[] = {
/* columns rows colors chars-per-pixel */
"36 36 97 2",
"   c #000900090009",
".  c #015B015B015B",
"X  c #028302830283",
"o  c #03B103B103B1",
"O  c #04AC04AC04AC",
"+  c #056E056E056E",
"@  c #067406740674",
"#  c #098C098C098C",
"$  c #0AA60AA60AA6",
"%  c #10E610E610E6",
"&  c #118311831183",
"*  c #121612161216",
"=  c #18A018A018A0",
"-  c #1B6F1B6F1B6F",
";  c #1E001E001E00",
":  c #1F071F071F07",
">  c #1F671F671F67",
",  c #24F224F224F2",
"<  c #29D929D929D9",
"1  c #2B512B512B51",
"2  c #2DD82DD82DD8",
"3  c #30FC30FC30FC",
"4  c #316C316C316C",
"5  c #325232523252",
"6  c #34B634B634B6",
"7  c #445044504450",
"8  c #4C714C714C71",
"9  c #4FEB4FEB4FEB",
"0  c #52CF52CF52CF",
"q  c #538E538E538E",
"w  c #563556355635",
"e  c #571C571C571C",
"r  c #584D584D584D",
"t  c #58E958E958E9",
"y  c #5AAA5AAA5AAA",
"u  c #5BB15BB15BB1",
"i  c #5DF55DF55DF5",
"p  c #61E061E061E0",
"a  c #651965196519",
"s  c #6E0B6E0B6E0B",
"d  c #766476647664",
"f  c #7AE27AE27AE2",
"g  c #7BA77BA77BA7",
"h  c #7E417E417E41",
"j  c #800F800F800F",
"k  c #E79DB2CA4924",
"l  c #80CF80CF80CF",
"z  c #84DA84DA84DA",
"x  c #862A862A862A",
"c  c #8C6C8C6C8C6C",
"v  c #8D2B8D2B8D2B",
"b  c #923792379237",
"n  c #95D695D695D6",
"m  c #97B897B897B8",
"M  c #992199219921",
"N  c #9B329B329B32",
"B  c #9C7B9C7B9C7B",
"V  c #9CDC9CDC9CDC",
"C  c #9F259F259F25",
"Z  c #A33FA33FA33F",
"A  c #A690A690A690",
"S  c #A948A948A948",
"D  c #AA91AA91AA91",
"F  c #AB92AB92AB92",
"G  c #AC0DAC0DAC0D",
"H  c #AD3CAD3CAD3C",
"J  c #AEBBAEBBAEBB",
"K  c #AFFAAFFAAFFA",
"L  c #B103B103B103",
"P  c #B294B294B294",
"I  c #B66FB66FB66F",
"U  c #B6DAB6DAB6DA",
"Y  c #B95CB95CB95C",
"T  c #B9FBB9FBB9FB",
"R  c #BE41BE41BE41",
"E  c #BEFBBEFBBEFB",
"W  c #C0F4C0F4C0F4",
"Q  c #C4A7C4A7C4A7",
"!  c #C670C670C670",
"~  c #C71AC71AC71A",
"^  c #C897C897C897",
"/  c #C94BC94BC94B",
"(  c #CA0DCA0DCA0D",
")  c #CC33CC33CC33",
"_  c #CE4ECE4ECE4E",
"`  c #CF3CCF3CCF3C",
"'  c #D540D540D540",
"]  c #D6B0D6B0D6B0",
"[  c #D75AD75AD75A",
"{  c #D99DD99DD99D",
"}  c #DE63DE63DE63",
"|  c #DF7DDF7DDF7D",
" . c #E09CE09CE09C",
".. c #E4C9E4C9E4C9",
"X. c #E79DE79DE79D",
"o. c #EE2CEE2CEE2C",
"O. c #EFBEEFBEEFBE",
/* pixels */
"k k k k k k k k k k k k k k k k k . . k k k k k k k k k k k k k k k k k ",
"k k k k k k k k k k k k k k k k k . . k k k k k k k k k k k k k k k k k ",
"k k k k k k k k k k k k k k ` ` ~ ~ ~ ` [ ` k k k k k k k k k k k k k k ",
"k k k k k k k k k k k ` ~ ` ` ` ` ` ` ] [ [ [ ` [ k k k k k k k k k k k ",
"k k k k k k k k k ` ~ ` ` ` ` ` ` ` [ [ [ [ ] [ ] ` ` k k k k k k k k k ",
"k k k k k k k k ` ~ ~ ` ` ` ` ` ` ] ] ] |  .| | ] ] ` ' k k k k k k k k ",
"k k k k k k k ` ~ ~ ~ ~ ` ` ` ` ` ] ] | | | | | | | ] ] ` k k k k k k k ",
"k k k k k k ` ~ ~ ~ ~ ~ ` ` ` ` ] ]  .| | X.X.X.X.|  .[ [ ` k k k k k k ",
"k k k k k ` ~ ~ ~ ~ ~ ~ ~ ` ` ` [ [ | | X.X.X.X.X.X.| | | ] ` k k k k k ",
"k k k k ` ~ ~ u e Z ~ ~ ~ ` ` ` ] p p Z X.O.O.O.o.Y b p c P ] ` k k k k ",
"k k k k ` ~ G . + l ~ ~ ~ ` ` ' x . . a X.O.O. .5 . . . + . 2 ( k k k k ",
"k k k ` Y C - . + l ~ ~ ~ ` ` G . . . a X.O.o.2 + . . . . . . 1 ` k k k ",
"k k k u . . . . + g ~ ~ ~ ~ ( # . . . a X.O.` . . . I [ D . . . Y k k k ",
"k k k u . . . . + g ~ ~ ~ ~ e + . + . p X.o.C + . e X.X.| 9 . . c k k k ",
"k k I D b b 0 . + g R ~ ~ b . . 2 + . p X.X.G . . $ | X.] % . . C ~ k k ",
"k k I I I I 9 . + g R R I . . . x + . p | X.X.- + + . > . . + % ( ~ k k ",
"k k I I I I 9 . + g R R 1 + . b x + . u | | | Y . . . . . . . G ` ~ k k ",
". . G I I I 9 . + g R s . . 0 ~ x + . p ] ] ` . . . , e # . . . ( ~ . . ",
". . G P G G 9 . + g P . . . > - > . . > > h h + . 0 ] [ ] > . . N ~ . . ",
"k k G P G P 9 . + d G . . . . . . . . . . u p . + g ] ] ` 7 . . l ~ k k ",
"k k G G G P 8 . + d Y e e 0 0 u e + . u u c N . . . A R n . . . D ~ k k ",
"k k G P P G 8 . . d I R E E R R l + . e ~ ' ( # . . . . . . + 2 ~ ~ k k ",
"k k k P G P 8 . + d I I E E E E g + . e ~ ~ ~ G - . . . . . 5 ~ ~ k k k ",
"k k k G G G g 8 9 n I I I E E R N 0 e c ~ ~ ~ ~ ~ N g u l D ` ` ` k k k ",
"k k k P G G P G P G Y I I I R R E E E E ~ ~ ~ ~ ~ ~ ~ ~ ~ ` ` ` ' k k k ",
"k k k k G P P G G P G Y I I Y I E E E E R ~ ~ ( ~ ~ ~ ~ ~ ` ` ` k k k k ",
"k k k k Y G G P G G G I Y I I I Y R E E R R E E R R ~ ~ ~ ` ` ` k k k k ",
"k k k k k P G G P G P G G Y I I I I E E E R E E R R ~ ~ ` ` ` k k k k k ",
"k k k k k k G P G P G P G G Y Y I Y I I I I I E E R ~ ~ ` ` k k k k k k ",
"k k k k k k k G G P P G P P G G G Y I I I Y I I E R ~ ~ ` k k k k k k k ",
"k k k k k k k k P G P G G P P G G P G Y I I I Y E E ~ ~ k k k k k k k k ",
"k k k k k k k k k G G P G G G P G G P G I I I I E E ~ k k k k k k k k k ",
"k k k k k k k k k k k P G G P G P G G P G Y I R I k k k k k k k k k k k ",
"k k k k k k k k k k k k k k G P G G P G I I k k k k k k k k k k k k k k ",
"k k k k k k k k k k k k k k k k k . . k k k k k k k k k k k k k k k k k ",
"k k k k k k k k k k k k k k k k k . . k k k k k k k k k k k k k k k k k "
};
