/* XPM */
static char *wmoku-0-LB-348[] = {
/* columns rows colors chars-per-pixel */
"36 36 133 2",
"   c #000C000C000C",
".  c #017C017C017C",
"X  c #027101E200C5",
"o  c #039A02C80123",
"O  c #027D027D027D",
"+  c #03A903A903A9",
"@  c #049B049B049B",
"#  c #059805980598",
"$  c #067406740674",
"%  c #09BB09BB09BB",
"&  c #0AA60AA60AA6",
"*  c #0E270E270E27",
"=  c #10E310E310E3",
"-  c #116711671167",
";  c #1B7D1B7D1B7D",
":  c #1DF41DF41DF4",
">  c #1F671F671F67",
",  c #207320732073",
"<  c #220722072207",
"1  c #239A239A239A",
"2  c #257525752575",
"3  c #29DC29DC29DC",
"4  c #2CCA2CCA2CCA",
"5  c #2F8D2F8D2F8D",
"6  c #30FC30FC30FC",
"7  c #329832983298",
"8  c #349734973497",
"9  c #394539453945",
"0  c #402740274027",
"q  c #6DB554AF22A5",
"w  c #445044504450",
"e  c #472C472C472C",
"r  c #4CA34CA34CA3",
"t  c #4FFF4FFF4FFF",
"y  c #517251725172",
"u  c #52EF52EF52EF",
"i  c #538E538E538E",
"p  c #564D564D564D",
"a  c #571C571C571C",
"s  c #584E584E584E",
"d  c #58E958E958E9",
"f  c #5AD35AD35AD3",
"g  c #5C295C295C29",
"h  c #5E385E385E38",
"j  c #5E635E635E63",
"k  c #601D601D601D",
"l  c #61C761C761C7",
"z  c #63CB63CB63CB",
"x  c #655565556555",
"c  c #663866386638",
"v  c #683168316831",
"b  c #694269426942",
"n  c #6C016C016C01",
"m  c #6CF06CF06CF0",
"M  c #6E0D6E0D6E0D",
"N  c #711971197119",
"B  c #71F171F171F1",
"V  c #7AB67AB67AB6",
"C  c #7E417E417E41",
"Z  c #7FE87FE87FE8",
"A  c #88C069902B2F",
"S  c #97C575282FED",
"D  c #9CA078E73176",
"F  c #ACC2855B368E",
"G  c #B8228E233A26",
"H  c #BD9192553BDD",
"J  c #C7B09A253F0F",
"K  c #DA46A87E44EE",
"L  c #DE38AB8A462D",
"P  c #E0F8ADA9470B",
"I  c #E460B04A481E",
"U  c #E633B1B348B2",
"Y  c #E79DB2CA4924",
"T  c #80E780E780E7",
"R  c #841684168416",
"E  c #84DA84DA84DA",
"W  c #861586158615",
"Q  c #888288828882",
"!  c #898D898D898D",
"~  c #8C2F8C2F8C2F",
"^  c #8D218D218D21",
"/  c #8DCD8DCD8DCD",
"(  c #8F608F608F60",
")  c #8FA68FA68FA6",
"_  c #918991899189",
"`  c #920492049204",
"'  c #949E949E949E",
"]  c #962996299629",
"[  c #980798079807",
"{  c #992199219921",
"}  c #9B329B329B32",
"|  c #9C7B9C7B9C7B",
" . c #A243A243A243",
".. c #A311A311A311",
"X. c #A690A690A690",
"o. c #A747A747A747",
"O. c #A941A941A941",
"+. c #AB92AB92AB92",
"@. c #ABC4ABC4ABC4",
"#. c #AD47AD47AD47",
"$. c #AE54AE54AE54",
"%. c #AEBCAEBCAEBC",
"&. c #B0A1B0A1B0A1",
"*. c #B136B136B136",
"=. c #B3CFB3CFB3CF",
"-. c #B636B636B636",
";. c #B6DAB6DAB6DA",
":. c #B838B838B838",
">. c #B8C7B8C7B8C7",
",. c #B9DDB9DDB9DD",
"<. c #BCF0BCF0BCF0",
"1. c #BEA9BEA9BEA9",
"2. c #BEFBBEFBBEFB",
"3. c #C0F4C0F4C0F4",
"4. c #C24CC24CC24C",
"5. c #C431C431C431",
"6. c #C665C665C665",
"7. c #C71AC71AC71A",
"8. c #C897C897C897",
"9. c #C9E1C9E1C9E1",
"0. c #CE78CE78CE78",
"q. c #CF3CCF3CCF3C",
"w. c #D116D116D116",
"e. c #D1FBD1FBD1FB",
"r. c #D540D540D540",
"t. c #D6B0D6B0D6B0",
"y. c #D75AD75AD75A",
"u. c #DBC2DBC2DBC2",
"i. c #DE63DE63DE63",
"p. c #DF7DDF7DDF7D",
"a. c #E5D0E5D0E5D0",
"s. c #E797E797E797",
"d. c #EFBEEFBEEFBE",
/* pixels */
"Y Y Y Y Y Y Y Y Y Y Y Y Y Y Y Y Y     Y Y Y Y Y Y Y Y Y Y Y Y Y Y Y Y Y ",
"Y Y Y Y Y Y Y Y Y Y Y Y Y Y Y Y Y     Y Y Y Y Y Y Y Y Y Y Y Y Y Y Y Y Y ",
"Y Y Y Y Y Y Y Y Y Y Y Y Y Y q.q.7.7.7.q.y.q.Y Y Y Y Y Y Y Y Y Y Y Y Y Y ",
"Y Y Y Y Y Y Y Y Y Y Y q.7.q.q.q.q.q.q.y.y.y.y.q.y.Y Y Y Y Y Y Y Y Y Y Y ",
"Y Y Y Y Y Y Y Y Y q.7.q.q.q.q.q.q.q.y.y.y.y.y.y.y.q.q.Y Y Y Y Y Y Y Y Y ",
"Y Y Y Y Y Y Y Y q.7.7.q.q.q.q.q.q.y.y.y.p.p.p.p.y.y.q.q.Y Y Y Y Y Y Y Y ",
"Y Y Y Y Y Y Y q.7.7.7.7.q.q.q.q.q.y.y.p.p.p.p.p.p.p.y.y.q.Y Y Y Y Y Y Y ",
"Y Y Y Y Y Y q.7.7.7.7.7.q.q.q.q.y.y.p.p.p.s.s.s.s.p.p.y.y.q.Y Y Y Y Y Y ",
"Y Y Y Y Y w.7.7.7.7.7.7.7.q.q.q.y.y.p.p.s.s.s.s.s.s.p.p.p.y.q.Y Y Y Y Y ",
"Y Y Y P [ M b ^ 2.7.7.7.7.q.q.q.y.y.b x ..d.d.d.d.s.;.Q z ^ %.q.Y Y Y Y ",
"Y Y G             ^ 7.7.7.q.q.q.y.R     x d.d.d.w.:   #   +   7 K Y Y Y ",
"Y Y     #     #     :.7.7.q.q.q.;.      x d.d.s.#             # 4 Y Y Y ",
"Y F       *.=.*   + Q 7.7.7.q.9.%       x d.d.%.      %.w.%.      J Y Y ",
"Y A   # B 2.2.B #   g 7.7.7.q.s     %   x d.d.b     i s.p.p.r   # S Y Y ",
"Y q     Z 2.2.g # # B 7.7.7.`   # 8 #   x s.s.` #   = p.p.y.=     ] Y Y ",
"Y Y ;.;.[ ; #       *.2.7.;.      W #   z s.s.y.  # #   ,     # = 7.Y Y ",
"Y Y ;.;.^         2 O.2.7.4 #   [ W #   z p.p.s.,.              *.9.Y Y ",
"    %.;...r 0 #       ,.M     i q.W #   g y.p.q.      , s %       2.    ",
"    e e ^ %.;.;.2     `       : : : #   : , Z Z # # i y.y.y.:     [     ",
"Y q   # z %.;.;.9     W                     s x   # V y.q.q.e     W Y Y ",
"Y D       ] ..W       O.i i i s s s #   s s ` [       o.2.]       %.Y Y ",
"Y L     #           7 2.2.2.2.2.7.R #   s w.q.9.*               5 7.Y Y ",
"Y Y H             4 %.;.2.2.2.2.2.R #   s 7.7.7.;.;   #   #   8 2.U Y Y ",
"Y Y Y O.R g s B ^ ;.;.;.;.2.2.2.2.[ s s ^ 7.7.7.7.7.[ V s W O.w.q.Y Y Y ",
"Y Y Y %.%.%.%.%.%.%.;.;.;.;.2.2.2.2.2.2.7.7.7.7.7.7.7.7.7.q.q.q.w.Y Y Y ",
"Y Y Y Y %.%.%.%.%.%.%.;.;.;.;.;.2.2.2.2.2.7.7.7.7.7.7.7.7.q.q.q.Y Y Y Y ",
"Y Y Y Y ;.%.%.%.%.%.%.;.;.;.;.;.;.2.2.2.2.2.2.2.2.2.7.7.7.q.q.q.Y Y Y Y ",
"Y Y Y Y Y %.%.%.%.%.%.%.%.;.;.;.;.;.2.2.2.2.2.2.2.2.7.7.q.q.q.Y Y Y Y Y ",
"Y Y Y Y Y Y %.%.%.%.%.%.%.%.;.;.;.;.;.;.;.;.;.2.2.2.7.7.q.q.Y Y Y Y Y Y ",
"Y Y Y Y Y Y Y %.%.%.%.%.%.%.%.%.%.;.;.;.;.;.;.;.2.2.7.7.q.Y Y Y Y Y Y Y ",
"Y Y Y Y Y Y Y Y %.%.%.%.%.%.%.%.%.%.%.;.;.;.;.;.2.2.7.7.Y Y Y Y Y Y Y Y ",
"Y Y Y Y Y Y Y Y Y %.%.%.%.%.%.%.%.%.%.%.;.;.;.;.2.2.7.Y Y Y Y Y Y Y Y Y ",
"Y Y Y Y Y Y Y Y Y Y Y %.%.%.%.%.%.%.%.%.%.;.;.2.;.Y Y Y Y Y Y Y Y Y Y Y ",
"Y Y Y Y Y Y Y Y Y Y Y Y Y Y %.%.%.%.%.%.;.;.Y Y Y Y Y Y Y Y Y Y Y Y Y Y ",
"Y Y Y Y Y Y Y Y Y Y Y Y Y Y Y Y Y     Y Y Y Y Y Y Y Y Y Y Y Y Y Y Y Y Y ",
"Y Y Y Y Y Y Y Y Y Y Y Y Y Y Y Y Y     Y Y Y Y Y Y Y Y Y Y Y Y Y Y Y Y Y "
};
