/* XPM */
static char *wmoku-0-LB-52[] = {
/* columns rows colors chars-per-pixel */
"36 36 104 2",
"   c #000600060006",
".  c #01AC01AC01AC",
"X  c #021E021E021E",
"o  c #037103710371",
"O  c #04C604C604C6",
"+  c #05C905C905C9",
"@  c #06EF06EF06EF",
"#  c #077E077E077E",
"$  c #083C083C083C",
"%  c #09B109B109B1",
"&  c #0B750B750B75",
"*  c #0DB50DB50DB5",
"=  c #0E890E890E89",
"-  c #105410541054",
";  c #114711471147",
":  c #128F128F128F",
">  c #142414241424",
",  c #16CA16CA16CA",
"<  c #17F917F917F9",
"1  c #1A701A701A70",
"2  c #1B811B811B81",
"3  c #1C3B1C3B1C3B",
"4  c #1E771E771E77",
"5  c #219421942194",
"6  c #24C724C724C7",
"7  c #268C268C268C",
"8  c #27AD27AD27AD",
"9  c #30AE30AE30AE",
"0  c #32EF32EF32EF",
"q  c #33C833C833C8",
"w  c #34C934C934C9",
"e  c #3AC93AC93AC9",
"r  c #3CEE3CEE3CEE",
"t  c #3E913E913E91",
"y  c #4C104C104C10",
"u  c #4CA14CA14CA1",
"i  c #4E304E304E30",
"p  c #4F954F954F95",
"a  c #533C533C533C",
"s  c #542954295429",
"d  c #552F552F552F",
"f  c #571C571C571C",
"g  c #57C357C357C3",
"h  c #5A215A215A21",
"j  c #5AAA5AAA5AAA",
"k  c #5E1D5E1D5E1D",
"l  c #5F5A5F5A5F5A",
"z  c #5F9A5F9A5F9A",
"x  c #69F169F169F1",
"c  c #702870287028",
"v  c #71B771B771B7",
"b  c #750E750E750E",
"n  c #76D376D376D3",
"m  c #7C027C027C02",
"M  c #E79DB2CA4924",
"N  c #817181718171",
"B  c #826782678267",
"V  c #83D983D983D9",
"C  c #85BA85BA85BA",
"Z  c #897C897C897C",
"A  c #8BC58BC58BC5",
"S  c #8ED68ED68ED6",
"D  c #919B919B919B",
"F  c #95A095A095A0",
"G  c #96AA96AA96AA",
"H  c #98AE98AE98AE",
"J  c #9A739A739A73",
"K  c #9B3D9B3D9B3D",
"L  c #9C0D9C0D9C0D",
"P  c #9F129F129F12",
"I  c #A0DCA0DCA0DC",
"U  c #A1D8A1D8A1D8",
"Y  c #A334A334A334",
"T  c #A615A615A615",
"R  c #AC79AC79AC79",
"E  c #AD09AD09AD09",
"W  c #AE81AE81AE81",
"Q  c #AEBCAEBCAEBC",
"!  c #B0ADB0ADB0AD",
"~  c #B381B381B381",
"^  c #B6DAB6DAB6DA",
"/  c #BAB1BAB1BAB1",
"(  c #BB3BBB3BBB3B",
")  c #BDF5BDF5BDF5",
"_  c #BEFBBEFBBEFB",
"`  c #C044C044C044",
"'  c #C52EC52EC52E",
"]  c #C68CC68CC68C",
"[  c #C71BC71BC71B",
"{  c #CB3CCB3CCB3C",
"}  c #CE39CE39CE39",
"|  c #CF3CCF3CCF3C",
" . c #D060D060D060",
".. c #D142D142D142",
"X. c #D2C0D2C0D2C0",
"o. c #D344D344D344",
"O. c #D542D542D542",
"+. c #D639D639D639",
"@. c #D75AD75AD75A",
"#. c #D9BCD9BCD9BC",
"$. c #DED1DED1DED1",
"%. c #DF7DDF7DDF7D",
"&. c #E79DE79DE79D",
"*. c #EF99EF99EF99",
/* pixels */
"M M M M M M M M M M M M M M M M M X X M M M M M M M M M M M M M M M M M ",
"M M M M M M M M M M M M M M M M M X X M M M M M M M M M M M M M M M M M ",
"M M M M M M M M M M M M M M | | [ [ [ | @.| M M M M M M M M M M M M M M ",
"M M M M M M M M M M M | [ | | | | | | O.@.@.@. .@.M M M M M M M M M M M ",
"M M M M M M M M M | [ | | | | | | | @.@.@.@.@.@.@.| | M M M M M M M M M ",
"M M M M M M M M | [ [ | | | | | | O.@.@.%.%.%.%.@.@.| | M M M M M M M M ",
"M M M M M M M | [ [ [ [ | | | | | @.@.%.%.%.%.%.%.%.@.@.| M M M M M M M ",
"M M M M M M | [ [ [ [ [ | | | | O.@.%.%.%.&.&.&.&.%.%.@.@.| M M M M M M ",
"M M M M M | [ [ [ [ [ [ [ | | | @.@.%.%.&.&.&.&.&.&.$.$.%.@.| M M M M M ",
"M M M M | [ [ [ d d h d d h h h | @.%.&.O.L n c T @.&.$.%.%.@.| M M M M ",
"M M M M | [ [ ~ X X X X X X X X ` O.%.x X X X # # X G &.%.%.@.@.M M M M ",
"M M M | [ [ [ B X & X X X X X X ` @.n X # X X X X * X / %.%.@.@.| M M M ",
"M M M [ [ [ [ h X # A T T T R R @.O.X X X V $. .3 X 0 e %.%.@.@.O.M M M ",
"M M M [ _ _ _ w X X T [ [ [ | | @.| X 8 X *.*.*.[ X 5 X %.%.@.@.O.M M M ",
"M M ^ _ _ _ _ , X X y 5 t c ~ | | _ X X w &.&.*.~ X 8 # %.%.@.@.| [ M M ",
"M M ^ ^ ^ ^ ^ X X X X X X * X c | | [ {  .&.&.[ X X : n %.@.@.@.| [ M M ",
"M M ^ ^ ^ ^ ^ X # X 1 i , X # X U | O.@.$. .a X X 1 : O.$.@.@. .| [ M M ",
"X X R ^ ^ ^ ^ 9 0 x _ _ _ y X 8 e |  .@.B X X * X e  .@.@.@.| | | [ X X ",
"X X ~ R R R ^ ^ ^ _ _ _ _ R X 1 X | | t X & X * L @.@.@.@.O.| | [ [ X X ",
"M M R R ~ R l X X n _ _ _ S X 3 : [ i X 1 X S O.O.@.@.@. .| | | [ [ M M ",
"M M R R R R B X 1 X S ^ L * X 1 a _ X 1 X R R R R R R R | | | | [ [ M M ",
"M M ~ R R ~ ~ * X * X X X X : X / A X * X X X X X X X X | | | [ [ [ M M ",
"M M M R R R ~ T 1 X X X # X 1 G _ z X X X X X X X X * X | | | | [ M M M ",
"M M M R ~ R R R R G x a c G _ _ _ G d d d d d d d d d l [ | | | | M M M ",
"M M M ~ R R R ~ R R ^ ^ ^ ^ _ _ _ _ _ _ [ [ [ [ [ [ [ [ [ | | | | M M M ",
"M M M M R ~ R R ~ R R / ^ ^ ^ ^ _ _ _ _ _ [ [ [ [ [ [ [ [ | | | M M M M ",
"M M M M ^ R R ~ ~ R R ^ ^ ^ ^ ^ ^ _ _ _ _ _ _ _ _ _ [ [ [ | | | M M M M ",
"M M M M M ~ R R R R ~ R R / ^ ^ ^ ^ _ _ _ _ _ _ _ _ [ [ | | | M M M M M ",
"M M M M M M R ~ R R ~ ~ R R ^ / ^ ^ ^ ^ ^ ^ ^ _ _ _ [ [ | | M M M M M M ",
"M M M M M M M R ~ R R R ~ ~ R R R / ^ ^ ^ ^ ^ ^ _ _ [ [ | M M M M M M M ",
"M M M M M M M M ~ R ~ R R R R R ~ R R ^ ^ ^ ^ ^ _ _ [ [ M M M M M M M M ",
"M M M M M M M M M R R R ~ R ~ R R R ~ R ^ ^ ^ ^ _ _ [ M M M M M M M M M ",
"M M M M M M M M M M M R ~ R R ~ R ~ R R R / ^ _ ^ M M M M M M M M M M M ",
"M M M M M M M M M M M M M M R R R R R ~ ^ ^ M M M M M M M M M M M M M M ",
"M M M M M M M M M M M M M M M M M X X M M M M M M M M M M M M M M M M M ",
"M M M M M M M M M M M M M M M M M X X M M M M M M M M M M M M M M M M M "
};
