/* XPM */
static char *wmoku-0-LB-162[] = {
/* columns rows colors chars-per-pixel */
"36 36 118 2",
"   c #000400040004",
".  c #016D016D016D",
"X  c #021B021B021B",
"o  c #035403540354",
"O  c #045804580458",
"+  c #05A605A605A6",
"@  c #069806980698",
"#  c #076707670767",
"$  c #099D099D099D",
"%  c #0A8B0A8B0A8B",
"&  c #0B930B930B93",
"*  c #0CD80CD80CD8",
"=  c #0D800D800D80",
"-  c #0EAC0EAC0EAC",
";  c #0F8C0F8C0F8C",
":  c #106E106E106E",
">  c #11C311C311C3",
",  c #139513951395",
"<  c #147414741474",
"1  c #15F415F415F4",
"2  c #165016501650",
"3  c #176B176B176B",
"4  c #186318631863",
"5  c #198419841984",
"6  c #1A931A931A93",
"7  c #1B3E1B3E1B3E",
"8  c #1C951C951C95",
"9  c #1E691E691E69",
"0  c #1F381F381F38",
"q  c #206320632063",
"w  c #235323532353",
"e  c #247C247C247C",
"r  c #295929592959",
"t  c #2D002D002D00",
"y  c #2DC12DC12DC1",
"u  c #346034603460",
"i  c #383138313831",
"p  c #38B538B538B5",
"a  c #3D653D653D65",
"s  c #3EB83EB83EB8",
"d  c #3F9A3F9A3F9A",
"f  c #4C714C714C71",
"g  c #4FC74FC74FC7",
"h  c #52A752A752A7",
"j  c #53C453C453C4",
"k  c #571C571C571C",
"l  c #5AAA5AAA5AAA",
"z  c #5E1E5E1E5E1E",
"x  c #5F5A5F5A5F5A",
"c  c #5FEB5FEB5FEB",
"v  c #60E460E460E4",
"b  c #61F561F561F5",
"n  c #647A647A647A",
"m  c #672C672C672C",
"M  c #683668366836",
"N  c #699C699C699C",
"B  c #6D1F6D1F6D1F",
"V  c #6DB26DB26DB2",
"C  c #6EDA6EDA6EDA",
"Z  c #72DC72DC72DC",
"A  c #77E177E177E1",
"S  c #E79DB2CA4924",
"D  c #850885088508",
"F  c #85BA85BA85BA",
"G  c #86F486F486F4",
"H  c #891689168916",
"J  c #8C628C628C62",
"K  c #8DD58DD58DD5",
"L  c #8F198F198F19",
"P  c #90CD90CD90CD",
"I  c #922F922F922F",
"U  c #944194419441",
"Y  c #94F094F094F0",
"T  c #962496249624",
"R  c #983098309830",
"E  c #9AAE9AAE9AAE",
"W  c #9EF79EF79EF7",
"Q  c #9FC39FC39FC3",
"!  c #A105A105A105",
"~  c #A5F7A5F7A5F7",
"^  c #A783A783A783",
"/  c #A886A886A886",
"(  c #A9A8A9A8A9A8",
")  c #AA6EAA6EAA6E",
"_  c #AD18AD18AD18",
"`  c #AEBCAEBCAEBC",
"'  c #B035B035B035",
"]  c #B42BB42BB42B",
"[  c #B6ADB6ADB6AD",
"{  c #B6DCB6DCB6DC",
"}  c #B7E9B7E9B7E9",
"|  c #BA40BA40BA40",
" . c #BAD3BAD3BAD3",
".. c #BC0DBC0DBC0D",
"X. c #BEFBBEFBBEFB",
"o. c #BFCCBFCCBFCC",
"O. c #C139C139C139",
"+. c #C209C209C209",
"@. c #C320C320C320",
"#. c #C476C476C476",
"$. c #C581C581C581",
"%. c #C691C691C691",
"&. c #C71BC71BC71B",
"*. c #C822C822C822",
"=. c #CA74CA74CA74",
"-. c #CC0ACC0ACC0A",
";. c #CE24CE24CE24",
":. c #CF3BCF3BCF3B",
">. c #D142D142D142",
",. c #D344D344D344",
"<. c #D54BD54BD54B",
"1. c #D75AD75AD75A",
"2. c #DD48DD48DD48",
"3. c #DF78DF78DF78",
"4. c #E23EE23EE23E",
"5. c #E322E322E322",
"6. c #E797E797E797",
"7. c #EFB3EFB3EFB3",
/* pixels */
"S S S S S S S S S S S S S S S S S     S S S S S S S S S S S S S S S S S ",
"S S S S S S S S S S S S S S S S S     S S S S S S S S S S S S S S S S S ",
"S S S S S S S S S S S S S S :.:.&.&.&.:.1.:.S S S S S S S S S S S S S S ",
"S S S S S S S S S S S :.&.:.:.:.:.:.:.1.1.1.1.:.1.S S S S S S S S S S S ",
"S S S S S S S S S :.&.:.:.:.:.:.:.:.1.1.1.1.1.1.1.:.:.S S S S S S S S S ",
"S S S S S S S S :.&.&.:.:.:.:.:.:.1.1.1.3.3.3.3.1.1.:.:.S S S S S S S S ",
"S S S S S S S :.&.&.&.&.:.:.:.:.:.1.1.3.3.3.3.3.3.3.1.1.:.S S S S S S S ",
"S S S S S S :.&.&.&.&.&.:.:.:.:.1.1.3.3.3.6.6.6.6.3.3.1.1.:.S S S S S S ",
"S S S S S :.&.&.&.&.&.&.&.:.:.:.1.1.3.3.6.6.6.6.6.6.3.3.3.1.:.S S S S S ",
"S S S S :.&.W k z &.&.&.&.:.:.( A N R 3.6.7.7.7.7.,.T V V R *.:.S S S S ",
"S S S S :.&.4 =   &.&.&.&.@.0     @ @   ..7.7.7.V       @ @   K S S S S ",
"S S S *.' N   4   &.&.&.&.>   3       0   4.7.F   @ @       >   ^ S S S ",
"S S S         4   X.&.&.Z   q   ' @.=     ( 7.      F 1.&.0   t i S S S ",
"S S S         4   X.&.&.3     K 1.1.T     v 4.  r   6.6.3.{   0   S S S ",
"S S { I I I   4   X.X.&.      ^ V v T *.6.6.:.    u 6.6.3.(   e @ &.S S ",
"S S { { { {   4   X.X.X.  3       @ @   K 6.6.,.1.3.6.3.X.    > V &.S S ",
"S S { { { {   4   X.X.X.    @         %   ..3.6.6.3.,.j     4 > &.&.S S ",
"    ' ' { {   3   X.X.X.      G ,.:.j   t d 3.3.3.F     =   u @.:.&.    ",
"    ' ' ' '   3   X.X.X.  3   @.&.:.{   4   1.1.d   =   = W :.:.&.&.    ",
"S S ' ( ' '   3   { X.X.  @   ..&.&.W   0 % :.j   4   T :.:.:.:.&.&.S S ",
"S S ' ' ' '   3   { X.X.d   4 d ' ' 3   q j &.  4   ' ' ' ' ( ' ( &.S S ",
"S S ' ' ' (   3   { { X.'     >       >   ..I   >                 &.S S ",
"S S S ( ' '   %   { { { X.I       @     T &.z                 =   S S S ",
"S S S ' ' ' f f j { { { { X.{ F z N T @.&.&.! k k k k k k k z k v S S S ",
"S S S ' ' ' ' ' ' ' ' { { { X.X.X.X.X.X.&.&.&.&.&.&.&.&.&.:.:.:.:.S S S ",
"S S S S ( ' ' ( ' ( ' { { { { { X.X.X.X.X.&.&.&.&.&.&.&.&.:.:.:.S S S S ",
"S S S S { ' ' ' ' ' ' { { { { { { X.X.X.X.X.X.X.X.X.&.&.&.:.:.:.S S S S ",
"S S S S S ' ' ( ' ' ( ' ' { { { { { X.X.X.X.X.X.X.X.&.&.:.:.:.S S S S S ",
"S S S S S S ' ( ' ' ' ' ' ' { ' { { { { { { { X.X.X.&.&.:.:.S S S S S S ",
"S S S S S S S ' ( ' ' ( ( ' ' ' ' { { { { { { { X.X.&.&.:.S S S S S S S ",
"S S S S S S S S ' ' ' ' ' ' ' ' ' ' ' { { { { { X.X.&.&.S S S S S S S S ",
"S S S S S S S S S ( ' ( ' ' ' ( ' ( ' ' { { { { X.X.&.S S S S S S S S S ",
"S S S S S S S S S S S ' ' ( ' ' ' ' ( ' ( { { X.{ S S S S S S S S S S S ",
"S S S S S S S S S S S S S S ' ' ' ' ' ' { { S S S S S S S S S S S S S S ",
"S S S S S S S S S S S S S S S S S     S S S S S S S S S S S S S S S S S ",
"S S S S S S S S S S S S S S S S S     S S S S S S S S S S S S S S S S S "
};
