/* XPM */
static char *wmoku-0-LB-254[] = {
/* columns rows colors chars-per-pixel */
"36 36 135 2",
"   c #000800080008",
".  c #01A301A301A3",
"X  c #02B1021400D9",
"o  c #02A102A102A1",
"O  c #036603660366",
"+  c #0589044601BF",
"@  c #04A204A204A2",
"#  c #05A205A205A2",
"$  c #061D061D061D",
"%  c #08C908C908C9",
"&  c #0A290A290A29",
"*  c #184212B907A9",
"=  c #17B817B817B8",
"-  c #1B261B261B26",
";  c #1E001E001E00",
":  c #1F3A1F3A1F3A",
">  c #206C206C206C",
",  c #245C245C245C",
"<  c #26CB26CB26CB",
"1  c #29CA29CA29CA",
"2  c #2A942A942A94",
"3  c #2BF82BF82BF8",
"4  c #2D4B2D4B2D4B",
"5  c #2F472F472F47",
"6  c #30B130B130B1",
"7  c #323B323B323B",
"8  c #343034303430",
"9  c #345234523452",
"0  c #35BD35BD35BD",
"q  c #364536453645",
"w  c #389538953895",
"e  c #3E383E383E38",
"r  c #534440471A4C",
"t  c #65554E382000",
"y  c #6BFC535B221A",
"u  c #6E29550922CA",
"i  c #442544254425",
"p  c #456E456E456E",
"a  c #473447344734",
"s  c #487F487F487F",
"d  c #4C714C714C71",
"f  c #4ED64ED64ED6",
"g  c #4FFF4FFF4FFF",
"h  c #506550655065",
"j  c #538E538E538E",
"k  c #571C571C571C",
"l  c #576257625762",
"z  c #5AAA5AAA5AAA",
"x  c #5BD75BD75BD7",
"c  c #5CB25CB25CB2",
"v  c #5E385E385E38",
"b  c #611861186118",
"n  c #61C761C761C7",
"m  c #62E162E162E1",
"M  c #655565556555",
"N  c #662966296629",
"B  c #683168316831",
"V  c #6BE56BE56BE5",
"C  c #6F176F176F17",
"Z  c #718A718A718A",
"A  c #744774477447",
"S  c #74BA74BA74BA",
"D  c #766476647664",
"F  c #78DB78DB78DB",
"G  c #7BA77BA77BA7",
"H  c #7D777D777D77",
"J  c #7EEF7EEF7EEF",
"K  c #8CA86C932C6B",
"L  c #AAE083E735F6",
"P  c #BFA693F03C85",
"I  c #D157A199421B",
"U  c #DC9AAA4A45AA",
"Y  c #E011ACF746C2",
"T  c #E402B0014800",
"R  c #E602B18D48A2",
"E  c #E79DB2CA4924",
"W  c #80FF80FF80FF",
"Q  c #836083608360",
"!  c #862A862A862A",
"~  c #876B876B876B",
"^  c #896289628962",
"/  c #89BF89BF89BF",
"(  c #8B0D8B0D8B0D",
")  c #8C6C8C6C8C6C",
"_  c #8D0B8D0B8D0B",
"`  c #90B090B090B0",
"'  c #920692069206",
"]  c #92A292A292A2",
"[  c #946594659465",
"{  c #953695369536",
"}  c #95D495D495D4",
"|  c #974D974D974D",
" . c #981598159815",
".. c #98E598E598E5",
"X. c #99B899B899B8",
"o. c #9AA59AA59AA5",
"O. c #9F769F769F76",
"+. c #9FD69FD69FD6",
"@. c #A30FA30FA30F",
"#. c #A45BA45BA45B",
"$. c #A654A654A654",
"%. c #A6EBA6EBA6EB",
"&. c #A863A863A863",
"*. c #A93AA93AA93A",
"=. c #A9B1A9B1A9B1",
"-. c #AEBBAEBBAEBB",
";. c #B15FB15FB15F",
":. c #B1F3B1F3B1F3",
">. c #B37BB37BB37B",
",. c #B3E0B3E0B3E0",
"<. c #B563B563B563",
"1. c #B6DAB6DAB6DA",
"2. c #B91DB91DB91D",
"3. c #BA9DBA9DBA9D",
"4. c #BD3DBD3DBD3D",
"5. c #BE97BE97BE97",
"6. c #BEFBBEFBBEFB",
"7. c #C08DC08DC08D",
"8. c #C166C166C166",
"9. c #C20EC20EC20E",
"0. c #C343C343C343",
"q. c #C4AAC4AAC4AA",
"w. c #C65BC65BC65B",
"e. c #C71BC71BC71B",
"r. c #CF3CCF3CCF3C",
"t. c #D439D439D439",
"y. c #D550D550D550",
"u. c #D75CD75CD75C",
"i. c #D935D935D935",
"p. c #DE93DE93DE93",
"a. c #DF7BDF7BDF7B",
"s. c #E6B0E6B0E6B0",
"d. c #E79DE79DE79D",
"f. c #E98CE98CE98C",
"g. c #EFBEEFBEEFBE",
/* pixels */
"E E E E E E E E E E E E E E E E E o o R E E E E E E E E E E E E E E E E ",
"E E E E E E E E E E E E E E E E E o o R E E E E E E E E E E E E E E E E ",
"E E E E E E E E E E E E E E r.r.e.e.e.r.u.r.E E E E E E E E E E E E E E ",
"E E E E E E E E E E E r.e.r.r.r.r.r.r.y.u.u.u.r.u.E E E E E E E E E E E ",
"E E E E E E E E E r.e.r.r.r.r.r.r.r.u.u.u.u.u.u.u.r.r.E E E E E E E E E ",
"E E E E E E E E r.e.e.r.r.r.r.r.r.y.u.u.a.a.a.a.u.u.r.r.E E E E E E E E ",
"E E E E E E E r.e.e.e.e.r.r.r.r.r.y.i.a.a.a.a.a.a.a.u.u.r.E E E E E E E ",
"E E E E E E r.e.e.e.e.e.r.r.r.r.y.i.a.a.a.d.d.d.d.a.a.u.u.r.E E E E E E ",
"E E E E R r.e.e.e.e.e.e.e.r.r.r.y.y.a.a.f.f.s.s.d.d.a.a.a.y.r.E E E E E ",
"E E E E %.C k V O.e.e.e.e. .z z v v m m M  .g.g.g.d.s.a.a.B v ] E E E E ",
"E E I * o o o o o 2 4.e.e.d o o o o o o o i g.g.g.g.d.s.~ o o v E E E E ",
"E T + o o o o o o @ 2 e.e.- o o o o o o o a g.g.g.g.d.e.o o o v r.E E E ",
"E L o o o @.2.J o o o &.e.o o o ;.1.2.8.8.i.g.g.g.g.f.& o o o v u.E E E ",
"E u o o ^ 5.5.5.7 o o ~ 5.o o : y.y.a.a.f.g.g.g.g.g.m o o o o v y.E E E ",
"E r o o @.5.5.5.4 o o } -.o o h w > v  .s.s.f.g.g.&.o o q @ o z r.e.E R ",
"E Y %.%.1.1.1.C o o o ;.} o o o o o o o = y.s.f.r.o o o ] @ o v r.e.E R ",
"R R 1.1.1.^ @ o o o D 5.F @ o o a e o o o 2 a.s.7 @ o @._ & o z r.e.E R ",
"o o -.%.7 o o @ o J 5.5.J 7 q ;.r.r.8.o o o 8.J o @ v y.^ @ o z r.e.o o ",
"o o ] o o o o d %.5.5.5.8.e.e.e.e.r.r.i o o ] o o o : : : o o : - A o o ",
"R U o o o q %.1.1.1.5.5.o o o 8.e.e.r.2 o o @.o o o o o o o o o o k R E ",
"R K o o k _ ] } } } O.2., o o z ;.;.Z o o o 5.z z z z z z @ o z k ) E E ",
"R P o o o o o o o o o F ] o o o o o o o o C r.r.r.r.r.r.~ o o k e.e.E E ",
"R o o o o o o o o o @ D 5.~ o o o o o o M e.e.e.r.r.r.r.~ @ o z e.E E E ",
"R y t d d d d d d h d } 1.5.;.^ m v ^ ;.e.e.e.e.e.e.e.e.@.z z _ r.E E E ",
"R R E -.-.-.-.-.-.-.1.1.1.1.5.5.8.5.5.5.e.e.e.e.e.e.e.e.e.r.r.r.r.E E E ",
"E E E E -.-.-.-.-.-.-.1.1.1.1.1.5.5.5.5.8.e.e.e.e.e.e.e.e.r.r.r.E E E E ",
"E E E E 1.-.-.-.-.-.-.1.1.1.1.1.1.5.5.8.5.5.5.5.5.5.e.e.e.r.r.r.E E E E ",
"E E E E E -.-.-.-.-.-.-.-.1.1.1.1.1.5.5.5.5.5.5.5.5.e.e.r.r.r.E E E E E ",
"E E E E E E -.-.-.-.-.-.-.-.1.1.1.1.1.1.1.1.1.5.5.5.e.e.r.r.E E E E E E ",
"E E E E E E E -.-.-.-.-.-.-.-.-.-.1.1.1.1.1.1.1.5.8.e.e.r.E E E E E E E ",
"E E E E E E E E -.-.-.-.-.-.-.-.-.-.-.1.1.1.1.1.5.5.e.e.E E E E E E E E ",
"E E E E E E E E E -.-.-.-.-.-.-.-.-.-.-.1.1.1.2.5.5.e.E E E E E E E E E ",
"E E E E E E E E E E E -.-.-.-.-.-.-.-.-.-.1.1.5.1.E E E E E E E E E E E ",
"E E E E E E E E E E E E E E -.-.-.-.-.-.1.1.E E E E E E E E E E E E E E ",
"E E E E E E E E E E E E E E E E R o o E R E E E E E E E E E E E E E E E ",
"E E E E E E E E E E E E E E E E R o o E R R E E E E E E E E E E E E E E "
};
