/* XPM */
static char *wmoku-0-LB-123[] = {
/* columns rows colors chars-per-pixel */
"36 36 111 2",
"   c #000200020002",
".  c #016D016D016D",
"X  c #028D028D028D",
"o  c #04B504B504B5",
"O  c #056605660566",
"+  c #067706770677",
"@  c #075E075E075E",
"#  c #085F085F085F",
"$  c #0AD10AD10AD1",
"%  c #0BB10BB10BB1",
"&  c #0C5C0C5C0C5C",
"*  c #0D830D830D83",
"=  c #0E0E0E0E0E0E",
"-  c #0FDA0FDA0FDA",
";  c #11AB11AB11AB",
":  c #153215321532",
">  c #16A916A916A9",
",  c #177717771777",
"<  c #186818681868",
"1  c #198819881988",
"2  c #1ACF1ACF1ACF",
"3  c #1C721C721C72",
"4  c #219421942194",
"5  c #225722572257",
"6  c #256325632563",
"7  c #273C273C273C",
"8  c #2A8E2A8E2A8E",
"9  c #2D062D062D06",
"0  c #2E462E462E46",
"q  c #2F462F462F46",
"w  c #313531353135",
"e  c #39E939E939E9",
"r  c #3ADE3ADE3ADE",
"t  c #3E8E3E8E3E8E",
"y  c #441E441E441E",
"u  c #45E245E245E2",
"i  c #495749574957",
"p  c #4C714C714C71",
"a  c #4E104E104E10",
"s  c #4FFF4FFF4FFF",
"d  c #529852985298",
"f  c #538E538E538E",
"g  c #571C571C571C",
"h  c #57B857B857B8",
"j  c #5BA25BA25BA2",
"k  c #5E1E5E1E5E1E",
"l  c #5EDC5EDC5EDC",
"z  c #611761176117",
"x  c #621A621A621A",
"c  c #672C672C672C",
"v  c #693069306930",
"b  c #6AD66AD66AD6",
"n  c #6E7B6E7B6E7B",
"m  c #707670767076",
"M  c #721872187218",
"N  c #739873987398",
"B  c #771877187718",
"V  c #77F477F477F4",
"C  c #79E579E579E5",
"Z  c #7AD27AD27AD2",
"A  c #7F697F697F69",
"S  c #E79DB2CA4924",
"D  c #83E383E383E3",
"F  c #84D284D284D2",
"G  c #866286628662",
"H  c #893C893C893C",
"J  c #8B7D8B7D8B7D",
"K  c #922F922F922F",
"L  c #93E093E093E0",
"P  c #955C955C955C",
"I  c #95B895B895B8",
"U  c #97EB97EB97EB",
"Y  c #98E098E098E0",
"T  c #9EDB9EDB9EDB",
"R  c #A11DA11DA11D",
"E  c #A63FA63FA63F",
"W  c #AD08AD08AD08",
"Q  c #AEBEAEBEAEBE",
"!  c #B02BB02BB02B",
"~  c #B1F3B1F3B1F3",
"^  c #B36CB36CB36C",
"/  c #B6E0B6E0B6E0",
"(  c #B826B826B826",
")  c #BA6DBA6DBA6D",
"_  c #BBE5BBE5BBE5",
"`  c #BD26BD26BD26",
"'  c #BE4DBE4DBE4D",
"]  c #BEFABEFABEFA",
"[  c #C1CEC1CEC1CE",
"{  c #C60EC60EC60E",
"}  c #C71AC71AC71A",
"|  c #C83AC83AC83A",
" . c #C8CCC8CCC8CC",
".. c #CAB9CAB9CAB9",
"X. c #CB22CB22CB22",
"o. c #CCA9CCA9CCA9",
"O. c #CEBCCEBCCEBC",
"+. c #CF3CCF3CCF3C",
"@. c #D0B9D0B9D0B9",
"#. c #D442D442D442",
"$. c #D4FFD4FFD4FF",
"%. c #D65AD65AD65A",
"&. c #D75CD75CD75C",
"*. c #D9BCD9BCD9BC",
"=. c #DAB4DAB4DAB4",
"-. c #DF7DDF7DDF7D",
";. c #E2F6E2F6E2F6",
":. c #E602E602E602",
">. c #E79DE79DE79D",
",. c #EED1EED1EED1",
"<. c #EFBEEFBEEFBE",
/* pixels */
"S S S S S S S S S S S S S S S S S     S S S S S S S S S S S S S S S S S ",
"S S S S S S S S S S S S S S S S S     S S S S S S S S S S S S S S S S S ",
"S S S S S S S S S S S S S S +.+.} } } +.&.+.S S S S S S S S S S S S S S ",
"S S S S S S S S S S S +.} +.+.+.+.+.+.&.&.&.&.+.&.S S S S S S S S S S S ",
"S S S S S S S S S +.} +.+.+.+.+.+.+.&.&.&.&.&.&.&.+.+.S S S S S S S S S ",
"S S S S S S S S +.} } +.+.+.+.+.+.&.&.&.-.-.-.-.&.&.+.+.S S S S S S S S ",
"S S S S S S S +.} } } } +.+.+.+.+.&.&.-.-.-.-.-.-.-.&.&.+.S S S S S S S ",
"S S S S S S +.} } } } } +.+.+.+.&.&.-.-.-.>.>.>.>.-.-.&.&.+.S S S S S S ",
"S S S S S +.} } } } } } } +.+.+.&.*.-.-.>.>.>.>.>.>.-.-.-.*.@.S S S S S ",
"S S S S +.} T h k } } } } +.] G v v U *.>.<.<.<.<.] U x J ! &.+.S S S S ",
"S S S S +.} < *   } } } | k       @ @   U <.<.<.a       $   u &.S S S S ",
"S S S | ! v   <   } } } n   @         *   [ <.V   $           N +.S S S ",
"S S S         <   ] } }       N | ] 3   w t <.      U *.A   <   *.S S S ",
"S S S         <   ] } ]   5   +.&.&./   5   <.  :   -.>.*.      | S S S ",
"S S / K K K   <   ] ] !     0 +.@.*.R   7 @ >.      >.>.+.  <   | | S S ",
"S S / / / /   <   ] ] ] ( / ] +.+.!     ; Z >.>.>.>.u <       v +.} S S ",
"S S / / / /   <   ] ] ] } } | ( a     < ; &.-.>.>.-.          G +.} S S ",
"    W ( / (   :   ] ] ] ] | Z     *   r | &.-.-.-.-.Z h 0   @   D }     ",
"    W ! W !   <   ] ] ] ] r   $   * U @.+.&.*.h h x &.&.&.U   7 @ }     ",
"S S ! W ! W   <   / ] ] i   <   J } +.+.+.+.+.  $   +.&.+.!   <   } S S ",
"S S ! W ! W   <   / ] (   <   E E E E W W W +.      Z ] ( 0   8 r } S S ",
"S S W ! ! W   :   / / G   *                 +.h   @         $   R } S S ",
"S S S ! W !   *   / / h                 *   } } u       @     G } S S S ",
"S S S W W W a i f / / K a f f h f f h h h k } } | W V k N U } +.+.S S S ",
"S S S ! W ! ! W ! W ( ( / / ] ] ] ] ] ] } } } } } } } } } +.+.+.+.S S S ",
"S S S S ! W W ! W ! W ( / / / / ] ] ] ] ] } } } } } } } } @.+.+.S S S S ",
"S S S S ( W ! W W ! W ( / / / / / ] ] ] ] ] ] ] ] ] } } } +.+.+.S S S S ",
"S S S S S ! W ! ! W ! W W ( / / / / ] ] ] ] ] ] ] ] } } +.+.+.S S S S S ",
"S S S S S S ! W ! W ! ! ! W / / / / / / / / / ] ] ] } } +.+.S S S S S S ",
"S S S S S S S ! W ! ! W W ! W ! W / / / / / / / ] ] } } +.S S S S S S S ",
"S S S S S S S S ! W W ! ! W ! W W ! W ( / / / / ] ] } } S S S S S S S S ",
"S S S S S S S S S W ! W ! ! W ! ! W ! W / / / / ] ] } S S S S S S S S S ",
"S S S S S S S S S S S W ! W ! W ! ! W ! W ( / [ / S S S S S S S S S S S ",
"S S S S S S S S S S S S S S W ! W ! ! W / / S S S S S S S S S S S S S S ",
"S S S S S S S S S S S S S S S S S     S S S S S S S S S S S S S S S S S ",
"S S S S S S S S S S S S S S S S S     S S S S S S S S S S S S S S S S S "
};
