/* XPM */
static char *wmoku-0-LB-0[] = {
/* columns rows colors chars-per-pixel */
"36 36 63 1",
"  c #000600060006",
". c #01A501A501A5",
"X c #027702770277",
"o c #039503950395",
"O c #04BC04BC04BC",
"+ c #059305930593",
"@ c #075607560756",
"# c #179417941794",
"$ c #24DF24DF24DF",
"% c #259825982598",
"& c #2EE02EE02EE0",
"* c #42C942C942C9",
"= c #459B459B459B",
"- c #554955495549",
"; c #571C571C571C",
": c #595159515951",
"> c #59E059E059E0",
", c #5C085C085C08",
"< c #5E1D5E1D5E1D",
"1 c #5FEB5FEB5FEB",
"2 c #657865786578",
"3 c #66F666F666F6",
"4 c #6C2E6C2E6C2E",
"5 c #6DD96DD96DD9",
"6 c #6EB66EB66EB6",
"7 c #726472647264",
"8 c #76C176C176C1",
"9 c #79E779E779E7",
"0 c #7C937C937C93",
"q c #7FFB7FFB7FFB",
"w c #E79DB2CA4924",
"e c #821E821E821E",
"r c #843584358435",
"t c #850B850B850B",
"y c #87ED87ED87ED",
"u c #8D748D748D74",
"i c #8F0F8F0F8F0F",
"p c #91DF91DF91DF",
"a c #999399939993",
"s c #A0FAA0FAA0FA",
"d c #A336A336A336",
"f c #A715A715A715",
"g c #AEBAAEBAAEBA",
"h c #B1D0B1D0B1D0",
"j c #B331B331B331",
"k c #B4FBB4FBB4FB",
"l c #B6DAB6DAB6DA",
"z c #B7F7B7F7B7F7",
"x c #BD58BD58BD58",
"c c #BE53BE53BE53",
"v c #BEFBBEFBBEFB",
"b c #C31CC31CC31C",
"n c #C4F7C4F7C4F7",
"m c #C71AC71AC71A",
"M c #C89AC89AC89A",
"N c #CD82CD82CD82",
"B c #CF3BCF3BCF3B",
"V c #D651D651D651",
"C c #D75CD75CD75C",
"Z c #DC3EDC3EDC3E",
"A c #DF7DDF7DDF7D",
"S c #E79DE79DE79D",
"D c #EFBEEFBEEFBE",
/* pixels */
"wwwwwwwwwwwwwwwww  wwwwwwwwwwwwwwwww",
"wwwwwwwwwwwwwwwww  wwwwwwwwwwwwwwwww",
"wwwwwwwwwwwwwwBBmmmBCBwwwwwwwwwwwwww",
"wwwwwwwwwwwBmBBBBBBCCCCBCwwwwwwwwwww",
"wwwwwwwwwBmBBBBBBBCCCCCCCBBwwwwwwwww",
"wwwwwwwwBmmBBBBBBCCCAAAACCBBwwwwwwww",
"wwwwwwwBmmmmBBBBBCCAAAAAAACCBwwwwwww",
"wwwwwwBmmmmmBBBBCCAAASSSSAACCBwwwwww",
"wwwwwBmmmmmmmBBBCCAASSSSSSAAACBwwwww",
"wwwwBmmmmmmmmBBh9<tBSDDDDSSAAACBwwww",
"wwwwBmmmvmmmMB> + + tDDDDDSSAACCwwww",
"wwwBmmmvvmmmM0       lDDDDSSAACCBwww",
"wwwmmmmvvvmmb   em<  #DDDDDSAACCCwww",
"wwwmvvvvvvmms   CCC   ADDDSSAACCCwww",
"wwlvvvvvvvvm0+ <BCC$  lDDSSSAACCBmww",
"wwlllllvvvvv2 @7BBC= +dSSSSAACCCBmww",
"wwlllllvvvvv> +eBBC> +iSSAAAACCBBmww",
"  glllllvvvv6 +6BBB*  fSAAACCCBBBm  ",
"  gggglllvvvt  <mBB$  lCCCCCCCBBmm  ",
"wwggggllllvva   mmM   vCCCCCBBBBmmww",
"wwggggglllvvv   tv2  &BBBBBBBBBBmmww",
"wwgggggglllvv8       sBBBBBBBBBmmmww",
"wwwgggggglllvv4     immmBBBBBBBBmwww",
"wwwggggggllllvvde-ilmmmmmmmmmBBBBwww",
"wwwgggggggllllvvvvvvmmmmmmmmmBBBBwww",
"wwwwggggggglllllvvvvvmmmmmmmmBBBwwww",
"wwwwlggggggllllllvvvvvvvvvmmmBBBwwww",
"wwwwwgggggggglllllvvvvvvvvmmBBBwwwww",
"wwwwwwgggggggglllllllllvvvmmBBwwwwww",
"wwwwwwwgggggggggglllllllvvmmBwwwwwww",
"wwwwwwwwggggggggggglllllvvmmwwwwwwww",
"wwwwwwwwwgggggggggggllllvvmwwwwwwwww",
"wwwwwwwwwwwggggggggggllvlwwwwwwwwwww",
"wwwwwwwwwwwwwwggggggllwwwwwwwwwwwwww",
"wwwwwwwwwwwwwwwww  wwwwwwwwwwwwwwwww",
"wwwwwwwwwwwwwwwww  wwwwwwwwwwwwwwwww"
};
