/* XPM */
static char *wmoku-0-LB-17[] = {
/* columns rows colors chars-per-pixel */
"36 36 66 1",
"  c #000300030003",
". c #010D010D010D",
"X c #02FD02FD02FD",
"o c #03A403A403A4",
"O c #069C069C069C",
"+ c #0CC40CC40CC4",
"@ c #0DDE0DDE0DDE",
"# c #0F320F320F32",
"$ c #102810281028",
"% c #112611261126",
"& c #186318631863",
"* c #196D196D196D",
"= c #1AA31AA31AA3",
"- c #251425142514",
"; c #263D263D263D",
": c #27E627E627E6",
"> c #291529152915",
", c #297229722972",
"< c #2A5C2A5C2A5C",
"1 c #2B3E2B3E2B3E",
"2 c #2FBE2FBE2FBE",
"3 c #3B1F3B1F3B1F",
"4 c #4FF84FF84FF8",
"5 c #52E852E852E8",
"6 c #538E538E538E",
"7 c #571C571C571C",
"8 c #5A475A475A47",
"9 c #5AAA5AAA5AAA",
"0 c #5E385E385E38",
"q c #61DE61DE61DE",
"w c #655565556555",
"e c #672C672C672C",
"r c #68E368E368E3",
"t c #6A9F6A9F6A9F",
"y c #6CC86CC86CC8",
"u c #723072307230",
"i c #E79DB2CA4924",
"p c #812C812C812C",
"a c #8CE48CE48CE4",
"s c #923092309230",
"d c #986498649864",
"f c #9A6C9A6C9A6C",
"g c #9EDB9EDB9EDB",
"h c #A1D9A1D9A1D9",
"j c #A9D5A9D5A9D5",
"k c #AEA1AEA1AEA1",
"l c #AEBAAEBAAEBA",
"z c #B005B005B005",
"x c #B2AEB2AEB2AE",
"c c #B442B442B442",
"v c #B6DAB6DAB6DA",
"b c #B95BB95BB95B",
"n c #BA9DBA9DBA9D",
"m c #BD55BD55BD55",
"M c #BEFBBEFBBEFB",
"N c #C072C072C072",
"B c #C166C166C166",
"V c #C71BC71BC71B",
"C c #C82FC82FC82F",
"Z c #CAB9CAB9CAB9",
"A c #CF3CCF3CCF3C",
"S c #D75AD75AD75A",
"D c #DF7DDF7DDF7D",
"F c #E119E119E119",
"G c #E79DE79DE79D",
"H c #EFBEEFBEEFBE",
/* pixels */
"iiiiiiiiiiiiiiiii  iiiiiiiiiiiiiiiii",
"iiiiiiiiiiiiiiiii  iiiiiiiiiiiiiiiii",
"iiiiiiiiiiiiiiAAVVVASAiiiiiiiiiiiiii",
"iiiiiiiiiiiAVAAAAAASSSSASiiiiiiiiiii",
"iiiiiiiiiAVAAAAAAASSSSSSSAAiiiiiiiii",
"iiiiiiiiAVVAAAAAASSSDDDDSSAAiiiiiiii",
"iiiiiiiAVVVVAAAAASSDDDDDDDSSAiiiiiii",
"iiiiiiAVVVVVAAAASSDDDGGGGDDSSAiiiiii",
"iiiiiAVVVVVVCAAASSDDGGGGGGDDDSAiiiii",
"iiiiAVVVVVVVg9qAC0qeerrrrerDDDSAiiii",
"iiiiAVVVMVVV*# Ah        # GDDSSiiii",
"iiiAVVVMMNze * Aj        ; GDDSSAiii",
"iiiVVVVMM    * ASvbNNCC2  vGDDSSSiii",
"iiiVMMMMM    * ASSDDGHa %uGGDDSSSiii",
"iivMMMMMMssd * AASSDGS > DGGDDSSAVii",
"iivvvvvMMMMM * AAASDD3  zGGDDSSSAVii",
"iivvvvvMMMMM * VAASSb 22GDDDDSSAAVii",
"  kvvvvvMMMM * VAAAS>  vDDDSSSAAAV  ",
"  kkkkvvvMMM * VVAAb >#SSSSSSSAAVV  ",
"iikkkkvvvvMM * VVVA5 &uSSSSSAAAAVVii",
"iikkkkkvvvMM & VVVCOO MAAAAAAAAAVVii",
"iikkkkkkvvvM & MVVz ;OAAAAAAAAAVVVii",
"iiikkkkkkvvv # MMVy >5VVAAAAAAAAViii",
"iiizkkkkkvvv559MMMg77dVVVVVVVAAAAiii",
"iiikkkkkkkbvvvMMMMMMVVVVVVVVVAAAAiii",
"iiiikkkkkkkvvvvvMMMMMVVVVVVVVAAAiiii",
"iiiivzkkkkkvvvvvvMMMMMMMMMVVVAAAiiii",
"iiiiikkkkkkkkvvvvvMMMMMMMMVVAAAiiiii",
"iiiiiikkkkkkkkvvvvvvvvvMMMVVAAiiiiii",
"iiiiiiikkkkkkkkkkvvvvvvvMMVVAiiiiiii",
"iiiiiiiikkkkkkkkkkkvvvvvMMVViiiiiiii",
"iiiiiiiiikkkkkkkkkkkvvvvMMViiiiiiiii",
"iiiiiiiiiiikkkkkkkzkkvvMviiiiiiiiiii",
"iiiiiiiiiiiiiikkkkkkvviiiiiiiiiiiiii",
"iiiiiiiiiiiiiiiii  iiiiiiiiiiiiiiiii",
"iiiiiiiiiiiiiiiii  iiiiiiiiiiiiiiiii"
};
