/* XPM */
static char *wmoku-0-LB-44[] = {
/* columns rows colors chars-per-pixel */
"36 36 69 1",
"  c #000100010001",
". c #05E505E505E5",
"X c #072607260726",
"o c #0B520B520B52",
"O c #0DBB0DBB0DBB",
"+ c #10EC10EC10EC",
"@ c #131513151315",
"# c #1CB61CB61CB6",
"$ c #1E001E001E00",
"% c #1EEC1EEC1EEC",
"& c #1FA51FA51FA5",
"* c #207320732073",
"= c #214F214F214F",
"- c #239523952395",
"; c #243624362436",
": c #256025602560",
"> c #267D267D267D",
", c #28EC28EC28EC",
"< c #2AB52AB52AB5",
"1 c #306930693069",
"2 c #314631463146",
"3 c #42F042F042F0",
"4 c #4E574E574E57",
"5 c #4FFF4FFF4FFF",
"6 c #538E538E538E",
"7 c #56FF56FF56FF",
"8 c #5AAA5AAA5AAA",
"9 c #5E1D5E1D5E1D",
"0 c #655565556555",
"q c #657665766576",
"w c #68E368E368E3",
"e c #6D356D356D35",
"r c #770677067706",
"t c #7B0E7B0E7B0E",
"y c #E79DB2CA4924",
"u c #837F837F837F",
"i c #844384438443",
"p c #87A387A387A3",
"a c #952695269526",
"s c #A105A105A105",
"d c #A1C1A1C1A1C1",
"f c #A85CA85CA85C",
"g c #AA4EAA4EAA4E",
"h c #AEBAAEBAAEBA",
"j c #B30BB30BB30B",
"k c #B6DAB6DAB6DA",
"l c #BAA9BAA9BAA9",
"z c #BBA8BBA8BBA8",
"x c #BC9EBC9EBC9E",
"c c #BCD0BCD0BCD0",
"v c #BDDABDDABDDA",
"b c #BEFBBEFBBEFB",
"n c #C105C105C105",
"m c #C23EC23EC23E",
"M c #C3A3C3A3C3A3",
"N c #C42BC42BC42B",
"B c #C71BC71BC71B",
"V c #CBA0CBA0CBA0",
"C c #CF3CCF3CCF3C",
"Z c #D185D185D185",
"A c #D75CD75CD75C",
"S c #D923D923D923",
"D c #DCBADCBADCBA",
"F c #DCF5DCF5DCF5",
"G c #DF7DDF7DDF7D",
"H c #E0C2E0C2E0C2",
"J c #E376E376E376",
"K c #E79DE79DE79D",
"L c #EFBEEFBEEFBE",
/* pixels */
"yyyyyyyyyyyyyyyyy  yyyyyyyyyyyyyyyyy",
"yyyyyyyyyyyyyyyyy  yyyyyyyyyyyyyyyyy",
"yyyyyyyyyyyyyyCCBBBCACyyyyyyyyyyyyyy",
"yyyyyyyyyyyCBCCCCCCAAAACAyyyyyyyyyyy",
"yyyyyyyyyCBCCCCCCCAAAAAAACCyyyyyyyyy",
"yyyyyyyyCBBCCCCCCAAAGGGGAACCyyyyyyyy",
"yyyyyyyCBBBBCCCCCAAGGGGGGGAACyyyyyyy",
"yyyyyyCBBBBBCCCCAAGGGKKKKGGAACyyyyyy",
"yyyyyCBBBBBBBCCCAAGGKKKKKKGGGACyyyyy",
"yyyyCBBBBBBBd88VAAGKKLLmw0JGGGACyyyy",
"yyyyCBBBbBBb   mAAGKKLJ   SKGGAAyyyy",
"yyyCBBBbbBB>   mAAGKKL2   SKGGAACyyy",
"yyyBBBBbbbe    mAAGKKu    JKGGAAAyyy",
"yyyBbbbbbd %   mAAGGB >   AKGGAAAyyy",
"yykbbbbbbo.    mCAAGO.    SKGGAACByy",
"yykkkkkb3  0   mCCA4  t   SGGAAACByy",
"yykkkkkp %%z   zCCa >*G   ZGGAACCByy",
"  hkkkg @ fb   zCb @ bG   ZAAACCCB  ",
"  hhhh<  %%#   %><  %**   *>CACCBB  ",
"yyhhhh*          >          mCCCBByy",
"yyhhhhr44666   77p78888   88VCCCBByy",
"yyhhhhhhkkkb   jBBBBBCC   mCCCCBBByy",
"yyyhhhhhhkkk   jbBBBBBB   mZCCCCByyy",
"yyyhhhhhhkkk766zbbBBBBB977mBBCCCCyyy",
"yyyhhhhhhhkkkkbbbbbbBBBBBBBBBCCCCyyy",
"yyyyhhhhhhhkkkkkbbbbbBBBBBBBBCCCyyyy",
"yyyykhhhhhhkkkkkkbbbbbbbbbBBBCCCyyyy",
"yyyyyhhhhhhhhkkkkkbbbbbbbbBBCCCyyyyy",
"yyyyyyhhhhhhhhkkkkkkkkkbbbBBCCyyyyyy",
"yyyyyyyhhhhhhhhhhkkkkkkkbbBBCyyyyyyy",
"yyyyyyyyhhhhhhhhhhhkkkkkbbBByyyyyyyy",
"yyyyyyyyyhhhhhhhhhhhkkkkbbByyyyyyyyy",
"yyyyyyyyyyyhhhhhhhhhhkkbkyyyyyyyyyyy",
"yyyyyyyyyyyyyyhhhhhhkkyyyyyyyyyyyyyy",
"yyyyyyyyyyyyyyyyy  yyyyyyyyyyyyyyyyy",
"yyyyyyyyyyyyyyyyy  yyyyyyyyyyyyyyyyy"
};
