/* XPM */
static char *wmoku-0-LB-46[] = {
/* columns rows colors chars-per-pixel */
"36 36 93 2",
"   c #000300030003",
".  c #016001600160",
"X  c #025902590259",
"o  c #04DD04DD04DD",
"O  c #05D305D305D3",
"+  c #069206920692",
"@  c #07D607D607D6",
"#  c #09FD09FD09FD",
"$  c #0AF20AF20AF2",
"%  c #0B520B520B52",
"&  c #0E460E460E46",
"*  c #10EC10EC10EC",
"=  c #11D411D411D4",
"-  c #12C812C812C8",
";  c #13F013F013F0",
":  c #14EC14EC14EC",
">  c #15A715A715A7",
",  c #16A716A716A7",
"<  c #18A518A518A5",
"1  c #1A981A981A98",
"2  c #1CAD1CAD1CAD",
"3  c #1DBE1DBE1DBE",
"4  c #1EEC1EEC1EEC",
"5  c #1FD61FD61FD6",
"6  c #214021402140",
"7  c #23A923A923A9",
"8  c #245224522452",
"9  c #28EC28EC28EC",
"0  c #2AB52AB52AB5",
"q  c #2EB22EB22EB2",
"w  c #3F153F153F15",
"e  c #3FE63FE63FE6",
"r  c #410141014101",
"t  c #42F042F042F0",
"y  c #4FF14FF14FF1",
"u  c #538E538E538E",
"i  c #56E256E256E2",
"p  c #59EA59EA59EA",
"a  c #5AAA5AAA5AAA",
"s  c #5D9B5D9B5D9B",
"d  c #63FF63FF63FF",
"f  c #657665766576",
"g  c #6D356D356D35",
"h  c #6E1A6E1A6E1A",
"j  c #6FDA6FDA6FDA",
"k  c #740374037403",
"l  c #770677067706",
"z  c #7BE07BE07BE0",
"x  c #E79DB2CA4924",
"c  c #80EC80EC80EC",
"v  c #844384438443",
"b  c #857385738573",
"n  c #8CB28CB28CB2",
"m  c #92DA92DA92DA",
"M  c #949094909490",
"N  c #961796179617",
"B  c #96F796F796F7",
"V  c #9E759E759E75",
"C  c #9ED69ED69ED6",
"Z  c #A105A105A105",
"A  c #A214A214A214",
"S  c #A4A6A4A6A4A6",
"D  c #A5EBA5EBA5EB",
"F  c #A85CA85CA85C",
"G  c #AA4EAA4EAA4E",
"H  c #AEBAAEBAAEBA",
"J  c #B30BB30BB30B",
"K  c #B48BB48BB48B",
"L  c #B691B691B691",
"P  c #B6DAB6DAB6DA",
"I  c #B7EFB7EFB7EF",
"U  c #B97DB97DB97D",
"Y  c #BAA9BAA9BAA9",
"T  c #BB3DBB3DBB3D",
"R  c #BC56BC56BC56",
"E  c #BCD0BCD0BCD0",
"W  c #BE73BE73BE73",
"Q  c #BEFBBEFBBEFB",
"!  c #C22FC22FC22F",
"~  c #C3A3C3A3C3A3",
"^  c #C430C430C430",
"/  c #C71CC71CC71C",
"(  c #CBA0CBA0CBA0",
")  c #CF3CCF3CCF3C",
"_  c #D1FCD1FCD1FC",
"`  c #D375D375D375",
"'  c #D75CD75CD75C",
"]  c #D8F7D8F7D8F7",
"[  c #DA56DA56DA56",
"{  c #DB6FDB6FDB6F",
"}  c #DF77DF77DF77",
"|  c #E799E799E799",
" . c #EFBEEFBEEFBE",
/* pixels */
"x x x x x x x x x x x x x x x x x     x x x x x x x x x x x x x x x x x ",
"x x x x x x x x x x x x x x x x x     x x x x x x x x x x x x x x x x x ",
"x x x x x x x x x x x x x x ) ) / / / ) ' ) x x x x x x x x x x x x x x ",
"x x x x x x x x x x x ) / ) ) ) ) ) ) ' ' ' ' ) ' x x x x x x x x x x x ",
"x x x x x x x x x ) / ) ) ) ) ) ) ) ' ' ' ' ' ' ' ) ) x x x x x x x x x ",
"x x x x x x x x ) / / ) ) ) ) ) ) ' ' ' } } } } ' ' ) ) x x x x x x x x ",
"x x x x x x x ) / / / / ) ) ) ) ) ' ' } } } } } } } ' ' ) x x x x x x x ",
"x x x x x x ) / / / / / ) ) ) ) ' ' } } } | | | | } } ' ' ) x x x x x x ",
"x x x x x ) / / / / / / / ) ) _ ' ' } } | | | | | | } } } ' _ x x x x x ",
"x x x x ) / / / / / / / A s a / ' ' } | | / b j D } | } } } ' ) x x x x ",
"x x x x ) / / / Q / / Q       Q ' ' } ' 7     % %   Y | } } ' ' x x x x ",
"x x x ) / / / Q Q / / 8       / ' ' } ;   ,       4   ' } } ' ' ) x x x ",
"x x x / / / / Q Q Q g         Q ' ' c   8   / ' &     D } } ' ' ' x x x ",
"x x x / Q Q Q Q Q A   4       / ' ' 1     A  . .C     s } } ' ' ' x x x ",
"x x P Q Q Q Q Q Q % O         Q ) '   O   Y z j D _ | | } } ' ' ) / x x ",
"x x P P P P P Q t     f       Q ) )   1       O O   m } } ' ' ' ) / x x ",
"x x P P P P P b   7 1 Q       Y ) )     O         %   P } ' ' ) ) / x x ",
"    H P P P F   &   F Q       Y ) )       N } } a   q w ' ' ) ) ) /     ",
"    H H H H 9     4 4 1       4 7 /   ,   _ ' ' Y   4   ' ' ) ) / /     ",
"x x H H H H 7                     Y   %   Q ) ' D   4 % ) ) ) ) / / x x ",
"x x H H H H l y y y u u       i i Q t   4 w P P ,   7 y ) ) ) ) / / x x ",
"x x H H H H H H P P P Q       J / / Y     ;       ;   Q ) ) ) / / / x x ",
"x x x H H H H H H P P P       J Q / / B       O     C ) ) ) ) ) / x x x ",
"x x x H H H H H H P P P i u u Y Q Q / / Q n d g N Q / / / ) ) ) ) x x x ",
"x x x H H H H H H H P P P P Q Q Q Q Q Q / / / / / / / / / ) ) ) ) x x x ",
"x x x x H H H H H H H P P P P P Q Q Q Q Q / / / / / / / / _ ) ) x x x x ",
"x x x x P H H H H H H P P P P P P Q Q Q Q Q Q Q Q Q / / / ) ) ) x x x x ",
"x x x x x H H H H H H H H P P P P P Q Q Q Q Q Q Q Q / / ) ) ) x x x x x ",
"x x x x x x H H H H H H H H P P P P P P P P P Q Q Q / / ) ) x x x x x x ",
"x x x x x x x H H H H H H H H H H P P P P P P P Q Q / / ) x x x x x x x ",
"x x x x x x x x H H H H H H H H H H H P P P P P Q Q / / x x x x x x x x ",
"x x x x x x x x x H H H H H H H H H H H P P P P Q Q / x x x x x x x x x ",
"x x x x x x x x x x x H H H H H H H H H H P P Q P x x x x x x x x x x x ",
"x x x x x x x x x x x x x x H H H H H H P P x x x x x x x x x x x x x x ",
"x x x x x x x x x x x x x x x x x     x x x x x x x x x x x x x x x x x ",
"x x x x x x x x x x x x x x x x x     x x x x x x x x x x x x x x x x x "
};
