/* XPM */
static char *wmoku-0-LB-n[] = {
/* columns rows colors chars-per-pixel */
"36 36 42 1",
"  c #000400040004",
". c #047804780478",
"X c #057E057E057E",
"o c #061206120612",
"O c #0A360A360A36",
"+ c #16DB16DB16DB",
"@ c #4D104D104D10",
"# c #538E538E538E",
"$ c #571C571C571C",
"% c #588858885888",
"& c #5AAA5AAA5AAA",
"* c #5DD95DD95DD9",
"= c #61C761C761C7",
"- c #77AB77AB77AB",
"; c #7BB27BB27BB2",
": c #800180018001",
"> c #E79DB2CA4924",
", c #80EA80EA80EA",
"< c #862D862D862D",
"1 c #86B186B186B1",
"2 c #8B708B708B70",
"3 c #8C6C8C6C8C6C",
"4 c #8E6F8E6F8E6F",
"5 c #90B390B390B3",
"6 c #922892289228",
"7 c #95D495D495D4",
"8 c #9AE39AE39AE3",
"9 c #A325A325A325",
"0 c #AEBAAEBAAEBA",
"q c #B6DAB6DAB6DA",
"w c #BC4DBC4DBC4D",
"e c #BEFBBEFBBEFB",
"r c #C455C455C455",
"t c #C609C609C609",
"y c #C71BC71BC71B",
"u c #C8B9C8B9C8B9",
"i c #CA05CA05CA05",
"p c #CF3CCF3CCF3C",
"a c #D75CD75CD75C",
"s c #DF7DDF7DDF7D",
"d c #E79DE79DE79D",
"f c #EFBEEFBEEFBE",
/* pixels */
">>>>>>>>>>>>>>>>>  >>>>>>>>>>>>>>>>>",
">>>>>>>>>>>>>>>>>  >>>>>>>>>>>>>>>>>",
">>>>>>>>>>>>>>ppyyypap>>>>>>>>>>>>>>",
">>>>>>>>>>>pyppppppaaaapa>>>>>>>>>>>",
">>>>>>>>>pypppppppaaaaaaapp>>>>>>>>>",
">>>>>>>>pyyppppppaaassssaapp>>>>>>>>",
">>>>>>>pyyyypppppaasssssssaap>>>>>>>",
">>>>>>pyyyyyppppaasssddddssaap>>>>>>",
">>>>>pyyyyyyypppaassddddddsssap>>>>>",
">>>>pyyyyyyyypppaasddffffddsssap>>>>",
">>>>pyyyeyyyypppaasddfffffddssaa>>>>",
">>>pyyyeeyyyupppaasddfffffddssaap>>>",
">>>yyyyeeeyy9$%6e;=4uffffffdssaaa>>>",
">>>yeeeeeeyy,X % X X :ffffddssaaa>>>",
">>qeeeeeeeey,X     X  uffdddssaapy>>",
">>qqqqqeeeee,X  -ryO X8ddddssaaapy>>",
">>qqqqqeeeee,X +ppa* X6ddssssaappy>>",
"  0qqqqqeeee;X @ppp* X6ssssaaapppy  ",
"  0000qqqeee;X $upp% X2aaaaaaappyy  ",
">>0000qqqqee;X $yup% X1aaaaappppyy>>",
">>00000qqqee;X $yyy% X1pppppppppyy>>",
">>000000qqqe;X #yyy$ X1ppppppppyyy>>",
">>>000000qqq;X #eyy$ X,yppppppppy>>>",
">>>000000qqq7##1eey4$$9yyyyyypppp>>>",
">>>0000000qqqqeeeeeeyyyyyyyyypppp>>>",
">>>>0000000qqqqqeeeeeyyyyyyyyppp>>>>",
">>>>q000000qqqqqqeeeeeeeeeyyyppp>>>>",
">>>>>00000000qqqqqeeeeeeeeyyppp>>>>>",
">>>>>>00000000qqqqqqqqqeeeyypp>>>>>>",
">>>>>>>0000000000qqqqqqqeeyyp>>>>>>>",
">>>>>>>>00000000000qqqqqeeyy>>>>>>>>",
">>>>>>>>>00000000000qqqqeey>>>>>>>>>",
">>>>>>>>>>>0000000000qqeq>>>>>>>>>>>",
">>>>>>>>>>>>>>000000qq>>>>>>>>>>>>>>",
">>>>>>>>>>>>>>>>>  >>>>>>>>>>>>>>>>>",
">>>>>>>>>>>>>>>>>  >>>>>>>>>>>>>>>>>"
};
