/* XPM */
static char *wmoku-0-LB-318[] = {
/* columns rows colors chars-per-pixel */
"36 36 127 2",
"   c #000E000E000E",
".  c #017D017D017D",
"X  c #027402740274",
"o  c #03A003A003A0",
"O  c #049A049A049A",
"+  c #05A005A005A0",
"@  c #062E062E062E",
"#  c #0A030A030A03",
"$  c #0AA60AA60AA6",
"%  c #0E270E270E27",
"&  c #10E610E610E6",
"*  c #118311831183",
"=  c #121612161216",
"-  c #1B7D1B7D1B7D",
";  c #1DDB1DDB1DDB",
":  c #1F071F071F07",
">  c #1FC01FC01FC0",
",  c #238A238A238A",
"<  c #24F224F224F2",
"1  c #257525752575",
"2  c #2E8C2E8C2E8C",
"3  c #2F4C2F4C2F4C",
"4  c #30FC30FC30FC",
"5  c #31EE31EE31EE",
"6  c #329832983298",
"7  c #34E434E434E4",
"8  c #394539453945",
"9  c #402740274027",
"0  c #445044504450",
"q  c #472C472C472C",
"w  c #4FC44FC44FC4",
"e  c #517251725172",
"r  c #52E652E652E6",
"t  c #538E538E538E",
"y  c #563556355635",
"u  c #56FF56FF56FF",
"i  c #58E958E958E9",
"p  c #5ACA5ACA5ACA",
"a  c #5BF15BF15BF1",
"s  c #5D6F5D6F5D6F",
"d  c #5E635E635E63",
"f  c #601D601D601D",
"g  c #621262126212",
"h  c #632463246324",
"j  c #63CB63CB63CB",
"k  c #694269426942",
"l  c #6C016C016C01",
"z  c #6CF06CF06CF0",
"x  c #711971197119",
"c  c #722C722C722C",
"v  c #762876287628",
"b  c #768E768E768E",
"n  c #792179217921",
"m  c #7AB67AB67AB6",
"M  c #7FE87FE87FE8",
"N  c #88C069902B2F",
"B  c #ACC2855B368E",
"V  c #B8228E233A26",
"C  c #E460B04A481E",
"Z  c #E79DB2CA4924",
"A  c #80C680C680C6",
"S  c #841684168416",
"D  c #852685268526",
"F  c #862A862A862A",
"G  c #86B186B186B1",
"H  c #888288828882",
"J  c #890789078907",
"K  c #8B6D8B6D8B6D",
"L  c #8BF38BF38BF3",
"P  c #8D208D208D20",
"I  c #8E288E288E28",
"U  c #8F328F328F32",
"Y  c #8FA68FA68FA6",
"T  c #90E690E690E6",
"R  c #920992099209",
"E  c #949E949E949E",
"W  c #95F295F295F2",
"Q  c #980998099809",
"!  c #992199219921",
"~  c #9B329B329B32",
"^  c #9C9E9C9E9C9E",
"/  c #9E9D9E9D9E9D",
"(  c #A243A243A243",
")  c #A324A324A324",
"_  c #A5A4A5A4A5A4",
"`  c #A690A690A690",
"'  c #A776A776A776",
"]  c #A941A941A941",
"[  c #AA5BAA5BAA5B",
"{  c #AB92AB92AB92",
"}  c #AC21AC21AC21",
"|  c #AD47AD47AD47",
" . c #AE54AE54AE54",
".. c #AEBDAEBDAEBD",
"X. c #B136B136B136",
"o. c #B1D2B1D2B1D2",
"O. c #B3CCB3CCB3CC",
"+. c #B58AB58AB58A",
"@. c #B5F7B5F7B5F7",
"#. c #B6DAB6DAB6DA",
"$. c #B838B838B838",
"%. c #B939B939B939",
"&. c #B9FAB9FAB9FA",
"*. c #BE38BE38BE38",
"=. c #BEFBBEFBBEFB",
"-. c #C0FFC0FFC0FF",
";. c #C4A7C4A7C4A7",
":. c #C670C670C670",
">. c #C71AC71AC71A",
",. c #C897C897C897",
"<. c #C94AC94AC94A",
"1. c #CA3ACA3ACA3A",
"2. c #CAF4CAF4CAF4",
"3. c #CC33CC33CC33",
"4. c #CE5ACE5ACE5A",
"5. c #CF3CCF3CCF3C",
"6. c #D116D116D116",
"7. c #D540D540D540",
"8. c #D6B0D6B0D6B0",
"9. c #D75BD75BD75B",
"0. c #D99DD99DD99D",
"q. c #DBC2DBC2DBC2",
"w. c #DE63DE63DE63",
"e. c #DF7DDF7DDF7D",
"r. c #E5D0E5D0E5D0",
"t. c #E79DE79DE79D",
"y. c #EFB2EFB2EFB2",
/* pixels */
"Z Z Z Z Z Z Z Z Z Z Z Z Z Z Z Z Z o o C Z Z Z Z Z Z Z Z Z Z Z Z Z Z Z Z ",
"Z Z Z Z Z Z Z Z Z Z Z Z Z Z Z Z Z o o C Z Z Z Z Z Z Z Z Z Z Z Z Z Z Z Z ",
"Z Z Z Z Z Z Z Z Z Z Z Z Z Z 5.5.>.>.>.5.9.5.Z Z Z Z Z Z Z Z Z Z Z Z Z Z ",
"Z Z Z Z Z Z Z Z Z Z Z 5.>.5.5.5.5.5.5.7.9.9.9.5.9.Z Z Z Z Z Z Z Z Z Z Z ",
"Z Z Z Z Z Z Z Z Z 5.>.5.5.5.5.5.5.5.9.9.9.9.9.9.9.5.5.Z Z Z Z Z Z Z Z Z ",
"Z Z Z Z Z Z Z Z 5.>.>.5.5.5.5.5.5.7.9.9.e.e.e.e.9.9.5.5.Z Z Z Z Z Z Z Z ",
"Z Z Z Z Z Z Z 5.>.>.>.>.5.5.5.5.5.9.9.e.e.e.e.e.e.e.9.9.5.Z Z Z Z Z Z Z ",
"Z Z Z Z Z Z 5.>.>.>.>.>.5.5.5.5.7.9.e.e.e.t.t.t.t.e.e.9.9.5.Z Z Z Z Z Z ",
"Z Z Z Z Z 5.>.>.>.>.>.>.>.5.5.5.7.0.w.w.t.t.t.r.t.t.w.w.w.7.5.Z Z Z Z Z ",
"Z Z Z Z >.I z k I *.>.>.>.5.5.5.0.j f *.t.y.y.y.y.#.I f I #.0.5.Z Z Z Z ",
"Z Z Z V o o o o o o I >.>.5.5.5.$.o $ W t.y.y.5.- o o o o o 6 2.Z Z Z Z ",
"Z Z C o o o o o o o o $.>.5.*.( ; o O W t.y.r.o o o o o o o O 2 5.Z Z Z ",
"Z Z B o o o ..| $ o o F >.s o o o o o E t.y.| o o o #.0.' o o o %.Z Z Z ",
"Z Z N o o z *.*.z o o p >.p o o o o O I t.y.z o o y r.r.w.w o o P Z Z Z ",
"Z Z y o o M *.*.s o o v >...! / y o O E t.t.F o o % w.r.7.& o o ^ >.Z Z ",
"Z Z #.#.#.W - O o o o | >.>.>.5.p o o E e.t.0.o o o o ; o o o % 3.>.Z C ",
"Z Z #.#.#.J o o o o 1 ' >.>.>.>.p o o J e.e.e.$.o o o o o o o | 5.>.Z C ",
"o o | #.#./ w 9 o o o o #.>.>.>.p o O J 7.0.5.o o o 1 y O o o o 2.>.o o ",
"o o n q q I #.#...1 o o E >.>.>.y o O F 5.7.M o o e 7.7.5.- o o W >.o o ",
"C C e o O f #.#.#.8 o o A *.>.>.y o O F 5.5.f o o n 0.7.5.0 o o S >.C Z ",
"C Z v o o o E _ F o o o _ *.*.2.y o O F 5.5.W o o o _ *.W o o o | >.Z Z ",
"Z Z _ o o o o o o o o 2 *.;.*.*.y o O A 2.5.2.$ o o o o o o o 2 >.>.Z Z ",
"Z Z C U o o o o o o 2 ' *.*.*.*.e o o A >.>.>.| - o o o o o 6 ;.>.Z Z Z ",
"Z Z Z ..' A p e x W #.$.#.*.*.*.F e y ( >.>.>.>.>.W n y M ' 5.5.5.Z Z Z ",
"Z Z Z ..............$.#.#.#.*.;.*.;.*.*.>.>.>.>.>.>.>.>.>.5.5.5.5.Z Z Z ",
"Z Z Z Z ............| $.#.#.#.#.*.*.*.*.*.>.>.>.>.>.>.>.>.5.5.5.Z Z Z Z ",
"Z Z Z Z #...........| $.#.#.#.#.#.*.*.*.*.*.*.*.*.*.>.>.>.5.5.5.Z Z Z Z ",
"Z Z Z Z Z ..............| $.#.#.#.#.*.;.*.*.;.*.*.*.>.>.5.5.5.Z Z Z Z Z ",
"Z Z Z Z Z Z ................#.$.#.#.#.#.#.#.#.*.*.;.>.>.5.5.Z Z Z Z Z Z ",
"Z Z Z Z Z Z Z ..............| ..| #.#.#.#.#.#.#.*.*.>.>.5.Z Z Z Z Z Z Z ",
"Z Z Z Z Z Z Z Z ....................| #.#.#.#.#.*.*.>.>.Z Z Z Z Z Z Z Z ",
"Z Z Z Z Z Z Z Z Z ....................| #.#.#.#.*.*.>.Z Z Z Z Z Z Z Z Z ",
"Z Z Z Z Z Z Z Z Z Z Z ..........| ........#.#.=.#.Z Z Z Z Z Z Z Z Z Z Z ",
"Z Z Z Z Z Z Z Z Z Z Z Z Z Z | ..| } ....#.#.Z Z Z Z Z Z Z Z Z Z Z Z Z Z ",
"Z Z Z Z Z Z Z Z Z Z Z Z Z Z Z Z C o o Z Z Z Z Z Z Z Z Z Z Z Z Z Z Z Z Z ",
"Z Z Z Z Z Z Z Z Z Z Z Z Z Z Z Z C o o Z Z Z Z Z Z Z Z Z Z Z Z Z Z Z Z Z "
};
