/* XPM */
static char *wmoku-0-LB-251[] = {
/* columns rows colors chars-per-pixel */
"36 36 123 2",
"   c #000500050005",
".  c #018401840184",
"X  c #0209019200A5",
"o  c #02DC02DC02DC",
"O  c #04EF04EF04EF",
"+  c #054B054B054B",
"@  c #067406740674",
"#  c #086008600860",
"$  c #094B094B094B",
"%  c #0AB40AB40AB4",
"&  c #0C730C730C73",
"*  c #0DBF0DBF0DBF",
"=  c #0EAD0EAD0EAD",
"-  c #0F750F750F75",
";  c #11C311C311C3",
":  c #132313231323",
">  c #14FF14FF14FF",
",  c #166416641664",
"<  c #17C217C217C2",
"1  c #187818781878",
"2  c #19EE19EE19EE",
"3  c #1A771A771A77",
"4  c #1B811B811B81",
"5  c #1C961C961C96",
"6  c #1D8D1D8D1D8D",
"7  c #1F501F501F50",
"8  c #205A205A205A",
"9  c #225722572257",
"0  c #27C727C727C7",
"q  c #2A4C2A4C2A4C",
"w  c #2B4A2B4A2B4A",
"e  c #33C833C833C8",
"r  c #34A334A334A3",
"t  c #35FC35FC35FC",
"y  c #377537753775",
"u  c #3F613F613F61",
"i  c #65554E382000",
"p  c #69BB519E2163",
"a  c #6EED55A02307",
"s  c #431943194319",
"d  c #43AD43AD43AD",
"f  c #44DB44DB44DB",
"g  c #4C714C714C71",
"h  c #4FFF4FFF4FFF",
"j  c #524652465246",
"k  c #532753275327",
"l  c #54D754D754D7",
"z  c #56E656E656E6",
"x  c #58A658A658A6",
"c  c #5B025B025B02",
"v  c #5E235E235E23",
"b  c #613761376137",
"n  c #61D661D661D6",
"m  c #62C562C562C5",
"M  c #63DA63DA63DA",
"N  c #655565556555",
"B  c #68E368E368E3",
"V  c #69A369A369A3",
"C  c #6ECA6ECA6ECA",
"Z  c #6FF16FF16FF1",
"A  c #780378037803",
"S  c #7A6D7A6D7A6D",
"D  c #7DCF7DCF7DCF",
"F  c #7F177F177F17",
"G  c #808463352896",
"H  c #9FEE7B743281",
"J  c #BB5090973B27",
"K  c #CF209FE44169",
"L  c #DA92A8BA4506",
"P  c #DF7EAC854693",
"I  c #E73EB2814906",
"U  c #E79DB2CA4924",
"Y  c #811C811C811C",
"T  c #818D818D818D",
"R  c #833F833F833F",
"E  c #870F870F870F",
"W  c #878A878A878A",
"Q  c #8D7E8D7E8D7E",
"!  c #8F228F228F22",
"~  c #91E491E491E4",
"^  c #973197319731",
"/  c #98AD98AD98AD",
"(  c #9BFD9BFD9BFD",
")  c #9CF39CF39CF3",
"_  c #9E009E009E00",
"`  c #9F769F769F76",
"'  c #A0F4A0F4A0F4",
"]  c #A1C7A1C7A1C7",
"[  c #A2B0A2B0A2B0",
"{  c #A3E6A3E6A3E6",
"}  c #A817A817A817",
"|  c #AB35AB35AB35",
" . c #AE91AE91AE91",
".. c #AEBAAEBAAEBA",
"X. c #B145B145B145",
"o. c #B230B230B230",
"O. c #B37AB37AB37A",
"+. c #B3D3B3D3B3D3",
"@. c #B52BB52BB52B",
"#. c #B5F4B5F4B5F4",
"$. c #B6DCB6DCB6DC",
"%. c #B7E5B7E5B7E5",
"&. c #B90CB90CB90C",
"*. c #BA9DBA9DBA9D",
"=. c #BB08BB08BB08",
"-. c #BD07BD07BD07",
";. c #BEA1BEA1BEA1",
":. c #BEFBBEFBBEFB",
">. c #C166C166C166",
",. c #C24FC24FC24F",
"<. c #C609C609C609",
"1. c #C71BC71BC71B",
"2. c #C82FC82FC82F",
"3. c #CD90CD90CD90",
"4. c #CF3CCF3CCF3C",
"5. c #D0E2D0E2D0E2",
"6. c #D3F2D3F2D3F2",
"7. c #D5EFD5EFD5EF",
"8. c #D75CD75CD75C",
"9. c #DF7DDF7DDF7D",
"0. c #E609E609E609",
"q. c #E79EE79EE79E",
"w. c #EFBEEFBEEFBE",
/* pixels */
"U U U U U U U U U U U U U U U U U     U U U U U U U U U U U U U U U U U ",
"U U U U U U U U U U U U U U U U U     U U U U U U U U U U U U U U U U U ",
"U U U U U U U U U U U U U U 4.4.1.1.1.4.8.4.U U U U U U U U U U U U U U ",
"U U U U U U U U U U U 4.1.4.4.4.4.4.4.8.8.8.8.4.8.U U U U U U U U U U U ",
"U U U U U U U U U 4.1.4.4.4.4.4.4.4.8.8.8.8.8.8.8.4.4.U U U U U U U U U ",
"U U U U U U U U 4.1.1.4.4.4.4.4.4.8.8.8.9.9.9.9.8.8.4.4.U U U U U U U U ",
"U U U U U U U 4.1.1.1.1.4.4.4.4.4.8.8.9.9.9.9.9.9.9.8.8.4.U U U U U U U ",
"U U U U U U 4.1.1.1.1.1.4.4.4.4.8.8.9.9.9.q.q.q.q.9.9.8.8.4.U U U U U U ",
"U U U U U 4.1.1.1.2.1.1.1.4.4.4.8.8.9.9.q.q.q.q.q.q.9.9.9.8.4.U U U U U ",
"U U U U :.R n n E &.1.1.1.4.c c v v n N N N q.w.w.q.q.O.n V 8.4.U U U U ",
"U U U p       @ @   R 1.1.&.                8.w.w.w.q.6 &   8.8.U U U U ",
"U U G   @         &   { 2.!   &             8.w.q.6.A   6   8.8.4.U U U ",
"U U       Z &.} 1   w r 1.v   % ^ O.&.,.:.1.w.w.        6   8.8.8.U U U ",
"U L   9   :.:.:.)   6   2.r     O.8.9.9.q.w.w.w.        6   8.8.8.U U U ",
"U K     w :.:.:.!   9 @ 1.1     k 0 d D 6.q.q.w.&.O.O.  6   8.8.4.1.U U ",
"U U } } ..%.%.{     & N 1.  @         ;   D q.q.q.q.q.  1   8.8.4.1.U U ",
"U U %.%.%...d     , & %.1.  @   6 l 1   %   ..q.q.9.9.  6   8.6.4.1.U U ",
"    ..%.C     %   e O.:.:.r r C 4.4.4.k   w u 9.9.9.9.  1   4.4.4.1.    ",
"    ..e   %   % E :.:.:.:.1.1.1.1.4.4.O.  6   8.8.8.8.  1   4.4.1.1.    ",
"U U s   ,   S %.%.%.:.,.n     R 1.1.6.)   6 ; 8.8.8.8.  1   4.4.1.1.U U ",
"U P   ,   ~ ~ ( ^ ( ) { !   6   ( &.} &   6 c 4.4.4.4.  6   6.4.1.1.U U ",
"U H   &                 :.;   &         ,   ,.4.4.4.4.  1   4.1.1.1.U U ",
"I a                 %   :.O.6       %   , { 1.1.4.4.4.  &   4.4.1.U U U ",
"I J i h g g g g h h k l %.:.:.{ C l S ) 1.1.1.1.1.1.1.c l n 4.4.4.U U U ",
"I I U ..............%.O.%.%.:.:.:.:.:.:.1.1.1.1.1.1.1.1.1.4.4.4.4.U U U ",
"I I U U ..............%.+.%.%.O.:.:.:.:.:.1.1.1.1.1.1.1.1.4.4.4.U U U U ",
"I I I U %.............%.%.%.+.%.%.:.:.:.:.:.:.:.:.:.1.1.1.4.4.4.U U U U ",
"I I U U I ................%.%.%.%.%.:.:.:.:.:.:.:.:.1.1.4.4.4.U U U U U ",
"U U U U I U ................O.%.O.%.%.%.O.%.%.:.:.:.1.1.4.4.U U U U U U ",
"U U U U I I U ....................%.%.O.%.%.%.O.:.:.1.1.4.U U U U U U U ",
"U U U U U U U U ......................%.O.%.%.%.:.:.1.1.U U U U U U U U ",
"U U U U U U U U I ......................%.%.%.%.:.:.1.U U U U U U U U U ",
"U U U U U U U U U U U ....................%.%.:.%.I I I U U U U U U U U ",
"U U U U U U U U U U U U U U ............%.%.U U I I U I U U U U U U U U ",
"U U U U U U U U U U U U U U U U U     U I I I I U U U U U U U U U U U U ",
"U U U U U U U U U U U U U U U U U     U I I I I U U U U U U U U U U U U "
};
