/* XPM */
static char *wpmoku-7-conv[] = {
/* columns rows colors chars-per-pixel */
"25 25 197 2",
"   c black",
".  c #032801A70000",
"X  c #0681050001FD",
"o  c #2B9B2B9B2B9B",
"O  c #2C962C962C96",
"+  c #2D6D2D6D2D6D",
"@  c #30D730D730D7",
"#  c #574A574A574A",
"$  c #577357735773",
"%  c #5E3D5E3D5E3D",
"&  c #5E805E805E80",
"*  c #79F979617831",
"=  c #7A24798D785D",
"-  c #B2E1894B3622",
";  c #B39389FE36D4",
":  c #DB82B1ED5EC1",
">  c #DE84B2245964",
",  c #DFD8B3785AB8",
"<  c #CC4EB0EC7A29",
"1  c #D993B1CC623E",
"2  c #DD53B3BD6092",
"3  c #DE00B46A613F",
"4  c #E0A7B71163E6",
"5  c #DFB6B7F76879",
"6  c #D25BB6F98035",
"7  c #E7D7B28747E8",
"8  c #E802B2584704",
"9  c #E809B29347A7",
"0  c #E875B2B8473E",
"q  c #E87EB2D74788",
"w  c #E7C7B2A4485D",
"e  c #E721B2A649AE",
"r  c #E79EB2CA4921",
"t  c #E76BB2EF49F8",
"y  c #E7EFB2CC4886",
"u  c #E571B2A24D05",
"i  c #E631B3624DC5",
"p  c #E6C3B3F54E58",
"a  c #E6FFB4314E94",
"s  c #EBDEB53C47F7",
"d  c #EC1AB5774832",
"f  c #E268B6075D47",
"g  c #E3A7B7475E87",
"h  c #E3E6B7855EC5",
"j  c #E158B7C26497",
"k  c #E284B8EE65C3",
"l  c #E19BB9D36A42",
"z  c #BEF7AE928DC8",
"x  c #BF85AF208E55",
"c  c #C042AFDD8F12",
"v  c #A89AA89AA89A",
"b  c #A8B0A8B0A8B0",
"n  c #A9D2A9D2A9D2",
"m  c #AC7CAC7CAC7C",
"M  c #AEA3AEA3AEA3",
"N  c #AE52AEABAF5D",
"B  c #ADEEAE9EAFFD",
"V  c #AE51AEB3AF77",
"C  c #AE40AEC3AFC9",
"Z  c #AEBDAEB6AEA9",
"A  c #AECFAECEAECB",
"S  c #AFDBAFDBAFDB",
"D  c #AD43AE95B13A",
"F  c #ADA0AEF0B192",
"G  c #B3FEAF1AA553",
"H  c #B694AF49A0B4",
"J  c #B5E0AF3DA1F5",
"K  c #B553AF33A2F1",
"L  c #B82AB186A43E",
"P  c #BC0DB72AAD62",
"I  c #B0F7B0F7B0F7",
"U  c #B2ABB2ABB2AB",
"Y  c #B326B326B326",
"T  c #B465B465B465",
"R  c #B0D0B221B4C2",
"E  c #B29AB3F0B69C",
"W  c #B508B508B508",
"Q  c #B68CB68CB68C",
"!  c #B659B6B2B765",
"~  c #B70AB70AB70A",
"^  c #B800B800B800",
"/  c #B552B6A3B944",
"(  c #B893B9E9BC95",
")  c #B8DAB8DAB8DA",
"_  c #BA5EBA5EBA5E",
"`  c #B92EB9B3BABD",
"'  c #BB03BB03BB03",
"]  c #BC8ABC8ABC8A",
"[  c #BD69BD69BD69",
"{  c #BDFEBDFEBDFE",
"}  c #BF1CBF1CBF1C",
"|  c #BF43BFADC082",
" . c #C01EC01EC01E",
".. c #BFDAC033C0E5",
"X. c #C581B0588605",
"o. c #C5CEB09E863E",
"O. c #C63BB10B86AB",
"+. c #C966B43689D6",
"@. c #C9DDB4BE8A80",
"#. c #CA97B5788B3A",
"$. c #C418B3B392E9",
"%. c #DAC6BF6488A1",
"&. c #DB49BFE78924",
"*. c #DBE3C08189BE",
"=. c #D591C0179523",
"-. c #D5E8C06F957B",
";. c #C123B9D8AB44",
":. c #DDB6C2548B90",
">. c #DE68C3068C42",
",. c #DA5DC4E399F0",
"<. c #DD6BC7F29CFE",
"1. c #C608C124B75D",
"2. c #CA32C38EB646",
"3. c #CD5BC611B77C",
"4. c #CBF9C715BD4E",
"5. c #CE7BC7D7BA8F",
"6. c #CE62C842BC00",
"7. c #CFC5C87AB9E5",
"8. c #CF3CC897BB4F",
"9. c #D24DCB03BC6E",
"0. c #D260CBBDBE74",
"q. c #D242CC22BFE1",
"w. c #D2D8CC35BEEC",
"e. c #C1B6C1B6C1B6",
"r. c #C201C201C201",
"t. c #C2FFC2FFC2FF",
"y. c #C3D7C3D7C3D7",
"u. c #C52DC52DC52D",
"i. c #C678C676C671",
"p. c #C59AC633C764",
"a. c #C647C6CCC7D6",
"s. c #C73AC739C738",
"d. c #C82BC82AC829",
"f. c #C704C7ABC8FB",
"g. c #C73FC89ACB51",
"h. c #C995C995C995",
"j. c #C957C9C2CA97",
"k. c #CA3ECA3ECA3E",
"l. c #C991CA95CC9E",
"z. c #CA13CA7DCB53",
"x. c #CB3BCB3BCB3B",
"c. c #CB46CC0DCD9B",
"v. c #CD78CD75CD71",
"b. c #CE4ECE4ECE4E",
"n. c #CDC9CE22CED4",
"m. c #CDF0CE88CFBA",
"M. c #CF5ACF5ACF5A",
"N. c #CF14CF88D06F",
"B. c #D06AD06DD071",
"V. c #CEB4CFB8D1C0",
"C. c #CE81CFDCD292",
"Z. c #CEE8CFEDD1F6",
"A. c #CF16D071D328",
"S. c #D0D9CBF5C22E",
"D. c #D6B1CF66C0D2",
"F. c #D604CF60C218",
"G. c #D57ECF5DC31C",
"H. c #D66BD04BC409",
"J. c #D7FDD0B3C21E",
"K. c #D6B3D1D0C808",
"L. c #D79CD2B8C8F1",
"P. c #D231D231D231",
"I. c #D342D342D342",
"U. c #D3DCD3E5D3F8",
"Y. c #D498D503D5D9",
"T. c #D584D584D584",
"R. c #D5E8D5E8D5E8",
"E. c #D5C1D6C5D8CD",
"W. c #D771D771D770",
"Q. c #D748D7AAD86D",
"!. c #D831D831D831",
"~. c #D62FD78ADA41",
"^. c #D756D7E4D901",
"/. c #DA5EDA5EDA5E",
"(. c #D9EADA6EDB78",
"). c #DA5CDB23DCB0",
"_. c #DB7EDB7EDB7D",
"`. c #DB85DBDEDC90",
"'. c #DBF7DC8FDDC1",
"]. c #DD81DD7FDD7D",
"[. c #DE1DDE1ADE15",
"{. c #E034E034E032",
"}. c #E17BE17BE17B",
"|. c #E2DBE2DBE2DB",
" X c #E32EE32EE32E",
".X c #E499E499E499",
"XX c #E59AE59AE59A",
"oX c #E617E617E617",
"OX c #E794E794E794",
"+X c #E8A0E8A0E8A0",
"@X c #E976E976E976",
"#X c #EA54EA54EA54",
"$X c #EB46EB46EB46",
"%X c #EDA3EDA3EDA3",
"&X c #EE05EE05EE05",
"*X c #EFA4EFA4EFA4",
"=X c #F00DF00DF00D",
/* pixels */
"r r r r r r r r r 9 d ; X ; d d r r r r r r r r r ",
"r r r r r r 9 r i j ,.c = c <.l i r q r r r r r r ",
"r r r r r 9 h &.8.S.N.N.I.Y.~.L.F.>.h r r r r r r ",
"r r r r 9 l 5.j.N.M.N.N.Y._._.'.(.Y.9.l r r r r r ",
"r r r 8 l 8.f.j.M.N.N.L.~.].{.{.}.]._.F.l 8 r r r ",
"r r r l 6.f.i.i.j.N.N.Y._.{..XOXoXoX].(.H.l r r r ",
"r 9 h 8.f.i.i.i.i.M.M.Y._..X#X%X%X#X.X}.].F.h 8 r ",
"r r &.j.i.r.i.i.i.M.M.Y.].oX#X=X=X%XOX}.].~.>.r r ",
"r a 2.f.y...y.g.i.j.M.Y.].oX#X=X=X=X#X|.].~.H.i r ",
"r 3 1.y.......g.i.j.M.Y.].}.#X%X=X%X#X|.].~.L.j q ",
"r #.` ` ` ..} ;.i.i.M.I % [ +XOX#X+XOX}._.Y.I.-.d ",
"8 +.! W ! [ } } r.d.n O   @ [ }.oX|.{.].!.I.N.z ; ",
"8 o.R I W _ [ } } j.#       % ]._._._.~.Y.N.N.=   ",
"q o.F S W W _ [ } r.v o   O I I.Y.Y.Y.L.Z.N.x.z ; ",
"q o.F Z S T ^ ] } } i.v # m I.M.M.M.M.M.M.M.g.=.d ",
"r : G Z Z S W ^ ] } } t.j.s.i.j.j.M.c.M.M.M.6.j q ",
"r i H F Z Z I W ^ [ [ } r.i.i.s.s.j.s.j.M.N.9.i r ",
"r r < Z Z Z S W W _ _ [ } [ r.i.i.i.i.i.x.M.:.q r ",
"r 9 , L Z Z Z I W W W _ [ [ r.r.} r.i.j.N.9.h 9 r ",
"r r r 1 H F Z Z S W W W _ _ _ _ [ } i.x.S.l r r r ",
"r r r 8 1 G Z Z Z Z S I W W ! W _ r.i.5.l 9 r r r ",
"r r r r q 1 H F F Z Z Z I I ^ ! _ [ 1.5 9 9 r r r ",
"r r r r r 9 , < H G F F F F E P P 6 h 9 r r r r r ",
"r r r r r r 9 r i : o.o.o.o.#.3 i q 9 r r r r r r ",
"r r r r r r r r r r 8 8 8 8 8 q q q r r r r r r r "
};
