/* XPM */
static char *wpmoku-1-conv[] = {
/* columns rows colors chars-per-pixel */
"25 25 201 2",
"   c black",
".  c #032801A70000",
"X  c #068405030200",
"o  c #2B9B2B9B2B9B",
"O  c #2C962C962C96",
"+  c #2D6D2D6D2D6D",
"@  c #30D730D730D7",
"#  c #574A574A574A",
"$  c #577357735773",
"%  c #5E3D5E3D5E3D",
"&  c #5E805E805E80",
"*  c #6B336A9B696B",
"=  c #79F979617831",
"-  c #B2E1894B3622",
";  c #B3F98A64373B",
":  c #B088A0237F58",
">  c #B137A0D28008",
",  c #DB82B1ED5EC1",
"<  c #DE84B2245964",
"1  c #DFD8B3785AB8",
"2  c #CC4EB0EC7A29",
"3  c #D993B1CC623E",
"4  c #DD53B3BD6092",
"5  c #DE00B46A613F",
"6  c #E0A7B71163E6",
"7  c #DFB6B7F76879",
"8  c #D25BB6F98035",
"9  c #E7D7B28747E8",
"0  c #E807B25746F7",
"q  c #E809B29347A7",
"w  c #E873B2B6473C",
"e  c #E874B2D54797",
"r  c #E7C7B2A4485D",
"t  c #E721B2A649AE",
"y  c #E79EB2CA4921",
"u  c #E76BB2EF49F8",
"i  c #E7EFB2CC4886",
"p  c #E571B2A24D05",
"a  c #E631B3624DC5",
"s  c #E6C3B3F54E58",
"d  c #E6FFB4314E94",
"f  c #EC1AB5774832",
"g  c #EC69B5C74882",
"h  c #E268B6075D47",
"j  c #E3A7B7475E87",
"k  c #E3E6B7855EC5",
"l  c #E158B7C26497",
"z  c #E284B8EE65C3",
"x  c #E19BB9D36A42",
"c  c #BEF7AE928DC8",
"v  c #BF85AF208E55",
"b  c #A89AA89AA89A",
"n  c #A8B0A8B0A8B0",
"m  c #A9D2A9D2A9D2",
"M  c #AC7CAC7CAC7C",
"N  c #AEA3AEA3AEA3",
"B  c #AE52AEABAF5D",
"V  c #ADEEAE9EAFFD",
"C  c #AE51AEB3AF77",
"Z  c #AE40AEC3AFC9",
"A  c #AEBDAEB6AEA9",
"S  c #AECFAECEAECB",
"D  c #AFDBAFDBAFDB",
"F  c #AD36AE8CB137",
"G  c #AE9EAFA2B1AA",
"H  c #AEEEAFF2B1FB",
"J  c #B3FEAF1AA553",
"K  c #B694AF49A0B4",
"L  c #B5E0AF3DA1F5",
"P  c #B553AF33A2F1",
"I  c #B82AB186A43E",
"U  c #BC0DB72AAD62",
"Y  c #B0F7B0F7B0F7",
"T  c #B2ABB2ABB2AB",
"R  c #B318B319B31D",
"E  c #B465B465B465",
"W  c #B0D0B221B4C2",
"Q  c #B282B3DDB694",
"!  c #B508B508B508",
"~  c #B68CB68CB68C",
"^  c #B659B6B2B765",
"/  c #B70AB70AB70A",
"(  c #B800B800B800",
")  c #B552B6A3B944",
"_  c #B893B9E9BC95",
"`  c #B8DAB8DAB8DA",
"'  c #BA5EBA5EBA5E",
"]  c #B92EB9B3BABD",
"[  c #BB03BB03BB03",
"{  c #BC8ABC8ABC8A",
"}  c #BD69BD69BD69",
"|  c #BDFEBDFEBDFE",
" . c #BF1CBF1CBF1C",
".. c #BF43BFADC082",
"X. c #C01EC01EC01E",
"o. c #BFDAC033C0E5",
"O. c #C581B059860A",
"+. c #C5CEB09E863E",
"@. c #C705B18C8699",
"#. c #C966B43689D6",
"$. c #CA97B5788B3A",
"%. c #CB6AB5F08AFD",
"&. c #DAC6BF6488A1",
"*. c #DB49BFE78924",
"=. c #DBE3C08189BE",
"-. c #D470BF4094E0",
";. c #D591C0179523",
":. c #D545C01595B5",
">. c #D5E8C06F957B",
",. c #C123B9D8AB44",
"<. c #DDB6C2548B90",
"1. c #DE68C3068C42",
"2. c #D8D0C3B19973",
"3. c #D91CC3EC998C",
"4. c #DBDFC6BF9C81",
"5. c #C608C124B75D",
"6. c #CA32C38EB646",
"7. c #CD5BC611B77C",
"8. c #CBF9C715BD4E",
"9. c #CE7BC7D7BA8F",
"0. c #CE62C842BC00",
"q. c #CFC5C87AB9E5",
"w. c #CF3CC897BB4F",
"e. c #D24DCB03BC6E",
"r. c #D260CBBDBE74",
"t. c #D242CC22BFE1",
"y. c #D2D8CC35BEEC",
"u. c #C1B6C1B6C1B6",
"i. c #C201C201C201",
"p. c #C2FFC2FFC2FF",
"a. c #C3D7C3D7C3D7",
"s. c #C52DC52DC52D",
"d. c #C678C676C671",
"f. c #C59AC633C764",
"g. c #C647C6CCC7D6",
"h. c #C73AC739C738",
"j. c #C82BC82AC829",
"k. c #C704C7ABC8FB",
"l. c #C73FC89ACB51",
"z. c #C995C995C995",
"x. c #C957C9C2CA97",
"c. c #CA3ECA3ECA3E",
"v. c #C991CA95CC9E",
"b. c #CA13CA7DCB53",
"n. c #CB3BCB3BCB3B",
"m. c #CB46CC0DCD9B",
"M. c #CD78CD75CD71",
"N. c #CE4ECE4ECE4E",
"B. c #CDC9CE22CED4",
"V. c #CDF0CE88CFBA",
"C. c #CF5ACF5ACF5A",
"Z. c #CF14CF88D06F",
"A. c #D06AD06DD071",
"S. c #CD66CEB6D157",
"D. c #CE41CF91D233",
"F. c #CE9ACFEFD29A",
"G. c #CEE8CFEDD1F6",
"H. c #CF16D071D328",
"J. c #D0D9CBF5C22E",
"K. c #D6B1CF66C0D2",
"L. c #D604CF60C218",
"P. c #D57ECF5DC31C",
"I. c #D66BD04BC409",
"U. c #D7FDD0B3C21E",
"Y. c #D6B3D1D0C808",
"T. c #D79CD2B8C8F1",
"R. c #D231D231D231",
"E. c #D342D342D342",
"W. c #D498D503D5D9",
"Q. c #D473D5C3D864",
"!. c #D584D584D584",
"~. c #D5E8D5E8D5E8",
"^. c #D771D771D770",
"/. c #D748D7AAD86D",
"(. c #D831D831D831",
"). c #D648D79DDA49",
"_. c #D756D7E4D901",
"`. c #DA5EDA5EDA5E",
"'. c #D9EADA6EDB78",
"]. c #DA5CDB23DCB0",
"[. c #DB7EDB7EDB7D",
"{. c #DB85DBDEDC90",
"}. c #DBF7DC8FDDC1",
"|. c #DD81DD7FDD7D",
" X c #DE1DDE1ADE15",
".X c #E034E034E032",
"XX c #E17BE17BE17B",
"oX c #E2DBE2DBE2DB",
"OX c #E32EE32EE32E",
"+X c #E499E499E499",
"@X c #E59AE59AE59A",
"#X c #E617E617E617",
"$X c #E794E794E794",
"%X c #E8A0E8A0E8A0",
"&X c #E976E976E976",
"*X c #EA54EA54EA54",
"=X c #EB46EB46EB46",
"-X c #EDA3EDA3EDA3",
";X c #EE05EE05EE05",
":X c #EFA4EFA4EFA4",
">X c #F00DF00DF00D",
/* pixels */
"y y y y y y y y y q y q q q q q u u u u 0 u u 0 u ",
"y y y y y y q y a l 2.-.-.2.4.l d u 0 u 0 u u u u ",
"y y y y y q k *.w.J.Z.Z.Z.).).Y.U.1.k u u u 0 0 u ",
"y y y y q x 9.x.Z.C.Z.A.W.(.[.{.(.W.y.x 0 u u u 0 ",
"y y y 0 x w.k.x.C.Z.Z.T.W.{.XXXXXX{.(.I.x 0 y y u ",
"y y y x 0.k.d.d.x.Z.Z.W.{.XX+X$X$X+X.X(.I.x 0 y u ",
"y q k w.k.d.d.d.d.C.A.W.[.+X*X-X-X*X+X.X}.L.k u 0 ",
"y y *.x.d.i.d.d.d.C.A.W.[.#X*X>X:X:X%XOX{.).1.y u ",
"u d 7.k.a.o.a.l.d.x.C.W.[.#X=X>X;X>X-XXX X).U.a y ",
"u 7 ,.o.o.o.o.l.d.x.C.W.{.OX*X-X;X;X*XXX X(.I.7 0 ",
"u %._ ] ] } } ,.d.d.C.Y % } %X%X-X*X#XXX}.(.Z.2.u ",
"0 %.) ~ ] }  . .i.j.m O   @ } XX#XXX X X).R.Z.v ; ",
"0 @.Y R ~ ` }  . .x.#       % {.[.[.(.).W.Z.Z.=   ",
"0 @.F A R ( `  . .p.n o   O Y E.W.W.^.T.R.Z.v.c ; ",
"0 @.F A D E ( {  . .s.n # M R.C.C.C.C.C.C.C.k.-.f ",
"u , J F A D E ( }  . .p.x.j.j.x.x.M.C.C.C.M.0.6 0 ",
"u y K A A A Y ) ( { }  .i.d.j.d.j.j.j.j.C.C.e.a y ",
"y y 2 A A A D E ~ ( ] }  . .p.d.d.s.j.j.n.C.=.u y ",
"y y 1 I A A A Y ~ ~ ~ ] }  . . . . .j.j.Z.e.k 0 y ",
"y y u 3 K A A A D Y ~ ~ ` ] { {  . .s.n.J.x 0 u y ",
"y y y q 3 K F F A A F Y ~ ( ~ ( ] } d.w.x 0 u u y ",
"y y y y y 3 K A F M A A A Y ~ ) ] o.6.7 0 u u 0 y ",
"y y y y y y 1 2 K J M m Y Y R U ,.&.h 0 u 0 u 0 y ",
"y y y y y y y y p 3 O.: * c %., p 0 0 u u u u u y ",
"y y y y y y y y y y f ; X ; f y 0 y y y y y y y y "
};
