/* XPM */
static char *_[] = {
/* columns rows colors chars-per-pixel */
"36 36 50 1",
"  c #000000000000",
". c #055D055D055D",
"X c #08F008F008F0",
"o c #0BB20BB20BB2",
"O c #12E012E012E0",
"+ c #15C115C115C1",
"@ c #17D417D417D4",
"# c #1CDF1CDF1CDF",
"$ c #222D222D222D",
"% c #262026202620",
"& c #32A832A832A8",
"* c #376E376E376E",
"= c #395439543954",
"- c #436F436F436F",
"; c #46BA46BA46BA",
": c #4F874F874F87",
"> c #57CB57CB57CB",
", c #5AF05AF05AF0",
"< c #5E7A5E7A5E7A",
"1 c #618561856185",
"2 c #644864486448",
"3 c #684F684F684F",
"4 c #738773877387",
"5 c #7CFC7CFC7CFC",
"6 c #E79DB2CA4924",
"7 c #820882088208",
"8 c #846284628462",
"9 c #8A988A988A98",
"0 c #8CCC8CCC8CCC",
"q c #91D591D591D5",
"w c #9E7C9E7C9E7C",
"e c #A059A059A059",
"r c #A5D3A5D3A5D3",
"t c #ABFFABFFABFF",
"y c #BDA5BDA5BDA5",
"u c #C11EC11EC11E",
"i c #C818C818C818",
"p c #CB61CB61CB61",
"a c #CF3CCF3CCF3C",
"s c #D3B6D3B6D3B6",
"d c #D75BD75BD75B",
"f c #DB93DB93DB93",
"g c #DFFFDFFFDFFF",
"h c #E44DE44DE44D",
"j c #E4ADE4ADE4AD",
"k c #EC1FEC1FEC1F",
"l c #EED2EED2EED2",
"z c #F454F454F454",
"x c #F7FEF7FEF7FE",
"c c #FFFFFFFFFFFF",
/* pixels */
"66666666666666666  66666666666666666",
"66666666666666666  66666666666666666",
"66666666666666        66666666666666",
"66666666666              66666666666",
"666666666                  666666666",
"66666666            1111    66666666",
"6666666            1111111   6666666",
"666666            111wwww11   666666",
"66666       rt$   11uggutpiy-  66666",
"6666       qcc&   1wccckcccccz# 6666",
"6666     .yccco   1iccccccccccc.6666",
"666     *ccccc    2ccccccchxccc> 666",
"666   oscccccp    eccccccsawkcce 666",
"666   >cckccc5   .ccclcczawwfcc0 666",
"66    -8$Xccc=   3ccceesswwpccc&  66",
"66       %ccco  .cccewwwwwpcccd   66",
"66       <ccc   2ccc211wehcccjo   66",
"         rccd  .ccc3  14xcccr       ",
"         lcc8  3ccc.  *cccc:        ",
"66       ccc- .ccc3  #ccch+       66",
"66      @cccO 3ccc.  hccyttttt,   66",
"66      ;ccc .ccc3  %ccccccccc0   66",
"666     9ccg 3ccc.  7ccccccccc:  666",
"666     ,tt< ,tt,   ,tttttttttO  666",
"666                              666",
"6666                            6666",
"6666                            6666",
"66666                          66666",
"666666                        666666",
"6666666                      6666666",
"66666666                    66666666",
"666666666                  666666666",
"66666666666              66666666666",
"66666666666666        66666666666666",
"66666666666666666  66666666666666666",
"66666666666666666  66666666666666666"
};
