/* XPM */
static char *3[] = {
/* columns rows colors chars-per-pixel */
"36 36 97 2",
"   c #000100010001",
".  c #013D013D013D",
"X  c #053905390539",
"o  c #065D065D065D",
"O  c #080108010801",
"+  c #082F082F082F",
"@  c #096809680968",
"#  c #0A620A620A62",
"$  c #0D0A0D0A0D0A",
"%  c #0D5A0D5A0D5A",
"&  c #116E116E116E",
"*  c #123012301230",
"=  c #132313231323",
"-  c #19C219C219C2",
";  c #1B5D1B5D1B5D",
":  c #1FC81FC81FC8",
">  c #22C922C922C9",
",  c #264126412641",
"<  c #2DF02DF02DF0",
"1  c #2E512E512E51",
"2  c #304E304E304E",
"3  c #337A337A337A",
"4  c #36CF36CF36CF",
"5  c #3BEF3BEF3BEF",
"6  c #3CED3CED3CED",
"7  c #3EFA3EFA3EFA",
"8  c #3F683F683F68",
"9  c #442D442D442D",
"0  c #485E485E485E",
"q  c #4B734B734B73",
"w  c #4E844E844E84",
"e  c #507C507C507C",
"r  c #51EB51EB51EB",
"t  c #52E352E352E3",
"y  c #58B858B858B8",
"u  c #5A405A405A40",
"i  c #618561856185",
"p  c #636563656365",
"a  c #67D067D067D0",
"s  c #69E969E969E9",
"d  c #6D016D016D01",
"f  c #734873487348",
"g  c #75B675B675B6",
"h  c #7CCA7CCA7CCA",
"j  c #E79DB2CA4924",
"k  c #867E867E867E",
"l  c #87DC87DC87DC",
"z  c #88AB88AB88AB",
"x  c #8A1B8A1B8A1B",
"c  c #8A9C8A9C8A9C",
"v  c #8DDF8DDF8DDF",
"b  c #8FFF8FFF8FFF",
"n  c #955195519551",
"m  c #97B897B897B8",
"M  c #9A839A839A83",
"N  c #9BC09BC09BC0",
"B  c #9E799E799E79",
"V  c #A43AA43AA43A",
"C  c #AB0AAB0AAB0A",
"Z  c #AC9EAC9EAC9E",
"A  c #AEEEAEEEAEEE",
"S  c #AFD2AFD2AFD2",
"D  c #B329B329B329",
"F  c #B55BB55BB55B",
"G  c #B741B741B741",
"H  c #BA6BBA6BBA6B",
"J  c #BADFBADFBADF",
"K  c #BD14BD14BD14",
"L  c #BDC8BDC8BDC8",
"P  c #C66AC66AC66A",
"I  c #C865C865C865",
"U  c #C982C982C982",
"Y  c #CC71CC71CC71",
"T  c #CD56CD56CD56",
"R  c #CF3CCF3CCF3C",
"E  c #D07ED07ED07E",
"W  c #D0F0D0F0D0F0",
"Q  c #D1E6D1E6D1E6",
"!  c #D39DD39DD39D",
"~  c #D3F5D3F5D3F5",
"^  c #D514D514D514",
"/  c #D93BD93BD93B",
"(  c #DC5DDC5DDC5D",
")  c #DF62DF62DF62",
"_  c #E30AE30AE30A",
"`  c #E551E551E551",
"'  c #E7A6E7A6E7A6",
"]  c #F182F182F182",
"[  c #F7A8F7A8F7A8",
"{  c #F900F900F900",
"}  c #FA56FA56FA56",
"|  c #FB8BFB8BFB8B",
" . c #FC60FC60FC60",
".. c #FD79FD79FD79",
"X. c #FEB6FEB6FEB6",
"o. c #FF8AFF8AFF8A",
"O. c gray100",
/* pixels */
"j j j j j j j j j j j j j j j j j     j j j j j j j j j j j j j j j j j ",
"j j j j j j j j j j j j j j j j j     j j j j j j j j j j j j j j j j j ",
"j j j j j j j j j j j j j j                 j j j j j j j j j j j j j j ",
"j j j j j j j j j j j                             j j j j j j j j j j j ",
"j j j j j j j j j                                     j j j j j j j j j ",
"j j j j j j j j                         i i i i         j j j j j j j j ",
"j j j j j j j                         i i i i i i i       j j j j j j j ",
"j j j j j j                         i i i B B B B i i       j j j j j j ",
"j j j j j                           d G ~ B B B B B i i       j j j j j ",
"j j j j           x b 1             M O.O.Y E / ` Y G a         j j j j ",
"j j j j         > O.{ u             ` O.Y / O.O.O.O.O.O.v       j j j j ",
"j j j       & 3 ( { { u           & O.O.S O.O.O.O.O.O.O.O.&       j j j ",
"j j j     l O.O.{ O.{ u           r O.O.G O.O.O.~ ~ { O.O.w       j j j ",
"j j j     x O.O.O.O.{ u           U { G P O.O._ E Y P O.O.x       j j j ",
"j j       ; 5 5 b O.{ u         $ O.O.h E O.O.( Y B Y O.O.a         j j ",
"j j             b O.{ u         0 O.O.i i B B S ] O.O.O.O.&         j j ",
"j j             b O.{ u         G { n   i i i G O.O.O.O.U ;         j j ",
"                b O.{ u       + O.O.3       i f G P O.O.O.O.+           ",
"                b O.{ u       5 O.O.o   w n n 3       E O.O.5           ",
"j j             b O.{ u       C { V     l O.[ f       D O.O.w       j j ",
"j j             b O.{ u     o O.O.5     t O.O.O., & 9 O.O.O.:       j j ",
"j j             b O.{ u     5 O.O.+     + O.O.{ O.O.O.O.{ K         j j ",
"j j j           b O.{ u     B { D         1 O.O.O.O.{ O.K $       j j j ",
"j j j           0 b v 1     a v 3           + 5 f l u 1           j j j ",
"j j j                                                             j j j ",
"j j j j                                                         j j j j ",
"j j j j                                                         j j j j ",
"j j j j j                                                     j j j j j ",
"j j j j j j                                                 j j j j j j ",
"j j j j j j j                                             j j j j j j j ",
"j j j j j j j j                                         j j j j j j j j ",
"j j j j j j j j j                                     j j j j j j j j j ",
"j j j j j j j j j j j                             j j j j j j j j j j j ",
"j j j j j j j j j j j j j j                 j j j j j j j j j j j j j j ",
"j j j j j j j j j j j j j j j j j     j j j j j j j j j j j j j j j j j ",
"j j j j j j j j j j j j j j j j j     j j j j j j j j j j j j j j j j j "
};
