/* XPM */
static char *_[] = {
/* columns rows colors chars-per-pixel */
"36 36 55 1",
"  c #000000000000",
". c #096909690969",
"X c #105710571057",
"o c #167B167B167B",
"O c #190519051905",
"+ c #1F9C1F9C1F9C",
"@ c #1FCD1FCD1FCD",
"# c #2DD42DD42DD4",
"$ c #31F231F231F2",
"% c #362836283628",
"& c #37C837C837C8",
"* c #3C063C063C06",
"= c #434543454345",
"- c #468546854685",
"; c #486348634863",
": c #4C244C244C24",
"> c #51F051F051F0",
", c #566856685668",
"< c #592859285928",
"1 c #5D7B5D7B5D7B",
"2 c #670C670C670C",
"3 c #681668166816",
"4 c #6CD16CD16CD1",
"5 c #711671167116",
"6 c #763A763A763A",
"7 c #792579257925",
"8 c #7F9C7F9C7F9C",
"9 c #E79DB2CA4924",
"0 c #81C881C881C8",
"q c #846D846D846D",
"w c #882E882E882E",
"e c #8E438E438E43",
"r c #92A292A292A2",
"t c #94BC94BC94BC",
"y c #9A229A229A22",
"u c #A214A214A214",
"i c #A63AA63AA63A",
"p c #ABF0ABF0ABF0",
"a c #AE0AAE0AAE0A",
"s c #B22EB22EB22E",
"d c #B6DAB6DAB6DA",
"f c #B87CB87CB87C",
"g c #BEFBBEFBBEFB",
"h c #C3B9C3B9C3B9",
"j c #C715C715C715",
"k c #CAE5CAE5CAE5",
"l c #CF3CCF3CCF3C",
"z c #D39CD39CD39C",
"x c #D75CD75CD75C",
"c c #DB99DB99DB99",
"v c #DF7DDF7DDF7D",
"b c #E394E394E394",
"n c #E79DE79DE79D",
"m c #EF34EF34EF34",
"M c #EFBEEFBEEFBE",
/* pixels */
"99999999999999999  99999999999999999",
"99999999999999999  99999999999999999",
"99999999999999lljjjlxl99999999999999",
"99999999999ljllllllxxxxlx99999999999",
"999999999ljlllllllxxxxxxxll999999999",
"99999999ljjllllllxxxvvvvxxll99999999",
"9999999ljjjjlllllxxvvvvvvvxxl9999999",
"999999ljjjjjllllxxvvvnnnnvvxxl999999",
"99999ljjs3->rlllxxvvt::tns2:6jl99999",
"9999ljj>     .flxxvb   eO     0l9999",
"9999lj,        kxxvw   o       f9999",
"999ljd    &X   wxxc   e   @*   2l999",
"999jj7   ajjO  :xx0   >  $Mn*  >x999",
"999jg=  #gjj#  1xx   eMnz:&    px999",
"99dgggfadgg4   il8   bnMr     4xlj99",
"99dddddggg2   +lk   qnnn<    @xxlj99",
"99dddddgf*   ogj7   cvvne;.   yllj99",
"  addddu.   =jjh   0xxvvvvvo  >llj  ",
"  aaaae    0gjj6   kq;;wxxx%  ,ljj  ",
"99saay   oagggh   7l1  Oxxh   7ljj99",
"99aaao  #**=*=5   hly   +%    jljj99",
"99ast            6jjjo       0ljjj99",
"999a,            hjjjdX     8lllj999",
"999a5*&&&*****=*8gjjjjjy<;5fjllll999",
"999aaaaaasddddggggggjjjjjjjjjllll999",
"9999sasaaaadddddgggggjjjjjjjjlll9999",
"9999dsaaaaaddddddgggggggggjjjlll9999",
"99999aaasaaaadddddggggggggjjlll99999",
"999999aaaaaaaadddddddddgggjjll999999",
"9999999aasassaaaadddddddggjjl9999999",
"99999999aaasaaasasafddddggjj99999999",
"999999999aaaaaaaaaaaddddggj999999999",
"99999999999aasaaaaasaddgd99999999999",
"99999999999999aasaaadd99999999999999",
"99999999999999999  99999999999999999",
"99999999999999999  99999999999999999"
};
