/* XPM */
static char *3[] = {
/* columns rows colors chars-per-pixel */
"36 36 118 2",
"   c black",
".  c #018101810181",
"X  c #022602260226",
"o  c #03FD03FD03FD",
"O  c #053905390539",
"+  c #080108010801",
"@  c #084708470847",
"#  c #096809680968",
"$  c #0A620A620A62",
"%  c #0CA20CA20CA2",
"&  c #0D5A0D5A0D5A",
"*  c #0F200F200F20",
"=  c #116A116A116A",
"-  c #123012301230",
";  c #134D134D134D",
":  c #144014401440",
">  c #169C169C169C",
",  c #189E189E189E",
"<  c #19C219C219C2",
"1  c #1FC81FC81FC8",
"2  c #25B525B525B5",
"3  c #266B266B266B",
"4  c #2A402A402A40",
"5  c #2DF02DF02DF0",
"6  c #2E7A2E7A2E7A",
"7  c #304E304E304E",
"8  c #328E328E328E",
"9  c #339233923392",
"0  c #369436943694",
"q  c #3BAE3BAE3BAE",
"w  c #3CED3CED3CED",
"e  c #3DA73DA73DA7",
"r  c #3EFA3EFA3EFA",
"t  c #3F683F683F68",
"y  c #432243224322",
"u  c #442D442D442D",
"i  c #47D847D847D8",
"p  c #485E485E485E",
"a  c #4E844E844E84",
"s  c #507C507C507C",
"d  c #51E751E751E7",
"f  c #52E352E352E3",
"g  c #55D955D955D9",
"h  c #57D157D157D1",
"j  c #58B858B858B8",
"k  c #5A405A405A40",
"l  c #5E715E715E71",
"z  c #618561856185",
"x  c #636563656365",
"c  c #648964896489",
"v  c #67D067D067D0",
"b  c #69E969E969E9",
"n  c #6B126B126B12",
"m  c #6D016D016D01",
"M  c #712F712F712F",
"N  c #734873487348",
"B  c #754675467546",
"V  c #75B675B675B6",
"C  c #7CCA7CCA7CCA",
"Z  c #7FFF7FFF7FFF",
"A  c #E79DB2CA4924",
"S  c #865E865E865E",
"D  c #88A888A888A8",
"F  c #8A9C8A9C8A9C",
"G  c #8DDF8DDF8DDF",
"H  c #8F718F718F71",
"J  c #8FF68FF68FF6",
"K  c #955195519551",
"L  c #97B897B897B8",
"P  c #9A839A839A83",
"I  c #9BC09BC09BC0",
"U  c #9E799E799E79",
"Y  c #A418A418A418",
"T  c #AB0AAB0AAB0A",
"R  c #AC9EAC9EAC9E",
"E  c #AEEEAEEEAEEE",
"W  c #AFD2AFD2AFD2",
"Q  c #B1A1B1A1B1A1",
"!  c #B329B329B329",
"~  c #B55BB55BB55B",
"^  c #B741B741B741",
"/  c #B9ACB9ACB9AC",
"(  c #BA47BA47BA47",
")  c #BADFBADFBADF",
"_  c #BD14BD14BD14",
"`  c #BDC8BDC8BDC8",
"'  c #C09FC09FC09F",
"]  c #C66AC66AC66A",
"[  c #C776C776C776",
"{  c #C865C865C865",
"}  c #C961C961C961",
"|  c #CC71CC71CC71",
" . c #CD56CD56CD56",
".. c #CF3CCF3CCF3C",
"X. c #D07ED07ED07E",
"o. c #D0F0D0F0D0F0",
"O. c #D1E6D1E6D1E6",
"+. c #D39DD39DD39D",
"@. c #D3F5D3F5D3F5",
"#. c #D514D514D514",
"$. c #D87ED87ED87E",
"%. c #D93BD93BD93B",
"&. c #DC3BDC3BDC3B",
"*. c #DF62DF62DF62",
"=. c #E30AE30AE30A",
"-. c #E541E541E541",
";. c #E7A6E7A6E7A6",
":. c #F182F182F182",
">. c #F3B2F3B2F3B2",
",. c #F7A8F7A8F7A8",
"<. c #F99EF99EF99E",
"1. c #FA4DFA4DFA4D",
"2. c #FBA2FBA2FBA2",
"3. c #FC52FC52FC52",
"4. c #FD72FD72FD72",
"5. c #FEBBFEBBFEBB",
"6. c #FF8DFF8DFF8D",
"7. c gray100",
/* pixels */
"A A A A A A A A A A A A A A A A A     A A A A A A A A A A A A A A A A A ",
"A A A A A A A A A A A A A A A A A     A A A A A A A A A A A A A A A A A ",
"A A A A A A A A A A A A A A                 A A A A A A A A A A A A A A ",
"A A A A A A A A A A A                             A A A A A A A A A A A ",
"A A A A A A A A A                                     A A A A A A A A A ",
"A A A A A A A A                         z z z z         A A A A A A A A ",
"A A A A A A A                         z z z z z z z       A A A A A A A ",
"A A A A A A                         z z z U U U U z z       A A A A A A ",
"A A A A A                           n ( @.U U U U U z z       A A A A A ",
"A A A A       9 M K B 8             P 7.7.| @.%.-.| ( c         A A A A ",
"A A A A   < -.7.2.7.2.7.{ *         -.7.{ %.7.7.7.7.7.7.G       A A A A ",
"A A A     2.2.2.7.7.7.7.2.[       - 7.7.E 7.7.7.7.7.7.7.7.-       A A A ",
"A A A   y 7.7.7.2 - g 7.7.7.2     d 7.7.^ 7.7.7.#.@.2.7.7.d       A A A ",
"A A A   S 7.7.p       ^ 7.2.d     { 2.^ [ 7.7.*.| | [ 7.7.D       A A A ",
"A A     Y 7.7.2       ] 7.7.w   * 7.7.C @.7.7.*.@.U | 7.7.c         A A ",
"A A     + - -       n 7.7.7.*   i 7.7.z z U U E :.2.7.7.7.-         A A ",
"A A             w :.7.7.7.l     ( 2.K   z z z ^ 7.7.7.7.{ <         A A ",
"            > ( 7.7.,.7.h     # 7.7.8       z M ( { 2.7.7.7.#           ",
"          2 7.2.2.7.K -       w 7.7.+   a L L 8       @.7.7.w           ",
"A A     * 7.7.7.Q >           T 2.Y     S 7.,.M       Q 7.7.a       A A ",
"A A     z 7.7.C 4 4 4 4 4 4 + 7.7.q     g 7.7.7.2 * y 7.7.7.1       A A ",
"A A     %.7.7.7.7.7.7.7.7.7.h 7.7.+     # 7.7.2.7.7.7.7.2.(         A A ",
"A A A   7.7.7.7.7.7.7.7.7.,.P ,.Q         6 7.7.2.7.7.7._ *       A A A ",
"A A A   D G G K G G K G K G n K 9           + w B D h 6           A A A ",
"A A A                                                             A A A ",
"A A A A                                                         A A A A ",
"A A A A                                                         A A A A ",
"A A A A A                                                     A A A A A ",
"A A A A A A                                                 A A A A A A ",
"A A A A A A A                                             A A A A A A A ",
"A A A A A A A A                                         A A A A A A A A ",
"A A A A A A A A A                                     A A A A A A A A A ",
"A A A A A A A A A A A                             A A A A A A A A A A A ",
"A A A A A A A A A A A A A A                 A A A A A A A A A A A A A A ",
"A A A A A A A A A A A A A A A A A     A A A A A A A A A A A A A A A A A ",
"A A A A A A A A A A A A A A A A A     A A A A A A A A A A A A A A A A A "
};
